<?xml version="1.0" encoding="utf-8"?>
<!-- Generator: Adobe Illustrator 19.2.1, SVG Export Plug-In . SVG Version: 6.00 Build 0)  -->
<svg version="1.1" xmlns="http://www.w3.org/2000/svg" xmlns:xlink="http://www.w3.org/1999/xlink" x="0px" y="0px"
	 viewBox="0 0 300 200" style="enable-background:new 0 0 300 200;" xml:space="preserve">
<style type="text/css">
	.st0{fill:#119A49;}
	.st1{fill:#EDEDED;}
	.st2{fill:#EAEAEA;}
	.st3{fill:#CCCCCC;}
	.st4{fill:none;}
	.st5{fill:none;stroke:#D3D3D3;stroke-miterlimit:10;}
</style>
<g id="Layer_1">
	<circle class="st0" cx="151.5" cy="111.3" r="70.5"/>
	<polygon points="146.7,71.6 146.7,71.6 146.7,71.6 	"/>
	<path class="st1" d="M206.8,57.7l2.2-2.2l2.1,2.1c1.4,1.4,3.7,1.4,5.1,0l3.3-3.3c1.4-1.4,1.4-3.7,0-5.1L208.2,38
		c-1.4-1.4-3.7-1.4-5.1,0l-3.3,3.3c-1.4,1.4-1.4,3.7,0,5.1l2.1,2.1l-2.7,2.7c-11.6-8.8-25.6-14.6-40.8-16V31h4.6
		c3,0,5.4-2.4,5.4-5.4v-7.1c0-3-2.4-5.4-5.4-5.4h-24.1c-3,0-5.4,2.4-5.4,5.4v7.1c0,3,2.4,5.4,5.4,5.4h4.6v4.2
		c-16.3,1.5-31.1,7.9-43.1,17.8l1.3-1.3l-3.1-3.1l2.1-2.1c1.4-1.4,1.4-3.7,0-5.1L97.5,38c-1.4-1.4-3.7-1.4-5.1,0L81.1,49.3
		c-1.4,1.4-1.4,3.7,0,5.1l3.3,3.3c1.4,1.4,3.7,1.4,5.1,0l2.1-2.1l2.9,2.9c-14.3,14.4-23.2,34.3-23.2,56.2c0,44,35.8,79.7,79.7,79.7
		s79.7-35.8,79.7-79.7C230.7,92.3,221.6,72.2,206.8,57.7z M151,178.4c-35.2,0-63.9-28.7-63.9-63.9c0-35.2,28.7-63.9,63.9-63.9
		c35.2,0,63.9,28.7,63.9,63.9C214.9,149.7,186.2,178.4,151,178.4z"/>
	<path class="st2" d="M130.4,71.1l-4.8-8.4l-7.1,4.1l4.8,8.4C125.5,73.6,127.9,72.3,130.4,71.1z"/>
	<path class="st2" d="M102.5,115c0-1.4,0.1-2.8,0.2-4.1H93v8.2h9.7C102.6,117.8,102.5,116.4,102.5,115z"/>
	<path class="st2" d="M111.2,87.3l-8.4-4.8l-4.1,7.1l8.4,4.8C108.3,91.9,109.6,89.5,111.2,87.3z"/>
	<path class="st3" d="M178.7,75.2l4.8-8.4l-7.1-4.1l-4.8,8.4C174.1,72.3,176.5,73.6,178.7,75.2z"/>
	<path class="st3" d="M194.9,94.4l8.4-4.8l-4.1-7.1l-8.4,4.8C192.4,89.5,193.7,91.9,194.9,94.4z"/>
	<path class="st3" d="M151,66.5c1.4,0,2.8,0.1,4.1,0.2V57h-8.2v9.7C148.2,66.6,149.6,66.5,151,66.5z"/>
	<path class="st3" d="M151,163.5c-1.4,0-2.8-0.1-4.1-0.2v9.7h8.2v-9.7C153.8,163.4,152.4,163.5,151,163.5z"/>
	<path class="st2" d="M107.1,135.6l-8.4,4.8l4.1,7.1l8.4-4.8C109.6,140.5,108.3,138.1,107.1,135.6z"/>
	<path class="st3" d="M199.3,110.9c0.1,1.4,0.2,2.7,0.2,4.1s-0.1,2.8-0.2,4.1h9.7v-8.2H199.3z"/>
	<path class="st3" d="M190.8,142.7l8.4,4.8l4.1-7.1l-8.4-4.8C193.7,138.1,192.4,140.5,190.8,142.7z"/>
	<path class="st2" d="M123.3,154.8l-4.8,8.4l7.1,4.1l4.8-8.4C127.9,157.7,125.5,156.4,123.3,154.8z"/>
	<path class="st3" d="M171.6,158.9l4.8,8.4l7.1-4.1l-4.8-8.4C176.5,156.4,174.1,157.7,171.6,158.9z"/>
	<path class="st4" d="M150,178.4c35.2,0,63.9-28.7,63.9-63.9c0-5-0.6-9.9-1.7-14.6L89.2,134C97.4,159.7,121.6,178.4,150,178.4z"/>
	<circle class="st1" cx="150.8" cy="114.3" r="44.8"/>
	<g>
		<path class="st0" d="M124.5,127.5c1.5,1,5,2.5,8.7,2.5c6.8,0,9-4.4,8.9-7.6c-0.1-5.5-5-7.9-10.2-7.9h-3v-4h3c3.9,0,8.8-2,8.8-6.7
			c0-3.1-2-5.9-6.9-5.9c-3.1,0-6.2,1.4-7.9,2.6l-1.4-3.9c2.1-1.5,6-3,10.3-3c7.7,0,11.3,4.6,11.3,9.4c0,4.1-2.4,7.5-7.3,9.3v0.1
			c4.8,1,8.8,4.6,8.8,10.1c0,6.3-4.9,11.8-14.3,11.8c-4.4,0-8.3-1.4-10.2-2.7L124.5,127.5z"/>
		<path class="st0" d="M180.4,113.5c0,13.4-5,20.8-13.7,20.8c-7.7,0-12.9-7.2-13-20.2c0-13.2,5.7-20.5,13.7-20.5
			C175.7,93.6,180.4,101,180.4,113.5z M159,114.1c0,10.2,3.1,16,8,16c5.4,0,8-6.4,8-16.4c0-9.7-2.5-16-8-16
			C162.4,97.7,159,103.4,159,114.1z"/>
	</g>
</g>
<g id="Layer_2">
	<path class="st5" d="M206.8,57.7l2.2-2.2l2.1,2.1c1.4,1.4,3.7,1.4,5.1,0l3.3-3.3c1.4-1.4,1.4-3.7,0-5.1L208.2,38
		c-1.4-1.4-3.7-1.4-5.1,0l-3.3,3.3c-1.4,1.4-1.4,3.7,0,5.1l2.1,2.1l-2.7,2.7c-11.6-8.8-25.6-14.6-40.8-16V31h4.6
		c3,0,5.4-2.4,5.4-5.4v-7.1c0-3-2.4-5.4-5.4-5.4h-24.1c-3,0-5.4,2.4-5.4,5.4v7.1c0,3,2.4,5.4,5.4,5.4h4.6v4.2
		c-16.3,1.5-31.1,7.9-43.1,17.8l1.3-1.3l-3.1-3.1l2.1-2.1c1.4-1.4,1.4-3.7,0-5.1L97.5,38c-1.4-1.4-3.7-1.4-5.1,0L81.1,49.3
		c-1.4,1.4-1.4,3.7,0,5.1l3.3,3.3c1.4,1.4,3.7,1.4,5.1,0l2.1-2.1l2.9,2.9c-14.3,14.4-23.2,34.3-23.2,56.2c0,44,35.8,79.7,79.7,79.7
		s79.7-35.8,79.7-79.7C230.7,92.3,221.6,72.2,206.8,57.7z M151,178.4c-35.2,0-63.9-28.7-63.9-63.9c0-35.2,28.7-63.9,63.9-63.9
		c35.2,0,63.9,28.7,63.9,63.9C214.9,149.7,186.2,178.4,151,178.4z"/>
</g>
</svg>
