<?xml version="1.0" encoding="utf-8"?>
<!-- Generator: Adobe Illustrator 19.2.1, SVG Export Plug-In . SVG Version: 6.00 Build 0)  -->
<svg version="1.1" xmlns="http://www.w3.org/2000/svg" xmlns:xlink="http://www.w3.org/1999/xlink" x="0px" y="0px"
	 viewBox="0 0 429 300" style="enable-background:new 0 0 429 300;" xml:space="preserve">
<style type="text/css">
	.st0{display:none;}
	.st1{display:inline;}
	.st2{fill:none;stroke:#1C9A48;}
	.st3{fill:none;stroke:#1C9A48;stroke-miterlimit:10;}
	.st4{fill:none;stroke:#1C9A48;stroke-width:1.0937;stroke-miterlimit:10;}
</style>
<g id="Layer_1">
	<g id="Lock" class="st0">
		<g class="st1">
			<path class="st2" d="M365.4,150.9h-18.8V98.2h0c-0.3-37.1-30.4-67.1-67.6-67.1s-67.3,30-67.6,67.1h0v52.7h-18.8
				c-4.1,0-7.5,3.4-7.5,7.5v105.1c0,4.1,3.4,7.5,7.5,7.5h172.7c4.1,0,7.5-3.4,7.5-7.5V158.4C372.9,154.3,369.5,150.9,365.4,150.9z
				 M237.7,98.2c0,0.1,0,0.1,0,0.2c0.2-22.6,18.7-41,41.3-41s41.1,18.4,41.3,41c0-0.1,0-0.1,0-0.2v52.7h-82.6V98.2z M293.1,230
				h-28.3l9.1-26.5c-5.8-2.1-9.9-7.5-9.9-14c0-8.3,6.7-15,15-15s15,6.7,15,15c0,6.5-4.2,12-9.9,14L293.1,230z"/>
		</g>
	</g>
</g>
<g id="Layer_4">
	<g id="Check">
		<g>
			<path class="st3" d="M55.9,55c2.3-0.4,5.7-0.7,9.4-0.7c4.7,0,7.9,0.7,10.1,2.5c1.9,1.5,2.9,3.7,2.9,6.6c0,4-2.8,6.7-5.5,7.7v0.1
				c2.2,0.9,3.4,3,4.2,5.9c1,3.5,2,7.6,2.6,8.8h-7.3c-0.5-0.9-1.3-3.4-2.2-7.3c-0.8-3.9-2.2-5-5.1-5h-2.1V86h-7V55z M62.9,68.5h2.8
				c3.5,0,5.6-1.8,5.6-4.5c0-2.9-2-4.3-5.2-4.4c-1.7,0-2.7,0.1-3.2,0.2V68.5z"/>
			<path class="st3" d="M102.1,72.7H90.6v7.4h12.9V86h-20V54.6h19.4v5.8H90.6v6.5h11.5V72.7z"/>
			<path class="st3" d="M134.5,84.5c-2.2,0.7-6.3,1.8-10.5,1.8c-5.7,0-9.9-1.4-12.7-4.2c-2.9-2.7-4.5-6.8-4.4-11.4
				c0-10.4,7.6-16.4,17.9-16.4c4,0,7.2,0.8,8.7,1.5l-1.5,5.7c-1.7-0.7-3.9-1.3-7.3-1.3c-5.9,0-10.4,3.3-10.4,10.1
				c0,6.5,4,10.3,9.9,10.3c1.6,0,2.9-0.2,3.5-0.5v-6.6h-4.8V68h11.7V84.5z"/>
			<path class="st3" d="M147.2,54.6V86H140V54.6H147.2z"/>
			<path class="st3" d="M153.5,78.7c1.9,1,4.8,2,7.9,2c3.3,0,5-1.3,5-3.4c0-2-1.5-3.1-5.3-4.4c-5.2-1.8-8.6-4.7-8.6-9.3
				c0-5.4,4.5-9.4,11.9-9.4c3.5,0,6.1,0.7,8,1.6l-1.6,5.7c-1.3-0.6-3.5-1.5-6.6-1.5c-3.1,0-4.6,1.4-4.6,3c0,2,1.8,2.9,5.8,4.4
				c5.5,2,8.1,4.9,8.1,9.4c0,5.3-4,9.7-12.7,9.7c-3.6,0-7.1-0.9-8.9-1.9L153.5,78.7z"/>
			<path class="st3" d="M184.5,60.6H176v-6h24.1v6h-8.6V86h-7.1V60.6z"/>
			<path class="st3" d="M203.9,55c2.3-0.4,5.7-0.7,9.4-0.7c4.7,0,7.9,0.7,10.1,2.5c1.9,1.5,2.9,3.7,2.9,6.6c0,4-2.8,6.7-5.5,7.7v0.1
				c2.2,0.9,3.4,3,4.2,5.9c1,3.5,2,7.6,2.6,8.8h-7.3c-0.5-0.9-1.3-3.4-2.2-7.3c-0.8-3.9-2.2-5-5.1-5h-2.1V86h-7V55z M210.9,68.5h2.8
				c3.5,0,5.6-1.8,5.6-4.5c0-2.9-2-4.3-5.2-4.4c-1.7,0-2.7,0.1-3.2,0.2V68.5z"/>
			<path class="st3" d="M239.2,77.9l-2.2,8h-7.4l9.6-31.4h9.3l9.7,31.4h-7.6l-2.4-8H239.2z M247.2,72.6l-2-6.7
				c-0.6-1.9-1.1-4.2-1.6-6h-0.1c-0.5,1.9-0.9,4.2-1.4,6l-1.9,6.7H247.2z"/>
			<path class="st3" d="M264.6,60.6h-8.4v-6h24.1v6h-8.6V86h-7.1V60.6z"/>
			<path class="st3" d="M291.2,54.6V86h-7.1V54.6H291.2z"/>
			<path class="st3" d="M326,70c0,10.3-6.2,16.5-15.4,16.5c-9.3,0-14.7-7-14.7-16c0-9.4,6-16.4,15.3-16.4
				C320.8,54.1,326,61.3,326,70z M303.4,70.4c0,6.1,2.9,10.5,7.6,10.5c4.8,0,7.5-4.6,7.5-10.7c0-5.6-2.7-10.5-7.6-10.5
				C306.2,59.7,303.4,64.3,303.4,70.4z"/>
			<path class="st3" d="M330.7,86V54.6h8.3l6.5,11.5c1.9,3.3,3.7,7.2,5.1,10.7h0.1c-0.5-4.1-0.6-8.4-0.6-13.1v-9.2h6.5V86h-7.4
				l-6.7-12.1c-1.9-3.3-3.9-7.4-5.4-11.1l-0.1,0c0.2,4.1,0.3,8.6,0.3,13.7V86H330.7z"/>
		</g>
		<g>
			<path class="st3" d="M115.2,127.6h7.4V154h13v6.2h-20.4V127.6z"/>
			<path class="st3" d="M168,143.5c0,10.7-6.5,17.2-16,17.2c-9.7,0-15.3-7.3-15.3-16.6c0-9.8,6.2-17.1,15.9-17.1
				C162.5,127,168,134.5,168,143.5z M144.4,144c0,6.4,3,10.9,7.9,10.9c5,0,7.8-4.7,7.8-11.1c0-5.9-2.8-10.9-7.9-10.9
				C147.3,132.9,144.4,137.6,144.4,144z"/>
			<path class="st3" d="M196.8,159.3c-1.4,0.7-4.4,1.4-8.4,1.4c-11.3,0-17.1-7-17.1-16.3c0-11.1,7.9-17.3,17.8-17.3
				c3.8,0,6.7,0.8,8,1.5l-1.5,5.9c-1.5-0.6-3.6-1.2-6.2-1.2c-5.9,0-10.4,3.5-10.4,10.8c0,6.5,3.9,10.7,10.5,10.7
				c2.2,0,4.7-0.5,6.1-1.1L196.8,159.3z"/>
			<path class="st3" d="M209.7,151.8l-2.3,8.4h-7.6l10-32.6h9.7l10.1,32.6h-7.9l-2.5-8.4H209.7z M218,146.3l-2-6.9
				c-0.6-1.9-1.2-4.4-1.6-6.3h-0.1c-0.5,1.9-1,4.4-1.5,6.3l-1.9,6.9H218z"/>
			<path class="st3" d="M236.1,133.8h-8.8v-6.2h25.1v6.2h-8.9v26.4h-7.4V133.8z"/>
			<path class="st3" d="M263.8,127.6v32.6h-7.4v-32.6H263.8z"/>
			<path class="st3" d="M300,143.5c0,10.7-6.5,17.2-16,17.2c-9.7,0-15.3-7.3-15.3-16.6c0-9.8,6.2-17.1,15.9-17.1
				C294.6,127,300,134.5,300,143.5z M276.5,144c0,6.4,3,10.9,7.9,10.9c5,0,7.8-4.7,7.8-11.1c0-5.9-2.8-10.9-7.9-10.9
				C279.4,132.9,276.5,137.6,276.5,144z"/>
			<path class="st3" d="M304.9,160.2v-32.6h8.6l6.8,12c1.9,3.4,3.9,7.5,5.3,11.2h0.1c-0.5-4.3-0.6-8.7-0.6-13.6v-9.5h6.8v32.6h-7.7
				l-7-12.6c-1.9-3.5-4.1-7.7-5.7-11.5l-0.1,0c0.2,4.3,0.3,8.9,0.3,14.2v9.8H304.9z"/>
		</g>
		<g>
			<path class="st4" d="M128.7,240l-10.2-31.7h7.9l3.9,13.4c1.1,3.8,2.1,7.4,2.8,11.3h0.1c0.8-3.8,1.8-7.6,2.9-11.2l4-13.5h7.6
				L137.1,240H128.7z"/>
			<path class="st4" d="M170,226.6h-11.7v7.5h13v5.9h-20.2v-31.7h19.6v5.9h-12.4v6.6H170V226.6z"/>
			<path class="st4" d="M176.3,208.7c2.3-0.4,5.7-0.7,9.5-0.7c4.7,0,8,0.7,10.3,2.5c1.9,1.5,2.9,3.7,2.9,6.6c0,4-2.9,6.8-5.6,7.8
				v0.1c2.2,0.9,3.4,3,4.2,5.9c1,3.6,2,7.7,2.6,8.9h-7.3c-0.5-0.9-1.3-3.5-2.2-7.4c-0.8-4-2.2-5-5.1-5.1h-2.2V240h-7.1V208.7z
				 M183.4,222.3h2.8c3.6,0,5.7-1.8,5.7-4.6c0-2.9-2-4.4-5.3-4.4c-1.7,0-2.7,0.1-3.2,0.2V222.3z"/>
			<path class="st4" d="M211.3,208.3V240h-7.2v-31.7H211.3z"/>
			<path class="st4" d="M217.5,208.3h19.4v5.9h-12.2v7.2h11.4v5.8h-11.4V240h-7.2V208.3z"/>
			<path class="st4" d="M249.5,208.3V240h-7.2v-31.7H249.5z"/>
			<path class="st4" d="M279,239.1c-1.3,0.7-4.3,1.4-8.1,1.4c-11,0-16.6-6.8-16.6-15.8c0-10.8,7.7-16.8,17.3-16.8
				c3.7,0,6.5,0.8,7.8,1.4l-1.5,5.7c-1.5-0.6-3.5-1.2-6-1.2c-5.7,0-10.1,3.4-10.1,10.5c0,6.3,3.8,10.3,10.2,10.3c2.2,0,4.6-0.5,6-1
				L279,239.1z"/>
			<path class="st4" d="M291.6,231.8l-2.3,8.1h-7.4l9.7-31.7h9.4l9.8,31.7h-7.7l-2.4-8.1H291.6z M299.6,226.5l-2-6.7
				c-0.6-1.9-1.1-4.2-1.6-6.1h-0.1c-0.5,1.9-0.9,4.3-1.5,6.1l-1.9,6.7H299.6z"/>
			<path class="st4" d="M317.2,214.3h-8.5v-6h24.4v6h-8.7V240h-7.2V214.3z"/>
			<path class="st4" d="M344.1,208.3V240h-7.2v-31.7H344.1z"/>
			<path class="st4" d="M379.3,223.8c0,10.4-6.3,16.7-15.6,16.7c-9.4,0-14.9-7.1-14.9-16.1c0-9.5,6.1-16.6,15.4-16.6
				C374,207.7,379.3,215,379.3,223.8z M356.4,224.2c0,6.2,2.9,10.6,7.7,10.6c4.8,0,7.6-4.6,7.6-10.8c0-5.7-2.7-10.6-7.7-10.6
				C359.2,213.4,356.4,218,356.4,224.2z"/>
			<path class="st4" d="M384,240v-31.7h8.4l6.6,11.6c1.9,3.3,3.8,7.3,5.2,10.9h0.1c-0.5-4.2-0.6-8.5-0.6-13.2v-9.3h6.6V240h-7.5
				l-6.8-12.2c-1.9-3.4-3.9-7.5-5.5-11.2l-0.1,0c0.2,4.2,0.3,8.7,0.3,13.8v9.5H384z"/>
		</g>
		<path class="st3" d="M19.3,188.4c0,15.4,12.4,28,27.8,28.2v-1v-6.1l20.5,11.8L47.1,233v-6.1v-1.8c-20.1-0.2-36.3-16.6-36.3-36.7
			c0-20.3,16.5-36.7,36.7-36.7c0.1,0,0.2,0,0.3,0v8.5c-0.1,0-0.2,0-0.3,0C31.9,160.1,19.3,172.8,19.3,188.4z"/>
		<path class="st3" d="M397.6,112.9c0,15.4-12.4,28-27.8,28.2v-1v-6.1l-20.5,11.8l20.5,11.8v-6.1v-1.8c20.1-0.2,36.3-16.6,36.3-36.7
			c0-20.3-16.5-36.7-36.7-36.7c-0.1,0-0.2,0-0.3,0v8.5c0.1,0,0.2,0,0.3,0C384.9,84.6,397.6,97.3,397.6,112.9z"/>
		<path class="st3" d="M24.6,63.9L24.6,63.9l-5.4,2.5l-1.1-4.9l7.4-3.4H31V86h-6.3V63.9z"/>
		<path class="st3" d="M35.5,82.5c0-2.3,1.6-4,3.9-4c2.3,0,3.8,1.6,3.8,4c0,2.3-1.5,4-3.9,4C37.1,86.5,35.5,84.8,35.5,82.5z"/>
		<g>
			<path class="st3" d="M69.3,160.3v-4l3.6-3.3c6.1-5.5,9.1-8.6,9.2-11.9c0-2.3-1.4-4.1-4.6-4.1c-2.4,0-4.5,1.2-6,2.3l-1.8-4.7
				c2.1-1.6,5.4-2.9,9.2-2.9c6.3,0,9.8,3.7,9.8,8.8c0,4.7-3.4,8.4-7.4,12l-2.6,2.2v0.1h10.5v5.4H69.3z"/>
			<path class="st3" d="M93.5,156.8c0-2.3,1.6-4,3.9-4c2.3,0,3.8,1.6,3.8,4c0,2.3-1.5,4-3.9,4C95.1,160.7,93.5,159.1,93.5,156.8z"/>
		</g>
		<g>
			<path class="st3" d="M81.5,233.6c1.2,0.6,3.8,1.7,6.5,1.7c3.4,0,5.1-1.6,5.1-3.7c0-2.8-2.8-4-5.6-4h-2.7v-4.7h2.5
				c2.2,0,5-0.9,5-3.2c0-1.7-1.4-2.9-4.1-2.9c-2.3,0-4.7,1-5.8,1.7l-1.3-4.7c1.7-1.1,5-2.1,8.6-2.1c6,0,9.3,3.1,9.3,7
				c0,3-1.7,5.3-5.1,6.5v0.1c3.4,0.6,6.1,3.1,6.1,6.8c0,4.9-4.3,8.6-11.4,8.6c-3.6,0-6.7-0.9-8.3-2L81.5,233.6z"/>
			<path class="st3" d="M104.5,236.5c0-2.3,1.6-4,3.9-4c2.3,0,3.8,1.6,3.8,4c0,2.3-1.5,4-3.9,4C106.1,240.5,104.5,238.8,104.5,236.5
				z"/>
		</g>
	</g>
</g>
</svg>
