<?xml version="1.0" encoding="utf-8"?>
<!-- Generator: Adobe Illustrator 19.2.1, SVG Export Plug-In . SVG Version: 6.00 Build 0)  -->
<svg version="1.1" id="Layer_1" xmlns="http://www.w3.org/2000/svg" xmlns:xlink="http://www.w3.org/1999/xlink" x="0px" y="0px"
	 viewBox="0 0 300 150" style="enable-background:new 0 0 300 150;" xml:space="preserve">
<style type="text/css">
	.st0{fill:#098040;}
	.st1{fill:#44B75B;}
	.st2{fill:#094F28;}
	.st3{fill:#079948;}
</style>
<path class="st0" d="M301.3,42.2c0,0-84.7,23.4-148.5,1.6C66.5,14.2-1.7,30.2-1.7,30.2v95.1h302l1-81.9"/>
<path class="st1" d="M-7.1,93c0,0,34.2,45.8,93.9,10c107-64.1,214.4-23.6,214.4-23.6v77.6H-6.1l-1-62.7"/>
<path class="st2" d="M300.3,103.2c0,0-84.2,23.4-147.5,1.6C67.1,75.2-0.7,91.2-0.7,91.2v65.1h300l1-51.9"/>
<path class="st3" d="M-2.7,98.8c0,0,84.9,25.8,148.8,1.7C232.7,68,301,85.7,301,85.7v74.7H-1.7l-1-60.1"/>
<path class="st3" d="M-3.3,44c0,0,84.9-25.8,148.8-1.7C232,74.9,300.3,57.2,300.3,57.2V-6.5H-2.3l-1,49.1"/>
</svg>
