<?xml version="1.0" encoding="utf-8"?>
<!-- Generator: Adobe Illustrator 19.1.0, SVG Export Plug-In . SVG Version: 6.00 Build 0)  -->
<svg version="1.1" xmlns="http://www.w3.org/2000/svg" xmlns:xlink="http://www.w3.org/1999/xlink" x="0px" y="0px"
	 viewBox="0 0 1004 1170" style="enable-background:new 0 0 1004 1170;" xml:space="preserve">
<style type="text/css">
	.st0{fill:#0e9948;stroke:#00761a;stroke-miterlimit:10;}
	.st1{fill:#FFFFFF;stroke:#00761a;stroke-miterlimit:10;}
	.st2{fill:#0e9948;}
	.st3{fill:#FFFFFF;}
	.st4{display:none;}
	.st5{display:inline;}
</style>
<g id="Layer_1">
	<polygon class="st0" points="62.5,975.8 770.5,1154.1 770.5,32 62.5,384.1 	"/>
	<polygon class="st1" points="62.5,974.8 773.5,1155.4 773.5,500.4 62.5,632.1 	"/>
	<polygon class="st0" points="904.5,1120.8 770.5,1154.9 770.5,32 904.5,99.1 	"/>
	<g>
		<path class="st2" d="M458.6,674.4c-69.4,4.9-120.3,64.6-120.3,133.6S389.2,941,458.6,952c78.3,12.3,149.8-46.3,149.8-132.3
			S536.9,668.9,458.6,674.4z M436.5,873.1L376.9,816h0l30.9-29.9l29.4,29l87.2-61.6l28.6,25L436.5,873.1z"/>
		<path class="st2" d="M670.4,851.4l33.5-27.6l-33.5-30.5l23.5-35.6l-40.3-20.2l11.1-39.7l-43.8-8.4v-39.2l-41.5,3.4l-9.9-36.3
			l-37.3,13.5l-18.5-29.8l-31,21.7l-24.2-22.1L435.2,628l-27.4-13.7l-15.2,30.5l-28.3-5.3l-6.7,31.9l-26.6,2.1v30.9l-26.2,9.2
			l6.3,29.4l-22.2,15.4l12.5,26.4l-17.8,20.8l17.7,22.3l-12.6,25.3l22,17.3l-5.9,28.8l26.2,11.4v31.6l26.6,4.5l7,32.2l28.2-3.1
			l15.2,31.8l27.3-11.4l23.3,29.3l24.2-19.9l31,24.4l18.6-28.2l37.6,17.1l9.5-34.9l41.5,7.1v-40.1l43.8-4.7l-11.5-40.7l40.5-16.7
			L670.4,851.4z M458.6,972.2c-79-13.7-135.8-86.9-135.8-164.9S379.6,661,458.6,654.1c90.7-7.9,174.8,66.2,174.8,166.6
			S549.3,987.9,458.6,972.2z"/>
	</g>
	<g id="Check">
		<g id="Checklist">
		</g>
	</g>
	<g id="Perspective_Text">
		<g>
			<path class="st3" d="M215.1,490v-29l23-7v70.2c-2.3,7.7-5.6,14.8-9.8,21.2c-4.2,6.3-8.5,9.9-12.8,10.8c-5.4,1.1-10-1.7-13.9-8.3
				c-3.9-6.6-6.8-16.5-8.7-29.8c-1.9-13.2-2.9-27.9-2.9-44c0-17.5,1.1-33.4,3.2-47.7c2.2-14.4,5.3-26.1,9.5-35
				c3.2-6.9,7.3-11.3,12.2-13.2c6.4-2.5,11.5,0,15.2,7.7c3.7,7.7,6.1,19.5,7.2,35.3l-10.7,10.2c-0.7-8.3-2.1-14.6-4.2-18.8
				c-2-4.2-4.6-5.8-7.6-4.7c-4.5,1.6-8.1,7.7-10.7,18.2c-2.6,10.4-3.9,24.9-3.9,43.6c0,20.1,1.3,34.9,4,44.3
				c2.7,9.5,6.2,13.7,10.6,12.6c2.2-0.5,4.4-2.5,6.6-5.9c2.2-3.4,4.1-7.4,5.8-11.9v-22.1L215.1,490z"/>
			<path class="st3" d="M245.7,480.7c0-11.3,0.9-22.5,2.6-33.6c1.7-11.2,4.2-20.1,7.4-26.8c3.2-6.7,6.9-10.8,10.9-12.2
				c6.3-2.2,11.5,2.6,15.6,14.3c4.1,11.8,6.2,27.8,6.2,47.9c0,20.3-2.1,37.6-6.3,51.9c-4.1,14.2-9.3,21.8-15.5,23.1
				c-3.8,0.8-7.4-1.2-10.7-5.8c-3.4-4.6-5.9-11.9-7.6-21.8C246.6,507.8,245.7,495.5,245.7,480.7z M256.6,479.5
				c0,12.9,1,22.5,2.9,28.9c1.9,6.4,4.3,9.3,7.2,8.6c2.9-0.7,5.3-4.7,7.2-12.2c2-7.5,3-17.9,3-31.2c0-13-1-22.7-3-29.1
				c-2-6.4-4.4-9.1-7.2-8.2c-2.9,0.9-5.2,5.1-7.2,12.6C257.6,456.4,256.6,466.6,256.6,479.5z"/>
			<path class="st3" d="M339.1,527.1l-12.4,2.6v-70.9c0-15-0.3-24.6-0.8-28.9c-0.5-4.2-1.4-7.4-2.5-9.5c-1.2-2.1-2.6-2.8-4.2-2.3
				c-2.1,0.7-4,3-5.6,6.9c-1.6,4-2.8,8.9-3.4,14.7c-0.6,5.9-0.9,16.4-0.9,31.7v61.9l-11.8,2.5V400.6l10.9-3.7V417
				c3.9-16.8,8.9-26.2,15-28.3c2.7-0.9,5.2-0.3,7.4,1.9c2.3,2.2,4,5.4,5.2,9.5c1.2,4.2,2,9.1,2.4,14.8c0.5,5.7,0.7,13.9,0.7,24.8
				V527.1z"/>
			<path class="st3" d="M349,452c0-12.5,1-24.8,3.1-37.2c2.1-12.4,5.1-22.3,9-29.8c3.9-7.5,8.4-12.2,13.3-13.9
				c7.7-2.6,14.1,2.4,19.1,15.2c5.1,12.9,7.6,30.6,7.6,52.8c0,22.5-2.6,41.7-7.7,57.6c-5.1,15.8-11.4,24.4-18.9,26
				c-4.6,1-9-1.1-13.1-6.2c-4.1-5-7.2-13-9.3-23.9C350,481.9,349,468.3,349,452z M362.2,450.4c0,14.2,1.2,24.8,3.5,31.8
				c2.3,7,5.3,10.1,8.7,9.3c3.5-0.8,6.5-5.4,8.9-13.7c2.4-8.3,3.6-19.9,3.6-34.6c0-14.4-1.2-25.1-3.6-32.1c-2.4-7-5.3-9.9-8.9-8.8
				c-3.5,1.1-6.4,5.8-8.7,14.1C363.4,424.9,362.2,436.2,362.2,450.4z"/>
			<path class="st3" d="M426.1,508.7l-14.4,3.1V361.8l13.4-4.6v21.6c2.3-10.9,4.4-18.4,6.3-22.3c1.9-3.9,4-6.3,6.4-7.1
				c3.4-1.2,6.7,0.3,9.9,4.3l-4.7,37.1c-2.5-3.7-4.9-5.1-7-4.5c-2.1,0.6-3.8,2.8-5.3,6.3c-1.4,3.5-2.6,9.5-3.4,17.8
				c-0.8,8.3-1.2,25.4-1.2,51.2V508.7z"/>
			<path class="st3" d="M469.1,499.6l-15.5,3.3V347.6l14.4-4.9v22.3c2.5-11.4,4.7-19.1,6.8-23.1c2-4.1,4.3-6.5,6.9-7.4
				c3.7-1.3,7.2,0.2,10.6,4.4l-5,38.5c-2.7-3.8-5.2-5.3-7.5-4.6c-2.2,0.7-4.1,2.9-5.7,6.6c-1.5,3.7-2.7,9.9-3.6,18.5
				c-0.9,8.6-1.3,26.3-1.3,53.1V499.6z"/>
			<path class="st3" d="M515.9,264.4v82.8c5.5-18.1,12.1-28.6,19.9-31.2c4-1.4,7.7-0.7,11,1.9c3.3,2.7,5.8,6.7,7.5,12
				c1.7,5.4,2.8,11.6,3.5,18.5c0.6,7,0.9,18.1,0.9,33.2v98.9l-17.8,3.8v-87.9c0-17.4-0.3-28.4-1-32.9c-0.7-4.5-1.8-7.9-3.5-10.1
				c-1.7-2.2-3.8-2.9-6.3-2.2c-2.9,0.9-5.4,3.5-7.6,7.7c-2.2,4.2-3.8,10-4.9,17.3c-1,7.3-1.5,17.9-1.5,31.6v81.8l-16.7,3.5V270.8
				L515.9,264.4z"/>
			<path class="st3" d="M619.1,411.6l20,2.9c-2.6,17.9-6.7,32-12.2,42.2c-5.5,10.1-12.3,16-20.4,17.7c-12.6,2.6-21.8-5.2-27.7-23.4
				c-4.6-14.5-6.9-33.5-6.9-57.1c0-28.2,3-51.3,9.1-69.3c6.1-18.2,14-28.9,23.6-32.2c11-3.8,19.7,1.9,26.2,17.2
				c6.6,15.4,9.7,41.4,9.4,77.8l-49.2,13.1c0.1,13.5,1.7,23.7,4.6,30.5c3,6.9,6.6,9.8,11.1,8.7c3-0.7,5.6-3.3,7.7-7.8
				C616.4,427.6,618,420.8,619.1,411.6z M620.2,364.2c-0.1-13.5-1.6-23.3-4.4-29.5c-2.8-6.1-6.2-8.6-10.1-7.3
				c-4.2,1.3-7.7,6.1-10.4,14.2c-2.7,8.1-4,18.4-4,30.9L620.2,364.2z"/>
			<path class="st3" d="M672.7,329.1l-19.1-2.1c2.1-18.2,5.8-32.3,11-42.5c5.3-10.3,13.2-17.2,23.8-20.8c9.8-3.4,17.2-3.3,22,0.3
				c4.9,3.6,8.4,9.2,10.4,16.6c2,7.5,3,22.2,3,44l-0.2,58.7c0,16.7,0.4,28.9,1.1,36.6c0.7,7.8,2.1,16,4.1,24.6l-22.4,4.8
				c-0.6-3.2-1.3-7.9-2.1-14.2c-0.4-2.9-0.6-4.7-0.8-5.6c-3.8,9.1-7.8,16.1-12.1,21.1c-4.2,5-8.7,7.9-13.5,8.9
				c-8.3,1.7-14.8-2-19.5-11.1c-4.7-9.1-7-21.3-7-36.7c0-10.2,1.1-19.6,3.2-28.1c2.1-8.6,5.1-15.6,9-20.9
				c3.9-5.4,9.5-10.7,16.9-16.1c10.1-7.2,17.3-13.3,21.3-18.2v-4.9c0-9.5-1.1-16-3.2-19.3c-2.1-3.4-6-4.2-11.8-2.3
				c-3.9,1.2-6.9,3.9-9,8C675.8,313.7,674,320.2,672.7,329.1z M701.8,360.5c-2.8,2.9-7.3,6.6-13.4,11.2c-6,4.5-9.9,8.4-11.8,11.6
				c-2.8,5.2-4.2,11.3-4.2,18.2c0,6.8,1.1,12.4,3.3,16.8c2.2,4.4,5.1,6.2,8.6,5.4c3.9-0.9,7.7-4.7,11.3-11.4
				c2.7-5.1,4.4-11,5.3-17.6c0.6-4.4,0.9-12.5,0.9-24.3V360.5z"/>
		</g>
	</g>
</g>
<g id="Layer_5">
</g>
<g id="Layer_4" class="st4">
	<g class="st5">
		<path class="st3" d="M220.7,473.6l8.6-4.5c0.4,7.6,1.4,13.7,2.9,18.3c1.5,4.5,3.9,7.9,7.1,10.1c3.3,2.2,6.9,2.7,11.1,1.5
			c3.7-1.1,7-3.2,9.9-6.4c2.9-3.3,5.1-7.2,6.5-11.8c1.4-4.7,2.1-9.5,2.1-14.5c0-5.1-0.7-9.3-2.1-12.6c-1.4-3.3-3.6-5.7-6.8-7.3
			c-2-1-6.4-2.1-13.1-3.3c-6.6-1.2-11.2-2.8-13.8-5c-3.4-2.7-5.8-6.6-7.5-11.8c-1.6-5.1-2.4-11.2-2.4-18.3c0-7.8,1-15.5,3-23.1
			c2-7.6,4.9-14.1,8.8-19.3c3.9-5.3,8.3-8.9,13.2-11.1c5.4-2.4,10.2-2.6,14.5-0.5c4.3,2,7.6,6.3,9.9,12.9c2.3,6.6,3.6,14.7,3.8,24.1
			l-9.7,5.3c-0.5-10-2.3-17-5.2-21c-2.9-4-7.2-4.8-12.9-2.4c-5.8,2.4-10,6.5-12.6,12.1c-2.6,5.6-3.9,11.7-3.9,18.1
			c0,5.6,0.9,9.9,2.7,12.8c1.8,3,6.5,4.9,14.3,5.9c7.9,1,13.4,2.4,16.4,4.3c4.4,2.8,7.7,7.2,9.8,13.1c2.1,6,3.2,13.4,3.2,22.2
			c0,8.7-1.2,17.2-3.5,25.6c-2.3,8.3-5.7,15.2-10,20.6c-4.3,5.4-9,8.7-14.3,10.1c-6.6,1.8-12,1.1-16.4-1.8
			c-4.3-2.9-7.7-8.2-10.1-15.7C222.1,492.7,220.8,483.8,220.7,473.6z"/>
		<path class="st3" d="M291.2,550.2l-1.1-18.8c2.1,0.7,4,0.8,5.6,0.5c2.2-0.5,3.9-1.7,5.3-3.5c1.3-1.8,2.4-4.2,3.3-7.2
			c0.6-2.2,1.6-7.6,3.1-16.1c0.2-1.2,0.5-3,0.9-5.3l-22.1-113.6l10.5-4.1l12.2,65.9c1.6,8.5,3.1,17.5,4.3,27
			c1.2-9.9,2.6-19.6,4.2-29.3l13.1-76.8l10.6-4.1L317.5,499c-2.5,14.1-4.4,23.9-5.7,29.3c-1.8,7.3-3.9,12.7-6.2,16.4
			c-2.3,3.7-5,5.9-8.2,6.6C295.6,551.7,293.5,551.4,291.2,550.2z"/>
		<path class="st3" d="M350.3,536.8V361.2l10-3.9V374c2.4-7.4,5.1-13.4,8.1-17.8c3.1-4.5,6.8-7.6,11.2-9.3c5.8-2.3,11-1.4,15.6,2.6
			c4.6,4.1,8.1,11,10.4,20.8c2.4,9.8,3.6,21.2,3.6,33.9c0,13.7-1.3,26.4-3.9,38.2c-2.6,11.7-6.4,21.1-11.3,28.2
			c-4.9,7.1-9.9,11.3-15.2,12.7c-3.8,1-7.2,0.4-10.2-1.9c-3-2.3-5.4-5.5-7.3-9.6v62.4L350.3,536.8z M360.2,422.1
			c0,16.5,1.7,28.1,5.1,35c3.5,6.9,7.7,9.7,12.7,8.3c5.1-1.5,9.5-6.9,13.3-16.3c3.7-9.5,5.6-23.2,5.6-40.9c0-16.9-1.8-28.9-5.5-35.9
			c-3.6-7-7.9-9.6-12.9-7.7c-4.9,1.8-9.1,7.8-12.8,17.8C362,392.5,360.2,405.7,360.2,422.1z"/>
		<path class="st3" d="M424,468.3V281.1l12.6-5.4v67.9c6-14.9,13.6-24.2,22.9-27.8c5.8-2.3,10.9-2.2,15.3,0.2
			c4.4,2.5,7.6,7,9.5,13.6c1.9,6.7,2.9,17,2.9,31v90.7l-13.7,3.7v-89.7c0-12-1.5-20.2-4.4-24.6c-2.9-4.4-7-5.6-12.2-3.6
			c-3.9,1.5-7.5,4.6-10.9,9.5c-3.4,4.8-5.8,10.6-7.2,17.2c-1.4,6.6-2.1,15.3-2.1,26.1v75L424,468.3z"/>
		<path class="st3" d="M508.7,272.8v-28.4l14.5-6.3v28.7L508.7,272.8z M508.7,445.5V299.8l14.5-5.6v147.4L508.7,445.5z"/>
		<path class="st3" d="M545.7,435.5V228.4l15.4-6.7v209.6L545.7,435.5z"/>
		<path class="st3" d="M585.8,241.2V211l16.4-7.1v30.5L585.8,241.2z M585.8,424.7V269.9l16.4-6.4v156.7L585.8,424.7z"/>
		<path class="st3" d="M621.2,367.7l17.1-9.5c1,10.5,3.7,18,8.2,22.5c4.5,4.5,10.9,5.6,19.2,3.3c8.4-2.4,14.8-6.8,18.9-13.3
			c4.2-6.5,6.3-13.3,6.3-20.5c0-6.4-1.9-10.9-5.6-13.4c-2.6-1.7-8.9-2.9-18.9-3.5c-13.3-0.9-22.3-2.3-27.3-4.4
			c-5-2-8.7-5.9-11.2-11.5c-2.5-5.6-3.8-12.3-3.8-20.1c0-7.1,1-14.1,3.1-20.9c2.1-6.8,4.9-13,8.5-18.4c2.7-4.2,6.5-8.3,11.2-12.3
			c4.8-4.1,10-7.2,15.5-9.3c8.5-3.3,16-4.4,22.5-3.1c6.6,1.2,11.5,4.5,14.7,9.8c3.2,5.3,5.4,13.2,6.6,23.7l-18.7,10.4
			c-0.8-8.3-3.3-14.1-7.2-17.4c-4-3.3-9.5-3.6-16.6-1c-8.3,3.1-14.2,7.4-17.7,12.9c-3.5,5.4-5.2,10.9-5.2,16.5
			c0,3.5,0.7,6.5,2.2,8.8c1.4,2.4,3.7,4.1,6.8,4.9c1.8,0.4,7.1,0.9,15.9,1.6c13,0.9,22.3,2.1,27.6,3.8c5.3,1.7,9.5,5.3,12.6,10.9
			c3.1,5.6,4.6,13.3,4.6,23.1c0,9.6-1.9,19.1-5.7,28.7c-3.7,9.5-9.1,17.5-16.1,23.9c-6.9,6.4-14.6,10.7-23.1,13
			c-13.9,3.7-24.2,2.1-31.3-4.7C627.5,395.5,623.1,384,621.2,367.7z"/>
	</g>
</g>
</svg>
