<?xml version="1.0" encoding="utf-8"?>
<!-- Generator: Adobe Illustrator 19.1.0, SVG Export Plug-In . SVG Version: 6.00 Build 0)  -->
<svg version="1.1" xmlns="http://www.w3.org/2000/svg" xmlns:xlink="http://www.w3.org/1999/xlink" x="0px" y="0px"
	 viewBox="0 0 1004 1170" style="enable-background:new 0 0 1004 1170;" xml:space="preserve">
<style type="text/css">
	.st0{fill:#0091d8;stroke:#000331;stroke-miterlimit:10;}
	.st1{fill:#FFFFFF;stroke:#000331;stroke-miterlimit:10;}
	.st2{fill:#0091d8;}
	.st3{display:none;}
	.st4{display:inline;}
	.st5{fill:#FFFFFF;}
</style>
<g id="Layer_1">
	<polygon class="st0" points="62.5,975.8 770.5,1154.1 770.5,32 62.5,384.1 	"/>
	<polygon class="st1" points="62.5,974.8 773.5,1155.4 773.5,500.4 62.5,632.1 	"/>
	<polygon class="st0" points="904.5,1120.8 770.5,1154.9 770.5,32 904.5,99.1 	"/>
	<g>
		<path class="st2" d="M458.6,674.4c-69.4,4.9-120.3,64.6-120.3,133.6S389.2,941,458.6,952c78.3,12.3,149.8-46.3,149.8-132.3
			S536.9,668.9,458.6,674.4z M436.5,873.6L376.9,817h0l30.9-30.4l29.4,28.8l87.2-61.7l28.6,25.2L436.5,873.6z"/>
		<path class="st2" d="M670.4,851.4l33.5-27.6l-33.5-30.5l23.5-35.6l-40.3-20.2l10.6-39.7l-44.3-8.4v-39.2l-41,3.4l-9.7-36.3
			l-37.2,13.5l-18.4-29.8l-30.9,21.7l-24.2-22.1L435.2,628l-27.4-13.7l-15.2,30.5l-28.3-5.3l-7.2,31.9l-27.1,2.1v30.9l-25.7,9.2
			l6.5,29.4l-22.1,15.4l12.6,26.4l-17.7,20.8l17.7,22.3l-12.6,25.3l22,17.3l-6.4,28.8l25.7,11.4v31.6l27.1,4.5l7.3,32.2l28.3-3.1
			l15.2,31.8l27.4-11.4l23.3,29.3l24.2-19.9l31,24.4l18.6-28.2l37.6,17.1l9-34.9l41,7.1v-40.1l44.3-4.7l-11.2-40.7l40.6-16.7
			L670.4,851.4z M458.6,972.2c-79-13.7-135.8-86.9-135.8-164.9S379.6,661,458.6,654.1c90.7-7.9,174.8,66.2,174.8,166.6
			S549.3,987.9,458.6,972.2z"/>
	</g>
	<g id="Check">
		<g id="Checklist">
		</g>
	</g>
</g>
<g id="Layer_5" class="st3">
	<g id="Perspective_Text" class="st4">
		<g>
			<path class="st5" d="M215.1,490v-29l23-7v70.2c-2.3,7.7-5.6,14.8-9.8,21.2c-4.2,6.3-8.5,9.9-12.8,10.8c-5.4,1.1-10-1.7-13.9-8.3
				c-3.9-6.6-6.8-16.5-8.7-29.8c-1.9-13.2-2.9-27.9-2.9-44c0-17.5,1.1-33.4,3.2-47.7c2.2-14.4,5.3-26.1,9.5-35
				c3.2-6.9,7.3-11.3,12.2-13.2c6.4-2.5,11.5,0,15.2,7.7c3.7,7.7,6.1,19.5,7.2,35.3l-10.7,10.2c-0.7-8.3-2.1-14.6-4.2-18.8
				c-2-4.2-4.6-5.8-7.6-4.7c-4.5,1.6-8.1,7.7-10.7,18.2c-2.6,10.4-3.9,24.9-3.9,43.6c0,20.1,1.3,34.9,4,44.3
				c2.7,9.5,6.2,13.7,10.6,12.6c2.2-0.5,4.4-2.5,6.6-5.9c2.2-3.4,4.1-7.4,5.8-11.9v-22.1L215.1,490z"/>
			<path class="st5" d="M245.7,480.7c0-11.3,0.9-22.5,2.6-33.6c1.7-11.2,4.2-20.1,7.4-26.8c3.2-6.7,6.9-10.8,10.9-12.2
				c6.3-2.2,11.5,2.6,15.6,14.3c4.1,11.8,6.2,27.8,6.2,47.9c0,20.3-2.1,37.6-6.3,51.9c-4.1,14.2-9.3,21.8-15.5,23.1
				c-3.8,0.8-7.4-1.2-10.7-5.8c-3.4-4.6-5.9-11.9-7.6-21.8C246.6,507.8,245.7,495.5,245.7,480.7z M256.6,479.5
				c0,12.9,1,22.5,2.9,28.9c1.9,6.4,4.3,9.3,7.2,8.6c2.9-0.7,5.3-4.7,7.2-12.2c2-7.5,3-17.9,3-31.2c0-13-1-22.7-3-29.1
				c-2-6.4-4.4-9.1-7.2-8.2c-2.9,0.9-5.2,5.1-7.2,12.6C257.6,456.4,256.6,466.6,256.6,479.5z"/>
			<path class="st5" d="M339.1,527.1l-12.4,2.6v-70.9c0-15-0.3-24.6-0.8-28.9c-0.5-4.2-1.4-7.4-2.5-9.5c-1.2-2.1-2.6-2.8-4.2-2.3
				c-2.1,0.7-4,3-5.6,6.9c-1.6,4-2.8,8.9-3.4,14.7c-0.6,5.9-0.9,16.4-0.9,31.7v61.9l-11.8,2.5V400.6l10.9-3.7V417
				c3.9-16.8,8.9-26.2,15-28.3c2.7-0.9,5.2-0.3,7.4,1.9c2.3,2.2,4,5.4,5.2,9.5c1.2,4.2,2,9.1,2.4,14.8c0.5,5.7,0.7,13.9,0.7,24.8
				V527.1z"/>
			<path class="st5" d="M349,452c0-12.5,1-24.8,3.1-37.2c2.1-12.4,5.1-22.3,9-29.8c3.9-7.5,8.4-12.2,13.3-13.9
				c7.7-2.6,14.1,2.4,19.1,15.2c5.1,12.9,7.6,30.6,7.6,52.8c0,22.5-2.6,41.7-7.7,57.6c-5.1,15.8-11.4,24.4-18.9,26
				c-4.6,1-9-1.1-13.1-6.2c-4.1-5-7.2-13-9.3-23.9C350,481.9,349,468.3,349,452z M362.2,450.4c0,14.2,1.2,24.8,3.5,31.8
				c2.3,7,5.3,10.1,8.7,9.3c3.5-0.8,6.5-5.4,8.9-13.7c2.4-8.3,3.6-19.9,3.6-34.6c0-14.4-1.2-25.1-3.6-32.1c-2.4-7-5.3-9.9-8.9-8.8
				c-3.5,1.1-6.4,5.8-8.7,14.1C363.4,424.9,362.2,436.2,362.2,450.4z"/>
			<path class="st5" d="M426.1,508.7l-14.4,3.1V361.8l13.4-4.6v21.6c2.3-10.9,4.4-18.4,6.3-22.3c1.9-3.9,4-6.3,6.4-7.1
				c3.4-1.2,6.7,0.3,9.9,4.3l-4.7,37.1c-2.5-3.7-4.9-5.1-7-4.5c-2.1,0.6-3.8,2.8-5.3,6.3c-1.4,3.5-2.6,9.5-3.4,17.8
				c-0.8,8.3-1.2,25.4-1.2,51.2V508.7z"/>
			<path class="st5" d="M469.1,499.6l-15.5,3.3V347.6l14.4-4.9v22.3c2.5-11.4,4.7-19.1,6.8-23.1c2-4.1,4.3-6.5,6.9-7.4
				c3.7-1.3,7.2,0.2,10.6,4.4l-5,38.5c-2.7-3.8-5.2-5.3-7.5-4.6c-2.2,0.7-4.1,2.9-5.7,6.6c-1.5,3.7-2.7,9.9-3.6,18.5
				c-0.9,8.6-1.3,26.3-1.3,53.1V499.6z"/>
			<path class="st5" d="M515.9,264.4v82.8c5.5-18.1,12.1-28.6,19.9-31.2c4-1.4,7.7-0.7,11,1.9c3.3,2.7,5.8,6.7,7.5,12
				c1.7,5.4,2.8,11.6,3.5,18.5c0.6,7,0.9,18.1,0.9,33.2v98.9l-17.8,3.8v-87.9c0-17.4-0.3-28.4-1-32.9c-0.7-4.5-1.8-7.9-3.5-10.1
				c-1.7-2.2-3.8-2.9-6.3-2.2c-2.9,0.9-5.4,3.5-7.6,7.7c-2.2,4.2-3.8,10-4.9,17.3c-1,7.3-1.5,17.9-1.5,31.6v81.8l-16.7,3.5V270.8
				L515.9,264.4z"/>
			<path class="st5" d="M619.1,411.6l20,2.9c-2.6,17.9-6.7,32-12.2,42.2c-5.5,10.1-12.3,16-20.4,17.7c-12.6,2.6-21.8-5.2-27.7-23.4
				c-4.6-14.5-6.9-33.5-6.9-57.1c0-28.2,3-51.3,9.1-69.3c6.1-18.2,14-28.9,23.6-32.2c11-3.8,19.7,1.9,26.2,17.2
				c6.6,15.4,9.7,41.4,9.4,77.8l-49.2,13.1c0.1,13.5,1.7,23.7,4.6,30.5c3,6.9,6.6,9.8,11.1,8.7c3-0.7,5.6-3.3,7.7-7.8
				C616.4,427.6,618,420.8,619.1,411.6z M620.2,364.2c-0.1-13.5-1.6-23.3-4.4-29.5c-2.8-6.1-6.2-8.6-10.1-7.3
				c-4.2,1.3-7.7,6.1-10.4,14.2c-2.7,8.1-4,18.4-4,30.9L620.2,364.2z"/>
			<path class="st5" d="M672.7,329.1l-19.1-2.1c2.1-18.2,5.8-32.3,11-42.5c5.3-10.3,13.2-17.2,23.8-20.8c9.8-3.4,17.2-3.3,22,0.3
				c4.9,3.6,8.4,9.2,10.4,16.6c2,7.5,3,22.2,3,44l-0.2,58.7c0,16.7,0.4,28.9,1.1,36.6c0.7,7.8,2.1,16,4.1,24.6l-22.4,4.8
				c-0.6-3.2-1.3-7.9-2.1-14.2c-0.4-2.9-0.6-4.7-0.8-5.6c-3.8,9.1-7.8,16.1-12.1,21.1c-4.2,5-8.7,7.9-13.5,8.9
				c-8.3,1.7-14.8-2-19.5-11.1c-4.7-9.1-7-21.3-7-36.7c0-10.2,1.1-19.6,3.2-28.1c2.1-8.6,5.1-15.6,9-20.9
				c3.9-5.4,9.5-10.7,16.9-16.1c10.1-7.2,17.3-13.3,21.3-18.2v-4.9c0-9.5-1.1-16-3.2-19.3c-2.1-3.4-6-4.2-11.8-2.3
				c-3.9,1.2-6.9,3.9-9,8C675.8,313.7,674,320.2,672.7,329.1z M701.8,360.5c-2.8,2.9-7.3,6.6-13.4,11.2c-6,4.5-9.9,8.4-11.8,11.6
				c-2.8,5.2-4.2,11.3-4.2,18.2c0,6.8,1.1,12.4,3.3,16.8c2.2,4.4,5.1,6.2,8.6,5.4c3.9-0.9,7.7-4.7,11.3-11.4
				c2.7-5.1,4.4-11,5.3-17.6c0.6-4.4,0.9-12.5,0.9-24.3V360.5z"/>
		</g>
	</g>
</g>
<g id="Layer_4" class="st3">
	<g class="st4">
		<path class="st5" d="M190,488.6l13.3-6.4c0.8,8.9,2.5,15.2,5,18.8c2.5,3.7,5.9,4.9,10.2,3.8c4.6-1.2,8.1-4.1,10.5-8.6
			c2.4-4.6,3.6-9.5,3.6-14.7c0-3.4-0.5-6.1-1.5-8.2c-1-2.1-2.8-3.6-5.2-4.6c-1.7-0.7-5.5-1.6-11.5-2.7c-7.5-1.5-12.7-4.4-15.7-8.9
			c-4.1-6.2-6.2-14.8-6.2-25.6c0-7,1-13.9,2.9-20.7c2-6.8,4.8-12.5,8.5-17.2c3.7-4.7,8.3-8,13.7-10.1c8.9-3.4,15.8-2.1,20.4,4
			c4.7,6.2,7.2,15.9,7.4,29.1l-14.9,6.3c-0.6-7.1-2-11.9-4-14.4c-2-2.5-5.1-3-9.1-1.5c-4.1,1.5-7.3,4.3-9.6,8.5
			c-1.5,2.7-2.2,5.8-2.2,9.4c0,3.3,0.7,5.9,2.1,7.7c1.8,2.4,6.1,4.1,13,5c7,1,12.3,2.7,15.7,5.2c3.5,2.5,6.2,6.5,8.2,12.1
			c2,5.6,3,13,3,22.2c0,8.3-1.2,16.4-3.6,24.3c-2.4,7.8-5.7,14-10,18.5c-4.2,4.5-9.5,7.5-15.6,8.9c-8.9,2.1-15.6-0.4-20.2-7.3
			C193.6,514.6,190.9,503.6,190,488.6z"/>
		<path class="st5" d="M253.4,412.3l15.7-5.4l13.7,72.5l13.8-81.9l16.6-5.7l-21.3,112.9l-3.7,19.9c-1.4,6.7-2.7,11.8-3.9,15.4
			c-1.2,3.6-2.6,6.6-4.2,9c-1.6,2.4-3.5,4.4-5.8,6c-2.3,1.6-4.8,2.7-7.7,3.2c-2.9,0.6-5.6,0.5-8.4-0.1l-1.3-21.7
			c2.3,0.4,4.4,0.3,6.2-0.1c3.5-0.8,6-3.3,7.7-7.5c1.7-4.3,3-9.5,3.9-15.7L253.4,412.3z"/>
		<path class="st5" d="M323.3,388.3L339,383v16.8c2.1-6.4,4.9-12.1,8.5-16.9c3.6-4.9,7.6-8.1,12.1-9.6c7.8-2.7,14.6,0.4,20.2,9.3
			c5.7,9,8.5,23.3,8.5,42.7c0,20-2.9,36.3-8.6,48.8c-5.6,12.4-12.4,19.4-20.2,21.3c-3.7,0.9-7,0.4-10-1.5c-2.9-1.8-6-5.4-9.3-10.7
			v57.8l-16.9,3.4V388.3z M339.9,438c0,12.9,1.4,22,4.3,27.4c2.9,5.4,6.5,7.6,10.7,6.5c4.1-1.1,7.5-4.8,10.3-11.3
			c2.8-6.5,4.2-16.4,4.2-29.7c0-12.3-1.4-21.1-4.3-26.1c-2.8-5.1-6.3-6.9-10.5-5.6c-4.3,1.4-7.8,5.4-10.6,12
			C341.3,417.9,339.9,426.8,339.9,438z"/>
		<path class="st5" d="M422.6,307.4V370c6.4-14.5,14.2-23.4,23.3-26.5c4.8-1.6,9.1-1.7,13-0.2c3.9,1.5,6.9,4.2,8.9,8.1
			c2,3.8,3.4,8.4,4.1,13.6c0.7,5.3,1.1,13.6,1.1,25.2v75.4l-21.1,5v-66.7c0-13.2-0.4-21.5-1.2-24.8c-0.8-3.3-2.2-5.7-4.2-7.2
			c-2-1.5-4.4-1.7-7.4-0.7c-3.4,1.1-6.4,3.4-9,6.9c-2.6,3.5-4.5,8.1-5.7,13.8c-1.2,5.7-1.8,13.7-1.8,24.1v61.8l-19.5,4.6V314.8
			L422.6,307.4z"/>
		<path class="st5" d="M495.2,311.7v-32l22.7-8.7v32.6L495.2,311.7z M495.2,460.3V329.4l22.7-7.8v133.2L495.2,460.3z"/>
		<path class="st5" d="M542,449.1V261.7l24.4-9.3v190.9L542,449.1z"/>
		<path class="st5" d="M592.5,276.9v-34.5l26.4-10.1v35.2L592.5,276.9z M592.5,437.1v-141l26.4-9v143.7L592.5,437.1z"/>
		<path class="st5" d="M637.2,384.8l28.3-13.6c1.2,7.3,3.7,12.5,7.5,15.5c3.8,3,9.2,3.6,16.1,1.9c7.7-2,13.6-5.4,17.6-10.3
			c2.7-3.4,4-7.3,4-11.9c0-3.1-0.7-5.4-2.2-7.1c-1.5-1.5-4.9-2.3-10.1-2.5c-23.9-0.4-38.6-2.7-44.7-6.6
			c-8.4-5.5-12.6-15.2-12.6-29.2c0-12.7,3.6-24.5,10.9-35.6c7.3-11.2,18.9-19.5,34.8-25c15.5-5.3,27.2-6,35-1.7
			c7.9,4.3,13.3,12.7,16.3,25.4l-29.4,16.4c-1.2-5.6-3.6-9.4-7-11.4c-3.4-2.1-8.2-2.1-14.4,0c-7.8,2.5-13.3,5.8-16.6,9.7
			c-2.2,2.8-3.3,5.8-3.3,9c0,2.8,1,4.9,2.9,6.2c2.6,1.8,11.7,2.7,27.6,2.7c16.2,0,27.7,2.6,34.3,7.9c6.6,5.4,9.9,14.7,9.9,27.9
			c0,14.4-4.6,27.9-13.7,40.4c-9,12.4-22.2,20.6-39.2,24.6c-15.1,3.6-26.9,2.3-35.4-3.8C645.2,407.5,639.7,398,637.2,384.8z"/>
	</g>
</g>
<g id="Layer_6" class="st3">
	<g class="st4">
		<path class="st5" d="M209.8,481.7l10.9,5.7c-1.7,16-4.5,28.2-8.4,36.6c-3.9,8.4-8.7,13.2-14.5,14.6c-7.1,1.6-12.8-3.3-17.3-14.6
			c-4.4-11.2-6.6-27.4-6.6-48.7c0-22.5,2.2-40.8,6.6-54.9c4.5-14.2,10.4-22.8,17.9-25.7c6.6-2.5,12.1,0.5,16.3,9.1
			c2.5,5.1,4.4,13.2,5.7,24.1l-11.1,10.5c-0.7-7.1-2-12.3-4.1-15.8c-2-3.5-4.5-4.7-7.4-3.7c-4,1.4-7.2,6.2-9.6,14.4
			c-2.4,8.1-3.6,20.3-3.6,36.7c0,17.3,1.2,29.3,3.6,36c2.4,6.8,5.5,9.6,9.4,8.7c2.9-0.7,5.4-3.8,7.5-9.1
			C207.4,500.2,208.9,492.2,209.8,481.7z"/>
		<path class="st5" d="M241.6,380.7v53.4c3.6-11.7,8-18.5,13.2-20.2c2.7-0.9,5.1-0.5,7.3,1.2c2.2,1.7,3.8,4.3,4.9,7.7
			c1.1,3.4,1.9,7.4,2.3,11.9c0.4,4.5,0.6,11.6,0.6,21.3v63.5l-11.8,2.7v-56.5c0-11.2-0.2-18.3-0.7-21.1c-0.4-2.9-1.2-5-2.3-6.5
			c-1.1-1.4-2.5-1.9-4.2-1.3c-1.9,0.6-3.6,2.3-5.1,5c-1.5,2.7-2.6,6.4-3.2,11.2c-0.7,4.7-1,11.5-1,20.4V526l-11.1,2.6V384.9
			L241.6,380.7z"/>
		<path class="st5" d="M282.1,516.5V365.4l12.3-4.7v152.9L282.1,516.5z"/>
		<path class="st5" d="M317,429.7l-11.7-1.3c1.3-11.2,3.5-20,6.8-26.3c3.2-6.3,8-10.6,14.5-12.8c5.9-2,10.4-1.9,13.4,0.3
			c3,2.2,5.1,5.7,6.3,10.2c1.2,4.6,1.8,13.6,1.8,27l-0.1,36c0,10.2,0.2,17.7,0.7,22.5c0.4,4.8,1.3,9.8,2.5,15l-13.5,3.2
			c-0.4-1.9-0.8-4.8-1.3-8.7c-0.2-1.8-0.4-2.9-0.5-3.5c-2.3,5.6-4.7,10-7.3,13.1c-2.6,3.1-5.3,5-8.2,5.7c-5.1,1.2-9-1.1-11.9-6.6
			c-2.9-5.6-4.3-13.1-4.3-22.6c0-6.3,0.6-12.1,1.9-17.4c1.3-5.3,3.1-9.6,5.5-13c2.4-3.3,5.8-6.7,10.3-10c6.2-4.5,10.5-8.2,12.9-11.3
			v-3c0-5.8-0.6-9.8-1.9-11.9c-1.3-2.1-3.7-2.6-7.2-1.4c-2.3,0.8-4.2,2.4-5.5,4.9C318.9,420.2,317.8,424.2,317,429.7z M334.7,449
			c-1.7,1.8-4.4,4.1-8.1,6.9c-3.7,2.8-6,5.2-7.2,7.2c-1.7,3.2-2.6,7-2.6,11.2c0,4.2,0.7,7.6,2,10.3c1.4,2.7,3.1,3.8,5.2,3.3
			c2.4-0.6,4.7-3,6.8-7.1c1.6-3.2,2.7-6.8,3.2-10.9c0.4-2.7,0.5-7.7,0.5-15V449z"/>
		<path class="st5" d="M360.8,380.4l13.1-4.4v16.3c4.8-14.2,10.5-22.5,17.3-24.8c3.6-1.2,6.8-0.7,9.4,1.6c2.7,2.3,4.9,6.5,6.7,12.4
			c2.5-7.4,5.3-13.2,8.3-17.4c3-4.3,6.2-7,9.6-8.2c4.4-1.5,8.1-0.9,11.2,1.8c3.1,2.7,5.4,7.5,7,14.3c1.1,5,1.7,13.6,1.7,25.7v80.9
			l-16.1,3.8v-71.4c0-12.4-0.5-20.2-1.6-23.5c-1.5-4.2-3.7-5.9-6.7-4.9c-2.2,0.7-4.2,2.7-6.1,6.1c-1.9,3.4-3.3,7.9-4.1,13.5
			c-0.8,5.6-1.3,14.2-1.3,25.8v59l-15.1,3.5V424c0-11.8-0.3-19.3-0.8-22.6c-0.5-3.3-1.4-5.5-2.5-6.9c-1.1-1.3-2.6-1.7-4.5-1.1
			c-2.3,0.7-4.3,2.7-6.1,5.9c-1.8,3.2-3.1,7.4-3.9,12.6c-0.8,5.2-1.2,13.5-1.2,24.9v57.9l-14.3,3.3V380.4z"/>
		<path class="st5" d="M453.6,349l17.8-6l15.6,87.7l15.6-98.2l18.8-6.4l-24.1,135.2l-4.2,23.9c-1.5,8-3,14.2-4.4,18.5
			c-1.4,4.3-3,7.9-4.8,10.8c-1.8,2.9-4,5.2-6.6,7.1c-2.6,1.9-5.5,3.1-8.7,3.7c-3.2,0.6-6.4,0.5-9.5-0.2l-1.5-26.2
			c2.6,0.5,5,0.5,7.1,0.1c3.9-0.8,6.8-3.8,8.7-8.9c1.9-5.1,3.4-11.4,4.4-18.9L453.6,349z"/>
		<path class="st5" d="M601.8,441.9l-19.1,4.4v-20.7c-3.1,8.8-6.8,15.7-11,20.6c-4.2,4.9-8.3,7.8-12.5,8.8
			c-8.4,1.9-15.6-2.7-21.4-14c-5.8-11.1-8.7-27.9-8.7-50.3c0-22.9,2.8-41.3,8.5-55.1c5.7-13.9,13-22.5,21.9-25.5
			c8.3-2.8,15.6,1.2,21.8,12.2v-70l20.5-7.8V441.9z M548.5,382.6c0,14.7,1.1,25,3.2,31c3.1,8.7,7.5,12.4,13.2,10.9
			c4.5-1.2,8.4-5.8,11.7-13.9c3.2-8.1,4.9-19.5,4.9-34c0-16.2-1.6-27.3-4.7-33.5c-3.1-6.1-7.1-8.4-11.9-6.8
			c-4.7,1.5-8.5,6.2-11.6,14C550,358.3,548.5,369,548.5,382.6z"/>
		<path class="st5" d="M622.7,272.1v-35.5l21.8-8.2v36.1L622.7,272.1z M622.7,437V291.8l21.8-7.4v147.5L622.7,437z"/>
		<path class="st5" d="M684.8,317.1l-20.9-0.1c2.3-15.2,6.3-27.2,12.1-36.1c5.8-9,14.5-15.4,26.1-19.4c10.8-3.7,18.9-4.3,24.3-1.7
			c5.4,2.5,9.3,6.8,11.5,12.9c2.2,6,3.4,18.1,3.4,36.2l-0.3,48.8c0,13.9,0.4,24,1.2,30.3c0.8,6.4,2.3,13.1,4.6,20.1l-24.8,5.8
			c-0.6-2.6-1.4-6.4-2.4-11.6c-0.4-2.3-0.7-3.9-0.9-4.6c-4.2,7.8-8.6,14-13.3,18.5c-4.7,4.5-9.6,7.3-14.8,8.5
			c-9.1,2.1-16.2-0.5-21.4-7.6c-5.1-7.1-7.7-17-7.7-29.8c0-8.4,1.2-16.3,3.5-23.5c2.3-7.3,5.6-13.3,9.8-18.1
			c4.3-4.8,10.4-9.7,18.6-14.8c11.2-6.9,19-12.5,23.4-17v-4.1c0-7.9-1.2-13.1-3.5-15.8c-2.3-2.6-6.6-2.9-13-0.9
			c-4.2,1.4-7.5,3.8-9.9,7.4C688.1,304.1,686.2,309.6,684.8,317.1z M716.8,340.6c-3.1,2.6-8.1,6.1-14.7,10.4
			c-6.6,4.3-10.9,7.8-12.9,10.6c-3.1,4.6-4.6,9.7-4.6,15.4c0,5.6,1.2,10.2,3.7,13.6c2.5,3.5,5.6,4.8,9.4,3.8
			c4.3-1.1,8.4-4.5,12.4-10.4c2.9-4.4,4.9-9.5,5.8-15.1c0.6-3.7,1-10.4,1-20.3V340.6z"/>
	</g>
</g>
<g id="Layer_7" class="st3">
	<g class="st4">
		<path class="st5" d="M164,528V402.1l10.8-4.2v50.1l21.9-7.3v-51.3l11.6-4.5v131.9l-11.6,2.9v-57l-21.9,6.8v55.7L164,528z"/>
		<path class="st5" d="M246.2,475.8l12.1,1c-1.6,10.1-4.1,18.2-7.4,24.1c-3.3,5.9-7.5,9.4-12.4,10.7c-7.7,1.9-13.4-2.2-17-12.3
			c-2.8-8-4.3-18.7-4.3-32.1c0-16,1.9-29.1,5.6-39.4c3.8-10.4,8.6-16.7,14.5-18.7c6.7-2.4,12,0.7,16,9.1c4,8.5,5.9,23,5.7,43.5
			l-30,8.8c0.1,7.6,1,13.3,2.8,17.1c1.8,3.8,4.1,5.3,6.8,4.6c1.9-0.5,3.4-2,4.7-4.6C244.6,484.8,245.6,481,246.2,475.8z M246.9,449
			c-0.1-7.6-1-13.1-2.7-16.5c-1.7-3.4-3.8-4.7-6.2-3.9c-2.6,0.9-4.7,3.6-6.4,8.3c-1.7,4.6-2.5,10.5-2.4,17.5L246.9,449z"/>
		<path class="st5" d="M268.8,400.2l11.9-4.1v15.1c1.6-5.7,3.7-10.6,6.4-14.8c2.7-4.2,5.7-6.9,9-8c5.8-2.1,10.9,1,15,9.1
			c4.2,8.2,6.3,21,6.3,38.3c0,17.8-2.1,32.1-6.3,43.1c-4.2,10.8-9.2,17-15.1,18.4c-2.8,0.7-5.2,0.2-7.5-1.6c-2.2-1.7-4.5-5-7-9.9
			v51.8l-12.7,2.7V400.2z M281.4,445.4c0,11.5,1.1,19.8,3.3,24.7c2.2,4.9,4.9,7,8,6.1c3.1-0.8,5.6-4.1,7.7-9.8
			c2.1-5.7,3.1-14.5,3.1-26.3c0-11-1.1-18.8-3.2-23.5c-2.1-4.6-4.7-6.4-7.8-5.4c-3.2,1.1-5.9,4.5-8,10.3
			C282.5,427.5,281.4,435.4,281.4,445.4z"/>
		<path class="st5" d="M339.1,408.8l-12.9-0.5c1.4-10.8,3.9-19.4,7.4-25.6c3.6-6.3,8.9-10.6,16-13.1c6.6-2.3,11.5-2.5,14.8-0.5
			c3.3,2,5.6,5.1,7,9.5c1.4,4.3,2,13,2,25.8l-0.2,34.6c0,9.8,0.2,17,0.7,21.5c0.5,4.5,1.4,9.3,2.8,14.3l-15,3.8
			c-0.4-1.8-0.9-4.6-1.4-8.3c-0.2-1.7-0.4-2.8-0.5-3.3c-2.5,5.5-5.2,9.8-8.1,13c-2.8,3.1-5.9,5.1-9.1,5.9c-5.6,1.4-10-0.5-13.1-5.7
			c-3.2-5.2-4.7-12.3-4.7-21.5c0-6,0.7-11.6,2.1-16.8c1.4-5.2,3.4-9.4,6.1-12.7c2.6-3.3,6.4-6.7,11.4-10.2
			c6.8-4.6,11.6-8.5,14.3-11.6v-2.9c0-5.6-0.7-9.4-2.1-11.3c-1.4-1.9-4-2.2-7.9-1c-2.6,0.9-4.6,2.5-6,5
			C341.1,399.5,340,403.4,339.1,408.8z M358.6,426.2c-1.9,1.8-4.9,4.2-9,7.1c-4,2.9-6.7,5.3-7.9,7.3c-1.9,3.2-2.8,6.8-2.8,10.9
			c0,4,0.7,7.3,2.3,9.8c1.5,2.5,3.4,3.5,5.8,2.9c2.6-0.7,5.2-3.1,7.6-7.2c1.8-3.1,3-6.7,3.5-10.6c0.4-2.6,0.6-7.4,0.6-14.4V426.2z"
			/>
		<path class="st5" d="M416.5,348.6v24.5l-11.1,3.7v46.3c0,9.4,0.1,14.8,0.3,16.3c0.2,1.5,0.7,2.6,1.4,3.5c0.7,0.8,1.7,1.1,2.7,0.8
			c1.5-0.4,3.7-2,6.6-4.7l1.4,23.5c-3.8,4-8.1,6.6-12.9,7.8c-2.9,0.7-5.5,0.5-7.8-0.8c-2.3-1.2-4-3.2-5-5.8
			c-1.1-2.6-1.8-6.3-2.2-11.1c-0.3-3.4-0.5-10.4-0.5-21V382l-7.2,2.4v-23.8l7.2-2.5v-22.5l16-23.6v40.6L416.5,348.6z"/>
		<path class="st5" d="M428,328.7V300l17-6.6v29.1L428,328.7z M428,461.8V344.6l17-5.9v118.9L428,461.8z"/>
		<path class="st5" d="M494.6,321.3v26.1l-12.6,4.2V401c0,10,0.1,15.8,0.4,17.4c0.2,1.6,0.8,2.8,1.6,3.7c0.9,0.8,1.9,1.1,3.1,0.8
			c1.7-0.5,4.2-2.2,7.5-5.2l1.6,25c-4.3,4.4-9.2,7.2-14.6,8.5c-3.3,0.8-6.2,0.6-8.9-0.7c-2.6-1.3-4.5-3.3-5.7-6.1
			c-1.2-2.8-2-6.7-2.5-11.8c-0.4-3.6-0.6-11.1-0.6-22.4v-52.6l-8.1,2.7v-25.3l8.1-2.8v-24l18.1-25.6v43.3L494.6,321.3z"/>
		<path class="st5" d="M501,408l19.2-10.5c0.8,6.3,2.5,10.7,5.1,13.4c2.6,2.7,6.2,3.4,10.8,2.2c5.2-1.4,9.1-4.1,11.8-8
			c1.8-2.8,2.7-6,2.7-9.9c0-2.6-0.5-4.6-1.5-6c-1-1.3-3.3-2.2-6.8-2.6c-16.1-1.4-26-3.9-30.2-7.5c-5.7-5-8.6-13.5-8.6-25.5
			c0-10.8,2.5-20.7,7.4-29.8c5-9.1,12.8-15.6,23.5-19.4c10.4-3.6,18.2-3.5,23.4,0.5c5.2,4,8.8,11.4,10.8,22.2l-19.5,12.3
			c-0.8-4.8-2.4-8.1-4.7-10c-2.3-1.9-5.5-2.2-9.7-0.8c-5.2,1.7-8.9,4.2-11.2,7.4c-1.5,2.2-2.2,4.7-2.2,7.5c0,2.4,0.6,4.2,1.9,5.4
			c1.8,1.7,7.9,2.9,18.5,3.6c10.8,0.8,18.5,3.5,22.9,8.2c4.4,4.9,6.6,12.8,6.6,23.9c0,12-3,23.2-9.1,33.4
			c-6,10.1-14.7,16.6-26.2,19.4c-10.2,2.5-18.2,1-23.9-4.4C506.5,427.7,502.8,419.3,501,408z"/>
		<path class="st5" d="M746.3,382l-30.3,7.6l-11.7-42.4l-51.3,14.4L643,407.9l-25.6,6.4l47.4-205.9l27.4-10.6L746.3,382z
			 M695.8,316.2L677.9,249l-17.1,77.9L695.8,316.2z"/>
	</g>
</g>
<g id="Layer_8">
	<g>
		<path class="st5" d="M161.9,532.5V421l10.1-3.7v44.4l20.5-6.5v-45.3l10.8-4v116.5l-10.8,2.7v-50.4l-20.5,6.1V530L161.9,532.5z"/>
		<path class="st5" d="M238.3,485.8l11.2,0.8c-1.5,8.9-3.7,16-6.9,21.2c-3.1,5.2-6.9,8.4-11.5,9.5c-7.2,1.8-12.4-1.8-15.8-10.7
			c-2.6-7.1-4-16.5-4-28.3c0-14.1,1.7-25.7,5.2-34.8c3.5-9.2,8-14.7,13.4-16.6c6.2-2.1,11.1,0.6,14.8,8c3.7,7.5,5.4,20.3,5.3,38.2
			l-27.8,7.9c0.1,6.7,0.9,11.7,2.6,15.1c1.7,3.3,3.8,4.7,6.3,4c1.7-0.5,3.2-1.8,4.4-4.1C236.8,493.7,237.7,490.3,238.3,485.8z
			 M239,462.2c-0.1-6.7-0.9-11.5-2.5-14.5c-1.6-3-3.5-4.1-5.7-3.4c-2.4,0.8-4.3,3.2-5.9,7.3c-1.5,4.1-2.3,9.3-2.3,15.5L239,462.2z"
			/>
		<path class="st5" d="M259.2,419.2l10.9-3.7v13.3c1.4-5,3.4-9.3,5.9-13c2.5-3.7,5.2-6,8.3-7.1c5.4-1.8,10,0.9,13.8,8
			c3.8,7.2,5.8,18.4,5.8,33.6c0,15.6-1.9,28.2-5.8,37.8c-3.8,9.5-8.5,14.9-13.8,16.3c-2.5,0.6-4.8,0.2-6.9-1.3
			c-2-1.5-4.2-4.4-6.4-8.6v45.5l-11.7,2.5V419.2z M270.8,458.9c0,10.1,1,17.4,3,21.7c2,4.3,4.5,6.1,7.4,5.3c2.8-0.7,5.2-3.6,7.1-8.6
			c1.9-5,2.8-12.7,2.8-23.1c0-9.7-1-16.5-2.9-20.6c-1.9-4.1-4.3-5.6-7.2-4.7c-2.9,0.9-5.4,4-7.3,9.1
			C271.8,443.1,270.8,450.1,270.8,458.9z"/>
		<path class="st5" d="M323.7,426.6l-11.8-0.5c1.3-9.5,3.6-17,6.8-22.4c3.2-5.5,8.1-9.3,14.6-11.5c6-2,10.5-2.2,13.5-0.5
			c3,1.7,5.1,4.5,6.3,8.3c1.2,3.8,1.8,11.3,1.8,22.5l-0.1,30.2c0,8.6,0.2,14.9,0.7,18.8c0.4,4,1.3,8.1,2.5,12.5l-13.6,3.4
			c-0.4-1.6-0.8-4-1.3-7.2c-0.2-1.5-0.4-2.4-0.5-2.9c-2.3,4.8-4.8,8.6-7.4,11.4c-2.6,2.7-5.4,4.5-8.3,5.2c-5.1,1.2-9.1-0.4-12-5
			c-2.9-4.5-4.3-10.8-4.3-18.8c0-5.3,0.7-10.2,2-14.7c1.3-4.5,3.2-8.3,5.5-11.2c2.4-2.9,5.9-5.9,10.4-8.9c6.2-4.1,10.6-7.5,13-10.1
			v-2.5c0-4.9-0.6-8.2-1.9-9.9c-1.3-1.7-3.7-2-7.2-0.8c-2.4,0.8-4.2,2.2-5.5,4.4C325.5,418.5,324.5,421.9,323.7,426.6z M341.5,441.8
			c-1.7,1.6-4.5,3.7-8.2,6.2c-3.7,2.5-6.1,4.7-7.2,6.4c-1.7,2.8-2.6,6-2.6,9.6c0,3.5,0.7,6.4,2.1,8.6c1.4,2.2,3.1,3,5.3,2.5
			c2.4-0.6,4.7-2.7,6.9-6.3c1.6-2.7,2.7-5.8,3.2-9.3c0.4-2.3,0.5-6.5,0.5-12.6V441.8z"/>
		<path class="st5" d="M394,374.2v21.3l-10.1,3.2V439c0,8.2,0.1,12.9,0.3,14.2c0.2,1.3,0.6,2.3,1.3,3c0.7,0.7,1.5,0.9,2.5,0.7
			c1.4-0.4,3.3-1.7,5.9-4.1l1.3,20.4c-3.5,3.5-7.3,5.8-11.6,6.9c-2.6,0.6-5,0.4-7.1-0.7c-2.1-1.1-3.6-2.8-4.6-5
			c-1-2.3-1.6-5.5-2-9.7c-0.3-3-0.5-9.1-0.5-18.3v-43.1l-6.5,2.1v-20.7l6.5-2.2v-19.7l14.5-20.6v35.4L394,374.2z"/>
		<path class="st5" d="M404.4,356.8v-25l15.3-5.6v25.3L404.4,356.8z M404.4,472.7v-102l15.3-5.1v103.3L404.4,472.7z"/>
		<path class="st5" d="M464.2,350.7v22.6l-11.3,3.6v42.8c0,8.7,0.1,13.7,0.3,15.1c0.2,1.4,0.7,2.4,1.5,3.2c0.8,0.7,1.7,1,2.8,0.7
			c1.5-0.4,3.8-1.9,6.7-4.5l1.4,21.7c-3.9,3.8-8.3,6.3-13.1,7.4c-3,0.7-5.6,0.5-7.9-0.6c-2.3-1.1-4-2.9-5.1-5.3
			c-1.1-2.4-1.8-5.8-2.3-10.2c-0.3-3.1-0.5-9.6-0.5-19.4V382l-7.3,2.3v-22l7.3-2.4v-20.8l16.3-22.1v37.5L464.2,350.7z"/>
		<path class="st5" d="M475.9,332.1v-26.5l17.3-6.3v26.9L475.9,332.1z M475.9,455V346.8l17.3-5.8v109.8L475.9,455z"/>
		<path class="st5" d="M505.1,416.2l18.2-9.5c0.8,5.6,2.4,9.5,4.8,11.9c2.4,2.4,5.8,3,10.2,1.8c4.9-1.3,8.6-3.7,11.1-7.2
			c1.7-2.5,2.5-5.4,2.5-8.8c0-2.3-0.5-4.1-1.4-5.4c-1-1.2-3.1-1.9-6.4-2.2c-15.1-1.1-24.5-3.3-28.5-6.5c-5.4-4.4-8.1-12-8.1-22.6
			c0-9.6,2.3-18.5,7-26.5c4.7-8.2,12.1-13.9,22.2-17.3c9.8-3.3,17.1-3.2,22,0.3c4.9,3.6,8.3,10.1,10.2,19.7l-18.3,11
			c-0.8-4.2-2.2-7.2-4.4-8.9c-2.1-1.7-5.2-1.9-9.1-0.6c-4.9,1.6-8.4,3.8-10.5,6.7c-1.4,2-2.1,4.2-2.1,6.7c0,2.1,0.6,3.7,1.8,4.8
			c1.7,1.5,7.5,2.5,17.5,3.1c10.2,0.6,17.4,3,21.5,7.2c4.1,4.3,6.2,11.3,6.2,21.2c0,10.7-2.9,20.6-8.5,29.7
			c-5.6,9-13.9,14.8-24.6,17.5c-9.6,2.4-17.1,1.1-22.6-3.7C510.3,433.7,506.7,426.3,505.1,416.2z"/>
		<path class="st5" d="M631.6,248.4l46.6-17.1c9.6-3.5,16.8-5.6,21.6-6.2c4.8-0.6,9.2,0.2,13.1,2.6c3.9,2.3,7.1,6.1,9.8,11.5
			c2.6,5.3,3.9,11.9,3.9,19.6c0,8.4-1.6,16.7-4.9,24.7c-3.2,8-7.6,14.6-13,19.8c7.7,0.8,13.7,4.4,17.9,10.8
			c4.2,6.4,6.3,14.9,6.3,25.3c0,8.2-1.4,16.6-4.1,25c-2.7,8.4-6.4,15.6-11.1,21.3c-4.6,5.7-10.3,10-17,12.7
			c-4.2,1.7-14.1,4.5-29.6,8.5l-39.5,9.7V248.4z M654.8,268.4v39.5l15.6-5c9.4-3,15.4-5.1,17.7-6.2c4.2-2.1,7.6-5.2,10-9.5
			c2.5-4.3,3.7-9.3,3.7-15c0-5.5-1.1-9.5-3.2-12.2c-2.1-2.7-5.2-3.7-9.4-2.9c-2.4,0.4-9.4,2.7-20.8,6.6L654.8,268.4z M654.8,336.4
			v45.7l22.1-5.9c8.8-2.3,14.4-4.2,16.8-5.6c3.7-2,6.7-5.1,9.1-9.5c2.4-4.4,3.5-9.7,3.5-16c0-5.3-0.9-9.6-2.7-12.7
			c-1.8-3.2-4.4-5.1-7.8-5.8c-3.4-0.7-10.7,0.7-21.8,4L654.8,336.4z"/>
	</g>
</g>
</svg>
