<?xml version="1.0" encoding="utf-8"?>
<!-- Generator: Adobe Illustrator 19.2.1, SVG Export Plug-In . SVG Version: 6.00 Build 0)  -->
<svg version="1.1" id="Layer_1" xmlns="http://www.w3.org/2000/svg" xmlns:xlink="http://www.w3.org/1999/xlink" x="0px" y="0px"
	 viewBox="0 0 527 106" style="enable-background:new 0 0 527 106;" xml:space="preserve">
<g>
	<g>
		<path d="M25.1,83.7v-8.3h6.6V35.3h-6.6V27h26.2c12,0,19.4,5.6,19.4,15.3c0,6.4-3.7,10.3-8.4,12.1C69,56.3,73.8,61,73.8,67.6
			c0,10.4-8,16.1-21.1,16.1L25.1,83.7L25.1,83.7z M40.7,35.3v15.4h9.8c7.3,0,11.1-2.7,11.1-7.7c0-5.1-3.9-7.7-11.2-7.7L40.7,35.3
			L40.7,35.3z M40.7,75.3h11.1c8.6,0,12.9-2.8,12.9-8.3c0-5.4-4.6-8.3-13.6-8.3H40.6v16.6H40.7z"/>
		<path d="M121.3,54.1c-1-3.3-3.4-5.3-6.6-5.3c-7.5,0-14.7,5.6-14.7,15.7v10.8h14.5v8.3H82.2v-8.3h9.2v-25h-7.2V42h15.7v7
			c2.6-4.9,8-8.4,15.2-8.4c8,0,13,4.6,14.5,11.1L121.3,54.1z"/>
		<path d="M165.3,59.4v-2.3c0-5.9-4.7-8.3-9.8-8.3c-4.8,0-8.9,2-12.2,5l-5.7-6.2c3.9-3.6,9.5-6.9,17.9-6.9
			c10.5,0,18.6,5.6,18.6,16.1v18.6h6.1v8.3h-14.9v-4.4c-2.2,3.6-8.3,5.8-14.3,5.8c-8.6,0-16-4.4-16-13.1c0-10.3,10.1-14.2,19.3-14.2
			C158.8,57.7,162.5,58.6,165.3,59.4z M165.3,66.8c-2.7-1-6.8-1.8-10.7-1.8c-5.5,0-10.8,1.8-10.8,6.7c0,3.7,3.3,5.5,7.9,5.5
			c6.4,0,13.5-3.4,13.5-9.3v-1.1H165.3z"/>
		<path d="M232.4,75.3v8.3h-42v-8.3h17.4v-25h-13.3V42h21.9v33.3H232.4z M216.4,33.7h-9.7V21h9.7V33.7z"/>
		<path d="M242.8,75.3h6.4v-25h-6V42h14.5v5.4c2.5-4.1,7.8-6.7,14.3-6.7c9.3,0,15.9,5.9,15.9,15.4v19.4h6.4v8.3h-21.6v-8.3h6.6v-17
			c0-7.2-4.4-9.3-8.4-9.3c-6.6,0-13.1,4.9-13.1,12.4v13.9h6.6v8.3h-21.6L242.8,75.3L242.8,75.3z"/>
		<path d="M306,50.3h-10.9V42H306V26.9h8.6V42h20.2v8.3h-20.2v17.5c0,6.5,4.5,9.1,9.7,9.1c4.9,0,9-2.7,12-5.8l5.8,6
			c-3.8,4.1-9.7,7.9-17.8,7.9c-10.5,0-18.3-5.8-18.3-16.9V50.3z"/>
		<path d="M389.1,54.1c-1-3.3-3.4-5.3-6.6-5.3c-7.5,0-14.7,5.6-14.7,15.7v10.8h14.5v8.3H350v-8.3h9.2v-25H352V42h15.7v7
			c2.6-4.9,8-8.4,15.2-8.4c8,0,13,4.6,14.5,11.1L389.1,54.1z"/>
		<path d="M446.9,77.3c-4.3,4.5-11.9,7.7-20.4,7.7c-14,0-23.8-9.4-23.8-22.2s9.5-22.2,22.7-22.2c13.1,0,22.3,10.1,22.3,23.8v1.5
			h-35.9c1.5,6.9,7.2,11.1,14.8,11.1c6.3,0,11.6-2.5,14.6-5.8L446.9,77.3z M412.2,58.5h25.6c-1.3-6-6.6-10-12.4-10
			C418.8,48.6,413.7,52.7,412.2,58.5z"/>
		<path d="M500.4,77.3c-4.3,4.5-11.9,7.7-20.4,7.7c-14,0-23.8-9.4-23.8-22.2s9.5-22.2,22.7-22.2c13.1,0,22.3,10.1,22.3,23.8v1.5
			h-35.9c1.5,6.9,7.2,11.1,14.8,11.1c6.3,0,11.6-2.5,14.6-5.8L500.4,77.3z M465.7,58.5h25.6c-1.3-6-6.6-10-12.4-10
			C472.3,48.6,467.2,52.7,465.7,58.5z"/>
	</g>
</g>
</svg>
