<?xml version="1.0" encoding="utf-8"?>
<!-- Generator: Adobe Illustrator 19.2.1, SVG Export Plug-In . SVG Version: 6.00 Build 0)  -->
<svg version="1.1" id="Layer_1" xmlns="http://www.w3.org/2000/svg" xmlns:xlink="http://www.w3.org/1999/xlink" x="0px" y="0px"
	 viewBox="0 0 300 200" style="enable-background:new 0 0 300 200;" xml:space="preserve">
<style type="text/css">
	.st0{fill:#273C90;}
	.st1{fill:#FBAA1C;}
	.st2{fill:url(#SVGID_1_);}
	.st3{fill:#FFFFFF;}
	.st4{fill:#F89A20;}
	.st5{fill:#CB2128;}
	.st6{fill:#FCB343;}
	.st7{fill:#27245E;}
	.st8{fill:url(#SVGID_2_);}
	.st9{fill:#010101;}
</style>
<g>
	<path class="st0" d="M92.4,35.5c-9.4,0-16,4.9-16,12.1c0,5.3,4.7,8.3,8.3,10c3.8,1.9,4.9,3,4.9,4.5c0,2.5-3,3.6-5.7,3.6
		c-3.8,0-5.8-0.6-8.9-1.9l-1.3-0.6l-1.3,8.3c2.3,0.9,6.4,1.9,10.6,1.9c10,0,16.4-4.9,16.6-12.6c0-4.1-2.5-7.4-7.9-10
		c-3.4-1.7-5.3-2.8-5.3-4.5c0-1.5,1.7-3.2,5.5-3.2c3,0,5.3,0.8,7.2,1.3l0.6,0.8l1.3-7.9C99,36.4,96.1,35.5,92.4,35.5L92.4,35.5z
		 M62.9,36.2l-6,36.8h9.4l6-36.8H62.9L62.9,36.2z M49,36.2l-9.2,25.1l-0.9-5.1c-2.3-6.2-7.4-12.8-13.2-15.5L34.1,73h10L59,36.2
		L49,36.2L49,36.2z M118,36.2c-2.3,0-4,0.6-4.9,3L99,73h10c0,0,1.7-4.5,2.1-5.5c1.1,0,10.8,0,12.1,0c0.4,1.3,1.1,5.5,1.1,5.5h8.9
		l-7.7-36.8H118L118,36.2z M118.6,46.2l0.6,3.2c0,0,1.9,8.9,2.3,10.6h-7.9c0.8-2.1,3.8-10.4,3.8-10.4
		C117.3,49.8,118.2,47.6,118.6,46.2L118.6,46.2z"/>
	<path class="st1" d="M31.1,36.2H15.8v0.6c11.9,3,19.8,10.6,23,19.4l-3.4-17C34.8,37,33.1,36.2,31.1,36.2"/>
</g>
<g>
	
		<radialGradient id="SVGID_1_" cx="165.4023" cy="125.3425" r="55.8982" gradientTransform="matrix(1.3353 0 0 1.1837 -27.0052 -117.2449)" gradientUnits="userSpaceOnUse">
		<stop  offset="0" style="stop-color:#A0D3F2"/>
		<stop  offset="7.110000e-002" style="stop-color:#99D1F2"/>
		<stop  offset="0.1575" style="stop-color:#8CCCF0"/>
		<stop  offset="0.2516" style="stop-color:#72C6EF"/>
		<stop  offset="0.3514" style="stop-color:#55BCEA"/>
		<stop  offset="0.4546" style="stop-color:#23ACE3"/>
		<stop  offset="0.5" style="stop-color:#1FA5DE"/>
		<stop  offset="1" style="stop-color:#3179BC"/>
	</radialGradient>
	<path class="st2" d="M259.3,18.7h-79.5v70.7h79.5V66.1c0.4-0.4,0.6-0.9,0.6-1.5c0-0.8-0.2-1.1-0.6-1.5"/>
	<path class="st3" d="M187.1,49.5l-1.5-3.4l-1.5,3.4 M220.7,48.1c-0.4,0.2-0.8,0.2-1.1,0.2h-2.6v-1.9h2.8c0.4,0,0.8,0,1.1,0.2
		c0.4,0.2,0.6,0.4,0.6,0.8C221.2,47.6,221,48,220.7,48.1z M240.2,49.5l-1.5-3.4l-1.5,3.4H240.2z M204,53h-2.3v-6.6l-3.2,6.6h-1.9
		l-3.2-6.6V53h-4.5l-0.9-1.9h-4.7l-0.9,1.9h-2.4l3.9-8.3h3.4l3.8,7.9v-7.9h3.6l3,5.6l2.6-5.6h3.8L204,53L204,53z M213.1,53h-7.5
		v-8.3h7.5v1.7h-5.3V48h5.1v1.7h-5.1v1.7h5.3V53z M223.7,46.8c0,1.3-0.9,2.1-1.5,2.3c0.6,0.2,0.9,0.4,1.1,0.8
		c0.4,0.4,0.4,0.8,0.4,1.5V53h-2.3v-1.1c0-0.6,0-1.1-0.4-1.7c-0.4-0.4-0.8-0.4-1.7-0.4h-2.4v3h-2.3v-8.3h5.1c1.1,0,2.1,0,2.6,0.4
		C223.3,45.5,223.7,45.9,223.7,46.8z M227.2,53H225v-8.3h2.3V53z M253.7,53h-3.2l-4.3-6.2V53h-4.5l-0.9-1.9H236l-0.8,1.9h-2.6
		c-1.1,0-2.4-0.2-3.2-0.9c-0.8-0.8-1.1-1.7-1.1-3.2c0-1.3,0.2-2.4,1.1-3.2c0.8-0.8,1.9-0.9,3.4-0.9h2.3v1.7H233
		c-0.8,0-1.3,0.2-1.7,0.6c-0.4,0.4-0.6,0.9-0.6,1.9s0.2,1.5,0.6,1.9c0.4,0.4,0.9,0.4,1.5,0.4h0.9l3.2-6.6h3.4l3.8,7.9v-7.9h3.4
		l3.9,5.8v-5.8h2.3V53L253.7,53z M179.8,54.5h3.8l0.9-1.9h1.9l0.9,1.9h7.5V53l0.8,1.5h3.9l0.8-1.5v1.5H219v-3h0.4
		c0.2,0,0.4,0,0.4,0.4v2.6h9.6v-0.8c0.8,0.4,2.1,0.8,3.6,0.8h4.1l0.9-1.9h1.9l0.9,1.9h7.9v-1.7l1.1,1.7h6.2V42.9h-6.2v1.3l-0.9-1.3
		h-6.4v1.3l-0.8-1.3H233c-1.5,0-2.6,0.2-3.8,0.8v-0.8h-6v0.8c-0.6-0.6-1.5-0.8-2.4-0.8h-21.9l-1.5,3l-1.5-3h-6.8v1.3l-0.8-1.3h-5.8
		l-2.8,5.6V54.5L179.8,54.5z"/>
	<path class="st3" d="M259.3,60.7h-4.1c-0.4,0-0.8,0-0.9,0.2c-0.2,0.2-0.4,0.4-0.4,0.6c0,0.4,0.2,0.6,0.6,0.6c0.2,0,0.6,0.2,0.9,0.2
		h1.1c1.3,0,2.1,0.2,2.6,0.8l0.2,0.2 M259.3,66.1c-0.6,0.8-1.7,1.1-3,1.1H252v-1.9h4.3c0.4,0,0.8,0,0.9-0.2s0.2-0.4,0.2-0.6
		c0-0.2-0.2-0.4-0.2-0.6c-0.2-0.2-0.4-0.2-0.8-0.2c-2.1,0-4.7,0-4.7-2.6c0-1.1,0.9-2.4,3.2-2.4h4.5v-1.7h-4.1
		c-1.3,0-2.1,0.2-2.8,0.8v-0.8h-6.2c-0.9,0-2.1,0.2-2.6,0.8v-0.8h-10.9v0.8c-0.9-0.6-2.3-0.8-3-0.8h-7.1v0.8
		c-0.8-0.6-2.3-0.8-3.2-0.8h-8.1l-1.9,1.7l-1.7-1.7h-12.2v11.6h11.8l1.9-1.9l1.9,1.9h7.3V66h0.8c0.9,0,2.1,0,3.2-0.4v3.2h6v-3h0.4
		c0.4,0,0.4,0,0.4,0.4v2.6h18.2c1.1,0,2.4-0.2,3-0.8v0.8h5.8c1.1,0,2.4-0.2,3.2-0.6v-2.1H259.3z M250.5,62.8
		c0.4,0.4,0.8,0.9,0.8,1.7c0,1.9-1.3,2.6-3.6,2.6h-4.3v-1.7h4.3c0.4,0,0.8,0,0.9-0.2s0.2-0.4,0.2-0.6c0-0.2-0.2-0.4-0.2-0.6
		c-0.2-0.2-0.4-0.2-0.8-0.2c-2.1,0-4.7,0-4.7-2.6c0-1.1,0.9-2.4,3.2-2.4h4.5v1.7h-4.1c-0.4,0-0.8,0-0.9,0.2
		c-0.2,0.2-0.4,0.4-0.4,0.6c0,0.4,0.2,0.6,0.6,0.6c0.2,0,0.6,0.2,0.9,0.2h1.1C249.2,62.2,249.9,62.4,250.5,62.8z M230.2,62.4
		c-0.4,0.2-0.8,0.2-1.1,0.2h-2.6v-1.9h2.8c0.4,0,0.8,0,1.1,0.2c0.4,0.2,0.4,0.4,0.4,0.8S230.6,62.2,230.2,62.4z M231.5,63.3
		c0.6,0.2,0.9,0.4,1.1,0.8c0.4,0.4,0.4,0.8,0.4,1.5v1.7h-2.3v-1.1c0-0.6,0-1.3-0.4-1.7c-0.4-0.4-0.8-0.4-1.7-0.4h-2.4v3.2H224V59
		h5.3c1.1,0,1.9,0,2.6,0.4c0.8,0.4,1.1,0.9,1.1,1.9C233.2,62.6,232.3,63.1,231.5,63.3z M234.5,59h7.5v1.7h-5.3v1.5h5.1v1.7h-5.1v1.7
		h5.3v1.7h-7.5V59z M219.3,62.8h-2.8v-2.1h3c0.8,0,1.3,0.4,1.3,0.9C220.8,62.4,220.3,62.8,219.3,62.8z M214.3,66.5l-3.4-3.4l3.4-3.2
		V66.5z M205.5,65.6H200v-1.7h4.9v-1.7H200v-1.5h5.6l2.4,2.4L205.5,65.6z M223.1,61.6c0,2.3-1.9,2.8-3.9,2.8h-2.8v2.8H212l-2.8-2.8
		l-2.6,2.8h-9V59h9l2.8,2.6l2.8-2.6h7.1C221.2,59,223.1,59.4,223.1,61.6z"/>
</g>
<g id="layer1">
	<g id="g10305">
		<path id="path2268" class="st4" d="M128.9,153c0,18.7-15.2,33.7-33.7,33.7c-18.7,0-33.7-15.2-33.7-33.7l0,0
			c0-18.7,15.2-33.7,33.7-33.7C113.7,119.2,128.9,134.2,128.9,153L128.9,153z"/>
		<path id="path1350" class="st5" d="M49.6,119.2c-18.5,0.2-33.6,15.2-33.6,33.7c0,18.7,15.2,33.7,33.7,33.7
			c8.8,0,16.8-3.4,22.8-8.8l0,0l0,0c1.2-1.1,2.3-2.3,3.4-3.5H69c-0.9-1.1-1.8-2.3-2.5-3.5h12c0.7-1.2,1.4-2.3,1.9-3.5H64.6
			c-0.5-1.2-1.1-2.3-1.4-3.5h18.7c1.1-3.4,1.8-6.9,1.8-10.8c0-2.5-0.4-4.9-0.7-7.2H62.3c0.2-1.2,0.5-2.3,0.9-3.5h18.7
			c-0.4-1.2-0.9-2.5-1.4-3.5H64.6c0.5-1.2,1.2-2.5,1.9-3.5h12c-0.7-1.2-1.6-2.5-2.6-3.5h-6.7c1.1-1.2,2.1-2.3,3.4-3.4
			c-6-5.5-14-8.8-22.8-8.8C49.8,119.2,49.6,119.2,49.6,119.2z"/>
		<path id="use9412" class="st6" d="M125.6,170.6c0.2,0,0.4,0,0.5,0.2s0.4,0.2,0.4,0.4c0.2,0.2,0.2,0.4,0.2,0.5c0,0.2,0,0.4-0.2,0.5
			c-0.2,0.2-0.2,0.4-0.4,0.4c-0.2,0.2-0.4,0.2-0.5,0.2s-0.4,0-0.5-0.2c-0.2-0.2-0.4-0.2-0.4-0.4c-0.2-0.2-0.2-0.4-0.2-0.5
			c0-0.2,0-0.4,0.2-0.5c0.2-0.2,0.2-0.4,0.4-0.4C125.2,170.6,125.4,170.6,125.6,170.6 M125.6,170.8c-0.2,0-0.4,0-0.5,0.2
			c-0.2,0-0.2,0.2-0.4,0.4c0,0.2-0.2,0.4-0.2,0.5s0,0.4,0.2,0.5c0,0.2,0.2,0.2,0.4,0.4c0.2,0,0.4,0.2,0.5,0.2s0.4,0,0.5-0.2
			c0.2,0,0.2-0.2,0.4-0.4c0-0.2,0.2-0.4,0.2-0.5s0-0.4-0.2-0.5c0-0.2-0.2-0.2-0.4-0.4C125.9,170.8,125.7,170.8,125.6,170.8
			 M125,172.4v-1.2h0.4c0.2,0,0.2,0,0.4,0c0,0,0.2,0,0.2,0.2v0.2c0,0,0,0.2-0.2,0.2l-0.2,0.2c0,0,0,0,0.2,0l0.2,0.2l0.2,0.2h-0.2
			l-0.2-0.2c0-0.2-0.2-0.2-0.2-0.4c0,0,0,0-0.2,0h-0.2v0.7H125 M125.2,171.7h0.2c0.2,0,0.2,0,0.2,0s0,0,0-0.2c0,0,0,0,0-0.2l0,0
			h-0.2h-0.2V171.7"/>
	</g>
	<g id="g16480">
		<g id="g13802" transform="translate(-13.74405,15.9939)">
			<path id="path13804" class="st7" d="M74.8,146.7l0.5-3c-0.2,0-0.5,0.2-0.9,0.2c-1.2,0-1.4-0.7-1.2-1.2l1.2-6.2h1.9l0.4-3.5h-1.8
				l0.4-2.1h-3.7c0,0-2.1,11.8-2.1,13.2c0,2.1,1.2,3,2.8,3C73.3,147.2,74.4,146.7,74.8,146.7z"/>
			<path id="path13806" class="st7" d="M76,140.8c0,5.1,3.4,6.4,6.2,6.4c2.6,0,4.1-0.5,4.1-0.5l0.7-3.5c0,0-2.3,0.9-4.1,0.9
				c-3.9,0-3.2-2.8-3.2-2.8h7.4c0,0,0.5-2.3,0.5-3.4c0-2.3-1.2-5.3-5.3-5.3C78.6,132.5,76,136.4,76,140.8z M82.2,135.7
				c1.9,0,1.6,2.3,1.6,2.5h-4.1C79.9,138,80.2,135.7,82.2,135.7z"/>
			<path id="path13808" class="st7" d="M105,146.7l0.7-3.9c0,0-1.8,0.9-3,0.9c-2.5,0-3.5-1.9-3.5-4.1c0-4.2,2.1-6.5,4.6-6.5
				c1.8,0,3.4,1.1,3.4,1.1l0.5-3.9c0,0-1.8-1.2-3.5-1.2c-5.7,0-8.8,3.9-8.8,10.6c0,4.4,2.3,7.6,6.7,7.6
				C103,147.2,105,146.7,105,146.7z"/>
			<path id="path13810" class="st7" d="M55,132.5c-2.5,0-4.4,0.7-4.4,0.7l-0.5,3.2c0,0,1.6-0.7,3.9-0.7c1.4,0,2.3,0.2,2.3,1.2
				c0,0.7-0.2,0.9-0.2,0.9s-1.1,0-1.6,0c-3.5,0-6.4,1.4-6.4,5.3c0,3.2,2.1,3.9,3.5,3.9c2.5,0,3.5-1.6,3.5-1.6v1.4h3.2l1.4-9.9
				C59.9,132.7,56.2,132.5,55,132.5z M55.5,140.7c0,0.5-0.2,3.5-2.3,3.5c-1.1,0-1.4-0.9-1.4-1.4c0-1.1,0.5-2.1,3.2-2.1
				C55.5,140.5,55.5,140.7,55.5,140.7z"/>
			<path id="path13812" class="st7" d="M63.3,147c0.9,0,5.5,0.2,5.5-4.6c0-4.4-4.2-3.5-4.2-5.3c0-0.9,0.7-1.2,1.9-1.2
				c0.5,0,2.5,0.2,2.5,0.2l0.5-3.2c0,0-1.2-0.4-3.4-0.4c-2.6,0-5.3,1.1-5.3,4.8c0,4.1,4.4,3.7,4.4,5.5c0,1.2-1.2,1.2-2.3,1.2
				c-1.6,0-3.2-0.5-3.2-0.5l-0.5,3.2C59.4,146.7,60.3,147,63.3,147z"/>
			<path id="path13814" class="st7" d="M134.6,129.7l-0.7,4.8c0,0-1.4-1.9-3.5-1.9c-4.1,0-6,3.9-6,8.5c0,3,1.4,5.8,4.4,5.8
				c2.1,0,3.4-1.6,3.4-1.6l-0.2,1.2h3.5l2.8-17.1L134.6,129.7z M133,139.1c0,1.9-0.9,4.4-2.8,4.4c-1.2,0-1.9-1.1-1.9-2.8
				c0-2.8,1.2-4.6,2.8-4.6C132.5,136.1,133,136.9,133,139.1z"/>
			<path id="path13816" class="st7" d="M35.5,146.8l2.1-12.9l0.4,12.9h2.5l4.6-12.9L43,146.8h3.7l2.8-17.1h-5.8l-3.5,10.4v-10.4
				h-5.3L32,146.8H35.5L35.5,146.8z"/>
			<path id="path13818" class="st7" d="M91,146.8c1.1-6,1.4-10.6,4.4-9.7c0.4-2.3,1.4-4.2,1.9-5.3c0,0-0.2-0.2-1.1-0.2
				c-1.6,0-3.7,3.4-3.7,3.4l0.4-1.9h-3.4l-2.3,14L91,146.8L91,146.8z"/>
			<g id="use14699" transform="translate(845.3001,0)">
				<path id="path13810_1_" class="st7" d="M-732.7,132.5c-2.5,0-4.4,0.7-4.4,0.7l-0.5,3.2c0,0,1.6-0.7,3.9-0.7
					c1.4,0,2.3,0.2,2.3,1.2c0,0.7-0.2,0.9-0.2,0.9s-1.1,0-1.6,0c-3.5,0-6.4,1.4-6.4,5.3c0,3.2,2.1,3.9,3.5,3.9
					c2.5,0,3.5-1.6,3.5-1.6v1.4h3.2l1.4-9.9C-727.8,132.7-731.5,132.5-732.7,132.5z M-732.2,140.7c0,0.5-0.2,3.5-2.3,3.5
					c-1.1,0-1.4-0.9-1.4-1.4c0-1.1,0.5-2.1,3.2-2.1C-732.2,140.5-732.4,140.7-732.2,140.7z"/>
			</g>
			<path id="use14701" class="st7" d="M121,146.8c0.5-4.4,1.6-10.6,4.4-9.7c0.4-2.3,0-2.3-0.9-2.3c-1.6,0-1.9,0-1.9,0l0.4-1.9h-3.4
				l-2.3,14H121L121,146.8z"/>
		</g>
		<g id="g10289">
			<path id="path4157" class="st3" d="M62,161.6l0.5-3c-0.2,0-0.5,0.2-0.9,0.2c-1.2,0-1.4-0.7-1.2-1.2l0.9-6.4h1.9l0.5-3.4H62
				l0.4-2.1h-3.5c0,0-2.1,11.8-2.1,13.2c0,2.1,1.2,3,2.8,3C60.6,162,61.6,161.6,62,161.6z"/>
			<path id="path4155" class="st3" d="M63,155.8c0,5.1,3.4,6.4,6.2,6.4c2.6,0,3.9-0.5,3.9-0.5l0.7-3.5c0,0-1.9,0.9-3.9,0.9
				c-3.9,0-3.2-2.8-3.2-2.8H74c0,0,0.5-2.3,0.5-3.4c0-2.3-1.2-5.3-5.1-5.3C65.9,147.5,63,151.4,63,155.8z M69.4,150.7
				c1.9,0,1.6,2.3,1.6,2.5h-4.1C67.1,153,67.5,150.7,69.4,150.7z"/>
			<path id="path4151" class="st3" d="M92.2,161.6l0.7-3.9c0,0-1.8,0.9-3,0.9c-2.5,0-3.5-1.9-3.5-4.1c0-4.2,2.1-6.5,4.6-6.5
				c1.8,0,3.4,1.1,3.4,1.1l0.5-3.9c0,0-2.1-0.9-4.1-0.9c-4.2,0-8.1,3.5-8.1,10.4c0,4.4,2.1,7.4,6.5,7.4
				C90.2,162,92.2,161.6,92.2,161.6z"/>
			<path id="path4149" class="st3" d="M42.2,147.5c-2.5,0-4.4,0.7-4.4,0.7l-0.5,3.2c0,0,1.6-0.7,3.9-0.7c1.4,0,2.3,0.2,2.3,1.2
				c0,0.7-0.2,0.9-0.2,0.9s-1.1-0.2-1.6-0.2c-3.2,0-6.4,1.4-6.4,5.3c0,3.2,2.1,3.9,3.5,3.9c2.5,0,3.7-1.6,3.7-1.6l-0.2,1.4h3.2
				l1.4-9.9C47.1,147.7,43.4,147.5,42.2,147.5z M42.9,155.6c0,0.5-0.4,3.4-2.5,3.4c-1.1,0-1.4-0.9-1.4-1.4c0-1.1,0.5-2.1,3.2-2.1
				C42.7,155.4,42.9,155.6,42.9,155.6z"/>
			<path id="path4145" class="st3" d="M50.5,162c0.9,0,5.5,0.2,5.5-4.6c0-4.4-4.2-3.5-4.2-5.3c0-0.9,0.7-1.2,1.9-1.2
				c0.5,0,2.5,0.2,2.5,0.2l0.5-3.2c0,0-1.2-0.4-3.4-0.4c-2.6,0-5.3,1.1-5.3,4.8c0,4.1,4.4,3.7,4.4,5.5c0,1.2-1.2,1.2-2.3,1.2
				c-1.8,0-3.2-0.5-3.2-0.5l-0.5,3.2C46.6,161.4,47.5,162,50.5,162z"/>
			<path id="path4139" class="st3" d="M122,144.7l-0.7,4.8c0,0-1.4-1.9-3.5-1.9c-3.4,0-6,3.9-6,8.5c0,3,1.4,5.8,4.4,5.8
				c2.1,0,3.4-1.6,3.4-1.6l-0.2,1.2h3.5l2.8-17.1L122,144.7z M120.3,154c0,1.9-0.9,4.4-2.8,4.4c-1.2,0-1.9-1.1-1.9-2.8
				c0-2.8,1.2-4.6,2.8-4.6C119.7,151,120.3,151.9,120.3,154z"/>
			<path id="path4133" class="st3" d="M22.8,161.8l2.1-12.9l0.4,12.9h2.5l4.6-12.9l-2.1,12.9h3.7l2.8-17.1h-5.7l-3.5,10.4l-0.2-10.4
				h-5.3l-2.8,17.1H22.8z"/>
			<path id="path4131" class="st3" d="M78,161.8c1.1-6,1.2-10.8,3.7-9.9c0.4-2.3,0.9-3.2,1.4-4.2c0,0-0.2,0-0.7,0
				c-1.6,0-2.8,2.1-2.8,2.1l0.4-1.9h-3.4l-2.3,14H78z"/>
			<g id="use8523" transform="translate(847.0062,0)">
				<path id="path4149_1_" class="st3" d="M-746.5,147.5c-2.5,0-4.4,0.7-4.4,0.7l-0.5,3.2c0,0,1.6-0.7,3.9-0.7
					c1.4,0,2.3,0.2,2.3,1.2c0,0.7-0.2,0.9-0.2,0.9s-1.1-0.2-1.6-0.2c-3.2,0-6.4,1.4-6.4,5.3c0,3.2,2.1,3.9,3.5,3.9
					c2.5,0,3.7-1.6,3.7-1.6l-0.2,1.4h3.2l1.4-9.9C-741.6,147.7-745.3,147.5-746.5,147.5z M-745.8,155.6c0,0.5-0.4,3.4-2.5,3.4
					c-1.1,0-1.4-0.9-1.4-1.4c0-1.1,0.5-2.1,3.2-2.1C-746,155.4-745.8,155.6-745.8,155.6z"/>
			</g>
			<g id="use8525" transform="translate(442.2857,0)">
				<path id="path4131_1_" class="st3" d="M-333.9,161.8c1.1-6,1.2-10.8,3.7-9.9c0.4-2.3,0.9-3.2,1.4-4.2c0,0-0.2,0-0.7,0
					c-1.6,0-2.8,2.1-2.8,2.1l0.4-1.9h-3.4l-2.3,14H-333.9z"/>
			</g>
			<path id="text9407" class="st3" d="M125.6,159.7c0.2,0,0.4,0,0.5,0.2s0.4,0.2,0.4,0.4c0.2,0.2,0.2,0.4,0.2,0.5
				c0,0.2,0,0.4-0.2,0.5c-0.2,0.2-0.2,0.4-0.4,0.4c-0.2,0.2-0.4,0.2-0.5,0.2s-0.4,0-0.5-0.2s-0.4-0.2-0.4-0.4
				c-0.2-0.2-0.2-0.4-0.2-0.5s0-0.4,0.2-0.5c0.2-0.2,0.2-0.4,0.4-0.4C125.2,159.7,125.4,159.7,125.6,159.7 M125.6,159.8
				c-0.2,0-0.4,0-0.5,0.2c-0.2,0-0.2,0.2-0.4,0.4c0,0.2-0.2,0.4-0.2,0.5s0,0.4,0.2,0.5c0,0.2,0.2,0.2,0.4,0.4c0.2,0,0.4,0.2,0.5,0.2
				s0.4,0,0.5-0.2c0.2,0,0.2-0.2,0.4-0.4c0-0.2,0.2-0.4,0.2-0.5s0-0.4-0.2-0.5c0-0.2-0.2-0.2-0.4-0.4
				C125.7,159.8,125.7,159.8,125.6,159.8 M125,161.3V160h0.4c0.2,0,0.2,0,0.4,0c0,0,0.2,0,0.2,0.2v0.2c0,0,0,0.2-0.2,0.2l-0.2,0.2
				c0,0,0,0,0.2,0l0.2,0.2l0.2,0.2h-0.2l-0.2-0.2c0-0.2-0.2-0.2-0.2-0.4c0,0,0,0-0.2,0h-0.2v0.5L125,161.3 M125.2,160.7h0.2
				c0.2,0,0.2,0,0.2,0s0,0,0-0.2c0,0,0,0,0-0.2l0,0h-0.2h-0.2V160.7"/>
		</g>
	</g>
</g>
<g>
	
		<radialGradient id="SVGID_2_" cx="218.6586" cy="537.2103" r="11.0804" gradientTransform="matrix(1 0 0 -1 6.416 688.083)" gradientUnits="userSpaceOnUse">
		<stop  offset="5.618000e-003" style="stop-color:#FFEFE2"/>
		<stop  offset="9.682110e-002" style="stop-color:#FFE9D8"/>
		<stop  offset="0.2456" style="stop-color:#FEDEC1"/>
		<stop  offset="0.4337" style="stop-color:#FDCB9F"/>
		<stop  offset="0.6534" style="stop-color:#FAAF72"/>
		<stop  offset="0.8971" style="stop-color:#F79139"/>
		<stop  offset="1" style="stop-color:#F58220"/>
	</radialGradient>
	<path class="st8" d="M225.1,139.9c-6.2,0-11.2,4.8-11.2,10.8c0,6.3,4.8,11.1,11.2,11.1c6.3,0,11.2-4.8,11.2-10.9
		S231.4,139.9,225.1,139.9z"/>
	<path class="st9" d="M161.3,140.2h-6v21.1h6c3.2,0,5.5-0.8,7.5-2.5c2.5-2,3.9-4.9,3.9-8.2C172.7,144.6,167.9,140.2,161.3,140.2z
		 M166.1,156.1c-1.2,1.2-2.9,1.7-5.7,1.7h-1.1v-13.9h1.1c2.6,0,4.3,0.5,5.7,1.7c1.4,1.2,2.3,3.2,2.3,5.2S167.6,154.9,166.1,156.1z"
		/>
	<rect x="174.5" y="140.2" class="st9" width="4.2" height="21.1"/>
	<path class="st9" d="M188.7,148.4c-2.5-0.9-3.2-1.5-3.2-2.6c0-1.4,1.2-2.3,3.1-2.3c1.2,0,2.3,0.5,3.4,1.7l2.2-2.8
		c-1.7-1.5-3.9-2.3-6.2-2.3c-3.7,0-6.6,2.6-6.6,6c0,2.9,1.4,4.5,5.2,5.9c1.5,0.6,2.5,0.9,2.8,1.2c0.8,0.5,1.2,1.2,1.2,2.2
		c0,1.7-1.4,2.9-3.2,2.9c-2,0-3.5-0.9-4.5-2.8l-2.6,2.6c1.8,2.8,4.2,4,7.2,4c4.3,0,7.2-2.8,7.2-6.9
		C194.7,151.6,193.3,150.1,188.7,148.4z"/>
	<path class="st9" d="M196.1,150.9c0,6.2,4.9,10.9,11.1,10.9c1.7,0,3.2-0.3,5.1-1.2v-4.8c-1.7,1.7-3.1,2.3-4.9,2.3
		c-4.2,0-7.1-2.9-7.1-7.2c0-4,3.1-7.2,6.9-7.2c2,0,3.4,0.8,5.1,2.3v-4.8c-1.8-0.9-3.2-1.2-5.1-1.2
		C201,139.8,196.1,144.7,196.1,150.9z"/>
	<polygon class="st9" points="245.5,154.4 240,140.2 235.5,140.2 244.5,162 246.6,162 255.7,140.2 251.2,140.2 	"/>
	<polygon class="st9" points="257.6,161.3 269.3,161.3 269.3,157.8 261.7,157.8 261.7,152.1 269,152.1 269,148.6 261.7,148.6 
		261.7,143.9 269.3,143.9 269.3,140.2 257.6,140.2 	"/>
	<path class="st9" d="M285.6,146.6c0-4-2.8-6.2-7.4-6.2H272v21.1h4.2V153h0.5l5.7,8.5h5.1l-6.6-8.9
		C283.9,151.8,285.6,149.8,285.6,146.6z M277.3,149.9H276v-6.3h1.2c2.6,0,4,1.1,4,3.1C281.3,148.9,279.9,149.9,277.3,149.9z"/>
	<path class="st9" d="M288.4,141.9c0-0.3-0.3-0.6-0.8-0.6H287v1.8h0.5v-0.8l0.5,0.8h0.6l-0.6-0.8
		C288.2,142.4,288.4,142.1,288.4,141.9z M287.6,142.1L287.6,142.1l-0.2-0.5h0.2c0.2,0,0.3,0.2,0.3,0.3
		C288.1,142.1,287.9,142.1,287.6,142.1z"/>
	<path class="st9" d="M287.7,140.6c-0.9,0-1.7,0.8-1.7,1.7c0,0.9,0.8,1.7,1.7,1.7s1.5-0.8,1.5-1.7
		C289.4,141.3,288.7,140.6,287.7,140.6z M287.7,143.6c-0.8,0-1.2-0.6-1.2-1.4c0-0.8,0.6-1.4,1.2-1.4c0.8,0,1.2,0.6,1.2,1.4
		C289.1,143,288.5,143.6,287.7,143.6z"/>
</g>
</svg>
