<?xml version="1.0" encoding="utf-8"?>
<!-- Generator: Adobe Illustrator 19.2.1, SVG Export Plug-In . SVG Version: 6.00 Build 0)  -->
<svg version="1.1" id="Layer_1" xmlns="http://www.w3.org/2000/svg" xmlns:xlink="http://www.w3.org/1999/xlink" x="0px" y="0px"
	 viewBox="0 0 300 300" style="enable-background:new 0 0 300 300;" xml:space="preserve">
<style type="text/css">
	.st0{fill:#0E9948;}
	.st1{fill:#F8991D;}
</style>
<path class="st0" d="M287,244.3H13.6c-4.4,0-8-3.6-8-8V87.1c0-4.4,3.6-8,8-8H287c4.4,0,8,3.6,8,8v149.3
	C295,240.7,291.4,244.3,287,244.3z M13.6,80.1c-3.9,0-7,3.1-7,7v149.3c0,3.9,3.1,7,7,7H287c3.8,0,7-3.1,7-7V87.1c0-3.8-3.1-7-7-7
	H13.6z"/>
<path class="st0" d="M17.9,92.2v37.6h37.6V92.2H17.9z M52.2,122.5h-3l-7.3-11.7c-1.6-2.6-3.1-5.2-4.3-7.7l-0.1,0
	c0.2,2.9,0.2,5.7,0.2,9.5v9.8h-2.8V102h-3.7v20.5h-3V102h-7v-2.5h13.7h3.2h0.1v0.1l7.3,11.5c1.7,2.7,3,5.1,4.1,7.5l0.1,0
	c-0.3-3.1-0.3-5.9-0.3-9.4v-9.6h2.8V122.5z"/>
<g>
	<path class="st0" d="M61.1,98.7c1.4-0.3,3.5-0.5,5.7-0.5c3.1,0,5.1,0.5,6.7,1.8c1.3,0.9,2,2.4,2,4.3c0,2.3-1.5,4.4-4.1,5.3v0.1
		c2.3,0.6,5,2.5,5,6.1c0,2.1-0.8,3.7-2.1,4.9c-1.7,1.5-4.4,2.3-8.4,2.3c-2.2,0-3.8-0.1-4.9-0.3V98.7z M64.2,108.7H67
		c3.3,0,5.3-1.7,5.3-4.1c0-2.8-2.2-4-5.3-4c-1.4,0-2.3,0.1-2.8,0.2V108.7z M64.2,120.3c0.6,0.1,1.5,0.1,2.6,0.1
		c3.2,0,6.2-1.2,6.2-4.7c0-3.3-2.8-4.7-6.3-4.7h-2.6V120.3z"/>
	<path class="st0" d="M84.5,115l-2.5,7.6h-3.2L87,98.4h3.8l8.3,24.3h-3.3l-2.6-7.6H84.5z M92.5,112.6l-2.4-7c-0.5-1.6-0.9-3-1.3-4.4
		h-0.1c-0.4,1.4-0.8,2.9-1.2,4.4l-2.4,7H92.5z"/>
	<path class="st0" d="M102.6,122.7V98.4h3.4l7.8,12.3c1.8,2.8,3.2,5.4,4.4,7.9l0.1,0c-0.3-3.2-0.4-6.2-0.4-10V98.4h3v24.3h-3.2
		l-7.7-12.3c-1.7-2.7-3.3-5.5-4.5-8.1l-0.1,0c0.2,3.1,0.3,6,0.3,10v10.4H102.6z"/>
	<path class="st0" d="M126.3,98.4h3.1v11.7h0.1c0.6-0.9,1.3-1.8,1.9-2.6l7.4-9.1h3.9l-8.8,10.3l9.5,14h-3.7l-8-11.9l-2.3,2.7v9.3
		h-3.1V98.4z"/>
</g>
<rect x="124.4" y="137.6" class="st0" width="169.7" height="7.7"/>
<g>
	<path class="st0" d="M37.7,184.6v-4.2h-7.2V179l7-10h2.3v9.7h2.2v1.7h-2.2v4.2H37.7z M37.7,178.7v-5.2c0-0.8,0-1.6,0.1-2.4h-0.1
		c-0.5,0.9-0.9,1.6-1.3,2.3l-3.8,5.3v0H37.7z"/>
	<path class="st0" d="M54.4,170.8h-6l-0.6,4c0.4,0,0.7-0.1,1.3-0.1c1.2,0,2.4,0.3,3.4,0.8c1.2,0.7,2.2,2,2.2,4c0,3-2.4,5.3-5.8,5.3
		c-1.7,0-3.1-0.5-3.9-1l0.5-1.6c0.6,0.4,1.9,0.9,3.3,0.9c2,0,3.7-1.3,3.7-3.4c0-2-1.4-3.5-4.5-3.5c-0.9,0-1.6,0.1-2.2,0.2l1-7.5h7.5
		V170.8z"/>
	<path class="st0" d="M67.8,170.5c-0.4,0-1,0-1.6,0.1c-3.3,0.6-5.1,3-5.4,5.5h0.1c0.7-1,2-1.8,3.8-1.8c2.8,0,4.7,2,4.7,5
		c0,2.9-1.9,5.5-5.2,5.5c-3.3,0-5.5-2.6-5.5-6.6c0-3.1,1.1-5.5,2.6-7c1.3-1.3,3-2.1,5-2.3c0.6-0.1,1.2-0.1,1.5-0.1V170.5z
		 M67.2,179.5c0-2.2-1.3-3.6-3.2-3.6c-1.3,0-2.4,0.8-3,1.9c-0.1,0.2-0.2,0.6-0.2,0.9c0,2.6,1.2,4.5,3.4,4.5
		C66,183.2,67.2,181.7,67.2,179.5z"/>
	<path class="st0" d="M72.6,180.6c0-2,1.2-3.4,3.1-4.2l0-0.1c-1.7-0.8-2.5-2.2-2.5-3.5c0-2.5,2.1-4.2,4.8-4.2c3,0,4.5,1.9,4.5,3.8
		c0,1.3-0.6,2.7-2.6,3.6v0.1c1.9,0.8,3.1,2.1,3.1,4c0,2.7-2.3,4.5-5.3,4.5C74.6,184.9,72.6,182.9,72.6,180.6z M81,180.5
		c0-1.9-1.3-2.8-3.4-3.4c-1.8,0.5-2.8,1.7-2.8,3.2c-0.1,1.6,1.1,3,3.1,3C79.8,183.3,81,182.2,81,180.5z M75.2,172.7
		c0,1.6,1.2,2.4,3,2.9c1.3-0.5,2.4-1.4,2.4-2.8c0-1.2-0.7-2.5-2.6-2.5C76.2,170.3,75.2,171.4,75.2,172.7z"/>
	<path class="st0" d="M99.8,184.6v-4.2h-7.2V179l7-10h2.3v9.7h2.2v1.7h-2.2v4.2H99.8z M99.8,178.7v-5.2c0-0.8,0-1.6,0.1-2.4h-0.1
		c-0.5,0.9-0.9,1.6-1.3,2.3l-3.8,5.3v0H99.8z"/>
	<path class="st0" d="M116.5,170.8h-6l-0.6,4c0.4,0,0.7-0.1,1.3-0.1c1.2,0,2.4,0.3,3.4,0.8c1.2,0.7,2.2,2,2.2,4c0,3-2.4,5.3-5.8,5.3
		c-1.7,0-3.1-0.5-3.9-1l0.5-1.6c0.6,0.4,1.9,0.9,3.3,0.9c2,0,3.7-1.3,3.7-3.4c0-2-1.4-3.5-4.5-3.5c-0.9,0-1.6,0.1-2.2,0.2l1-7.5h7.5
		V170.8z"/>
	<path class="st0" d="M130,170.5c-0.4,0-1,0-1.6,0.1c-3.3,0.6-5.1,3-5.4,5.5h0.1c0.7-1,2-1.8,3.8-1.8c2.8,0,4.7,2,4.7,5
		c0,2.9-1.9,5.5-5.2,5.5c-3.3,0-5.5-2.6-5.5-6.6c0-3.1,1.1-5.5,2.6-7c1.3-1.3,3-2.1,5-2.3c0.6-0.1,1.2-0.1,1.5-0.1V170.5z
		 M129.4,179.5c0-2.2-1.3-3.6-3.2-3.6c-1.3,0-2.4,0.8-3,1.9c-0.1,0.2-0.2,0.6-0.2,0.9c0,2.6,1.2,4.5,3.4,4.5
		C128.1,183.2,129.4,181.7,129.4,179.5z"/>
	<path class="st0" d="M134.7,180.6c0-2,1.2-3.4,3.1-4.2l0-0.1c-1.7-0.8-2.5-2.2-2.5-3.5c0-2.5,2.1-4.2,4.8-4.2c3,0,4.5,1.9,4.5,3.8
		c0,1.3-0.6,2.7-2.6,3.6v0.1c1.9,0.8,3.1,2.1,3.1,4c0,2.7-2.3,4.5-5.3,4.5C136.7,184.9,134.7,182.9,134.7,180.6z M143.1,180.5
		c0-1.9-1.3-2.8-3.4-3.4c-1.8,0.5-2.8,1.7-2.8,3.2c-0.1,1.6,1.1,3,3.1,3C141.9,183.3,143.1,182.2,143.1,180.5z M137.3,172.7
		c0,1.6,1.2,2.4,3,2.9c1.3-0.5,2.4-1.4,2.4-2.8c0-1.2-0.7-2.5-2.6-2.5C138.3,170.3,137.3,171.4,137.3,172.7z"/>
	<path class="st0" d="M162,184.6v-4.2h-7.2V179l7-10h2.3v9.7h2.2v1.7H164v4.2H162z M162,178.7v-5.2c0-0.8,0-1.6,0.1-2.4H162
		c-0.5,0.9-0.9,1.6-1.3,2.3l-3.8,5.3v0H162z"/>
	<path class="st0" d="M178.6,170.8h-6l-0.6,4c0.4,0,0.7-0.1,1.3-0.1c1.2,0,2.4,0.3,3.4,0.8c1.2,0.7,2.2,2,2.2,4c0,3-2.4,5.3-5.8,5.3
		c-1.7,0-3.1-0.5-3.9-1l0.5-1.6c0.6,0.4,1.9,0.9,3.3,0.9c2,0,3.7-1.3,3.7-3.4c0-2-1.4-3.5-4.5-3.5c-0.9,0-1.6,0.1-2.2,0.2l1-7.5h7.5
		V170.8z"/>
	<path class="st0" d="M192.1,170.5c-0.4,0-1,0-1.6,0.1c-3.3,0.6-5.1,3-5.4,5.5h0.1c0.7-1,2-1.8,3.8-1.8c2.8,0,4.7,2,4.7,5
		c0,2.9-1.9,5.5-5.2,5.5c-3.3,0-5.5-2.6-5.5-6.6c0-3.1,1.1-5.5,2.6-7c1.3-1.3,3-2.1,5-2.3c0.6-0.1,1.2-0.1,1.5-0.1V170.5z
		 M191.5,179.5c0-2.2-1.3-3.6-3.2-3.6c-1.3,0-2.4,0.8-3,1.9c-0.1,0.2-0.2,0.6-0.2,0.9c0,2.6,1.2,4.5,3.4,4.5
		C190.3,183.2,191.5,181.7,191.5,179.5z"/>
	<path class="st0" d="M196.9,180.6c0-2,1.2-3.4,3.1-4.2l0-0.1c-1.7-0.8-2.5-2.2-2.5-3.5c0-2.5,2.1-4.2,4.8-4.2c3,0,4.5,1.9,4.5,3.8
		c0,1.3-0.6,2.7-2.6,3.6v0.1c1.9,0.8,3.1,2.1,3.1,4c0,2.7-2.3,4.5-5.3,4.5C198.8,184.9,196.9,182.9,196.9,180.6z M205.3,180.5
		c0-1.9-1.3-2.8-3.4-3.4c-1.8,0.5-2.8,1.7-2.8,3.2c-0.1,1.6,1.1,3,3.1,3C204,183.3,205.3,182.2,205.3,180.5z M199.5,172.7
		c0,1.6,1.2,2.4,3,2.9c1.3-0.5,2.4-1.4,2.4-2.8c0-1.2-0.7-2.5-2.6-2.5C200.4,170.3,199.5,171.4,199.5,172.7z"/>
	<path class="st0" d="M224.1,184.6v-4.2h-7.2V179l7-10h2.3v9.7h2.2v1.7h-2.2v4.2H224.1z M224.1,178.7v-5.2c0-0.8,0-1.6,0.1-2.4h-0.1
		c-0.5,0.9-0.9,1.6-1.3,2.3l-3.8,5.3v0H224.1z"/>
	<path class="st0" d="M240.8,170.8h-6l-0.6,4c0.4,0,0.7-0.1,1.3-0.1c1.2,0,2.4,0.3,3.4,0.8c1.2,0.7,2.2,2,2.2,4c0,3-2.4,5.3-5.8,5.3
		c-1.7,0-3.1-0.5-3.9-1l0.5-1.6c0.6,0.4,1.9,0.9,3.3,0.9c2,0,3.7-1.3,3.7-3.4c0-2-1.4-3.5-4.5-3.5c-0.9,0-1.6,0.1-2.2,0.2l1-7.5h7.5
		V170.8z"/>
	<path class="st0" d="M254.2,170.5c-0.4,0-1,0-1.6,0.1c-3.3,0.6-5.1,3-5.4,5.5h0.1c0.7-1,2-1.8,3.8-1.8c2.8,0,4.7,2,4.7,5
		c0,2.9-1.9,5.5-5.2,5.5c-3.3,0-5.5-2.6-5.5-6.6c0-3.1,1.1-5.5,2.6-7c1.3-1.3,3-2.1,5-2.3c0.6-0.1,1.2-0.1,1.5-0.1V170.5z
		 M253.6,179.5c0-2.2-1.3-3.6-3.2-3.6c-1.3,0-2.4,0.8-3,1.9c-0.1,0.2-0.2,0.6-0.2,0.9c0,2.6,1.2,4.5,3.4,4.5
		C252.4,183.2,253.6,181.7,253.6,179.5z"/>
	<path class="st0" d="M259,180.6c0-2,1.2-3.4,3.1-4.2l0-0.1c-1.7-0.8-2.5-2.2-2.5-3.5c0-2.5,2.1-4.2,4.8-4.2c3,0,4.5,1.9,4.5,3.8
		c0,1.3-0.6,2.7-2.6,3.6v0.1c1.9,0.8,3.1,2.1,3.1,4c0,2.7-2.3,4.5-5.3,4.5C261,184.9,259,182.9,259,180.6z M267.4,180.5
		c0-1.9-1.3-2.8-3.4-3.4c-1.8,0.5-2.8,1.7-2.8,3.2c-0.1,1.6,1.1,3,3.1,3C266.2,183.3,267.4,182.2,267.4,180.5z M261.6,172.7
		c0,1.6,1.2,2.4,3,2.9c1.3-0.5,2.4-1.4,2.4-2.8c0-1.2-0.7-2.5-2.6-2.5C262.6,170.3,261.6,171.4,261.6,172.7z"/>
</g>
<g>
	<path class="st0" d="M32.7,191.5c0,1.8-0.7,2.7-1.8,2.7c-1,0-1.7-1-1.7-2.7c0-1.7,0.8-2.7,1.8-2.7C32,188.8,32.7,189.8,32.7,191.5z
		 M29.8,191.5c0,1.4,0.4,2.1,1.1,2.1c0.7,0,1.1-0.8,1.1-2.2c0-1.3-0.3-2.1-1.1-2.1C30.3,189.4,29.8,190.1,29.8,191.5z"/>
	<path class="st0" d="M36.8,191.5c0,1.8-0.7,2.7-1.8,2.7c-1,0-1.7-1-1.7-2.7c0-1.7,0.8-2.7,1.8-2.7
		C36.1,188.8,36.8,189.8,36.8,191.5z M33.9,191.5c0,1.4,0.4,2.1,1.1,2.1c0.7,0,1.1-0.8,1.1-2.2c0-1.3-0.3-2.1-1.1-2.1
		C34.4,189.4,33.9,190.1,33.9,191.5z"/>
	<path class="st0" d="M40.9,191.5c0,1.8-0.7,2.7-1.8,2.7c-1,0-1.7-1-1.7-2.7c0-1.7,0.8-2.7,1.8-2.7
		C40.3,188.8,40.9,189.8,40.9,191.5z M38.1,191.5c0,1.4,0.4,2.1,1.1,2.1c0.7,0,1.1-0.8,1.1-2.2c0-1.3-0.3-2.1-1.1-2.1
		C38.5,189.4,38.1,190.1,38.1,191.5z"/>
	<path class="st0" d="M45,191.5c0,1.8-0.7,2.7-1.8,2.7c-1,0-1.7-1-1.7-2.7c0-1.7,0.8-2.7,1.8-2.7C44.4,188.8,45,189.8,45,191.5z
		 M42.2,191.5c0,1.4,0.4,2.1,1.1,2.1c0.7,0,1.1-0.8,1.1-2.2c0-1.3-0.3-2.1-1.1-2.1C42.6,189.4,42.2,190.1,42.2,191.5z"/>
</g>
<g>
	<path class="st0" d="M169.9,217.2L169.9,217.2l-1.8,1l-0.3-1.1l2.3-1.2h1.2v10.4h-1.4V217.2z"/>
	<path class="st0" d="M175.1,226.3v-0.9l1.1-1.1c2.7-2.5,3.9-3.9,3.9-5.4c0-1.1-0.5-2-2.1-2c-0.9,0-1.7,0.5-2.2,0.9l-0.4-1
		c0.7-0.6,1.7-1.1,2.9-1.1c2.2,0,3.2,1.5,3.2,3c0,1.9-1.4,3.5-3.6,5.6l-0.8,0.8v0h4.7v1.2H175.1z"/>
	<path class="st0" d="M182.6,226.9l4.5-11.6h1.1l-4.5,11.6H182.6z"/>
	<path class="st0" d="M188.8,226.3v-0.9l1.1-1.1c2.7-2.5,3.9-3.9,3.9-5.4c0-1.1-0.5-2-2.1-2c-0.9,0-1.7,0.5-2.2,0.9l-0.4-1
		c0.7-0.6,1.7-1.1,2.9-1.1c2.2,0,3.2,1.5,3.2,3c0,1.9-1.4,3.5-3.6,5.6l-0.8,0.8v0h4.7v1.2H188.8z"/>
	<path class="st0" d="M203.9,221c0,3.5-1.3,5.5-3.6,5.5c-2,0-3.4-1.9-3.4-5.3c0-3.5,1.5-5.4,3.6-5.4
		C202.7,215.7,203.9,217.7,203.9,221z M198.3,221.1c0,2.7,0.8,4.2,2.1,4.2c1.4,0,2.1-1.7,2.1-4.3c0-2.6-0.7-4.2-2.1-4.2
		C199.2,216.8,198.3,218.3,198.3,221.1z"/>
</g>
<g>
	<path class="st0" d="M278.7,214.5L278.7,214.5c-0.4,0.8-0.8,1.8-1.2,2.7l-1.7,3.5h3.5l-0.4-3.5
		C278.8,216.5,278.7,215.4,278.7,214.5z"/>
	<path class="st0" d="M224.8,204v32.1h62V204H224.8z M244.5,226.7h-2.8l-1.7-14.2h2.5l0.8,7.8c0.2,1.5,0.3,2.6,0.3,3.8h0
		c0.5-1.2,1-2.5,1.7-3.9l3.8-7.7h2.7L244.5,226.7z M254.7,226.7h-2.5l2.7-14.2h2.5L254.7,226.7z M262,226.7l-1.7-14.2h2.5l0.8,7.8
		c0.2,1.5,0.3,2.6,0.3,3.8h0c0.5-1.2,1-2.5,1.7-3.9l3.8-7.7h2.7l-7.4,14.2H262z M279.8,226.7l-0.4-4H275l-1.9,4h-2.6l7.1-14.2h3.1
		l1.8,14.2H279.8z"/>
</g>
<g>
	<path class="st1" d="M30.1,217.5c0.5-0.1,1.3-0.2,2.1-0.2c1.1,0,1.9,0.2,2.4,0.6c0.4,0.4,0.7,0.9,0.7,1.6c0,1-0.7,1.7-1.4,1.9v0
		c0.6,0.2,0.9,0.7,1.1,1.5c0.2,1,0.4,1.9,0.6,2.2h-1.5c-0.1-0.2-0.3-0.9-0.5-1.8c-0.2-1-0.6-1.3-1.4-1.4h-0.7v3.2h-1.4V217.5z
		 M31.5,220.9h0.8c1,0,1.6-0.5,1.6-1.3c0-0.9-0.6-1.2-1.5-1.2c-0.4,0-0.7,0-0.9,0.1V220.9z"/>
	<path class="st1" d="M41.7,221.7h-2.9v2.3h3.3v1.2h-4.7v-7.7h4.5v1.2h-3.1v2h2.9V221.7z"/>
	<path class="st1" d="M50.6,222c0-1-0.1-2.2-0.1-3.3h0c-0.3,0.9-0.6,2-0.9,3l-1.1,3.4h-1.1l-1-3.3c-0.3-1-0.6-2-0.8-3h0
		c0,1-0.1,2.2-0.1,3.3l-0.2,3.1h-1.3l0.5-7.7h1.9l1,3.1c0.3,0.9,0.5,1.8,0.7,2.7h0c0.2-0.8,0.5-1.8,0.8-2.7l1.1-3.1h1.8l0.4,7.7
		h-1.4L50.6,222z"/>
	<path class="st1" d="M55.8,222.9l-0.7,2.2h-1.5l2.5-7.7h1.8l2.5,7.7h-1.5l-0.7-2.2H55.8z M58,221.9l-0.6-1.9
		c-0.1-0.5-0.3-1-0.4-1.4h0c-0.1,0.4-0.2,1-0.4,1.4l-0.6,1.9H58z"/>
	<path class="st1" d="M63.7,217.4v7.7h-1.4v-7.7H63.7z"/>
	<path class="st1" d="M66.1,225.1v-7.7h1.6l2,3.3c0.5,0.9,1,1.8,1.3,2.6h0c-0.1-1-0.1-2-0.1-3.2v-2.7h1.3v7.7h-1.5l-2-3.4
		c-0.5-0.9-1-1.8-1.4-2.7l0,0c0.1,1,0.1,2,0.1,3.3v2.8H66.1z"/>
	<path class="st1" d="M79.2,222.9l-0.7,2.2h-1.5l2.5-7.7h1.8l2.5,7.7h-1.5l-0.7-2.2H79.2z M81.5,221.9l-0.6-1.9
		c-0.1-0.5-0.3-1-0.4-1.4h0c-0.1,0.4-0.2,1-0.4,1.4l-0.6,1.9H81.5z"/>
	<path class="st1" d="M85.8,225.1v-7.7h1.6l2,3.3c0.5,0.9,1,1.8,1.3,2.6h0c-0.1-1-0.1-2-0.1-3.2v-2.7h1.3v7.7h-1.5l-2-3.4
		c-0.5-0.9-1-1.8-1.4-2.7l0,0c0.1,1,0.1,2,0.1,3.3v2.8H85.8z"/>
	<path class="st1" d="M101.1,221.2c0,2.6-1.6,4.1-3.7,4.1c-2.2,0-3.6-1.7-3.6-3.9c0-2.4,1.5-4.1,3.7-4.1
		C99.8,217.3,101.1,219,101.1,221.2z M95.4,221.3c0,1.6,0.8,2.8,2.1,2.8c1.4,0,2.1-1.3,2.1-2.9c0-1.5-0.7-2.8-2.1-2.8
		C96.1,218.4,95.4,219.7,95.4,221.3z"/>
	<path class="st1" d="M103.1,225.1v-7.7h1.6l2,3.3c0.5,0.9,1,1.8,1.3,2.6h0c-0.1-1-0.1-2-0.1-3.2v-2.7h1.3v7.7h-1.5l-2-3.4
		c-0.5-0.9-1-1.8-1.4-2.7l0,0c0.1,1,0.1,2,0.1,3.3v2.8H103.1z"/>
	<path class="st1" d="M113.2,225.1v-3.2l-2.4-4.5h1.6l0.9,2c0.3,0.6,0.5,1,0.7,1.5h0c0.2-0.5,0.4-1,0.7-1.5l0.9-2h1.6l-2.6,4.5v3.3
		H113.2z"/>
	<path class="st1" d="M125.2,222c0-1-0.1-2.2-0.1-3.3h0c-0.3,0.9-0.6,2-0.9,3L123,225h-1.1l-1-3.3c-0.3-1-0.6-2-0.8-3h0
		c0,1-0.1,2.2-0.1,3.3l-0.2,3.1h-1.3l0.5-7.7h1.9l1,3.1c0.3,0.9,0.5,1.8,0.7,2.7h0c0.2-0.8,0.5-1.8,0.8-2.7l1.1-3.1h1.8l0.4,7.7
		h-1.4L125.2,222z"/>
	<path class="st1" d="M135.8,221.2c0,2.6-1.6,4.1-3.7,4.1c-2.2,0-3.6-1.7-3.6-3.9c0-2.4,1.5-4.1,3.7-4.1
		C134.4,217.3,135.8,219,135.8,221.2z M130,221.3c0,1.6,0.8,2.8,2.1,2.8c1.4,0,2.1-1.3,2.1-2.9c0-1.5-0.7-2.8-2.1-2.8
		C130.7,218.4,130,219.7,130,221.3z"/>
	<path class="st1" d="M139.1,217.4v4.5c0,1.5,0.6,2.2,1.6,2.2c1,0,1.6-0.7,1.6-2.2v-4.5h1.4v4.4c0,2.4-1.2,3.4-3.1,3.4
		c-1.8,0-3-1-3-3.4v-4.4H139.1z"/>
	<path class="st1" d="M146.1,223.6c0.5,0.3,1.1,0.5,1.9,0.5c0.9,0,1.4-0.4,1.4-1.1c0-0.6-0.4-0.9-1.4-1.3c-1.3-0.5-2.1-1.1-2.1-2.3
		c0-1.3,1.1-2.2,2.7-2.2c0.8,0,1.5,0.2,1.9,0.4l-0.3,1.1c-0.3-0.1-0.8-0.4-1.5-0.4c-0.9,0-1.3,0.5-1.3,0.9c0,0.6,0.4,0.9,1.5,1.3
		c1.3,0.5,2,1.2,2,2.3c0,1.2-0.9,2.3-2.9,2.3c-0.8,0-1.7-0.2-2.1-0.5L146.1,223.6z"/>
</g>
</svg>
