<?xml version="1.0" encoding="utf-8"?>
<!-- Generator: Adobe Illustrator 19.2.1, SVG Export Plug-In . SVG Version: 6.00 Build 0)  -->
<svg version="1.1" xmlns="http://www.w3.org/2000/svg" xmlns:xlink="http://www.w3.org/1999/xlink" x="0px" y="0px"
	 viewBox="0 0 300 300" style="enable-background:new 0 0 300 300;" xml:space="preserve">
<style type="text/css">
	.st0{fill:url(#SVGID_1_);}
	.st1{fill:#0E9948;}
</style>
<g id="Layer_2">
</g>
<g id="Layer_1">
	
		<radialGradient id="SVGID_1_" cx="142.5" cy="37.5" r="67.537" gradientTransform="matrix(1 0 0 0.3333 0 142)" gradientUnits="userSpaceOnUse">
		<stop  offset="0.2867" style="stop-color:#B5B5B5"/>
		<stop  offset="0.8029" style="stop-color:#FFFFFF;stop-opacity:0"/>
	</radialGradient>
	<rect x="56" y="141" class="st0" width="173" height="27"/>
	<path class="st1" d="M247.9,79.6c-11.1-1.8-25.7,5.4-25.7,5.4c-36.5,18.5-53.3,8.7-53.3,8.7c0,0,0,0,0,0l-0.2-3.9c0,0-8-9-21.6-9.9
		c2.2-1.9,4.3-4.9,3.7-9.2c-0.8-7-6.2-10.8-7.9-11.9c0,0-7.5,3.4-8.5,11.9c-0.5,4.4,1.6,7.4,3.8,9.3c-4.7,0.4-14.1,2.9-23.4,15.5
		c0,0,0.3,0.2,0.8,0.5c-0.7-0.3-1.1-0.5-1.1-0.5c-5.1,1.9-9.7,7.7-11.1,9.6c-0.1-3.7-0.6-14.9-3.3-17.8c-3-3.3-12.8-4-17.2-4.4
		c-5.5-0.5-16.9-1-21.9,1.3c-6.7,3.1-7.9,7.7-7.7,11.1c0.3,4.3,6.1,11.6,9.5,14.2c4.8,3.5,22.6,6.4,22.6,6.4s-5.2,2.7-5.7,4.4
		c-1.8,6.2,2.8,8.6,5.7,9.8c3.9,1.5,10-3.1,10-3.1l2.6-3.1l3.2,0.3c2.6,8.7,10.5,14.2,19,17.4c-3.3,2.6-5.4,4.9-5.4,4.9
		c-1.6,12.2,21.6,12.7,26.6,12.6c5,0,28.2-0.4,26.6-12.6c0,0-2.1-2.2-5.5-4.9c29.7-9.8,50.9-35,50.9-35c9-10.9,22-16.5,22-16.5
		s8.2-2.8,13.2-4.3C251.7,84.8,247.9,79.6,247.9,79.6z M75.7,101.7c-10-6.9-3.3-9.8-3.3-9.8c17.2-4.9,23.2,19.8,23.2,19.8l0.3,1
		C94.3,113.8,85.8,108.7,75.7,101.7z"/>
	<g>
		<path class="st1" d="M46.4,220.1c-1.4,1.4-2.8,2.4-4,3c-1.2,0.6-2.5,0.9-3.8,0.9c-1.5,0-2.8-0.4-3.9-1.1c-1.1-0.7-1.9-1.8-2.5-3.1
			c-0.6-1.4-0.9-2.9-0.9-4.8c0-2.3,0.6-4.6,1.8-7.1c1.2-2.4,2.8-4.7,4.8-6.8c2-2.1,4.2-3.7,6.6-5c2.4-1.2,4.7-1.9,7-1.9
			c3.6,0,5.4,1.6,5.4,4.8c0,1.2-0.3,2.4-1,3.6c-0.7,1.2-1.6,2.1-2.7,2.8c-1.1,0.7-2.3,1.1-3.5,1.1c-0.5,0-0.8-0.2-0.8-0.5
			c0-0.1,0.1-0.3,0.3-0.7c0.4-0.8,0.7-1.6,0.9-2.5c0.2-1.3,0.3-2.2,0.3-2.9c0-1.2-0.1-1.8-0.4-1.8c-0.7,0-1.6,0.5-2.8,1.4
			c-1.2,1-2.2,2-3,3.2c-0.7,1-1.4,2.2-2,3.5c-0.6,1.4-1.1,2.7-1.4,4.1c-0.3,1.4-0.5,2.7-0.5,3.8c0,1.1,0.2,2,0.7,2.7
			c0.5,0.7,1.1,1.1,1.9,1.1c1.3,0,2.8-1.7,4.4-5c0.5-0.9,0.9-1.5,1-1.8c0.2-0.3,0.4-0.5,0.8-0.7c0.9-0.6,2-1.1,3.4-1.5
			c1.4-0.4,2.4-0.7,3.2-0.7c0.9,0,1.3,0.4,1.3,1.3c0,0.1,0,0.4-0.1,0.9c-1,4.2-2.3,8.1-3.7,11.6c-1.5,3.5-2.9,6-4.2,7.5
			c-0.6,0.7-1.6,1.2-2.8,1.7c-1.2,0.4-2.5,0.7-3.8,0.7c-1.1,0-2.1-0.2-3.2-0.5c-1.1-0.4-2-0.8-2.7-1.4c-0.7-0.6-1.1-1.1-1.1-1.7
			c0-0.4,0.2-0.8,0.6-1.2c0.4-0.5,0.9-0.9,1.6-1.4c1.1-0.7,1.8-1.1,2.2-1.1c0.4,0,0.9,0.4,1.6,1.2c0.8,0.9,1.7,1.7,2.6,2.4
			c0.5-1.2,1-2.6,1.5-4.3C46,222.4,46.3,221,46.4,220.1z"/>
		<path class="st1" d="M66.3,218c0.2,0.9,0.7,1.3,1.7,1.3c1.1,0,2.5-0.6,4.2-1.9c1-0.7,1.7-1.1,2-1.1c0.4,0,0.8,0.1,1.2,0.3
			c0.4,0.2,0.6,0.5,0.6,0.7c0,0.3-0.2,0.6-0.6,1c-0.8,0.8-1.6,1.5-2.6,2.2c-1,0.7-1.9,1.3-2.9,1.8c-0.9,0.5-1.8,0.9-2.8,1.1
			c-0.9,0.3-1.7,0.4-2.5,0.4c-1.8,0-3.2-0.5-4.3-1.5c-1.1-1-1.6-2.4-1.6-4.1c0-1.3,0.3-2.8,0.9-4.4c0.6-1.6,1.3-3.2,2.3-4.6
			c1.1-1.7,2.5-3.1,4.2-4.2c2-1.4,4-2,5.9-2c1.4,0,2.4,0.4,3.2,1.3c0.8,0.9,1.2,2,1.2,3.5c0,1.2-0.3,2.4-0.9,3.6
			c-0.6,1.3-1.5,2.5-2.7,3.6c-1,1-1.9,1.7-2.9,2.3c-0.9,0.5-1.8,0.8-2.5,0.8C67,218.3,66.6,218.2,66.3,218z M66.3,217.4
			c0.7-0.4,1.2-0.9,1.5-1.3c0.8-0.9,1.4-2,1.8-3.2c0.3-0.8,0.6-1.7,0.8-2.7c0.2-1,0.3-1.9,0.3-2.7c0-0.8-0.2-1.2-0.5-1.2
			c-0.5,0-1.2,1-2.1,3c-0.6,1.2-1,2.4-1.4,3.7c-0.4,1.2-0.5,2.3-0.5,3.1C66.1,216.4,66.2,216.8,66.3,217.4z"/>
		<path class="st1" d="M86.9,212.7l1.3-1.5c1.3-1.5,2.4-2.5,3.1-3.3c0.8-0.7,1.5-1.2,2.1-1.5c0.6-0.3,1.2-0.5,1.9-0.5
			c1,0,1.7,0.3,2.2,0.8c0.4,0.5,0.6,1.5,0.6,2.8c0,0.6-0.1,1.4-0.2,2.5c-0.2,1.5-0.3,2.8-0.3,4.1c0,1.4,0.1,2.6,0.2,3.5
			c0.1,0.5,0.3,1.1,0.5,1.6c0.1,0.5,0.2,0.9,0.2,1.1c0,0.2-0.1,0.4-0.3,0.5c-0.4,0.4-1,0.7-1.8,1c-0.7,0.3-1.4,0.4-1.9,0.4
			c-0.8,0-1.6-0.3-2.2-0.8c-0.7-0.6-1.2-1.3-1.6-2.3c-0.4-1-0.5-2.1-0.5-3.4c0-0.8,0.1-1.8,0.3-3l-0.1-0.1c-0.6,0.7-1.1,1.2-1.5,1.6
			s-0.7,0.8-1.1,1.1c-1.6,1.8-3,3.5-4.1,5c-0.4,0.6-0.8,1.1-1.2,1.5c-0.5,0.5-1.1,0.8-1.8,0.8c-0.9,0-1.7-0.3-2.2-1
			c-0.6-0.7-0.9-1.6-0.9-2.7c0-0.7,0.1-1.5,0.2-2.5c0.2-1,0.4-2,0.6-3.1c0.3-1.1,0.6-2.3,0.9-3.4c0.4-1.2,0.8-2.3,1.2-3.4
			c0.7-1.8,1.5-3.1,2.4-4.1c0.6-0.6,1.4-1,2.4-1c1.5,0,2.2,1,2.2,2.9C87.7,207.9,87.4,209.9,86.9,212.7L86.9,212.7z"/>
		<path class="st1" d="M103.4,224.3c-0.6,0-1.2-0.3-1.8-0.9c-0.5-0.6-0.9-1.2-1.1-1.9c-0.2-0.7-0.3-1.5-0.3-2.6c0-2.4,0.4-5.1,1.3-8
			s1.9-5.1,3-6.5c0.4-0.6,1.1-0.8,1.9-0.8c0.8,0,1.5,0.4,2,1.1c0.5,0.8,0.8,1.8,0.8,3c0,1.8-0.3,4-0.8,6.4s-1.3,5-2.2,7.6
			c-0.4,1.1-0.8,1.8-1.4,2.2C104.4,224.2,103.9,224.3,103.4,224.3L103.4,224.3z M106,202.6c-1.4,0-2-0.9-2-2.4
			c0-0.8,0.2-1.7,0.6-2.8c0.4-1,0.8-1.8,1.3-2.3c0.3-0.3,0.5-0.5,0.8-0.6c0.3-0.1,0.6-0.2,1-0.2c0.7,0,1.2,0.2,1.6,0.5
			c0.3,0.4,0.5,0.9,0.5,1.8c0,1-0.2,2-0.5,2.9s-0.8,1.7-1.4,2.2C107.3,202.3,106.7,202.6,106,202.6L106,202.6z"/>
		<path class="st1" d="M115.4,203.2l0.1-0.3c1-2.7,1.8-4.6,2.5-5.7c0.3-0.5,0.8-1,1.4-1.4c1.1-0.7,2.2-1.1,3.1-1.1
			c0.6,0,1,0.1,1.3,0.4c0.3,0.3,0.5,0.6,0.5,1.1c0,0.3-0.2,1-0.7,2c-0.7,1.7-1.3,3.3-1.6,4.8c0.2,0,0.5,0.1,0.7,0.1
			c0.9,0.1,1.4,0.3,1.7,0.4c0.3,0.2,0.4,0.5,0.4,0.9c0,0.8-0.2,1.5-0.6,2.1c-0.4,0.6-0.9,1.1-1.5,1.4c-0.5,0.2-1.2,0.4-2.3,0.4
			c-0.2,0.6-0.4,1.3-0.6,2.3c-0.1,0.9-0.3,2.1-0.4,3.6c-0.1,0.6-0.1,1.1-0.1,1.6c0,2.3,1.1,3.4,3.3,3.4h0.1h0.1c0.3,0,0.4,0,0.4,0.1
			c0,0.2-0.2,0.6-0.7,1.2c-0.5,0.5-1,1-1.6,1.4c-0.6,0.4-1.3,0.8-2.1,1c-0.7,0.3-1.4,0.4-2,0.4c-1.5,0-2.7-0.5-3.7-1.5
			c-0.9-1-1.4-2.4-1.4-4.1c0-0.7,0.1-1.7,0.4-2.8c0.3-1.2,0.6-2.7,1.2-4.7c0.1-0.3,0.2-0.7,0.3-1.1c0.1-0.4,0.2-0.6,0.2-0.7
			c-0.6,0-1-0.1-1.2-0.4c-0.2-0.2-0.4-0.6-0.4-1.1c0-0.9,0.3-1.8,1-2.6C113.6,203.9,114.4,203.4,115.4,203.2z"/>
		<path class="st1" d="M141.3,217.8L141.3,217.8L141.3,217.8c-1.4,1.6-2.7,2.9-3.8,3.9c-1.1,1-2.1,1.8-3.1,2.3
			c-0.9,0.5-1.8,0.8-2.6,0.8c-1.6,0-2.9-0.5-4-1.6c-1-1.1-1.6-2.4-1.6-4.1c0-1,0.3-2.2,0.8-3.6c0.5-1.4,1.2-2.8,2.1-4.1
			c1.5-2.2,3.4-4,5.7-5.6c2.4-1.6,4.6-2.4,6.8-2.4c1.8,0,3.4,0.4,4.5,1.1c1.2,0.8,1.8,1.7,1.8,2.9c0,0.8-0.3,1.7-0.9,2.7
			c0.8,0,1.3,0.1,1.5,0.2c0.2,0.2,0.3,0.6,0.3,1.2c0-0.1,0,0.2-0.1,0.9c-0.1,1.4-0.1,2.8-0.1,4c0,0.6,0,1.1,0,1.5
			c0,0.3,0,0.7,0.1,1.1c0,0.4,0.1,0.8,0.1,1c0.1,0.7,0.3,1.3,0.6,2c-0.9,0.8-1.7,1.5-2.5,1.9c-0.8,0.4-1.6,0.6-2.4,0.6
			c-2.2,0-3.3-1.9-3.3-5.6C141.2,218.4,141.2,218,141.3,217.8z M142.6,212.8l-0.4,0.1c-1,0.3-1.8,0.4-2.2,0.4
			c-0.6,0-0.8-0.1-0.8-0.4c0-0.1,0.1-0.4,0.3-0.8c0.8-1.2,1.2-2.4,1.2-3.5c0-0.6-0.1-1.2-0.3-1.7c-0.2-0.5-0.5-0.8-0.7-0.8
			c-0.2,0-0.6,0.2-1.1,0.7c-1.3,1.5-2.4,2.9-3.2,4.5c-0.8,1.5-1.2,2.9-1.2,4.1c0,0.8,0.2,1.4,0.5,2c0.3,0.5,0.7,0.8,1.2,0.8
			c0.4,0,1.2-0.4,2.3-1.3s2.4-2.1,3.9-3.5L142.6,212.8L142.6,212.8z"/>
		<path class="st1" d="M162.5,207.9c0.6-1.6,1.1-3.3,1.4-5.1c0.4-1.8,0.6-3.1,0.6-4.1c0-0.3-0.1-0.4-0.2-0.4c-0.2,0-0.6,0.5-1.2,1.5
			c-0.6,1-1.1,2.1-1.4,3.1c-0.8,2.3-1.5,4.3-1.9,5.8c-0.5,1.5-0.8,2.8-0.9,3.9c-0.2,1-0.3,2.1-0.3,3.2c0,0.9,0.1,1.6,0.3,2
			c0.2,0.4,0.5,0.6,1,0.6c0.8,0,1.7-0.3,2.7-1c1-0.7,1.9-1.6,2.7-2.8c0.6-0.8,1.1-1.3,1.4-1.3c0.4,0,0.7,0.4,0.7,1.1
			c0,1.5-0.5,3-1.4,4.5c-1,1.5-2.2,2.7-3.7,3.6c-1.5,0.9-3.1,1.4-4.7,1.4c-1.9,0-3.5-0.6-4.7-1.8c-1.2-1.2-1.8-2.8-1.8-4.8
			c0-1.6,0.3-3.5,1-5.7c0.7-2.2,1.6-4.3,2.8-6.5c1.2-2.2,2.4-4.2,3.8-6c1.4-1.8,2.7-3.2,4.1-4.1c0.8-0.6,1.8-0.9,2.8-0.9
			c0.8,0,1.5,0.2,2.1,0.7c0.6,0.5,1.1,1.2,1.5,2c0.3,0.9,0.5,1.8,0.5,2.9c0,2.3-0.4,4.5-1.3,6.6c-0.9,2.2-2.1,4-3.7,5.6
			c-0.7,0.8-1.5,1.4-2.2,1.8c-0.7,0.4-1.3,0.6-1.8,0.6c-0.5,0-0.8-0.2-0.8-0.6c0-0.2,0.2-0.6,0.6-1.2c0.5-0.8,1.1-2,1.8-3.6
			c0.1-0.2,0.1-0.3,0.2-0.5C162.3,208.5,162.4,208.2,162.5,207.9z"/>
		<path class="st1" d="M186.3,220.1c-1.4,1.4-2.8,2.4-4,3c-1.2,0.6-2.5,0.9-3.8,0.9c-1.5,0-2.8-0.4-3.9-1.1
			c-1.1-0.7-1.9-1.8-2.5-3.1c-0.6-1.4-0.9-2.9-0.9-4.8c0-2.3,0.6-4.6,1.8-7.1c1.2-2.4,2.8-4.7,4.8-6.8c2-2.1,4.2-3.7,6.6-5
			c2.4-1.2,4.7-1.9,7-1.9c3.6,0,5.4,1.6,5.4,4.8c0,1.2-0.3,2.4-1,3.6c-0.7,1.2-1.6,2.1-2.7,2.8c-1.1,0.7-2.3,1.1-3.5,1.1
			c-0.5,0-0.8-0.2-0.8-0.5c0-0.1,0.1-0.3,0.3-0.7c0.4-0.8,0.7-1.6,0.9-2.5c0.2-1.3,0.3-2.2,0.3-2.9c0-1.2-0.1-1.8-0.4-1.8
			c-0.7,0-1.6,0.5-2.8,1.4c-1.2,1-2.2,2-3,3.2c-0.7,1-1.4,2.2-2,3.5c-0.6,1.4-1.1,2.7-1.4,4.1c-0.3,1.4-0.5,2.7-0.5,3.8
			c0,1.1,0.2,2,0.7,2.7c0.5,0.7,1.1,1.1,1.9,1.1c1.3,0,2.8-1.7,4.4-5c0.5-0.9,0.9-1.5,1-1.8c0.2-0.3,0.4-0.5,0.8-0.7
			c0.9-0.6,2-1.1,3.4-1.5c1.4-0.4,2.4-0.7,3.2-0.7c0.9,0,1.3,0.4,1.3,1.3c0,0.1,0,0.4-0.1,0.9c-1,4.2-2.3,8.1-3.7,11.6
			c-1.5,3.5-2.9,6-4.2,7.5c-0.6,0.7-1.6,1.2-2.8,1.7c-1.2,0.4-2.5,0.7-3.8,0.7c-1.1,0-2.1-0.2-3.2-0.5c-1.1-0.4-2-0.8-2.7-1.4
			c-0.7-0.6-1.1-1.1-1.1-1.7c0-0.4,0.2-0.8,0.6-1.2c0.4-0.5,0.9-0.9,1.6-1.4c1.1-0.7,1.8-1.1,2.2-1.1c0.4,0,0.9,0.4,1.6,1.2
			c0.8,0.9,1.7,1.7,2.6,2.4c0.5-1.2,1-2.6,1.5-4.3C185.9,222.4,186.2,221,186.3,220.1z"/>
		<path class="st1" d="M206.2,218c0.2,0.9,0.7,1.3,1.7,1.3c1.1,0,2.5-0.6,4.2-1.9c1-0.7,1.7-1.1,2-1.1c0.4,0,0.8,0.1,1.2,0.3
			c0.4,0.2,0.6,0.5,0.6,0.7c0,0.3-0.2,0.6-0.6,1c-0.8,0.8-1.6,1.5-2.6,2.2c-1,0.7-2,1.3-2.9,1.8c-0.9,0.5-1.8,0.9-2.8,1.1
			c-0.9,0.3-1.7,0.4-2.5,0.4c-1.8,0-3.2-0.5-4.3-1.5c-1.1-1-1.6-2.4-1.6-4.1c0-1.3,0.3-2.8,0.9-4.4c0.6-1.6,1.3-3.2,2.3-4.6
			c1.1-1.7,2.5-3.1,4.2-4.2c2-1.4,4-2,5.9-2c1.4,0,2.4,0.4,3.2,1.3c0.8,0.9,1.2,2,1.2,3.5c0,1.2-0.3,2.4-0.9,3.6
			c-0.6,1.3-1.5,2.5-2.7,3.6c-1,1-1.9,1.7-2.9,2.3s-1.8,0.8-2.5,0.8C206.9,218.3,206.5,218.2,206.2,218z M206.2,217.4
			c0.7-0.4,1.2-0.9,1.5-1.3c0.8-0.9,1.4-2,1.8-3.2c0.3-0.8,0.6-1.7,0.8-2.7c0.2-1,0.3-1.9,0.3-2.7c0-0.8-0.2-1.2-0.5-1.2
			c-0.5,0-1.2,1-2.1,3c-0.6,1.2-1,2.4-1.4,3.7c-0.4,1.2-0.5,2.3-0.5,3.1C206,216.4,206.1,216.8,206.2,217.4z"/>
		<path class="st1" d="M226.8,212.7l1.3-1.5c1.3-1.5,2.4-2.5,3.1-3.3c0.8-0.7,1.5-1.2,2.1-1.5c0.6-0.3,1.2-0.5,1.9-0.5
			c1,0,1.7,0.3,2.2,0.8c0.4,0.5,0.6,1.5,0.6,2.8c0,0.6-0.1,1.4-0.2,2.5c-0.2,1.5-0.3,2.8-0.3,4.1c0,1.4,0.1,2.6,0.2,3.5
			c0.1,0.5,0.3,1.1,0.5,1.6c0.1,0.5,0.2,0.9,0.2,1.1c0,0.2-0.1,0.4-0.3,0.5c-0.4,0.4-1,0.7-1.8,1c-0.7,0.3-1.4,0.4-1.9,0.4
			c-0.8,0-1.6-0.3-2.2-0.8c-0.7-0.6-1.2-1.3-1.6-2.3c-0.4-1-0.5-2.1-0.5-3.4c0-0.8,0.1-1.8,0.3-3l-0.1-0.1c-0.6,0.7-1.1,1.2-1.5,1.6
			c-0.4,0.4-0.7,0.8-1.1,1.1c-1.6,1.8-3,3.5-4.1,5c-0.4,0.6-0.8,1.1-1.2,1.5c-0.5,0.5-1.1,0.8-1.8,0.8c-0.9,0-1.7-0.3-2.2-1
			c-0.6-0.7-0.9-1.6-0.9-2.7c0-0.7,0.1-1.5,0.2-2.5c0.2-1,0.4-2,0.6-3.1c0.3-1.1,0.6-2.3,1-3.4c0.4-1.2,0.8-2.3,1.2-3.4
			c0.7-1.8,1.5-3.1,2.4-4.1c0.6-0.6,1.4-1,2.4-1c1.5,0,2.2,1,2.2,2.9C227.6,207.9,227.3,209.9,226.8,212.7L226.8,212.7z"/>
		<path class="st1" d="M243.3,224.3c-0.6,0-1.2-0.3-1.8-0.9c-0.5-0.6-0.9-1.2-1.1-1.9c-0.2-0.7-0.3-1.5-0.3-2.6c0-2.4,0.4-5.1,1.3-8
			c0.9-3,1.9-5.1,3-6.5c0.4-0.6,1.1-0.8,1.9-0.8c0.8,0,1.5,0.4,2,1.1c0.5,0.8,0.8,1.8,0.8,3c0,1.8-0.3,4-0.8,6.4
			c-0.5,2.5-1.3,5-2.2,7.6c-0.4,1.1-0.8,1.8-1.4,2.2C244.3,224.2,243.8,224.3,243.3,224.3L243.3,224.3z M245.9,202.6
			c-1.4,0-2-0.9-2-2.4c0-0.8,0.2-1.7,0.6-2.8c0.4-1,0.8-1.8,1.3-2.3c0.3-0.3,0.5-0.5,0.8-0.6c0.3-0.1,0.6-0.2,1-0.2
			c0.7,0,1.2,0.2,1.6,0.5c0.3,0.4,0.5,0.9,0.5,1.8c0,1-0.2,2-0.5,2.9c-0.4,0.9-0.8,1.7-1.4,2.2C247.2,202.3,246.6,202.6,245.9,202.6
			L245.9,202.6z"/>
		<path class="st1" d="M258.6,218c0.2,0.9,0.7,1.3,1.7,1.3c1.1,0,2.5-0.6,4.2-1.9c1-0.7,1.7-1.1,2-1.1c0.4,0,0.8,0.1,1.2,0.3
			c0.4,0.2,0.6,0.5,0.6,0.7c0,0.3-0.2,0.6-0.6,1c-0.8,0.8-1.6,1.5-2.6,2.2c-1,0.7-2,1.3-2.9,1.8c-0.9,0.5-1.8,0.9-2.8,1.1
			c-0.9,0.3-1.7,0.4-2.5,0.4c-1.8,0-3.2-0.5-4.3-1.5c-1.1-1-1.6-2.4-1.6-4.1c0-1.3,0.3-2.8,0.9-4.4c0.6-1.6,1.3-3.2,2.3-4.6
			c1.1-1.7,2.5-3.1,4.2-4.2c2-1.4,4-2,5.9-2c1.4,0,2.4,0.4,3.2,1.3c0.8,0.9,1.2,2,1.2,3.5c0,1.2-0.3,2.4-0.9,3.6
			c-0.6,1.3-1.5,2.5-2.7,3.6c-1,1-1.9,1.7-2.9,2.3s-1.8,0.8-2.5,0.8C259.3,218.3,259,218.2,258.6,218z M258.6,217.4
			c0.7-0.4,1.2-0.9,1.5-1.3c0.8-0.9,1.4-2,1.8-3.2c0.3-0.8,0.6-1.7,0.8-2.7c0.2-1,0.3-1.9,0.3-2.7c0-0.8-0.2-1.2-0.5-1.2
			c-0.5,0-1.2,1-2.1,3c-0.6,1.2-1,2.4-1.4,3.7c-0.4,1.2-0.5,2.3-0.5,3.1C258.4,216.4,258.5,216.8,258.6,217.4z"/>
	</g>
</g>
</svg>
