<?xml version="1.0" encoding="utf-8"?>
<!-- Generator: Adobe Illustrator 19.2.1, SVG Export Plug-In . SVG Version: 6.00 Build 0)  -->
<svg version="1.1" id="Layer_1" xmlns="http://www.w3.org/2000/svg" xmlns:xlink="http://www.w3.org/1999/xlink" x="0px" y="0px"
	 viewBox="0 0 300 200" style="enable-background:new 0 0 300 200;" xml:space="preserve">
<style type="text/css">
	.st0{fill:#E5E5E5;}
	.st1{fill:#DEDDDD;}
	.st2{fill:#109A49;}
</style>
<g>
	<rect x="44.4" y="80.9" class="st0" width="211.2" height="100.1"/>
	<polygon class="st1" points="150,131 255.6,80.9 44.4,80.9 	"/>
	<polygon class="st1" points="150,131 44.4,181 255.6,181 	"/>
	<polygon class="st2" points="60.4,89.2 148.6,131 236.9,89.2 236.9,19 60.4,19 	"/>
	<g>
		<path class="st0" d="M163.2,96.2c-5.2,2.8-10.6,3.8-16.9,3.8c-15.6,0-28.8-11.4-28.8-29.7c0-19.6,13.6-36.5,34.7-36.5
			c16.5,0,27.7,11.6,27.7,27.5c0,14.3-8,22.6-16.9,22.6c-3.8,0-7.3-2.6-7-8.4h-0.4c-3.3,5.6-7.7,8.4-13.4,8.4
			c-5.5,0-10.3-4.5-10.3-12c0-11.8,9.3-22.5,22.5-22.5c4.1,0,7.7,0.9,10.2,2l-3.2,17.2c-1.4,7.2-0.3,10.6,2.9,10.6
			c4.8,0.1,10.3-6.4,10.3-17.4c0-13.8-8.3-23.7-23-23.7c-15.5,0-28.5,12.3-28.5,31.6c0,15.9,10.4,25.7,24.4,25.7
			c5.4,0,10.5-1.1,14.4-3.3L163.2,96.2z M158,55.2c-1-0.3-2.6-0.7-4.8-0.7c-8.4,0-15.1,7.9-15.1,17.1c0,4.2,2.1,7.2,6.3,7.2
			c5.5,0,10.6-7,11.6-12.9L158,55.2z"/>
	</g>
</g>
</svg>
