<svg version="1.1" id="Layer_1" xmlns="http://www.w3.org/2000/svg" xmlns:xlink="http://www.w3.org/1999/xlink" x="0px" y="0px"
	 viewBox="0 0 254.7 396.4" style="enable-background:new 0 0 254.7 396.4;" xml:space="preserve">
<style type="text/css">
	.st0{fill:#28396D;}
	.st1{fill:#4561A5;}
	.st2{fill:#4A9E8E;}
	.st3{fill:#A9DBD1;}
	.st4{fill:#CEBD8D;}
	.st5{fill:#FFEEB7;}
	.st6{fill:#FBDB80;}
	.st7{fill:#565656;}
	.st8{fill:#C1C1C0;}
	.st9{fill:#6D6D6D;}
	.st10{fill:#FFFFFF;}
	.st11{fill:#CD8C2A;}
	.st12{fill:#FEDA00;}
	.st13{fill:#D8D8D8;}
	.st14{fill:#EDEDED;}
	.st15{fill:#191919;}
	.st16{fill:#B5B5B6;}
</style>
<g>
	<path class="st0" d="M193.5,366c0,0-12.4-27.7-10.9-36.5c1.5-8.8-16.1-41.6-16.1-41.6s-8.8-24.8-7.3-32.8c1.4-7.5-29-6.1-33.1-5.9
		c-4.1-0.2-34.5-1.6-33.1,5.9c1.5,8-7.3,32.8-7.3,32.8s-17.5,32.8-16.1,41.6C71,338.3,58.6,366,58.6,366s-10.9,13.9-5.8,18.2
		s51.8,8,61.3-1.5c9.5-9.5,0.7-24.1,0.7-24.1s-3.6-23.4,0-33.6c2.8-7.9,8.7-21.9,11.2-27.9c2.5,5.9,8.4,20,11.2,27.9
		c3.6,10.2,0,33.6,0,33.6s-8.8,14.6,0.7,24.1c9.5,9.5,56.2,5.8,61.3,1.5S193.5,366,193.5,366z"/>
	<path class="st1" d="M167.2,386.7c-14,0-24.4-2-27.8-5.4c-8.3-8.3-0.5-21.5-0.4-21.6l0.2-0.3l0.1-0.4c0.2-1,3.7-24-0.1-34.6
		c-2.9-8-8.8-22.2-11.3-28l-1.8-4.3l-1.8,4.3c-2.4,5.7-8.4,20-11.3,28c-3.8,10.6-0.2,33.6-0.1,34.6l0.1,0.4l0.2,0.3
		c0.1,0.1,7.8,13.4-0.4,21.6c-3.4,3.4-13.8,5.4-27.8,5.4c-15.7,0-28.9-2.4-30.8-4c-2.4-2,2-10.3,6.1-15.5l0.2-0.2l0.1-0.2
		c1.3-2.9,12.6-28.5,11.1-37.6c-1-5.9,8.9-27.4,15.9-40.3l0.1-0.1l0-0.1c0.9-2.6,8.9-25.6,7.4-33.9c0-0.1,0-0.3,0.1-0.5
		c1.3-1.6,7.7-3.3,21.5-3.3c4.4,0,8,0.2,9.4,0.2l0.1,0l0.1,0c1.4-0.1,5-0.2,9.4-0.2c13.8,0,20.2,1.7,21.5,3.3
		c0.2,0.2,0.2,0.3,0.1,0.5c-1.5,8.3,6.5,31.3,7.4,33.9l0,0.1l0.1,0.1c6.9,13,16.8,34.4,15.9,40.3c-1.5,9.1,9.8,34.7,11.1,37.6
		l0.1,0.2l0.2,0.2c4.1,5.2,8.5,13.5,6.1,15.5C196.1,384.3,182.9,386.7,167.2,386.7C167.2,386.7,167.2,386.7,167.2,386.7z"/>
	<path class="st2" d="M101.4,260c-8.4,0-15.2-6.8-15.2-15.2c0-0.1-0.3-15.9,0-24.8c0-1.6,0.3-13,0.4-17.4l-12.3,6.1l-23.2-23.2
		l24.2-17c7.8-5.5,18.8-7.9,26.2-7.9h4.7l0,1c0.2,9.9,8.6,18,18.7,18c0.1,0,0.2,0,0.4,0c0.1,0,0.2,0,0.3,0c0.2,0,0.3,0,0.4,0
		c0.1,0,0.2,0,0.4,0c10.1,0,18.5-8.1,18.7-18l0-1h4.7c7.4,0,18.4,2.5,26.2,7.9l24.2,17l-23.2,23.2l-12.3-6.1
		c0.1,4.3,0.4,15.7,0.4,17.4c0.3,8.9,0,24.6,0,24.8c0,8.4-6.8,15.2-15.2,15.2H101.4z"/>
	<path class="st3" d="M198.6,185.6l-23.2-16.3c-7.3-5.1-17.8-7.8-25.6-7.8H146c-0.2,10.5-8.9,19-19.7,19c-0.2,0-0.5,0-0.7,0l0,0l0,0
		h0l0,0c-0.2,0-0.5,0-0.7,0c-10.8,0-19.5-8.5-19.7-19h-3.8c-7.9,0-18.3,2.6-25.6,7.8l-23.2,16.3l21.9,21.9l13.1-6.6
		c0,0-0.4,17-0.5,19c-0.3,8.9,0,24.8,0,24.8c0,7.9,6.4,14.2,14.2,14.2h24.2h0h24.2c7.9,0,14.2-6.4,14.2-14.2c0,0,0.3-15.8,0-24.8
		c-0.1-2-0.5-19-0.5-19l13.1,6.6L198.6,185.6z"/>
	<path class="st4" d="M125.1,182.4c-21.9,0-39.7-25.5-39.7-56.8s17.8-56.8,39.7-56.8s39.7,25.5,39.7,56.8S147,182.4,125.1,182.4z"/>
	<ellipse class="st5" cx="125.1" cy="125.6" rx="38.7" ry="55.8"/>
	<path class="st6" d="M135.3,125.7c0.5,1.4,0.8,3,0.8,4.6c0,7.1-5.1,12.8-11.3,12.8c-6.3,0-11.3-5.7-11.3-12.8
		c0-1.6,0.3-3.2,0.8-4.6c-1.1,2.1-1.8,4.6-1.8,7.2c0,7.8,5.5,14,12.3,14s12.3-6.3,12.3-14C137.1,130.3,136.4,127.8,135.3,125.7z"/>
	<path class="st4" d="M52.7,217.3c-5.2,0-14-3.1-14.5-24.2c-0.2-10.6,9.8-23.9,19.6-36.9c6.6-8.7,12.8-17,15.2-23.5
		c0.2-0.7,0.1-2.1,0-3.4c-0.1-1.5-0.3-2.8,0-3.9c2.2-7.7,13.6-22.5,21.9-24.8c0.4-0.1,0.8-0.1,1.3-0.1c1.9,0,5.8,0.9,6.5,3
		c1.7,5-3.9,11-9.4,16.9c-3.6,3.8-7.3,7.8-8.1,10.8c-0.4,1.3-0.1,4.8,0.8,6.3c0.2,0.3,0.3,0.4,0.4,0.4c0.1,0,0.1,0,0.2,0
		c1.6,0,4-2.6,6.2-5c2.6-2.8,5-5.4,7.3-5.4c0.5,0,1,0.1,1.4,0.3c0.5,0.3,1.2,0.9,1.4,2.1c0.7,3.1-1.5,8.6-2.9,10.4
		c-2,2.5-10,4.7-12.2,5.2L67,187.1l7.3,18.3l-0.3,0.4c-0.3,0.4-7.7,10.6-20.5,11.4C53.3,217.3,53,217.3,52.7,217.3z"/>
	<path class="st5" d="M73.2,205.4c0,0-7.3,10.2-19.7,10.9c-7.7,0.5-13.9-5.8-14.2-23.2c-0.4-17.3,28.8-43.7,34.7-60
		c0.6-1.7-0.5-5.5,0-7.3c2.2-7.7,13.4-22,21.2-24.1c1.7-0.5,6,0.6,6.6,2.2c2.7,7.6-15.3,19.3-17.5,27c-0.6,2,0,7.6,2,8
		c4.4,0.7,10.8-12.3,14.8-10.1c2.5,1.3-0.1,8.9-1.8,11c-2,2.6-12.1,5-12.1,5l-21.2,42.3L73.2,205.4z"/>
	<path class="st4" d="M198,218.1c5.2,0,14-3.1,14.5-24.2c0.2-10.6-9.8-23.9-19.6-36.9c-6.6-8.7-12.8-17-15.2-23.5
		c-0.2-0.7-0.1-2.1,0-3.4c0.1-1.5,0.3-2.8,0-3.9c-2.2-7.7-13.6-22.5-21.9-24.8c-0.4-0.1-0.8-0.1-1.3-0.1c-1.9,0-5.8,0.9-6.5,3
		c-1.7,5,3.9,11,9.4,16.9c3.6,3.8,7.3,7.8,8.1,10.8c0.4,1.3,0.1,4.8-0.8,6.3c-0.2,0.3-0.3,0.4-0.4,0.4c-0.1,0-0.1,0-0.2,0
		c-1.6,0-4-2.6-6.2-5c-2.6-2.8-5-5.4-7.3-5.4c-0.5,0-1,0.1-1.4,0.3c-0.5,0.3-1.2,0.9-1.4,2.1c-0.7,3.1,1.5,8.6,2.9,10.4
		c2,2.5,10,4.7,12.2,5.2l20.8,41.5l-7.3,18.3l0.3,0.4c0.3,0.4,7.7,10.6,20.5,11.4C197.4,218,197.7,218.1,198,218.1z"/>
	<path class="st5" d="M177.5,206.1c0,0,7.3,10.2,19.7,10.9c7.7,0.5,13.9-5.8,14.2-23.2c0.4-17.3-28.8-43.7-34.7-60
		c-0.6-1.7,0.5-5.5,0-7.3c-2.2-7.7-13.4-22-21.2-24.1c-1.7-0.5-6,0.6-6.6,2.2c-2.7,7.6,15.3,19.3,17.5,27c0.6,2,0,7.6-2,8
		c-4.4,0.7-10.8-12.3-14.8-10.1c-2.5,1.3,0.1,8.9,1.8,11c2,2.6,12.1,5,12.1,5l21.2,42.3L177.5,206.1z"/>
	<g>
		<path class="st7" d="M104.2,140.3c-10.6,0-19.2-8.6-19.2-19.2s8.6-19.2,19.2-19.2s19.2,8.6,19.2,19.2S114.8,140.3,104.2,140.3z"/>
		<path class="st8" d="M104.2,139.3c-10.1,0-18.2-8.2-18.2-18.2c0-10.1,8.2-18.2,18.2-18.2c10.1,0,18.2,8.2,18.2,18.2
			C122.5,131.1,114.3,139.3,104.2,139.3z"/>
		<path class="st9" d="M104.2,136.3c-8.4,0-15.2-6.8-15.2-15.2s6.8-15.2,15.2-15.2s15.2,6.8,15.2,15.2S112.6,136.3,104.2,136.3z"/>
		<circle class="st3" cx="104.2" cy="121" r="14.2"/>
		<path class="st7" d="M145.2,140.3c-10.6,0-19.2-8.6-19.2-19.2s8.6-19.2,19.2-19.2s19.2,8.6,19.2,19.2S155.8,140.3,145.2,140.3z"/>
		<path class="st8" d="M145.2,139.3c-10.1,0-18.2-8.2-18.2-18.2c0-10.1,8.2-18.2,18.2-18.2c10.1,0,18.2,8.2,18.2,18.2
			C163.5,131.1,155.3,139.3,145.2,139.3z"/>
		<path class="st9" d="M145.2,136.3c-8.4,0-15.2-6.8-15.2-15.2s6.8-15.2,15.2-15.2s15.2,6.8,15.2,15.2S153.6,136.3,145.2,136.3z"/>
		<circle class="st3" cx="145.2" cy="121" r="14.2"/>
	</g>
	<ellipse class="st10" cx="107.5" cy="123.6" rx="8" ry="8.8"/>
	<ellipse cx="107.5" cy="123.6" rx="4" ry="4.4"/>
	<ellipse class="st10" cx="148" cy="121.4" rx="8" ry="8.8"/>
	<ellipse cx="148" cy="121.4" rx="4" ry="4.4"/>
	<path class="st6" d="M134.7,163.6c-1.6-1.9-5-3.2-8.9-3.2c-3.9,0-7.3,1.3-8.9,3.2h-1.6c1-2.8,5.4-4.8,10.5-4.8
		c5.2,0,9.5,2.1,10.5,4.8H134.7z"/>
</g>
<g>
	<path class="st11" d="M40.5,63.5c-4.3,0-8.5-0.9-12.5-2.7c-4.8-2.2-8.7-5.6-11.4-10c-2.6-4.3-4-9.1-4-14.2c0-6,1.7-11.4,5.1-16
		c3-4.1,7.2-7.1,12.3-9c3.4-1.3,7.2-2,11.3-2c6.4,0,12.2,1.9,17,5.6c3.3,2.6,6,5.9,8,9.9c2,4,3,8.1,3,12.1c0,6-2,11.4-6,16.1
		c-3.3,4-7.7,6.9-13,8.6C47.1,63,43.8,63.5,40.5,63.5z M38,23.7c-1.3,0-2.2,0.5-3,1.7c-0.7,1-1,2.2-1,3.6c0,2.4,0.5,5.3,1.5,8.6
		c1,3.3,2.3,6.3,3.9,8.8c0.6,0.9,1.2,1.6,2.1,2.1c0.7,0.5,1.5,0.7,2.2,0.7c1.2,0,2.1-0.4,2.8-1.3c0.8-1,1.2-2.3,1.2-4
		c0-2.6-0.4-5.5-1.3-8.6c-0.9-3.1-2-5.7-3.3-7.9c-0.7-1.2-1.6-2.1-2.5-2.8C39.6,24,38.8,23.7,38,23.7z"/>
	<path class="st12" d="M41.4,11.6c6,0,11.3,1.7,15.8,5.2c3,2.4,5.5,5.4,7.4,9.2c1.9,3.8,2.8,7.5,2.8,11.3c0,5.5-1.8,10.5-5.5,14.8
		c-3.1,3.7-7.1,6.4-12.1,8c-3.1,1-6.2,1.5-9.2,1.5c-4.1,0-7.9-0.8-11.6-2.5c-4.5-2-8-5.1-10.5-9.2c-2.5-4-3.7-8.4-3.7-13.2
		c0-5.6,1.6-10.5,4.7-14.8c2.8-3.8,6.6-6.6,11.4-8.4C33.9,12.2,37.5,11.6,41.4,11.6z M38,21.7c-2,0-3.5,0.9-4.7,2.6
		C32.5,25.7,32,27.2,32,29c0,2.6,0.5,5.7,1.6,9.2c1.1,3.5,2.4,6.6,4.1,9.3c0.7,1.1,1.6,2.1,2.7,2.7c1.1,0.7,2.1,1,3.3,1
		c1.8,0,3.2-0.7,4.3-2s1.6-3.1,1.6-5.3c0-2.8-0.5-5.9-1.4-9.2c-0.9-3.3-2.1-6.1-3.6-8.4c-0.9-1.4-1.9-2.6-3.1-3.4
		C40.4,22.2,39.2,21.7,38,21.7z"/>
	<path class="st11" d="M96.5,63.5c-4.3,0-8.5-0.9-12.5-2.7c-4.8-2.2-8.7-5.6-11.4-10c-2.6-4.3-4-9.1-4-14.2c0-6,1.7-11.4,5.1-16
		c3-4.1,7.2-7.1,12.3-9c3.4-1.3,7.2-2,11.3-2c6.4,0,12.2,1.9,17,5.6c3.3,2.6,6,5.9,8,9.9c2,4,3,8.1,3,12.1c0,6-2,11.4-6,16.1
		c-3.3,4-7.7,6.9-13,8.6C103.1,63,99.8,63.5,96.5,63.5z M94,23.7c-1.3,0-2.2,0.5-3,1.7c-0.7,1-1,2.2-1,3.6c0,2.4,0.5,5.3,1.5,8.6
		c1,3.3,2.3,6.3,3.9,8.8c0.6,0.9,1.2,1.6,2.1,2.1c0.7,0.5,1.5,0.7,2.2,0.7c1.2,0,2.1-0.4,2.8-1.3c0.8-1,1.2-2.3,1.2-4
		c0-2.6-0.4-5.5-1.3-8.6c-0.9-3.1-2-5.7-3.3-7.9c-0.7-1.2-1.6-2.1-2.5-2.8C95.6,24,94.8,23.7,94,23.7z"/>
	<path class="st12" d="M97.4,11.6c6,0,11.3,1.7,15.8,5.2c3,2.4,5.5,5.4,7.4,9.2c1.9,3.8,2.8,7.5,2.8,11.3c0,5.5-1.8,10.5-5.5,14.8
		c-3.1,3.7-7.1,6.4-12.1,8c-3.1,1-6.2,1.5-9.2,1.5c-4.1,0-7.9-0.8-11.6-2.5c-4.5-2-8-5.1-10.5-9.2c-2.5-4-3.7-8.4-3.7-13.2
		c0-5.6,1.6-10.5,4.7-14.8c2.8-3.8,6.6-6.6,11.4-8.4C90,12.2,93.5,11.6,97.4,11.6z M94.1,21.7c-2,0-3.5,0.9-4.7,2.6
		c-0.9,1.3-1.3,2.9-1.3,4.7c0,2.6,0.5,5.7,1.6,9.2c1.1,3.5,2.4,6.6,4.1,9.3c0.7,1.1,1.6,2.1,2.7,2.7c1.1,0.7,2.1,1,3.3,1
		c1.8,0,3.2-0.7,4.3-2s1.6-3.1,1.6-5.3c0-2.8-0.5-5.9-1.4-9.2c-0.9-3.3-2.1-6.1-3.6-8.4c-0.9-1.4-1.9-2.6-3.1-3.4
		C96.5,22.2,95.3,21.7,94.1,21.7z"/>
	<path class="st11" d="M140.4,63.3c-6.4,0-15-0.7-15-6.5c0-1.6,0.6-2.5,1.1-3c0.4-0.4,1.1-0.9,3.1-2c0.4-0.2,0.4-0.3,0.4-0.4
		c0.1-0.3,0.2-1.6,0.3-7.4V25.5c0-2.5-0.2-3.4-0.3-3.6c-0.1-0.1-0.5-0.3-1.4-0.6c-4-1.2-4.6-3.7-4.6-5.1c0-1.7,0.8-3.2,2.3-4.1
		c1.2-0.8,2.8-1.2,4.9-1.2c0.6,0,2,0,4.2,0.1l2,0c5,0,6.4-0.1,6.7-0.1c0.4,0,2-0.1,7.1-0.6c1.4-0.1,2.7-0.2,3.9-0.2
		c4.1,0,7.9,0.9,11.2,2.6c5.9,3.1,8.9,8,8.9,14.7c0,5.4-2.1,9.8-6.2,13.1c-3.8,3-8.4,4.5-13.8,4.5c-1.3,0-2.9-0.1-4.8-0.3
		c-0.2,0-0.4,0-0.6,0l0.2,5c0,1.1,0.3,1.5,0.3,1.5c0,0,0.3,0.4,1.5,1c2.2,1.2,3.4,2.7,3.4,4.4c0,1.7-0.8,3.9-4.7,5.3
		C148.1,62.9,144.8,63.3,140.4,63.3z M150.2,33.1c0.3,0.1,0.7,0.1,1.2,0.1c1.1,0,1.9-0.3,2.6-0.8c1-0.8,1.6-2.4,1.6-4.7
		c0-2.4-0.6-4.1-1.9-5c-0.8-0.6-1.7-0.9-2.9-0.9c-0.3,0-0.5,0-0.6,0C150.2,21.7,150.2,33,150.2,33.1z"/>
	<path class="st12" d="M132.3,44V25.5c0-2.4-0.2-3.9-0.5-4.6c-0.3-0.6-1.2-1.2-2.7-1.6c-2.1-0.6-3.2-1.7-3.2-3.2
		c0-1.1,0.4-1.9,1.3-2.4c0.9-0.6,2.2-0.8,3.9-0.8c0.6,0,2,0,4.2,0.1h2.1c3.9,0,6.2-0.1,6.8-0.1s3.1-0.2,7.2-0.6
		c1.4-0.1,2.6-0.2,3.7-0.2c3.8,0,7.3,0.8,10.3,2.4c5.2,2.7,7.8,7,7.8,12.9c0,4.8-1.8,8.6-5.5,11.5c-3.4,2.7-7.6,4-12.5,4
		c-1.2,0-2.8-0.1-4.6-0.2c-1-0.1-1.6-0.1-1.8-0.1c-0.7,0-1,0.4-1,1.2V44l0.2,5.8c0,1.1,0.3,2,0.6,2.5c0.4,0.6,1.1,1.1,2.2,1.7
		c1.5,0.8,2.3,1.7,2.3,2.7c0,1.5-1.1,2.6-3.4,3.4s-5.4,1.2-9.6,1.2c-8.7,0-13-1.5-13-4.5c0-0.7,0.2-1.2,0.6-1.6
		c0.4-0.4,1.3-0.9,2.6-1.6c0.8-0.4,1.3-1.1,1.5-1.9C132.2,50.9,132.3,48.4,132.3,44z M148.2,21.1v12c0,0.9,0.2,1.5,0.6,1.7
		c0.7,0.3,1.5,0.5,2.6,0.5c1.5,0,2.8-0.4,3.9-1.3c1.5-1.2,2.3-3.3,2.3-6.3c0-3-0.9-5.3-2.7-6.6c-1.1-0.9-2.5-1.3-4.1-1.3
		C149.1,19.7,148.2,20.2,148.2,21.1z"/>
	<path class="st11" d="M196.8,63.5c-3.1,0-6.5-0.4-9.9-1.1c-3.6-0.8-6.2-1.7-7.9-2.8c-1.5-1-2.8-2.9-3.8-5.9c-1-2.7-1.5-5.4-1.5-8
		c0-1.6,0.4-2.9,1.1-3.9c1-1.2,2.3-1.9,3.8-1.9c1.5,0,2.8,0.7,4.1,2c0.4,0.4,1.1,1.4,3.7,5.2c0.6,1,1.8,1.8,3.3,2.5
		c1.6,0.7,3.3,1.1,5,1.1c1.4,0,2.4-0.2,3.2-0.7c0.6-0.4,0.6-0.6,0.6-0.8c0-0.2,0-0.4-0.5-0.9c-0.4-0.4-1.4-0.9-3.4-1.5
		c-3.5-1.1-6.1-2.1-8-3c-1.9-1-3.7-2.2-5.3-3.6c-4.1-3.7-6.2-7.9-6.2-12.7c0-2.4,0.6-4.7,1.6-6.9c1.1-2.2,2.6-4.1,4.6-5.7
		c4.3-3.6,9.5-5.4,15.7-5.4c2.6,0,5.9,0.6,10.1,1.9c0.2,0.1,0.4,0.1,0.5,0.1c0.2,0,0.6-0.2,1.5-0.5c0.6-0.2,1.2-0.3,1.9-0.3
		c2.3,0,4.4,1.5,6.6,4.6c2,2.8,3,5.6,3,8.3c0,1.8-0.6,3.4-1.7,4.6c-1.2,1.3-2.7,2-4.4,2c-1.3,0-2.5-0.3-3.4-0.9
		c-0.5-0.3-1.4-1-4.2-3.6c-2.4-2.3-4.8-3.4-6.9-3.4c-0.8,0-1.5,0.2-1.9,0.5c-0.3,0.3-0.4,0.5-0.4,0.9c0,1.4,2.5,2.3,3.9,2.7
		c5,1.5,8.2,2.5,9.6,3.2c6.7,3.3,10.1,8.2,10.1,14.6c0,5.6-2.3,10.3-6.9,13.8C209.9,61.8,204,63.5,196.8,63.5z"/>
	<path class="st12" d="M196.9,11.6c2.4,0,5.6,0.6,9.5,1.8c0.5,0.1,0.8,0.2,1.1,0.2c0.2,0,0.9-0.2,2.1-0.6c0.4-0.1,0.8-0.2,1.2-0.2
		c1.6,0,3.2,1.2,5,3.7c1.7,2.5,2.6,4.9,2.6,7.1c0,1.3-0.4,2.4-1.2,3.3c-0.8,0.9-1.7,1.4-2.9,1.4c-0.9,0-1.7-0.2-2.3-0.6
		c-0.6-0.4-1.9-1.5-3.9-3.3c-2.8-2.6-5.6-3.9-8.3-3.9c-1.3,0-2.4,0.3-3.1,0.9c-0.8,0.6-1.2,1.5-1.2,2.5c0,2,1.8,3.6,5.4,4.6
		c4.9,1.4,8,2.5,9.3,3.1c6,2.9,9,7.2,9,12.8c0,5-2,9.1-6.1,12.2c-4.2,3.2-9.6,4.9-16.3,4.9c-3,0-6.2-0.4-9.5-1.1
		c-3.3-0.7-5.7-1.6-7.2-2.5c-1.1-0.8-2.1-2.4-3-4.9c-0.9-2.5-1.4-5-1.4-7.4c0-1.1,0.2-2,0.7-2.6c0.6-0.8,1.3-1.1,2.2-1.1
		c0.9,0,1.7,0.5,2.6,1.4c0.5,0.5,1.7,2.2,3.5,5c0.9,1.3,2.2,2.4,4.1,3.3c1.9,0.9,3.8,1.3,5.9,1.3c1.7,0,3.1-0.3,4.2-1
		c1.1-0.6,1.6-1.5,1.6-2.5c0-0.9-0.4-1.7-1.3-2.4c-0.8-0.7-2.2-1.3-4.1-1.9c-3.4-1.1-5.9-2-7.7-2.9s-3.4-2-4.9-3.3
		c-3.7-3.3-5.6-7-5.6-11.2c0-2.1,0.5-4.1,1.4-6c1-2,2.3-3.7,4.1-5.1C186.5,13.3,191.3,11.6,196.9,11.6z"/>
	<path class="st11" d="M231.8,63.5c-2.6,0-4.8-0.9-6.6-2.6c-2-1.9-3-4.2-3-7c0-2.6,0.9-4.8,2.6-6.6c1.7-1.8,3.7-2.8,6.1-3
		c-1.6-0.4-3.1-2.1-5-5.6c-1.3-2.4-2.4-5-3.2-7.8c-0.8-2.8-1.2-5.4-1.2-7.7c0-3.1,0.7-5.7,2.1-7.8c1.8-2.8,4.6-4.3,8.1-4.3
		c2.6,0,4.9,1,6.7,2.9c2.3,2.3,3.5,5.6,3.5,9.8c0,2.6-0.4,5.4-1.3,8.3c-0.9,2.9-2.1,5.6-3.6,7.9c-1.7,2.7-3.1,4.1-4.6,4.5
		c2.4,0.1,4.4,1.1,6.1,2.9c1.8,1.9,2.7,4.1,2.7,6.7c0,2.6-1,4.9-2.8,6.8C236.7,62.6,234.5,63.5,231.8,63.5z"/>
	<path class="st12" d="M231.9,13.1c2.1,0,3.9,0.8,5.3,2.3c1.9,2,2.9,4.8,2.9,8.4c0,2.4-0.4,5-1.2,7.7c-0.8,2.8-1.9,5.2-3.3,7.4
		c-1.6,2.4-2.8,3.7-3.8,3.7c-0.9,0-2.3-1.6-4-4.7c-1.3-2.3-2.3-4.8-3-7.4c-0.7-2.6-1.1-5-1.1-7.2c0-2.7,0.6-4.9,1.8-6.7
		C226.9,14.2,229,13.1,231.9,13.1z M232,46.3c2,0,3.8,0.8,5.2,2.3c1.5,1.5,2.2,3.3,2.2,5.3c0,2.1-0.8,3.9-2.3,5.4s-3.3,2.3-5.4,2.3
		c-2,0-3.8-0.7-5.2-2.1c-1.6-1.5-2.4-3.4-2.4-5.6c0-2,0.7-3.8,2.1-5.2C227.8,47.1,229.8,46.3,232,46.3z"/>
</g>
<path class="st13" d="M113.7,389.2c0.2-1.1,0.3-2.3,0.3-3.5c0-14-13-25.4-29-25.4c-16,0-29,11.4-29,25.4c0,1.2,0.1,2.3,0.3,3.5
	H113.7z"/>
<path class="st14" d="M110.6,387.6c0.2-1,0.2-2,0.2-3c0-12.1-11.2-22-25-22c-13.8,0-25,9.8-25,22c0,1,0.1,2,0.2,3H110.6z"/>
<path class="st13" d="M84.7,382.4c-1.3,1.1-4.3,3.5-5.7,3.9c-5.6,1.8-23.2,0-23.2,0v3.7h28.9h0.6h28.9v-3.7c0,0-17.6,1.8-23.2,0
	c-1.4-0.4-4.4-2.8-5.7-3.9"/>
<path class="st13" d="M196.1,389.2c0.2-1.1,0.3-2.3,0.3-3.5c0-14-13-25.4-29-25.4c-16,0-29,11.4-29,25.4c0,1.2,0.1,2.3,0.3,3.5
	H196.1z"/>
<path class="st14" d="M193,387.6c0.2-1,0.2-2,0.2-3c0-12.1-11.2-22-25-22c-13.8,0-25,9.8-25,22c0,1,0.1,2,0.2,3H193z"/>
<path class="st13" d="M167,382.4c-1.3,1.1-4.3,3.5-5.7,3.9c-5.6,1.8-23.2,0-23.2,0v3.7H167h0.6h28.9v-3.7c0,0-17.6,1.8-23.2,0
	c-1.4-0.4-4.4-2.8-5.7-3.9"/>
<path class="st0" d="M89.1,279.9c0,0,15-10.3,18.7-20L89.1,279.9z"/>
<path class="st0" d="M162.5,279.2c0,0-15-10.3-18.7-20L162.5,279.2z"/>
<path class="st0" d="M125.8,293.6l1-25.2C126.8,268.4,129.8,279.5,125.8,293.6z"/>
<path class="st0" d="M126.8,294.6c0,0-3.3-18-2.3-24.3C124.5,270.2,121.5,278.2,126.8,294.6z"/>
<path class="st15" d="M91.8,268.5c0,0,15,4.6,25.7,4.6v-13.9c0,0-20.3,1.6-23.7-2L91.8,268.5z"/>
<path class="st15" d="M160.1,268.6c0,0-15,4.6-25.7,4.6v-13.7c0,0,20.3,1.6,23.7-2L160.1,268.6z"/>
<rect x="117.5" y="258.2" class="st13" width="18.7" height="15"/>
<rect x="119.6" y="260.6" class="st16" width="14.5" height="10.7"/>
<polygon class="st1" points="104.1,259.9 103.5,272.9 107.5,274 107.8,259.9 "/>
<polygon class="st1" points="149.6,260.2 150.3,273.2 146.3,274.3 146,260.2 "/>
<polygon class="st0" points="140.1,333.9 145.3,327.4 139.8,332.9 "/>
<polygon class="st0" points="115.1,321.9 110.1,322.2 116.1,320.4 "/>
<polygon class="st0" points="114.3,358.9 106.8,356.9 113.8,357.7 114.3,359.6 "/>
<polygon class="st0" points="138.1,359.7 145.5,359.1 138.3,359.1 "/>
<polygon class="st0" points="61.8,360.2 68,357.1 62.5,358.9 "/>
<g>
	<path class="st2" d="M125.6,190.6c2.6,0,5.3,0.6,8,1.7c2.8,1.2,5,2.8,6.6,4.9c1.5,2,2.3,4.2,2.3,6.5c0,2.7-1.1,5-3.3,6.9
		c-0.6,0.5-2.3,1.4-5.2,2.8c-1,0.5-1.8,1-2.3,1.5c-0.5,0.5-0.9,1.1-1.3,1.9c-0.8,1.7-1.5,2.8-2.1,3.3c-0.6,0.5-1.7,0.7-3.1,0.7
		c-1.4,0-2.5-0.4-3.3-1.2c-0.8-0.8-1.2-1.9-1.2-3.4c0-1.3,0.3-2.7,0.9-4.1c0.2-0.4,1.1-1.8,2.7-4.2c1.5-2.3,2.3-4.5,2.3-6.5
		c0-1-0.2-1.8-0.7-2.5s-1-1-1.7-1c-0.7,0-1.2,0.2-1.5,0.7c-0.3,0.5-0.5,1.3-0.7,2.6c-0.2,2.4-1,4.2-2.4,5.4
		c-1.3,1.3-3.1,1.9-5.2,1.9c-1.5,0-2.7-0.4-3.7-1.3c-1.1-1-1.6-2.2-1.6-3.7c0-2.3,0.8-4.5,2.3-6.6c1.6-2.1,3.6-3.7,6-4.8
		C119.9,191.2,122.6,190.6,125.6,190.6z M124.8,224.3c2,0,3.8,0.8,5.2,2.3c1.5,1.5,2.2,3.3,2.2,5.3c0,2.1-0.8,3.9-2.3,5.4
		c-1.5,1.5-3.3,2.3-5.4,2.3c-2,0-3.8-0.7-5.2-2.1c-1.6-1.5-2.4-3.4-2.4-5.6c0-2,0.7-3.8,2.1-5.2
		C120.6,225.1,122.5,224.3,124.8,224.3z"/>
</g>
<path class="st2" d="M86.1,238.9"/>
<path class="st2" d="M-68.5,220.9"/>
<polygon class="st2" points="74.3,208.7 67,187.1 75.8,207.2 "/>
<path class="st2" d="M182.5,190.9"/>
<path class="st2" d="M183.7,187.9l-6.8,20.9l-2.4-1.2C174.5,207.6,181.7,190.2,183.7,187.9z"/>
<rect x="120.5" y="114.6" class="st7" width="8.5" height="12.5"/>
<rect x="120.5" y="115.6" class="st8" width="8.5" height="10.5"/>
</svg>
