<?xml version="1.0" encoding="utf-8"?>
<!-- Generator: Adobe Illustrator 19.2.1, SVG Export Plug-In . SVG Version: 6.00 Build 0)  -->
<svg version="1.1" id="Layer_1" xmlns="http://www.w3.org/2000/svg" xmlns:xlink="http://www.w3.org/1999/xlink" x="0px" y="0px"
	 viewBox="0 0 760 694" style="enable-background:new 0 0 760 694;" xml:space="preserve">
<style type="text/css">
	.st0{fill:#119948;}
	.st1{fill:#DFE0E2;}
	.st2{fill:#C2C1C1;}
	.st3{fill:#F8DBB1;}
	.st4{fill:#ABD3D8;}
	.st5{fill:#CFECF7;}
	.st6{fill:#F9F9FA;}
	.st7{fill:#FFE5B5;}
	.st8{fill:#E9E9EA;}
	.st9{fill:#B8E3EA;}
	.st10{fill:none;stroke:#C2C1C1;stroke-width:1.0749;stroke-miterlimit:10;}
	.st11{opacity:0.41;fill:#444A54;}
	.st12{fill:#6897D0;}
	.st13{fill:#444A54;}
	.st14{fill:#FFFFFF;}
	.st15{opacity:0.41;}
	.st16{fill:#E8E879;}
	.st17{fill:#3264AF;}
	.st18{fill:none;stroke:#CCB89F;stroke-width:2;stroke-miterlimit:10;}
	.st19{fill:#CCB89F;}
	.st20{fill:#AF885D;}
	.st21{fill:#99C2C5;}
</style>
<g>
	<g>
		<path class="st0" d="M563.8,496.4l-9.1,0v0.5c0,1,0.3,2,1,2.8c0.7,0.8,1.5,1.3,2.3,1.3c0.9,0,2.1-0.3,3.8-0.8
			c1.6-0.5,3.5-1.3,5.6-2.3l0.9-0.4c0.6-0.3,1-0.5,1.2-0.6c1-0.5,1.6-0.8,1.8-0.8c0.3,0,0.4,0.2,0.4,0.7c0,0.5-0.1,1.1-0.3,1.8
			c-0.2,0.7-0.5,1.3-0.8,1.9c-0.3,0.6-0.7,1-1,1.3c-0.9,0.7-2.6,1.5-4.9,2.4c-2.3,0.9-4.6,1.5-7,2c-0.8,0.1-1.5,0.2-2.2,0.2
			c-2.3,0-4.4-0.4-6.2-1.2c-1.9-0.8-3.4-1.9-4.4-3.3c-1-1.4-1.6-2.9-1.6-4.6c0-1.4,0.3-2.9,1-4.6c0.7-1.7,1.6-3.4,2.9-5
			c1.2-1.7,2.6-3.2,4.2-4.6c1.3-1.2,2.9-2.3,4.5-3.3c1.7-1,3.3-1.7,4.9-2.3c1.6-0.5,3-0.8,4.3-0.8c2.1,0,3.8,0.5,5.3,1.5
			c1.5,1,2.2,2.2,2.2,3.6c0,0.6-0.1,1.3-0.4,2.1c-0.3,0.7-0.6,1.4-1.1,1.9c-0.5,0.6-1.2,1.2-2.1,1.8c-0.9,0.6-1.9,1.1-3.1,1.5
			c-1.4,0.5-2.6,0.7-3.5,0.7s-1.5-0.2-1.5-0.6c0-0.2,0.3-0.6,0.8-1.1c0.6-0.5,1.2-1.1,1.7-1.9c0.5-0.8,1-1.8,1.4-3
			c0.4-1.1,0.6-2,0.6-2.7c0-0.5-0.2-0.8-0.5-0.8c-0.6,0-1.6,0.5-3.1,1.6c-1.5,1.1-2.7,2.2-3.6,3.3c-0.8,1-1.5,2-2,3
			c-0.5,1-0.9,2.1-1.1,3h13.3c1.5,0,2.2,0.3,2.2,1c0,0.6-0.8,1.6-2.4,2.9C566.6,495.8,565.1,496.4,563.8,496.4z"/>
		<path class="st0" d="M582,483.3l0.7-1.5c-0.5,0-1,0.1-1.5,0.2c-0.3,0.1-0.8,0.1-1.4,0.1c-0.8,0-1.2-0.3-1.2-1
			c0-0.3,0.1-0.7,0.3-1.1c0.2-0.4,0.4-0.7,0.7-0.9c0.6-0.5,1.8-0.9,3.7-1.2c1.9-0.3,4-0.4,6.5-0.4c1.9,0,3.7,0.2,5.5,0.7
			c1.7,0.4,3.2,1.1,4.5,1.8c1.3,0.8,2.2,1.7,3,2.7c0.7,1,1.1,2.1,1.1,3.3c0,1.3-0.3,2.5-0.9,3.5c-0.6,1.1-1.5,2-2.6,2.9
			c-0.7,0.5-1.4,1-2.1,1.2c-0.6,0.3-1.6,0.6-2.8,0.9c0.3,0.5,0.6,0.9,0.8,1.2c0.2,0.3,0.6,0.6,1.2,1.1c1.5,1.2,3.6,2.2,6.4,3.1
			c0.1,0.1,0.3,0.1,0.5,0.2c-0.3,1.2-0.6,2.1-0.8,2.7c-0.3,0.6-0.7,1.2-1.2,1.8c-1,1.2-2.3,1.8-3.7,1.8c-0.8,0-1.8-0.3-3-0.8
			c-1.2-0.5-2.1-1.1-2.9-1.8c-0.6-0.6-1.1-1.2-1.6-1.9c-0.5-0.7-1-1.4-1.5-2.2c-0.5-0.8-0.9-1.6-1.3-2.4c-0.4-0.8-0.6-1.5-0.8-2.1
			c0-0.1,0-0.3,0-0.5c0-0.3,0.1-0.5,0.3-0.7c0.2-0.2,0.6-0.3,1.1-0.5c0.7-0.2,1.4-0.5,1.8-0.8c0.5-0.3,1.1-0.7,1.8-1.3
			c0.8-0.8,1.5-1.7,2-2.7c0.5-1,0.7-2.1,0.7-3.2c0-1.3-0.3-2.3-1-3c-0.7-0.7-1.8-1.2-3.3-1.5c-1.4,4.5-2.8,8.7-4.2,12.6l-0.5,1.6
			c-0.9,2.6-1.6,4.5-2.2,5.7c-0.6,1.2-1.2,2.1-1.8,2.6c-0.6,0.5-1.5,1-2.7,1.5c-1.2,0.5-2.2,0.7-2.9,0.7c-1.4,0-2-0.7-2-2
			c0-0.5,0.2-1.5,0.6-2.8c0.4-1.3,1-3,1.7-5.2c0.8-2.1,1.6-4.2,2.5-6.3C580.1,487.6,581,485.5,582,483.3z"/>
		<path class="st0" d="M613.9,483.3l0.7-1.5c-0.5,0-1,0.1-1.5,0.2c-0.3,0.1-0.8,0.1-1.4,0.1c-0.8,0-1.2-0.3-1.2-1
			c0-0.3,0.1-0.7,0.3-1.1c0.2-0.4,0.4-0.7,0.7-0.9c0.6-0.5,1.8-0.9,3.7-1.2c1.9-0.3,4-0.4,6.5-0.4c1.9,0,3.7,0.2,5.5,0.7
			c1.7,0.4,3.2,1.1,4.5,1.8c1.3,0.8,2.2,1.7,3,2.7c0.7,1,1.1,2.1,1.1,3.3c0,1.3-0.3,2.5-0.9,3.5c-0.6,1.1-1.5,2-2.6,2.9
			c-0.7,0.5-1.4,1-2.1,1.2c-0.6,0.3-1.6,0.6-2.8,0.9c0.3,0.5,0.6,0.9,0.8,1.2c0.2,0.3,0.6,0.6,1.2,1.1c1.5,1.2,3.6,2.2,6.4,3.1
			c0.1,0.1,0.3,0.1,0.5,0.2c-0.3,1.2-0.6,2.1-0.8,2.7c-0.3,0.6-0.7,1.2-1.2,1.8c-1,1.2-2.3,1.8-3.7,1.8c-0.8,0-1.8-0.3-3-0.8
			c-1.2-0.5-2.1-1.1-2.9-1.8c-0.6-0.6-1.1-1.2-1.6-1.9c-0.5-0.7-1-1.4-1.5-2.2c-0.5-0.8-0.9-1.6-1.3-2.4c-0.4-0.8-0.6-1.5-0.8-2.1
			c0-0.1,0-0.3,0-0.5c0-0.3,0.1-0.5,0.3-0.7c0.2-0.2,0.6-0.3,1.1-0.5c0.7-0.2,1.4-0.5,1.8-0.8c0.5-0.3,1.1-0.7,1.8-1.3
			c0.8-0.8,1.5-1.7,2-2.7c0.5-1,0.7-2.1,0.7-3.2c0-1.3-0.3-2.3-1-3c-0.7-0.7-1.8-1.2-3.3-1.5c-1.4,4.5-2.8,8.7-4.2,12.6l-0.5,1.6
			c-0.9,2.6-1.6,4.5-2.2,5.7c-0.6,1.2-1.2,2.1-1.8,2.6c-0.6,0.5-1.5,1-2.7,1.5c-1.2,0.5-2.2,0.7-2.9,0.7c-1.4,0-2-0.7-2-2
			c0-0.5,0.2-1.5,0.6-2.8c0.4-1.3,1-3,1.7-5.2c0.8-2.1,1.6-4.2,2.5-6.3C612,487.6,612.9,485.5,613.9,483.3z"/>
		<path class="st0" d="M653.5,482.9c-1.1,1-2,1.8-2.5,2.4c-0.5,0.6-1.1,1.5-1.7,2.7c-0.4,0.9-0.8,1.8-1,2.7
			c-0.2,0.8-0.4,1.9-0.4,3.3c0,1.9,0.2,3.4,0.6,4.7c0.4,1.2,1,2.2,1.8,2.8c0.8,0.6,1.8,1,2.9,1c0.9,0,1.9-0.3,2.9-0.9
			c1-0.6,1.9-1.4,2.6-2.3c0.8-0.9,1.4-2,1.9-3.2c0.5-1.2,0.7-2.3,0.7-3.4c0-2-0.8-4-2.3-6.1c-0.6-0.9-0.9-1.4-0.9-1.8
			c0-0.6,0.4-1.2,1.1-1.8c0.8-0.7,1.8-1.3,2.9-1.9c1.1-0.5,2-0.8,2.6-0.8c0.4,0,0.8,0.1,1.2,0.2c0.4,0.1,0.7,0.3,0.9,0.6
			c0.5,0.5,1,1.3,1.3,2.6c0.3,1.3,0.5,2.6,0.5,4c0,3.4-0.8,6.5-2.4,9.3c-1.6,2.8-3.8,5.1-6.5,6.8c-2.8,1.7-5.7,2.5-8.9,2.5
			c-1.8,0-3.7-0.3-5.5-0.9c-1.8-0.6-3.3-1.4-4.4-2.4c-1.9-1.6-2.9-3.8-2.9-6.4c0-1.5,0.3-3.2,1-4.9c0.7-1.7,1.7-3.4,2.9-5
			c1.2-1.6,2.6-3.1,4.2-4.5c1.6-1.4,3.3-2.4,5-3.2c1.5-0.7,3.2-1.3,5-1.7c1.8-0.4,3.3-0.6,4.7-0.6c1.9,0,2.8,0.2,2.8,0.7
			c0,0.2-0.2,0.5-0.6,0.9c-0.7,0.6-1.4,1-1.9,1.2c-0.5,0.2-1.4,0.5-2.7,0.8c-1.3,0.3-2.3,0.7-2.9,0.9
			C655.2,481.7,654.5,482.2,653.5,482.9z"/>
		<path class="st0" d="M678.2,483.3l0.7-1.5c-0.5,0-1,0.1-1.5,0.2c-0.3,0.1-0.8,0.1-1.4,0.1c-0.8,0-1.2-0.3-1.2-1
			c0-0.3,0.1-0.7,0.3-1.1c0.2-0.4,0.4-0.7,0.7-0.9c0.6-0.5,1.8-0.9,3.7-1.2c1.9-0.3,4-0.4,6.5-0.4c1.9,0,3.7,0.2,5.5,0.7
			c1.7,0.4,3.2,1.1,4.5,1.8c1.3,0.8,2.2,1.7,3,2.7c0.7,1,1.1,2.1,1.1,3.3c0,1.3-0.3,2.5-0.9,3.5c-0.6,1.1-1.5,2-2.6,2.9
			c-0.7,0.5-1.4,1-2.1,1.2c-0.6,0.3-1.6,0.6-2.8,0.9c0.3,0.5,0.6,0.9,0.8,1.2c0.2,0.3,0.6,0.6,1.2,1.1c1.5,1.2,3.6,2.2,6.4,3.1
			c0.1,0.1,0.3,0.1,0.5,0.2c-0.3,1.2-0.6,2.1-0.8,2.7c-0.3,0.6-0.7,1.2-1.2,1.8c-1,1.2-2.3,1.8-3.7,1.8c-0.8,0-1.8-0.3-3-0.8
			c-1.2-0.5-2.1-1.1-2.9-1.8c-0.6-0.6-1.1-1.2-1.6-1.9c-0.5-0.7-1-1.4-1.5-2.2c-0.5-0.8-0.9-1.6-1.3-2.4c-0.4-0.8-0.6-1.5-0.8-2.1
			c0-0.1,0-0.3,0-0.5c0-0.3,0.1-0.5,0.3-0.7c0.2-0.2,0.6-0.3,1.1-0.5c0.7-0.2,1.4-0.5,1.8-0.8c0.5-0.3,1.1-0.7,1.8-1.3
			c0.8-0.8,1.5-1.7,2-2.7c0.5-1,0.7-2.1,0.7-3.2c0-1.3-0.3-2.3-1-3c-0.7-0.7-1.8-1.2-3.3-1.5c-1.4,4.5-2.8,8.7-4.2,12.6l-0.5,1.6
			c-0.9,2.6-1.6,4.5-2.2,5.7c-0.6,1.2-1.2,2.1-1.8,2.6c-0.6,0.5-1.5,1-2.7,1.5c-1.2,0.5-2.2,0.7-2.9,0.7c-1.4,0-2-0.7-2-2
			c0-0.5,0.2-1.5,0.6-2.8c0.4-1.3,1-3,1.7-5.2c0.8-2.1,1.6-4.2,2.5-6.3C676.3,487.6,677.2,485.5,678.2,483.3z"/>
	</g>
	<g>
		<path class="st0" d="M555,555.2l-3.8,0.2c-5.4,0.3-8.8,0.5-10.1,0.5c-2.2,0-4-0.1-5.3-0.3c-1.3-0.2-2.1-0.6-2.5-1.1
			c-0.4-0.5-0.6-1.3-0.6-2.3c0-0.8,0.3-1.9,0.8-3.4c0.5-1.5,1.6-3.9,3.1-7.2c1.3-2.6,2.2-4.7,2.8-6.2c2-4.4,3.5-7.5,4.6-9.4
			c0.4-0.6,0.7-1.1,1-1.5c0.3-0.4,0.6-0.9,1-1.4c1.2-1.6,2.7-2.9,4.4-3.9c3.9-2.3,7.7-3.4,11.2-3.4c2.8,0,4.2,0.6,4.2,1.8
			c0,1.5-3.5,6.6-10.5,15.2c-3.4,4.2-6.4,8-8.9,11.6l12.9-0.6c0.9-2.6,2.1-4.8,3.7-6.5c1.5-1.7,3.5-2.9,5.8-3.8
			c2.3-0.8,5-1.2,8.1-1.2c1.6,0,2.7,0.2,3.3,0.5c0.6,0.3,1,0.8,1,1.5c0,0.6-0.3,1.7-0.8,3.3c-0.6,1.5-1.3,3.4-2.2,5.5l-0.4,0.9
			c0.7-0.1,1.2-0.1,1.5-0.1c0.2,0,0.5,0,0.9-0.1c0.3,0,0.6-0.1,0.9-0.1c0.2,0,0.5,0,0.8,0c0.8,0,1.3,0.2,1.3,0.6
			c0,0.1,0,0.2-0.1,0.3c-0.7,1.3-1.6,2.6-2.8,4.1s-2.3,2.6-3.2,3.5c-0.8,0.8-1.8,1.3-3,1.7c-0.8,2.3-2.3,6.6-4.5,13.1
			c-0.1,0.3-0.2,0.7-0.2,1.1c-0.1,0.5-0.2,0.8-0.2,1c-0.6,2.6-1.3,4.3-2.2,5c-2.9,1.5-5.5,2.6-7.7,3.3c-2.2,0.7-4.4,1.1-6.5,1.1
			c-1.5,0-2.9-0.3-4-0.9c-1.2-0.6-1.8-1.4-1.8-2.2c0-0.8,0.4-2.3,1.2-4.5c0.8-2.2,1.9-4.8,3.4-8C552.8,559.5,554,557,555,555.2z"/>
		<path class="st0" d="M631,517.1h0.6c2,0,3.9,0.8,5.7,2.3c1.8,1.5,3.3,3.6,4.3,6.2c1.1,2.6,1.6,5.3,1.6,8.1c0,2.9-0.5,6.1-1.4,9.6
			c-1,3.5-2.2,6.9-3.8,10.2c-1.6,3.3-3.5,6.4-5.8,9.5c-2.3,3.1-4.6,5.6-7,7.6c-5.7,5-11.6,7.5-17.6,7.5c-4,0-7.5-0.9-10.6-2.6
			c-3.1-1.7-5.4-4.2-7.1-7.3c-1.7-3.2-2.5-6.8-2.5-10.9c0-7.1,1.7-13.9,5.2-20.3c3.4-6.5,8-11.7,13.7-15.8c5.7-4,11.5-6,17.5-6
			C626.6,515.2,629.1,515.8,631,517.1z M626.1,519.3l1-0.5l-0.2-0.2c-2.4,0-4.8,1.1-7.3,3.1c-2.5,2-4.7,4.6-6.7,7.7
			c-2,3.2-3.6,6.7-4.9,10.7c-1.3,4-1.9,7.7-1.9,11.3c0,2.6,0.5,5.2,1.6,7.9c1,2.7,2.4,5,4,6.8c1.6,1.8,3.1,2.7,4.6,2.7
			c1.1,0,2.3-0.7,3.6-2c1.3-1.3,2.4-3.2,3.4-5.6c1.1-2.3,2-4.7,2.8-7.2c0.8-2.5,1.4-5,1.8-7.5c0.4-2.5,0.6-4.7,0.6-6.7
			c0-3.2-0.6-6.2-1.8-9.1c-1.2-2.9-2.8-5-4.7-6.4c-0.4-0.2-0.6-0.4-0.6-0.7C621.4,522.9,623,521.5,626.1,519.3z"/>
		<path class="st0" d="M670.5,555.2l-3.8,0.2c-5.4,0.3-8.8,0.5-10.1,0.5c-2.2,0-4-0.1-5.3-0.3c-1.3-0.2-2.1-0.6-2.5-1.1
			s-0.6-1.3-0.6-2.3c0-0.8,0.3-1.9,0.8-3.4c0.5-1.5,1.6-3.9,3.1-7.2c1.3-2.6,2.2-4.7,2.8-6.2c2-4.4,3.5-7.5,4.6-9.4
			c0.4-0.6,0.7-1.1,1-1.5c0.3-0.4,0.6-0.9,1-1.4c1.2-1.6,2.7-2.9,4.4-3.9c3.9-2.3,7.7-3.4,11.2-3.4c2.8,0,4.2,0.6,4.2,1.8
			c0,1.5-3.5,6.6-10.5,15.2c-3.4,4.2-6.4,8-8.9,11.6l12.9-0.6c0.9-2.6,2.1-4.8,3.7-6.5c1.5-1.7,3.5-2.9,5.8-3.8
			c2.3-0.8,5-1.2,8.1-1.2c1.6,0,2.7,0.2,3.3,0.5c0.6,0.3,1,0.8,1,1.5c0,0.6-0.3,1.7-0.8,3.3c-0.6,1.5-1.3,3.4-2.2,5.5l-0.4,0.9
			c0.7-0.1,1.2-0.1,1.5-0.1c0.2,0,0.5,0,0.9-0.1c0.3,0,0.6-0.1,0.9-0.1c0.2,0,0.5,0,0.8,0c0.8,0,1.3,0.2,1.3,0.6
			c0,0.1,0,0.2-0.1,0.3c-0.7,1.3-1.6,2.6-2.8,4.1c-1.2,1.5-2.3,2.6-3.2,3.5c-0.8,0.8-1.8,1.3-3,1.7c-0.8,2.3-2.3,6.6-4.5,13.1
			c-0.1,0.3-0.2,0.7-0.2,1.1c-0.1,0.5-0.2,0.8-0.2,1c-0.6,2.6-1.3,4.3-2.2,5c-2.9,1.5-5.5,2.6-7.7,3.3c-2.2,0.7-4.4,1.1-6.5,1.1
			c-1.5,0-2.9-0.3-4-0.9c-1.2-0.6-1.8-1.4-1.8-2.2c0-0.8,0.4-2.3,1.2-4.5c0.8-2.2,1.9-4.8,3.4-8C668.2,559.5,669.4,557,670.5,555.2z
			"/>
	</g>
</g>
<path class="st1" d="M526.2,271.7c-10.2,6.6-20.7-2.2-34.4-2.1c-13.7,0.1-17.4,0.2-27.5-6.4c-13.6-1.7-28.4-26.6-46-15
	c0,0-11,93.3-4.6,167c0.2,2.5,0.4,4.9,0.7,7.3C415,426,416,430,417,433c1.3,2.2,2.9,4.1,4.5,6c1.6,1.9,3.4,3.6,5.2,5.3
	C444,459,459,477,461,500c0.3,3.2,0.3,6.3-0.1,9.4c-0.4,3.8-1.6,4.2-1.8,8.1c-0.4,4.9,3,8.7-13.8,14.4c-8.5,2.9-7.7,9.4-11.2,10.9
	c-18.2,7.8-16,4.3-28,19.3c20-1,13-7.1,27.5-6.5c11.5,0.5,16.8-5.2,22.5-6.5c6.5-1.5,7-2,10.6-4.5c2-2.2,3.7-4.9,5.1-7.5
	s3.1-5.3,3.3-7.9c0.6-6.7,5.4-11.7,7.9-17.6c3.1-7.3,4.1-15.3,7.9-22.7c1.4-2.8,2.9-5.6,4.4-8.3c4.6-8.2,9.8-15.9,15.2-23.4
	c2.1-2.8,4.5-5.4,7-8c5-5.1,10.8-9.6,17.6-13.5c1.6-1.7,3.3-3.3,5.2-4.9c1.8-1.6,3.8-3.1,5.9-4.6c7-4,7-13,8.6-19.9
	c0.4-2.4,0.8-4.7,1.1-7.1c10.9-71.7,9-150.7,9-150.7C547.6,236.2,542.2,270.3,526.2,271.7z"/>
<g>
	<path class="st2" d="M506.3,362.1l-87.4,4l-3.8,5.6l0.1,34.8c35.6-8.7,72-16.1,91.4-18.7l0-2.1L506.3,362.1z"/>
	<polygon class="st2" points="506.5,364.7 506.7,384.3 519.4,382.3 567,396.8 567,368.4 	"/>
</g>
<path class="st1" d="M492,222h-22.7c0,0-28.2,17.4-41.4,17.4c-23.2,0-30.5,12.5-30.5,12.5c-14,31.3,22.7,35.1,22.7,35.1
	s34.9-0.4,71.9-0.6V222z"/>
<path class="st1" d="M492,222h23.1c0,0,28.5,17.4,41.8,17.4c23.5,0,30.8,12.5,30.8,12.5c14.1,31.3-23.1,35.1-23.1,35.1
	s-35.7-0.4-72.7-0.6V222z"/>
<path class="st1" d="M586.9,250.5c20.3,31.5,19.8,103.7,2.3,137.5h-22.4l-17.3-103.5L586.9,250.5z"/>
<rect x="474.3" y="190.8" class="st3" width="36.5" height="55.3"/>
<path class="st4" d="M470,237.7c15.9,9.3,30.8,11.1,45.8,0l-22.4,87.6L470,237.7z"/>
<polygon class="st5" points="493.4,246 467.4,220 451.7,227.9 478.3,267.8 "/>
<polygon class="st5" points="493.2,246 519.2,220 535,227.9 507.8,267.8 "/>
<polygon class="st2" points="451.4,231.7 430,239.9 449.5,281.2 473,287.1 460.5,300.8 492,339.8 492,326 476.7,268.8 "/>
<polygon class="st6" points="453.5,230.7 432.1,238.9 451.6,280.2 475.1,286.1 462.1,299.8 493,338.8 493,325 478.3,267.8 "/>
<polygon class="st2" points="534.6,231.7 556,239.9 536.5,281.2 513,287.1 525.5,300.8 494,339.8 494,326 509.3,268.8 "/>
<polygon class="st6" points="532.6,230.7 554,238.9 534.5,280.2 511,286.1 524,299.8 493,338.8 493,325 507.8,267.8 "/>
<path class="st7" d="M456.9,344c-12.2-5.1-26.7-6.1-42.2-5.2l0.3-3.5l7.3,9.8l-26.1-6.7l-0.4,4.2l31.6,5.5l-32-1.3l-0.4,4.2
	l28.3,4.5l-21.1,1.1l0.9,3.3l19.6,0.5l-10.3,2.2l4.3,3.2c6.5-6.6,24.7-5.6,43.5-4.6L456.9,344z"/>
<path class="st1" d="M398.6,250.7c-20.3,31.5-27.2,135.1,1.6,156.5l16.6-11.5l18.5-106.4L398.6,250.7z"/>
<path class="st8" d="M400.1,407.2c38.9-9.8,81.1-18.6,102.6-21.5l0-2.1l-0.3-23.5c-35.2-0.5-71.9-1.5-87.4,4
	C414.9,364.1,388.5,400.9,400.1,407.2z"/>
<polygon class="st9" points="456.9,344 474.3,344.5 478.7,365.9 460.2,361.3 "/>
<polygon class="st9" points="516,379.4 502.7,382.3 502.5,362.7 516,357 "/>
<path class="st10" d="M424.3,303.8c0,0-0.8,56.1-0.9,59.9"/>
<path class="st10" d="M563.2,303.8c0,0,1.1,56.1,1.1,59.9"/>
<path class="st7" d="M512.6,357.6l20.5-20.1c9.5-7.7,14.7-7.8,29.8-13.9l3,4.8c-13.1,5.6-24.7,10.1-24.7,16.8
	c3.8-6.9,14.1-10.5,26-15.9l1.8,5.4c-9.8,5.4-17.8,8.8-20.7,16.5c4.9-5.3,11.3-8.4,18.8-9.8l1.2,3.6c-6.3,2.1-13.1,6.5-20.3,12.5
	l13.9-5.2l-0.4,2.8l-41.4,20.6L512.6,357.6z"/>
<path class="st8" d="M569.3,395.2l-90.6-26.8l-5.3-28.9c37.1,0.4,59.4,9.8,99.3,16.1C572.7,355.6,615.4,390.4,569.3,395.2z"/>
<path class="st11" d="M481.6,304l-2.2-7.8l0.2,0l-7.5-27.1c-0.2-0.7-0.5-1.4-0.7-2.1l0-0.1c0,0,0,0,0,0c-1.9-4.6-5.8-7.6-12.9-6.8
	l-0.3-0.9c-0.6-2-2.7-3.2-4.7-2.6l-13.5,3.9c-2,0.6-3.2,2.7-2.6,4.7l0.2,0.7c-5.6,3.6-6.3,8.6-4.8,13.7l11.8,40.7
	c1.8,6.3,8.2,10,14.5,8.8c0.6,0.6,1.4,0.9,2.3,0.8l4.9-0.8c1.4-0.2,2.3-1.6,2.1-2.9l-0.1-0.7c-0.2-1.4-1.6-2.3-2.9-2.1l-4.9,0.8
	c-0.6,0.1-1.1,0.4-1.5,0.9c-7.4,1.3-9.2-2.6-11.4-9.3l-2.6-9l0,0l-7.2-25c-1.4-4.9-1.9-8.9,2.3-12.2c0.8,0.4,1.8,0.6,2.8,0.3
	l13.5-3.9c0.9-0.3,1.7-0.9,2.2-1.7c7.1-0.1,9.2,4.8,10.8,10.3l6.2,22.3l0,0l1.3,4.6c1.7,6.8,2.3,11.1-4.7,13.9
	c-0.5-0.2-1.2-0.2-1.7,0.1l-4.6,1.9c-1.3,0.5-1.9,2-1.4,3.3l0.3,0.7c0.5,1.3,2,1.9,3.3,1.4l4.6-1.9c0.8-0.3,1.4-1.1,1.5-1.9
	C480.1,316.8,483.4,310.3,481.6,304z"/>
<path class="st11" d="M532.7,322c-0.4-3.6-2.2-6.8-5.1-9c-0.9-0.7-1.8-1.3-2.8-1.7c-2.2-1-4.7-1.4-7.2-1.1c-3.6,0.4-6.8,2.2-9,5.1
	c-4.6,5.9-3.6,14.4,2.3,19c5.9,4.6,14.4,3.6,19-2.3C532.2,329.2,533.2,325.6,532.7,322z"/>
<ellipse transform="matrix(0.619 -0.7854 0.7854 0.619 -55.8858 533.1975)" class="st12" cx="521.6" cy="324.2" rx="12.7" ry="12.7"/>
<path class="st13" d="M526.9,312.3c1,0.4,1.9,1,2.8,1.7c2.8,2.2,4.6,5.5,5.1,9s-0.6,7.1-2.8,10c-4.6,5.9-13.2,6.9-19,2.3
	c-5.9-4.6-6.9-13.2-2.3-19l0,0c2.2-2.8,5.5-4.6,9-5.1C522.2,310.9,524.6,311.3,526.9,312.3z M516.4,335.5c2,0.9,4.1,1.2,6.3,1
	c3.2-0.4,6-2,8-4.5c2-2.5,2.9-5.6,2.5-8.8c-0.4-3.2-2-6-4.5-8c-2.5-2-5.6-2.9-8.8-2.5c-3.2,0.4-6,2-8,4.5l0,0
	c-4.1,5.2-3.2,12.7,2,16.8C514.7,334.6,515.5,335.1,516.4,335.5z"/>
<ellipse transform="matrix(0.619 -0.7854 0.7854 0.619 -56.0165 532.9288)" class="st14" cx="521.3" cy="324.2" rx="6.4" ry="6.4"/>
<g class="st15">
	<g>
		<path class="st13" d="M449.1,258c-5.6-18.1,5.6-34.6,22.6-40.2l1.3-3c-18,6.3-33.6,24.1-27.4,44.2
			C446.3,261.2,449.8,260.3,449.1,258L449.1,258z"/>
	</g>
</g>
<g class="st15">
	<g>
		<path class="st13" d="M511.5,216.4c16.8,0.4,15.6,30.6,15.4,43.7c-0.2,17-2.5,33.6-6.6,50.1c0.8,0,2.2,0.3,3.6,0.5
			c5.1-20.5,7.3-38.5,6.5-59.6c-0.5-13.9-0.8-35.7-17.4-37.2l1.6,1L511.5,216.4z"/>
	</g>
</g>
<path class="st8" d="M473.1,280l5.7,20.7c1.9,7.4,2.4,11.8-6.7,14.7c0.5,1.2,0.9,2.5,1.5,3.7l1.4-0.4c6.7-1.9,10.6-8.9,8.7-15.6
	l-10.3-37.1C473.4,265.9,471.2,273.4,473.1,280z"/>
<path class="st13" d="M467.7,316.6l4.6-1.9c1.3-0.5,2.8,0.1,3.3,1.4l0.3,0.7c0.5,1.3-0.1,2.8-1.4,3.3L470,322
	c-1.3,0.5-2.8-0.1-3.3-1.4l-0.3-0.7C465.8,318.6,466.4,317.1,467.7,316.6z"/>
<path class="st8" d="M448.1,265.6c-10.5,3.7-10.3,8.8-8.4,15.3l9.8,34c2.4,7.3,4.3,11.3,13.5,8.8c0.3,1.3,0.5,2.6,0.7,3.9l-1.4,0.4
	c-6.7,1.9-13.7-1.9-15.7-8.6l-11.8-40.7c-1.9-6.7,0.9-12.7,12.3-16L448.1,265.6z"/>
<path class="st13" d="M455.9,264.3c10.9-2.5,13.5,3.2,15.4,9.8l6.2,22.3l4.1-0.9l-7.5-27.1c-1.9-6.7-6.9-11.3-18.3-8L455.9,264.3z"
	/>
<path class="st13" d="M448.1,265.9c-10.5,3.7-10.3,8.8-8.4,15.3l7.2,25l-3.9,0.9l-8.1-28.1c-1.9-6.7-0.2-13.2,11.3-16.5L448.1,265.9
	z"/>
<path class="st13" d="M467.4,322.5l-4.9,0.8c-1.4,0.2-2.3,1.6-2.1,2.9l0.1,0.7c0.2,1.4,1.6,2.3,2.9,2.1l4.9-0.8
	c1.4-0.2,2.3-1.6,2.1-2.9l-0.1-0.7C470.1,323.2,468.7,322.2,467.4,322.5z"/>
<path class="st13" d="M442.1,259.9l13.5-3.9c2-0.6,4.1,0.6,4.7,2.6l0.6,2.2c0.6,2-0.6,4.1-2.6,4.7l-13.5,3.9c-2,0.6-4.1-0.6-4.7-2.6
	l-0.6-2.2C438.9,262.6,440.1,260.4,442.1,259.9z"/>
<g>
	<path class="st13" d="M450.1,257c-5.6-18.1,6.9-33.8,23.9-39.4v-3.8c-18,6.3-33.6,24.1-27.4,44.2
		C447.3,260.2,450.8,259.3,450.1,257L450.1,257z"/>
</g>
<path class="st7" d="M540.7,111.1c0,0,19.5,101.5-48.5,100.9c-61.4-0.5-56.2-81.9-56.2-81.9c-3.2-5.1-10.2-36.2,1.5-48.6
	c24.2-25.6,80-38.9,102.5,0.5C543.9,89.2,538.5,100.5,540.7,111.1z"/>
<ellipse transform="matrix(0.31 -0.9508 0.9508 0.31 237.2289 619.3321)" class="st7" cx="545.3" cy="146.2" rx="14.4" ry="9.1"/>
<ellipse transform="matrix(0.9508 -0.31 0.31 0.9508 -23.8902 142.1191)" class="st7" cx="435.3" cy="146.2" rx="9.1" ry="14.4"/>
<path class="st16" d="M503.9,128c-1.5-0.2-2.5-2.5-2.1-5.1l0,0c0.6-2.6,1.6-3.6,3.4-4.3c8.6-1.4,29.4,3.3,27.7,8.6l0,0
	C528,124.3,511,123.4,503.9,128z"/>
<path class="st16" d="M475.7,129.7c1.5-0.2,2.5-2.5,2.2-5.1l0,0c-0.6-2.6-1.6-3.6-3.4-4.3c-8.6-1.5-29.4,3.1-27.8,8.4l0,0
	C451.7,125.7,468.8,125,475.7,129.7z"/>
<ellipse transform="matrix(0.9996 -2.809821e-002 2.809821e-002 0.9996 -3.7461 14.5298)" class="st17" cx="515.1" cy="140.6" rx="6.1" ry="8.1"/>
<ellipse transform="matrix(0.9996 -2.809805e-002 2.809805e-002 0.9996 -3.8063 13.1027)" class="st17" cx="464.3" cy="142" rx="6.1" ry="8.1"/>
<ellipse transform="matrix(0.9996 -2.804769e-002 2.804769e-002 0.9996 -3.6657 14.5737)" class="st14" cx="517.7" cy="138" rx="0.9" ry="0.9"/>
<ellipse transform="matrix(0.9996 -2.810200e-002 2.810200e-002 0.9996 -3.7331 13.1629)" class="st14" cx="466.4" cy="139.4" rx="0.9" ry="0.9"/>
<path class="st18" d="M479.8,131.2c0,0,5.5,8.7,3.3,15.6"/>
<g>
	<path class="st19" d="M482.4,167.2c-4.6-2.8-7.1-5-7.2-6.8c-0.2-1.8,1.8-4.4,5.9-7.9c1.7-1.4,3.4,0,1.7,1.4c-2.1,1.8-4.4,4.3-5.6,6
		c1.5,2.5,4.2,3.8,6.7,5.2C486.7,166.9,485.2,168.9,482.4,167.2z"/>
</g>
<path class="st16" d="M505,137.1c0,0,8.7-11.9,19.5-1.5c0,0,0.2,0.8-0.3,0.6c-2.5-0.9-11.5-4.3-18.3,1
	C505.4,137.6,504.8,137.5,505,137.1z"/>
<path class="st16" d="M473,137.4c0,0-9.6-11.2-19.5,0c0,0-0.1,0.8,0.3,0.6c2.4-1.1,11.1-5.2,18.3-0.4
	C472.7,137.9,473.3,137.7,473,137.4z"/>
<g>
	<path class="st20" d="M475.4,176.7c0.5,0.5,12.5,10.9,25.8,0.9c3.3-2.5,5.9,1.8,2.5,4.4c-16.1,12.2-31-1-31.2-1.1
		C470.5,179,473.4,174.9,475.4,176.7z"/>
</g>
<path class="st16" d="M450.9,94.3c0,0-17.9-2.5-6.1-30.4c-0.3-8.4,1.5-14.5,9.4-20c-0.5,4.8,0.4,9.1,1.5,8.2
	c4.6-3.4,3.4-11.2,1.5-15.9c4,0.8,9,3.6,11.5,8.2c1.2-4.2-0.4-12.9-3.9-17c11.9,4,19.4,9.5,21.1,13.1c2.3-3.3,1.3-8-1.9-10.8
	c10.6,2.8,15.6,3.6,24.5,8.8c8,4.9,27.3,14.3,22.5,37.1c-0.5,2.3-0.9,0.1-1.9,2.6c0,0,5.7,11.2-6.8,15.4
	C508.9,98,450.6,98.2,450.9,94.3z"/>
<path class="st16" d="M538.3,150.4c0,0,1.5-15.2-2.8-40.9c0,0-39.8-29.7-16.8-26.5c2,0.3-2.7-20.2,4.7-23.6
	c12.3-5.7,22.1,11.9,22.1,11.9c3.7,6.5,6.6,12.7,7.1,18.4C552.5,89.7,559.3,128.3,538.3,150.4z"/>
<path class="st16" d="M440.7,150.4c0,0-1.5-15.2,2.8-40.9c0,0,39.8-29.7,16.8-26.5c-2,0.3,2.7-20.2-4.7-23.6
	c-12.3-5.7-22.1,11.9-22.1,11.9c-3.7,6.5-6.6,12.7-7.1,18.4C426.5,89.7,419.7,128.3,440.7,150.4z"/>
<g>
	<path class="st13" d="M510.8,216.3c19,0.8,18.2,30.6,18,43.7c-0.2,17-2.5,33.8-6.6,50.3c-0.6,2.3,2.9,3.2,3.5,1
		c5.1-20.5,7.4-41.5,6.6-62.6c-0.5-13.9-3.3-35.2-21.5-36l0.1,3.4L510.8,216.3z"/>
</g>
<polygon class="st21" points="493.2,246 478.3,267.8 480.8,277.8 493.2,256.5 505.2,277.8 507.8,267.8 "/>
<path class="st10" d="M493,389.9c0,0-0.7,6-1.7,14.7c-0.3,2.9-0.7,6.1-1.1,9.4c-0.7,5.7-1.4,11.5-2.1,17.3c-0.3,2.9-0.7,5.8-1,8.7
	c0,6.8-2.3,13-4.4,19.4c-0.7,2.1-1.4,4.3-1.9,6.5"/>
<path class="st0" d="M401.3,558.2c-5.3-0.2-11.3,0.8-16,1.7c-2.7,0.6-5.3,1.3-7.7,2c-7.2,2.2-12.4,4.7-12.4,4.7
	c-51.5,26-75.5,12.5-75.5,12.5l0,0l-0.5-5.5c0,0-11.5-12.5-30.5-14c3-2.5,6-7,5.5-13c-1-10-9-15.5-11-17c0,0-10.5,5-12,17
	c-1,6,2.5,10.5,5.5,13c-6.5,0.5-20,4-33,22c0,0,0.5,0.5,1,0.5c-1-0.5-1.5-0.5-1.5-0.5c-7.5,2.5-13.5,11-15.5,13.5c0-5-1-21-4.5-25
	c-4.5-4.5-18-5.5-24.5-6c-8-1-24-1.5-31,2c-9.5,4.5-11,11-11,15.5c0.5,6,8.5,16.5,13.5,20c6.5,5,32,9,32,9s-7.5,4-8,6
	c-2.5,8.5,4,12,8,14c5.5,2,14-4.5,14-4.5l3.5-4.5l4.5,0.5c3.5,12.5,15,20,27,24.5c-4.5,3.5-7.5,7-7.5,7c-2.5,17,30.5,18,37.5,18
	s40-0.5,37.5-18c0,0-3-3-7.5-7c42-14,72-49.5,72-49.5c6.3-7.8,14-13.6,20.2-17.6c2.1-1.3,4-2.4,5.6-3.3c8.1-3.2,15.1-7.2,23-10.6
	C406.1,563.7,401.3,558.2,401.3,558.2z M158.2,590.6c-14-10-4.5-14-4.5-14c24.5-7,33,28,33,28l0.5,1.5
	C184.7,607.6,172.7,600.6,158.2,590.6z"/>
<path class="st0" d="M33.7,87.8c-3.9-3.9-6.6-7.4-8.2-10.5c-1.6-3.1-2.4-6.3-2.4-9.8c0-5.3,1.6-10.2,4.8-14.8s7.5-8.3,12.8-11
	c5.4-2.7,11.1-4.1,17.3-4.1c7,0,12.3,1.5,16.1,4.3c3.8,2.9,5.6,7,5.6,12.3c0,2.5-0.7,5.2-2,7.9s-3.2,5.3-5.6,7.6
	c-1.6,1.6-3.1,2.9-4.6,3.7c-1.4,0.8-2.6,1.3-3.5,1.3c-1.2,0-1.8-0.9-1.8-2.7c0,0,0.1-0.7,0.3-2.1c0.3-2.1,0.4-4,0.4-5.7
	c0-2.4-0.4-4.7-1.1-7.1c-0.7-2.4-1.6-4.4-2.7-6c-1.1-1.6-2.2-2.4-3.2-2.4c-0.5,0-1.1,0.4-1.7,1.2c-1.2,1.3-2.2,2.8-2.9,4.7
	c-0.7,1.9-1,3.6-1,5.3c0,2,0.3,3.9,0.9,5.7c0.6,1.7,1.6,3.5,3.1,5.3c1.5,1.8,3.4,3.8,5.8,6c3.8,3.4,6.7,6.4,8.8,9
	c2.1,2.6,3.6,5.2,4.5,7.7c1,2.6,1.4,5.3,1.4,8.3c0,5.3-1.4,10.3-4.1,15.2c-2.8,4.9-6.4,8.8-11,11.9c-4.6,3-9.3,4.5-14.1,4.5
	c-4.6,0-9.1-1-13.5-3c-4.4-2-8.5-4.8-12.4-8.6c-4-3.9-6-7.4-6-10.5c0-1.9,0.9-3.7,2.7-5.4c1.8-1.8,4-3.4,6.7-4.6
	c2.7-1.3,4.9-1.9,6.7-1.9c1,0,1.9,0.3,2.7,0.8c0.7,0.5,1.4,1.4,1.9,2.7c0.6,1.2,1.1,2.9,1.7,5.1c0.9,3,1.7,5.3,2.4,6.8
	c0.7,1.5,1.7,2.9,3.1,4.4c1.4,1.4,2.8,2,4.3,2c1.8,0,3.2-0.7,4.3-2.1c1-1.4,1.6-3.4,1.6-5.9c0-3.9-1.4-7.8-4.1-11.7
	c-0.8-1.3-1.7-2.5-2.7-3.5c-1-1-3.1-3-6.4-5.9C37.5,91.3,35.9,89.9,33.7,87.8z"/>
<path class="st0" d="M130.3,63c6.7,0,10.1,0.8,10.1,2.4c0,1.8-1.5,2.8-4.6,2.9c-3.7,0.2-7.1,1.3-10.3,3.1c-3.2,1.9-6,4.4-8.5,7.6
	c-2.5,3.2-4.4,6.8-5.8,10.9c-1.4,4-2.1,8.3-2.1,12.8c0,4.9,1.2,8.9,3.5,11.9c2.3,3,5.3,4.5,9,4.5c3.4,0,6.5-1.8,9-5.3
	s3.9-7.7,3.9-12.4c0-3.8-0.8-7.5-2.4-10.8c-1.6-3.4-4-6.2-7-8.5c-1.3-1-2-1.8-2-2.2c0-0.6,0.9-1.6,2.8-2.9c2.1-1.4,4.4-2.6,7-3.5
	c2.6-1,4.8-1.4,6.5-1.4c2,0,4,0.5,5.8,1.6c1.8,1.1,3.5,2.6,4.9,4.6c1.4,2,2.5,4.2,3.2,6.8c0.7,2.6,1.1,5.3,1.1,8.2
	c0,4.8-0.9,9.5-2.7,14.2c-1.8,4.7-4.2,8.5-7.1,11.4c-3.8,3.7-8.4,6.7-13.8,9c-5.4,2.3-10.5,3.5-15.3,3.5c-4.7,0-9.4-0.8-14-2.4
	c-4.6-1.6-8.3-3.8-11-6.5c-3.6-3.6-5.4-8.8-5.4-15.4c0-5.3,1.3-10.5,3.9-15.8c2.6-5.3,6.1-10,10.5-14.3c4.4-4.3,9.3-7.7,14.6-10.1
	C119.5,64.3,124.9,63,130.3,63z"/>
<path class="st0" d="M181.3,110.7l-0.3,1.4c0,0.8-0.1,1.9-0.3,3.3c-0.2,2.2-0.4,4-0.7,5.4c-0.3,1.4-0.8,2.6-1.4,3.5
	c-0.6,0.9-1.5,1.9-2.6,3c-3.3,3-6.6,4.6-10,4.6c-2.7,0-4.7-1-6-3c-1.3-2-1.9-5.2-1.9-9.6c0-3.5,0.4-7.9,1.2-13.1
	c0.8-5.2,1.8-9.8,2.9-14l0.5-1.8c0-0.3,0.1-0.8,0.4-1.7c1.7-6.2,3.2-10.7,4.6-13.7c1.4-3,3.1-5.4,5.1-7.2c1.8-1.4,3.8-2.1,6-2.1
	c3.2,0,5.2,1.9,5.8,5.8c0.6-0.5,1.2-1.2,1.8-1.9c1.3-1.6,2.3-2.6,3.1-3.2c0.7-0.5,1.6-0.8,2.5-0.8c3.9,0,5.8,3.9,5.8,11.6
	c0,4.2-0.5,8.3-1.4,12.2c-0.9,3.9-2.1,7.2-3.4,9.6c-1.4,2.5-2.8,3.7-4.1,3.7c-1.5,0-2.2-2.8-2.2-8.5c0-3-0.2-5.3-0.5-7s-0.9-3-1.6-4
	c-1.4,2.5-2.2,8.3-2.7,17.4C181.7,106,181.5,109.3,181.3,110.7z"/>
<path class="st0" d="M226.4,110.7l-0.3,1.4c0,0.8-0.1,1.9-0.3,3.3c-0.2,2.2-0.4,4-0.7,5.4c-0.3,1.4-0.8,2.6-1.4,3.5
	c-0.6,0.9-1.5,1.9-2.6,3c-3.3,3-6.6,4.6-10,4.6c-2.7,0-4.7-1-6-3c-1.3-2-1.9-5.2-1.9-9.6c0-3.5,0.4-7.9,1.2-13.1
	c0.8-5.2,1.8-9.8,2.9-14l0.5-1.8c0-0.3,0.1-0.8,0.4-1.7c1.7-6.2,3.2-10.7,4.6-13.7c1.4-3,3.1-5.4,5.1-7.2c1.8-1.4,3.8-2.1,6-2.1
	c3.2,0,5.2,1.9,5.8,5.8c0.6-0.5,1.2-1.2,1.8-1.9c1.3-1.6,2.3-2.6,3.1-3.2c0.7-0.5,1.6-0.8,2.5-0.8c3.9,0,5.8,3.9,5.8,11.6
	c0,4.2-0.5,8.3-1.4,12.2c-0.9,3.9-2.1,7.2-3.4,9.6c-1.4,2.5-2.8,3.7-4.1,3.7c-1.5,0-2.2-2.8-2.2-8.5c0-3-0.2-5.3-0.5-7s-0.9-3-1.6-4
	c-1.4,2.5-2.2,8.3-2.7,17.4C226.8,106,226.6,109.3,226.4,110.7z"/>
<path class="st0" d="M292.1,84.8l0.9-2.9c1.2-4.5,3-8,5.4-10.5c1.5-1.5,3.3-2.8,5.3-3.8c2-1,3.8-1.5,5.4-1.5c3,0,4.5,1.3,4.5,3.8
	c0,1.3-0.4,3.2-1.2,5.9c-0.8,2.7-1.9,5.7-3.2,9.1c-1.3,3.4-2.9,7.1-4.7,11.1c-1.8,4-3.8,8.2-6,12.4c-3.9,8.1-7.9,14.9-12,20.5
	c-2.9,4-5.9,7.5-8.8,10.6c-3,3.1-6.1,5.8-9.4,8.3c-3.3,2.4-6.4,4.3-9.3,5.5c-2.9,1.2-5.6,1.9-8.1,1.9c-2,0-3.1-0.9-3.1-2.7
	c0-1.4,0.3-3.1,1-5c0.6-1.9,1.5-3.8,2.7-5.5c1.2-1.6,2.8-3.1,4.6-4.3c2.4-1.6,5.8-3.5,10.4-5.6c-2.7-4.6-4.8-8.2-6.2-10.9
	c-1.4-2.7-3-6-4.6-10c-3.7-8.8-5.6-16.9-5.6-24.1c0-5.5,0.7-9.9,2-13.4c1.2-2.9,3.5-5,6.7-6.3c2.6-1,5-1.6,7.1-1.6
	c2.9,0,4.9,1.1,5.9,3.4c1,2.2,1.9,7.5,2.7,15.7c0.8,8.8,2.1,17.6,4,26.2c0.3,1.3,0.7,3.1,1.1,5.4h0.3c1.2-2.7,2.6-5.9,4-9.7
	c0.5-1.1,2-5.1,4.8-12C290.1,90.7,291.3,87.4,292.1,84.8z"/>
<path class="st0" d="M307.8,143.5c-2.7,0-4-1.5-4-4.6c0-3.2,1.1-7.4,3.2-12.6c2.1-5.2,4.4-9.1,6.8-12c1.1-1.3,2.4-2.2,3.8-2.8
	c1.4-0.5,3.3-0.8,5.7-0.8c4.2,0,6.3,1.2,6.3,3.7v0.3c-0.3,3-1.2,6-2.8,9.2c-1.8,3.9-3.4,7-4.7,9.1c-1.3,2.1-2.6,3.9-4,5.2
	c-1.5,1.6-3.2,2.9-5,3.8C311.2,143,309.4,143.5,307.8,143.5z"/>
<path class="st0" d="M68.7,197l-0.4,1.8c-0.1,0.6-0.3,1.1-0.4,1.6c-0.1,0.4-0.2,0.8-0.3,1.1c-0.1,0.3-0.1,0.6-0.2,1
	c-2,8.5-3.6,13.8-4.8,15.9c-0.6,0.9-1.4,1.8-2.5,2.5c-3.5,2.3-6.2,3.4-8.2,3.4c-1.4,0-2.5-0.5-3.5-1.5s-1.4-2.3-1.4-3.7
	c0-2.7,1.2-7.7,3.6-15c0.7-2.3,1.4-4.3,2-6c0.6-1.7,1.3-3.6,2.2-5.8c0.8-2.2,1.8-4.4,2.9-6.9c1.1-2.4,1.8-4.1,2.3-5.1
	c-3.6,0.5-7.1,0.8-10.5,0.8c-3.4,0-5.1-1.2-5.1-3.6c0-1.5,1.1-3.4,3.3-5.8c1.5-1.5,2.9-2.6,4.1-3.2c1.3-0.6,2.8-0.9,4.6-0.9
	c1.2,0,2.7,0,4.8,0.1c2,0.1,4.8,0.2,8.4,0.5l1.2,0.1l1.1,0.1c3,0.2,5,0.4,6,0.6c1,0.2,1.8,0.6,2.5,1.3c0.6,0.6,0.8,1.4,0.8,2.2
	c0,0.9-0.2,1.8-0.5,2.7c-0.3,0.9-0.8,1.6-1.3,2c-0.7,0.8-2.6,1.4-5.8,1.9c-0.3,0-0.6,0-0.9,0.1l-0.8,0.2c0.7,0.7,1,1.4,1,2.2
	c0,0.8-0.4,2.4-1.2,5c-0.2,0.6-0.8,2.7-1.8,6.3l-0.6,2.5L68.7,197z"/>
<path class="st0" d="M106.5,173.6v-0.7c0-1-0.1-1.5-0.4-1.5c-0.4,0-0.9,0.6-1.7,1.7c-0.8,1.1-1.4,2.3-2,3.7c-1.5,3.4-2.9,7.1-4,10.9
	s-2.1,7.7-2.7,11.5c-0.2,1.5-0.5,3.1-0.7,4.8l0.2,0.2c2.8-2.8,4.8-4.9,6.2-6c1.4-1.2,3.1-2.5,5.3-4.1c2.7-1.9,4.9-2.8,6.7-2.8
	c1.1,0,2,0.4,2.6,1.2c0.6,0.8,0.9,1.9,0.9,3.4c0,0.8-0.2,2-0.5,3.6c-0.6,3.3-0.9,6-0.9,8.2c0,1,0.1,2.1,0.2,3.2
	c0.1,0.9,0.6,2.7,1.4,5.3c0.6,2,1,3.2,1,3.4c0,0.4-0.5,0.9-1.4,1.4c-2.9,1.9-5.6,2.9-8.1,2.9c-2,0-3.6-1-4.9-2.9
	c-1.3-2-1.9-4.5-1.9-7.7c0-1.2,0.1-2.7,0.4-4.5l-0.2-0.2c-3.9,4-6.5,6.8-7.9,8.2c-4.9,4.7-8.7,7.1-11.3,7.1c-1.2,0-2.2-0.8-3-2.4
	c-0.8-1.6-1.2-3.7-1.2-6.3c0-5.6,1.7-12.7,5.2-21.3c1.4-3.4,2.8-6.6,4.4-9.7c1.5-3.1,3-5.7,4.4-8c1-1.6,2.1-2.9,3.2-4.1
	c1.1-1.2,2.2-2.2,3.4-2.9c1.1-0.8,2.3-1.4,3.5-1.8c1.2-0.4,2.4-0.6,3.6-0.6c3,0,5.4,0.9,7.2,2.7s2.8,4.2,2.8,7c0,2-0.6,4.1-1.7,6.3
	c-1.1,2.2-2.7,4.4-4.8,6.4c-1.3,1.3-2.8,2.4-4.4,3.4c-1.6,1-2.9,1.5-3.8,1.5c-0.3,0-0.5-0.1-0.7-0.3c-0.2-0.2-0.3-0.4-0.3-0.7
	c0-0.4,0.4-1.3,1.1-2.7c0.8-1.5,1.6-3.4,2.4-5.6c0.8-2.2,1.4-4.3,1.8-6.2C106.3,176.6,106.5,174.9,106.5,173.6z"/>
<path class="st0" d="M135.4,212.5c0.3,1.7,1.4,2.5,3.2,2.5c2.1,0,4.8-1.2,8.1-3.6c1.9-1.4,3.2-2.1,3.9-2.1c0.8,0,1.6,0.2,2.3,0.7
	c0.7,0.4,1.1,0.9,1.1,1.4c0,0.5-0.4,1.1-1.2,1.9c-1.5,1.5-3.1,2.9-5,4.3c-1.9,1.4-3.7,2.6-5.5,3.5c-1.8,0.9-3.5,1.7-5.3,2.2
	c-1.8,0.5-3.3,0.8-4.7,0.8c-3.4,0-6.2-1-8.3-3c-2.1-2-3.1-4.6-3.1-7.9c0-2.5,0.5-5.3,1.6-8.5c1.1-3.2,2.6-6.1,4.4-8.9
	c2.2-3.2,4.9-5.9,8-8.1c3.9-2.6,7.7-3.9,11.3-3.9c2.6,0,4.6,0.8,6.1,2.5c1.5,1.6,2.2,3.9,2.2,6.8c0,2.2-0.6,4.6-1.8,7
	c-1.2,2.4-2.9,4.8-5.2,7c-1.9,1.9-3.7,3.3-5.5,4.4c-1.8,1-3.4,1.6-4.7,1.6C136.6,212.9,136,212.8,135.4,212.5z M135.3,211.1
	c1.3-0.9,2.2-1.7,2.9-2.6c1.5-1.8,2.6-3.8,3.4-6.2c0.6-1.5,1.1-3.2,1.5-5.1c0.4-1.9,0.5-3.6,0.5-5.3c0-1.5-0.3-2.3-1-2.3
	c-0.9,0-2.2,1.9-4.1,5.8c-1.1,2.3-2,4.7-2.6,7c-0.7,2.3-1,4.3-1,6C135,209.2,135.1,210.1,135.3,211.1z"/>
<path class="st0" d="M193.1,176.6l0.6-1.4c-0.9,0-1.7,0.1-2.3,0.2c-0.6,0.2-1.4,0.4-2.2,0.7c-1,0.4-1.8,0.6-2.2,0.6
	c-0.5,0-0.9-0.2-1.2-0.5c-0.3-0.4-0.5-0.8-0.5-1.3c0-1.1,0.4-2.2,1.3-3.3c0.9-1.1,1.9-2,3.2-2.4c1.7-0.7,3.8-1.2,6.4-1.6
	c2.6-0.4,5.2-0.6,7.8-0.6c2.9,0,5.5,0.2,7.8,0.6c2.3,0.4,4.3,1.1,6.1,2c1.8,0.9,3.4,2,4.7,3.4c1.4,1.4,2.4,2.9,3.1,4.7
	c0.7,1.8,1.1,3.7,1.1,5.7c0,1.8-0.4,3.9-1.1,6.1c-0.7,2.3-1.7,4.5-3,6.6c-1.3,2.2-2.7,4-4.3,5.5c-1.8,1.7-4.1,3.2-6.8,4.4
	c-2.7,1.2-5.2,1.8-7.5,1.8c-1,0-1.8-0.2-2.5-0.5c-0.7-0.3-1.1-0.8-1.1-1.3c0-0.8,0.3-1.5,0.9-2.2c0.6-0.7,1.6-1.5,3.2-2.5
	c1.3-0.8,2.6-1.7,3.7-2.8c1.4-1.5,2.4-3.1,3-4.8c0.6-1.7,1-3.7,1-6.1c0-2.3-0.4-4.2-1.2-5.7c-0.8-1.6-2-3-3.8-4.2l-5.7,18.4l-1,3.2
	c-0.4,1.3-1,3.4-1.8,6.5c-1.4,5.3-2.6,9-3.8,11.1c-0.5,0.9-1.2,1.8-2,2.7c-1.3,1.2-3,2.2-5,3c-2,0.9-3.8,1.3-5.2,1.3
	c-1,0-1.7-0.3-2.3-0.8c-0.6-0.6-0.8-1.4-0.8-2.4c0-1.1,0.3-2.8,0.8-5c0.6-2.2,1.7-6.1,3.5-11.7l0.7-2.3l0.8-2.5L193.1,176.6z"/>
<path class="st0" d="M251.6,212v0.2l-0.2-0.2c-2.6,3-4.9,5.5-7.1,7.4c-2.1,1.9-4.1,3.4-5.9,4.3c-1.8,1-3.5,1.4-5,1.4
	c-3.1,0-5.6-1-7.7-3.1c-2-2.1-3-4.7-3-7.9c0-2,0.5-4.3,1.5-6.9c1-2.7,2.4-5.3,4.1-7.9c2.9-4.2,6.5-7.7,10.9-10.7
	c4.5-3,8.9-4.5,13.1-4.5c3.5,0,6.4,0.7,8.7,2.2s3.4,3.3,3.4,5.5c0,1.6-0.6,3.4-1.7,5.2c1.5,0,2.4,0.2,2.8,0.5
	c0.4,0.3,0.6,1.1,0.6,2.2c0-0.1-0.1,0.5-0.2,1.7c-0.2,2.7-0.2,5.3-0.2,7.7c0,1.2,0,2.2,0,2.8c0,0.6,0.1,1.4,0.2,2.2
	c0.1,0.8,0.2,1.5,0.2,2c0.2,1.3,0.6,2.6,1.1,3.8c-1.7,1.6-3.2,2.8-4.8,3.6c-1.5,0.8-3.1,1.1-4.6,1.1c-4.2,0-6.4-3.6-6.4-10.7
	C251.5,213.1,251.5,212.4,251.6,212z M254.1,202.5l-0.8,0.2c-2,0.6-3.4,0.8-4.3,0.8c-1.1,0-1.6-0.3-1.6-0.8c0-0.2,0.2-0.7,0.7-1.5
	c1.5-2.3,2.3-4.5,2.3-6.6c0-1.2-0.2-2.3-0.6-3.2c-0.4-1-0.9-1.5-1.4-1.5c-0.4,0-1.1,0.5-2,1.4c-2.6,2.8-4.6,5.6-6.1,8.6
	c-1.5,2.9-2.3,5.5-2.3,7.8c0,1.5,0.3,2.8,0.9,3.8c0.6,1,1.4,1.5,2.3,1.5c0.8,0,2.3-0.9,4.5-2.6c2.2-1.7,4.7-4,7.4-6.8l1.1-0.9
	L254.1,202.5z"/>
<path class="st0" d="M297.6,212.7l-1.1,0.8c-0.1,0.1-0.2,0.2-0.4,0.3c-0.2,0.1-0.4,0.3-0.7,0.5c-4.8,3.7-8.5,6.3-11.2,7.9
	c-2.7,1.5-5.1,2.3-7.1,2.3c-2.2,0-4-0.8-5.4-2.4c-1.4-1.6-2-3.8-2-6.5c0-3.4,1-6.9,2.9-10.5c1.9-3.6,4.4-7,7.6-10
	c3.1-3,6.6-5.5,10.3-7.3c3.7-1.8,7.4-2.8,10.9-2.8c3.4,0,6.1,0.6,7.9,1.8c1.8,1.2,2.7,3,2.7,5.3c0,2-0.8,4.4-2.4,7.4
	c1.1,0.1,2,0.4,2.5,1.1c0.5,0.6,0.8,1.6,0.8,2.9c0,2.2-0.4,5.1-1.3,9c-0.9,3.8-2,7.4-3.2,10.7c-1.5,4.1-3.8,7.7-6.6,10.7
	c-2.2,2.3-4.9,4.3-8.1,5.9c-3.2,1.6-6,2.5-8.3,2.5c-1.9,0-3.7-0.8-5.2-2.3c-1.5-1.5-2.3-3.3-2.3-5.2c0-1.3,0.3-2.6,1-4
	c0.7-1.4,1.5-2.6,2.6-3.6c2.2-2.2,5.3-4.2,9.5-6.2c0.8-0.4,1.4-0.6,1.8-0.6c0.2,0,0.3,0.1,0.5,0.2c0.1,0.1,0.2,0.3,0.2,0.5
	c0,0.2-0.2,0.6-0.5,1.1c-0.8,1.4-1.6,3.2-2.2,5.4c-0.6,2.2-1,4.1-1,5.7c0,1.9,0.3,2.8,0.9,2.8c0.3,0,0.7-0.3,1.1-1
	c0.5-0.7,0.9-1.4,1.2-2.3c2.3-6,3.8-11.5,4.5-16.5C297.4,215.3,297.5,214.1,297.6,212.7z M299.7,203.8v0.2l-0.2-0.2
	c-0.2,0.1-0.4,0.1-0.7,0.1c-0.5,0.1-1.2,0.1-2,0.1c-1.4,0-2.1-0.3-2.1-0.8c0-0.3,0.2-0.6,0.5-1c1-1.2,2-2.7,2.7-4.7
	c0.8-1.9,1.2-3.7,1.3-5.3c0-0.4,0-0.7,0.1-1c0-0.1,0-0.2,0.1-0.3c0-0.1,0-0.2,0-0.2c0-0.4-0.3-0.6-0.8-0.6c-1.1,0-2.7,1.2-5,3.5
	c-1.4,1.5-2.7,3.3-4,5.3c-1.2,2-2.2,4.1-2.9,6.1c-0.7,2-1,3.9-1,5.5c0,1.6,0.4,2.4,1.2,2.4c0.8,0,2.7-1.3,5.8-3.9
	C294.2,207.9,296.5,206.1,299.7,203.8z"/>
<path class="st0" d="M330.9,212.5c0.3,1.7,1.4,2.5,3.2,2.5c2.1,0,4.8-1.2,8.1-3.6c1.9-1.4,3.2-2.1,3.9-2.1c0.8,0,1.6,0.2,2.3,0.7
	c0.7,0.4,1.1,0.9,1.1,1.4c0,0.5-0.4,1.1-1.2,1.9c-1.5,1.5-3.1,2.9-5,4.3c-1.9,1.4-3.7,2.6-5.5,3.5c-1.8,0.9-3.5,1.7-5.3,2.2
	c-1.8,0.5-3.3,0.8-4.7,0.8c-3.4,0-6.2-1-8.3-3c-2.1-2-3.1-4.6-3.1-7.9c0-2.5,0.5-5.3,1.6-8.5c1.1-3.2,2.6-6.1,4.4-8.9
	c2.2-3.2,4.9-5.9,8-8.1c3.9-2.6,7.7-3.9,11.3-3.9c2.6,0,4.6,0.8,6.1,2.5c1.5,1.6,2.2,3.9,2.2,6.8c0,2.2-0.6,4.6-1.8,7
	c-1.2,2.4-2.9,4.8-5.2,7c-1.9,1.9-3.7,3.3-5.5,4.4c-1.8,1-3.4,1.6-4.7,1.6C332.2,212.9,331.5,212.8,330.9,212.5z M330.8,211.1
	c1.3-0.9,2.2-1.7,2.9-2.6c1.5-1.8,2.6-3.8,3.4-6.2c0.6-1.5,1.1-3.2,1.5-5.1c0.4-1.9,0.5-3.6,0.5-5.3c0-1.5-0.3-2.3-1-2.3
	c-0.9,0-2.2,1.9-4.1,5.8c-1.1,2.3-2,4.7-2.6,7c-0.7,2.3-1,4.3-1,6C330.5,209.2,330.6,210.1,330.8,211.1z"/>
<path class="st0" d="M97.8,283.3h-0.1c-1.7,3.3-3.4,6.2-5.2,9c-2.2,3.2-4,5.6-5.4,7.1c-0.8,0.8-1.8,1.4-3,2
	c-1.2,0.6-2.2,0.9-3.1,0.9c-0.2,0-0.5-0.1-0.9-0.2c-0.4-0.1-0.6-0.3-0.9-0.6c-1.1-1.2-2-4.3-2.7-9.2c-0.7-4.9-1-10.9-1-18
	c0-5.7,0.4-9.5,1.3-11.4c0.3-0.8,0.8-1.5,1.5-2c0.7-0.5,1.6-1,2.9-1.5c1.1-0.5,2.3-0.8,3.5-1.1c1.2-0.3,2.2-0.5,2.9-0.5
	c0.6,0,1.1,0.2,1.4,0.5c0.4,0.3,0.5,0.7,0.5,1.3c0,0.2,0,0.5-0.1,0.9c-0.5,2-0.9,4.9-1.3,8.5c-0.3,2.4-0.5,4.4-0.6,5.9
	c-0.1,1.5-0.2,3.6-0.3,6.2c-0.1,2.6-0.1,5.2-0.2,7.8l0.1,0.1c1-1.3,2-2.8,3.1-4.5c0.4-0.7,0.8-1.3,1.1-1.8c0.4-0.6,0.8-1.2,1.2-2
	c1-1.8,1.9-3.5,2.7-5.2c0.4-0.8,0.7-1.6,1-2.4c3.3-7.3,5.6-11.5,6.9-12.6c0.6-0.5,1.7-1.1,3.3-1.5c1.6-0.5,3.1-0.7,4.4-0.7
	c0.8,0,1.5,0.2,2.1,0.6c0.5,0.4,0.8,0.9,0.8,1.5c0,0.6-0.3,1.7-0.9,3.4c-1.1,3.3-2,6.9-2.8,10.7c-0.7,3.9-1.1,7.4-1.1,10.4
	c0,6.2,1.2,9.3,3.6,9.3c0.7,0,1.4-0.5,2.1-1.6c0.7-1,1.3-2.4,1.8-4c0.5-1.6,0.9-3.5,1.3-5.6c0.3-2.1,0.5-4.3,0.5-6.6
	c0-1.3-0.1-2.9-0.2-4.8c0-0.5-0.1-1-0.1-1.4c0-2.4,1.3-4.8,3.9-7.2c1.3-1.2,2.2-1.9,2.9-1.9c1.5,0,2.2,2.8,2.2,8.5
	c0,4-0.4,7.9-1.3,11.5c-1.1,4.4-2.6,8.2-4.5,11.2c-1,1.7-2.2,3.3-3.6,4.8c-1.4,1.5-2.7,2.8-4.1,3.7c-1.7,1.2-3.5,1.8-5.5,1.8
	c-3.6,0-6.2-1.4-7.9-4.2c-1.7-2.8-2.6-7.1-2.6-12.8V283.3z"/>
<path class="st0" d="M152.1,293.1v0.1l-0.1-0.1c-2,2.4-3.9,4.3-5.6,5.8c-1.7,1.5-3.2,2.6-4.7,3.4c-1.4,0.8-2.7,1.1-3.9,1.1
	c-2.4,0-4.4-0.8-6-2.4c-1.6-1.6-2.4-3.7-2.4-6.2c0-1.5,0.4-3.4,1.2-5.5c0.8-2.1,1.9-4.2,3.2-6.2c2.3-3.3,5.1-6.1,8.6-8.4
	c3.6-2.4,7-3.6,10.3-3.6c2.8,0,5.1,0.6,6.9,1.7c1.8,1.1,2.7,2.6,2.7,4.3c0,1.3-0.4,2.6-1.3,4.1c1.2,0,1.9,0.1,2.2,0.4
	c0.3,0.2,0.5,0.8,0.5,1.7c0-0.1-0.1,0.4-0.2,1.3c-0.1,2.1-0.2,4.2-0.2,6c0,1,0,1.7,0,2.2c0,0.5,0.1,1.1,0.1,1.7
	c0.1,0.7,0.1,1.2,0.2,1.6c0.2,1,0.5,2,0.8,3c-1.3,1.3-2.6,2.2-3.7,2.8c-1.2,0.6-2.4,0.9-3.6,0.9c-3.3,0-5-2.8-5-8.4
	C152,293.9,152,293.4,152.1,293.1z M154,285.6l-0.6,0.2c-1.6,0.4-2.7,0.7-3.4,0.7c-0.8,0-1.3-0.2-1.3-0.7c0-0.2,0.2-0.6,0.5-1.2
	c1.2-1.8,1.8-3.6,1.8-5.2c0-0.9-0.2-1.8-0.5-2.6c-0.3-0.8-0.7-1.2-1.1-1.2c-0.3,0-0.9,0.4-1.6,1.1c-2,2.2-3.6,4.4-4.8,6.7
	c-1.2,2.3-1.8,4.4-1.8,6.2c0,1.2,0.2,2.2,0.7,3s1.1,1.2,1.8,1.2c0.6,0,1.8-0.7,3.5-2c1.7-1.3,3.7-3.1,5.8-5.3l0.9-0.7L154,285.6z"/>
<path class="st0" d="M176.3,303.9c1.3-0.1,2.4-0.7,3.5-1.9c1.1-1.2,1.6-2.5,1.6-3.9c0-1-0.3-1.7-0.9-2.3c-0.7-0.7-2.2-1.3-4.5-2
	c-3.5-1-5.7-2.1-6.7-3.4c-1-1-1.5-2.2-1.5-3.6c0-2.5,0.9-5,2.7-7.5c1.8-2.5,4.1-4.5,7-6.1c2.8-1.6,5.7-2.4,8.5-2.4
	c1.4,0,2.7,0.3,3.9,1c1.2,0.7,2.2,1.5,2.9,2.6c0.7,1.1,1.1,2.2,1.1,3.5c0,1.2-0.4,2.5-1.2,3.8c-0.8,1.3-1.8,2.4-2.9,3.3
	c-1.2,0.9-2.3,1.3-3.4,1.3c-0.6,0-1.1-0.1-1.6-0.4c-0.4-0.3-0.7-0.5-0.7-0.8c0-0.3,0.1-0.7,0.3-1.3c0.5-1.9,0.7-3.5,0.7-4.9
	c0-1.4-0.4-2.7-1.2-3.9c-1.1,0.7-1.8,1.3-2.1,1.8c-0.8,1-1.5,2-1.9,3.3c-0.5,1.2-0.7,2.4-0.7,3.5c0,0.8,0.2,1.4,0.5,1.9
	c0.4,0.5,0.9,0.9,1.8,1.2s2,0.7,3.7,1.1c2.8,0.7,4.7,1.3,5.8,2c0.3,0.2,0.7,0.5,1.2,0.9c0.8,0.9,1.2,2,1.2,3.5c0,1.5-0.5,3-1.4,4.5
	c-0.9,1.5-2.4,3.1-4.3,4.7c-2.1,1.8-4.2,3-6.2,3.8c-2.1,0.8-4.3,1.1-6.8,1.1c-2.4,0-4.3-0.5-5.7-1.4c-1.4-1-2.1-2.3-2.1-3.9
	c0-1.2,0.5-2.4,1.4-3.6c0.9-1.2,2-2.2,3.4-2.9c1.4-0.8,2.7-1.1,4-1.1c1,0,1.5,0.2,1.5,0.7c0,0.2-0.1,0.6-0.4,1.1
	c-0.8,1.5-1.3,2.9-1.3,4.2C175.3,302.2,175.6,303.1,176.3,303.9z"/>
<path class="st0" d="M220.4,287.1l2.2-6.2l3.1-7.9c1.1-2.8,2-5.1,2.9-6.7c0.6-1.2,0.9-2,0.9-2.5c0-0.6-0.5-1.3-1.5-2.1
	c-0.7-0.5-1-0.9-1-1.2c0-0.4,0.7-0.9,2-1.4c1.2-0.5,2.5-0.9,4-1.3c1.5-0.4,2.7-0.5,3.6-0.5c1.8,0,3.2,0.5,4.1,1.5
	c1.1,1.1,2.4,4.5,4,10.3c0.6,2.3,1.4,4.6,2.2,6.8c0.8,2.2,1.4,3.8,2,4.7c0.2,0.3,0.6,1,1.2,2c0.7-2.3,1.6-5.3,2.5-9
	c1.4-5.8,2.7-9.8,3.9-11.8c0.4-0.7,0.8-1.2,1.3-1.7c0.9-0.8,1.8-1.5,2.9-1.9c1-0.4,2.1-0.7,3.1-0.7c0.6,0,1.1,0.2,1.3,0.5
	c0.2,0.3,0.4,0.9,0.4,1.8c0,0.6,0,1.1-0.1,1.4c-0.2,1.1-0.6,2.6-1.1,4.4c-0.5,1.8-1.3,4.1-2.3,6.9c-1,2.8-2.2,6.2-3.7,10.2l-0.5,1.2
	c-0.2,0.5-0.3,0.9-0.5,1.3c-2.6,7.4-4.6,12.1-6,14.3c-0.3,0.5-0.6,0.9-1,1.3c-0.7,0.7-1.3,1-2,1c-1.7,0-3.5-1.8-5.4-5.3
	c-3.5-6.4-6.3-12.9-8.3-19.7c-0.4-1.3-0.7-2.4-0.9-3.6h-0.1l-3.9,12.4c0,0.2-0.1,0.5-0.3,0.8c-0.1,0.3-0.2,0.7-0.3,1
	c-0.1,0.2-0.2,0.5-0.3,0.8c-0.1,0.3-0.2,0.5-0.3,0.7c-0.7,2.2-1.3,3.8-1.8,4.9c-0.5,1.1-0.9,2-1.4,2.7c-0.4,0.7-1,1.4-1.7,2.2
	c-1.1,1-2.3,1.8-3.7,2.4s-2.7,0.9-4,0.9c-1.1,0-1.7-0.4-1.7-1.3c0-0.7,0.5-1.8,1.5-3.5c1.1-1.9,2.4-4.5,3.8-7.8
	C219.6,288.9,219.9,288.1,220.4,287.1z"/>
<path class="st0" d="M289.4,269.8c3.2,0,4.9,0.4,4.9,1.1c0,0.9-0.7,1.3-2.2,1.4c-1.8,0.1-3.4,0.6-4.9,1.5c-1.5,0.9-2.9,2.1-4.1,3.6
	c-1.2,1.5-2.1,3.3-2.8,5.2c-0.7,1.9-1,4-1,6.1c0,2.4,0.6,4.3,1.7,5.7c1.1,1.4,2.6,2.2,4.3,2.2c1.6,0,3.1-0.8,4.3-2.5
	c1.2-1.7,1.9-3.7,1.9-5.9c0-1.8-0.4-3.6-1.2-5.2c-0.8-1.6-1.9-3-3.4-4.1c-0.6-0.5-0.9-0.9-0.9-1.1c0-0.3,0.4-0.8,1.3-1.4
	c1-0.7,2.1-1.2,3.4-1.7s2.3-0.7,3.1-0.7c1,0,1.9,0.3,2.8,0.8c0.9,0.5,1.7,1.2,2.3,2.2c0.7,0.9,1.2,2,1.5,3.3
	c0.4,1.2,0.5,2.5,0.5,3.9c0,2.3-0.4,4.6-1.3,6.8c-0.9,2.2-2,4.1-3.4,5.5c-1.8,1.8-4,3.2-6.6,4.3c-2.6,1.1-5,1.7-7.3,1.7
	c-2.3,0-4.5-0.4-6.7-1.2c-2.2-0.8-4-1.8-5.3-3.1c-1.7-1.7-2.6-4.2-2.6-7.4c0-2.5,0.6-5,1.9-7.6c1.2-2.5,2.9-4.8,5-6.9
	c2.1-2.1,4.5-3.7,7-4.9C284.2,270.4,286.8,269.8,289.4,269.8z"/>
<path class="st0" d="M310,271l0.1-0.4c1.4-4,2.7-6.9,3.7-8.5c0.5-0.8,1.2-1.5,2.1-2.1c1.7-1.1,3.3-1.6,4.7-1.6c0.9,0,1.5,0.2,2,0.6
	c0.5,0.4,0.7,1,0.7,1.7c0,0.5-0.3,1.5-1,3.1c-1.1,2.6-1.9,5-2.5,7.2c0.4,0,0.7,0.1,1.1,0.2c1.3,0.2,2.2,0.4,2.6,0.7s0.6,0.7,0.6,1.4
	c0,1.2-0.3,2.2-0.9,3.2c-0.6,1-1.4,1.7-2.3,2.2c-0.7,0.3-1.9,0.5-3.5,0.7c-0.3,0.8-0.6,2-0.9,3.5c-0.2,1.3-0.4,3.1-0.6,5.4
	c-0.1,0.8-0.2,1.6-0.2,2.4c0,3.4,1.7,5.1,5,5.1h0.2h0.1c0.4,0,0.6,0.1,0.6,0.2c0,0.3-0.4,0.9-1.1,1.8c-0.7,0.8-1.6,1.6-2.4,2.2
	c-1,0.7-2,1.2-3.1,1.6c-1.1,0.4-2.2,0.6-3.1,0.6c-2.3,0-4.1-0.8-5.6-2.3c-1.4-1.5-2.1-3.6-2.1-6.1c0-1.1,0.2-2.5,0.6-4.3
	c0.4-1.8,1-4.1,1.8-7.1c0.1-0.5,0.3-1.1,0.4-1.6c0.2-0.6,0.2-0.9,0.3-1c-0.9,0-1.5-0.2-1.9-0.6c-0.4-0.3-0.6-0.9-0.6-1.7
	c0-1.4,0.5-2.7,1.6-3.9C307.4,272.1,308.6,271.3,310,271z"/>
<path class="st0" d="M124.5,338.8l0.6-1.4c-1.8,0-3.1-0.2-3.8-0.5c-0.7-0.3-1.1-0.9-1.1-1.6c0-0.6,0.3-1.3,0.8-1.9
	c0.6-0.8,1.2-1.5,1.8-2.1c0.7-0.6,1.3-1.1,1.8-1.4c0.5-0.2,1.1-0.3,2-0.3c2,0,4.3,0.1,6.9,0.3c0.6,0,1.1,0.1,1.5,0.1
	c0.4,0,0.8,0,1.3,0.1c1.1,0,1.8,0,2.1,0.1c0.3,0,0.6,0.1,1,0.3c0.3,0.1,0.5,0.2,0.7,0.4c0.4,0.4,0.6,1.1,0.6,2
	c0,1.7-0.6,2.8-1.8,3.2c-0.7,0.3-1.3,0.5-1.8,0.6c-0.6,0.1-1.5,0.2-3,0.3l-2.7,8.7c1.3,0,2.3,0,3-0.1c0.5,0,1.2,0,2.2,0
	c1.2,0,2,0.1,2.5,0.4c0.5,0.3,0.7,0.7,0.7,1.3c0,0.5-0.2,1.2-0.7,2.1c-0.5,0.9-1,1.7-1.5,2.2c-0.3,0.3-0.6,0.4-1.1,0.5
	c-0.5,0.1-1.3,0.1-2.4,0.1h-0.3h-0.6c-1.1,0-2.3,0-3.7,0.1c-0.7,2.5-1.4,4.4-2,5.7c-0.6,1.3-1.4,2.4-2.3,3.3c-0.6,0.6-1.3,1.1-2,1.5
	s-1.3,0.5-1.9,0.5c-1,0-1.9-0.3-2.6-0.9s-1.1-1.2-1.1-2c0-0.9,0.8-3.8,2.3-8.5C121.4,347.2,123,342.8,124.5,338.8z"/>
<path class="st0" d="M156.6,338.4c2.4,0,3.6,0.3,3.6,0.9c0,0.7-0.5,1-1.6,1c-1.3,0.1-2.5,0.5-3.7,1.1c-1.1,0.7-2.2,1.6-3,2.7
	c-0.9,1.2-1.6,2.5-2.1,3.9c-0.5,1.4-0.7,3-0.7,4.6c0,1.8,0.4,3.2,1.2,4.3c0.8,1.1,1.9,1.6,3.2,1.6c1.2,0,2.3-0.6,3.2-1.9
	s1.4-2.8,1.4-4.4c0-1.4-0.3-2.7-0.9-3.9c-0.6-1.2-1.4-2.2-2.5-3.1c-0.5-0.4-0.7-0.6-0.7-0.8c0-0.2,0.3-0.6,1-1
	c0.7-0.5,1.6-0.9,2.5-1.3s1.7-0.5,2.3-0.5c0.7,0,1.4,0.2,2.1,0.6c0.7,0.4,1.2,0.9,1.7,1.6c0.5,0.7,0.9,1.5,1.2,2.4
	c0.3,0.9,0.4,1.9,0.4,2.9c0,1.7-0.3,3.4-1,5.1c-0.7,1.7-1.5,3-2.6,4.1c-1.4,1.3-3,2.4-4.9,3.2c-1.9,0.8-3.8,1.3-5.5,1.3
	c-1.7,0-3.4-0.3-5-0.9c-1.7-0.6-3-1.4-4-2.3c-1.3-1.3-2-3.1-2-5.5c0-1.9,0.5-3.8,1.4-5.7c0.9-1.9,2.2-3.6,3.8-5.1s3.3-2.8,5.2-3.6
	C152.7,338.8,154.6,338.4,156.6,338.4z"/>
<path class="st0" d="M182.5,355.3l-0.4,0.3c-0.1,0-0.6,0.5-1.6,1.2c-2,1.5-3.6,2.7-4.8,3.6c-1.3,0.9-2.3,1.5-3.2,2
	c-0.8,0.4-1.5,0.6-2.1,0.6c-0.9,0-1.6-0.4-2.1-1.1c-0.5-0.7-0.8-1.7-0.8-2.8c0-2,0.3-4.2,0.9-6.8c0.6-2.6,1.4-5.2,2.4-7.7
	c1.1-2.8,2.4-4.5,4-5.1c0.6-0.2,1.2-0.4,2-0.4c1,0,1.9,0.3,2.5,1c0.6,0.6,1,1.5,1,2.5c0,0.7-0.1,1.5-0.4,2.3
	c-0.2,0.8-0.6,1.7-1.2,2.9l-0.3,0.7c-1.4,3-2.1,4.8-2.1,5.4c0,0.4,0.1,0.6,0.4,0.6c0.2,0,0.6-0.2,1-0.5s1-1,1.8-1.9
	c0.5-0.6,1.2-1.4,2.2-2.3l0.9-0.9l0.8-0.8c1.6-1.6,3-2.8,4-3.5c1-0.7,1.9-1.1,2.6-1.1c1.3,0,2,1.1,2,3.4c0,0.5-0.1,1.3-0.2,2.5
	c-0.2,2.3-0.3,4.3-0.3,6c0,0.3,0,0.6,0,0.9c0,0.3,0,0.6,0,1c0.1,1.1,0.2,1.9,0.2,2.5l0.2,1.4c0,0.5-0.4,0.9-1.3,1.3
	c-0.9,0.4-1.9,0.6-3.1,0.6c-1.1,0-2-0.2-2.7-0.6s-1.3-1-1.7-1.8c-0.4-0.8-0.6-1.8-0.6-3c0-0.1,0-0.4,0-0.8
	C182.4,356.4,182.5,355.9,182.5,355.3z"/>
<path class="st0" d="M204.4,350.1l1.5-1.7c1.5-1.6,2.7-2.9,3.5-3.7c0.9-0.8,1.7-1.4,2.3-1.7c0.7-0.4,1.4-0.5,2.1-0.5
	c1.2,0,2,0.3,2.4,0.9c0.5,0.6,0.7,1.7,0.7,3.2c0,0.6-0.1,1.6-0.2,2.8c-0.2,1.6-0.3,3.2-0.3,4.6c0,1.6,0.1,2.9,0.2,4
	c0.1,0.6,0.3,1.2,0.5,1.9c0.2,0.6,0.2,1,0.2,1.2c0,0.3-0.1,0.5-0.3,0.6c-0.5,0.4-1.2,0.8-2,1.1s-1.5,0.5-2.1,0.5
	c-0.9,0-1.8-0.3-2.5-1s-1.3-1.5-1.8-2.6s-0.6-2.4-0.6-3.8c0-0.9,0.1-2.1,0.3-3.3l-0.1-0.1c-0.7,0.8-1.3,1.4-1.7,1.9
	c-0.4,0.5-0.8,0.9-1.2,1.3c-1.8,2.1-3.4,4-4.6,5.6c-0.5,0.7-0.9,1.2-1.3,1.7c-0.6,0.6-1.3,0.9-2.1,0.9c-1,0-1.9-0.4-2.5-1.2
	c-0.7-0.8-1-1.8-1-3c0-0.8,0.1-1.7,0.3-2.8c0.2-1.1,0.4-2.3,0.7-3.6c0.3-1.3,0.7-2.6,1.1-3.9c0.4-1.3,0.9-2.6,1.4-3.8
	c0.7-2,1.7-3.6,2.7-4.7c0.7-0.7,1.6-1.1,2.7-1.1c1.7,0,2.5,1.1,2.5,3.3C205.3,344.7,205,347,204.4,350.1L204.4,350.1z"/>
<path class="st0" d="M235.7,340.6l0.2-1c0.5-2.2,1-4,1.4-5.4c0.4-1.4,0.8-2.5,1.3-3.5c0.4-1,0.9-1.6,1.3-2.1
	c0.7-0.7,1.9-1.1,3.7-1.1c0.8,0,1.4,0,1.7,0.1c0.4,0.1,0.7,0.2,0.9,0.4c-0.8,2.4-1.3,4.2-1.6,5.5c-0.3,1.2-0.6,2.9-1,5
	c-0.6,3.5-0.8,6.6-0.8,9.4c0,1.8,0.2,3.7,0.5,5.7c0.3,2,0.8,4.2,1.5,6.6c-0.9,0.6-1.7,1.1-2.5,1.5c-0.8,0.4-1.5,0.8-2.2,1
	s-1.3,0.4-1.9,0.4c-0.9,0-1.6-0.5-2-1.4c-0.3-0.8-0.5-1.4-0.6-1.8s-0.3-1.8-0.5-3.9c-2.2,2.3-4.3,4.1-6.3,5.4c-2,1.3-3.6,2-4.8,2
	c-1.4,0-2.5-0.6-3.4-1.7c-0.9-1.1-1.3-2.6-1.3-4.3c0-1.6,0.3-3.3,1-5.3c0.7-1.9,1.6-3.8,2.8-5.6c0.8-1.2,1.6-2.2,2.4-3
	c0.8-0.8,1.8-1.6,2.8-2.3c1.9-1.2,3.5-1.9,4.7-1.9C233.6,339.4,234.5,339.8,235.7,340.6z M235,352.2v-1.4c-0.8,0.7-1.4,1.1-1.9,1.1
	c-0.2,0-0.3-0.1-0.3-0.3c0-0.1,0-0.3,0.1-0.6c0.3-1,0.5-1.9,0.5-2.8c0-1.3-0.3-2.7-0.9-4.1c-0.2-0.7-0.5-1.1-0.9-1.1
	c-0.2,0-0.3,0.1-0.4,0.2c-0.5,0.6-1,1.5-1.5,2.6c-0.5,1.1-0.9,2.4-1.2,3.7c-0.3,1.3-0.5,2.5-0.5,3.5c0,1.9,0.6,2.9,1.8,2.9
	c0.6,0,1.4-0.3,2.4-1C233.1,354.2,234,353.3,235,352.2z"/>
<path class="st0" d="M250.1,363c-1.5,0-2.2-0.5-2.2-1.5c0-0.3,0.1-0.8,0.2-1.4c0.2-0.6,0.3-1.1,0.5-1.5c0.5-1.1,0.9-1.8,1.3-2.2
	c0.5-0.4,1.2-0.8,2.1-1.1c0.9-0.3,1.8-0.5,2.5-0.5c1,0,1.5,0.6,1.5,1.8c0,1.1-0.3,2.5-1,4c-0.2,0.5-0.4,0.8-0.6,1
	c-0.2,0.2-0.6,0.4-1.1,0.6C252.1,362.7,251,363,250.1,363z"/>
</svg>
