<?xml version="1.0" encoding="utf-8"?>
<!-- Generator: Adobe Illustrator 21.0.2, SVG Export Plug-In . SVG Version: 6.00 Build 0)  -->
<svg version="1.1" id="Layer_1" xmlns="http://www.w3.org/2000/svg" xmlns:xlink="http://www.w3.org/1999/xlink" x="0px" y="0px"
	 viewBox="0 0 1466 344" style="enable-background:new 0 0 1466 344;" xml:space="preserve">
<style type="text/css">
	.st0{clip-path:url(#SVGID_2_);fill:#109A49;}
	.st1{clip-path:url(#SVGID_2_);fill:#FF9900;}
	.st2{clip-path:url(#SVGID_2_);}
	.st3{fill:#E5E5E5;}
	.st4{fill:#DEDDDD;}
	.st5{fill:#109A49;}
	.st6{clip-path:url(#SVGID_2_);fill:#FFFFFF;}
	.st7{clip-path:url(#SVGID_2_);fill:none;}
	.st8{clip-path:url(#SVGID_4_);}
	.st9{fill:none;stroke:#0C7A38;stroke-width:7;stroke-miterlimit:10;}
	.st10{clip-path:url(#SVGID_4_);fill:none;}
</style>
<title>smallArtboard 1</title>
<g>
	<defs>
		<rect id="SVGID_1_" y="2.9" width="1466" height="341.1"/>
	</defs>
	<clipPath id="SVGID_2_">
		<use xlink:href="#SVGID_1_"  style="overflow:visible;"/>
	</clipPath>
	<rect x="-28.4" y="2.9" class="st0" width="275.5" height="344"/>
	<rect x="235.1" y="-4.4" class="st1" width="1236" height="351.4"/>
	<g class="st2">
		<rect x="1083.3" y="179.9" class="st3" width="260.6" height="123.5"/>
		<polygon class="st4" points="1213.6,241.7 1343.9,179.9 1083.3,179.9 		"/>
		<polygon class="st4" points="1213.6,241.7 1083.3,303.4 1343.9,303.4 		"/>
		<polygon class="st5" points="1103,190.1 1211.8,241.7 1320.8,190.1 1320.8,103.5 1103,103.5 		"/>
		<g>
			<path class="st3" d="M1229.8,198.7c-6.4,3.5-13.1,4.7-20.9,4.7c-19.2,0-35.5-14.1-35.5-36.6c0-24.2,16.8-45,42.8-45
				c20.4,0,34.2,14.3,34.2,33.9c0,17.6-9.9,27.9-20.9,27.9c-4.7,0-9-3.2-8.6-10.4h-0.5c-4.1,6.9-9.5,10.4-16.5,10.4
				c-6.8,0-12.7-5.6-12.7-14.8c0-14.6,11.5-27.8,27.8-27.8c5.1,0,9.5,1.1,12.6,2.5l-3.9,21.2c-1.7,8.9-0.4,13.1,3.6,13.1
				c5.9,0.1,12.7-7.9,12.7-21.5c0-17-10.2-29.2-28.4-29.2c-19.1,0-35.2,15.2-35.2,39c0,19.6,12.8,31.7,30.1,31.7
				c6.7,0,13-1.4,17.8-4.1L1229.8,198.7z M1223.4,148.1c-1.2-0.4-3.2-0.9-5.9-0.9c-10.4,0-18.6,9.7-18.6,21.1c0,5.2,2.6,8.9,7.8,8.9
				c6.8,0,13.1-8.6,14.3-15.9L1223.4,148.1z"/>
		</g>
	</g>
	<polygon class="st0" points="9.1,-6.1 807,-4.4 987.1,182.8 820.2,346.9 9.1,355.9 177.1,182.8 	"/>
	<polygon class="st6" points="-7.2,-34.9 -28.4,-13.7 162.4,177 -28.4,367.7 -7.2,388.9 204.8,177 	"/>
	<polygon class="st6" points="805.5,-34.9 784.3,-13.7 975,177 784.3,367.7 805.5,388.9 1017.4,177 	"/>
	<rect x="-6.9" y="2.9" class="st7" width="1466" height="344"/>
	<rect x="-6.9" y="2.9" class="st7" width="1466" height="344"/>
	<rect x="-6.9" y="2.9" class="st7" width="1466" height="344"/>
	<g class="st2">
		<defs>
			<rect id="SVGID_3_" x="-6.9" y="2.9" width="1466" height="344"/>
		</defs>
		<clipPath id="SVGID_4_">
			<use xlink:href="#SVGID_3_"  style="overflow:visible;"/>
		</clipPath>
		<g class="st8">
			<path class="st9" d="M336.7,165.6h-4.5c-8.5,0-12.6-2.7-12.6-8.5c0-4,1.3-7.2,4.5-9.4c2.7-2.2,7.2-3.6,12.1-3.6h12.6l2.7-3.6
				c18.9-25.6,37.7-38.2,56.6-38.2c9.4,0,17.1,2.7,22.9,8.1c5.8,5.4,9,12.6,9,21.1c0,12.1-5.8,21.1-17.1,27.9
				c-7.6,4.5-18.9,6.3-33.7,6.3h-27c-9,17.1-13.5,31-13.5,43.1c0,6.7,1.8,12.1,5.4,15.7c3.6,4,8.1,5.8,13.9,5.8
				c8.1,0,16.2-4.5,23.8-13.9s13.9-21.1,17.5-35.5l1.3-5.4c1.8-7.2,5.8-11.2,12.1-11.2c3.1,0,5.8,1.3,7.6,3.6c1.8,2.2,3.1,5.4,3.1,9
				c0,11.7-4.9,25.6-15.3,41.8c-13.9,22.5-31,33.7-50.8,33.7c-12.1,0-22.5-4-30.1-12.6c-7.6-8.5-11.7-18.9-11.7-31.9
				C325,196.2,329.1,181.8,336.7,165.6z M376.2,144.1h17.5c14.8,0,22.5-4,22.5-12.1c0-2.2-0.9-4.5-3.1-5.8c-1.8-1.8-4.5-2.2-7.6-2.2
				c-4.5,0-9.4,1.8-14.8,5.4C385.2,132.9,380.7,137.8,376.2,144.1z"/>
			<path class="st9" d="M458.4,220.5l-23.4,58c-3.1,8.1-8.1,12.1-14.4,12.1c-2.2,0-4.5-0.9-6.3-2.2c-1.8-1.3-2.7-3.6-2.7-5.8
				c0-1.8,0.9-4.5,2.2-8.5l43.6-107.4c2.2-5.4,6.3-8.1,11.7-8.1c3.6,0,6.7,1.8,9,5.4c4-4.5,9.4-6.7,15.3-6.7
				c6.3,0,11.2,2.2,15.3,7.2s5.8,11.2,5.8,18.9c0,14.8-4.5,27-13.9,36.4c-3.1,3.1-6.3,5.4-9.4,6.3c-3.1,1.3-7.6,1.8-13.5,1.8
				c-6.3,0-10.3-0.4-12.6-1.3C462.9,225.4,461.1,223.6,458.4,220.5z M466.1,202c1.3,2.7,3.1,4.5,4.5,4.9c1.3,0.9,3.6,1.3,6.3,1.3
				c4.5,0,7.6-1.8,9.9-4.9c4.9-6.3,7.2-13,7.2-19.8c0-5.8-2.7-9-8.1-9c-6.3,0-10.3,3.6-13,10.8c-0.4,0.9-0.4,1.3-0.9,1.8L466.1,202z
				"/>
			<path class="st9" d="M541.5,201.1c0,4.5,3.6,6.7,10.3,6.7h27c7.6,0,11.2,2.7,11.2,8.1c0,3.6-1.3,6.7-4,8.5
				c-2.7,2.2-6.3,3.1-11.2,3.1h-25.6c-9.4,0-16.6-2.2-21.6-7.2c-4.9-4.5-7.6-11.7-7.6-20.7c0-11.7,4-21.6,11.7-30.1
				s17.1-12.6,27.9-12.6c8.1,0,14.4,2.2,18.9,6.3c4.5,4,7.2,9.4,7.2,16.2c0,8.1-3.1,13.9-9.9,18c-3.6,2.2-9,3.1-16.6,3.1
				L541.5,201.1L541.5,201.1z M545.6,184.5h9.9c6.3,0,9.4-1.3,9.4-4c0-3.1-2.2-4.9-6.3-4.9C553.2,175.5,549.2,178.7,545.6,184.5z"/>
			<path class="st9" d="M660.1,207.9h10.8c7.6,0,11.7,2.7,11.7,8.1c0,3.6-1.3,6.7-4,8.5c-2.7,1.8-6.3,3.1-11.2,3.1h-18.9
				c-3.6,0-6.7-0.9-9.4-3.1c-2.7-2.2-3.6-4.9-3.6-8.5c0-2.2,0.9-4.9,2.7-9l8.1-19.8c0.9-2.2,1.3-3.6,1.3-4.9c0-1.3-0.4-2.7-1.8-3.6
				c-1.3-0.9-2.7-1.3-4.9-1.3c-6.3,0-11.2,4.5-14.8,13.9l-10.8,26.1c-3.1,8.1-8.1,12.1-14.4,12.1c-2.7,0-4.9-0.9-6.7-2.2
				c-1.8-1.3-2.7-3.6-2.7-5.8c0-1.8,0.4-3.6,1.3-5.8l0.9-2.2l18.4-44.9c2.2-5.8,6.3-9,12.1-9c4.5,0,8.1,2.2,9.9,6.3
				c6.3-4.9,12.6-7.2,18.4-7.2s10.3,1.8,13.9,4.9s5.4,7.2,5.4,12.6c0,2.7-0.4,5.8-1.8,9L660.1,207.9z"/>
		</g>
		<rect x="-6.9" y="2.9" class="st10" width="1466" height="344"/>
	</g>
</g>
</svg>
