<?xml version="1.0" encoding="utf-8"?>
<!-- Generator: Adobe Illustrator 19.2.1, SVG Export Plug-In . SVG Version: 6.00 Build 0)  -->
<svg version="1.1" xmlns="http://www.w3.org/2000/svg" xmlns:xlink="http://www.w3.org/1999/xlink" x="0px" y="0px"
	 viewBox="0 0 300 222" style="enable-background:new 0 0 300 222;" xml:space="preserve">
<style type="text/css">
	.st0{fill:none;stroke:#0B998E;stroke-miterlimit:10;}
</style>
<g id="Layer_2">
</g>
<g id="Layer_1">
	<path class="st0" d="M202.3,131.6c-11.1-1.8-25.7,5.4-25.7,5.4c-36.5,18.5-53.3,8.7-53.3,8.7c0,0,0,0,0,0l-0.2-3.9
		c0,0-8-9-21.6-9.9c2.2-1.9,4.3-4.9,3.7-9.2c-0.8-7-6.2-10.8-7.9-11.9c0,0-7.5,3.4-8.5,11.9c-0.5,4.4,1.6,7.4,3.8,9.3
		c-4.7,0.4-14.1,2.9-23.4,15.5c0,0,0.3,0.2,0.8,0.5c-0.7-0.3-1.1-0.5-1.1-0.5c-5.1,1.9-9.7,7.7-11.1,9.6c-0.1-3.7-0.6-14.9-3.3-17.8
		c-3-3.3-12.8-4-17.2-4.4c-5.5-0.5-16.9-1-21.9,1.3c-6.7,3.1-7.9,7.7-7.7,11.1c0.3,4.3,6.1,11.6,9.5,14.2c4.8,3.5,22.6,6.4,22.6,6.4
		s-5.2,2.7-5.7,4.4c-1.8,6.2,2.8,8.6,5.7,9.8c3.9,1.5,10-3.1,10-3.1l2.6-3.1l3.2,0.3c2.6,8.7,10.5,14.2,19,17.4
		c-3.3,2.6-5.4,4.9-5.4,4.9c-1.6,12.2,21.6,12.7,26.6,12.6c5,0,28.2-0.4,26.6-12.6c0,0-2.1-2.2-5.5-4.9c29.7-9.8,50.9-35,50.9-35
		c9-10.9,22-16.5,22-16.5s8.2-2.8,13.2-4.3C206.1,136.8,202.3,131.6,202.3,131.6z M30.2,153.7c-10-6.9-3.3-9.8-3.3-9.8
		C44,139,50,163.7,50,163.7l0.3,1C48.7,165.8,40.2,160.7,30.2,153.7z"/>
	<path class="st0" d="M272.3,98.6c0-2.4-2.6-4.4-5.7-4.4c-0.7,0-1.4,0.1-2.1,0.3c-0.6-0.2-1.3-0.3-2.1-0.3c-3.1,0-5.7,1.9-5.7,4.3
		c-0.9,0.8-1.4,1.7-1.4,2.8c0,2.4,2.6,4.4,5.7,4.4c0.4,0,0.8,0,1.2-0.1c1,0.9,2.6,1.5,4.3,1.5c3.2,0,5.7-1.9,5.7-4.4
		c0-0.8-0.3-1.4-0.7-2.1C272,100.1,272.3,99.4,272.3,98.6z"/>
	<path class="st0" d="M256.4,116.8c0-1.6-1.7-2.8-3.7-2.8c-0.5,0-0.9,0.1-1.3,0.2c-0.4-0.1-0.9-0.2-1.3-0.2c-2,0-3.7,1.3-3.7,2.8
		c-0.6,0.5-0.9,1.1-0.9,1.8c0,1.6,1.7,2.8,3.7,2.8c0.3,0,0.5,0,0.8-0.1c0.7,0.6,1.7,1,2.8,1c2.1,0,3.7-1.3,3.7-2.8
		c0-0.5-0.2-0.9-0.5-1.3C256.2,117.7,256.4,117.3,256.4,116.8z"/>
	<path class="st0" d="M232.8,123.3c-0.7-0.8-2-0.7-3,0.2c-0.2,0.2-0.4,0.4-0.6,0.7c-0.3,0.1-0.5,0.3-0.7,0.5c-1,0.9-1.3,2.2-0.6,2.9
		c-0.1,0.5,0,0.9,0.3,1.3c0.7,0.8,2,0.7,3-0.2c0.1-0.1,0.2-0.2,0.4-0.4c0.6,0,1.2-0.2,1.7-0.7c1-0.9,1.3-2.2,0.6-2.9
		c-0.2-0.2-0.5-0.4-0.8-0.5C233.1,123.8,233,123.5,232.8,123.3z"/>
	<path class="st0" d="M215.4,130.5c0.1-0.7-0.6-1.5-1.6-1.6c-0.2,0-0.4,0-0.6,0c-0.2-0.1-0.4-0.2-0.6-0.2c-1-0.1-1.8,0.3-2,1.1
		c-0.3,0.2-0.5,0.5-0.6,0.8c-0.1,0.7,0.6,1.5,1.6,1.6c0.1,0,0.3,0,0.4,0c0.3,0.3,0.7,0.6,1.3,0.6c1,0.1,1.9-0.3,2-1.1
		c0-0.2,0-0.5-0.1-0.7C215.3,131,215.4,130.8,215.4,130.5z"/>
	<g>
		<polygon class="st0" points="78.4,59.2 91.2,59.2 84.7,41.5 		"/>
		<path class="st0" d="M290,26.2c-2.6-2.5-6-3.9-9.7-3.9c-0.8,0-1.6,0.1-2.4,0.2c-1.2-1.9-3.5-3.3-7.6-4.1c-7-1.3-13.5,0.4-16.5,3.9
			c-0.2,0-0.4,0-0.6,0c-3.6,0-6.8,1.2-9.4,3.6c-1.9-1.4-4.9-2.8-9.2-2.8h-26c-0.6-2.7-2.6-4.8-7.8-5.8c-7.8-1.5-14.9,1.1-16.5,5.8
			h-20.7c-2.7,0-5.1,0.5-7.2,1.4c-1.4,0.7-2.7,1.5-3.8,2.6c-0.2-0.2-0.3-0.3-0.5-0.5c-1.8-1.6-4.9-3.5-9.8-3.5h-20.5
			c-2.7,0-5.1,0.5-7.2,1.4c-1.8,0.8-3.4,2-4.7,3.5c-2.9-1.9-7.5-3.4-13.3-0.6c-1.1-1.2-2.4-2.3-3.9-3.1c-2.3-1.3-5-2-8-2
			c-2.9,0-5.6,0.7-7.9,2c-0.2,0.1-0.4,0.3-0.6,0.4c-2.7-3.4-8.3-5.7-14.7-5.7c-5.8,0-10.8,1.9-13.8,4.7c-2.8-0.9-6.1-1.4-9.6-1.4
			c-4.6,0-8.7,0.7-12.4,2.2c-4.2,1.7-7.6,4.3-10,7.8c-2.5,3.5-3.7,7.6-3.7,12c0,3.9,0.9,7.5,2.7,10.5c-2.3,2.5-3.5,5.8-3.5,9.2
			c0,3.7,1.1,7.4,3.4,11c2.1,3.3,4.8,5.9,8.2,7.9c4.3,2.5,9.5,3.8,15.5,3.8c5,0,9.4-0.9,13.3-2.7c2.2-1,4.1-2.2,5.8-3.6
			c0.6,0.8,1.2,1.6,2,2.3c2.7,2.6,6.2,4,9.8,4c2.3,0,4.4-0.5,6.3-1.4c2,3.4,6,5.7,10.5,5.7c4.2,0,7.9-2,10.1-5
			c1.4,0.5,3,0.7,4.6,0.7c3.8,0,7.4-1.5,10.1-4.2c0,0,0,0,0,0c2.7,2.7,6.2,4.2,10.1,4.2c4,0,7.7-1.6,10.4-4.5c0,0,0,0,0,0
			c2.6,3.5,7.1,5.8,12.2,5.8c4.5,0,8.5-1.7,11.1-4.5c2,1.3,5,2.5,9,2.5h23.6c4.7,0,7.8-1.8,9.7-3.4c1.7,2.2,3.8,3.4,6.1,3.4
			c2.6,0,4.9-1.7,6.8-4.4c0.2,0.2,0.3,0.4,0.5,0.6c2.7,2.9,6.4,4.5,10.5,4.5c4.1,0,7.8-1.6,10.5-4.5c1-1.1,2.2-2.8,2.9-5
			c2.6,3.6,6.3,5.8,10.3,5.8c3.5,0,6.7-1.7,9.2-4.4c0.7,1.5,1.6,2.7,2.4,3.6c2.7,2.9,6.4,4.5,10.5,4.5c4,0,7.7-1.6,10.4-4.5
			c1.8-1.9,3.9-5.3,3.9-10.8V60.8l9.1-14c1.2-1.7,2-3.1,2.5-4.3c1-2.1,1.6-4.4,1.6-6.7C294.1,32.2,292.7,28.8,290,26.2z M53.3,70.1
			C52,72.2,50,73.8,47.4,75s-5.6,1.8-9.2,1.8c-4.2,0-7.7-0.8-10.5-2.4c-2-1.2-3.5-2.7-4.8-4.6c-1.2-1.9-1.8-3.8-1.8-5.6
			c0-1.1,0.4-2,1.1-2.7c0.7-0.8,1.7-1.1,2.8-1.1c0.9,0,1.7,0.3,2.3,0.9c0.6,0.6,1.2,1.5,1.6,2.6c0.5,1.4,1.1,2.5,1.8,3.4
			c0.6,0.9,1.5,1.7,2.7,2.3c1.2,0.6,2.7,0.9,4.5,0.9c2.6,0,4.7-0.6,6.3-1.8s2.4-2.7,2.4-4.5c0-1.4-0.4-2.6-1.3-3.5
			c-0.9-0.9-2-1.6-3.4-2s-3.2-1-5.5-1.5c-3.1-0.7-5.7-1.6-7.7-2.5s-3.7-2.3-5-4c-1.2-1.7-1.8-3.7-1.8-6.2c0-2.4,0.6-4.5,1.9-6.3
			c1.3-1.8,3.2-3.2,5.6-4.2c2.4-1,5.3-1.5,8.6-1.5c2.6,0,4.9,0.3,6.8,1c1.9,0.7,3.5,1.5,4.8,2.6c1.3,1.1,2.2,2.2,2.8,3.4
			c0.6,1.2,0.9,2.4,0.9,3.5c0,1-0.4,2-1.1,2.8c-0.7,0.8-1.6,1.2-2.7,1.2c-1,0-1.8-0.2-2.3-0.7c-0.5-0.5-1.1-1.3-1.7-2.4
			c-0.8-1.6-1.7-2.9-2.8-3.8c-1.1-0.9-2.9-1.4-5.3-1.4c-2.2,0-4.1,0.5-5.4,1.5c-1.4,1-2.1,2.2-2.1,3.6c0,0.9,0.2,1.6,0.7,2.2
			c0.5,0.6,1.1,1.2,1.9,1.6c0.8,0.4,1.7,0.8,2.5,1.1c0.8,0.3,2.2,0.6,4.2,1.1c2.4,0.6,4.6,1.2,6.6,1.9c2,0.7,3.6,1.5,5,2.5
			c1.4,1,2.5,2.2,3.2,3.7c0.8,1.5,1.2,3.3,1.2,5.5C55.3,65.7,54.7,68,53.3,70.1z M103.6,75.5c-0.8,0.8-1.8,1.2-3,1.2
			c-0.7,0-1.3-0.1-1.8-0.4c-0.5-0.2-0.9-0.6-1.2-1c-0.3-0.4-0.7-1.1-1.1-1.9c-0.4-0.9-0.7-1.6-1-2.3l-2.1-5.4H76.1L74,71.3
			c-0.8,2.1-1.5,3.6-2.1,4.4c-0.6,0.8-1.5,1.1-2.8,1.1c-1.1,0-2.1-0.4-2.9-1.2c-0.8-0.8-1.3-1.7-1.3-2.7c0-0.6,0.1-1.2,0.3-1.8
			c0.2-0.6,0.5-1.5,1-2.6l11-27.9c0.3-0.8,0.7-1.8,1.1-2.9c0.4-1.1,0.9-2.1,1.4-2.8c0.5-0.7,1.2-1.3,2-1.8c0.8-0.5,1.8-0.7,3-0.7
			c1.2,0,2.2,0.2,3,0.7c0.2,0.1,0.4,0.2,0.6,0.4c-1.2,1.1-0.6,1,0.5,0.4c0.3,0.3,0.7,0.6,0.9,1c0.5,0.7,0.9,1.5,1.3,2.3
			c0.3,0.8,0.8,1.9,1.3,3.3l11.2,27.7c0.9,2.1,1.3,3.6,1.3,4.6C104.9,73.7,104.5,74.7,103.6,75.5z M145.4,38.8
			c-0.7,0.6-1.7,0.9-3.1,0.9h-17.1v11h14.3c1.3,0,2.3,0.3,3,0.9c0.7,0.6,1,1.4,1,2.4s-0.3,1.8-1,2.4c-0.7,0.6-1.7,0.9-3,0.9h-14.3
			v14.2c0,1.8-0.4,3.1-1.2,4c-0.8,0.9-1.9,1.3-3.1,1.3c-1.3,0-2.3-0.4-3.1-1.3c-0.8-0.9-1.2-2.2-1.2-4v-33c0-1.2,0.2-2.3,0.6-3.1
			c0.4-0.8,1-1.4,1.7-1.7c0.8-0.4,1.8-0.5,3-0.5h20.5c1.4,0,2.4,0.3,3.1,0.9s1,1.4,1,2.4C146.4,37.4,146.1,38.2,145.4,38.8z
			 M190.4,75c-0.7,0.6-1.7,1-3.1,1h-23.6c-1.9,0-3.3-0.4-4.1-1.3c-0.8-0.8-1.2-2.2-1.2-4.1V38.4c0-1.2,0.2-2.3,0.6-3.1
			c0.4-0.8,1-1.4,1.7-1.7c0.8-0.4,1.8-0.5,3-0.5h23c1.4,0,2.4,0.3,3.1,0.9s1,1.4,1,2.4c0,1-0.3,1.8-1,2.4s-1.7,0.9-3.1,0.9H167v10.5
			h18c1.3,0,2.3,0.3,3,0.9c0.7,0.6,1,1.4,1,2.4c0,1-0.3,1.8-1,2.4s-1.6,0.9-3,0.9h-18v12.2h20.3c1.4,0,2.4,0.3,3.1,1
			c0.7,0.6,1,1.5,1,2.5C191.4,73.6,191.1,74.4,190.4,75z M197.6,47.6c-0.1-0.2-0.2-0.4-0.4-0.7c0.2,0.1,0.4,0.3,0.6,0.4
			C197.8,47.5,197.7,47.5,197.6,47.6z M238,39.2c-0.7,0.7-1.9,1-3.3,1h-9.5v31.2c0,1.8-0.4,3.1-1.2,4s-1.8,1.3-3.1,1.3
			c-1.3,0-2.3-0.4-3.1-1.3c-0.8-0.9-1.2-2.2-1.2-4V40.2H207c-1.5,0-2.6-0.3-3.3-1c-0.7-0.7-1.1-1.5-1.1-2.6c0-1.1,0.4-2,1.1-2.6
			c0.8-0.6,1.8-1,3.3-1h27.7c1.5,0,2.6,0.3,3.4,1c0.7,0.7,1.1,1.5,1.1,2.6C239.1,37.7,238.7,38.6,238,39.2z M283.6,38.1
			c-0.4,0.8-1,1.8-1.9,3.2l-10.8,16.5v13.6c0,1.8-0.4,3.1-1.2,4s-1.9,1.3-3.1,1.3c-1.3,0-2.3-0.4-3.1-1.3s-1.2-2.2-1.2-4V57.8
			l-10.5-16.3c-0.9-1.5-1.6-2.6-1.9-3.4s-0.6-1.5-0.6-2.1c0-1,0.4-1.9,1.2-2.6c0.8-0.7,1.7-1.1,2.9-1.1c1.2,0,2.1,0.3,2.7,1
			s1.5,2,2.8,4l8,13l8.1-13c0.5-0.8,0.9-1.5,1.2-2c0.3-0.5,0.7-1.1,1.1-1.5c0.4-0.5,0.8-0.8,1.3-1.1c0.5-0.3,1.1-0.4,1.8-0.4
			c1.1,0,2,0.4,2.7,1.1c0.7,0.7,1.1,1.5,1.1,2.5C284.1,36.6,283.9,37.4,283.6,38.1z"/>
	</g>
</g>
</svg>
