<?xml version="1.0" encoding="utf-8"?>
<!-- Generator: Adobe Illustrator 19.2.1, SVG Export Plug-In . SVG Version: 6.00 Build 0)  -->
<svg version="1.1" id="Layer_1" xmlns="http://www.w3.org/2000/svg" xmlns:xlink="http://www.w3.org/1999/xlink" x="0px" y="0px"
	 viewBox="0 0 300 47.5" style="enable-background:new 0 0 300 47.5;" xml:space="preserve">
<style type="text/css">
	.st0{fill:#273991;}
	.st1{fill:#FBAA19;}
	.st2{fill:url(#SVGID_1_);}
	.st3{fill:#FFFFFF;}
	.st4{fill:#F8991D;}
	.st5{fill:#CB2026;}
	.st6{fill:#FCB341;}
	.st7{fill:#21205F;}
	.st8{fill:url(#SVGID_2_);}
</style>
<g>
	<path class="st0" d="M46.2,13.9c-5,0-8.5,2.6-8.5,6.4c0,2.8,2.5,4.4,4.4,5.3c2,1,2.6,1.6,2.6,2.4c0,1.3-1.6,1.9-3,1.9
		c-2,0-3.1-0.3-4.7-1l-0.7-0.3L35.6,33c1.2,0.5,3.4,1,5.6,1c5.3,0,8.7-2.6,8.8-6.7c0-2.2-1.3-3.9-4.2-5.3c-1.8-0.9-2.8-1.5-2.8-2.4
		c0-0.8,0.9-1.7,2.9-1.7c1.6,0,2.8,0.4,3.8,0.7L50,19l0.7-4.2C49.7,14.4,48.2,13.9,46.2,13.9L46.2,13.9z M30.6,14.3l-3.2,19.5h5
		l3.2-19.5L30.6,14.3L30.6,14.3z M23.2,14.3l-4.9,13.3l-0.5-2.7c-1.2-3.3-3.9-6.8-7-8.2l4.5,17.1l5.3,0l7.9-19.5L23.2,14.3
		L23.2,14.3z M59.8,14.3c-1.2,0-2.1,0.3-2.6,1.6l-7.5,17.9h5.3c0,0,0.9-2.4,1.1-2.9c0.6,0,5.7,0,6.4,0c0.2,0.7,0.6,2.9,0.6,2.9h4.7
		l-4.1-19.5L59.8,14.3L59.8,14.3z M60.1,19.6l0.3,1.7c0,0,1,4.7,1.2,5.6h-4.2c0.4-1.1,2-5.5,2-5.5C59.4,21.5,59.9,20.3,60.1,19.6
		L60.1,19.6z"/>
	<path class="st1" d="M13.7,14.3H5.6l0,0.3c6.3,1.6,10.5,5.6,12.2,10.3l-1.8-9C15.7,14.7,14.8,14.3,13.7,14.3"/>
</g>
<g>
	
		<radialGradient id="SVGID_1_" cx="85.14" cy="91.1961" r="29.7968" gradientTransform="matrix(1.3353 0 0 -1.1837 -26.6699 119.6788)" gradientUnits="userSpaceOnUse">
		<stop  offset="0" style="stop-color:#9FD4F3"/>
		<stop  offset="7.110000e-002" style="stop-color:#99D2F2"/>
		<stop  offset="0.1575" style="stop-color:#8BCDF1"/>
		<stop  offset="0.2516" style="stop-color:#71C6EF"/>
		<stop  offset="0.3514" style="stop-color:#51BCEA"/>
		<stop  offset="0.4546" style="stop-color:#21ADE4"/>
		<stop  offset="0.5" style="stop-color:#1AA6DF"/>
		<stop  offset="1" style="stop-color:#3078BC"/>
	</radialGradient>
	<path class="st2" d="M121.9,5.1H79.5v37.7h42.4V30.4c0.2-0.2,0.3-0.5,0.3-0.8c0-0.4-0.1-0.6-0.3-0.8"/>
	<path class="st3" d="M83.4,21.5l-0.8-1.8l-0.8,1.8 M101.3,20.8c-0.2,0.1-0.4,0.1-0.6,0.1h-1.4v-1h1.5c0.2,0,0.4,0,0.6,0.1
		c0.2,0.1,0.3,0.2,0.3,0.4C101.6,20.5,101.5,20.7,101.3,20.8z M111.7,21.5l-0.8-1.8l-0.8,1.8H111.7z M92.4,23.4h-1.2l0-3.5l-1.7,3.5
		h-1l-1.7-3.5v3.5h-2.4l-0.5-1h-2.5l-0.5,1h-1.3l2.1-4.4h1.8l2,4.2v-4.2h1.9l1.6,3l1.4-3h2L92.4,23.4L92.4,23.4z M97.3,23.4h-4v-4.4
		h4v0.9h-2.8v0.8h2.7v0.9h-2.7v0.9h2.8V23.4z M102.9,20.1c0,0.7-0.5,1.1-0.8,1.2c0.3,0.1,0.5,0.2,0.6,0.4c0.2,0.2,0.2,0.4,0.2,0.8
		v0.9h-1.2l0-0.6c0-0.3,0-0.6-0.2-0.9c-0.2-0.2-0.4-0.2-0.9-0.2h-1.3v1.6h-1.2v-4.4h2.7c0.6,0,1.1,0,1.4,0.2
		C102.7,19.4,102.9,19.6,102.9,20.1z M104.8,23.4h-1.2v-4.4h1.2V23.4z M118.9,23.4h-1.7l-2.3-3.3v3.3h-2.4l-0.5-1h-2.5l-0.4,1h-1.4
		c-0.6,0-1.3-0.1-1.7-0.5c-0.4-0.4-0.6-0.9-0.6-1.7c0-0.7,0.1-1.3,0.6-1.7c0.4-0.4,1-0.5,1.8-0.5h1.2v0.9h-1.1
		c-0.4,0-0.7,0.1-0.9,0.3c-0.2,0.2-0.3,0.5-0.3,1c0,0.5,0.1,0.8,0.3,1c0.2,0.2,0.5,0.2,0.8,0.2h0.5l1.7-3.5h1.8l2,4.2v-4.2h1.8
		l2.1,3.1v-3.1h1.2V23.4L118.9,23.4z M79.5,24.2h2l0.5-1h1l0.5,1h4v-0.8l0.4,0.8H90l0.4-0.8v0.8h10l0-1.6h0.2c0.1,0,0.2,0,0.2,0.2
		v1.4h5.1v-0.4c0.4,0.2,1.1,0.4,1.9,0.4h2.2l0.5-1h1l0.5,1h4.2v-0.9l0.6,0.9h3.3v-6.2h-3.3v0.7l-0.5-0.7h-3.4v0.7l-0.4-0.7h-4.6
		c-0.8,0-1.4,0.1-2,0.4v-0.4h-3.2v0.4c-0.3-0.3-0.8-0.4-1.3-0.4H89.7l-0.8,1.6l-0.8-1.6h-3.6v0.7l-0.4-0.7H81L79.5,21L79.5,24.2
		L79.5,24.2z"/>
	<path class="st3" d="M121.9,27.5h-2.2c-0.2,0-0.4,0-0.5,0.1c-0.1,0.1-0.2,0.2-0.2,0.3c0,0.2,0.1,0.3,0.3,0.3c0.1,0,0.3,0.1,0.5,0.1
		l0.6,0c0.7,0,1.1,0.1,1.4,0.4c0,0,0.1,0.1,0.1,0.1 M121.9,30.4c-0.3,0.4-0.9,0.6-1.6,0.6H118V30h2.3c0.2,0,0.4,0,0.5-0.1
		c0.1-0.1,0.1-0.2,0.1-0.3c0-0.1-0.1-0.2-0.1-0.3c-0.1-0.1-0.2-0.1-0.4-0.1c-1.1,0-2.5,0-2.5-1.4c0-0.6,0.5-1.3,1.7-1.3h2.4v-0.9
		h-2.2c-0.7,0-1.1,0.1-1.5,0.4v-0.4H115c-0.5,0-1.1,0.1-1.4,0.4v-0.4h-5.8V26c-0.5-0.3-1.2-0.4-1.6-0.4h-3.8V26
		c-0.4-0.3-1.2-0.4-1.7-0.4h-4.3l-1,0.9l-0.9-0.9H88v6.2h6.3l1-1l1,1l3.9,0v-1.5h0.4c0.5,0,1.1,0,1.7-0.2v1.7h3.2v-1.6h0.2
		c0.2,0,0.2,0,0.2,0.2v1.4h9.7c0.6,0,1.3-0.1,1.6-0.4v0.4h3.1c0.6,0,1.3-0.1,1.7-0.3V30.4L121.9,30.4z M117.2,28.6
		c0.2,0.2,0.4,0.5,0.4,0.9c0,1-0.7,1.4-1.9,1.4h-2.3V30h2.3c0.2,0,0.4,0,0.5-0.1c0.1-0.1,0.1-0.2,0.1-0.3c0-0.1-0.1-0.2-0.1-0.3
		c-0.1-0.1-0.2-0.1-0.4-0.1c-1.1,0-2.5,0-2.5-1.4c0-0.6,0.5-1.3,1.7-1.3h2.4v0.9h-2.2c-0.2,0-0.4,0-0.5,0.1
		c-0.1,0.1-0.2,0.2-0.2,0.3c0,0.2,0.1,0.3,0.3,0.3c0.1,0,0.3,0.1,0.5,0.1l0.6,0C116.5,28.3,116.9,28.4,117.2,28.6z M106.4,28.4
		c-0.2,0.1-0.4,0.1-0.6,0.1h-1.4v-1h1.5c0.2,0,0.4,0,0.6,0.1c0.2,0.1,0.2,0.2,0.2,0.4S106.6,28.3,106.4,28.4z M107.1,28.9
		c0.3,0.1,0.5,0.2,0.6,0.4c0.2,0.2,0.2,0.4,0.2,0.8V31h-1.2v-0.6c0-0.3,0-0.7-0.2-0.9c-0.2-0.2-0.4-0.2-0.9-0.2h-1.3V31h-1.2v-4.4
		h2.8c0.6,0,1,0,1.4,0.2c0.4,0.2,0.6,0.5,0.6,1C108,28.5,107.5,28.8,107.1,28.9z M108.7,26.6h4v0.9h-2.8v0.8h2.7v0.9h-2.7v0.9l2.8,0
		V31h-4V26.6z M100.6,28.6h-1.5v-1.1h1.6c0.4,0,0.7,0.2,0.7,0.5C101.4,28.4,101.1,28.6,100.6,28.6z M97.9,30.6l-1.8-1.8l1.8-1.7
		V30.6z M93.2,30.1h-2.9v-0.9h2.6v-0.9h-2.6v-0.8h3l1.3,1.3L93.2,30.1z M102.6,28c0,1.2-1,1.5-2.1,1.5h-1.5V31h-2.3l-1.5-1.5
		L93.8,31H89v-4.4h4.8l1.5,1.4l1.5-1.4h3.8C101.6,26.6,102.6,26.8,102.6,28z"/>
</g>
<g id="layer1">
	<g id="g10305">
		<path id="path2268" class="st4" d="M197.3,24c0,10.6-8.6,19.1-19.1,19.1c-10.6,0-19.1-8.6-19.1-19.1c0,0,0,0,0,0
			c0-10.6,8.6-19.1,19.1-19.1C188.7,4.9,197.3,13.4,197.3,24C197.3,24,197.3,24,197.3,24z"/>
		<path id="path1350" class="st5" d="M152.4,4.9c-10.5,0.1-19,8.6-19,19.1c0,10.6,8.6,19.1,19.1,19.1c5,0,9.5-1.9,12.9-5
			c0,0,0,0,0,0h0c0.7-0.6,1.3-1.3,1.9-2h-3.9c-0.5-0.6-1-1.3-1.4-2h6.8c0.4-0.7,0.8-1.3,1.1-2h-9c-0.3-0.7-0.6-1.3-0.8-2h10.6
			c0.6-1.9,1-3.9,1-6.1c0-1.4-0.2-2.8-0.4-4.1h-11.7c0.1-0.7,0.3-1.3,0.5-2h10.6c-0.2-0.7-0.5-1.4-0.8-2h-9c0.3-0.7,0.7-1.4,1.1-2
			h6.8c-0.4-0.7-0.9-1.4-1.5-2h-3.8c0.6-0.7,1.2-1.3,1.9-1.9c-3.4-3.1-7.9-5-12.9-5C152.5,4.9,152.4,4.9,152.4,4.9z"/>
		<path id="use9412" class="st6" d="M195.4,34c0.1,0,0.2,0,0.3,0.1c0.1,0.1,0.2,0.1,0.2,0.2c0.1,0.1,0.1,0.2,0.1,0.3
			c0,0.1,0,0.2-0.1,0.3c-0.1,0.1-0.1,0.2-0.2,0.2c-0.1,0.1-0.2,0.1-0.3,0.1c-0.1,0-0.2,0-0.3-0.1c-0.1-0.1-0.2-0.1-0.2-0.2
			c-0.1-0.1-0.1-0.2-0.1-0.3c0-0.1,0-0.2,0.1-0.3c0.1-0.1,0.1-0.2,0.2-0.2C195.2,34,195.3,34,195.4,34 M195.4,34.1
			c-0.1,0-0.2,0-0.3,0.1c-0.1,0-0.1,0.1-0.2,0.2c0,0.1-0.1,0.2-0.1,0.3c0,0.1,0,0.2,0.1,0.3c0,0.1,0.1,0.1,0.2,0.2
			c0.1,0,0.2,0.1,0.3,0.1c0.1,0,0.2,0,0.3-0.1c0.1,0,0.1-0.1,0.2-0.2c0-0.1,0.1-0.2,0.1-0.3c0-0.1,0-0.2-0.1-0.3
			c0-0.1-0.1-0.1-0.2-0.2C195.6,34.1,195.5,34.1,195.4,34.1 M195.1,35v-0.7h0.2c0.1,0,0.1,0,0.2,0c0,0,0.1,0,0.1,0.1
			c0,0,0,0.1,0,0.1c0,0,0,0.1-0.1,0.1c0,0-0.1,0.1-0.1,0.1c0,0,0,0,0.1,0c0,0,0.1,0.1,0.1,0.1l0.1,0.1h-0.1l-0.1-0.1
			c0-0.1-0.1-0.1-0.1-0.2c0,0,0,0-0.1,0h-0.1V35L195.1,35 M195.2,34.6h0.1c0.1,0,0.1,0,0.1,0c0,0,0,0,0-0.1c0,0,0,0,0-0.1
			c0,0,0,0,0,0c0,0-0.1,0-0.1,0h-0.1L195.2,34.6"/>
	</g>
	<g id="g16480">
		<g id="g13802" transform="translate(-13.74405,15.9939)">
			<path id="path13804" class="st7" d="M172.6,13.5l0.3-1.7c-0.1,0-0.3,0.1-0.5,0.1c-0.7,0-0.8-0.4-0.7-0.7l0.7-3.5h1.1l0.2-2h-1
				l0.2-1.2h-2.1c0,0-1.2,6.7-1.2,7.5c0,1.2,0.7,1.7,1.6,1.7C171.8,13.8,172.4,13.5,172.6,13.5z"/>
			<path id="path13806" class="st7" d="M173.3,10.2c0,2.9,1.9,3.6,3.5,3.6c1.5,0,2.3-0.3,2.3-0.3l0.4-2c0,0-1.3,0.5-2.3,0.5
				c-2.2,0-1.8-1.6-1.8-1.6l4.2,0c0,0,0.3-1.3,0.3-1.9c0-1.3-0.7-3-3-3C174.8,5.5,173.3,7.7,173.3,10.2z M176.8,7.3
				c1.1,0,0.9,1.3,0.9,1.4h-2.3C175.5,8.6,175.7,7.3,176.8,7.3z"/>
			<path id="path13808" class="st7" d="M189.7,13.5l0.4-2.2c0,0-1,0.5-1.7,0.5c-1.4,0-2-1.1-2-2.3c0-2.4,1.2-3.7,2.6-3.7
				c1,0,1.9,0.6,1.9,0.6l0.3-2.2c0,0-1-0.7-2-0.7c-3.2,0-5,2.2-5,6c0,2.5,1.3,4.3,3.8,4.3C188.6,13.8,189.7,13.5,189.7,13.5z"/>
			<path id="path13810" class="st7" d="M161.4,5.5c-1.4,0-2.5,0.4-2.5,0.4l-0.3,1.8c0,0,0.9-0.4,2.2-0.4c0.8,0,1.3,0.1,1.3,0.7
				c0,0.4-0.1,0.5-0.1,0.5s-0.6,0-0.9,0c-2,0-3.6,0.8-3.6,3c0,1.8,1.2,2.2,2,2.2c1.4,0,2-0.9,2-0.9l0,0.8c0,0,1.8,0,1.8,0l0.8-5.6
				C164.2,5.6,162.1,5.5,161.4,5.5z M161.7,10.1c0,0.3-0.1,2-1.3,2c-0.6,0-0.8-0.5-0.8-0.8c0-0.6,0.3-1.2,1.8-1.2
				C161.7,10,161.7,10.1,161.7,10.1z"/>
			<path id="path13812" class="st7" d="M166.1,13.7c0.5,0,3.1,0.1,3.1-2.6c0-2.5-2.4-2-2.4-3c0-0.5,0.4-0.7,1.1-0.7
				c0.3,0,1.4,0.1,1.4,0.1l0.3-1.8c0,0-0.7-0.2-1.9-0.2c-1.5,0-3,0.6-3,2.7c0,2.3,2.5,2.1,2.5,3.1c0,0.7-0.7,0.7-1.3,0.7
				c-0.9,0-1.8-0.3-1.8-0.3l-0.3,1.8C163.9,13.5,164.4,13.7,166.1,13.7z"/>
			<path id="path13814" class="st7" d="M206.5,3.9l-0.4,2.7c0,0-0.8-1.1-2-1.1c-2.3,0-3.4,2.2-3.4,4.8c0,1.7,0.8,3.3,2.5,3.3
				c1.2,0,1.9-0.9,1.9-0.9l-0.1,0.7h2l1.6-9.7L206.5,3.9z M205.6,9.2c0,1.1-0.5,2.5-1.6,2.5c-0.7,0-1.1-0.6-1.1-1.6
				c0-1.6,0.7-2.6,1.6-2.6C205.3,7.5,205.6,8,205.6,9.2z"/>
			<path id="path13816" class="st7" d="M150.4,13.6l1.2-7.3l0.2,7.3h1.4l2.6-7.3l-1.2,7.3h2.1l1.6-9.7l-3.3,0l-2,5.9L153,3.9h-3
				l-1.6,9.7L150.4,13.6L150.4,13.6z"/>
			<path id="path13818" class="st7" d="M181.8,13.6c0.6-3.4,0.8-6,2.5-5.5c0.2-1.3,0.8-2.4,1.1-3c0,0-0.1-0.1-0.6-0.1
				c-0.9,0-2.1,1.9-2.1,1.9l0.2-1.1h-1.9l-1.3,7.9L181.8,13.6L181.8,13.6z"/>
			<g id="use14699" transform="translate(845.3001,0)">
				<path id="path13810_1_" class="st7" d="M-651.3,5.5c-1.4,0-2.5,0.4-2.5,0.4l-0.3,1.8c0,0,0.9-0.4,2.2-0.4c0.8,0,1.3,0.1,1.3,0.7
					c0,0.4-0.1,0.5-0.1,0.5s-0.6,0-0.9,0c-2,0-3.6,0.8-3.6,3c0,1.8,1.2,2.2,2,2.2c1.4,0,2-0.9,2-0.9l0,0.8h1.8l0.8-5.6
					C-648.5,5.6-650.6,5.5-651.3,5.5z M-651,10.1c0,0.3-0.1,2-1.3,2c-0.6,0-0.8-0.5-0.8-0.8c0-0.6,0.3-1.2,1.8-1.2
					C-651,10-651.1,10.1-651,10.1z"/>
			</g>
			<path id="use14701" class="st7" d="M198.8,13.6c0.3-2.5,0.9-6,2.5-5.5c0.2-1.3,0-1.3-0.5-1.3c-0.9,0-1.1,0-1.1,0l0.2-1.1H198
				l-1.3,7.9L198.8,13.6L198.8,13.6z"/>
		</g>
		<g id="g10289">
			<path id="path4157" class="st3" d="M159.4,28.9l0.3-1.7c-0.1,0-0.3,0.1-0.5,0.1c-0.7,0-0.8-0.4-0.7-0.7L159,23h1.1l0.3-1.9h-1
				l0.2-1.2h-2c0,0-1.2,6.7-1.2,7.5c0,1.2,0.7,1.7,1.6,1.7C158.6,29.1,159.2,28.9,159.4,28.9z"/>
			<path id="path4155" class="st3" d="M160,25.6c0,2.9,1.9,3.6,3.5,3.6c1.5,0,2.2-0.3,2.2-0.3l0.4-2c0,0-1.1,0.5-2.2,0.5
				c-2.2,0-1.8-1.6-1.8-1.6h4.1c0,0,0.3-1.3,0.3-1.9c0-1.3-0.7-3-2.9-3C161.6,20.9,160,23.1,160,25.6z M163.6,22.7
				c1.1,0,0.9,1.3,0.9,1.4h-2.3C162.3,24,162.5,22.7,163.6,22.7z"/>
			<path id="path4151" class="st3" d="M176.5,28.9l0.4-2.2c0,0-1,0.5-1.7,0.5c-1.4,0-2-1.1-2-2.3c0-2.4,1.2-3.7,2.6-3.7
				c1,0,1.9,0.6,1.9,0.6l0.3-2.2c0,0-1.2-0.5-2.3-0.5c-2.4,0-4.6,2-4.6,5.9c0,2.5,1.2,4.2,3.7,4.2C175.4,29.1,176.5,28.9,176.5,28.9
				z"/>
			<path id="path4149" class="st3" d="M148.2,20.9c-1.4,0-2.5,0.4-2.5,0.4l-0.3,1.8c0,0,0.9-0.4,2.2-0.4c0.8,0,1.3,0.1,1.3,0.7
				c0,0.4-0.1,0.5-0.1,0.5s-0.6-0.1-0.9-0.1c-1.8,0-3.6,0.8-3.6,3c0,1.8,1.2,2.2,2,2.2c1.4,0,2.1-0.9,2.1-0.9l-0.1,0.8h1.8l0.8-5.6
				C151,21,148.9,20.9,148.2,20.9z M148.6,25.5c0,0.3-0.2,1.9-1.4,1.9c-0.6,0-0.8-0.5-0.8-0.8c0-0.6,0.3-1.2,1.8-1.2
				C148.5,25.4,148.6,25.5,148.6,25.5z"/>
			<path id="path4145" class="st3" d="M152.9,29.1c0.5,0,3.1,0.1,3.1-2.6c0-2.5-2.4-2-2.4-3c0-0.5,0.4-0.7,1.1-0.7
				c0.3,0,1.4,0.1,1.4,0.1l0.3-1.8c0,0-0.7-0.2-1.9-0.2c-1.5,0-3,0.6-3,2.7c0,2.3,2.5,2.1,2.5,3.1c0,0.7-0.7,0.7-1.3,0.7
				c-1,0-1.8-0.3-1.8-0.3l-0.3,1.8C150.7,28.8,151.2,29.1,152.9,29.1z"/>
			<path id="path4139" class="st3" d="M193.4,19.3l-0.4,2.7c0,0-0.8-1.1-2-1.1c-1.9,0-3.4,2.2-3.4,4.8c0,1.7,0.8,3.3,2.5,3.3
				c1.2,0,1.9-0.9,1.9-0.9l-0.1,0.7h2l1.6-9.7L193.4,19.3z M192.4,24.6c0,1.1-0.5,2.5-1.6,2.5c-0.7,0-1.1-0.6-1.1-1.6
				c0-1.6,0.7-2.6,1.6-2.6C192.1,22.9,192.4,23.4,192.4,24.6z"/>
			<path id="path4133" class="st3" d="M137.2,29l1.2-7.3l0.2,7.3h1.4l2.6-7.3l-1.2,7.3h2.1l1.6-9.7h-3.2l-2,5.9l-0.1-5.9h-3
				l-1.6,9.7C135.2,29,137.2,29,137.2,29z"/>
			<path id="path4131" class="st3" d="M168.5,29c0.6-3.4,0.7-6.1,2.1-5.6c0.2-1.3,0.5-1.8,0.8-2.4c0,0-0.1,0-0.4,0
				c-0.9,0-1.6,1.2-1.6,1.2l0.2-1.1h-1.9l-1.3,7.9H168.5z"/>
			<g id="use8523" transform="translate(847.0062,0)">
				<path id="path4149_1_" class="st3" d="M-665.8,20.9c-1.4,0-2.5,0.4-2.5,0.4l-0.3,1.8c0,0,0.9-0.4,2.2-0.4c0.8,0,1.3,0.1,1.3,0.7
					c0,0.4-0.1,0.5-0.1,0.5s-0.6-0.1-0.9-0.1c-1.8,0-3.6,0.8-3.6,3c0,1.8,1.2,2.2,2,2.2c1.4,0,2.1-0.9,2.1-0.9l-0.1,0.8
					c0,0,1.8,0,1.8,0l0.8-5.6C-663,21-665.1,20.9-665.8,20.9z M-665.4,25.5c0,0.3-0.2,1.9-1.4,1.9c-0.6,0-0.8-0.5-0.8-0.8
					c0-0.6,0.3-1.2,1.8-1.2C-665.5,25.4-665.4,25.5-665.4,25.5z"/>
			</g>
			<g id="use8525" transform="translate(442.2857,0)">
				<path id="path4131_1_" class="st3" d="M-256.6,29c0.6-3.4,0.7-6.1,2.1-5.6c0.2-1.3,0.5-1.8,0.8-2.4c0,0-0.1,0-0.4,0
					c-0.9,0-1.6,1.2-1.6,1.2l0.2-1.1h-1.9l-1.3,7.9H-256.6z"/>
			</g>
			<path id="text9407" class="st3" d="M195.4,27.8c0.1,0,0.2,0,0.3,0.1c0.1,0.1,0.2,0.1,0.2,0.2c0.1,0.1,0.1,0.2,0.1,0.3
				c0,0.1,0,0.2-0.1,0.3c-0.1,0.1-0.1,0.2-0.2,0.2c-0.1,0.1-0.2,0.1-0.3,0.1c-0.1,0-0.2,0-0.3-0.1c-0.1-0.1-0.2-0.1-0.2-0.2
				c-0.1-0.1-0.1-0.2-0.1-0.3c0-0.1,0-0.2,0.1-0.3c0.1-0.1,0.1-0.2,0.2-0.2C195.2,27.8,195.3,27.8,195.4,27.8 M195.4,27.9
				c-0.1,0-0.2,0-0.3,0.1c-0.1,0-0.1,0.1-0.2,0.2c0,0.1-0.1,0.2-0.1,0.3s0,0.2,0.1,0.3c0,0.1,0.1,0.1,0.2,0.2c0.1,0,0.2,0.1,0.3,0.1
				c0.1,0,0.2,0,0.3-0.1c0.1,0,0.1-0.1,0.2-0.2c0-0.1,0.1-0.2,0.1-0.3s0-0.2-0.1-0.3c0-0.1-0.1-0.1-0.2-0.2
				C195.5,27.9,195.5,27.9,195.4,27.9 M195.1,28.7v-0.7h0.2c0.1,0,0.1,0,0.2,0c0,0,0.1,0,0.1,0.1c0,0,0,0.1,0,0.1c0,0,0,0.1-0.1,0.1
				c0,0-0.1,0.1-0.1,0.1c0,0,0,0,0.1,0c0,0,0.1,0.1,0.1,0.1l0.1,0.1h-0.1l-0.1-0.1c0-0.1-0.1-0.1-0.1-0.2c0,0,0,0-0.1,0h-0.1v0.3
				L195.1,28.7 M195.2,28.4h0.1c0.1,0,0.1,0,0.1,0c0,0,0,0,0-0.1c0,0,0,0,0-0.1c0,0,0,0,0,0c0,0-0.1,0-0.1,0h-0.1L195.2,28.4"/>
		</g>
	</g>
</g>
<g>
	
		<radialGradient id="SVGID_2_" cx="244.7993" cy="-462.0773" r="7.2028" gradientTransform="matrix(1 0 0 1 6.416 486.083)" gradientUnits="userSpaceOnUse">
		<stop  offset="5.618000e-003" style="stop-color:#FFEFE1"/>
		<stop  offset="9.682110e-002" style="stop-color:#FFEAD8"/>
		<stop  offset="0.2456" style="stop-color:#FEDEC1"/>
		<stop  offset="0.4337" style="stop-color:#FDCA9E"/>
		<stop  offset="0.6534" style="stop-color:#FAAF72"/>
		<stop  offset="0.8971" style="stop-color:#F79038"/>
		<stop  offset="1" style="stop-color:#F58220"/>
	</radialGradient>
	<path class="st8" d="M251.2,16.9c-4,0-7.3,3.1-7.3,7c0,4.1,3.1,7.2,7.3,7.2c4.1,0,7.3-3.1,7.3-7.1C258.5,20,255.3,16.9,251.2,16.9z
		"/>
	<path d="M209.8,17.1h-3.9v13.7h3.9c2.1,0,3.6-0.5,4.9-1.6c1.6-1.3,2.5-3.2,2.5-5.3C217.2,19.9,214.1,17.1,209.8,17.1z M212.9,27.4
		c-0.8,0.8-1.9,1.1-3.7,1.1h-0.7v-9h0.7c1.7,0,2.8,0.3,3.7,1.1c0.9,0.8,1.5,2.1,1.5,3.4C214.4,25.3,213.9,26.6,212.9,27.4z"/>
	<rect x="218.4" y="17.1" width="2.7" height="13.7"/>
	<path d="M227.6,22.4c-1.6-0.6-2.1-1-2.1-1.7c0-0.9,0.8-1.5,2-1.5c0.8,0,1.5,0.3,2.2,1.1l1.4-1.8c-1.1-1-2.5-1.5-4-1.5
		c-2.4,0-4.3,1.7-4.3,3.9c0,1.9,0.9,2.9,3.4,3.8c1,0.4,1.6,0.6,1.8,0.8c0.5,0.3,0.8,0.8,0.8,1.4c0,1.1-0.9,1.9-2.1,1.9
		c-1.3,0-2.3-0.6-2.9-1.8l-1.7,1.7c1.2,1.8,2.7,2.6,4.7,2.6c2.8,0,4.7-1.8,4.7-4.5C231.5,24.5,230.6,23.5,227.6,22.4z"/>
	<path d="M232.4,24c0,4,3.2,7.1,7.2,7.1c1.1,0,2.1-0.2,3.3-0.8v-3.1c-1.1,1.1-2,1.5-3.2,1.5c-2.7,0-4.6-1.9-4.6-4.7
		c0-2.6,2-4.7,4.5-4.7c1.3,0,2.2,0.5,3.3,1.5v-3.1c-1.2-0.6-2.1-0.8-3.3-0.8C235.6,16.8,232.4,20,232.4,24z"/>
	<polygon points="264.5,26.3 260.9,17.1 258,17.1 263.8,31.2 265.2,31.2 271.1,17.1 268.2,17.1 	"/>
	<polygon points="272.3,30.8 279.9,30.8 279.9,28.5 275,28.5 275,24.8 279.7,24.8 279.7,22.5 275,22.5 275,19.5 279.9,19.5 
		279.9,17.1 272.3,17.1 	"/>
	<path d="M290.5,21.2c0-2.6-1.8-4-4.8-4h-4v13.7h2.7v-5.5h0.3l3.7,5.5h3.3l-4.3-5.8C289.4,24.6,290.5,23.3,290.5,21.2z M285.1,23.4
		h-0.8v-4.1h0.8c1.7,0,2.6,0.7,2.6,2C287.7,22.7,286.8,23.4,285.1,23.4z"/>
	<path d="M292.3,18.2c0-0.2-0.2-0.4-0.5-0.4h-0.4V19h0.3v-0.5l0.3,0.5h0.4l-0.4-0.5C292.2,18.5,292.3,18.3,292.3,18.2z M291.8,18.3
		L291.8,18.3l-0.1-0.3h0.1c0.1,0,0.2,0.1,0.2,0.2C292.1,18.3,292,18.3,291.8,18.3z"/>
	<path d="M291.9,17.3c-0.6,0-1.1,0.5-1.1,1.1c0,0.6,0.5,1.1,1.1,1.1c0.6,0,1-0.5,1-1.1C293,17.8,292.5,17.3,291.9,17.3z M291.9,19.3
		c-0.5,0-0.8-0.4-0.8-0.9c0-0.5,0.4-0.9,0.8-0.9c0.5,0,0.8,0.4,0.8,0.9C292.8,18.9,292.4,19.3,291.9,19.3z"/>
</g>
</svg>
