<?xml version="1.0" encoding="utf-8"?>
<!-- Generator: Adobe Illustrator 19.2.1, SVG Export Plug-In . SVG Version: 6.00 Build 0)  -->
<svg version="1.1" id="Layer_1" xmlns="http://www.w3.org/2000/svg" xmlns:xlink="http://www.w3.org/1999/xlink" x="0px" y="0px"
	 viewBox="0 0 400 156.2" style="enable-background:new 0 0 400 156.2;" xml:space="preserve">
<style type="text/css">
	.st0{fill:none;stroke:#1C9A48;stroke-width:1.0401;stroke-miterlimit:10;}
	.st1{fill:none;stroke:#FF9900;stroke-width:0.8518;stroke-miterlimit:10;}
	.st2{fill:none;stroke:#1C9A48;stroke-width:0.9936;stroke-miterlimit:10;}
</style>
<rect x="16.4" y="11.2" class="st0" width="368.9" height="133.5"/>
<rect x="24.9" y="20.3" class="st0" width="136.7" height="115.9"/>
<rect x="240.3" y="20.4" class="st0" width="136.7" height="115.9"/>
<path class="st1" d="M354,78.7l3.6-4.3l-4.3-3.6l2.8-4.9l-4.9-2.8l1.9-5.3l-5.3-1.9l1-5.5l-5.5-1v-5.6h-5.6l-1-5.5l-5.5,1l-1.9-5.3
	l-5.3,1.9l-2.8-4.9l-4.9,2.8l-3.6-4.3l-4.3,3.6l-4.3-3.6l-3.6,4.3l-4.9-2.8l-2.8,4.9l-5.3-1.9l-1.9,5.3l-5.5-1l-1,5.5h-5.6v5.6
	l-5.5,1l1,5.5l-5.3,1.9l1.9,5.3l-4.9,2.8l2.8,4.9l-4.3,3.6l3.6,4.3l-3.6,4.3l4.3,3.6l-2.8,4.9l4.9,2.8l-1.9,5.3l5.3,1.9l-1,5.5
	l5.5,1v5.6h5.6l1,5.5l5.5-1l1.9,5.3l5.3-1.9l2.8,4.9l4.9-2.8l3.6,4.3l4.3-3.6l4.3,3.6l3.6-4.3l4.9,2.8l2.8-4.9l5.3,1.9l1.9-5.3
	l5.5,1l1-5.5h5.6V108l5.5-1l-1-5.5l5.3-1.9l-1.9-5.3l4.9-2.8l-2.8-4.9l4.3-3.6L354,78.7z M308.4,117.2c-21.3,0-38.5-17.2-38.5-38.5
	s17.2-38.5,38.5-38.5s38.5,17.2,38.5,38.5C346.9,99.9,329.6,117.2,308.4,117.2z"/>
<path class="st1" d="M336.5,71.7c-3.1-0.5-7.2,1.5-7.2,1.5c-10.2,5.2-14.9,2.4-14.9,2.4l0,0l-0.1-1.1c0,0-2.2-2.5-6-2.8
	c0.6-0.5,1.2-1.4,1-2.6c-0.2-2-1.7-3-2.2-3.3c0,0-2.1,1-2.4,3.3c-0.1,1.2,0.4,2.1,1.1,2.6c-1.3,0.1-3.9,0.8-6.5,4.3
	c0,0,0.1,0.1,0.2,0.1c-0.2-0.1-0.3-0.1-0.3-0.1c-1.4,0.5-2.7,2.1-3.1,2.7c0-1-0.2-4.2-0.9-5c-0.8-0.9-3.6-1.1-4.8-1.2
	c-1.5-0.1-4.7-0.3-6.1,0.4c-1.9,0.9-2.2,2.2-2.2,3.1c0.1,1.2,1.7,3.3,2.7,4c1.3,1,6.3,1.8,6.3,1.8s-1.4,0.7-1.6,1.2
	c-0.5,1.7,0.8,2.4,1.6,2.7c1.1,0.4,2.8-0.9,2.8-0.9l0.7-0.9l0.9,0.1c0.7,2.4,2.9,4,5.3,4.9c-0.9,0.7-1.5,1.4-1.5,1.4
	c-0.5,3.4,6,3.5,7.4,3.5s7.9-0.1,7.4-3.5c0,0-0.6-0.6-1.5-1.4c8.3-2.8,14.2-9.8,14.2-9.8c2.5-3.1,6.2-4.6,6.2-4.6s2.3-0.8,3.7-1.2
	C337.6,73.2,336.5,71.7,336.5,71.7z M288.4,77.9c-2.8-1.9-0.9-2.7-0.9-2.7c4.8-1.4,6.5,5.5,6.5,5.5V81
	C293.5,81.3,291.2,79.9,288.4,77.9z"/>
<rect x="169.8" y="20.7" class="st2" width="63.3" height="123.9"/>
<path class="st2" d="M225.8,105.8L225.8,105.8c-1.1,0-2-0.9-2-2V74.3c0-1.1,0.9-2,2-2l0,0c1.1,0,2,0.9,2,2v29.5
	C227.8,104.9,226.9,105.8,225.8,105.8z"/>
<g>
	<path class="st0" d="M56.1,71.2h-1c-1.9,0-2.8-0.6-2.8-1.9c0-0.9,0.3-1.6,1-2.1c0.6-0.5,1.6-0.8,2.7-0.8h2.8l0.6-0.8
		c4.2-5.7,8.4-8.5,12.6-8.5c2.1,0,3.8,0.6,5.1,1.8c1.3,1.2,2,2.8,2,4.7c0,2.7-1.3,4.7-3.8,6.2c-1.7,1-4.2,1.4-7.5,1.4h-6
		c-2,3.8-3,6.9-3,9.6c0,1.5,0.4,2.7,1.2,3.5c0.8,0.9,1.8,1.3,3.1,1.3c1.8,0,3.6-1,5.3-3.1s3.1-4.7,3.9-7.9l0.3-1.2
		c0.4-1.6,1.3-2.5,2.7-2.5c0.7,0,1.3,0.3,1.7,0.8c0.4,0.5,0.7,1.2,0.7,2c0,2.6-1.1,5.7-3.4,9.3c-3.1,5-6.9,7.5-11.3,7.5
		c-2.7,0-5-0.9-6.7-2.8s-2.6-4.2-2.6-7.1C53.5,78,54.4,74.8,56.1,71.2z M64.9,66.4h3.9c3.3,0,5-0.9,5-2.7c0-0.5-0.2-1-0.7-1.3
		c-0.4-0.4-1-0.5-1.7-0.5c-1,0-2.1,0.4-3.3,1.2S65.9,65,64.9,66.4z"/>
	<path class="st0" d="M83.2,83.4L78,96.3c-0.7,1.8-1.8,2.7-3.2,2.7c-0.5,0-1-0.2-1.4-0.5s-0.6-0.8-0.6-1.3c0-0.4,0.2-1,0.5-1.9
		L83,71.4c0.5-1.2,1.4-1.8,2.6-1.8c0.8,0,1.5,0.4,2,1.2c0.9-1,2.1-1.5,3.4-1.5c1.4,0,2.5,0.5,3.4,1.6s1.3,2.5,1.3,4.2
		c0,3.3-1,6-3.1,8.1c-0.7,0.7-1.4,1.2-2.1,1.4c-0.7,0.3-1.7,0.4-3,0.4c-1.4,0-2.3-0.1-2.8-0.3S83.8,84.1,83.2,83.4z M84.9,79.3
		c0.3,0.6,0.7,1,1,1.1c0.3,0.2,0.8,0.3,1.4,0.3c1,0,1.7-0.4,2.2-1.1c1.1-1.4,1.6-2.9,1.6-4.4c0-1.3-0.6-2-1.8-2
		c-1.4,0-2.3,0.8-2.9,2.4c-0.1,0.2-0.1,0.3-0.2,0.4L84.9,79.3z"/>
	<path class="st0" d="M101.7,79.1c0,1,0.8,1.5,2.3,1.5h6c1.7,0,2.5,0.6,2.5,1.8c0,0.8-0.3,1.5-0.9,1.9c-0.6,0.5-1.4,0.7-2.5,0.7
		h-5.7c-2.1,0-3.7-0.5-4.8-1.6c-1.1-1-1.7-2.6-1.7-4.6c0-2.6,0.9-4.8,2.6-6.7s3.8-2.8,6.2-2.8c1.8,0,3.2,0.5,4.2,1.4
		s1.6,2.1,1.6,3.6c0,1.8-0.7,3.1-2.2,4c-0.8,0.5-2,0.7-3.7,0.7L101.7,79.1L101.7,79.1z M102.6,75.4h2.2c1.4,0,2.1-0.3,2.1-0.9
		c0-0.7-0.5-1.1-1.4-1.1C104.3,73.4,103.4,74.1,102.6,75.4z"/>
	<path class="st0" d="M128.1,80.6h2.4c1.7,0,2.6,0.6,2.6,1.8c0,0.8-0.3,1.5-0.9,1.9s-1.4,0.7-2.5,0.7h-4.2c-0.8,0-1.5-0.2-2.1-0.7
		s-0.8-1.1-0.8-1.9c0-0.5,0.2-1.1,0.6-2L125,76c0.2-0.5,0.3-0.8,0.3-1.1c0-0.3-0.1-0.6-0.4-0.8c-0.3-0.2-0.6-0.3-1.1-0.3
		c-1.4,0-2.5,1-3.3,3.1l-2.4,5.8c-0.7,1.8-1.8,2.7-3.2,2.7c-0.6,0-1.1-0.2-1.5-0.5s-0.6-0.8-0.6-1.3c0-0.4,0.1-0.8,0.3-1.3l0.2-0.5
		l4.1-10c0.5-1.3,1.4-2,2.7-2c1,0,1.8,0.5,2.2,1.4c1.4-1.1,2.8-1.6,4.1-1.6c1.3,0,2.3,0.4,3.1,1.1s1.2,1.6,1.2,2.8
		c0,0.6-0.1,1.3-0.4,2L128.1,80.6z"/>
</g>
</svg>
