<?xml version="1.0" encoding="utf-8"?>
<!-- Generator: Adobe Illustrator 19.2.1, SVG Export Plug-In . SVG Version: 6.00 Build 0)  -->
<svg version="1.1" id="Layer_1" xmlns="http://www.w3.org/2000/svg" xmlns:xlink="http://www.w3.org/1999/xlink" x="0px" y="0px"
	 viewBox="0 0 300 300" style="enable-background:new 0 0 300 300;" xml:space="preserve">
<style type="text/css">
	.st0{fill:none;stroke:#1C9A48;}
</style>
<g id="Check">
</g>
<g id="Lock">
	<g>
		<path class="st0" d="M236.4,150.9h-18.8V98.2h0c-0.3-37.1-30.4-67.1-67.6-67.1s-67.3,30-67.6,67.1h0v52.7H63.6
			c-4.1,0-7.5,3.4-7.5,7.5v105.1c0,4.1,3.4,7.5,7.5,7.5h172.7c4.1,0,7.5-3.4,7.5-7.5V158.4C243.9,154.3,240.5,150.9,236.4,150.9z
			 M108.7,98.2c0,0.1,0,0.1,0,0.2c0.2-22.6,18.7-41,41.3-41s41.1,18.4,41.3,41c0-0.1,0-0.1,0-0.2v52.7h-82.6V98.2z M164.1,230h-28.3
			l9.1-26.5c-5.8-2.1-9.9-7.5-9.9-14c0-8.3,6.7-15,15-15s15,6.7,15,15c0,6.5-4.2,12-9.9,14L164.1,230z"/>
	</g>
</g>
</svg>
