<?xml version="1.0" encoding="utf-8"?>
<!-- Generator: Adobe Illustrator 19.2.1, SVG Export Plug-In . SVG Version: 6.00 Build 0)  -->
<svg version="1.1" id="Layer_1" xmlns="http://www.w3.org/2000/svg" xmlns:xlink="http://www.w3.org/1999/xlink" x="0px" y="0px"
	 viewBox="0 0 308 52" style="enable-background:new 0 0 308 52;" xml:space="preserve">
<style type="text/css">
	.st0{fill:#0E9948;}
</style>
<path class="st0" d="M59.8,16.3c-3.1-0.5-7.3,1.5-7.3,1.5c-10.3,5.2-15.1,2.5-15.1,2.5c0,0,0,0,0,0l-0.1-1.1c0,0-2.3-2.5-6.1-2.8
	c0.6-0.5,1.2-1.4,1.1-2.6c-0.2-2-1.8-3.1-2.2-3.4c0,0-2.1,1-2.4,3.4c-0.2,1.2,0.5,2.1,1.1,2.6c-1.3,0.1-4,0.8-6.6,4.4
	c0,0,0.1,0.1,0.2,0.1c-0.2-0.1-0.3-0.1-0.3-0.1c-1.5,0.5-2.7,2.2-3.1,2.7c0-1-0.2-4.2-0.9-5c-0.9-0.9-3.6-1.1-4.9-1.2
	C11.6,17.1,8.4,17,7,17.7c-1.9,0.9-2.2,2.2-2.2,3.1c0.1,1.2,1.7,3.3,2.7,4c1.3,1,6.4,1.8,6.4,1.8s-1.5,0.8-1.6,1.2
	c-0.5,1.7,0.8,2.4,1.6,2.8c1.1,0.4,2.8-0.9,2.8-0.9l0.7-0.9l0.9,0.1c0.7,2.5,3,4,5.4,4.9c-0.9,0.7-1.5,1.4-1.5,1.4
	c-0.5,3.4,6.1,3.6,7.5,3.6c1.4,0,8-0.1,7.5-3.6c0,0-0.6-0.6-1.5-1.4c8.4-2.8,14.4-9.9,14.4-9.9c2.5-3.1,6.2-4.7,6.2-4.7
	s2.3-0.8,3.7-1.2C60.9,17.8,59.8,16.3,59.8,16.3z M11.1,22.6c-2.8-2-0.9-2.8-0.9-2.8c4.9-1.4,6.6,5.6,6.6,5.6l0.1,0.3
	C16.4,26,14,24.6,11.1,22.6z"/>
<g>
	<path class="st0" d="M81,32.8c-1.4,1.4-2.8,2.4-4,3c-1.2,0.6-2.5,0.9-3.8,0.9c-1.5,0-2.8-0.4-3.9-1.1c-1.1-0.7-1.9-1.8-2.5-3.1
		c-0.6-1.4-0.9-2.9-0.9-4.8c0-2.3,0.6-4.6,1.8-7.1c1.2-2.4,2.8-4.7,4.8-6.8c2-2.1,4.2-3.7,6.6-5c2.4-1.2,4.7-1.9,7-1.9
		c3.6,0,5.4,1.6,5.4,4.8c0,1.2-0.3,2.4-1,3.6c-0.7,1.2-1.6,2.1-2.7,2.8c-1.1,0.7-2.3,1.1-3.5,1.1c-0.5,0-0.8-0.2-0.8-0.5
		c0-0.1,0.1-0.3,0.3-0.7c0.4-0.8,0.7-1.6,0.9-2.5c0.2-1.3,0.3-2.2,0.3-2.9c0-1.2-0.1-1.8-0.4-1.8c-0.7,0-1.6,0.5-2.8,1.4
		c-1.2,1-2.2,2-3,3.2c-0.7,1-1.4,2.2-2,3.5c-0.6,1.4-1.1,2.7-1.4,4.1c-0.3,1.4-0.5,2.7-0.5,3.8c0,1.1,0.2,2,0.7,2.7
		c0.5,0.7,1.1,1.1,1.9,1.1c1.3,0,2.8-1.7,4.4-5c0.5-0.9,0.9-1.5,1-1.8c0.2-0.3,0.4-0.5,0.8-0.7c0.9-0.6,2-1.1,3.4-1.5
		c1.4-0.4,2.4-0.7,3.2-0.7c0.9,0,1.3,0.4,1.3,1.3c0,0.1,0,0.4-0.1,0.9c-1,4.2-2.3,8.1-3.7,11.6c-1.5,3.5-2.9,6-4.2,7.5
		c-0.6,0.7-1.6,1.2-2.8,1.7c-1.2,0.4-2.5,0.7-3.8,0.7c-1.1,0-2.1-0.2-3.2-0.5c-1.1-0.4-2-0.8-2.7-1.4c-0.7-0.6-1.1-1.1-1.1-1.7
		c0-0.4,0.2-0.8,0.6-1.2c0.4-0.5,0.9-0.9,1.6-1.4c1.1-0.7,1.8-1.1,2.2-1.1c0.4,0,0.9,0.4,1.6,1.2c0.8,0.9,1.7,1.7,2.6,2.4
		c0.5-1.2,1-2.6,1.5-4.3C80.7,35.1,80.9,33.8,81,32.8z"/>
	<path class="st0" d="M101,30.8c0.2,0.9,0.7,1.3,1.7,1.3c1.1,0,2.5-0.6,4.2-1.9c1-0.7,1.7-1.1,2-1.1c0.4,0,0.8,0.1,1.2,0.3
		c0.4,0.2,0.6,0.5,0.6,0.7c0,0.3-0.2,0.6-0.6,1c-0.8,0.8-1.6,1.5-2.6,2.2c-1,0.7-1.9,1.3-2.9,1.8c-0.9,0.5-1.8,0.9-2.8,1.1
		c-0.9,0.3-1.7,0.4-2.5,0.4c-1.8,0-3.2-0.5-4.3-1.5c-1.1-1-1.6-2.4-1.6-4.1c0-1.3,0.3-2.8,0.9-4.4c0.6-1.6,1.3-3.2,2.3-4.6
		c1.1-1.7,2.5-3.1,4.2-4.2c2-1.4,4-2,5.9-2c1.4,0,2.4,0.4,3.2,1.3s1.2,2,1.2,3.5c0,1.2-0.3,2.4-0.9,3.6c-0.6,1.3-1.5,2.5-2.7,3.6
		c-1,1-1.9,1.7-2.9,2.3c-0.9,0.5-1.8,0.8-2.5,0.8C101.6,31,101.3,30.9,101,30.8z M100.9,30.1c0.7-0.4,1.2-0.9,1.5-1.3
		c0.8-0.9,1.4-2,1.8-3.2c0.3-0.8,0.6-1.7,0.8-2.7c0.2-1,0.3-1.9,0.3-2.7c0-0.8-0.2-1.2-0.5-1.2c-0.5,0-1.2,1-2.1,3
		c-0.6,1.2-1,2.4-1.4,3.7c-0.4,1.2-0.5,2.3-0.5,3.1C100.7,29.1,100.8,29.5,100.9,30.1z"/>
	<path class="st0" d="M121.6,25.4l1.3-1.5c1.3-1.5,2.4-2.5,3.1-3.3c0.8-0.7,1.5-1.2,2.1-1.5c0.6-0.3,1.2-0.5,1.9-0.5
		c1,0,1.7,0.3,2.2,0.8c0.4,0.5,0.6,1.5,0.6,2.8c0,0.6-0.1,1.4-0.2,2.5c-0.2,1.5-0.3,2.8-0.3,4.1c0,1.4,0.1,2.6,0.2,3.5
		c0.1,0.5,0.3,1.1,0.5,1.6c0.1,0.5,0.2,0.9,0.2,1.1c0,0.2-0.1,0.4-0.3,0.5c-0.4,0.4-1,0.7-1.8,1c-0.7,0.3-1.4,0.4-1.9,0.4
		c-0.8,0-1.6-0.3-2.2-0.8c-0.7-0.6-1.2-1.3-1.6-2.3c-0.4-1-0.5-2.1-0.5-3.4c0-0.8,0.1-1.8,0.3-3l-0.1-0.1c-0.6,0.7-1.1,1.2-1.5,1.6
		c-0.4,0.4-0.7,0.8-1.1,1.1c-1.6,1.8-3,3.5-4.1,5c-0.4,0.6-0.8,1.1-1.2,1.5c-0.5,0.5-1.1,0.8-1.8,0.8c-0.9,0-1.7-0.3-2.2-1
		c-0.6-0.7-0.9-1.6-0.9-2.7c0-0.7,0.1-1.5,0.2-2.5c0.2-1,0.4-2,0.6-3.1c0.3-1.1,0.6-2.3,0.9-3.4c0.4-1.2,0.8-2.3,1.2-3.4
		c0.7-1.8,1.5-3.1,2.4-4.1c0.6-0.6,1.4-1,2.4-1c1.5,0,2.2,1,2.2,2.9C122.4,20.6,122.1,22.7,121.6,25.4L121.6,25.4z"/>
	<path class="st0" d="M138,37c-0.6,0-1.2-0.3-1.8-0.9c-0.5-0.6-0.9-1.2-1.1-1.9c-0.2-0.7-0.3-1.5-0.3-2.6c0-2.4,0.4-5.1,1.3-8
		s1.9-5.1,3-6.5c0.4-0.6,1.1-0.8,1.9-0.8c0.8,0,1.5,0.4,2,1.1c0.5,0.8,0.8,1.8,0.8,3c0,1.8-0.3,4-0.8,6.4c-0.5,2.5-1.3,5-2.2,7.6
		c-0.4,1.1-0.8,1.8-1.4,2.2C139,36.9,138.6,37,138,37L138,37z M140.6,15.3c-1.4,0-2-0.9-2-2.4c0-0.8,0.2-1.7,0.6-2.8
		s0.8-1.8,1.3-2.3c0.3-0.3,0.5-0.5,0.8-0.6c0.3-0.1,0.6-0.2,1-0.2c0.7,0,1.2,0.2,1.6,0.5c0.3,0.4,0.5,0.9,0.5,1.8c0,1-0.2,2-0.5,2.9
		c-0.4,0.9-0.8,1.7-1.4,2.2C141.9,15,141.3,15.3,140.6,15.3L140.6,15.3z"/>
	<path class="st0" d="M150,15.9l0.1-0.3c1-2.7,1.8-4.6,2.5-5.7c0.3-0.5,0.8-1,1.4-1.4c1.1-0.7,2.2-1.1,3.1-1.1c0.6,0,1,0.1,1.3,0.4
		c0.3,0.3,0.5,0.6,0.5,1.1c0,0.3-0.2,1-0.7,2c-0.7,1.7-1.3,3.3-1.6,4.8c0.2,0,0.5,0.1,0.7,0.1c0.9,0.1,1.4,0.3,1.7,0.4
		c0.3,0.2,0.4,0.5,0.4,0.9c0,0.8-0.2,1.5-0.6,2.1c-0.4,0.6-0.9,1.1-1.5,1.4c-0.5,0.2-1.2,0.4-2.3,0.4c-0.2,0.6-0.4,1.3-0.6,2.3
		c-0.1,0.9-0.3,2.1-0.4,3.6c-0.1,0.6-0.1,1.1-0.1,1.6c0,2.3,1.1,3.4,3.3,3.4h0.1h0.1c0.3,0,0.4,0,0.4,0.1c0,0.2-0.2,0.6-0.7,1.2
		c-0.5,0.5-1,1-1.6,1.4c-0.6,0.4-1.3,0.8-2.1,1c-0.7,0.3-1.4,0.4-2,0.4c-1.5,0-2.7-0.5-3.7-1.5c-0.9-1-1.4-2.4-1.4-4.1
		c0-0.7,0.1-1.7,0.4-2.8c0.3-1.2,0.6-2.7,1.2-4.7c0.1-0.3,0.2-0.7,0.3-1.1c0.1-0.4,0.2-0.6,0.2-0.7c-0.6,0-1-0.1-1.2-0.4
		c-0.2-0.2-0.4-0.6-0.4-1.1c0-0.9,0.3-1.8,1-2.6C148.3,16.6,149.1,16.1,150,15.9z"/>
	<path class="st0" d="M175.9,30.5L175.9,30.5L175.9,30.5c-1.4,1.6-2.7,2.9-3.8,3.9c-1.1,1-2.1,1.8-3.1,2.3c-0.9,0.5-1.8,0.8-2.6,0.8
		c-1.6,0-2.9-0.5-4-1.6c-1-1.1-1.6-2.4-1.6-4.1c0-1,0.3-2.2,0.8-3.6c0.5-1.4,1.2-2.8,2.1-4.1c1.5-2.2,3.4-4,5.7-5.6
		c2.4-1.6,4.6-2.4,6.8-2.4c1.8,0,3.4,0.4,4.5,1.1c1.2,0.8,1.8,1.7,1.8,2.9c0,0.8-0.3,1.7-0.9,2.7c0.8,0,1.3,0.1,1.5,0.2
		c0.2,0.2,0.3,0.6,0.3,1.2c0-0.1,0,0.2-0.1,0.9c-0.1,1.4-0.1,2.8-0.1,4c0,0.6,0,1.1,0,1.5c0,0.3,0,0.7,0.1,1.1c0,0.4,0.1,0.8,0.1,1
		c0.1,0.7,0.3,1.3,0.6,2c-0.9,0.8-1.7,1.5-2.5,1.9c-0.8,0.4-1.6,0.6-2.4,0.6c-2.2,0-3.3-1.9-3.3-5.6
		C175.9,31.1,175.9,30.8,175.9,30.5z M177.2,25.6l-0.4,0.1c-1,0.3-1.8,0.4-2.2,0.4c-0.6,0-0.8-0.1-0.8-0.4c0-0.1,0.1-0.4,0.3-0.8
		c0.8-1.2,1.2-2.4,1.2-3.5c0-0.6-0.1-1.2-0.3-1.7c-0.2-0.5-0.5-0.8-0.7-0.8c-0.2,0-0.6,0.2-1.1,0.7c-1.3,1.5-2.4,2.9-3.2,4.5
		c-0.8,1.5-1.2,2.9-1.2,4.1c0,0.8,0.2,1.4,0.5,2c0.3,0.5,0.7,0.8,1.2,0.8c0.4,0,1.2-0.4,2.3-1.3c1.1-0.9,2.4-2.1,3.9-3.5L177.2,25.6
		L177.2,25.6z"/>
	<path class="st0" d="M197.2,20.7c0.6-1.6,1.1-3.3,1.4-5.1c0.4-1.8,0.6-3.1,0.6-4.1c0-0.3-0.1-0.4-0.2-0.4c-0.2,0-0.6,0.5-1.2,1.5
		c-0.6,1-1.1,2.1-1.4,3.1c-0.8,2.3-1.5,4.3-1.9,5.8c-0.5,1.5-0.8,2.8-0.9,3.9c-0.2,1-0.3,2.1-0.3,3.2c0,0.9,0.1,1.6,0.3,2
		c0.2,0.4,0.5,0.6,1,0.6c0.8,0,1.7-0.3,2.7-1c1-0.7,1.9-1.6,2.7-2.8c0.6-0.8,1.1-1.3,1.4-1.3c0.4,0,0.7,0.4,0.7,1.1
		c0,1.5-0.5,3-1.4,4.5c-1,1.5-2.2,2.7-3.7,3.6c-1.5,0.9-3.1,1.4-4.7,1.4c-1.9,0-3.5-0.6-4.7-1.8c-1.2-1.2-1.8-2.8-1.8-4.8
		c0-1.6,0.3-3.5,1-5.7c0.7-2.2,1.6-4.3,2.8-6.5c1.2-2.2,2.4-4.2,3.8-6c1.4-1.8,2.7-3.2,4.1-4.1C198.1,7.3,199,7,200,7
		c0.8,0,1.5,0.2,2.1,0.7c0.6,0.5,1.1,1.2,1.5,2c0.3,0.9,0.5,1.8,0.5,2.9c0,2.3-0.4,4.5-1.3,6.6c-0.9,2.2-2.1,4-3.7,5.6
		c-0.7,0.8-1.5,1.4-2.2,1.8c-0.7,0.4-1.3,0.6-1.8,0.6c-0.5,0-0.8-0.2-0.8-0.6c0-0.2,0.2-0.6,0.6-1.2c0.5-0.8,1.1-2,1.8-3.6
		c0.1-0.2,0.1-0.3,0.2-0.5C197,21.2,197.1,21,197.2,20.7z"/>
	<path class="st0" d="M220.9,32.8c-1.4,1.4-2.8,2.4-4,3c-1.2,0.6-2.5,0.9-3.8,0.9c-1.5,0-2.8-0.4-3.9-1.1c-1.1-0.7-1.9-1.8-2.5-3.1
		c-0.6-1.4-0.9-2.9-0.9-4.8c0-2.3,0.6-4.6,1.8-7.1c1.2-2.4,2.8-4.7,4.8-6.8c2-2.1,4.2-3.7,6.6-5c2.4-1.2,4.7-1.9,7-1.9
		c3.6,0,5.4,1.6,5.4,4.8c0,1.2-0.3,2.4-1,3.6c-0.7,1.2-1.6,2.1-2.7,2.8c-1.1,0.7-2.3,1.1-3.5,1.1c-0.5,0-0.8-0.2-0.8-0.5
		c0-0.1,0.1-0.3,0.3-0.7c0.4-0.8,0.7-1.6,0.9-2.5c0.2-1.3,0.3-2.2,0.3-2.9c0-1.2-0.1-1.8-0.4-1.8c-0.7,0-1.6,0.5-2.8,1.4
		c-1.2,1-2.2,2-3,3.2c-0.7,1-1.4,2.2-2,3.5s-1.1,2.7-1.4,4.1c-0.3,1.4-0.5,2.7-0.5,3.8c0,1.1,0.2,2,0.7,2.7c0.5,0.7,1.1,1.1,1.9,1.1
		c1.3,0,2.8-1.7,4.4-5c0.5-0.9,0.9-1.5,1-1.8c0.2-0.3,0.4-0.5,0.8-0.7c0.9-0.6,2-1.1,3.4-1.5c1.4-0.4,2.4-0.7,3.2-0.7
		c0.9,0,1.3,0.4,1.3,1.3c0,0.1,0,0.4-0.1,0.9c-1,4.2-2.3,8.1-3.7,11.6c-1.5,3.5-2.9,6-4.2,7.5c-0.6,0.7-1.6,1.2-2.8,1.7
		c-1.2,0.4-2.5,0.7-3.8,0.7c-1.1,0-2.1-0.2-3.2-0.5c-1.1-0.4-2-0.8-2.7-1.4c-0.7-0.6-1.1-1.1-1.1-1.7c0-0.4,0.2-0.8,0.6-1.2
		c0.4-0.5,0.9-0.9,1.6-1.4c1.1-0.7,1.8-1.1,2.2-1.1c0.4,0,0.9,0.4,1.6,1.2c0.8,0.9,1.7,1.7,2.6,2.4c0.5-1.2,1-2.6,1.5-4.3
		C220.6,35.1,220.8,33.8,220.9,32.8z"/>
	<path class="st0" d="M240.9,30.8c0.2,0.9,0.7,1.3,1.7,1.3c1.1,0,2.5-0.6,4.2-1.9c1-0.7,1.7-1.1,2-1.1c0.4,0,0.8,0.1,1.2,0.3
		c0.4,0.2,0.6,0.5,0.6,0.7c0,0.3-0.2,0.6-0.6,1c-0.8,0.8-1.6,1.5-2.6,2.2c-1,0.7-2,1.3-2.9,1.8s-1.8,0.9-2.8,1.1
		c-0.9,0.3-1.7,0.4-2.5,0.4c-1.8,0-3.2-0.5-4.3-1.5c-1.1-1-1.6-2.4-1.6-4.1c0-1.3,0.3-2.8,0.9-4.4c0.6-1.6,1.3-3.2,2.3-4.6
		c1.1-1.7,2.5-3.1,4.2-4.2c2-1.4,4-2,5.9-2c1.4,0,2.4,0.4,3.2,1.3c0.8,0.9,1.2,2,1.2,3.5c0,1.2-0.3,2.4-0.9,3.6
		c-0.6,1.3-1.5,2.5-2.7,3.6c-1,1-1.9,1.7-2.9,2.3c-0.9,0.5-1.8,0.8-2.5,0.8C241.5,31,241.2,30.9,240.9,30.8z M240.8,30.1
		c0.7-0.4,1.2-0.9,1.5-1.3c0.8-0.9,1.4-2,1.8-3.2c0.3-0.8,0.6-1.7,0.8-2.7s0.3-1.9,0.3-2.7c0-0.8-0.2-1.2-0.5-1.2
		c-0.5,0-1.2,1-2.1,3c-0.6,1.2-1,2.4-1.4,3.7c-0.4,1.2-0.5,2.3-0.5,3.1C240.6,29.1,240.7,29.5,240.8,30.1z"/>
	<path class="st0" d="M261.5,25.4l1.3-1.5c1.3-1.5,2.4-2.5,3.1-3.3c0.8-0.7,1.5-1.2,2.1-1.5c0.6-0.3,1.2-0.5,1.9-0.5
		c1,0,1.7,0.3,2.2,0.8c0.4,0.5,0.6,1.5,0.6,2.8c0,0.6-0.1,1.4-0.2,2.5c-0.2,1.5-0.3,2.8-0.3,4.1c0,1.4,0.1,2.6,0.2,3.5
		c0.1,0.5,0.3,1.1,0.5,1.6c0.1,0.5,0.2,0.9,0.2,1.1c0,0.2-0.1,0.4-0.3,0.5c-0.4,0.4-1,0.7-1.8,1c-0.7,0.3-1.4,0.4-1.9,0.4
		c-0.8,0-1.6-0.3-2.2-0.8c-0.7-0.6-1.2-1.3-1.6-2.3c-0.4-1-0.5-2.1-0.5-3.4c0-0.8,0.1-1.8,0.3-3l-0.1-0.1c-0.6,0.7-1.1,1.2-1.5,1.6
		c-0.4,0.4-0.7,0.8-1.1,1.1c-1.6,1.8-3,3.5-4.1,5c-0.4,0.6-0.8,1.1-1.2,1.5c-0.5,0.5-1.1,0.8-1.8,0.8c-0.9,0-1.7-0.3-2.2-1
		c-0.6-0.7-0.9-1.6-0.9-2.7c0-0.7,0.1-1.5,0.2-2.5c0.2-1,0.4-2,0.6-3.1c0.3-1.1,0.6-2.3,1-3.4c0.4-1.2,0.8-2.3,1.2-3.4
		c0.7-1.8,1.5-3.1,2.4-4.1c0.6-0.6,1.4-1,2.4-1c1.5,0,2.2,1,2.2,2.9C262.3,20.6,262,22.7,261.5,25.4L261.5,25.4z"/>
	<path class="st0" d="M277.9,37c-0.6,0-1.2-0.3-1.8-0.9c-0.5-0.6-0.9-1.2-1.1-1.9c-0.2-0.7-0.3-1.5-0.3-2.6c0-2.4,0.4-5.1,1.3-8
		c0.9-3,1.9-5.1,3-6.5c0.4-0.6,1.1-0.8,1.9-0.8c0.8,0,1.5,0.4,2,1.1c0.5,0.8,0.8,1.8,0.8,3c0,1.8-0.3,4-0.8,6.4
		c-0.5,2.5-1.3,5-2.2,7.6c-0.4,1.1-0.8,1.8-1.4,2.2C278.9,36.9,278.5,37,277.9,37L277.9,37z M280.5,15.3c-1.4,0-2-0.9-2-2.4
		c0-0.8,0.2-1.7,0.6-2.8c0.4-1,0.8-1.8,1.3-2.3c0.3-0.3,0.5-0.5,0.8-0.6c0.3-0.1,0.6-0.2,1-0.2c0.7,0,1.2,0.2,1.6,0.5
		c0.3,0.4,0.5,0.9,0.5,1.8c0,1-0.2,2-0.5,2.9c-0.4,0.9-0.8,1.7-1.4,2.2C281.8,15,281.2,15.3,280.5,15.3L280.5,15.3z"/>
	<path class="st0" d="M293.3,30.8c0.2,0.9,0.7,1.3,1.7,1.3c1.1,0,2.5-0.6,4.2-1.9c1-0.7,1.7-1.1,2-1.1c0.4,0,0.8,0.1,1.2,0.3
		c0.4,0.2,0.6,0.5,0.6,0.7c0,0.3-0.2,0.6-0.6,1c-0.8,0.8-1.6,1.5-2.6,2.2c-1,0.7-2,1.3-2.9,1.8s-1.8,0.9-2.8,1.1
		c-0.9,0.3-1.7,0.4-2.5,0.4c-1.8,0-3.2-0.5-4.3-1.5c-1.1-1-1.6-2.4-1.6-4.1c0-1.3,0.3-2.8,0.9-4.4c0.6-1.6,1.3-3.2,2.3-4.6
		c1.1-1.7,2.5-3.1,4.2-4.2c2-1.4,4-2,5.9-2c1.4,0,2.4,0.4,3.2,1.3c0.8,0.9,1.2,2,1.2,3.5c0,1.2-0.3,2.4-0.9,3.6
		c-0.6,1.3-1.5,2.5-2.7,3.6c-1,1-1.9,1.7-2.9,2.3c-0.9,0.5-1.8,0.8-2.5,0.8C293.9,31,293.6,30.9,293.3,30.8z M293.2,30.1
		c0.7-0.4,1.2-0.9,1.5-1.3c0.8-0.9,1.4-2,1.8-3.2c0.3-0.8,0.6-1.7,0.8-2.7s0.3-1.9,0.3-2.7c0-0.8-0.2-1.2-0.5-1.2
		c-0.5,0-1.2,1-2.1,3c-0.6,1.2-1,2.4-1.4,3.7c-0.4,1.2-0.5,2.3-0.5,3.1C293.1,29.1,293.1,29.5,293.2,30.1z"/>
</g>
</svg>
