<svg id="Layer_1" data-name="Layer 1" xmlns="http://www.w3.org/2000/svg" xmlns:xlink="http://www.w3.org/1999/xlink" viewBox="0 0 1024 344"><defs><style>.cls-1,.cls-8{fill:none;}.cls-2{clip-path:url(#clip-path);}.cls-3{fill:#fc0;}.cls-4{fill:#109a49;}.cls-5{fill:#fff;}.cls-6{fill:#e5e5e5;}.cls-7{fill:#dedddd;}.cls-8{stroke:#0c7a38;stroke-miterlimit:10;stroke-width:7px;}</style><clipPath id="clip-path"><rect class="cls-1" width="1024" height="344"/></clipPath></defs><title>Artboard 1</title><g class="cls-2"><rect class="cls-3" x="-508.99" y="-4.01" width="1540.99" height="351.36"/><polygon class="cls-4" points="-345.99 -5.65 451.91 -4.01 632.01 183.19 465.05 347.35 -345.99 356.35 -177.99 183.19 -345.99 -5.65"/><polygon class="cls-5" points="450.37 -34.49 429.17 -13.29 619.89 177.43 429.17 368.16 450.37 389.36 662.29 177.43 450.37 -34.49"/><rect class="cls-1" x="-508.99" y="3.35" width="1466" height="344"/><rect class="cls-1" x="-508.99" y="3.35" width="1466" height="344"/><rect class="cls-1" x="-508.99" y="3.35" width="1466" height="344"/><rect class="cls-6" x="684.14" y="164.59" width="260.6" height="123.51"/><polygon class="cls-7" points="814.45 226.41 944.75 164.59 684.14 164.59 814.45 226.41"/><polygon class="cls-7" points="814.45 226.41 684.14 288.1 944.75 288.1 814.45 226.41"/><polygon class="cls-4" points="703.89 174.83 812.72 226.41 921.67 174.83 921.67 88.21 703.89 88.21 703.89 174.83"/><path class="cls-6" d="M830.73,183.47c-6.42,3.45-13.08,4.69-20.85,4.69-19.25,0-35.54-14.07-35.54-36.65,0-24.18,16.78-45,42.82-45,20.36,0,34.18,14.31,34.18,33.93,0,17.64-9.87,27.89-20.85,27.89-4.69,0-9-3.21-8.64-10.36h-.49c-4.07,6.91-9.5,10.36-16.53,10.36-6.79,0-12.71-5.55-12.71-14.81a27.64,27.64,0,0,1,27.76-27.76,32.05,32.05,0,0,1,12.59,2.47l-3.95,21.22c-1.73,8.88-.37,13.08,3.58,13.08,5.92.12,12.71-7.9,12.71-21.47,0-17-10.24-29.24-28.38-29.24-19.13,0-35.17,15.18-35.17,39,0,19.62,12.83,31.71,30.11,31.71,6.66,0,13-1.36,17.77-4.07Zm-6.42-50.59a20.06,20.06,0,0,0-5.92-.86c-10.36,0-18.63,9.75-18.63,21.1,0,5.18,2.59,8.88,7.77,8.88,6.79,0,13.08-8.64,14.31-15.92Z"/><rect class="cls-1" x="-143" y="2.85" width="1024" height="344"/><path class="cls-8" d="M134.4,159.08H129.9c-8.54,0-12.58-2.7-12.58-8.54,0-4,1.35-7.19,4.49-9.43,2.7-2.25,7.19-3.59,12.13-3.59h12.58l2.7-3.59c18.87-25.61,37.74-38.19,56.6-38.19q14.15,0,22.91,8.09a27.8,27.8,0,0,1,9,21.11c0,12.13-5.84,21.11-17.07,27.85-7.64,4.49-18.87,6.29-33.69,6.29H160c-9,17.07-13.48,31-13.48,43.13,0,6.74,1.8,12.13,5.39,15.72,3.59,4,8.09,5.84,13.93,5.84,8.09,0,16.17-4.49,23.81-13.93a90.7,90.7,0,0,0,17.52-35.49l1.35-5.39c1.8-7.19,5.84-11.23,12.13-11.23a9.6,9.6,0,0,1,7.64,3.59,14.47,14.47,0,0,1,3.14,9c0,11.68-4.94,25.61-15.27,41.78-13.93,22.46-31,33.69-50.76,33.69-12.13,0-22.46-4-30.1-12.58s-11.68-18.87-11.68-31.9C122.72,189.63,126.76,175.25,134.4,159.08Zm39.53-21.56h17.52c14.82,0,22.46-4,22.46-12.13a6.55,6.55,0,0,0-3.14-5.84c-1.8-1.8-4.49-2.25-7.64-2.25q-6.74,0-14.82,5.39C182.91,126.28,178.42,131.23,173.93,137.52Z"/><path class="cls-8" d="M256.14,213.89l-23.36,58c-3.14,8.09-8.09,12.13-14.38,12.13a10.73,10.73,0,0,1-6.29-2.25,7.24,7.24,0,0,1-2.7-5.84c0-1.8.9-4.49,2.25-8.54L255.24,160c2.25-5.39,6.29-8.09,11.68-8.09,3.59,0,6.74,1.8,9,5.39a20.12,20.12,0,0,1,15.27-6.74,18.52,18.52,0,0,1,15.27,7.19c4,4.94,5.84,11.23,5.84,18.87,0,14.82-4.49,27-13.93,36.39-3.14,3.14-6.29,5.39-9.43,6.29-3.14,1.35-7.64,1.8-13.48,1.8-6.29,0-10.33-.45-12.58-1.35S258.83,217,256.14,213.89Zm7.64-18.42c1.35,2.7,3.14,4.49,4.49,4.94a11.9,11.9,0,0,0,6.29,1.35,11.36,11.36,0,0,0,9.88-4.94A31.58,31.58,0,0,0,291.63,177c0-5.84-2.7-9-8.09-9-6.29,0-10.33,3.59-13,10.78-.45.9-.45,1.35-.9,1.8Z"/><path class="cls-8" d="M339.25,194.57c0,4.49,3.59,6.74,10.33,6.74h27c7.64,0,11.23,2.7,11.23,8.09,0,3.59-1.35,6.74-4,8.54-2.7,2.25-6.29,3.14-11.23,3.14H346.88c-9.43,0-16.62-2.25-21.56-7.19-4.94-4.49-7.64-11.68-7.64-20.66a43.63,43.63,0,0,1,11.68-30.1,36,36,0,0,1,27.85-12.58c8.09,0,14.38,2.25,18.87,6.29A21,21,0,0,1,383.27,173c0,8.09-3.14,13.93-9.88,18-3.59,2.25-9,3.14-16.62,3.14l-17.52.45Zm4-16.62h9.88q9.43,0,9.43-4c0-3.14-2.25-4.94-6.29-4.94C350.93,169,346.88,172.11,343.29,177.95Z"/><path class="cls-8" d="M457.85,201.31h10.78c7.64,0,11.68,2.7,11.68,8.09,0,3.59-1.35,6.74-4,8.54A19.63,19.63,0,0,1,465,221.07H446.17a14.1,14.1,0,0,1-9.43-3.14c-2.7-2.25-3.59-4.94-3.59-8.54,0-2.25.9-4.94,2.7-9l8.09-19.77a13.64,13.64,0,0,0,1.35-4.94,4.09,4.09,0,0,0-1.8-3.59,8.07,8.07,0,0,0-4.94-1.35c-6.29,0-11.23,4.49-14.82,13.93l-10.78,26.06c-3.14,8.09-8.09,12.13-14.38,12.13a11,11,0,0,1-6.74-2.25,7.24,7.24,0,0,1-2.7-5.84,15.51,15.51,0,0,1,1.35-5.84l.9-2.25,18.42-44.92c2.25-5.84,6.29-9,12.13-9a10.33,10.33,0,0,1,9.88,6.29c6.29-4.94,12.58-7.19,18.42-7.19a20.24,20.24,0,0,1,13.93,4.94c3.59,3.14,5.39,7.19,5.39,12.58a22.85,22.85,0,0,1-1.8,9Z"/></g></svg>