<?xml version="1.0" encoding="utf-8"?>
<!-- Generator: Adobe Illustrator 19.2.1, SVG Export Plug-In . SVG Version: 6.00 Build 0)  -->
<svg version="1.1" xmlns="http://www.w3.org/2000/svg" xmlns:xlink="http://www.w3.org/1999/xlink" x="0px" y="0px"
	 viewBox="0 0 300 300" style="enable-background:new 0 0 300 300;" xml:space="preserve">
<style type="text/css">
	.st0{fill:#F8991D;}
	.st1{fill:#0E9948;}
</style>
<g id="Layer_2">
</g>
<g id="Layer_1">
</g>
<g id="Layer_3">
	<g>
		<g>
			<path class="st0" d="M231.5,147.3c-6.5,0-12.1,6.6-12.9,14.9h25.8C243.6,153.9,238,147.3,231.5,147.3z"/>
			<path class="st0" d="M231.5,176.7c-2.6,0-4.6,2.1-4.6,4.6c0,1.9,1.1,3.5,2.7,4.2v7.2c0,1.1,0.9,2,2,2s2-0.9,2-2v-7.2
				c1.6-0.7,2.7-2.3,2.7-4.2C236.1,178.8,234.1,176.7,231.5,176.7z"/>
			<path class="st0" d="M231.5,124c-29.5,0-53.5,24-53.5,53.5c0,29.5,24,53.5,53.5,53.5s53.5-24,53.5-53.5
				C285,148,261,124,231.5,124z M257.9,205.2c0,1.7-1.4,3.1-3.1,3.1h-46.5c-1.7,0-3.1-1.4-3.1-3.1v-39.9c0-1.7,1.4-3.1,3.1-3.1h3.9
				c0.9-12,9.2-21.5,19.3-21.5s18.4,9.5,19.3,21.5h3.9c1.7,0,3.1,1.4,3.1,3.1V205.2z"/>
		</g>
		<path class="st1" d="M187.5,84.8C187.4,84.8,187.4,84.8,187.5,84.8C186.3,51.2,163.9,34,136.5,34c-27.4,0-49.8,17.2-50.9,50.9
			c-0.3,0-0.7,0-1,0c-4.6,0.5-7.5,8.4-6.5,17.7c1,9.2,5.6,16.3,10.2,15.8c0.7-0.1,1.4-0.3,2-0.7c8.1,26.3,25.7,49.5,46.2,49.5
			c20.3,0,37.9-22.9,46.1-49c0.4,0.2,0.8,0.3,1.2,0.3c4.6,0.5,9.2-6.6,10.2-15.8C195,93.3,192.1,85.4,187.5,84.8z"/>
		<path class="st1" d="M231.5,236c-31.8,0-57.5-25.7-57.5-57.5c0-5.5,0.8-10.9,2.3-15.9c-4.8-1.1-9.4-1.9-13.7-2.7
			c-7.7,6.8-16.5,11.1-26.1,11.1c-9.5,0-18.3-4.2-25.9-11c-30,5-75.2,18.1-85.6,52c-4,13-9,61-9,61h119h4h119c0,0-2.4-22.7-5.1-41.1
			C246.3,234.5,239,236,231.5,236z"/>
	</g>
</g>
</svg>
