<svg id="Layer_1" data-name="Layer 1" xmlns="http://www.w3.org/2000/svg" viewBox="0 0 567.78 639.05">
  <defs>
    <style>
      .cls-1 {
        fill: #003300;
      }

      .cls-2, .cls-3 {
        fill: none;
        stroke: #003300;
        stroke-miterlimit: 10;
      }

      .cls-2 {
        stroke-width: 5.12px;
      }

      .cls-3 {
        stroke-width: 4px;
      }
    </style>
  </defs>
  <title>spring2</title>
  <g>
    <path class="cls-1" d="M133.82,644.81H141v36q0,7.28-3.87,11.58a12.76,12.76,0,0,1-9.95,4.31q-6.54,0-10.37-3.81t-3.69-11.13l0.11-.21h6.86q0,5,1.88,7.35a6.27,6.27,0,0,0,5.22,2.39,5.55,5.55,0,0,0,4.78-2.83,13.75,13.75,0,0,0,1.86-7.65v-36Z" transform="translate(-113.11 -66.44)"/>
    <path class="cls-1" d="M172.53,683.06H157.24L153.55,696h-7.42l15.36-51.19h6.93L183.64,696h-7.42Zm-13.68-5.66h12.09L165,656.59h-0.21Z" transform="translate(-113.11 -66.44)"/>
    <path class="cls-1" d="M200.51,684.26l0.74,3.13h0.21l0.74-3.09,10.65-39.48h7.63L204.84,696h-7l-15.61-51.19h7.59Z" transform="translate(-113.11 -66.44)"/>
    <path class="cls-1" d="M246.08,683.06H230.78L227.09,696h-7.42L235,644.81H242L257.19,696h-7.42ZM232.4,677.4h12.09l-5.91-20.81h-0.21Z" transform="translate(-113.11 -66.44)"/>
    <path class="cls-1" d="M269,705.49h-6.22V644.81H269v60.68Z" transform="translate(-113.11 -66.44)"/>
    <path class="cls-1" d="M302.19,683.13a8.41,8.41,0,0,0-2-5.78q-2-2.27-7.07-4.13-7.21-2.25-11.07-5.8a12.22,12.22,0,0,1-3.87-9.46,12.94,12.94,0,0,1,4.27-10,15.57,15.57,0,0,1,11-3.92q7.1,0,11.39,4.36a14.49,14.49,0,0,1,4.15,10.93l-0.07.21H302a10.76,10.76,0,0,0-2.39-7.28,7.9,7.9,0,0,0-6.29-2.78,7.41,7.41,0,0,0-5.89,2.39,8.75,8.75,0,0,0-2.09,6,7.42,7.42,0,0,0,2.21,5.52q2.21,2.18,7.45,4.11,7,2.29,10.65,6a13,13,0,0,1,3.66,9.56A12.49,12.49,0,0,1,305,693q-4.31,3.71-11.3,3.71a18.19,18.19,0,0,1-11.74-4q-5-4-4.82-11.5l0.07-.21h6.89q0,5.2,2.76,7.77a9.66,9.66,0,0,0,6.84,2.57,8.45,8.45,0,0,0,6.22-2.23A8.07,8.07,0,0,0,302.19,683.13Z" transform="translate(-113.11 -66.44)"/>
    <path class="cls-1" d="M324.44,675.82V696H317.3V644.81h16.63q7.28,0,11.41,4.27t4.13,11.23q0,7-4.13,11.25t-11.41,4.25h-9.49Zm0-5.48h9.49a7.41,7.41,0,0,0,6.29-2.83,11.45,11.45,0,0,0,2.14-7.12,11.81,11.81,0,0,0-2.13-7.21,7.34,7.34,0,0,0-6.31-2.88h-9.49v20Z" transform="translate(-113.11 -66.44)"/>
    <path class="cls-1" d="M364.13,674v22H357V644.85h15.08q7.38,0,11.41,3.76t4,10.79a13,13,0,0,1-1.88,7,12.4,12.4,0,0,1-5.4,4.66,9.8,9.8,0,0,1,5.68,4.43,15.45,15.45,0,0,1,1.74,7.66v4.46a20.07,20.07,0,0,0,.46,4.39,6.16,6.16,0,0,0,1.62,3.16V696h-7.35a6.09,6.09,0,0,1-1.56-3.53,31.87,31.87,0,0,1-.37-4.9v-4.32a10.61,10.61,0,0,0-2-6.79A6.64,6.64,0,0,0,373,674h-8.82Zm0-5.45h7.59q4.43,0,6.54-2.34a9.55,9.55,0,0,0,2.11-6.63,10.24,10.24,0,0,0-2.06-6.82q-2.06-2.43-6.24-2.43h-7.95v18.21Z" transform="translate(-113.11 -66.44)"/>
    <path class="cls-1" d="M404.81,696h-7.14V644.81h7.14V696Z" transform="translate(-113.11 -66.44)"/>
    <path class="cls-1" d="M449.6,696h-7.17L422.6,658.24l-0.21.07V696h-7.14V644.81h7.14l19.83,37.65,0.21,0V644.81h7.17V696Z" transform="translate(-113.11 -66.44)"/>
    <path class="cls-1" d="M492,689.32a15.79,15.79,0,0,1-5.82,5.17,20.79,20.79,0,0,1-10.28,2.25q-8,0-12.92-4.89t-4.9-13.92V662.74q0-8.89,4.75-13.78t12.62-4.89q7.77,0,12,4t4.08,11l-0.07.21h-6.71q0-4.61-2.34-7.15t-6.8-2.55a9.28,9.28,0,0,0-7.58,3.36q-2.76,3.36-2.76,9.76v15.26q0,6.54,2.87,10a9.62,9.62,0,0,0,7.79,3.43,12.59,12.59,0,0,0,5.78-1.12,7.72,7.72,0,0,0,3.15-2.74V675.54h-9.42v-5.2H492v19Z" transform="translate(-113.11 -66.44)"/>
    <path class="cls-1" d="M507.46,705.49h-6.22V644.81h6.22v60.68Z" transform="translate(-113.11 -66.44)"/>
    <path class="cls-1" d="M517.27,696V644.81h14.52A17,17,0,0,1,545.34,651q5.26,6.15,5.26,15.82v7.28q0,9.7-5.26,15.82A17,17,0,0,1,531.79,696H517.27Zm7.14-45.7v40.29h7.38a9.76,9.76,0,0,0,8.44-4.62q3.16-4.62,3.16-11.9v-7.35q0-7.17-3.16-11.79a9.76,9.76,0,0,0-8.44-4.62h-7.38Z" transform="translate(-113.11 -66.44)"/>
    <path class="cls-1" d="M583.65,672.23H566.28v18.35h20.46V696h-27.6V644.81h27.42v5.48H566.28v16.49h17.37v5.45Z" transform="translate(-113.11 -66.44)"/>
    <path class="cls-1" d="M615.25,686.58h0.21l12.27-41.77h9.14V696h-7.1V659.12l-0.21,0L617.82,696h-4.89L601,658.52l-0.21,0V696h-7.1V644.81H603Z" transform="translate(-113.11 -66.44)"/>
    <path class="cls-1" d="M680.89,677.47q0,9.11-4.92,14.19t-13.18,5.08q-8.16,0-13-5.08T645,677.47V663.41q0-9.07,4.82-14.2t12.94-5.13q8.26,0,13.2,5.12t4.94,14.22v14.06Zm-7.1-14.17q0-6.68-2.87-10.14t-8.17-3.46a9.51,9.51,0,0,0-7.89,3.46q-2.76,3.46-2.76,10.14v14.17q0,6.75,2.78,10.23a9.53,9.53,0,0,0,7.91,3.48q5.31,0,8.16-3.46t2.85-10.25V663.3Z" transform="translate(-113.11 -66.44)"/>
  </g>
  <rect class="cls-2" x="3.89" y="2.56" width="560" height="560"/>
  <path class="cls-2" d="M288,435S217,226,557,134C557,134,526,420,288,435Z" transform="translate(-113.11 -66.44)"/>
  <path class="cls-1" d="M290,432l1.5-2.77c1-1.8,2.44-4.44,4.36-7.76s4.26-7.34,7.1-11.86l4.48-7.23,5.12-7.92c3.55-5.53,7.59-11.4,11.83-17.62l6.68-9.47,3.47-4.89,3.64-4.9,7.47-10c2.55-3.38,5.19-6.74,7.86-10.14l4-5.11q2-2.58,4.08-5.1L369.93,317l4.19-5.07,4.29-5,8.53-9.86c1.42-1.62,2.79-3.28,4.24-4.85l4.32-4.7,8.47-9.22c1.4-1.51,2.76-3,4.15-4.49l4.18-4.3,8.11-8.29,3.89-4c1.27-1.31,2.53-2.6,3.83-3.81l7.41-7.09c4.76-4.53,9.06-8.75,13.05-12.3l10.35-9.17,6.7-5.85L468,217l-2.19,2.27-6.19,6.38-9.68,9.83c-1.9,1.87-3.81,4-5.86,6.14l-6.47,6.83c-4.51,4.75-9.43,9.86-14.45,15.45l-7.79,8.53-4,4.39c-1.35,1.49-2.68,3-4,4.56L399,290.73c-2.78,3.16-5.62,6.34-8.39,9.63l-8.42,9.87-4.24,5-4.14,5.07-8.34,10.07q-2.1,2.5-4.1,5.05l-4,5.06-8,10-7.64,9.85-3.73,4.81-3.59,4.77-7,9.2L321,387.87c-2.11,2.83-4.14,5.58-6,8.25l-5.49,7.63-4.9,6.93c-1.55,2.17-3,4.23-4.27,6.12L296.72,422l-5,7.36Z" transform="translate(-113.11 -66.44)"/>
  <path class="cls-3" d="M280,433l2.5,10.5,9.5-.5s-28,28-52,103c0,0-8,5-16-3C224,543,235,479,280,433Z" transform="translate(-113.11 -66.44)"/>
</svg>
