<svg version="1.1" id="Layer_1" xmlns="http://www.w3.org/2000/svg" xmlns:xlink="http://www.w3.org/1999/xlink" x="0px" y="0px"
	 viewBox="0 0 800 800" style="enable-background:new 0 0 800 800;" xml:space="preserve">
<style type="text/css">
	.st0{opacity:0;fill:none;stroke:#006600;stroke-width:3;stroke-miterlimit:3; stroke-dasharray: 2000; animation: dash 1s forwards; webkit-animation-delay: 5s; animation-delay: 5s;}
	.st1{opacity:0;fill:none;stroke:#006600;stroke-width:5.1188;stroke-miterlimit:10; stroke-dasharray: 2500; animation: dash 1s forwards; webkit-animation-delay: 1s; animation-delay: 1s;}
	.st2{opacity:0;fill:none;stroke:#006600;stroke-width:4;stroke-miterlimit:10; stroke-dasharray: 1000; animation: stem 1s forwards; webkit-animation-delay: 2s; animation-delay: 2s;}
	.st6{opacity:0;fill:none;stroke:#006600;stroke-width:4;stroke-miterlimit:10; stroke-dasharray: 1000; animation: stem 1s forwards; webkit-animation-delay: 3s; animation-delay: 3s;}
	.st10{opacity:0;fill:#006600;stroke:#FFF;stroke-width:10;stroke-miterlimit:10; stroke-dasharray: 1000; animation: text 1s forwards; webkit-animation-delay: 0s; animation-delay: 0s;}
	@keyframes dash {
	  0% {
        opacity: 0;
		stroke-dashoffset: 2000;
	  }
	  1% {
	  	opacity: 1;
	  }
	  100% {
	  	opacity:1;
		stroke-dashoffset: 0;
	  }
	}
	@keyframes text {
	  0% {
        opacity: 0;
		stroke-dashoffset: 0;
	  }
	  1% {
	  	opacity: 1;
	  }
	  100% {
	  	opacity:1;
		stroke-dashoffset: 1000;
	  }
	}
	@keyframes stem {
	  0% {
        opacity: 0;
		stroke-dashoffset: 1000;
	  }
	  1% {
	  	opacity: 1;
	  }
	  100% {
	  	opacity:1;
		stroke-dashoffset: 0;
	  }
	}
	
</style>
<g>
	<path class="st10" d="M133.8,644.8h7.2v36c0,4.9-1.3,8.7-3.9,11.6c-2.6,2.9-5.9,4.3-9.9,4.3c-4.4,0-7.8-1.3-10.4-3.8
		c-2.6-2.5-3.8-6.3-3.7-11.1l0.1-0.2h6.9c0,3.3,0.6,5.8,1.9,7.3c1.3,1.6,3,2.4,5.2,2.4c1.9,0,3.5-0.9,4.8-2.8
		c1.2-1.9,1.9-4.4,1.9-7.6V644.8z"/>
	<path class="st10" d="M172.5,683.1h-15.3l-3.7,12.9h-7.4l15.4-51.2h6.9l15.2,51.2h-7.4L172.5,683.1z M158.9,677.4h12.1l-5.9-20.8
		h-0.2L158.9,677.4z"/>
	<path class="st10" d="M200.5,684.3l0.7,3.1h0.2l0.7-3.1l10.7-39.5h7.6L204.8,696h-7l-15.6-51.2h7.6L200.5,684.3z"/>
	<path class="st10" d="M246.1,683.1h-15.3l-3.7,12.9h-7.4l15.4-51.2h6.9l15.2,51.2h-7.4L246.1,683.1z M232.4,677.4h12.1l-5.9-20.8
		h-0.2L232.4,677.4z"/>
	<path class="st10" d="M269,705.5h-6.2v-60.7h6.2V705.5z"/>
	<path class="st10" d="M302.2,683.1c0-2.3-0.7-4.3-2-5.8s-3.7-2.9-7.1-4.1c-4.8-1.5-8.5-3.4-11.1-5.8c-2.6-2.4-3.9-5.5-3.9-9.5
		c0-4,1.4-7.4,4.3-10c2.8-2.6,6.5-3.9,11-3.9c4.7,0,8.5,1.5,11.4,4.4c2.9,2.9,4.2,6.6,4.1,10.9l-0.1,0.2H302c0-3-0.8-5.4-2.4-7.3
		c-1.6-1.9-3.7-2.8-6.3-2.8c-2.5,0-4.5,0.8-5.9,2.4c-1.4,1.6-2.1,3.6-2.1,6c0,2.2,0.7,4.1,2.2,5.5c1.5,1.5,4,2.8,7.5,4.1
		c4.7,1.5,8.2,3.5,10.7,6c2.4,2.5,3.7,5.6,3.7,9.6c0,4.2-1.4,7.5-4.3,10c-2.9,2.5-6.6,3.7-11.3,3.7c-4.5,0-8.4-1.3-11.7-4
		c-3.3-2.7-4.9-6.5-4.8-11.5l0.1-0.2h6.9c0,3.5,0.9,6.1,2.8,7.8c1.8,1.7,4.1,2.6,6.8,2.6c2.6,0,4.7-0.7,6.2-2.2
		C301.4,687.6,302.2,685.6,302.2,683.1z"/>
	<path class="st10" d="M324.4,675.8V696h-7.1v-51.2h16.6c4.9,0,8.7,1.4,11.4,4.3c2.8,2.8,4.1,6.6,4.1,11.2c0,4.7-1.4,8.4-4.1,11.3
		c-2.8,2.8-6.6,4.3-11.4,4.3H324.4z M324.4,670.3h9.5c2.8,0,4.9-0.9,6.3-2.8c1.4-1.9,2.1-4.3,2.1-7.1c0-2.9-0.7-5.3-2.1-7.2
		c-1.4-1.9-3.5-2.9-6.3-2.9h-9.5V670.3z"/>
	<path class="st10" d="M364.1,674v22H357v-51.2h15.1c4.9,0,8.7,1.3,11.4,3.8c2.7,2.5,4,6.1,4,10.8c0,2.7-0.6,5-1.9,7
		c-1.3,2-3.1,3.6-5.4,4.7c2.6,0.9,4.5,2.4,5.7,4.4c1.2,2.1,1.7,4.6,1.7,7.7v4.5c0,1.6,0.2,3,0.5,4.4c0.3,1.4,0.8,2.4,1.6,3.2v0.8
		h-7.3c-0.8-0.8-1.3-2-1.6-3.5s-0.4-3.2-0.4-4.9v-4.3c0-2.9-0.7-5.1-2-6.8c-1.3-1.7-3.2-2.5-5.5-2.5H364.1z M364.1,668.5h7.6
		c3,0,5.1-0.8,6.5-2.3c1.4-1.6,2.1-3.8,2.1-6.6c0-2.9-0.7-5.2-2.1-6.8s-3.5-2.4-6.2-2.4h-7.9V668.5z"/>
	<path class="st10" d="M404.8,696h-7.1v-51.2h7.1V696z"/>
	<path class="st10" d="M449.6,696h-7.2l-19.8-37.8l-0.2,0.1V696h-7.1v-51.2h7.1l19.8,37.7l0.2,0v-37.6h7.2V696z"/>
	<path class="st10" d="M492,689.3c-1.2,1.9-3.2,3.7-5.8,5.2c-2.7,1.5-6.1,2.3-10.3,2.3c-5.3,0-9.7-1.6-12.9-4.9
		c-3.3-3.3-4.9-7.9-4.9-13.9v-15.2c0-5.9,1.6-10.5,4.7-13.8c3.2-3.3,7.4-4.9,12.6-4.9c5.2,0,9.2,1.3,12,4s4.2,6.3,4.1,11l-0.1,0.2
		h-6.7c0-3.1-0.8-5.5-2.3-7.2c-1.6-1.7-3.8-2.5-6.8-2.5c-3.2,0-5.7,1.1-7.6,3.4c-1.8,2.2-2.8,5.5-2.8,9.8v15.3c0,4.4,1,7.7,2.9,10
		s4.5,3.4,7.8,3.4c2.4,0,4.3-0.4,5.8-1.1c1.4-0.8,2.5-1.7,3.1-2.7v-11.9h-9.4v-5.2H492V689.3z"/>
	<path class="st10" d="M507.5,705.5h-6.2v-60.7h6.2V705.5z"/>
	<path class="st10" d="M517.3,696v-51.2h14.5c5.5,0,10,2.1,13.6,6.2c3.5,4.1,5.3,9.4,5.3,15.8v7.3c0,6.5-1.8,11.7-5.3,15.8
		s-8,6.1-13.6,6.1H517.3z M524.4,650.3v40.3h7.4c3.5,0,6.3-1.5,8.4-4.6c2.1-3.1,3.2-7,3.2-11.9v-7.3c0-4.8-1.1-8.7-3.2-11.8
		c-2.1-3.1-4.9-4.6-8.4-4.6H524.4z"/>
	<path class="st10" d="M583.6,672.2h-17.4v18.4h20.5v5.4h-27.6v-51.2h27.4v5.5h-20.3v16.5h17.4V672.2z"/>
	<path class="st10" d="M615.3,686.6h0.2l12.3-41.8h9.1V696h-7.1v-36.9l-0.2,0L617.8,696h-4.9L601,658.5l-0.2,0V696h-7.1v-51.2h9.3
		L615.3,686.6z"/>
	<path class="st10" d="M680.9,677.5c0,6.1-1.6,10.8-4.9,14.2c-3.3,3.4-7.7,5.1-13.2,5.1c-5.4,0-9.8-1.7-13-5.1
		c-3.2-3.4-4.8-8.1-4.8-14.2v-14.1c0-6,1.6-10.8,4.8-14.2c3.2-3.4,7.5-5.1,12.9-5.1c5.5,0,9.9,1.7,13.2,5.1s4.9,8.2,4.9,14.2V677.5z
		 M673.8,663.3c0-4.5-1-7.8-2.9-10.1c-1.9-2.3-4.6-3.5-8.2-3.5c-3.4,0-6.1,1.2-7.9,3.5c-1.8,2.3-2.8,5.7-2.8,10.1v14.2
		c0,4.5,0.9,7.9,2.8,10.2s4.5,3.5,7.9,3.5c3.5,0,6.3-1.2,8.2-3.5c1.9-2.3,2.8-5.7,2.8-10.2V663.3z"/>
</g>
<rect x="117" y="69" class="st1" width="560" height="560"/>
<path class="st6" d="M288,435c0,0-71-209,269-301C557,134,526,420,288,435z"/>
<g>
	<path class="st0" d="M301,417c0,0,0.4-1,1.3-2.8c0.8-1.8,2.1-4.4,3.8-7.7c0.9-1.6,1.8-3.4,2.9-5.4c0.5-1,1.1-2,1.7-3.1
		c0.6-1,1.2-2.1,1.9-3.2c1.3-2.2,2.7-4.6,4.1-7.1c1.5-2.5,3.1-5.1,4.8-7.8c1.6-2.7,3.4-5.5,5.3-8.4c1.9-2.9,3.8-5.8,5.9-8.9
		c2.1-3,4.2-6.1,6.4-9.2c1.1-1.6,2.2-3.2,3.3-4.7c1.2-1.6,2.4-3.1,3.5-4.7c2.4-3.2,4.8-6.4,7.3-9.7c2.5-3.2,5.1-6.4,7.7-9.7
		c5.2-6.6,10.8-12.9,16.3-19.4c1.4-1.6,2.8-3.2,4.2-4.8c1.4-1.5,2.9-3.1,4.3-4.6c2.9-3.1,5.8-6.2,8.6-9.2c2.8-3.1,5.8-6,8.7-8.8
		c2.9-2.9,5.8-5.7,8.6-8.5c2.8-2.8,5.7-5.4,8.6-8c2.8-2.6,5.6-5.1,8.3-7.5c2.7-2.4,5.3-4.9,8-7c2.7-2.2,5.2-4.3,7.7-6.3
		c2.5-2,4.8-3.9,7.1-5.8c1.1-0.9,2.2-1.8,3.3-2.7c1.1-0.9,2.2-1.6,3.2-2.4c4.2-3.1,7.8-5.7,10.8-7.9c3-2.2,5.4-3.9,7-5
		c1.6-1.2,2.5-1.8,2.5-1.8s-0.8,0.7-2.3,2c-1.5,1.3-3.7,3.2-6.5,5.6c-2.8,2.4-6.2,5.3-10.2,8.6c-1,0.8-2,1.7-3,2.6
		c-1,0.9-2,1.9-3.1,2.8c-2.1,1.9-4.4,4-6.7,6.1c-4.7,4.3-9.8,8.8-15,13.9c-2.6,2.5-5.3,5.1-8,7.7c-1.4,1.3-2.8,2.6-4.2,4
		c-1.4,1.3-2.7,2.8-4.1,4.2c-2.8,2.8-5.6,5.7-8.4,8.6c-2.8,2.9-5.8,5.8-8.5,8.9c-2.8,3-5.6,6.1-8.5,9.2c-1.4,1.5-2.8,3.1-4.3,4.6
		c-1.4,1.6-2.8,3.2-4.1,4.8c-5.5,6.4-11.2,12.6-16.3,19.1c-2.6,3.2-5.3,6.4-7.8,9.5c-2.5,3.2-5,6.4-7.4,9.5
		c-1.2,1.6-2.4,3.1-3.6,4.6c-1.2,1.6-2.3,3.1-3.5,4.6c-2.3,3-4.5,6-6.7,8.9c-2.1,2.9-4.1,5.8-6.1,8.6c-2,2.8-3.9,5.4-5.7,8.1
		c-1.8,2.6-3.5,5.1-5.1,7.5c-1.6,2.4-3.1,4.7-4.5,6.8c-0.7,1.1-1.4,2.1-2.1,3.1c-0.6,1-1.3,2-1.9,2.9c-1.2,1.9-2.3,3.6-3.3,5.2
		c-1.9,3.2-3.5,5.6-4.5,7.3C301.5,416.1,301,417,301,417z"/>
</g>
<path class="st2" d="M280,433l2.5,10.5l9.5-0.5c0,0-28,28-52,103c0,0-8,5-16-3C224,543,235,479,280,433z"/>
</svg>
