<?xml version="1.0" encoding="utf-8"?>
<!-- Generator: Adobe Illustrator 19.2.1, SVG Export Plug-In . SVG Version: 6.00 Build 0)  -->
<svg version="1.1" id="Layer_1" xmlns="http://www.w3.org/2000/svg" xmlns:xlink="http://www.w3.org/1999/xlink" x="0px" y="0px"
	 viewBox="0 0 300 200" style="enable-background:new 0 0 300 200;" xml:space="preserve">
<style type="text/css">
	.st0{fill:#E0E0E0;}
	.st1{fill:#F2F2F2;}
	.st2{fill:none;stroke:#079948;stroke-width:2.7789;stroke-miterlimit:10;}
	.st3{fill:#079948;}
</style>
<g>
	<path class="st0" d="M75.1,45.5c-3.2,3.2-3.2,8.4,0,11.7L88.9,71c3.2,3.2,8.4,3.2,11.7,0L117,54.6L91.5,29.1L75.1,45.5z"/>
	<path class="st1" d="M134.2,25.7L120.4,12c-3.2-3.2-8.4-3.2-11.7,0L91.5,29.1L117,54.6l17.1-17.1C137.4,34.2,137.4,29,134.2,25.7z"
		/>
	<path class="st0" d="M96.5,68l103.2,103.2c9.5,9.5,24.9,9.7,34.6,0.7L113.5,51L96.5,68z"/>
	<path class="st1" d="M235.1,171.2c9.7-9.7,9.7-25.6,0-35.4L131.9,32.6L113.5,51l120.9,120.9C234.6,171.7,234.9,171.5,235.1,171.2
		L235.1,171.2z"/>
	<path class="st2" d="M98.4,72.1l100.3,100.3c8.5,8.5,25.4,9,35.5-1.1c10-10,9.5-27,1.1-35.5L134.9,35.6L98.4,72.1z"/>
	<path class="st3" d="M135.6,36.1L98.2,73.5c-2.8,2.8-7.4,2.8-10.2,0L71.8,57.2c-2.8-2.8-2.8-7.4,0-10.2l37.4-37.4
		c2.8-2.8,7.4-2.8,10.2,0l16.3,16.3C138.4,28.7,138.4,33.3,135.6,36.1z M73.6,48.9c-1.8,1.8-1.8,4.8,0,6.6l16.3,16.3
		c1.8,1.8,4.8,1.8,6.6,0l37.4-37.4c1.8-1.8,1.8-4.7,0-6.6l-16.3-16.3c-1.8-1.8-4.8-1.8-6.6,0L73.6,48.9z"/>
	<path class="st3" d="M231.1,168.4L231.1,168.4c-8.4,8.4-22,8.4-30.4,0l-62.5-62.5h61l31.9,32.1C239.5,146.3,239.5,160,231.1,168.4z
		"/>
	<g>
		
			<rect x="116" y="10.6" transform="matrix(0.7071 -0.7071 0.7071 0.7071 14.5125 91.1163)" class="st3" width="2.4" height="34.9"/>
		<rect x="107" y="19.6" transform="matrix(0.7071 -0.7071 0.7071 0.7071 5.4899 87.379)" class="st3" width="2.4" height="34.9"/>
		<rect x="98" y="28.7" transform="matrix(0.7071 -0.7071 0.7071 0.7071 -3.5327 83.6417)" class="st3" width="2.4" height="34.9"/>
		
			<rect x="89" y="37.7" transform="matrix(0.7071 -0.7071 0.7071 0.7071 -12.5552 79.9045)" class="st3" width="2.4" height="34.9"/>
	</g>
</g>
</svg>
