<?xml version="1.0" encoding="utf-8"?>
<!-- Generator: Adobe Illustrator 21.0.2, SVG Export Plug-In . SVG Version: 6.00 Build 0)  -->
<svg version="1.1" id="Layer_1" xmlns="http://www.w3.org/2000/svg" xmlns:xlink="http://www.w3.org/1999/xlink" x="0px" y="0px"
	 viewBox="0 0 300 200" style="enable-background:new 0 0 300 200;" xml:space="preserve">
<style type="text/css">
	.st0{fill:#EDEDED;stroke:#C1C1C1;stroke-miterlimit:10;}
	.st1{fill:#F9F9FA;}
	.st2{fill:#F4F4F4;}
	.st3{fill:#079948;}
</style>
<path class="st0" d="M90,81.3l100.3,100.3c8.5,8.5,25.4,9,35.5-1.1c10-10,9.5-27,1.1-35.5L126.6,44.7L90,81.3z"/>
<path class="st1" d="M62.1,56c-3.2,3.2-3.3,8.3-0.3,11.4L75,80.6c3.1,3.1,8.2,3,11.4-0.3l20-20L82,36.1L62.1,56z"/>
<path class="st0" d="M127.3,38.8L84.6,81.4c-2.3,2.3-6.1,2.3-8.5,0L60.8,66.1c-2.3-2.3-2.3-6.1,0-8.5L103.4,15
	c2.3-2.3,6.1-2.3,8.5,0l15.3,15.3C129.6,32.6,129.6,36.4,127.3,38.8z"/>
<path class="st2" d="M224.9,181.1c0.2-0.2,0.3-0.3,0.5-0.5c10-10,9.6-26.9,1.3-35.3l-99-99l-18.8,18.8L224.9,181.1z"/>
<path class="st3" d="M222.8,177.5L222.8,177.5c-8.4,8.4-22,8.4-30.4,0L129.9,115h61l31.9,32.1C231.1,155.5,231.1,169.1,222.8,177.5z
	"/>
<path class="st2" d="M103.2,16L81.9,37.3l22,22l21.4-21.3c2.3-2.4,2.5-6,0.2-8.2l-14.1-14.1C109.2,13.6,105.5,13.7,103.2,16z"/>
</svg>
