<?xml version="1.0" encoding="utf-8"?>
<!-- Generator: Adobe Illustrator 19.2.1, SVG Export Plug-In . SVG Version: 6.00 Build 0)  -->
<svg version="1.1" id="Layer_1" xmlns="http://www.w3.org/2000/svg" xmlns:xlink="http://www.w3.org/1999/xlink" x="0px" y="0px"
	 viewBox="0 0 104.4 109.1" style="enable-background:new 0 0 104.4 109.1;" xml:space="preserve">
<style type="text/css">
	.st0{fill:none;stroke:#1C9A48;stroke-width:0.8518;stroke-miterlimit:10;}
</style>
<path class="st0" d="M97.9,55l3.6-4.3l-4.3-3.6l2.8-4.9l-4.9-2.8l1.9-5.3l-5.3-1.9l1-5.5l-5.5-1v-5.6h-5.6l-1-5.5l-5.5,1l-1.9-5.3
	l-5.3,1.9l-2.8-4.9l-4.9,2.8l-3.6-4.3l-4.3,3.6L48,5.8l-3.6,4.3l-4.9-2.8l-2.8,4.9l-5.3-1.9l-1.9,5.3l-5.5-1l-1,5.5h-5.6v5.6l-5.5,1
	l1,5.5l-5.3,1.9l1.9,5.3l-4.9,2.8l2.8,4.9L3,50.7L6.6,55L3,59.4L7.3,63l-2.8,4.9l4.9,2.8l-1.9,5.3l5.3,1.9l-1,5.5l5.5,1V90h5.6
	l1,5.5l5.5-1l1.9,5.3l5.3-1.9l2.8,4.9l4.9-2.8l3.6,4.3l4.3-3.6l4.3,3.6l3.6-4.3l4.9,2.8l2.8-4.9l5.3,1.9l1.9-5.3l5.5,1l1-5.5h5.6
	v-5.6l5.5-1l-1-5.5l5.3-1.9l-1.9-5.3l4.9-2.8L97.2,63l4.3-3.6L97.9,55z M52.3,93.5C31,93.5,13.8,76.3,13.8,55
	c0-21.3,17.2-38.5,38.5-38.5c21.3,0,38.5,17.2,38.5,38.5C90.7,76.3,73.5,93.5,52.3,93.5z"/>
<path class="st0" d="M80.4,48.1c-3.1-0.5-7.2,1.5-7.2,1.5C63,54.8,58.3,52,58.3,52c0,0,0,0,0,0L58.2,51c0,0-2.2-2.5-6-2.8
	c0.6-0.5,1.2-1.4,1-2.6c-0.2-2-1.7-3-2.2-3.3c0,0-2.1,1-2.4,3.3c-0.1,1.2,0.4,2.1,1.1,2.6c-1.3,0.1-3.9,0.8-6.5,4.3
	c0,0,0.1,0.1,0.2,0.1c-0.2-0.1-0.3-0.1-0.3-0.1c-1.4,0.5-2.7,2.1-3.1,2.7c0-1-0.2-4.2-0.9-5c-0.8-0.9-3.6-1.1-4.8-1.2
	c-1.5-0.1-4.7-0.3-6.1,0.4c-1.9,0.9-2.2,2.2-2.2,3.1c0.1,1.2,1.7,3.3,2.7,4c1.3,1,6.3,1.8,6.3,1.8s-1.4,0.7-1.6,1.2
	c-0.5,1.7,0.8,2.4,1.6,2.7c1.1,0.4,2.8-0.9,2.8-0.9l0.7-0.9l0.9,0.1c0.7,2.4,2.9,4,5.3,4.9c-0.9,0.7-1.5,1.4-1.5,1.4
	c-0.5,3.4,6,3.5,7.4,3.5c1.4,0,7.9-0.1,7.4-3.5c0,0-0.6-0.6-1.5-1.4c8.3-2.8,14.2-9.8,14.2-9.8c2.5-3.1,6.2-4.6,6.2-4.6
	s2.3-0.8,3.7-1.2C81.4,49.6,80.4,48.1,80.4,48.1z M32.2,54.3c-2.8-1.9-0.9-2.7-0.9-2.7c4.8-1.4,6.5,5.5,6.5,5.5l0.1,0.3
	C37.4,57.7,35,56.2,32.2,54.3z"/>
</svg>
