<?xml version="1.0" encoding="utf-8"?>
<!-- Generator: Adobe Illustrator 19.2.1, SVG Export Plug-In . SVG Version: 6.00 Build 0)  -->
<svg version="1.1" id="Layer_1" xmlns="http://www.w3.org/2000/svg" xmlns:xlink="http://www.w3.org/1999/xlink" x="0px" y="0px"
	 viewBox="0 0 300 200" style="enable-background:new 0 0 300 200;" xml:space="preserve">
<style type="text/css">
	.st0{fill:#ADCEBB;}
	.st1{fill:#9DC5AD;}
	.st2{fill:#529A70;}
	.st3{fill:#85B89A;}
	.st4{fill:#FFFFFF;}
</style>
<g>
	<polygon id="Wyoming" class="st0" points="82.2,48 81.6,51.7 78.5,68.9 77.3,76.4 88.1,77.6 114.3,80.4 116.8,52.2 	"/>
	<polygon id="Montana" class="st1" points="117.3,45.6 117.3,45.6 119.2,24.6 90.9,21.3 63.8,16.1 62.3,22.9 63.6,25.6 63.6,28.4 
		64.7,29.1 66.1,32.8 68.2,34.5 66.1,40.6 67.3,42.4 69.2,41.1 70.4,46.8 72.1,48.6 72.1,50.8 73.7,50.3 79,50.7 80.5,49.8 
		81.6,51.7 82.2,48 116.8,52.2 117.3,45.6 	"/>
	<polygon id="North_Dakota" class="st2" points="152.2,35.2 151.2,32.8 151.1,26.3 119.2,24.6 117.3,45.6 153.6,47.1 153.5,44.7 	
		"/>
	<polygon id="Minnesota" class="st0" points="174.7,46 174.7,42.3 177,40 180.2,36.2 187.4,32.7 187.4,31.7 185.6,32.4 185.1,31.6 
		182.2,31.6 181.7,31.8 181.1,30.8 179.4,32 177.9,32.3 177,31.7 171.1,28.8 168.6,28.8 163.3,28.3 162.1,23.6 160.5,23.6 
		160.5,26.3 151.1,26.3 151.2,32.8 152.2,35.2 153.5,44.7 153.6,47.1 153.6,47.1 153.6,47.1 153.7,48.4 152.4,49.8 154,51.6 
		154.3,64.3 180.4,64 180.4,61.3 172.3,55.1 172.9,51.2 172.3,47.8 	"/>
	<polygon id="Wisconsin" class="st3" points="185.4,43.8 184.2,42.1 181.1,42.1 182.4,40.3 181.7,39.7 178.2,41.5 174.7,42.3 
		174.7,46 172.3,47.8 172.9,51.2 172.3,55.1 180.4,61.3 180.4,64 181.9,66 181.2,67.3 182.1,69.6 183.9,70.8 198.7,69.9 198.3,64.5 
		199.1,57.5 199.1,55.8 201.5,50.5 200.8,49.9 196.9,55.3 196.4,54.8 198.1,51.8 198.3,51.1 197.6,50.4 197.2,47.4 195.3,46 	"/>
	<polygon id="Iowa" class="st2" points="181.9,66 180.4,64 154.3,64.3 153.8,70.8 158,85.1 179.4,84.2 180.5,85.9 183.2,82 
		182.4,80.1 183,78.5 185.9,77.4 186.6,74.2 183.9,70.8 182.1,69.6 181.2,67.3 	"/>
	<polygon id="Colorado" class="st3" points="114.3,80.4 88.1,77.6 84.3,105.4 107.6,108.2 117.6,109 123.1,109.3 124.1,88 
		124.5,81.5 	"/>
	<polygon id="Kansas_1_" class="st2" points="123.1,109.3 145.6,110.4 164,110.5 164,95.6 161.8,93 161.8,92.2 162.4,91.4 
		162.4,90.5 159.9,89.2 124.1,88 	"/>
	<polygon id="Nevada" class="st0" points="48.5,63.3 33.3,59.5 28.1,80 50.8,114.6 51.7,106.4 52.8,106.4 53.7,106.4 54.8,107.5 
		55.5,107.5 56.8,100.7 63.5,66.3 	"/>
	<polygon id="Arizona" class="st1" points="84.2,105.4 56.8,100.7 55.5,107.5 54.8,107.5 53.7,106.4 51.7,106.4 50.8,114.6 
		52.5,119.7 49.8,122 49.8,124 48.3,125.4 48.3,128.2 49.2,128.3 48.6,129.9 47.1,129.9 47.1,131.7 66.5,143 79,145.2 84.3,105.4 	
		"/>
	<polygon id="Utah" class="st2" points="84.2,105.4 84.3,105.4 88.1,77.6 77.3,76.4 78.5,68.9 63.5,66.3 56.8,100.7 	"/>
	<polygon id="Oklahoma" class="st0" points="164,113.8 164,110.5 145.6,110.4 123.1,109.3 117.6,109 117.3,112.6 134.6,113.4 
		133.8,127.1 135.7,129.1 138.2,129.1 142.4,131.3 144.3,130.9 145.9,132.8 146.9,132.4 148.2,132.5 149.7,133.6 151.2,132.4 
		155.1,133.9 156,132.8 161.8,132.8 165.1,134.1 165.1,117.8 	"/>
	<polygon id="New_Mexico" class="st2" points="84.3,105.4 79,145.2 84,145.9 84.6,142.4 93.6,143.7 93.6,142.2 114.7,143.8 
		117.3,112.6 117.6,109 107.6,108.2 	"/>
	<polygon id="Delaware" class="st0" points="270,88.2 270,86.9 267.9,84.8 266.8,82.4 266.1,81.9 265.5,80.6 265.7,79 264.2,79.7 
		266.2,88.2 	"/>
	<polygon id="Maryland" class="st1" points="266.2,88.2 264.2,79.7 244.7,83.6 245.4,87.2 248.9,84.1 249.9,84.1 252.2,83 
		253.7,83.6 254.6,84.6 255.9,85.2 256,86.1 258.1,86.8 258.6,86 259.4,86.7 258.9,87.7 258.8,88.7 258,89.8 258.3,90.9 259.9,91.2 
		261.4,91.1 263.2,91.6 263.3,90.7 261.5,87.2 262,85.8 261.6,84.3 262.7,82.4 263.4,82.3 262.7,84.2 263.3,84.9 263.5,86.4 
		262.7,86.8 262.9,87.8 263.3,87.3 263.8,87.8 263.3,88.3 263.2,89.2 264.1,90.3 265.8,90.3 267.4,91.9 270,90.7 270,88.2 	"/>
	<polygon id="Vermont" class="st1" points="276.1,55.2 276.1,52.9 275.8,52.2 276,45.3 275.7,44.3 276.6,43.9 277.8,42.2 
		276.7,38.5 268.1,40.6 269.4,45.6 269.4,47.3 270.3,48.9 270.3,50.2 271.3,50.8 272.1,54.5 272.1,55.9 	"/>
	<polygon id="New_Hampshire" class="st0" points="276.1,55.2 282.2,53.8 282.8,52.8 284.4,52.2 284.4,50.5 283.7,49.2 282.6,48.8 
		279.1,36.5 277.5,36.2 276.7,38.5 277.8,42.2 276.6,43.9 275.7,44.3 276,45.3 275.8,52.2 276.1,52.9 	"/>
	<polygon id="Massachusetts" class="st2" points="287.8,59 285.8,56.3 284.8,56.6 284.4,55.7 285.2,53.6 284.4,52.2 282.8,52.8 
		282.2,53.8 276.1,55.2 272.1,55.9 272.1,61.2 280.8,59.2 283,58.6 285.4,61.9 286.1,61.5 286,60.5 286.8,60.3 287.4,61.1 
		288.1,60.4 290.6,59.5 290.6,57.8 290.3,57.8 289.7,58.9 289,59.1 	"/>
	<polygon id="Connecticut" class="st3" points="281.5,62 280.8,59.2 272.1,61.2 272.9,64.1 272.9,67 272.4,67.8 273.2,68.3 
		276.9,65.7 281.8,64 	"/>
	<polygon id="New_York" class="st0" points="279.9,66.2 278.6,67.4 275.9,68.7 274.6,68.7 273.2,69.9 273.2,68.3 272.4,67.8 
		272.9,67 272.9,64.1 272.1,61.2 272.1,55.9 272.1,54.5 271.3,50.8 270.3,50.2 270.3,48.9 269.4,47.3 269.4,45.6 268.1,40.6 
		261.1,42.3 254.8,49.6 254.8,50.5 256.4,51.7 256.4,53.7 253.4,56.3 250.2,57.2 247.1,56.8 242.5,58.4 244.1,61.7 240.5,66 
		240.8,68.2 263.1,63.3 264.8,64.6 265.4,66.3 266.8,67.1 272.2,69 272.2,71.7 275.7,70.8 279.5,68.2 281.1,66.5 	"/>
	<polygon id="Tennessee" class="st1" points="191.8,116.5 191.7,116.5 190.6,120 189.9,120.3 190.2,121.8 189.7,123.3 201.6,122.6 
		216,121.4 222.9,120.7 222.9,119.2 224.6,118.3 224.9,117 227.5,115.8 228.8,114.6 230.1,114.3 230.1,113.2 231.8,111.7 
		232.7,112.1 233.8,110.9 234.7,110.9 236.2,108.9 236.4,107.4 236.4,107.4 226.5,108.6 201.2,110.9 201.2,112.5 192.8,112.5 
		192.8,114.8 191.7,116.5 	"/>
	<polygon id="Missouri" class="st3" points="158,85.1 159.9,89.2 162.4,90.5 162.4,91.4 161.8,92.2 161.8,93 164,95.6 164,110.5 
		164,113.8 189.8,113 189.8,114.7 188.5,116.5 191.7,116.5 192.8,114.8 192.8,112.5 194.6,111.5 194.6,109.8 193.4,109.4 
		191.7,103.9 187.4,100.8 188.5,96.2 185.4,95.8 185.4,94.2 181.2,90.6 180.5,85.9 179.4,84.2 	"/>
	<polygon id="District_of_Columbia" class="st2" points="259.4,86.7 258.6,86 258.1,86.8 258.9,87.7 	"/>
	<polygon id="West_Virginia" class="st0" points="239.4,102.5 240.2,101.2 242.6,100.6 243,99.3 243,98.5 245.3,93.4 245.3,91.8 
		245.7,91.8 246.5,92.7 247.7,92.7 248.2,90.2 249.1,90 249.4,89.2 250.4,88.5 251.3,86.7 251.3,85 254.4,86.3 254.6,84.6 
		253.7,83.6 252.2,83 249.9,84.1 248.9,84.1 245.4,87.2 244.7,83.6 239.5,84.3 238.2,77.9 237.5,79 237.5,84.9 235.4,87.5 
		234.4,87.5 233,89.3 233.3,91.1 232.9,91.7 232.1,90.6 231.6,91.1 231.4,93.6 230.6,95.2 229.4,95.2 229.4,97.2 230.6,98.1 
		230.9,99 232.2,100.6 233.7,101.6 234.9,103.1 236.1,103.3 237.4,102.5 238.3,102.8 	"/>
	<polygon id="Arkansas" class="st2" points="188.5,116.5 189.8,114.7 189.8,113 164,113.8 165.1,117.8 165.1,134.1 167.6,135 
		167.8,138.3 184.5,138.3 184.9,131.9 189.7,123.3 190.2,121.8 189.9,120.3 190.6,120 191.7,116.5 	"/>
	<polygon id="New_Jersey" class="st3" points="266.8,67.1 265.8,70.2 266.2,71.6 265.5,71.9 265.5,73.1 268.9,75.6 266.9,78.1 
		265.7,79 265.5,80.6 268.9,82.8 269.8,82.8 269.8,84.6 270.6,84 270.6,82.2 272.1,80.2 272.8,77.3 272.8,73.5 272.4,72.6 
		271.2,73.1 271,72.7 272.2,71.7 272.2,69 	"/>
	<polygon id="Oregon" class="st1" points="33.3,59.5 33.3,59.5 48.5,63.3 52.5,48.6 52.2,48 51.1,48 51.1,45.8 53.6,43.8 56.7,38.9 
		54.9,35.8 45.9,33.5 41,33.5 39.4,33.9 35.2,33.3 31.4,32 30.5,32.6 27.1,31.3 27.1,27.5 24.5,26.1 22.5,26.1 16.4,42.2 12.1,48.3 
		12.1,52.3 12.6,53.6 33.3,59.5 	"/>
	<polygon id="Maine" class="st3" points="298.8,35.1 298.8,32.9 297.6,31.4 297,31.3 296.9,31.8 295.5,31 295.1,29 293.4,29 
		290.4,19.2 287.9,18.5 285.4,20.4 284.6,20.4 284.1,19.1 283.1,19.1 281.3,24.5 280.8,28.1 281.3,30.4 279.1,36.5 282.6,48.8 
		283.7,49.2 284.4,50.5 285.1,46.7 285.8,46.2 285.4,45.4 286.3,44.4 287,45.1 289,43.6 289,42.8 289.8,42.7 290.6,42.1 290.6,39.7 
		290,39 290.7,38.8 291.3,39.6 291.8,39.6 291.9,40.5 292.6,40 292.6,38.6 293.5,37.6 294.1,37.6 294.5,38.2 295.1,38.2 297.5,35.6 
			"/>
	<polygon id="California" class="st3" points="50.8,114.6 28.1,80 33.3,59.5 12.6,53.6 11,61.1 8.9,63.2 8.3,65.3 9.9,69 9.5,71.3 
		8.9,72.8 8.9,75 11.3,80.7 11.1,82.3 13,84.5 12,88.8 15.1,92.8 13.2,94.4 17.3,105 17.3,109.5 22.6,111.8 24.8,115.6 28.4,116.7 
		33.2,123.4 33.2,128 47.1,129.9 48.6,129.9 49.2,128.3 48.3,128.2 48.3,125.4 49.8,124 49.8,122 52.5,119.7 	"/>
	<polygon id="Florida" class="st2" points="239.5,150 223.8,150.9 222.2,149 207,150.5 207,151.8 208.2,153 208.2,155.2 215,154.2 
		221.2,156.7 221.9,158.3 224.4,157.8 227.3,156 227.5,154.9 229.5,154.9 232.1,155.8 234.3,158.7 237.6,160.2 239.1,162.3 
		239.1,165.2 238.5,167.5 239.5,170.3 240.1,169.6 240.1,168.4 241.3,168.8 240,171.6 244.6,178.2 246.5,179.3 247.5,181.7 
		250.5,182.4 252.1,186 256.9,184.8 256.9,181.5 257.7,180.4 256.8,172.9 253.7,167.1 252.4,166 251.6,162 246,154.1 243.9,148.3 
		240.6,148.3 241.1,149.7 241.1,151.3 240.1,151.3 	"/>
	<polygon id="Louisiana" class="st0" points="195.6,161 196.4,161 196.9,160.3 197.4,159.4 196.8,158 195.8,158.6 195.6,159.5 
		194.6,159.3 194.2,158.5 195.4,157.1 194.9,155.4 193.7,154.3 194,152.2 182.8,152.2 183.2,149 185.9,143.7 184.5,138.3 
		167.8,138.3 168.2,145.6 171.1,151.2 169.9,161.6 174,161.3 179.1,162.8 180.5,162.4 182.6,163.1 182.9,162.3 181.8,161.9 
		180.1,161.5 181.5,160.9 182,161.2 183.4,161 184.1,162.7 185.5,162.7 186,163.3 185.4,164.4 188.6,165.8 189.9,165.1 190.1,164.5 
		191,164.5 191.5,163.9 192.2,165.2 192.7,165.2 193.5,164 193.5,162.9 194.2,162.1 194.6,163.4 196.1,163.8 197.6,164.8 
		198.9,165.1 199.6,163.9 197.8,162.5 196.4,162.6 195.3,161.8 	"/>
	<polygon id="Mississippi" class="st3" points="201.4,144.6 201.6,122.6 189.7,123.3 184.9,131.9 184.5,138.3 185.9,143.7 
		183.2,149 182.8,152.2 194,152.2 193.7,154.3 194.9,155.4 195.4,157.1 196.8,155.6 202.7,155.6 	"/>
	<polygon id="Alabama" class="st0" points="222.2,149 221.2,143.3 221.9,140 220.3,137.8 217.6,127.5 216,123.6 216,121.4 
		201.6,122.6 201.4,144.6 202.7,155.6 203.9,155.6 204.7,152.9 205.5,153.2 206.4,154.8 206.4,156 208.2,155.2 208.2,153 207,151.8 
		207,150.5 	"/>
	<polygon id="Texas" class="st1" points="169.9,161.6 171.1,151.2 168.2,145.6 167.8,138.3 167.6,135 165.1,134.1 161.8,132.8 
		156,132.8 155.1,133.9 151.2,132.4 149.7,133.6 148.2,132.5 146.9,132.4 145.9,132.8 144.3,130.9 142.4,131.3 138.2,129.1 
		135.7,129.1 133.8,127.1 134.6,113.4 117.3,112.6 114.7,143.8 93.6,142.2 93.6,143.7 102.9,152.9 105.2,160.1 109.6,163.9 
		112.5,165.2 114.9,162.8 115.9,160.3 118.3,159.2 119.4,160.1 124.6,160.9 127.5,164.6 130.1,171.3 131.4,172.2 133.4,175.4 
		135.1,176.3 135.1,180.4 138,184.8 147.7,188.7 149.1,187.5 147.4,181.7 148.7,176 150.9,172.9 159.1,168.6 164.9,163.8 	"/>
	<polygon id="South_Carolina" class="st0" points="250.2,118.4 244,118.4 242.3,117.1 234.9,117.1 229.8,119.9 229.2,122.2 
		230.6,123.5 231.8,123.5 233.9,126.6 235.7,127.3 237,128.8 238.6,129.9 239.3,131.4 241,131.9 242.2,135.6 243.6,135.9 
		244.7,138.6 245.7,138.6 248.1,136 248.1,135 250.4,133.7 252.9,130.6 254.3,129.6 255.3,125.3 257.1,123 	"/>
	<polygon id="Georgia" class="st3" points="229.8,119.9 222.9,120.7 216,121.4 216,123.6 217.6,127.5 220.3,137.8 221.9,140 
		221.2,143.3 222.2,149 223.8,150.9 239.5,150 240.1,151.3 241.1,151.3 241.1,149.7 240.6,148.3 243.9,148.3 245.7,138.6 
		244.7,138.6 243.6,135.9 242.2,135.6 241,131.9 239.3,131.4 238.6,129.9 237,128.8 235.7,127.3 233.9,126.6 231.8,123.5 
		230.6,123.5 229.2,122.2 	"/>
	<polygon id="Indiana" class="st3" points="200.5,100.3 200.5,102.8 204.7,101.9 205.6,102.7 206.3,101.4 207.5,101.1 208.1,102.1 
		208.5,101.7 208.5,100.6 209.9,100.2 211.8,100.2 211.8,99 212.9,97.8 214.3,96.9 214.3,95.3 215.6,95.3 217.1,94.2 216.9,92.3 
		214.9,73.4 204.7,74.4 202.3,75.6 200.9,75.2 202,90.9 202,93.6 202.7,96.1 	"/>
	<polygon id="Illinois" class="st0" points="200.9,75.2 199.2,71.8 198.7,69.9 183.9,70.8 186.6,74.2 185.9,77.4 183,78.5 
		182.4,80.1 183.2,82 180.5,85.9 181.2,90.6 185.4,94.2 185.4,95.8 188.5,96.2 187.4,100.8 191.7,103.9 193.4,109.4 196.5,107.2 
		198.4,108.6 198.8,107.8 198.1,106.8 198.2,105.9 200.1,105.2 200.5,102.8 200.5,100.3 202.7,96.1 202,93.6 202,90.9 	"/>
	<polygon id="North_Carolina" class="st2" points="268.5,101.5 250.3,105.4 236.4,107.4 236.2,108.9 234.7,110.9 233.8,110.9 
		232.7,112.1 231.8,111.7 230.1,113.2 230.1,114.3 228.8,114.6 227.5,115.8 224.9,117 224.6,118.3 222.9,119.2 222.9,120.7 
		229.8,119.9 234.9,117.1 242.3,117.1 244,118.4 250.2,118.4 257.1,123 260.4,122.4 261.5,119.1 265.9,115.6 267.7,115.6 
		268.8,113.8 266.8,113.3 266.7,110.5 269.3,110.4 270.9,106.1 	"/>
	<polygon id="Kentucky" class="st2" points="229.4,95.2 228.2,94.3 227.5,93.3 225.9,94.3 224.5,94 223.1,94.3 222.5,93.8 220.7,94 
		220.3,92.4 219.1,91.9 216.9,92.3 217.1,94.2 215.6,95.3 214.3,95.3 214.3,96.9 212.9,97.8 211.8,99 211.8,100.2 209.9,100.2 
		208.5,100.6 208.5,101.7 208.1,102.1 207.5,101.1 206.3,101.4 205.6,102.7 204.7,101.9 200.5,102.8 200.1,105.2 198.2,105.9 
		198.1,106.8 198.8,107.8 198.4,108.6 196.5,107.2 193.4,109.4 194.6,109.8 194.6,111.5 192.8,112.5 201.2,112.5 201.2,110.9 
		226.5,108.6 229.6,106.7 229.6,105.9 233.7,101.6 232.2,100.6 230.9,99 230.6,98.1 229.4,97.2 	"/>
	<polygon id="Ohio" class="st1" points="234.5,70.3 233.3,70.8 230.9,73.2 226.8,74.4 225.4,73.5 223.8,73.7 222.2,72.6 214.9,73.4 
		216.9,92.3 219.1,91.9 220.3,92.4 220.7,94 222.5,93.8 223.1,94.3 224.5,94 225.9,94.3 227.5,93.3 228.2,94.3 229.4,95.2 
		230.6,95.2 231.4,93.6 231.6,91.1 232.1,90.6 232.9,91.7 233.3,91.1 233,89.3 234.4,87.5 235.4,87.5 237.5,84.9 237.5,79 
		238.2,77.9 236.5,68.6 	"/>
	<polygon id="Pennsylvania" class="st2" points="240.8,68.2 240.5,66 236.5,68.6 238.2,77.9 239.5,84.3 244.7,83.6 244.7,83.6 
		244.7,83.6 264.2,79.7 265.7,79 266.9,78.1 268.9,75.6 265.5,73.1 265.5,71.9 266.2,71.6 265.8,70.2 266.8,67.1 265.4,66.3 
		264.8,64.6 263.1,63.3 	"/>
	<polygon id="Rhode_Island" class="st0" points="285.4,61.9 283,58.6 280.8,59.2 281.5,62 281.8,64 	"/>
	<polygon id="South_Dakota" class="st3" points="145.9,69.2 149.9,69.2 153.8,70.8 154.3,64.3 154,51.6 152.4,49.8 153.7,48.4 
		153.6,47.1 117.3,45.6 115.6,66 143.7,67.5 	"/>
	<polygon id="Nebraska" class="st1" points="124.1,88 159.9,89.2 158,85.1 153.8,70.8 149.9,69.2 145.9,69.2 143.7,67.5 115.6,66 
		114.3,80.4 124.5,81.5 	"/>
	<polygon id="Idaho" class="st3" points="80.5,49.8 79,50.7 73.7,50.3 72.1,50.8 72.1,48.6 70.4,46.8 69.2,41.1 67.3,42.4 
		66.1,40.6 68.2,34.5 66.1,32.8 64.7,29.1 63.6,28.4 63.6,25.6 62.3,22.9 63.8,16.1 59.1,15 54.9,35.8 56.7,38.9 53.6,43.8 
		51.1,45.8 51.1,48 52.2,48 52.5,48.6 48.5,63.3 63.5,66.3 78.5,68.9 81.6,51.7 	"/>
	<g id="Alaska_8_">
		<polygon class="st3" points="62.1,179.5 60.5,180.3 60.4,181.6 59.2,182.1 58.8,181.2 56.8,179.2 56.7,178.3 54.4,178.6 
			53.9,178.1 53.9,150.9 50.9,149.4 49.9,150.2 44.3,147.9 42.8,147.9 42.8,146.3 41,146.3 39,144.4 38,145.7 36,145.3 34.6,146.1 
			32.6,146.1 31.6,147.9 30.5,148.9 29.2,148.9 27.4,148.7 26.8,149.4 28.4,152.4 28.4,154.1 29.7,154.9 30.4,157.6 29.7,157.9 
			27.3,156.8 28,155.5 26.5,155 25.3,155.7 22.2,155.7 22.2,156.4 23.3,157.8 22.9,159.8 24,161 25.9,161 27.3,161.7 29.2,161.2 
			29.6,161.9 29.1,162.6 28.8,164.9 26.7,164.9 24.8,165.6 24.5,164.6 23.3,164.4 22.3,166.3 20.2,167.4 20.1,169.4 20.6,170.2 
			20,171.3 21.2,174.4 23,174.4 23.6,174 24,176.1 23.1,176.5 23.1,178.4 23.8,178.5 25.4,178.1 26.9,180.4 27.6,179.1 28,180 
			29.9,179.6 29.5,180.4 27.9,183.2 26.4,183.9 26.1,184.9 25.1,184.7 23.3,185.4 22.3,186.3 21.1,185.7 19.3,186.4 18.5,187.2 
			15,187.2 14.3,187.9 14.7,188.8 15.7,188.3 17.3,188.8 18.5,188.1 19.6,188.3 20.5,187.5 21.6,187.9 23.1,187.2 23.6,187.8 
			25,187.1 25.7,187.5 26.7,186.7 26.1,186.2 29.2,185.2 34.6,181.9 35.4,181.1 34.4,179.9 35.1,178.8 36.7,178.4 39.5,174.8 
			41.5,174.8 41.7,175.6 40.5,175.3 39.2,176.1 38.4,178.7 38.8,179.1 37.5,179.7 37.8,180.3 39.3,180.4 41.7,178.4 43.3,178.7 
			44.2,179.7 45.4,178.2 44.4,177.8 43.8,176.5 46,175.9 46.9,177.7 50,179 51.7,179 54.6,180.1 55.9,179.5 56,179.9 55.6,180.7 
			59,182.9 60.5,184.1 61.2,184.1 60.8,184.8 61.1,185.2 61.7,185.8 62,187.5 62.6,187.8 64.1,189.8 64.1,188 64.4,188 64.9,190.1 
			65.3,190.3 65.5,189 65.6,189 65.8,190.7 66.2,191.4 65.7,191.8 67.5,194 68.1,193.9 68.1,192.9 69.2,193.8 69.1,191.6 
			70.3,192.1 70.8,193.3 71.6,193.3 72.2,191.7 71.6,189.1 68.3,187.8 65.3,182.8 64.1,182.3 		"/>
		<polygon class="st3" points="32.8,186.5 33.9,186.8 36.5,184.9 36.5,184.1 35.1,184.1 35.1,183.7 35.9,183.7 37.1,183.1 
			37.1,182.5 36.3,182 32.3,184.9 		"/>
		<polygon class="st3" points="16.4,171.7 17.6,173 18.7,173 19.2,171.8 16.4,170.8 		"/>
		<polygon class="st3" points="15.1,159.8 15.1,160.5 16.5,160.9 16.9,162.4 17.9,162.2 17.4,160.4 16.2,159.9 15.5,159 		"/>
		<polygon class="st3" points="8.4,188.7 6.6,189 5.6,189.7 6,190 7.9,189.4 8.9,189.8 9.9,190 11.3,189.6 11.7,189 10.8,188.2 
			9.9,188.4 10,189 9.4,189.4 8.8,189.3 		"/>
	</g>
	<g id="Hawaii_8_">
		<polygon class="st2" points="107.1,182.9 106.6,183.2 107.1,184.4 106.4,185.5 105.5,186.5 106.9,189 106.9,191.6 108.6,192.2 
			110.9,189.8 112.8,189.6 113.8,188.2 111.5,184.8 		"/>
		<polygon class="st2" points="102.2,177.3 101.3,178.2 103.4,180.5 105,180.4 106.3,179.4 104.8,178.3 103.5,178 		"/>
		<polygon class="st2" points="99.1,178.2 99.7,179.8 100.6,179.2 100.2,178.3 		"/>
		<polygon class="st2" points="90.9,173.7 91.9,175.6 93.4,175.7 94,175.9 95,175.9 95.2,175.4 94.3,174.8 92.9,172.6 		"/>
		<polygon class="st2" points="81,170.6 83.1,171.4 83.9,171.4 84.4,170.4 83.9,169 81.3,169.5 		"/>
		<polygon class="st2" points="78,171.8 78.7,172 79.4,171.1 78.8,170.7 		"/>
		<polygon class="st2" points="101.4,176.9 100.9,176.5 99.5,176.4 97.8,176.1 97.3,176.9 99.3,177.5 100.8,177.3 		"/>
	</g>
	<g id="Michigan_8_">
		<polygon class="st0" points="214.2,42 214.2,40.1 211.1,41 209.7,40.4 209.7,38.8 209.3,38.8 207,39.9 203.9,39.9 202.5,41.4 
			201.3,41.9 200.3,41.4 198.6,41.7 197,39.6 194.6,38.8 193.2,40 192.8,39.6 194,37.3 194.7,37 195.2,36 196.3,35.7 196.1,35 
			193.3,35.8 190.7,38.6 184.2,42.1 185.4,43.8 195.3,46 197.2,47.4 197.6,50.4 198.3,51.1 200.6,46.4 203.7,46.4 204.1,45.1 
			207.1,44.7 207.7,43.6 209.4,43.6 211.8,44.3 215.4,43.5 		"/>
		<polygon class="st0" points="214.9,73.4 214.9,73.4 222.2,72.6 223.3,70.3 223.3,68.7 223.9,68.2 224.7,66.3 225.8,66.3 
			225.8,62.5 224.7,60.4 224,57.7 223.3,56.7 222.5,56.1 220.7,56.9 220,58.8 218.8,60.1 217.6,59 217.7,57.8 218.8,56.8 
			219.2,55.3 220.1,54.7 220.1,51.4 218.9,50.4 218.9,49.8 219.5,49.7 219.5,49.1 218.5,47.7 217.5,47.7 214.3,46.1 213.3,46.3 
			212.3,45.4 210.4,46.2 210.3,47.8 211.4,48.4 209.7,48.7 209.3,49.4 209.5,52.3 208.2,52.6 208.7,50.1 208.1,49.5 207.5,51.1 
			206.1,52.1 206.2,53.5 205.5,53.9 204.6,61.3 207,67.2 206.6,70.8 204.7,74.4 214.9,73.4 		"/>
	</g>
	<g id="Virginia_8_">
		<polygon class="st3" points="266.8,97.8 267.7,97.8 268.5,95.7 268.2,94.6 268.5,93.1 270,91.2 270,90.7 267.4,91.9 267.5,92.4 
			266.8,94.6 		"/>
		<polygon class="st3" points="268.5,101.5 267,99.3 264.7,99.4 264.1,92.6 259.9,91.2 258.3,90.9 258,89.8 258.8,88.7 258.9,87.7 
			258.1,86.8 256,86.1 255.9,85.2 254.6,84.6 254.4,86.3 251.3,85 251.3,86.7 250.4,88.5 249.4,89.2 249.1,90 248.2,90.2 
			247.7,92.7 246.5,92.7 245.7,91.8 245.3,91.8 245.3,93.4 243,98.5 243,99.3 242.6,100.6 240.2,101.2 239.4,102.5 238.3,102.8 
			237.4,102.5 236.1,103.3 234.9,103.1 233.7,101.6 229.6,105.9 229.6,106.7 226.5,108.6 236.4,107.4 236.4,107.4 236.4,107.4 
			250.3,105.4 		"/>
	</g>
	<g id="Washington_8_">
		<polygon class="st2" points="33.3,8.8 33.3,10.1 34.2,11.6 33.6,12.7 33.6,15.3 34,16.1 33.5,16.4 32.5,14.8 32.5,13.9 33,13.7 
			33,12.8 31.8,13.6 31.8,14.6 25.8,12.1 24.3,10.3 23,10.3 23.1,18 24.3,20.8 23,21.1 22.5,26.1 24.5,26.1 27.1,27.5 27.1,31.3 
			30.5,32.6 31.4,32 35.2,33.3 39.4,33.9 41,33.5 45.9,33.5 54.9,35.8 59.1,15 		"/>
		<polygon class="st2" points="30.5,10.7 30.6,11.5 31.1,12.2 31.6,11.5 32,11.5 31.5,12.6 32.2,12.6 32.7,11.8 32.7,10.4 
			31.7,10.4 31.3,10.9 31.1,10.4 		"/>
	</g>
	<g>
		<path class="st4" d="M159.8,43.9h0.8l1,2.9h0l1-2.9h0.8v5.5h-0.8v-3.4h0l-0.8,2.4h-0.4l-0.8-2.4h0v3.4h-0.8V43.9z"/>
		<path class="st4" d="M164.3,43.9h0.8l1.2,3.3h0v-3.3h0.8v5.5h-0.7l-1.2-3.3h0v3.3h-0.8V43.9z"/>
	</g>
	<g>
		<path class="st4" d="M132.2,33.8h0.8l1.2,3.3h0v-3.3h0.8v5.5h-0.7L133,36h0v3.3h-0.8V33.8z"/>
		<path class="st4" d="M135.8,33.8h1.2c0.5,0,0.8,0.1,1,0.4c0.2,0.3,0.4,0.6,0.4,1.1v2.6c0,0.5-0.1,0.9-0.4,1.1
			c-0.3,0.2-0.6,0.4-1.1,0.4h-1.1V33.8z M136.6,38.5h0.4c0.2,0,0.4-0.1,0.5-0.2c0.1-0.1,0.1-0.3,0.1-0.5v-2.7c0-0.2,0-0.4-0.1-0.5
			c-0.1-0.1-0.2-0.2-0.5-0.2h-0.4V38.5z"/>
	</g>
	<g>
		<path class="st4" d="M88.8,33.8h0.8l1,2.9h0l1-2.9h0.8v5.5h-0.8v-3.4h0l-0.8,2.4h-0.4l-0.8-2.4h0v3.4h-0.8V33.8z"/>
		<path class="st4" d="M93.8,34.5h-0.9v-0.7h2.6v0.7h-0.9v4.8h-0.8V34.5z"/>
	</g>
	<g>
		<path class="st4" d="M98.3,66.7h-0.7l-0.6-3.6h0l-0.6,3.6h-0.7l-0.8-5.5h0.8l0.4,3.5h0l0.6-3.5h0.6l0.6,3.6h0l0.4-3.6h0.8
			L98.3,66.7z"/>
		<path class="st4" d="M100.5,64.4l-1.1-3.2h0.8l0.6,2.2h0l0.6-2.2h0.8l-1.1,3.2v2.3h-0.8V64.4z"/>
	</g>
	<g>
		<path class="st4" d="M103.2,95.6c0,0.2,0,0.3-0.1,0.5c-0.1,0.2-0.2,0.3-0.3,0.4c-0.1,0.1-0.2,0.2-0.4,0.3
			c-0.2,0.1-0.3,0.1-0.5,0.1c-0.2,0-0.3,0-0.5-0.1c-0.2,0-0.3-0.1-0.4-0.2c-0.1-0.1-0.2-0.2-0.3-0.4c-0.1-0.2-0.1-0.4-0.1-0.6v-3
			c0-0.2,0-0.3,0.1-0.5c0.1-0.2,0.2-0.3,0.3-0.4c0.1-0.1,0.3-0.2,0.4-0.3c0.2-0.1,0.3-0.1,0.5-0.1c0.2,0,0.3,0,0.5,0.1
			c0.2,0.1,0.3,0.2,0.4,0.3c0.1,0.1,0.2,0.3,0.3,0.4c0.1,0.2,0.1,0.3,0.1,0.5v0.3h-0.8v-0.3c0-0.2,0-0.3-0.1-0.4
			c-0.1-0.1-0.2-0.2-0.4-0.2c-0.2,0-0.3,0.1-0.4,0.2c-0.1,0.1-0.1,0.3-0.1,0.5v2.8c0,0.2,0,0.3,0.1,0.4c0.1,0.1,0.2,0.2,0.4,0.2
			c0.1,0,0.1,0,0.2,0c0.1,0,0.1,0,0.2-0.1c0,0,0.1-0.1,0.1-0.2c0-0.1,0-0.2,0-0.3v-0.3h0.8V95.6z"/>
		<path class="st4" d="M103.9,92.6c0-0.2,0-0.4,0.1-0.6c0.1-0.2,0.2-0.3,0.3-0.4c0.1-0.1,0.3-0.2,0.4-0.3c0.2-0.1,0.3-0.1,0.5-0.1
			c0.2,0,0.3,0,0.5,0.1c0.2,0.1,0.3,0.1,0.4,0.3c0.1,0.1,0.2,0.3,0.3,0.4c0.1,0.2,0.1,0.4,0.1,0.6v2.9c0,0.2,0,0.4-0.1,0.6
			c-0.1,0.2-0.2,0.3-0.3,0.4c-0.1,0.1-0.3,0.2-0.4,0.3c-0.2,0.1-0.3,0.1-0.5,0.1c-0.2,0-0.3,0-0.5-0.1c-0.2-0.1-0.3-0.1-0.4-0.3
			c-0.1-0.1-0.2-0.3-0.3-0.4c-0.1-0.2-0.1-0.4-0.1-0.6V92.6z M104.7,95.6c0,0.2,0.1,0.3,0.2,0.4c0.1,0.1,0.2,0.1,0.4,0.1
			c0.1,0,0.3,0,0.4-0.1c0.1-0.1,0.2-0.2,0.2-0.4v-2.9c0-0.2-0.1-0.3-0.2-0.4c-0.1-0.1-0.2-0.1-0.4-0.1c-0.1,0-0.3,0-0.4,0.1
			c-0.1,0.1-0.2,0.2-0.2,0.4V95.6z"/>
	</g>
	<g>
		<path class="st4" d="M94.9,123h0.8l1.2,3.3h0V123h0.8v5.5H97l-1.2-3.3h0v3.3h-0.8V123z"/>
		<path class="st4" d="M98.6,123h0.8l1,2.9h0l1-2.9h0.8v5.5h-0.8v-3.4h0l-0.8,2.4h-0.4l-0.8-2.4h0v3.4h-0.8V123z"/>
	</g>
	<g>
		<path class="st4" d="M62.7,53.7h0.8v5.5h-0.8V53.7z"/>
		<path class="st4" d="M64.5,53.7h1.2c0.5,0,0.8,0.1,1,0.4c0.2,0.3,0.4,0.6,0.4,1.1v2.6c0,0.5-0.1,0.9-0.4,1.1
			c-0.3,0.2-0.6,0.4-1.1,0.4h-1.1V53.7z M65.2,58.5h0.4c0.2,0,0.4-0.1,0.5-0.2c0.1-0.1,0.1-0.3,0.1-0.5v-2.7c0-0.2,0-0.4-0.1-0.5
			c-0.1-0.1-0.2-0.2-0.5-0.2h-0.4V58.5z"/>
	</g>
	<g>
		<path class="st4" d="M30.1,44.3c0-0.2,0-0.4,0.1-0.6c0.1-0.2,0.2-0.3,0.3-0.4c0.1-0.1,0.3-0.2,0.4-0.3c0.2-0.1,0.3-0.1,0.5-0.1
			c0.2,0,0.3,0,0.5,0.1c0.2,0.1,0.3,0.1,0.4,0.3c0.1,0.1,0.2,0.3,0.3,0.4c0.1,0.2,0.1,0.4,0.1,0.6v2.9c0,0.2,0,0.4-0.1,0.6
			c-0.1,0.2-0.2,0.3-0.3,0.4c-0.1,0.1-0.3,0.2-0.4,0.3c-0.2,0.1-0.3,0.1-0.5,0.1c-0.2,0-0.3,0-0.5-0.1c-0.2-0.1-0.3-0.1-0.4-0.3
			c-0.1-0.1-0.2-0.3-0.3-0.4c-0.1-0.2-0.1-0.4-0.1-0.6V44.3z M30.9,47.3c0,0.2,0.1,0.3,0.2,0.4c0.1,0.1,0.2,0.1,0.4,0.1
			c0.1,0,0.3,0,0.4-0.1c0.1-0.1,0.2-0.2,0.2-0.4v-2.9c0-0.2-0.1-0.3-0.2-0.4c-0.1-0.1-0.2-0.1-0.4-0.1c-0.1,0-0.3,0-0.4,0.1
			c-0.1,0.1-0.2,0.2-0.2,0.4V47.3z"/>
		<path class="st4" d="M33.6,43h1.3c0.9,0,1.4,0.5,1.4,1.6c0,0.3-0.1,0.6-0.2,0.8c-0.1,0.2-0.3,0.4-0.5,0.6l0.9,2.5h-0.8l-0.7-2.4
			h-0.5v2.4h-0.8V43z M34.4,45.5h0.5c0.1,0,0.3,0,0.3-0.1c0.1,0,0.1-0.1,0.2-0.2c0-0.1,0.1-0.2,0.1-0.3c0-0.1,0-0.2,0-0.4
			c0-0.1,0-0.3,0-0.4c0-0.1,0-0.2-0.1-0.3c0-0.1-0.1-0.1-0.2-0.2c-0.1,0-0.2-0.1-0.3-0.1h-0.4V45.5z"/>
	</g>
	<g>
		<path class="st4" d="M40.8,26.1h-0.7l-0.6-3.6h0l-0.6,3.6h-0.7l-0.8-5.5h0.8l0.4,3.5h0l0.6-3.5h0.6l0.6,3.6h0l0.4-3.6h0.8
			L40.8,26.1z"/>
		<path class="st4" d="M42.9,20.5h0.7l1.2,5.5H44l-0.2-1.2h-1.1l-0.2,1.2h-0.8L42.9,20.5z M43.3,22.1L43.3,22.1l-0.4,2h0.8
			L43.3,22.1z"/>
	</g>
	<g>
		<path class="st4" d="M72.3,90.5c0,0.2,0,0.3-0.1,0.5c-0.1,0.2-0.2,0.3-0.3,0.4c-0.1,0.1-0.3,0.2-0.4,0.3c-0.2,0.1-0.3,0.1-0.5,0.1
			c-0.2,0-0.3,0-0.5-0.1c-0.2-0.1-0.3-0.2-0.4-0.3c-0.1-0.1-0.2-0.3-0.3-0.4c-0.1-0.2-0.1-0.3-0.1-0.5v-4.3h0.8v4.2
			c0,0.2,0,0.3,0.1,0.4c0.1,0.1,0.2,0.1,0.3,0.1c0.1,0,0.3,0,0.3-0.1c0.1-0.1,0.1-0.2,0.1-0.4v-4.2h0.8V90.5z"/>
		<path class="st4" d="M73.8,86.9h-0.9v-0.7h2.6v0.7h-0.9v4.8h-0.8V86.9z"/>
	</g>
	<g>
		<path class="st4" d="M25.5,96.8c0,0.2,0,0.3-0.1,0.5c-0.1,0.2-0.2,0.3-0.3,0.4c-0.1,0.1-0.2,0.2-0.4,0.3c-0.2,0.1-0.3,0.1-0.5,0.1
			c-0.2,0-0.3,0-0.5-0.1c-0.2,0-0.3-0.1-0.4-0.2c-0.1-0.1-0.2-0.2-0.3-0.4c-0.1-0.2-0.1-0.4-0.1-0.6v-3c0-0.2,0-0.3,0.1-0.5
			c0.1-0.2,0.2-0.3,0.3-0.4c0.1-0.1,0.3-0.2,0.4-0.3c0.2-0.1,0.3-0.1,0.5-0.1c0.2,0,0.3,0,0.5,0.1c0.2,0.1,0.3,0.2,0.4,0.3
			c0.1,0.1,0.2,0.3,0.3,0.4c0.1,0.2,0.1,0.3,0.1,0.5v0.3h-0.8v-0.3c0-0.2,0-0.3-0.1-0.4c-0.1-0.1-0.2-0.2-0.4-0.2
			c-0.2,0-0.3,0.1-0.4,0.2c-0.1,0.1-0.1,0.3-0.1,0.5v2.8c0,0.2,0,0.3,0.1,0.4c0.1,0.1,0.2,0.2,0.4,0.2c0.1,0,0.1,0,0.2,0
			c0.1,0,0.1,0,0.2-0.1c0,0,0.1-0.1,0.1-0.2c0-0.1,0-0.2,0-0.3v-0.3h0.8V96.8z"/>
		<path class="st4" d="M27.2,92.5h0.7l1.2,5.5h-0.8L28,96.8H27L26.7,98h-0.8L27.2,92.5z M27.5,94.1L27.5,94.1l-0.4,2h0.8L27.5,94.1z
			"/>
	</g>
	<g>
		<path class="st4" d="M42.6,78.2h0.8l1.2,3.3h0v-3.3h0.8v5.5h-0.7l-1.2-3.3h0v3.3h-0.8V78.2z"/>
		<path class="st4" d="M47.8,83.7h-0.7L46,78.2h0.8l0.6,3.9h0l0.6-3.9h0.8L47.8,83.7z"/>
	</g>
	<g>
		<path class="st4" d="M64.7,120.2h0.7l1.2,5.5h-0.8l-0.2-1.2h-1.1l-0.2,1.2h-0.8L64.7,120.2z M65,121.8L65,121.8l-0.4,2h0.8
			L65,121.8z"/>
		<path class="st4" d="M66.8,125l1.5-4.1h-1.4v-0.7h2.3v0.6l-1.5,4.2h1.5v0.7h-2.4V125z"/>
	</g>
	<g>
		<path class="st4" d="M37.9,160.7h0.7l1.2,5.5H39l-0.2-1.2h-1.1l-0.2,1.2h-0.8L37.9,160.7z M38.2,162.3L38.2,162.3l-0.4,2h0.8
			L38.2,162.3z"/>
		<path class="st4" d="M40.3,160.7h0.8v2.5h0l1.2-2.5h0.8L42,163l1.3,3.3h-0.8l-0.9-2.5l-0.4,0.8v1.7h-0.8V160.7z"/>
	</g>
	<g>
		<path class="st4" d="M137.6,148.8h-0.9V148h2.6v0.7h-0.9v4.8h-0.8V148.8z"/>
		<path class="st4" d="M140.6,150.7l-1-2.6h0.8l0.6,1.6l0.6-1.6h0.8l-1.1,2.6l1.1,2.9h-0.8l-0.7-1.9l-0.7,1.9h-0.8L140.6,150.7z"/>
	</g>
	<g>
		<path class="st4" d="M135.3,55.3h-0.8v-0.2c0-0.2,0-0.3-0.1-0.5c-0.1-0.1-0.2-0.2-0.4-0.2c-0.1,0-0.2,0-0.3,0.1
			c-0.1,0-0.1,0.1-0.2,0.2c0,0.1-0.1,0.1-0.1,0.2c0,0.1,0,0.2,0,0.3c0,0.1,0,0.2,0,0.3c0,0.1,0,0.1,0.1,0.2c0,0.1,0.1,0.1,0.1,0.1
			c0.1,0,0.1,0.1,0.2,0.1l0.6,0.2c0.2,0.1,0.3,0.1,0.4,0.2c0.1,0.1,0.2,0.2,0.3,0.3c0.1,0.1,0.1,0.3,0.1,0.4c0,0.2,0,0.3,0,0.5
			c0,0.2,0,0.4-0.1,0.6c0,0.2-0.1,0.4-0.2,0.5c-0.1,0.1-0.2,0.3-0.4,0.3c-0.2,0.1-0.4,0.1-0.6,0.1c-0.2,0-0.4,0-0.5-0.1
			c-0.2-0.1-0.3-0.2-0.4-0.3c-0.1-0.1-0.2-0.3-0.3-0.4c-0.1-0.2-0.1-0.3-0.1-0.5v-0.3h0.8v0.2c0,0.1,0,0.3,0.1,0.4
			c0.1,0.1,0.2,0.2,0.4,0.2c0.1,0,0.2,0,0.3-0.1c0.1,0,0.1-0.1,0.2-0.2c0-0.1,0.1-0.2,0.1-0.3c0-0.1,0-0.2,0-0.3c0-0.1,0-0.3,0-0.4
			c0-0.1,0-0.2-0.1-0.2c0-0.1-0.1-0.1-0.1-0.1c-0.1,0-0.1-0.1-0.2-0.1l-0.6-0.2c-0.3-0.1-0.6-0.3-0.7-0.6c-0.1-0.2-0.2-0.5-0.2-0.9
			c0-0.2,0-0.4,0.1-0.6c0.1-0.2,0.1-0.3,0.3-0.5c0.1-0.1,0.3-0.2,0.4-0.3c0.2-0.1,0.4-0.1,0.6-0.1c0.2,0,0.4,0,0.5,0.1
			c0.2,0.1,0.3,0.2,0.4,0.3c0.1,0.1,0.2,0.3,0.3,0.4c0.1,0.1,0.1,0.3,0.1,0.5V55.3z"/>
		<path class="st4" d="M136.1,53.7h1.2c0.5,0,0.8,0.1,1,0.4c0.2,0.3,0.4,0.6,0.4,1.1v2.6c0,0.5-0.1,0.9-0.4,1.1
			c-0.3,0.2-0.6,0.4-1.1,0.4h-1.1V53.7z M136.9,58.5h0.4c0.2,0,0.4-0.1,0.5-0.2c0.1-0.1,0.1-0.3,0.1-0.5v-2.7c0-0.2,0-0.4-0.1-0.5
			c-0.1-0.1-0.2-0.2-0.5-0.2h-0.4V58.5z"/>
	</g>
	<g>
		<path class="st4" d="M134.5,75.5h0.8l1.2,3.3h0v-3.3h0.8V81h-0.7l-1.2-3.3h0V81h-0.8V75.5z"/>
		<path class="st4" d="M138.1,75.5h2.4v0.7h-1.6v1.6h1.4v0.7h-1.4v1.6h1.6V81h-2.4V75.5z"/>
	</g>
	<g>
		<path class="st4" d="M140.8,96.8h0.8v2.5h0l1.2-2.5h0.8l-1.1,2.2l1.3,3.3h-0.8l-0.9-2.5l-0.4,0.8v1.7h-0.8V96.8z"/>
		<path class="st4" d="M146.8,98.4H146v-0.2c0-0.2,0-0.3-0.1-0.5c-0.1-0.1-0.2-0.2-0.4-0.2c-0.1,0-0.2,0-0.3,0.1
			c-0.1,0-0.1,0.1-0.2,0.2c0,0.1-0.1,0.1-0.1,0.2c0,0.1,0,0.2,0,0.3c0,0.1,0,0.2,0,0.3c0,0.1,0,0.1,0.1,0.2c0,0.1,0.1,0.1,0.1,0.1
			c0.1,0,0.1,0.1,0.2,0.1l0.6,0.2c0.2,0.1,0.3,0.1,0.4,0.2c0.1,0.1,0.2,0.2,0.3,0.3c0.1,0.1,0.1,0.3,0.1,0.4c0,0.2,0,0.3,0,0.5
			c0,0.2,0,0.4-0.1,0.6c0,0.2-0.1,0.4-0.2,0.5c-0.1,0.1-0.2,0.3-0.4,0.3c-0.2,0.1-0.4,0.1-0.6,0.1c-0.2,0-0.4,0-0.5-0.1
			c-0.2-0.1-0.3-0.2-0.4-0.3c-0.1-0.1-0.2-0.3-0.3-0.4c-0.1-0.2-0.1-0.3-0.1-0.5v-0.3h0.8v0.2c0,0.1,0,0.3,0.1,0.4
			c0.1,0.1,0.2,0.2,0.4,0.2c0.1,0,0.2,0,0.3-0.1c0.1,0,0.1-0.1,0.2-0.2c0-0.1,0.1-0.2,0.1-0.3c0-0.1,0-0.2,0-0.3c0-0.1,0-0.3,0-0.4
			c0-0.1,0-0.2-0.1-0.2c0-0.1-0.1-0.1-0.1-0.1c-0.1,0-0.1-0.1-0.2-0.1l-0.6-0.2c-0.3-0.1-0.6-0.3-0.7-0.6c-0.1-0.2-0.2-0.5-0.2-0.9
			c0-0.2,0-0.4,0.1-0.6c0.1-0.2,0.1-0.3,0.3-0.5c0.1-0.1,0.3-0.2,0.4-0.3c0.2-0.1,0.4-0.1,0.6-0.1c0.2,0,0.4,0,0.5,0.1
			c0.2,0.1,0.3,0.2,0.4,0.3c0.1,0.1,0.2,0.3,0.3,0.4c0.1,0.1,0.1,0.3,0.1,0.5V98.4z"/>
	</g>
	<g>
		<path class="st4" d="M146,119.9c0-0.2,0-0.4,0.1-0.6c0.1-0.2,0.2-0.3,0.3-0.4c0.1-0.1,0.3-0.2,0.4-0.3c0.2-0.1,0.3-0.1,0.5-0.1
			c0.2,0,0.3,0,0.5,0.1c0.2,0.1,0.3,0.1,0.4,0.3c0.1,0.1,0.2,0.3,0.3,0.4c0.1,0.2,0.1,0.4,0.1,0.6v2.9c0,0.2,0,0.4-0.1,0.6
			c-0.1,0.2-0.2,0.3-0.3,0.4c-0.1,0.1-0.3,0.2-0.4,0.3c-0.2,0.1-0.3,0.1-0.5,0.1c-0.2,0-0.3,0-0.5-0.1c-0.2-0.1-0.3-0.1-0.4-0.3
			c-0.1-0.1-0.2-0.3-0.3-0.4c-0.1-0.2-0.1-0.4-0.1-0.6V119.9z M146.8,122.8c0,0.2,0.1,0.3,0.2,0.4c0.1,0.1,0.2,0.1,0.4,0.1
			c0.1,0,0.3,0,0.4-0.1c0.1-0.1,0.2-0.2,0.2-0.4v-2.9c0-0.2-0.1-0.3-0.2-0.4c-0.1-0.1-0.2-0.1-0.4-0.1c-0.1,0-0.3,0-0.4,0.1
			c-0.1,0.1-0.2,0.2-0.2,0.4V122.8z"/>
		<path class="st4" d="M149.5,118.6h0.8v2.5h0l1.2-2.5h0.8l-1.1,2.2l1.3,3.3h-0.8l-0.9-2.5l-0.4,0.8v1.7h-0.8V118.6z"/>
	</g>
	<g>
		<path class="st4" d="M173.8,122.2h0.7l1.2,5.5h-0.8l-0.2-1.2h-1.1l-0.2,1.2h-0.8L173.8,122.2z M174.2,123.8L174.2,123.8l-0.4,2
			h0.8L174.2,123.8z"/>
		<path class="st4" d="M176.3,122.2h1.3c0.9,0,1.4,0.5,1.4,1.6c0,0.3-0.1,0.6-0.2,0.8c-0.1,0.2-0.3,0.4-0.5,0.6l0.9,2.5h-0.8
			l-0.7-2.4h-0.5v2.4h-0.8V122.2z M177.1,124.7h0.5c0.1,0,0.3,0,0.3-0.1c0.1,0,0.1-0.1,0.2-0.2c0-0.1,0.1-0.2,0.1-0.3
			c0-0.1,0-0.2,0-0.4s0-0.3,0-0.4s0-0.2-0.1-0.3c0-0.1-0.1-0.1-0.2-0.2c-0.1,0-0.2-0.1-0.3-0.1h-0.4V124.7z"/>
	</g>
	<g>
		<path class="st4" d="M174.1,145.9h0.8v4.7h1.6v0.8h-2.4V145.9z"/>
		<path class="st4" d="M178,145.9h0.7l1.2,5.5h-0.8l-0.2-1.2h-1.1l-0.2,1.2h-0.8L178,145.9z M178.4,147.5L178.4,147.5l-0.4,2h0.8
			L178.4,147.5z"/>
	</g>
	<g>
		<path class="st4" d="M171.2,96.7h0.8l1,2.9h0l1-2.9h0.8v5.5h-0.8v-3.4h0l-0.8,2.4h-0.4l-0.8-2.4h0v3.4h-0.8V96.7z"/>
		<path class="st4" d="M175.6,98c0-0.2,0-0.4,0.1-0.6c0.1-0.2,0.2-0.3,0.3-0.4c0.1-0.1,0.3-0.2,0.4-0.3c0.2-0.1,0.3-0.1,0.5-0.1
			c0.2,0,0.3,0,0.5,0.1c0.2,0.1,0.3,0.1,0.4,0.3c0.1,0.1,0.2,0.3,0.3,0.4c0.1,0.2,0.1,0.4,0.1,0.6v2.9c0,0.2,0,0.4-0.1,0.6
			c-0.1,0.2-0.2,0.3-0.3,0.4c-0.1,0.1-0.3,0.2-0.4,0.3c-0.2,0.1-0.3,0.1-0.5,0.1c-0.2,0-0.3,0-0.5-0.1c-0.2-0.1-0.3-0.1-0.4-0.3
			c-0.1-0.1-0.2-0.3-0.3-0.4c-0.1-0.2-0.1-0.4-0.1-0.6V98z M176.4,100.9c0,0.2,0.1,0.3,0.2,0.4c0.1,0.1,0.2,0.1,0.4,0.1
			c0.1,0,0.3,0,0.4-0.1c0.1-0.1,0.2-0.2,0.2-0.4V98c0-0.2-0.1-0.3-0.2-0.4c-0.1-0.1-0.2-0.1-0.4-0.1c-0.1,0-0.3,0-0.4,0.1
			c-0.1,0.1-0.2,0.2-0.2,0.4V100.9z"/>
	</g>
	<g>
		<path class="st4" d="M189.7,136.1h0.8l1,2.9h0l1-2.9h0.8v5.5h-0.8v-3.4h0l-0.8,2.4h-0.4l-0.8-2.4h0v3.4h-0.8V136.1z"/>
		<path class="st4" d="M196.8,137.7H196v-0.2c0-0.2,0-0.3-0.1-0.5c-0.1-0.1-0.2-0.2-0.4-0.2c-0.1,0-0.2,0-0.3,0.1
			c-0.1,0-0.1,0.1-0.2,0.2c0,0.1-0.1,0.1-0.1,0.2c0,0.1,0,0.2,0,0.3c0,0.1,0,0.2,0,0.3c0,0.1,0,0.1,0.1,0.2c0,0.1,0.1,0.1,0.1,0.1
			c0.1,0,0.1,0.1,0.2,0.1l0.6,0.2c0.2,0.1,0.3,0.1,0.4,0.2c0.1,0.1,0.2,0.2,0.3,0.3c0.1,0.1,0.1,0.3,0.1,0.4c0,0.2,0,0.3,0,0.5
			c0,0.2,0,0.4-0.1,0.6c0,0.2-0.1,0.4-0.2,0.5c-0.1,0.1-0.2,0.3-0.4,0.3c-0.2,0.1-0.4,0.1-0.6,0.1c-0.2,0-0.4,0-0.5-0.1
			c-0.2-0.1-0.3-0.2-0.4-0.3c-0.1-0.1-0.2-0.3-0.3-0.4c-0.1-0.2-0.1-0.3-0.1-0.5V140h0.8v0.2c0,0.1,0,0.3,0.1,0.4
			c0.1,0.1,0.2,0.2,0.4,0.2c0.1,0,0.2,0,0.3-0.1c0.1,0,0.1-0.1,0.2-0.2c0-0.1,0.1-0.2,0.1-0.3c0-0.1,0-0.2,0-0.3c0-0.1,0-0.3,0-0.4
			c0-0.1,0-0.2-0.1-0.2c0-0.1-0.1-0.1-0.1-0.1c-0.1,0-0.1-0.1-0.2-0.1l-0.6-0.2c-0.3-0.1-0.6-0.3-0.7-0.6c-0.1-0.2-0.2-0.5-0.2-0.9
			c0-0.2,0-0.4,0.1-0.6c0.1-0.2,0.1-0.3,0.3-0.5c0.1-0.1,0.3-0.2,0.4-0.3c0.2-0.1,0.4-0.1,0.6-0.1c0.2,0,0.4,0,0.5,0.1
			c0.2,0.1,0.3,0.2,0.4,0.3c0.1,0.1,0.2,0.3,0.3,0.4c0.1,0.1,0.1,0.3,0.1,0.5V137.7z"/>
	</g>
	<g>
		<path class="st4" d="M208.1,133.6h0.7l1.2,5.5h-0.8L209,138h-1.1l-0.2,1.2h-0.8L208.1,133.6z M208.4,135.2L208.4,135.2l-0.4,2h0.8
			L208.4,135.2z"/>
		<path class="st4" d="M210.6,133.6h0.8v4.7h1.6v0.8h-2.4V133.6z"/>
	</g>
	<g>
		<path class="st4" d="M208.4,114.1h-0.9v-0.7h2.6v0.7h-0.9v4.8h-0.8V114.1z"/>
		<path class="st4" d="M210.6,113.3h0.8l1.2,3.3h0v-3.3h0.8v5.5h-0.7l-1.2-3.3h0v3.3h-0.8V113.3z"/>
	</g>
	<g>
		<path class="st4" d="M216.4,99.9h0.8v2.5h0l1.2-2.5h0.8l-1.1,2.2l1.3,3.3h-0.8l-0.9-2.5l-0.4,0.8v1.7h-0.8V99.9z"/>
		<path class="st4" d="M220.6,103.1l-1.1-3.2h0.8l0.6,2.2h0l0.6-2.2h0.8l-1.1,3.2v2.3h-0.8V103.1z"/>
	</g>
	<g>
		<path class="st4" d="M227.2,134.5c0-0.2,0-0.4,0.1-0.6c0.1-0.2,0.2-0.3,0.3-0.4c0.1-0.1,0.3-0.2,0.4-0.3c0.2-0.1,0.3-0.1,0.5-0.1
			s0.3,0,0.5,0.1c0.2,0.1,0.3,0.1,0.4,0.3c0.1,0.1,0.2,0.3,0.3,0.4c0.1,0.2,0.1,0.4,0.1,0.6v0.3H229v-0.3c0-0.2-0.1-0.3-0.2-0.4
			c-0.1-0.1-0.2-0.1-0.4-0.1c-0.1,0-0.3,0-0.4,0.1c-0.1,0.1-0.2,0.2-0.2,0.4v2.9c0,0.2,0.1,0.3,0.2,0.4c0.1,0.1,0.2,0.1,0.4,0.1
			c0.1,0,0.3,0,0.4-0.1c0.1-0.1,0.2-0.2,0.2-0.4v-1h-0.6v-0.7h1.4v1.7c0,0.2,0,0.4-0.1,0.6c-0.1,0.2-0.2,0.3-0.3,0.4
			c-0.1,0.1-0.3,0.2-0.4,0.3c-0.2,0.1-0.3,0.1-0.5,0.1s-0.3,0-0.5-0.1c-0.2-0.1-0.3-0.1-0.4-0.3c-0.1-0.1-0.2-0.3-0.3-0.4
			c-0.1-0.2-0.1-0.4-0.1-0.6V134.5z"/>
		<path class="st4" d="M231.5,133.2h0.7l1.2,5.5h-0.8l-0.2-1.2h-1.1l-0.2,1.2h-0.8L231.5,133.2z M231.9,134.8L231.9,134.8l-0.4,2
			h0.8L231.9,134.8z"/>
	</g>
	<g>
		<path class="st4" d="M244.5,165.6h2.4v0.7h-1.6v1.7h1.4v0.7h-1.4v2.4h-0.8V165.6z"/>
		<path class="st4" d="M247.5,165.6h0.8v4.7h1.6v0.8h-2.4V165.6z"/>
	</g>
	<g>
		<path class="st4" d="M243.2,123.8h-0.8v-0.2c0-0.2,0-0.3-0.1-0.5c-0.1-0.1-0.2-0.2-0.4-0.2c-0.1,0-0.2,0-0.3,0.1
			c-0.1,0-0.1,0.1-0.2,0.2c0,0.1-0.1,0.1-0.1,0.2c0,0.1,0,0.2,0,0.3c0,0.1,0,0.2,0,0.3c0,0.1,0,0.1,0.1,0.2c0,0.1,0.1,0.1,0.1,0.1
			c0.1,0,0.1,0.1,0.2,0.1l0.6,0.2c0.2,0.1,0.3,0.1,0.4,0.2c0.1,0.1,0.2,0.2,0.3,0.3c0.1,0.1,0.1,0.3,0.1,0.4c0,0.2,0,0.3,0,0.5
			c0,0.2,0,0.4-0.1,0.6c0,0.2-0.1,0.4-0.2,0.5c-0.1,0.1-0.2,0.3-0.4,0.3c-0.2,0.1-0.4,0.1-0.6,0.1c-0.2,0-0.4,0-0.5-0.1
			c-0.2-0.1-0.3-0.2-0.4-0.3c-0.1-0.1-0.2-0.3-0.3-0.4c-0.1-0.2-0.1-0.3-0.1-0.5v-0.3h0.8v0.2c0,0.1,0,0.3,0.1,0.4
			c0.1,0.1,0.2,0.2,0.4,0.2c0.1,0,0.2,0,0.3-0.1c0.1,0,0.1-0.1,0.2-0.2c0-0.1,0.1-0.2,0.1-0.3c0-0.1,0-0.2,0-0.3c0-0.1,0-0.3,0-0.4
			c0-0.1,0-0.2-0.1-0.2c0-0.1-0.1-0.1-0.1-0.1c-0.1,0-0.1-0.1-0.2-0.1l-0.6-0.2c-0.3-0.1-0.6-0.3-0.7-0.6c-0.1-0.2-0.2-0.5-0.2-0.9
			c0-0.2,0-0.4,0.1-0.6c0.1-0.2,0.1-0.3,0.3-0.5c0.1-0.1,0.3-0.2,0.4-0.3c0.2-0.1,0.4-0.1,0.6-0.1c0.2,0,0.4,0,0.5,0.1
			c0.2,0.1,0.3,0.2,0.4,0.3c0.1,0.1,0.2,0.3,0.3,0.4c0.1,0.1,0.1,0.3,0.1,0.5V123.8z"/>
		<path class="st4" d="M246.5,126.5c0,0.2,0,0.3-0.1,0.5c-0.1,0.2-0.2,0.3-0.3,0.4c-0.1,0.1-0.2,0.2-0.4,0.3
			c-0.2,0.1-0.3,0.1-0.5,0.1c-0.2,0-0.3,0-0.5-0.1c-0.2,0-0.3-0.1-0.4-0.2c-0.1-0.1-0.2-0.2-0.3-0.4c-0.1-0.2-0.1-0.4-0.1-0.6v-3
			c0-0.2,0-0.3,0.1-0.5c0.1-0.2,0.2-0.3,0.3-0.4c0.1-0.1,0.3-0.2,0.4-0.3c0.2-0.1,0.3-0.1,0.5-0.1c0.2,0,0.3,0,0.5,0.1
			c0.2,0.1,0.3,0.2,0.4,0.3c0.1,0.1,0.2,0.3,0.3,0.4c0.1,0.2,0.1,0.3,0.1,0.5v0.3h-0.8v-0.3c0-0.2,0-0.3-0.1-0.4
			c-0.1-0.1-0.2-0.2-0.4-0.2c-0.2,0-0.3,0.1-0.4,0.2c-0.1,0.1-0.1,0.3-0.1,0.5v2.8c0,0.2,0,0.3,0.1,0.4c0.1,0.1,0.2,0.2,0.4,0.2
			c0.1,0,0.1,0,0.2,0c0.1,0,0.1,0,0.2-0.1c0,0,0.1-0.1,0.1-0.2c0-0.1,0-0.2,0-0.3v-0.3h0.8V126.5z"/>
	</g>
	<g>
		<path class="st4" d="M251.8,100.4h-0.7l-1.1-5.5h0.8l0.6,3.9h0l0.6-3.9h0.8L251.8,100.4z"/>
		<path class="st4" d="M254.2,94.8h0.7l1.2,5.5h-0.8l-0.2-1.2H254l-0.2,1.2h-0.8L254.2,94.8z M254.5,96.4L254.5,96.4l-0.4,2h0.8
			L254.5,96.4z"/>
	</g>
	<g>
		<path class="st4" d="M238.7,95.9H238l-0.6-3.6h0l-0.6,3.6H236l-0.8-5.5h0.8l0.4,3.5h0l0.6-3.5h0.6l0.6,3.6h0l0.4-3.6h0.8
			L238.7,95.9z"/>
		<path class="st4" d="M241.8,95.9h-0.7l-1.1-5.5h0.8l0.6,3.9h0l0.6-3.9h0.8L241.8,95.9z"/>
	</g>
	<g>
		<path class="st4" d="M248.5,71.2h1.2c0.2,0,0.4,0,0.6,0.1c0.2,0.1,0.3,0.2,0.5,0.3c0.1,0.1,0.2,0.3,0.3,0.5
			c0.1,0.2,0.1,0.5,0.1,0.8c0,0.2,0,0.5,0,0.6c0,0.2-0.1,0.3-0.2,0.5c-0.1,0.2-0.3,0.3-0.4,0.4c-0.2,0.1-0.4,0.2-0.7,0.2h-0.4v2.2
			h-0.8V71.2z M249.3,73.9h0.4c0.2,0,0.3,0,0.4-0.1c0.1,0,0.2-0.1,0.2-0.2c0-0.1,0.1-0.2,0.1-0.3c0-0.1,0-0.2,0-0.4
			c0-0.1,0-0.3,0-0.4c0-0.1,0-0.2-0.1-0.3c0-0.1-0.1-0.2-0.2-0.2c-0.1,0-0.2-0.1-0.4-0.1h-0.4V73.9z"/>
		<path class="st4" d="M252.4,71.2h0.7l1.2,5.5h-0.8l-0.2-1.2h-1.1l-0.2,1.2h-0.8L252.4,71.2z M252.7,72.8L252.7,72.8l-0.4,2h0.8
			L252.7,72.8z"/>
	</g>
	<g>
		<path class="st4" d="M188.1,60.4h-0.7l-0.6-3.6h0l-0.6,3.6h-0.7l-0.8-5.5h0.8l0.4,3.5h0l0.6-3.5h0.6l0.6,3.6h0l0.4-3.6h0.8
			L188.1,60.4z"/>
		<path class="st4" d="M189.6,54.8h0.8v5.5h-0.8V54.8z"/>
	</g>
	<g>
		<path class="st4" d="M167.3,71.5h0.8v5.5h-0.8V71.5z"/>
		<path class="st4" d="M169.9,71.5h0.7l1.2,5.5H171l-0.2-1.2h-1.1l-0.2,1.2h-0.8L169.9,71.5z M170.2,73.1L170.2,73.1l-0.4,2h0.8
			L170.2,73.1z"/>
	</g>
	<g>
		<path class="st4" d="M190.1,82.7h0.8v5.5h-0.8V82.7z"/>
		<path class="st4" d="M191.9,82.7h0.8v4.7h1.6v0.8h-2.4V82.7z"/>
	</g>
	<g>
		<path class="st4" d="M206.9,83.8h0.8v5.5h-0.8V83.8z"/>
		<path class="st4" d="M208.6,83.8h0.8l1.2,3.3h0v-3.3h0.8v5.5h-0.7l-1.2-3.3h0v3.3h-0.8V83.8z"/>
	</g>
	<g>
		<path class="st4" d="M211.2,61.8h0.8l1,2.9h0l1-2.9h0.8v5.5H214v-3.4h0l-0.8,2.4h-0.4l-0.8-2.4h0v3.4h-0.8V61.8z"/>
		<path class="st4" d="M215.7,61.8h0.8v5.5h-0.8V61.8z"/>
	</g>
	<g>
		<path class="st4" d="M223.1,81.7c0-0.2,0-0.4,0.1-0.6c0.1-0.2,0.2-0.3,0.3-0.4c0.1-0.1,0.3-0.2,0.4-0.3c0.2-0.1,0.3-0.1,0.5-0.1
			c0.2,0,0.3,0,0.5,0.1c0.2,0.1,0.3,0.1,0.4,0.3c0.1,0.1,0.2,0.3,0.3,0.4c0.1,0.2,0.1,0.4,0.1,0.6v2.9c0,0.2,0,0.4-0.1,0.6
			c-0.1,0.2-0.2,0.3-0.3,0.4c-0.1,0.1-0.3,0.2-0.4,0.3c-0.2,0.1-0.3,0.1-0.5,0.1c-0.2,0-0.3,0-0.5-0.1c-0.2-0.1-0.3-0.1-0.4-0.3
			c-0.1-0.1-0.2-0.3-0.3-0.4c-0.1-0.2-0.1-0.4-0.1-0.6V81.7z M223.9,84.6c0,0.2,0.1,0.3,0.2,0.4c0.1,0.1,0.2,0.1,0.4,0.1
			c0.1,0,0.3,0,0.4-0.1c0.1-0.1,0.2-0.2,0.2-0.4v-2.9c0-0.2-0.1-0.3-0.2-0.4c-0.1-0.1-0.2-0.1-0.4-0.1c-0.1,0-0.3,0-0.4,0.1
			c-0.1,0.1-0.2,0.2-0.2,0.4V84.6z"/>
		<path class="st4" d="M226.6,80.4h0.8v2.4h1v-2.4h0.8v5.5h-0.8v-2.5h-1v2.5h-0.8V80.4z"/>
	</g>
	<g>
		<path class="st4" d="M260.7,53.2h0.8l1.2,3.3h0v-3.3h0.8v5.5h-0.7l-1.2-3.3h0v3.3h-0.8V53.2z"/>
		<path class="st4" d="M265.1,56.4l-1.1-3.2h0.8l0.6,2.2h0l0.6-2.2h0.8l-1.1,3.2v2.3h-0.8V56.4z"/>
	</g>
	<g>
		<path class="st4" d="M283.6,31.5h0.8l1,2.9h0l1-2.9h0.8V37h-0.8v-3.4h0l-0.8,2.4h-0.4l-0.8-2.4h0V37h-0.8V31.5z"/>
		<path class="st4" d="M288.1,31.5h2.4v0.7h-1.6v1.6h1.4v0.7h-1.4v1.6h1.6V37h-2.4V31.5z"/>
	</g>
	<g>
		<path class="st2" d="M263,37.7h-0.7l-1.1-5.5h0.8l0.6,3.9h0l0.6-3.9h0.8L263,37.7z"/>
		<path class="st2" d="M265.2,32.9h-0.9v-0.7h2.6v0.7H266v4.8h-0.8V32.9z"/>
	</g>
	<g>
		<path class="st2" d="M90.5,182.2h0.8v2.4h1v-2.4h0.8v5.5h-0.8v-2.5h-1v2.5h-0.8V182.2z"/>
		<path class="st2" d="M94,182.2h0.8v5.5H94V182.2z"/>
	</g>
	<g>
		<path class="st2" d="M270.4,28.6h0.8l1.2,3.3h0v-3.3h0.8v5.5h-0.7l-1.2-3.3h0v3.3h-0.8V28.6z"/>
		<path class="st2" d="M274.1,28.6h0.8v2.4h1v-2.4h0.8v5.5h-0.8v-2.5h-1v2.5h-0.8V28.6z"/>
	</g>
	<g>
		<path class="st2" d="M287.2,49.7h0.8l1,2.9h0l1-2.9h0.8v5.5H290v-3.4h0l-0.8,2.4h-0.4l-0.8-2.4h0v3.4h-0.8V49.7z"/>
		<path class="st2" d="M292.6,49.7h0.7l1.2,5.5h-0.8l-0.2-1.2h-1.1l-0.2,1.2h-0.8L292.6,49.7z M292.9,51.3L292.9,51.3l-0.4,2h0.8
			L292.9,51.3z"/>
	</g>
	<g>
		<path class="st2" d="M289.3,61.8h1.3c0.9,0,1.4,0.5,1.4,1.6c0,0.3-0.1,0.6-0.2,0.8c-0.1,0.2-0.3,0.4-0.5,0.6l0.9,2.5h-0.8
			l-0.7-2.4h-0.5v2.4h-0.8V61.8z M290.1,64.3h0.5c0.1,0,0.3,0,0.3-0.1c0.1,0,0.1-0.1,0.2-0.2c0-0.1,0.1-0.2,0.1-0.3
			c0-0.1,0-0.2,0-0.4s0-0.3,0-0.4c0-0.1,0-0.2-0.1-0.3c0-0.1-0.1-0.1-0.2-0.2c-0.1,0-0.2-0.1-0.3-0.1h-0.4V64.3z"/>
		<path class="st2" d="M292.8,61.8h0.8v5.5h-0.8V61.8z"/>
	</g>
	<g>
		<path class="st2" d="M284.5,71.4c0,0.2,0,0.3-0.1,0.5c-0.1,0.2-0.2,0.3-0.3,0.4c-0.1,0.1-0.2,0.2-0.4,0.3
			c-0.2,0.1-0.3,0.1-0.5,0.1c-0.2,0-0.3,0-0.5-0.1c-0.2,0-0.3-0.1-0.4-0.2c-0.1-0.1-0.2-0.2-0.3-0.4c-0.1-0.2-0.1-0.4-0.1-0.6v-3
			c0-0.2,0-0.3,0.1-0.5c0.1-0.2,0.2-0.3,0.3-0.4c0.1-0.1,0.3-0.2,0.4-0.3c0.2-0.1,0.3-0.1,0.5-0.1c0.2,0,0.3,0,0.5,0.1
			c0.2,0.1,0.3,0.2,0.4,0.3c0.1,0.1,0.2,0.3,0.3,0.4c0.1,0.2,0.1,0.3,0.1,0.5v0.3h-0.8v-0.3c0-0.2,0-0.3-0.1-0.4
			c-0.1-0.1-0.2-0.2-0.4-0.2c-0.2,0-0.3,0.1-0.4,0.2c-0.1,0.1-0.1,0.3-0.1,0.5v2.8c0,0.2,0,0.3,0.1,0.4c0.1,0.1,0.2,0.2,0.4,0.2
			c0.1,0,0.1,0,0.2,0c0.1,0,0.1,0,0.2-0.1c0,0,0.1-0.1,0.1-0.2c0-0.1,0-0.2,0-0.3V71h0.8V71.4z"/>
		<path class="st2" d="M285.8,67.8h-0.9v-0.7h2.6v0.7h-0.9v4.8h-0.8V67.8z"/>
	</g>
	<g>
		<path class="st2" d="M274.3,74.7h0.8l1.2,3.3h0v-3.3h0.8v5.5h-0.7l-1.2-3.3h0v3.3h-0.8V74.7z"/>
		<path class="st2" d="M279.7,78.9c0,0.2,0,0.4-0.1,0.5c-0.1,0.2-0.2,0.3-0.3,0.4c-0.1,0.1-0.3,0.2-0.4,0.3
			c-0.2,0.1-0.4,0.1-0.6,0.1c-0.3,0-0.5-0.1-0.6-0.2c-0.2-0.1-0.3-0.2-0.4-0.3l0.6-0.5c0.1,0.1,0.1,0.1,0.2,0.1
			c0.1,0,0.2,0.1,0.2,0.1c0,0,0.1,0,0.2,0c0.1,0,0.1-0.1,0.2-0.1c0.1,0,0.1-0.1,0.1-0.2c0-0.1,0.1-0.2,0.1-0.3v-4.1h0.8V78.9z"/>
	</g>
	<g>
		<path class="st2" d="M272.6,83.8h1.2c0.5,0,0.8,0.1,1,0.4c0.2,0.3,0.4,0.6,0.4,1.1v2.6c0,0.5-0.1,0.9-0.4,1.1
			c-0.3,0.2-0.6,0.4-1.1,0.4h-1.1V83.8z M273.4,88.6h0.4c0.2,0,0.4-0.1,0.5-0.2c0.1-0.1,0.1-0.3,0.1-0.5v-2.7c0-0.2,0-0.4-0.1-0.5
			c-0.1-0.1-0.2-0.2-0.5-0.2h-0.4V88.6z"/>
		<path class="st2" d="M276.1,83.8h2.4v0.7h-1.6v1.6h1.4v0.7h-1.4v1.6h1.6v0.8h-2.4V83.8z"/>
	</g>
	<g>
		<path class="st2" d="M270.7,94.8h0.8l1,2.9h0l1-2.9h0.8v5.5h-0.8v-3.4h0l-0.8,2.4h-0.4l-0.8-2.4h0v3.4h-0.8V94.8z"/>
		<path class="st2" d="M275.2,94.8h1.2c0.5,0,0.8,0.1,1,0.4c0.2,0.3,0.4,0.6,0.4,1.1v2.6c0,0.5-0.1,0.9-0.4,1.1
			c-0.3,0.2-0.6,0.4-1.1,0.4h-1.1V94.8z M276,99.6h0.4c0.2,0,0.4-0.1,0.5-0.2c0.1-0.1,0.1-0.3,0.1-0.5v-2.7c0-0.2,0-0.4-0.1-0.5
			c-0.1-0.1-0.2-0.2-0.5-0.2H276V99.6z"/>
	</g>
	<g>
		<path class="st4" d="M250.3,109.5h0.8l1.2,3.3h0v-3.3h0.8v5.5h-0.7l-1.2-3.3h0v3.3h-0.8V109.5z"/>
		<path class="st4" d="M256.4,113.8c0,0.2,0,0.3-0.1,0.5c-0.1,0.2-0.2,0.3-0.3,0.4c-0.1,0.1-0.2,0.2-0.4,0.3
			c-0.2,0.1-0.3,0.1-0.5,0.1c-0.2,0-0.3,0-0.5-0.1c-0.2,0-0.3-0.1-0.4-0.2c-0.1-0.1-0.2-0.2-0.3-0.4c-0.1-0.2-0.1-0.4-0.1-0.6v-3
			c0-0.2,0-0.3,0.1-0.5c0.1-0.2,0.2-0.3,0.3-0.4c0.1-0.1,0.3-0.2,0.4-0.3c0.2-0.1,0.3-0.1,0.5-0.1c0.2,0,0.3,0,0.5,0.1
			c0.2,0.1,0.3,0.2,0.4,0.3c0.1,0.1,0.2,0.3,0.3,0.4c0.1,0.2,0.1,0.3,0.1,0.5v0.3h-0.8v-0.3c0-0.2,0-0.3-0.1-0.4
			c-0.1-0.1-0.2-0.2-0.4-0.2c-0.2,0-0.3,0.1-0.4,0.2c-0.1,0.1-0.1,0.3-0.1,0.5v2.8c0,0.2,0,0.3,0.1,0.4c0.1,0.1,0.2,0.2,0.4,0.2
			c0.1,0,0.1,0,0.2,0c0.1,0,0.1,0,0.2-0.1c0,0,0.1-0.1,0.1-0.2c0-0.1,0-0.2,0-0.3v-0.3h0.8V113.8z"/>
	</g>
	<g>
		<path class="st2" d="M280.7,90.3h1.2c0.5,0,0.8,0.1,1,0.4c0.2,0.3,0.4,0.6,0.4,1.1v2.6c0,0.5-0.1,0.9-0.4,1.1
			c-0.3,0.2-0.6,0.4-1.1,0.4h-1.1V90.3z M281.5,95.1h0.4c0.2,0,0.4-0.1,0.5-0.2c0.1-0.1,0.1-0.3,0.1-0.5v-2.7c0-0.2,0-0.4-0.1-0.5
			c-0.1-0.1-0.2-0.2-0.5-0.2h-0.4V95.1z"/>
		<path class="st2" d="M286.7,94.6c0,0.2,0,0.3-0.1,0.5c-0.1,0.2-0.2,0.3-0.3,0.4c-0.1,0.1-0.2,0.2-0.4,0.3
			c-0.2,0.1-0.3,0.1-0.5,0.1c-0.2,0-0.3,0-0.5-0.1c-0.2,0-0.3-0.1-0.4-0.2c-0.1-0.1-0.2-0.2-0.3-0.4c-0.1-0.2-0.1-0.4-0.1-0.6v-3
			c0-0.2,0-0.3,0.1-0.5c0.1-0.2,0.2-0.3,0.3-0.4c0.1-0.1,0.3-0.2,0.4-0.3c0.2-0.1,0.3-0.1,0.5-0.1c0.2,0,0.4,0,0.5,0.1
			c0.2,0.1,0.3,0.2,0.4,0.3c0.1,0.1,0.2,0.3,0.3,0.4c0.1,0.2,0.1,0.3,0.1,0.5v0.3h-0.8v-0.3c0-0.2,0-0.3-0.1-0.4
			c-0.1-0.1-0.2-0.2-0.4-0.2c-0.2,0-0.3,0.1-0.4,0.2c-0.1,0.1-0.1,0.3-0.1,0.5v2.8c0,0.2,0,0.3,0.1,0.4c0.1,0.1,0.2,0.2,0.4,0.2
			c0.1,0,0.1,0,0.2,0c0.1,0,0.1,0,0.2-0.1c0,0,0.1-0.1,0.1-0.2c0-0.1,0-0.2,0-0.3v-0.3h0.8V94.6z"/>
	</g>
	<rect x="268.8" y="36.8" transform="matrix(0.8866 -0.4626 0.4626 0.8866 12.3301 128.8726)" class="st2" width="0.3" height="5"/>
	
		<rect x="276.8" y="35.1" transform="matrix(0.8866 -0.4626 0.4626 0.8866 14.1348 132.3548)" class="st2" width="0.3" height="4.4"/>
	
		<rect x="286.1" y="60.8" transform="matrix(0.5194 -0.8545 0.8545 0.5194 83.5841 274.9465)" class="st2" width="0.3" height="4.6"/>
	<rect x="281.1" y="63.4" transform="matrix(0.826 -0.5637 0.5637 0.826 12.3783 169.8692)" class="st2" width="0.3" height="3"/>
	
		<rect x="269.8" y="84.9" transform="matrix(0.1801 -0.9836 0.9836 0.1801 136.39 336.2993)" class="st2" width="0.3" height="2.8"/>
	
		<rect x="268.8" y="90.4" transform="matrix(0.7418 -0.6707 0.6707 0.7418 7.5676 204.1912)" class="st2" width="0.3" height="3.8"/>
	<rect x="268.9" y="79" transform="matrix(0.2667 -0.9638 0.9638 0.2667 110.923 324.971)" class="st2" width="0.3" height="21.1"/>
</g>
</svg>
