<?xml version="1.0" encoding="utf-8"?>
<!-- Generator: Adobe Illustrator 19.2.1, SVG Export Plug-In . SVG Version: 6.00 Build 0)  -->
<svg version="1.1" id="Layer_1" xmlns="http://www.w3.org/2000/svg" xmlns:xlink="http://www.w3.org/1999/xlink" x="0px" y="0px"
	 viewBox="0 0 300 300" style="enable-background:new 0 0 300 300;" xml:space="preserve">
<style type="text/css">
	.st0{fill:none;stroke:#1C9A48;stroke-width:1.8401;stroke-miterlimit:10;}
</style>
<g>
	<path class="st0" d="M277.8,150l10.1-12.1l-12.1-10.1l7.9-13.6l-13.6-7.9l5.4-14.8l-14.8-5.4l2.7-15.5l-15.5-2.7V52.1h-15.7
		l-2.7-15.5l-15.5,2.7l-5.4-14.8l-14.8,5.4l-7.9-13.6l-13.6,7.9l-10.1-12.1L150,22.2l-12.1-10.1l-10.1,12.1l-13.6-7.9l-7.9,13.6
		l-14.8-5.4l-5.4,14.8l-15.5-2.7l-2.7,15.5H52.1v15.7l-15.5,2.7l2.7,15.5l-14.8,5.4l5.4,14.8l-13.6,7.9l7.9,13.6l-12.1,10.1
		L22.2,150l-10.1,12.1l12.1,10.1l-7.9,13.6l13.6,7.9l-5.4,14.8l14.8,5.4l-2.7,15.5l15.5,2.7v15.7h15.7l2.7,15.5l15.5-2.7l5.4,14.8
		l14.8-5.4l7.9,13.6l13.6-7.9l10.1,12.1l12.1-10.1l12.1,10.1l10.1-12.1l13.6,7.9l7.9-13.6l14.8,5.4l5.4-14.8l15.5,2.7l2.7-15.5h15.7
		v-15.7l15.5-2.7l-2.7-15.5l14.8-5.4l-5.4-14.8l13.6-7.9l-7.9-13.6l12.1-10.1L277.8,150z M150,257.7c-59.5,0-107.7-48.2-107.7-107.7
		C42.3,90.5,90.5,42.3,150,42.3c59.5,0,107.7,48.2,107.7,107.7C257.7,209.5,209.5,257.7,150,257.7z"/>
	<path class="st0" d="M228.7,130.5c-8.7-1.4-20.1,4.2-20.1,4.2c-28.6,14.5-41.7,6.8-41.7,6.8c0,0,0,0,0,0l-0.2-3c0,0-6.2-7-16.9-7.7
		c1.7-1.5,3.3-3.8,2.9-7.2c-0.7-5.5-4.9-8.5-6.2-9.3c0,0-5.8,2.7-6.7,9.3c-0.4,3.4,1.3,5.8,3,7.2c-3.7,0.3-11,2.3-18.3,12.1
		c0,0,0.2,0.2,0.6,0.4c-0.5-0.2-0.8-0.4-0.8-0.4c-4,1.5-7.6,6-8.7,7.5c-0.1-2.9-0.5-11.7-2.6-14c-2.4-2.6-10-3.1-13.5-3.4
		c-4.3-0.4-13.2-0.8-17.1,1c-5.2,2.4-6.2,6-6,8.7c0.2,3.3,4.8,9.1,7.5,11.1c3.7,2.7,17.7,5,17.7,5s-4,2.1-4.4,3.4
		c-1.4,4.8,2.2,6.8,4.4,7.7c3,1.2,7.9-2.4,7.9-2.4l2-2.4l2.5,0.3c2,6.8,8.2,11.1,14.8,13.6c-2.6,2.1-4.3,3.8-4.3,3.8
		c-1.3,9.5,16.9,9.9,20.8,9.9c3.9,0,22.1-0.3,20.8-9.9c0,0-1.7-1.8-4.3-3.8c23.3-7.7,39.8-27.4,39.8-27.4
		c7.1-8.6,17.2-12.9,17.2-12.9s6.4-2.2,10.4-3.4C231.7,134.6,228.7,130.5,228.7,130.5z M93.9,147.9c-7.9-5.4-2.6-7.7-2.6-7.7
		c13.5-3.8,18.1,15.5,18.1,15.5l0.2,0.8C108.4,157.3,101.8,153.3,93.9,147.9z"/>
</g>
</svg>
