<?xml version="1.0" encoding="utf-8"?>
<!-- Generator: Adobe Illustrator 21.0.2, SVG Export Plug-In . SVG Version: 6.00 Build 0)  -->
<svg version="1.1" xmlns="http://www.w3.org/2000/svg" xmlns:xlink="http://www.w3.org/1999/xlink" x="0px" y="0px"
	 viewBox="0 0 1280 800" style="enable-background:new 0 0 1280 800;" xml:space="preserve">
<style type="text/css">
	.st0{fill:#EFEFEF;}
	.st1{fill:url(#SVGID_1_);}
	.st2{fill:url(#SVGID_2_);}
	.st3{opacity:0.6;clip-path:url(#SVGID_4_);}
	.st4{fill:url(#SVGID_5_);}
	.st5{opacity:0.68;clip-path:url(#SVGID_7_);}
	.st6{fill:url(#Bottom_1_);}
	.st7{fill:url(#SVGID_8_);}
	.st8{fill:url(#SVGID_9_);}
	.st9{fill:#0E9948;}
	.st10{fill:#FF9900;}
	.st11{fill:#FFFFFF;}
	.st12{fill:url(#SVGID_10_);}
</style>
<g id="Layer_4">
	<rect class="st0" width="1280" height="800"/>
</g>
<g id="Shadow">
	<g>
		<image style="overflow:visible;" width="602" height="90" xlink:href="124D4541.png"  transform="matrix(1 0 0 1 332 562)">
		</image>
	</g>
</g>
<g id="Desktop">
	<g id="Base">
		<linearGradient id="SVGID_1_" gradientUnits="userSpaceOnUse" x1="530.9799" y1="613.2893" x2="749.0201" y2="613.2893">
			<stop  offset="0" style="stop-color:#797A7E"/>
			<stop  offset="2.501285e-02" style="stop-color:#929397"/>
			<stop  offset="5.907834e-02" style="stop-color:#ACAEB1"/>
			<stop  offset="9.822828e-02" style="stop-color:#C2C4C6"/>
			<stop  offset="0.1439" style="stop-color:#D3D5D7"/>
			<stop  offset="0.2005" style="stop-color:#DEE0E2"/>
			<stop  offset="0.2798" style="stop-color:#E5E7E9"/>
			<stop  offset="0.5" style="stop-color:#E7E9EB"/>
			<stop  offset="0.7202" style="stop-color:#E5E7E9"/>
			<stop  offset="0.7995" style="stop-color:#DEE0E2"/>
			<stop  offset="0.8561" style="stop-color:#D3D5D7"/>
			<stop  offset="0.9018" style="stop-color:#C2C4C6"/>
			<stop  offset="0.9409" style="stop-color:#ACAEB1"/>
			<stop  offset="0.975" style="stop-color:#929397"/>
			<stop  offset="1" style="stop-color:#797A7E"/>
		</linearGradient>
		<path class="st1" d="M749,613.4v-2.7H640H531v2.7c0,0-0.2,2.5,7.8,2.5c8,0,101.3,0,101.3,0s93.3,0,101.3,0
			C749.3,615.9,749,613.4,749,613.4z"/>
		<linearGradient id="SVGID_2_" gradientUnits="userSpaceOnUse" x1="640" y1="606.4636" x2="640" y2="616.2097">
			<stop  offset="0.6646" style="stop-color:#FFFFFF"/>
			<stop  offset="0.7926" style="stop-color:#FDFDFD"/>
			<stop  offset="0.8387" style="stop-color:#F6F6F7"/>
			<stop  offset="0.8716" style="stop-color:#EBEBEB"/>
			<stop  offset="0.8981" style="stop-color:#DADADB"/>
			<stop  offset="0.9209" style="stop-color:#C4C4C6"/>
			<stop  offset="0.941" style="stop-color:#A8A9AC"/>
			<stop  offset="0.9588" style="stop-color:#898A8D"/>
			<stop  offset="0.9664" style="stop-color:#797A7E"/>
		</linearGradient>
		<path class="st2" d="M749,613.4v-2.7H640H531v2.7c0,0-0.2,2.5,7.8,2.5c8,0,101.3,0,101.3,0s93.3,0,101.3,0
			C749.3,615.9,749,613.4,749,613.4z"/>
		<g>
			<defs>
				<path id="SVGID_3_" d="M531.7,611.3c0,0-3.5,2.5,4.7,3.3c8.2,0.8,103.6,0,103.6,0s95.4,0.8,103.6,0c8.2-0.8,4.7-3.3,4.7-3.3
					H531.7z"/>
			</defs>
			<clipPath id="SVGID_4_">
				<use xlink:href="#SVGID_3_"  style="overflow:visible;"/>
			</clipPath>
			<g class="st3">
				<image style="overflow:visible;" width="292" height="76" xlink:href="124D4542.png"  transform="matrix(1 0 0 1 494 575)">
				</image>
			</g>
		</g>
		<g>
			<linearGradient id="SVGID_5_" gradientUnits="userSpaceOnUse" x1="640" y1="516.0191" x2="640" y2="611.5387">
				<stop  offset="3.563625e-02" style="stop-color:#878787"/>
				<stop  offset="0.1763" style="stop-color:#A5A6A7"/>
				<stop  offset="0.4152" style="stop-color:#E1E2E4"/>
				<stop  offset="0.5052" style="stop-color:#F0F0F1"/>
				<stop  offset="0.5793" style="stop-color:#F6F6F6"/>
				<stop  offset="0.6006" style="stop-color:#EDEDED"/>
				<stop  offset="0.6356" style="stop-color:#D3D4D5"/>
				<stop  offset="0.6799" style="stop-color:#ABACAE"/>
				<stop  offset="0.7141" style="stop-color:#87888C"/>
				<stop  offset="0.7742" style="stop-color:#8B8C90"/>
				<stop  offset="0.7971" style="stop-color:#8E8F94"/>
				<stop  offset="0.9215" style="stop-color:#D2D3D6"/>
				<stop  offset="1" style="stop-color:#F9FAFC"/>
			</linearGradient>
			<path class="st4" d="M748.3,609.4c0,0-19.1-12.9-23-16c-3.9-3.1-5.4-3.6-7.4-12.5c-2.7-11.5-6.8-65.1-6.8-65.1h-71h-71
				c0,0-4.2,53.6-6.8,65.1c-2,8.9-3.5,9.4-7.4,12.5c-3.9,3.1-23,16-23,16s-3.5,2.5,4.7,3.3c8.2,0.8,103.6,0,103.6,0
				s95.4,0.8,103.6,0C751.8,611.9,748.3,609.4,748.3,609.4z"/>
		</g>
		<g>
			<defs>
				<path id="SVGID_6_" d="M748.3,609.4c0,0-19.1-12.9-23-16c-3.9-3.1-5.4-3.6-7.4-12.5c-2.7-11.5-6.8-65.1-6.8-65.1h-71h-71
					c0,0-4.2,53.6-6.8,65.1c-2,8.9-3.5,9.4-7.4,12.5c-3.9,3.1-23,16-23,16s-3.5,2.5,4.7,3.3c8.2,0.8,103.6,0,103.6,0
					s95.4,0.8,103.6,0C751.8,611.9,748.3,609.4,748.3,609.4z"/>
			</defs>
			<clipPath id="SVGID_7_">
				<use xlink:href="#SVGID_6_"  style="overflow:visible;"/>
			</clipPath>
			<g class="st5">
				<image style="overflow:visible;" width="232" height="136" xlink:href="124D4540.png"  transform="matrix(1 0 0 1 524 526)">
				</image>
			</g>
		</g>
	</g>
	<linearGradient id="Bottom_1_" gradientUnits="userSpaceOnUse" x1="281.2449" y1="482.7818" x2="998.7551" y2="482.7818">
		<stop  offset="0.1604" style="stop-color:#A6A7AB"/>
		<stop  offset="1" style="stop-color:#E2E3E5"/>
	</linearGradient>
	<path id="Bottom" class="st6" d="M281.2,498.3c0,9.7,7.9,17.5,17.5,17.5h682.4c9.7,0,17.5-7.9,17.5-17.5v-48.5H281.2V498.3z"/>
	<path id="Border" d="M981.2,22.1H298.8c-9.7,0-17.5,7.9-17.5,17.5v410.1h717.5V39.6C998.8,29.9,990.9,22.1,981.2,22.1z"/>
	<g id="Camera">
		<linearGradient id="SVGID_8_" gradientUnits="userSpaceOnUse" x1="640" y1="38.001" x2="640" y2="43.8074">
			<stop  offset="0" style="stop-color:#000000"/>
			<stop  offset="0.2885" style="stop-color:#030303"/>
			<stop  offset="0.4812" style="stop-color:#0B0B0C"/>
			<stop  offset="0.646" style="stop-color:#1A1A1B"/>
			<stop  offset="0.7949" style="stop-color:#2E2E30"/>
			<stop  offset="0.9321" style="stop-color:#49494B"/>
			<stop  offset="1" style="stop-color:#59595C"/>
		</linearGradient>
		<circle class="st7" cx="640" cy="41" r="2.8"/>
		<circle cx="640" cy="41" r="1.7"/>
		<linearGradient id="SVGID_9_" gradientUnits="userSpaceOnUse" x1="639.6975" y1="39.3168" x2="639.6975" y2="42.826">
			<stop  offset="0" style="stop-color:#000000"/>
			<stop  offset="0.2885" style="stop-color:#030303"/>
			<stop  offset="0.4812" style="stop-color:#0B0B0C"/>
			<stop  offset="0.646" style="stop-color:#1A1A1B"/>
			<stop  offset="0.7949" style="stop-color:#2E2E30"/>
			<stop  offset="0.9321" style="stop-color:#49494B"/>
			<stop  offset="1" style="stop-color:#59595C"/>
		</linearGradient>
		<circle class="st8" cx="639.7" cy="41" r="1.4"/>
	</g>
	<g id="_x5B_YOUR_SCREEN_HERE_x5D__1_">
		<rect id="_x5B_YOUR_SCREEN_HERE_x5D__2_" x="310.3" y="50.9" class="st9" width="659.3" height="371.3"/>
		<g>
			<polygon class="st9" points="817.3,692.8 418.9,692.8 452.8,737.5 418.7,785.3 817.2,785.3 851.3,737.6 			"/>
			<path class="st10" d="M1232.5,692.8H824.1l33.9,44.8l-34.1,47.8h408.7c4.7,0,8.5-3.8,8.5-8.5v-75.6
				C1241,696.6,1237.2,692.8,1232.5,692.8z"/>
			<path class="st9" d="M412.2,692.8H47.5c-4.7,0-8.5,3.8-8.5,8.5v75.6c0,4.7,3.8,8.5,8.5,8.5h364.6l34.1-47.7L412.2,692.8z"/>
			<polygon class="st11" points="418.9,692.8 412.2,692.8 446.2,737.6 412.1,785.3 418.7,785.3 452.8,737.5 			"/>
			<line class="st11" x1="817.3" y1="692.8" x2="824.1" y2="692.8"/>
			<polygon class="st11" points="824.1,692.8 817.3,692.8 851.3,737.6 817.2,785.3 823.8,785.3 858,737.5 			"/>
			<g>
				<path class="st11" d="M485.1,747.3v-20.2h2.7v17.8h9.9v2.4H485.1z"/>
				<path class="st11" d="M499.6,740c0-2.7,0.8-4.7,2.3-6c1.3-1.1,2.8-1.6,4.6-1.6c2,0,3.6,0.7,4.9,2c1.3,1.3,1.9,3.1,1.9,5.5
					c0,1.9-0.3,3.4-0.8,4.4c-0.6,1.1-1.4,1.9-2.5,2.5c-1.1,0.6-2.3,0.9-3.5,0.9c-2,0-3.7-0.7-5-2C500.3,744.4,499.6,742.5,499.6,740
					z M502.2,740c0,1.9,0.4,3.3,1.2,4.2c0.8,0.9,1.8,1.4,3.1,1.4c1.2,0,2.3-0.5,3.1-1.4c0.8-0.9,1.2-2.4,1.2-4.3
					c0-1.8-0.4-3.2-1.2-4.1c-0.8-0.9-1.8-1.4-3.1-1.4c-1.2,0-2.3,0.5-3.1,1.4C502.6,736.8,502.2,738.2,502.2,740z"/>
				<path class="st11" d="M525.8,742l2.4,0.3c-0.3,1.7-0.9,3-2,3.9c-1.1,0.9-2.4,1.4-4,1.4c-2,0-3.6-0.7-4.8-2
					c-1.2-1.3-1.8-3.2-1.8-5.6c0-1.6,0.3-3,0.8-4.1c0.5-1.2,1.3-2.1,2.4-2.7c1.1-0.6,2.2-0.9,3.5-0.9c1.6,0,2.9,0.4,3.9,1.2
					c1,0.8,1.7,1.9,1.9,3.4l-2.4,0.4c-0.2-1-0.6-1.7-1.2-2.2c-0.6-0.5-1.3-0.7-2.1-0.7c-1.2,0-2.3,0.4-3,1.3
					c-0.8,0.9-1.2,2.3-1.2,4.2c0,2,0.4,3.4,1.1,4.3c0.8,0.9,1.7,1.3,2.9,1.3c1,0,1.8-0.3,2.4-0.9S525.6,743.2,525.8,742z"/>
				<path class="st11" d="M539.9,745.5c-0.9,0.8-1.8,1.3-2.6,1.7c-0.8,0.3-1.8,0.5-2.7,0.5c-1.6,0-2.8-0.4-3.7-1.2
					c-0.9-0.8-1.3-1.8-1.3-3c0-0.7,0.2-1.4,0.5-2c0.3-0.6,0.8-1.1,1.3-1.4c0.5-0.4,1.1-0.6,1.8-0.8c0.5-0.1,1.2-0.3,2.2-0.4
					c2-0.2,3.5-0.5,4.4-0.9c0-0.3,0-0.6,0-0.6c0-1-0.2-1.7-0.7-2.1c-0.6-0.6-1.6-0.8-2.8-0.8c-1.2,0-2,0.2-2.6,0.6s-1,1.1-1.2,2.2
					l-2.4-0.3c0.2-1,0.6-1.9,1.1-2.5c0.5-0.6,1.2-1.1,2.2-1.5c1-0.3,2.1-0.5,3.3-0.5c1.2,0,2.3,0.1,3,0.4s1.4,0.7,1.7,1.1
					c0.4,0.4,0.6,1,0.8,1.7c0.1,0.4,0.1,1.2,0.1,2.3v3.3c0,2.3,0.1,3.8,0.2,4.4c0.1,0.6,0.3,1.2,0.6,1.8h-2.6
					C540.1,746.8,539.9,746.2,539.9,745.5z M539.6,740c-0.9,0.4-2.2,0.7-4,0.9c-1,0.1-1.7,0.3-2.2,0.5c-0.4,0.2-0.7,0.5-1,0.8
					c-0.2,0.4-0.3,0.7-0.3,1.2c0,0.7,0.2,1.2,0.7,1.7c0.5,0.4,1.2,0.7,2.2,0.7c1,0,1.8-0.2,2.5-0.6c0.7-0.4,1.3-1,1.6-1.7
					c0.3-0.6,0.4-1.4,0.4-2.5V740z"/>
				<path class="st11" d="M551.4,745.1l0.4,2.2c-0.7,0.1-1.3,0.2-1.9,0.2c-0.9,0-1.6-0.1-2.1-0.4c-0.5-0.3-0.8-0.7-1-1.1
					c-0.2-0.5-0.3-1.4-0.3-2.9v-8.4h-1.8v-1.9h1.8v-3.6l2.5-1.5v5.1h2.5v1.9h-2.5v8.5c0,0.7,0,1.2,0.1,1.4c0.1,0.2,0.2,0.4,0.4,0.5
					c0.2,0.1,0.5,0.2,0.8,0.2C550.6,745.2,550.9,745.2,551.4,745.1z"/>
				<path class="st11" d="M553.8,730v-2.8h2.5v2.8H553.8z M553.8,747.3v-14.6h2.5v14.6H553.8z"/>
				<path class="st11" d="M559.2,740c0-2.7,0.8-4.7,2.3-6c1.3-1.1,2.8-1.6,4.6-1.6c2,0,3.6,0.7,4.9,2c1.3,1.3,1.9,3.1,1.9,5.5
					c0,1.9-0.3,3.4-0.8,4.4c-0.6,1.1-1.4,1.9-2.5,2.5c-1.1,0.6-2.3,0.9-3.5,0.9c-2,0-3.7-0.7-5-2C559.8,744.4,559.2,742.5,559.2,740
					z M561.7,740c0,1.9,0.4,3.3,1.2,4.2c0.8,0.9,1.8,1.4,3.1,1.4c1.2,0,2.3-0.5,3.1-1.4c0.8-0.9,1.2-2.4,1.2-4.3
					c0-1.8-0.4-3.2-1.2-4.1c-0.8-0.9-1.8-1.4-3.1-1.4c-1.2,0-2.3,0.5-3.1,1.4C562.1,736.8,561.7,738.2,561.7,740z"/>
				<path class="st11" d="M575.7,747.3v-14.6h2.2v2.1c1.1-1.6,2.6-2.4,4.7-2.4c0.9,0,1.7,0.2,2.4,0.5c0.7,0.3,1.3,0.7,1.7,1.2
					s0.6,1.1,0.8,1.8c0.1,0.5,0.1,1.3,0.1,2.4v9h-2.5v-8.9c0-1-0.1-1.8-0.3-2.3c-0.2-0.5-0.5-0.9-1-1.2c-0.5-0.3-1.1-0.4-1.7-0.4
					c-1.1,0-2,0.3-2.7,1c-0.8,0.7-1.1,1.9-1.1,3.8v8H575.7z"/>
			</g>
			<g>
				<path class="st11" d="M904.7,740.3l2.7,0.7c-0.6,2.2-1.6,3.9-3,5c-1.5,1.2-3.2,1.7-5.3,1.7c-2.2,0-3.9-0.4-5.3-1.3
					c-1.4-0.9-2.4-2.2-3.1-3.8c-0.7-1.7-1.1-3.5-1.1-5.4c0-2.1,0.4-3.9,1.2-5.5c0.8-1.6,1.9-2.8,3.4-3.6c1.5-0.8,3.1-1.2,4.9-1.2
					c2,0,3.7,0.5,5.1,1.5c1.4,1,2.3,2.5,2.9,4.3l-2.6,0.6c-0.5-1.5-1.1-2.5-2-3.2s-2-1-3.4-1c-1.5,0-2.8,0.4-3.9,1.1
					c-1,0.7-1.8,1.7-2.2,3c-0.4,1.3-0.6,2.5-0.6,3.9c0,1.7,0.3,3.2,0.7,4.5c0.5,1.3,1.3,2.2,2.3,2.9c1.1,0.6,2.2,0.9,3.4,0.9
					c1.5,0,2.8-0.4,3.8-1.3C903.7,743.2,904.4,742,904.7,740.3z"/>
				<path class="st11" d="M910.4,747.3v-20.2h2.5v7.2c1.2-1.3,2.6-2,4.4-2c1.1,0,2,0.2,2.8,0.6c0.8,0.4,1.4,1,1.7,1.8
					c0.3,0.8,0.5,1.8,0.5,3.3v9.3h-2.5v-9.3c0-1.2-0.3-2.1-0.8-2.7c-0.5-0.6-1.3-0.8-2.3-0.8c-0.7,0-1.4,0.2-2.1,0.6
					c-0.6,0.4-1.1,0.9-1.4,1.5c-0.3,0.7-0.4,1.5-0.4,2.7v8H910.4z"/>
				<path class="st11" d="M936.1,742.6l2.6,0.3c-0.4,1.5-1.2,2.7-2.2,3.5c-1.1,0.8-2.5,1.2-4.2,1.2c-2.1,0-3.8-0.7-5.1-2
					c-1.3-1.3-1.9-3.2-1.9-5.5c0-2.5,0.6-4.4,1.9-5.7c1.3-1.4,2.9-2,4.9-2c2,0,3.6,0.7,4.8,2c1.2,1.3,1.9,3.2,1.9,5.6
					c0,0.1,0,0.4,0,0.7h-10.9c0.1,1.6,0.5,2.8,1.4,3.7c0.8,0.9,1.8,1.3,3.1,1.3c0.9,0,1.7-0.2,2.3-0.7
					C935.2,744.4,935.7,743.7,936.1,742.6z M927.9,738.6h8.2c-0.1-1.2-0.4-2.2-0.9-2.8c-0.8-1-1.8-1.4-3.1-1.4
					c-1.1,0-2.1,0.4-2.9,1.1S928,737.3,927.9,738.6z"/>
				<path class="st11" d="M951.3,742l2.4,0.3c-0.3,1.7-0.9,3-2,3.9c-1.1,0.9-2.4,1.4-4,1.4c-2,0-3.6-0.7-4.8-2
					c-1.2-1.3-1.8-3.2-1.8-5.6c0-1.6,0.3-3,0.8-4.1c0.5-1.2,1.3-2.1,2.4-2.7c1.1-0.6,2.2-0.9,3.5-0.9c1.6,0,2.9,0.4,3.9,1.2
					c1,0.8,1.7,1.9,1.9,3.4l-2.4,0.4c-0.2-1-0.6-1.7-1.2-2.2c-0.6-0.5-1.3-0.7-2.1-0.7c-1.2,0-2.3,0.4-3,1.3
					c-0.8,0.9-1.2,2.3-1.2,4.2c0,2,0.4,3.4,1.1,4.3c0.8,0.9,1.7,1.3,2.9,1.3c1,0,1.8-0.3,2.4-0.9C950.7,744.1,951.1,743.2,951.3,742
					z"/>
				<path class="st11" d="M955.8,747.3v-20.2h2.5v11.5l5.9-5.9h3.2l-5.6,5.4l6.1,9.2h-3.1l-4.8-7.5l-1.7,1.7v5.8H955.8z"/>
				<path class="st11" d="M969,740c0-2.7,0.8-4.7,2.3-6c1.3-1.1,2.8-1.6,4.6-1.6c2,0,3.6,0.7,4.9,2c1.3,1.3,1.9,3.1,1.9,5.5
					c0,1.9-0.3,3.4-0.8,4.4c-0.6,1.1-1.4,1.9-2.5,2.5c-1.1,0.6-2.3,0.9-3.5,0.9c-2,0-3.7-0.7-5-2C969.6,744.4,969,742.5,969,740z
					 M971.5,740c0,1.9,0.4,3.3,1.2,4.2c0.8,0.9,1.8,1.4,3.1,1.4c1.2,0,2.3-0.5,3.1-1.4c0.8-0.9,1.2-2.4,1.2-4.3
					c0-1.8-0.4-3.2-1.2-4.1c-0.8-0.9-1.8-1.4-3.1-1.4c-1.2,0-2.3,0.5-3.1,1.4C971.9,736.8,971.5,738.2,971.5,740z"/>
				<path class="st11" d="M995.1,747.3v-2.1c-1.1,1.7-2.7,2.5-4.6,2.5c-0.9,0-1.7-0.2-2.4-0.5s-1.3-0.7-1.7-1.2
					c-0.4-0.5-0.6-1.1-0.8-1.8c-0.1-0.5-0.2-1.3-0.2-2.3v-9.1h2.5v8.1c0,1.3,0,2.2,0.2,2.6c0.2,0.7,0.5,1.2,1,1.5
					c0.5,0.4,1.1,0.6,1.9,0.6s1.4-0.2,2.1-0.6c0.7-0.4,1.1-0.9,1.4-1.6c0.3-0.7,0.4-1.6,0.4-2.9v-7.8h2.5v14.6H995.1z"/>
				<path class="st11" d="M1006.6,745.1l0.4,2.2c-0.7,0.1-1.3,0.2-1.9,0.2c-0.9,0-1.6-0.1-2.1-0.4c-0.5-0.3-0.8-0.7-1-1.1
					c-0.2-0.5-0.3-1.4-0.3-2.9v-8.4h-1.8v-1.9h1.8v-3.6l2.5-1.5v5.1h2.5v1.9h-2.5v8.5c0,0.7,0,1.2,0.1,1.4c0.1,0.2,0.2,0.4,0.4,0.5
					s0.5,0.2,0.8,0.2C1005.8,745.2,1006.2,745.2,1006.6,745.1z"/>
			</g>
			<g>
				<path class="st11" d="M87.9,747.3v-17.8h-6.6v-2.4h16v2.4h-6.7v17.8H87.9z"/>
				<path class="st11" d="M106.5,742.6l2.6,0.3c-0.4,1.5-1.2,2.7-2.2,3.5c-1.1,0.8-2.5,1.2-4.2,1.2c-2.1,0-3.8-0.7-5.1-2
					c-1.3-1.3-1.9-3.2-1.9-5.5c0-2.5,0.6-4.4,1.9-5.7s2.9-2,4.9-2c2,0,3.5,0.7,4.8,2s1.9,3.2,1.9,5.6c0,0.1,0,0.4,0,0.7H98.3
					c0.1,1.6,0.5,2.8,1.4,3.7c0.8,0.9,1.8,1.3,3.1,1.3c0.9,0,1.7-0.2,2.3-0.7S106.2,743.7,106.5,742.6z M98.4,738.6h8.2
					c-0.1-1.2-0.4-2.2-0.9-2.8c-0.8-1-1.8-1.4-3.1-1.4c-1.1,0-2.1,0.4-2.9,1.1S98.5,737.3,98.4,738.6z"/>
				<path class="st11" d="M111.2,743l2.4-0.4c0.1,1,0.5,1.7,1.1,2.3s1.5,0.8,2.6,0.8c1.1,0,2-0.2,2.5-0.7s0.8-1,0.8-1.6
					c0-0.6-0.2-1-0.7-1.3c-0.3-0.2-1.2-0.5-2.5-0.8c-1.8-0.5-3.1-0.9-3.8-1.2c-0.7-0.3-1.2-0.8-1.6-1.4c-0.4-0.6-0.5-1.2-0.5-2
					c0-0.7,0.1-1.3,0.4-1.8c0.3-0.6,0.7-1,1.2-1.4c0.4-0.3,0.9-0.5,1.6-0.7c0.7-0.2,1.4-0.3,2.1-0.3c1.1,0,2.2,0.2,3,0.5
					c0.9,0.3,1.5,0.8,1.9,1.3c0.4,0.6,0.7,1.3,0.9,2.3l-2.4,0.3c-0.1-0.8-0.4-1.3-1-1.8c-0.5-0.4-1.3-0.6-2.2-0.6
					c-1.1,0-1.9,0.2-2.4,0.6c-0.5,0.4-0.7,0.8-0.7,1.3c0,0.3,0.1,0.6,0.3,0.9c0.2,0.3,0.5,0.5,0.9,0.7c0.2,0.1,1,0.3,2.2,0.6
					c1.8,0.5,3,0.9,3.7,1.1c0.7,0.3,1.2,0.7,1.6,1.3c0.4,0.6,0.6,1.3,0.6,2.1c0,0.8-0.2,1.6-0.7,2.3c-0.5,0.7-1.2,1.3-2.1,1.7
					c-0.9,0.4-1.9,0.6-3.1,0.6c-1.9,0-3.3-0.4-4.3-1.2C112.1,745.7,111.5,744.5,111.2,743z"/>
				<path class="st11" d="M131.7,745.1l0.4,2.2c-0.7,0.1-1.3,0.2-1.9,0.2c-0.9,0-1.6-0.1-2.1-0.4c-0.5-0.3-0.8-0.7-1-1.1
					c-0.2-0.5-0.3-1.4-0.3-2.9v-8.4h-1.8v-1.9h1.8v-3.6l2.5-1.5v5.1h2.5v1.9h-2.5v8.5c0,0.7,0,1.2,0.1,1.4c0.1,0.2,0.2,0.4,0.4,0.5
					c0.2,0.1,0.5,0.2,0.8,0.2C130.9,745.2,131.2,745.2,131.7,745.1z"/>
			</g>
		</g>
		<path class="st11" d="M531.8,170.3c-3.1-0.5-7.3,1.5-7.3,1.5c-10.3,5.2-15.1,2.5-15.1,2.5l0,0l-0.1-1.1c0,0-2.3-2.5-6.1-2.8
			c0.6-0.5,1.2-1.4,1.1-2.6c-0.2-2-1.8-3.1-2.2-3.4c0,0-2.1,1-2.4,3.4c-0.2,1.2,0.5,2.1,1.1,2.6c-1.3,0.1-4,0.8-6.6,4.4
			c0,0,0.1,0.1,0.2,0.1c-0.2-0.1-0.3-0.1-0.3-0.1c-1.5,0.5-2.7,2.2-3.1,2.7c0-1-0.2-4.2-0.9-5c-0.9-0.9-3.6-1.1-4.9-1.2
			c-1.6-0.2-4.8-0.3-6.2,0.4c-1.9,0.9-2.2,2.2-2.2,3.1c0.1,1.2,1.7,3.3,2.7,4c1.3,1,6.4,1.8,6.4,1.8s-1.5,0.8-1.6,1.2
			c-0.5,1.7,0.8,2.4,1.6,2.8c1.1,0.4,2.8-0.9,2.8-0.9l0.7-0.9l0.9,0.1c0.7,2.5,3,4,5.4,4.9c-0.9,0.7-1.5,1.4-1.5,1.4
			c-0.5,3.4,6.1,3.6,7.5,3.6c1.4,0,8-0.1,7.5-3.6c0,0-0.6-0.6-1.5-1.4c8.4-2.8,14.4-9.9,14.4-9.9c2.5-3.1,6.2-4.7,6.2-4.7
			s2.3-0.8,3.7-1.2C532.9,171.8,531.8,170.3,531.8,170.3z M483.1,176.6c-2.8-2-0.9-2.8-0.9-2.8c4.9-1.4,6.6,5.6,6.6,5.6l0.1,0.3
			C488.4,180,486,178.6,483.1,176.6z"/>
		<g>
			<path class="st11" d="M553,186.8c-1.4,1.4-2.8,2.4-4,3c-1.2,0.6-2.5,0.9-3.8,0.9c-1.5,0-2.8-0.4-3.9-1.1
				c-1.1-0.7-1.9-1.8-2.5-3.1c-0.6-1.4-0.9-2.9-0.9-4.8c0-2.3,0.6-4.6,1.8-7.1c1.2-2.4,2.8-4.7,4.8-6.8c2-2.1,4.2-3.7,6.6-5
				c2.4-1.2,4.7-1.9,7-1.9c3.6,0,5.4,1.6,5.4,4.8c0,1.2-0.3,2.4-1,3.6s-1.6,2.1-2.7,2.8c-1.1,0.7-2.3,1.1-3.5,1.1
				c-0.5,0-0.8-0.2-0.8-0.5c0-0.1,0.1-0.3,0.3-0.7c0.4-0.8,0.7-1.6,0.9-2.5c0.2-1.3,0.3-2.2,0.3-2.9c0-1.2-0.1-1.8-0.4-1.8
				c-0.7,0-1.6,0.5-2.8,1.4c-1.2,1-2.2,2-3,3.2c-0.7,1-1.4,2.2-2,3.5c-0.6,1.4-1.1,2.7-1.4,4.1c-0.3,1.4-0.5,2.7-0.5,3.8
				c0,1.1,0.2,2,0.7,2.7c0.5,0.7,1.1,1.1,1.9,1.1c1.3,0,2.8-1.7,4.4-5c0.5-0.9,0.9-1.5,1-1.8c0.2-0.3,0.4-0.5,0.8-0.7
				c0.9-0.6,2-1.1,3.4-1.5c1.4-0.4,2.4-0.7,3.2-0.7c0.9,0,1.3,0.4,1.3,1.3c0,0.1,0,0.4-0.1,0.9c-1,4.2-2.3,8.1-3.7,11.6
				c-1.5,3.5-2.9,6-4.2,7.5c-0.6,0.7-1.6,1.2-2.8,1.7c-1.2,0.4-2.5,0.7-3.8,0.7c-1.1,0-2.1-0.2-3.2-0.5c-1.1-0.4-2-0.8-2.7-1.4
				c-0.7-0.6-1.1-1.1-1.1-1.7c0-0.4,0.2-0.8,0.6-1.2c0.4-0.5,0.9-0.9,1.6-1.4c1.1-0.7,1.8-1.1,2.2-1.1c0.4,0,0.9,0.4,1.6,1.2
				c0.8,0.9,1.7,1.7,2.6,2.4c0.5-1.2,1-2.6,1.5-4.3C552.7,189.1,552.9,187.8,553,186.8z"/>
			<path class="st11" d="M573,184.8c0.2,0.9,0.7,1.3,1.7,1.3c1.1,0,2.5-0.6,4.2-1.9c1-0.7,1.7-1.1,2-1.1c0.4,0,0.8,0.1,1.2,0.3
				c0.4,0.2,0.6,0.5,0.6,0.7c0,0.3-0.2,0.6-0.6,1c-0.8,0.8-1.6,1.5-2.6,2.2s-1.9,1.3-2.9,1.8c-0.9,0.5-1.8,0.9-2.8,1.1
				c-0.9,0.3-1.7,0.4-2.5,0.4c-1.8,0-3.2-0.5-4.3-1.5c-1.1-1-1.6-2.4-1.6-4.1c0-1.3,0.3-2.8,0.9-4.4c0.6-1.6,1.3-3.2,2.3-4.6
				c1.1-1.7,2.5-3.1,4.2-4.2c2-1.4,4-2,5.9-2c1.4,0,2.4,0.4,3.2,1.3c0.8,0.9,1.2,2,1.2,3.5c0,1.2-0.3,2.4-0.9,3.6
				c-0.6,1.3-1.5,2.5-2.7,3.6c-1,1-1.9,1.7-2.9,2.3c-0.9,0.5-1.8,0.8-2.5,0.8C573.6,185,573.3,184.9,573,184.8z M572.9,184.1
				c0.7-0.4,1.2-0.9,1.5-1.3c0.8-0.9,1.4-2,1.8-3.2c0.3-0.8,0.6-1.7,0.8-2.7s0.3-1.9,0.3-2.7s-0.2-1.2-0.5-1.2c-0.5,0-1.2,1-2.1,3
				c-0.6,1.2-1,2.4-1.4,3.7c-0.4,1.2-0.5,2.3-0.5,3.1C572.7,183.1,572.8,183.5,572.9,184.1z"/>
			<path class="st11" d="M593.6,179.4l1.3-1.5c1.3-1.5,2.4-2.5,3.1-3.3c0.8-0.7,1.5-1.2,2.1-1.5c0.6-0.3,1.2-0.5,1.9-0.5
				c1,0,1.7,0.3,2.2,0.8c0.4,0.5,0.6,1.5,0.6,2.8c0,0.6-0.1,1.4-0.2,2.5c-0.2,1.5-0.3,2.8-0.3,4.1c0,1.4,0.1,2.6,0.2,3.5
				c0.1,0.5,0.3,1.1,0.5,1.6c0.1,0.5,0.2,0.9,0.2,1.1s-0.1,0.4-0.3,0.5c-0.4,0.4-1,0.7-1.8,1c-0.7,0.3-1.4,0.4-1.9,0.4
				c-0.8,0-1.6-0.3-2.2-0.8c-0.7-0.6-1.2-1.3-1.6-2.3c-0.4-1-0.5-2.1-0.5-3.4c0-0.8,0.1-1.8,0.3-3l-0.1-0.1
				c-0.6,0.7-1.1,1.2-1.5,1.6c-0.4,0.4-0.7,0.8-1.1,1.1c-1.6,1.8-3,3.5-4.1,5c-0.4,0.6-0.8,1.1-1.2,1.5c-0.5,0.5-1.1,0.8-1.8,0.8
				c-0.9,0-1.7-0.3-2.2-1c-0.6-0.7-0.9-1.6-0.9-2.7c0-0.7,0.1-1.5,0.2-2.5c0.2-1,0.4-2,0.6-3.1c0.3-1.1,0.6-2.3,0.9-3.4
				c0.4-1.2,0.8-2.3,1.2-3.4c0.7-1.8,1.5-3.1,2.4-4.1c0.6-0.6,1.4-1,2.4-1c1.5,0,2.2,1,2.2,2.9C594.4,174.6,594.1,176.7,593.6,179.4
				L593.6,179.4z"/>
			<path class="st11" d="M610,191c-0.6,0-1.2-0.3-1.8-0.9c-0.5-0.6-0.9-1.2-1.1-1.9c-0.2-0.7-0.3-1.5-0.3-2.6c0-2.4,0.4-5.1,1.3-8
				c0.9-2.9,1.9-5.1,3-6.5c0.4-0.6,1.1-0.8,1.9-0.8s1.5,0.4,2,1.1c0.5,0.8,0.8,1.8,0.8,3c0,1.8-0.3,4-0.8,6.4
				c-0.5,2.5-1.3,5-2.2,7.6c-0.4,1.1-0.8,1.8-1.4,2.2C611,190.9,610.6,191,610,191L610,191z M612.6,169.3c-1.4,0-2-0.9-2-2.4
				c0-0.8,0.2-1.7,0.6-2.8c0.4-1.1,0.8-1.8,1.3-2.3c0.3-0.3,0.5-0.5,0.8-0.6c0.3-0.1,0.6-0.2,1-0.2c0.7,0,1.2,0.2,1.6,0.5
				c0.3,0.4,0.5,0.9,0.5,1.8c0,1-0.2,2-0.5,2.9c-0.4,0.9-0.8,1.7-1.4,2.2C613.9,169,613.3,169.3,612.6,169.3L612.6,169.3z"/>
			<path class="st11" d="M622,169.9l0.1-0.3c1-2.7,1.8-4.6,2.5-5.7c0.3-0.5,0.8-1,1.4-1.4c1.1-0.7,2.2-1.1,3.1-1.1
				c0.6,0,1,0.1,1.3,0.4c0.3,0.3,0.5,0.6,0.5,1.1c0,0.3-0.2,1-0.7,2c-0.7,1.7-1.3,3.3-1.6,4.8c0.2,0,0.5,0.1,0.7,0.1
				c0.9,0.1,1.4,0.3,1.7,0.4c0.3,0.2,0.4,0.5,0.4,0.9c0,0.8-0.2,1.5-0.6,2.1c-0.4,0.6-0.9,1.1-1.5,1.4c-0.5,0.2-1.2,0.4-2.3,0.4
				c-0.2,0.6-0.4,1.3-0.6,2.3c-0.1,0.9-0.3,2.1-0.4,3.6c-0.1,0.6-0.1,1.1-0.1,1.6c0,2.3,1.1,3.4,3.3,3.4h0.1h0.1
				c0.3,0,0.4,0,0.4,0.1c0,0.2-0.2,0.6-0.7,1.2c-0.5,0.5-1,1-1.6,1.4c-0.6,0.4-1.3,0.8-2.1,1c-0.7,0.3-1.4,0.4-2,0.4
				c-1.5,0-2.7-0.5-3.7-1.5c-0.9-1-1.4-2.4-1.4-4.1c0-0.7,0.1-1.7,0.4-2.8c0.3-1.2,0.6-2.7,1.2-4.7c0.1-0.3,0.2-0.7,0.3-1.1
				c0.1-0.4,0.2-0.6,0.2-0.7c-0.6,0-1-0.1-1.2-0.4c-0.2-0.2-0.4-0.6-0.4-1.1c0-0.9,0.3-1.8,1-2.6C620.3,170.6,621.1,170.1,622,169.9
				z"/>
			<path class="st11" d="M647.9,184.5L647.9,184.5L647.9,184.5c-1.4,1.6-2.7,2.9-3.8,3.9c-1.1,1-2.1,1.8-3.1,2.3
				c-0.9,0.5-1.8,0.8-2.6,0.8c-1.6,0-2.9-0.5-4-1.6c-1-1.1-1.6-2.4-1.6-4.1c0-1,0.3-2.2,0.8-3.6c0.5-1.4,1.2-2.8,2.1-4.1
				c1.5-2.2,3.4-4,5.7-5.6c2.4-1.6,4.6-2.4,6.8-2.4c1.8,0,3.4,0.4,4.5,1.1c1.2,0.8,1.8,1.7,1.8,2.9c0,0.8-0.3,1.7-0.9,2.7
				c0.8,0,1.3,0.1,1.5,0.2c0.2,0.2,0.3,0.6,0.3,1.2c0-0.1,0,0.2-0.1,0.9c-0.1,1.4-0.1,2.8-0.1,4c0,0.6,0,1.1,0,1.5
				c0,0.3,0,0.7,0.1,1.1c0,0.4,0.1,0.8,0.1,1c0.1,0.7,0.3,1.3,0.6,2c-0.9,0.8-1.7,1.5-2.5,1.9s-1.6,0.6-2.4,0.6
				c-2.2,0-3.3-1.9-3.3-5.6C647.9,185.1,647.9,184.8,647.9,184.5z M649.2,179.6l-0.4,0.1c-1,0.3-1.8,0.4-2.2,0.4
				c-0.6,0-0.8-0.1-0.8-0.4c0-0.1,0.1-0.4,0.3-0.8c0.8-1.2,1.2-2.4,1.2-3.5c0-0.6-0.1-1.2-0.3-1.7s-0.5-0.8-0.7-0.8
				s-0.6,0.2-1.1,0.7c-1.3,1.5-2.4,2.9-3.2,4.5c-0.8,1.5-1.2,2.9-1.2,4.1c0,0.8,0.2,1.4,0.5,2c0.3,0.5,0.7,0.8,1.2,0.8
				c0.4,0,1.2-0.4,2.3-1.3c1.1-0.9,2.4-2.1,3.9-3.5L649.2,179.6L649.2,179.6z"/>
			<path class="st11" d="M669.2,174.7c0.6-1.6,1.1-3.3,1.4-5.1c0.4-1.8,0.6-3.1,0.6-4.1c0-0.3-0.1-0.4-0.2-0.4
				c-0.2,0-0.6,0.5-1.2,1.5c-0.6,1-1.1,2.1-1.4,3.1c-0.8,2.3-1.5,4.3-1.9,5.8c-0.5,1.5-0.8,2.8-0.9,3.9c-0.2,1-0.3,2.1-0.3,3.2
				c0,0.9,0.1,1.6,0.3,2c0.2,0.4,0.5,0.6,1,0.6c0.8,0,1.7-0.3,2.7-1s1.9-1.6,2.7-2.8c0.6-0.8,1.1-1.3,1.4-1.3c0.4,0,0.7,0.4,0.7,1.1
				c0,1.5-0.5,3-1.4,4.5c-1,1.5-2.2,2.7-3.7,3.6s-3.1,1.4-4.7,1.4c-1.9,0-3.5-0.6-4.7-1.8s-1.8-2.8-1.8-4.8c0-1.6,0.3-3.5,1-5.7
				c0.7-2.2,1.6-4.3,2.8-6.5s2.4-4.2,3.8-6s2.7-3.2,4.1-4.1c0.6-0.5,1.5-0.8,2.5-0.8c0.8,0,1.5,0.2,2.1,0.7c0.6,0.5,1.1,1.2,1.5,2
				c0.3,0.9,0.5,1.8,0.5,2.9c0,2.3-0.4,4.5-1.3,6.6c-0.9,2.2-2.1,4-3.7,5.6c-0.7,0.8-1.5,1.4-2.2,1.8c-0.7,0.4-1.3,0.6-1.8,0.6
				s-0.8-0.2-0.8-0.6c0-0.2,0.2-0.6,0.6-1.2c0.5-0.8,1.1-2,1.8-3.6c0.1-0.2,0.1-0.3,0.2-0.5C669,175.2,669.1,175,669.2,174.7z"/>
			<path class="st11" d="M692.9,186.8c-1.4,1.4-2.8,2.4-4,3c-1.2,0.6-2.5,0.9-3.8,0.9c-1.5,0-2.8-0.4-3.9-1.1
				c-1.1-0.7-1.9-1.8-2.5-3.1c-0.6-1.4-0.9-2.9-0.9-4.8c0-2.3,0.6-4.6,1.8-7.1c1.2-2.4,2.8-4.7,4.8-6.8c2-2.1,4.2-3.7,6.6-5
				c2.4-1.2,4.7-1.9,7-1.9c3.6,0,5.4,1.6,5.4,4.8c0,1.2-0.3,2.4-1,3.6c-0.7,1.2-1.6,2.1-2.7,2.8c-1.1,0.7-2.3,1.1-3.5,1.1
				c-0.5,0-0.8-0.2-0.8-0.5c0-0.1,0.1-0.3,0.3-0.7c0.4-0.8,0.7-1.6,0.9-2.5c0.2-1.3,0.3-2.2,0.3-2.9c0-1.2-0.1-1.8-0.4-1.8
				c-0.7,0-1.6,0.5-2.8,1.4c-1.2,1-2.2,2-3,3.2c-0.7,1-1.4,2.2-2,3.5c-0.6,1.3-1.1,2.7-1.4,4.1c-0.3,1.4-0.5,2.7-0.5,3.8
				c0,1.1,0.2,2,0.7,2.7c0.5,0.7,1.1,1.1,1.9,1.1c1.3,0,2.8-1.7,4.4-5c0.5-0.9,0.9-1.5,1-1.8c0.2-0.3,0.4-0.5,0.8-0.7
				c0.9-0.6,2-1.1,3.4-1.5s2.4-0.7,3.2-0.7c0.9,0,1.3,0.4,1.3,1.3c0,0.1,0,0.4-0.1,0.9c-1,4.2-2.3,8.1-3.7,11.6
				c-1.5,3.5-2.9,6-4.2,7.5c-0.6,0.7-1.6,1.2-2.8,1.7c-1.2,0.4-2.5,0.7-3.8,0.7c-1.1,0-2.1-0.2-3.2-0.5c-1.1-0.4-2-0.8-2.7-1.4
				c-0.7-0.6-1.1-1.1-1.1-1.7c0-0.4,0.2-0.8,0.6-1.2c0.4-0.5,0.9-0.9,1.6-1.4c1.1-0.7,1.8-1.1,2.2-1.1c0.4,0,0.9,0.4,1.6,1.2
				c0.8,0.9,1.7,1.7,2.6,2.4c0.5-1.2,1-2.6,1.5-4.3C692.6,189.1,692.8,187.8,692.9,186.8z"/>
			<path class="st11" d="M712.9,184.8c0.2,0.9,0.7,1.3,1.7,1.3c1.1,0,2.5-0.6,4.2-1.9c1-0.7,1.7-1.1,2-1.1c0.4,0,0.8,0.1,1.2,0.3
				c0.4,0.2,0.6,0.5,0.6,0.7c0,0.3-0.2,0.6-0.6,1c-0.8,0.8-1.6,1.5-2.6,2.2s-2,1.3-2.9,1.8c-0.9,0.5-1.8,0.9-2.8,1.1
				c-0.9,0.3-1.7,0.4-2.5,0.4c-1.8,0-3.2-0.5-4.3-1.5c-1.1-1-1.6-2.4-1.6-4.1c0-1.3,0.3-2.8,0.9-4.4c0.6-1.6,1.3-3.2,2.3-4.6
				c1.1-1.7,2.5-3.1,4.2-4.2c2-1.4,4-2,5.9-2c1.4,0,2.4,0.4,3.2,1.3c0.8,0.9,1.2,2,1.2,3.5c0,1.2-0.3,2.4-0.9,3.6
				c-0.6,1.3-1.5,2.5-2.7,3.6c-1,1-1.9,1.7-2.9,2.3c-0.9,0.5-1.8,0.8-2.5,0.8C713.5,185,713.2,184.9,712.9,184.8z M712.8,184.1
				c0.7-0.4,1.2-0.9,1.5-1.3c0.8-0.9,1.4-2,1.8-3.2c0.3-0.8,0.6-1.7,0.8-2.7c0.2-1,0.3-1.9,0.3-2.7s-0.2-1.2-0.5-1.2
				c-0.5,0-1.2,1-2.1,3c-0.6,1.2-1,2.4-1.4,3.7c-0.4,1.2-0.5,2.3-0.5,3.1C712.6,183.1,712.7,183.5,712.8,184.1z"/>
			<path class="st11" d="M733.5,179.4l1.3-1.5c1.3-1.5,2.4-2.5,3.1-3.3c0.8-0.7,1.5-1.2,2.1-1.5c0.6-0.3,1.2-0.5,1.9-0.5
				c1,0,1.7,0.3,2.2,0.8c0.4,0.5,0.6,1.5,0.6,2.8c0,0.6-0.1,1.4-0.2,2.5c-0.2,1.5-0.3,2.8-0.3,4.1c0,1.4,0.1,2.6,0.2,3.5
				c0.1,0.5,0.3,1.1,0.5,1.6c0.1,0.5,0.2,0.9,0.2,1.1s-0.1,0.4-0.3,0.5c-0.4,0.4-1,0.7-1.8,1c-0.7,0.3-1.4,0.4-1.9,0.4
				c-0.8,0-1.6-0.3-2.2-0.8c-0.7-0.6-1.2-1.3-1.6-2.3s-0.5-2.1-0.5-3.4c0-0.8,0.1-1.8,0.3-3l-0.1-0.1c-0.6,0.7-1.1,1.2-1.5,1.6
				c-0.4,0.4-0.7,0.8-1.1,1.1c-1.6,1.8-3,3.5-4.1,5c-0.4,0.6-0.8,1.1-1.2,1.5c-0.5,0.5-1.1,0.8-1.8,0.8c-0.9,0-1.7-0.3-2.2-1
				c-0.6-0.7-0.9-1.6-0.9-2.7c0-0.7,0.1-1.5,0.2-2.5c0.2-1,0.4-2,0.6-3.1c0.3-1.1,0.6-2.3,1-3.4c0.4-1.2,0.8-2.3,1.2-3.4
				c0.7-1.8,1.5-3.1,2.4-4.1c0.6-0.6,1.4-1,2.4-1c1.5,0,2.2,1,2.2,2.9C734.3,174.6,734,176.7,733.5,179.4L733.5,179.4z"/>
			<path class="st11" d="M749.9,191c-0.6,0-1.2-0.3-1.8-0.9c-0.5-0.6-0.9-1.2-1.1-1.9s-0.3-1.5-0.3-2.6c0-2.4,0.4-5.1,1.3-8
				c0.9-3,1.9-5.1,3-6.5c0.4-0.6,1.1-0.8,1.9-0.8c0.8,0,1.5,0.4,2,1.1c0.5,0.8,0.8,1.8,0.8,3c0,1.8-0.3,4-0.8,6.4
				c-0.5,2.5-1.3,5-2.2,7.6c-0.4,1.1-0.8,1.8-1.4,2.2C750.9,190.9,750.5,191,749.9,191L749.9,191z M752.5,169.3c-1.4,0-2-0.9-2-2.4
				c0-0.8,0.2-1.7,0.6-2.8c0.4-1,0.8-1.8,1.3-2.3c0.3-0.3,0.5-0.5,0.8-0.6c0.3-0.1,0.6-0.2,1-0.2c0.7,0,1.2,0.2,1.6,0.5
				c0.3,0.4,0.5,0.9,0.5,1.8c0,1-0.2,2-0.5,2.9c-0.4,0.9-0.8,1.7-1.4,2.2C753.8,169,753.2,169.3,752.5,169.3L752.5,169.3z"/>
			<path class="st11" d="M765.3,184.8c0.2,0.9,0.7,1.3,1.7,1.3c1.1,0,2.5-0.6,4.2-1.9c1-0.7,1.7-1.1,2-1.1c0.4,0,0.8,0.1,1.2,0.3
				c0.4,0.2,0.6,0.5,0.6,0.7c0,0.3-0.2,0.6-0.6,1c-0.8,0.8-1.6,1.5-2.6,2.2s-2,1.3-2.9,1.8s-1.8,0.9-2.8,1.1
				c-0.9,0.3-1.7,0.4-2.5,0.4c-1.8,0-3.2-0.5-4.3-1.5s-1.6-2.4-1.6-4.1c0-1.3,0.3-2.8,0.9-4.4c0.6-1.6,1.3-3.2,2.3-4.6
				c1.1-1.7,2.5-3.1,4.2-4.2c2-1.4,4-2,5.9-2c1.4,0,2.4,0.4,3.2,1.3c0.8,0.9,1.2,2,1.2,3.5c0,1.2-0.3,2.4-0.9,3.6
				c-0.6,1.3-1.5,2.5-2.7,3.6c-1,1-1.9,1.7-2.9,2.3c-0.9,0.5-1.8,0.8-2.5,0.8C765.9,185,765.6,184.9,765.3,184.8z M765.2,184.1
				c0.7-0.4,1.2-0.9,1.5-1.3c0.8-0.9,1.4-2,1.8-3.2c0.3-0.8,0.6-1.7,0.8-2.7s0.3-1.9,0.3-2.7s-0.2-1.2-0.5-1.2c-0.5,0-1.2,1-2.1,3
				c-0.6,1.2-1,2.4-1.4,3.7c-0.4,1.2-0.5,2.3-0.5,3.1C765.1,183.1,765.1,183.5,765.2,184.1z"/>
		</g>
		<g>
			<g>
				<path class="st9" d="M274,626.8h12.3v43.9h21.5v10.3H274V626.8z"/>
				<path class="st9" d="M347.3,658h-19.9v12.9h22.2v10h-34.5v-54.1h33.4v10h-21.1v11.2h19.9V658z"/>
				<path class="st9" d="M370.6,667l-3.9,13.9H354l16.5-54.1h16.1l16.8,54.1h-13.2l-4.2-13.9H370.6z M384.3,657.9l-3.4-11.5
					c-1-3.2-1.9-7.2-2.7-10.4h-0.2c-0.8,3.2-1.6,7.3-2.5,10.4l-3.2,11.5H384.3z"/>
				<path class="st9" d="M410.7,627.5c3.9-0.6,9.8-1.1,16.3-1.1c8,0,13.7,1.2,17.5,4.3c3.2,2.6,5,6.3,5,11.3
					c0,6.9-4.9,11.6-9.6,13.3v0.2c3.8,1.5,5.9,5.1,7.2,10.1c1.7,6.1,3.4,13.2,4.4,15.3H439c-0.9-1.5-2.2-5.9-3.8-12.6
					c-1.4-6.7-3.8-8.6-8.8-8.7h-3.7v21.3h-12.1V627.5z M422.8,650.8h4.8c6.1,0,9.7-3.1,9.7-7.8c0-5-3.4-7.5-9-7.5
					c-3,0-4.7,0.2-5.5,0.4V650.8z"/>
				<path class="st9" d="M458.3,680.9v-54.1h14.3l11.2,19.8c3.2,5.7,6.4,12.5,8.8,18.6h0.2c-0.8-7.1-1-14.5-1-22.6v-15.8h11.2v54.1
					h-12.9L478.7,660c-3.2-5.8-6.7-12.8-9.4-19.1L469,641c0.3,7.1,0.5,14.8,0.5,23.6v16.3H458.3z"/>
				<path class="st9" d="M537.2,637.1h-14.5v-10.3h41.6v10.3h-14.8v43.9h-12.3V637.1z"/>
				<path class="st9" d="M583.1,626.8v20.8h20.2v-20.8h12.2v54.1h-12.2v-22.7h-20.2v22.7h-12.3v-54.1H583.1z"/>
				<path class="st9" d="M658.4,658h-19.9v12.9h22.2v10h-34.5v-54.1h33.4v10h-21.1v11.2h19.9V658z"/>
				<path class="st9" d="M685.3,627.5c3.8-0.6,9.1-1.1,16.5-1.1c7.6,0,12.9,1.4,16.5,4.3c3.5,2.7,5.8,7.2,5.8,12.5
					c0,5.3-1.8,9.8-5,12.9c-4.2,3.9-10.4,5.7-17.6,5.7c-1.6,0-3.1-0.1-4.2-0.2v19.4h-12.1V627.5z M697.4,652.1
					c1,0.2,2.3,0.3,4.1,0.3c6.5,0,10.5-3.3,10.5-8.8c0-5-3.5-8-9.6-8c-2.5,0-4.2,0.2-5.1,0.5V652.1z"/>
				<path class="st9" d="M731.9,627.5c3.9-0.6,9.8-1.1,16.3-1.1c8,0,13.7,1.2,17.5,4.3c3.2,2.6,5,6.3,5,11.3
					c0,6.9-4.9,11.6-9.6,13.3v0.2c3.8,1.5,5.9,5.1,7.2,10.1c1.7,6.1,3.4,13.2,4.4,15.3h-12.5c-0.9-1.5-2.2-5.9-3.8-12.6
					c-1.4-6.7-3.8-8.6-8.8-8.7H744v21.3h-12.1V627.5z M744,650.8h4.8c6.1,0,9.7-3.1,9.7-7.8c0-5-3.4-7.5-9-7.5c-3,0-4.7,0.2-5.5,0.4
					V650.8z"/>
				<path class="st9" d="M828.8,653.3c0,17.8-10.8,28.5-26.6,28.5c-16.1,0-25.5-12.1-25.5-27.6c0-16.2,10.4-28.4,26.3-28.4
					C819.7,625.9,828.8,638.3,828.8,653.3z M789.7,654c0,10.6,5,18.1,13.2,18.1c8.3,0,13-7.9,13-18.4c0-9.7-4.7-18.1-13.1-18.1
					C794.5,635.6,789.7,643.5,789.7,654z"/>
				<path class="st9" d="M876.6,679.4c-2.3,1.1-7.3,2.3-13.9,2.3c-18.7,0-28.4-11.6-28.4-27.1c0-18.5,13.2-28.8,29.6-28.8
					c6.3,0,11.2,1.3,13.3,2.4l-2.5,9.7c-2.5-1-5.9-2-10.3-2c-9.7,0-17.3,5.9-17.3,17.9c0,10.8,6.4,17.7,17.3,17.7
					c3.7,0,7.8-0.8,10.2-1.8L876.6,679.4z"/>
				<path class="st9" d="M916.8,658h-19.9v12.9h22.3v10h-34.5v-54.1H918v10h-21.1v11.2h19.9V658z"/>
				<path class="st9" d="M927.9,668.3c3.3,1.7,8.4,3.4,13.6,3.4c5.6,0,8.6-2.3,8.6-5.9c0-3.4-2.6-5.3-9.1-7.6
					c-9-3.1-14.9-8.1-14.9-16c0-9.2,7.7-16.3,20.5-16.3c6.1,0,10.6,1.3,13.8,2.7l-2.7,9.9c-2.2-1-6-2.6-11.3-2.6s-7.9,2.4-7.9,5.2
					c0,3.5,3.1,5,10,7.6c9.6,3.5,14.1,8.5,14.1,16.1c0,9.1-7,16.8-21.8,16.8c-6.2,0-12.3-1.6-15.3-3.3L927.9,668.3z"/>
				<path class="st9" d="M971.3,668.3c3.3,1.7,8.4,3.4,13.6,3.4c5.6,0,8.6-2.3,8.6-5.9c0-3.4-2.6-5.3-9.1-7.6
					c-9-3.1-14.9-8.1-14.9-16c0-9.2,7.7-16.3,20.5-16.3c6.1,0,10.6,1.3,13.8,2.7l-2.7,9.9c-2.2-1-6-2.6-11.3-2.6
					c-5.3,0-7.9,2.4-7.9,5.2c0,3.5,3.1,5,10,7.6c9.6,3.5,14.1,8.5,14.1,16.1c0,9.1-7,16.8-21.8,16.8c-6.2,0-12.3-1.6-15.3-3.3
					L971.3,668.3z"/>
			</g>
		</g>
		<g>
			<g>
				<circle cx="640" cy="400" r="166"/>
			</g>
			<linearGradient id="SVGID_10_" gradientUnits="userSpaceOnUse" x1="640" y1="524.5" x2="640" y2="275.5">
				<stop  offset="0" style="stop-color:#ABABAB"/>
				<stop  offset="0.6832" style="stop-color:#FFFFFF"/>
			</linearGradient>
			<circle class="st12" cx="640" cy="400" r="124.5"/>
			<g>
				<polygon points="690.8,401.8 615,477.6 615,326 				"/>
			</g>
		</g>
	</g>
</g>
</svg>
