<?xml version="1.0" encoding="utf-8"?>
<!-- Generator: Adobe Illustrator 21.0.2, SVG Export Plug-In . SVG Version: 6.00 Build 0)  -->
<svg version="1.1" xmlns="http://www.w3.org/2000/svg" xmlns:xlink="http://www.w3.org/1999/xlink" x="0px" y="0px"
	 viewBox="0 0 1500 75" style="enable-background:new 0 0 1500 75;" xml:space="preserve">
<style type="text/css">
	.st0{display:none;}
	.st1{clip-path:url(#SVGID_2_);}
	.st2{fill:#CE0000;}
	.st3{fill:#A58500;}
	.st4{fill:#FFEC00;}
	.st5{fill:#FFFFFF;}
	.st6{fill:#990000;}
	.st7{fill:#7F1F00;}
	.st8{fill:#990092;}
	.st9{fill:#00157C;}
	.st10{fill:#EDEDED;}
	.st11{fill:#4F1100;}
	.st12{clip-path:url(#SVGID_2_);fill:none;}
	.st13{fill:#1F5900;}
	.st100{fill:#FFEC00;}
	.code_on{
	-webkit-animation: flickerAnimation 4s infinite;
    -moz-animation: flickerAnimation 4s infinite;
    -o-animation: flickerAnimation 4s infinite;
    animation: flickerAnimation 4s infinite;
    }
    .code_off{
	-webkit-animation: flickerAnimationOff 4s infinite;
    -moz-animation: flickerAnimationOff 4s infinite;
    -o-animation: flickerAnimationOff 4s infinite;
    animation: flickerAnimationOff 4s infinite;
    }
	
		@keyframes flickerAnimation {
		  0%   { opacity:1; }
		  50%  { opacity:0; }
		  100% { opacity:1; }
		}
		@-o-keyframes flickerAnimation{
		  0%   { opacity:1; }
		  50%  { opacity:0; }
		  100% { opacity:1; }
		}
		@-moz-keyframes flickerAnimation{
		  0%   { opacity:1; }
		  50%  { opacity:0; }
		  100% { opacity:1; }
		}
		@-webkit-keyframes flickerAnimation{
		  0%   { opacity:1; }
		  50%  { opacity:0; }
		  100% { opacity:1; }
		}
		@keyframes flickerAnimationOff {
		  0%   { opacity:0; }
		  50%  { opacity:1; }
		  100% { opacity:0; } 
		}
		@-o-keyframes flickerAnimationOff{
		  0%   { opacity:0; }
		  50%  { opacity:1; }
		  100% { opacity:0; }
		}
		@-moz-keyframes flickerAnimationOff{
		  0%   { opacity:0; }
		  50%  { opacity:1; }
		  100% { opacity:0; }
		}
		@-webkit-keyframes flickerAnimationOff{
		  0%   { opacity:0; }
		  50%  { opacity:1; }
		  100% { opacity:0; }
		}
</style>
<g id="Layer_1">
	<g id="Favorite">
	</g>
</g>
<g id="Layer_3" class="st0">
</g>
<g id="Layer_4">
	<g>
		<defs>
			<rect id="SVGID_1_" y="1" width="1501" height="74"/>
		</defs>
		<clipPath id="SVGID_2_">
			<use xlink:href="#SVGID_1_"  style="overflow:visible;"/>
		</clipPath>
		<g class="st1">
			<rect class="st2" width="1500" height="75"/>
		</g>
		<g class="st1">
			<g>
				<path d="M741.6,37.4l-4-14.6h-7.2l0,0.1c-1.7-0.5-3.6-0.7-5.6-0.7c-4.6,0-8.5,1.6-11,4.3c-1.1-2.6-3.5-4.3-6.5-4.3
					c-2.8,0-5.2,1.5-6.4,3.8c-2.7-2.1-6.9-3.2-12.6-3.2h-73.5l-0.3-0.9h-4.2l-2.8,0l-0.3,0.8h-13l-0.3-0.9h-6.9l-3,8.3l-2.9-7.5
					h-9.1c0,0-1.2,3-2.7,7l-2.5-7h-29.2v9l3.5,0.2v17.3l-3.5,0.2v9H558v-9.1l-3.6-0.2v-4.1h1.2l0.2,3.6h6.1
					c-0.1,0.3-0.2,0.5-0.2,0.5c0,0-3.6,0.4-3.6,0.4v8.9h16.7v-8.1h0.1v8.1h35.8v-9l-3.5-0.2V33.6c1,0.5,1.8,1.3,2.6,2.6l1.8,3l3-1.3
					v11.4l-3.5,0.2v9H691v-3.4l2.3,3.4h13.9v-9l-3.6-0.3c-0.8-0.1-0.8-0.1-1.3-0.7l-3.6-5.3c1.5-0.8,2.8-1.8,3.7-3l3.8,3.2l2.6-2.5
					c0.9-0.9,1.9-2,2.7-3.3c0.5,1.5,1.4,2.8,2.4,3.8l-5.2,1.7l4.2,15.4h7.2l0.1-0.3c2,0.6,4.2,0.9,6.3,0.9c8.9,0,15.3-5.5,15.3-13
					c0-3.6-1.3-6.2-3.2-8L741.6,37.4z M555.6,35.1h-1.2v-2h0.3c0.3,0,0.7,0,1,0L555.6,35.1z M565,38.8l1-0.5c-0.3,0.8-0.6,1.7-1,2.5
					V38.8z M593.8,49.4l-1.8,0.1l-0.8-0.1c0-0.1-4.4-11.4-4.4-11.4l2.8,1.2l1.8-3c0.8-1.3,1.5-2.1,2.5-2.6V49.4z M660,33.1h0.3
					c0.3,0,0.7,0,1,0l-0.1,2H660V33.1z M632.1,49.4l-2,0.1l-2-0.1v-4.1h3.9V49.4z M632.1,35.1h-3.9v-2.9l2-0.1l2,0.1V35.1z
					 M646.5,49.4l-0.5,0l-0.5,0V32.1l0.5,0l0.5,0V49.4z M660.3,48.5H660v-3.2h1.2l0.2,3.1C661,48.5,660.7,48.5,660.3,48.5z
					 M674,42.8l-2.8-1.7l-0.7,0.9v-3.2l3.5-1.7V42.8z M690.5,34.8c0,0-0.4,0.3-2.3,0.3h-0.7v-2.1h0.8c1.7,0,2.1,0.3,2.2,0.3l0,0
					c0,0,0.1,0.2,0.1,0.7C690.5,34.7,690.5,34.8,690.5,34.8z M728.5,48.5c-0.3,0.3-1.2,0.7-2.2,0.7c-3,0-5.7-1.6-7.4-4.4
					c1.7,0.7,3.4,1.2,4.9,1.6c1.3,0.4,4.5,1.3,4.9,1.9C728.7,48.4,728.6,48.4,728.5,48.5z M728.3,33.5l-0.4-0.1
					c-1.6-0.4-2.6-0.8-3.3-1c0.2,0,0.3,0,0.5,0c1.8,0,3.4,0.5,4.6,1.6C729.3,33.8,728.8,33.7,728.3,33.5z"/>
				<path d="M799.2,22.9v4.8l-1.8-4.8h-9.1c0,0-3.4,8.9-6.3,16.4c-0.6-10.3-7.7-16.4-19.1-16.4H746v9l3.5,0.2v17.3l-3.5,0.2v9h16.9
					c4.7,0,8.6-1.1,11.7-3v3h16.7v-8.1h0.1v8.1h35.5v-9l-3.5-0.2v-5.2l6.4-10.9c0.2-0.3,0.5-0.9,0.7-1.2l3.5-0.4v-8.9H799.2z
					 M763,48.5V33.1c2.3,0,5.2,0,5.2,7.7C768.2,48.4,765.3,48.5,763,48.5z M809.9,49.4l-1.6,0.1l-0.7-0.1c0-0.1-6.7-17.5-6.7-17.5
					l1.7,0.2c0.2,0.3,0.6,0.9,0.8,1.3l6.6,11V49.4z M818.2,32.6l-0.4-0.6l0.4,0l0.4,0L818.2,32.6z"/>
			</g>
			<path d="M563.1,34.7c0.2,0.2,0.4,0.5,0.6,0.8l1,1.4l4.2-2.1l-3.5-9.8h-25.8V30l1.9,0.1c0.8,0.1,1.3,0.1,1.6,0.2
				c0,0.2,0.1,0.5,0.1,1v18.9c0,0.5,0,0.8-0.1,0.9c-0.4,0.1-1.3,0.2-1.6,0.2l-1.9,0.1v5.2H556v-5.2l-1.9-0.1c-0.4,0-1.2-0.1-1.7-0.2
				c0-0.2-0.1-0.4-0.1-0.9v-7h3.6c1.4,0,1.5,0,1.6,1.7l0.1,1.9h5.4V34.7z M557.7,33.4l-0.1,1.9c-0.1,1.7-0.2,1.7-1.6,1.7h-3.6v-6
				h2.3c3.1,0,5.3,0.7,7.1,2.3H557.7z"/>
			<path d="M700.7,49.8l-5-7.3c5.8-1.7,6.8-5.9,6.8-8.4c0-9.2-10.7-9.2-14.2-9.2h-15.8v4.7l-1.7-4.7H647h-2h-14.5V30l1.9,0.1
				c0.8,0.1,1.3,0.1,1.6,0.2c0,0.2,0.1,0.5,0.1,1V37h-7.9v-5.7c0-0.5,0-0.8,0.1-1c0.3-0.1,0.8-0.1,1.6-0.2l1.9-0.1v-5.2h-16.3
				L613,24h-2.8l-1.4,0l-0.3,0.9h-15.9l-0.3-0.9h-4.1l-3.9,10.8l4.4,2l0.9-1.5c1.6-2.7,3.5-3.9,6.1-4.2v19.2c0,0.5,0,0.8-0.1,0.9
				c-0.4,0.1-1.3,0.2-1.6,0.2l-1.9,0.1v0.1l-1.6-0.2c-0.8-0.1-1-0.1-1.5-1.5l-9.6-25h-6.3L563.7,50c-0.4,1.1-0.7,1.3-1.7,1.4
				l-1.8,0.2v5.1h12.7v-5.2l-1.8-0.1c-0.5,0-0.9-0.1-1.2-0.1l1-2.7h7.7l1.1,2.7c-0.2,0-0.5,0.1-0.8,0.1l-1.8,0.1v5.2h15.3h0.2h16.3
				v-5.2l-1.9-0.1c-0.3,0-1.2-0.1-1.6-0.2c0-0.2-0.1-0.4-0.1-0.9V31.1c2.7,0.2,4.7,1.5,6.3,4.1l0.9,1.5l4.2-1.9v15.4
				c0,0.5,0,0.8-0.1,0.9c-0.4,0.1-1.3,0.2-1.6,0.2l-1.9,0.1v5.2h16.5v-5.2l-1.9-0.1c-0.3,0-1.2-0.1-1.6-0.2c0-0.2-0.1-0.4-0.1-0.9
				v-7h7.9v7c0,0.5,0,0.8-0.1,0.9c-0.4,0.1-1.3,0.2-1.6,0.2l-1.9,0.1v5.2H645h2h23.7l1.8-3.7v3.7H689v-5.2l-1.9-0.1
				c-0.3,0-1.2-0.1-1.6-0.2c0-0.2-0.1-0.4-0.1-0.9v-6.6l8.8,13.1h10.9v-5.2l-1.8-0.2C701.9,51.2,701.4,50.9,700.7,49.8z M573.3,42.3
				l1.4-3.7l1.4,3.7H573.3z M615.3,30.2c0.6,0,1.1,0.1,1.3,0.2c0,0.2,0.1,0.5,0.1,1V34L615.3,30.2z M658,31.1h2.3
				c3.1,0,5.3,0.7,7.1,2.3h-4.2l-0.1,1.9c-0.1,1.7-0.2,1.7-1.6,1.7H658V31.1z M648.5,50.3c0,0.5,0,0.8-0.1,0.9
				c-0.4,0.1-1.3,0.2-1.6,0.2l-0.9,0.1l-0.9-0.1c-0.3,0-1.2-0.1-1.6-0.2c0-0.2-0.1-0.4-0.1-0.9V31.3c0-0.5,0-0.8,0.1-1
				c0.3-0.1,0.8-0.1,1.6-0.2l0.9-0.1l0.9,0.1c0.8,0.1,1.3,0.1,1.6,0.2c0,0.2,0.1,0.5,0.1,1V50.3z M676,50.3c0,0.5,0,0.8-0.1,0.9
				c-0.4,0.1-1.3,0.2-1.6,0.2l-1,0.1l2.6-5.2l-4.2-2.5l-1.1,1.4c-2.9,3.7-6.1,5.3-10.3,5.3H658v-7.2h3.6c1.4,0,1.5,0,1.6,1.7
				l0.1,1.9h5.4V34.7c0.2,0.2,0.4,0.5,0.6,0.8l1,1.4l4.2-2.1l-1.7-4.6l1.7,0.1c0.8,0.1,1.3,0.1,1.6,0.2c0,0.2,0,0.5,0,1V50.3z
				 M688.2,37.2h-2.7v-6.1h2.8c3.9,0,4.2,1.4,4.2,3C692.5,35.8,692.2,37.2,688.2,37.2z"/>
			<path d="M707.3,24.3c-2.9,0-5.2,2.2-5.2,5.1c0,1.8,1,3.7,2.8,4.6c-0.4,0.7-0.8,1.4-1.5,2.3l-1.1,1.5l3.8,3.3l1.3-1.2
				c2.4-2.3,5-6.6,5-10C712.5,26.6,710.3,24.3,707.3,24.3z"/>
			<path d="M727.8,35.5l-0.4-0.1c-3.6-1-5.6-1.7-5.6-3c0-1.4,1.8-1.9,3.3-1.9c3.9,0,6.8,1.9,8.6,5.6l0.7,1.5l4.7-1.4l-3.1-11.2h-4.4
				l-0.2,0.6c-1.9-0.8-4.2-1.2-6.7-1.2c-6.9,0-11.9,4.1-11.9,9.8c0,7.2,6.6,9.1,11.5,10.5c4.3,1.2,6.3,2,6.3,3.8
				c0,0.6-0.2,1.1-0.7,1.6c-0.8,0.8-2.2,1.3-3.7,1.3c-4.1,0-7.7-2.4-9.8-6.5l-0.8-1.5l-4.7,1.5l3.3,12.1h4.4l0.3-0.8
				c2.2,0.9,4.8,1.4,7.4,1.4c7.7,0,13.3-4.6,13.3-11C739.8,38.7,732.9,36.8,727.8,35.5z"/>
			<path d="M763,24.9H748V30l1.9,0.1c0.8,0.1,1.3,0.1,1.6,0.2c0,0.2,0.1,0.5,0.1,1v18.9c0,0.5,0,0.8-0.1,0.9
				c-0.4,0.1-1.3,0.2-1.6,0.2l-1.9,0.1v5.2h14.9c10.8,0,17.2-6,17.2-15.9C780.1,30.7,773.9,24.9,763,24.9z M762.9,50.5H761V31.1h1.9
				c3.7,0,7.2,1.2,7.2,9.7C770.2,49.3,766.7,50.5,762.9,50.5z"/>
			<path d="M819.5,24.9V30l1.8,0.1c0.2,0,0.4,0,0.5,0.1c0,0.1-0.1,0.1-0.1,0.2l-3.5,6l-3.6-6c-0.1-0.1-0.1-0.2-0.1-0.3
				c0.1,0,0.3,0,0.5-0.1l1.8-0.1v-5.1h-15.6v5.1l1.8,0.2c0.7,0.1,0.8,0.1,2.1,2.2l6.9,11.5v6.4c0,0.5,0,0.8-0.1,0.9
				c-0.4,0.1-1.3,0.2-1.6,0.2l-1.9,0.1v0l-1.3-0.2c-0.8-0.1-1-0.1-1.5-1.5l-9.6-25h-6.3L780.1,50c-0.4,1.1-0.7,1.3-1.7,1.4l-1.8,0.2
				v5.1h12.7v-5.2l-1.8-0.1c-0.5,0-0.9-0.1-1.2-0.1l1-2.7h7.7l1.1,2.7c-0.2,0-0.5,0.1-0.8,0.1l-1.8,0.1v5.2h15h0.5h16v-5.2l-1.9-0.1
				c-0.3,0-1.2-0.1-1.6-0.2c0-0.2-0.1-0.4-0.1-0.9v-6.6l6.7-11.4c1.2-2.1,1.3-2.1,2.2-2.2L832,30v-5.1H819.5z M789.7,42.3l1.4-3.7
				l1.4,3.7H789.7z"/>
		</g>
		<g class="st1">
			<path class="st3" d="M563.1,34.7c0.2,0.2,0.4,0.5,0.6,0.8l1,1.4l4.2-2.1l-3.5-9.8h-25.8V30l1.9,0.1c0.8,0.1,1.3,0.1,1.6,0.2
				c0,0.2,0.1,0.5,0.1,1v18.9c0,0.5,0,0.8-0.1,0.9c-0.4,0.1-1.3,0.2-1.6,0.2l-1.9,0.1v5.2H556v-5.2l-1.9-0.1c-0.4,0-1.2-0.1-1.7-0.2
				c0-0.2-0.1-0.4-0.1-0.9v-7h3.6c1.4,0,1.5,0,1.6,1.7l0.1,1.9h5.4V34.7z M557.7,33.4l-0.1,1.9c-0.1,1.7-0.2,1.7-1.6,1.7h-3.6v-6
				h2.3c3.1,0,5.3,0.7,7.1,2.3H557.7z"/>
			<path class="st3" d="M700.7,49.8l-5-7.3c5.8-1.7,6.8-5.9,6.8-8.4c0-9.2-10.7-9.2-14.2-9.2h-15.8v4.7l-1.7-4.7H647h-2h-14.5V30
				l1.9,0.1c0.8,0.1,1.3,0.1,1.6,0.2c0,0.2,0.1,0.5,0.1,1V37h-7.9v-5.7c0-0.5,0-0.8,0.1-1c0.3-0.1,0.8-0.1,1.6-0.2l1.9-0.1v-5.2
				h-16.3L613,24h-2.8l-1.4,0l-0.3,0.9h-15.9l-0.3-0.9h-4.1l-3.9,10.8l4.4,2l0.9-1.5c1.6-2.7,3.5-3.9,6.1-4.2v19.2
				c0,0.5,0,0.8-0.1,0.9c-0.4,0.1-1.3,0.2-1.6,0.2l-1.9,0.1v0.1l-1.6-0.2c-0.8-0.1-1-0.1-1.5-1.5l-9.6-25h-6.3L563.7,50
				c-0.4,1.1-0.7,1.3-1.7,1.4l-1.8,0.2v5.1h12.7v-5.2l-1.8-0.1c-0.5,0-0.9-0.1-1.2-0.1l1-2.7h7.7l1.1,2.7c-0.2,0-0.5,0.1-0.8,0.1
				l-1.8,0.1v5.2h15.3h0.2h16.3v-5.2l-1.9-0.1c-0.3,0-1.2-0.1-1.6-0.2c0-0.2-0.1-0.4-0.1-0.9V31.1c2.7,0.2,4.7,1.5,6.3,4.1l0.9,1.5
				l4.2-1.9v15.4c0,0.5,0,0.8-0.1,0.9c-0.4,0.1-1.3,0.2-1.6,0.2l-1.9,0.1v5.2h16.5v-5.2l-1.9-0.1c-0.3,0-1.2-0.1-1.6-0.2
				c0-0.2-0.1-0.4-0.1-0.9v-7h7.9v7c0,0.5,0,0.8-0.1,0.9c-0.4,0.1-1.3,0.2-1.6,0.2l-1.9,0.1v5.2H645h2h23.7l1.8-3.7v3.7H689v-5.2
				l-1.9-0.1c-0.3,0-1.2-0.1-1.6-0.2c0-0.2-0.1-0.4-0.1-0.9v-6.6l8.8,13.1h10.9v-5.2l-1.8-0.2C701.9,51.2,701.4,50.9,700.7,49.8z
				 M573.3,42.3l1.4-3.7l1.4,3.7H573.3z M615.3,30.2c0.6,0,1.1,0.1,1.3,0.2c0,0.2,0.1,0.5,0.1,1V34L615.3,30.2z M658,31.1h2.3
				c3.1,0,5.3,0.7,7.1,2.3h-4.2l-0.1,1.9c-0.1,1.7-0.2,1.7-1.6,1.7H658V31.1z M648.5,50.3c0,0.5,0,0.8-0.1,0.9
				c-0.4,0.1-1.3,0.2-1.6,0.2l-0.9,0.1l-0.9-0.1c-0.3,0-1.2-0.1-1.6-0.2c0-0.2-0.1-0.4-0.1-0.9V31.3c0-0.5,0-0.8,0.1-1
				c0.3-0.1,0.8-0.1,1.6-0.2l0.9-0.1l0.9,0.1c0.8,0.1,1.3,0.1,1.6,0.2c0,0.2,0.1,0.5,0.1,1V50.3z M676,50.3c0,0.5,0,0.8-0.1,0.9
				c-0.4,0.1-1.3,0.2-1.6,0.2l-1,0.1l2.6-5.2l-4.2-2.5l-1.1,1.4c-2.9,3.7-6.1,5.3-10.3,5.3H658v-7.2h3.6c1.4,0,1.5,0,1.6,1.7
				l0.1,1.9h5.4V34.7c0.2,0.2,0.4,0.5,0.6,0.8l1,1.4l4.2-2.1l-1.7-4.6l1.7,0.1c0.8,0.1,1.3,0.1,1.6,0.2c0,0.2,0,0.5,0,1V50.3z
				 M688.2,37.2h-2.7v-6.1h2.8c3.9,0,4.2,1.4,4.2,3C692.5,35.8,692.2,37.2,688.2,37.2z"/>
			<path class="st3" d="M707.3,24.3c-2.9,0-5.2,2.2-5.2,5.1c0,1.8,1,3.7,2.8,4.6c-0.4,0.7-0.8,1.4-1.5,2.3l-1.1,1.5l3.8,3.3l1.3-1.2
				c2.4-2.3,5-6.6,5-10C712.5,26.6,710.3,24.3,707.3,24.3z"/>
			<path class="st3" d="M727.8,35.5l-0.4-0.1c-3.6-1-5.6-1.7-5.6-3c0-1.4,1.8-1.9,3.3-1.9c3.9,0,6.8,1.9,8.6,5.6l0.7,1.5l4.7-1.4
				l-3.1-11.2h-4.4l-0.2,0.6c-1.9-0.8-4.2-1.2-6.7-1.2c-6.9,0-11.9,4.1-11.9,9.8c0,7.2,6.6,9.1,11.5,10.5c4.3,1.2,6.3,2,6.3,3.8
				c0,0.6-0.2,1.1-0.7,1.6c-0.8,0.8-2.2,1.3-3.7,1.3c-4.1,0-7.7-2.4-9.8-6.5l-0.8-1.5l-4.7,1.5l3.3,12.1h4.4l0.3-0.8
				c2.2,0.9,4.8,1.4,7.4,1.4c7.7,0,13.3-4.6,13.3-11C739.8,38.7,732.9,36.8,727.8,35.5z"/>
			<path class="st3" d="M763,24.9H748V30l1.9,0.1c0.8,0.1,1.3,0.1,1.6,0.2c0,0.2,0.1,0.5,0.1,1v18.9c0,0.5,0,0.8-0.1,0.9
				c-0.4,0.1-1.3,0.2-1.6,0.2l-1.9,0.1v5.2h14.9c10.8,0,17.2-6,17.2-15.9C780.1,30.7,773.9,24.9,763,24.9z M762.9,50.5H761V31.1h1.9
				c3.7,0,7.2,1.2,7.2,9.7C770.2,49.3,766.7,50.5,762.9,50.5z"/>
			<path class="st3" d="M819.5,24.9V30l1.8,0.1c0.2,0,0.4,0,0.5,0.1c0,0.1-0.1,0.1-0.1,0.2l-3.5,6l-3.6-6c-0.1-0.1-0.1-0.2-0.1-0.3
				c0.1,0,0.3,0,0.5-0.1l1.8-0.1v-5.1h-15.6v5.1l1.8,0.2c0.7,0.1,0.8,0.1,2.1,2.2l6.9,11.5v6.4c0,0.5,0,0.8-0.1,0.9
				c-0.4,0.1-1.3,0.2-1.6,0.2l-1.9,0.1v0l-1.3-0.2c-0.8-0.1-1-0.1-1.5-1.5l-9.6-25h-6.3L780.1,50c-0.4,1.1-0.7,1.3-1.7,1.4l-1.8,0.2
				v5.1h12.7v-5.2l-1.8-0.1c-0.5,0-0.9-0.1-1.2-0.1l1-2.7h7.7l1.1,2.7c-0.2,0-0.5,0.1-0.8,0.1l-1.8,0.1v5.2h15h0.5h16v-5.2l-1.9-0.1
				c-0.3,0-1.2-0.1-1.6-0.2c0-0.2-0.1-0.4-0.1-0.9v-6.6l6.7-11.4c1.2-2.1,1.3-2.1,2.2-2.2L832,30v-5.1H819.5z M789.7,42.3l1.4-3.7
				l1.4,3.7H789.7z"/>
		</g>
		<g class="st1">
			<path class="st4" d="M550.5,39h5.6c2.9,0,3.4-1.4,3.5-3.6h1.5v9.5h-1.5c-0.1-2.3-0.6-3.6-3.5-3.6h-5.6v9c0,2.7,0.6,2.9,3.6,3.1
				v1.4h-12.6v-1.4c2.9-0.2,3.5-0.4,3.5-3.1V31.3c0-2.7-0.6-2.9-3.5-3.1v-1.3h22.4l2.5,6.8l-1.1,0.6c-2.5-3.5-5.5-5.2-10.5-5.2h-3.1
				c-0.7,0-1.2,0.5-1.2,1.2V39z"/>
			<path class="st4" d="M578.2,26.9l9.1,23.8c0.7,1.9,1.5,2.5,3.1,2.7v1.4H579v-1.4c2.7-0.2,3.3-0.7,2.6-2.4l-1.7-4.3h-10.4
				l-1.6,4.3c-0.6,1.6,0.3,2.2,3,2.4v1.4h-8.7v-1.4c1.8-0.2,2.7-0.9,3.3-2.6l9.1-23.9H578.2z M570.4,44.3h8.6l-4.3-11.3L570.4,44.3z
				"/>
			<path class="st4" d="M597.8,30.3c0-0.7-0.4-1.2-1.2-1.2c-3.5,0-6.3,1.3-8.6,5.1l-1.2-0.5l2.8-7.7h1.4c0.2,0.6,0.6,0.9,1.2,0.9
				h16.8c0.6,0,1-0.3,1.2-0.9h1.4l2.8,7.7l-1.2,0.5c-2.3-3.8-5.4-5.1-8.8-5.1c-0.8,0-1.2,0.5-1.2,1.2v20c0,2.7,0.6,2.9,3.5,3.1v1.4
				h-12.5v-1.4c2.9-0.2,3.5-0.4,3.5-3.1V30.3z"/>
			<path class="st4" d="M632.5,54.7v-1.4c2.9-0.2,3.5-0.4,3.5-3.1v-9h-11.9v9c0,2.7,0.6,2.9,3.5,3.1v1.4h-12.5v-1.4
				c2.9-0.2,3.5-0.4,3.5-3.1V31.3c0-2.7-0.6-2.9-3.5-3.1v-1.3h12.5v1.3c-2.9,0.2-3.5,0.5-3.5,3.1V39H636v-7.7c0-2.7-0.6-2.9-3.5-3.1
				v-1.3H645v1.3c-2.9,0.2-3.5,0.5-3.5,3.1v18.9c0,2.7,0.6,2.9,3.5,3.1v1.4H632.5z"/>
			<path class="st4" d="M660.3,52.4c5.5,0,9.1-2.6,11.9-6.1l1.1,0.7l-3.9,7.7H647v-1.4c2.9-0.2,3.5-0.4,3.5-3.1V31.3
				c0-2.7-0.6-2.9-3.5-3.1v-1.3h22.4l2.5,6.8l-1.1,0.6c-2.5-3.5-5.5-5.2-10.5-5.2h-3.1c-0.7,0-1.2,0.5-1.2,1.2V39h5.6
				c2.9,0,3.4-1.4,3.5-3.6h1.5v9.5h-1.5c-0.1-2.3-0.6-3.6-3.5-3.6H656v9.9c0,0.8,0.5,1.2,1.2,1.2H660.3z"/>
			<path class="st4" d="M692.3,41.1L699,51c1,1.5,2,2.2,4.2,2.4v1.4h-7.8l-9-13.3h-2.9v8.8c0,2.7,0.6,2.9,3.5,3.1v1.4h-12.5v-1.4
				c2.9-0.2,3.5-0.4,3.5-3.1V31.3c0-2.7-0.5-2.9-3.5-3.1v-1.3h13.8c7.4,0,12.2,1.8,12.2,7.2C700.5,38.5,697.2,40.6,692.3,41.1z
				 M688.3,29.1h-3.6c-0.7,0-1.2,0.5-1.2,1.2v8.9h4.7c4,0,6.3-1.4,6.3-5.1C694.5,30.4,692.2,29.1,688.3,29.1z"/>
			<path class="st4" d="M707.3,26.3c2,0,3.2,1.5,3.2,3.5c0,2.7-2.4,6.6-4.4,8.5l-1-0.9c1.3-1.7,2.1-3.1,2.5-4.9
				c-2.3,0-3.4-1.5-3.4-3.1C704.1,27.7,705.3,26.3,707.3,26.3z"/>
			<path class="st4" d="M726.9,37.3c5.1,1.4,10.9,2.7,10.9,9c0,5.4-4.9,9-11.3,9c-3.3,0-6.3-0.8-8.4-2.1l-0.6,1.5h-1.6l-2.4-8.8
				l1.2-0.4c2.3,4.7,6.6,7.6,11.5,7.6c3.5,0,6.4-2.1,6.3-4.9c0-3.5-3.7-4.5-7.8-5.7c-4.8-1.4-10-2.8-10-8.6c0-4.8,4.5-7.8,9.9-7.8
				c3.5,0,6,0.8,7.7,1.9l0.6-1.3h1.6l2.2,7.9l-1.2,0.4c-2-4.2-5.5-6.7-10.3-6.7c-3.4,0-5.3,1.7-5.3,3.9
				C719.9,35.3,723.2,36.3,726.9,37.3z"/>
			<path class="st4" d="M762.9,54.7H750v-1.4c2.9-0.2,3.5-0.4,3.5-3.1V31.3c0-2.7-0.6-2.9-3.5-3.1v-1.3H763
				c9.6,0,15.2,4.9,15.2,13.9C778.1,49.8,772.5,54.7,762.9,54.7z M763,29.1h-2.7c-0.7,0-1.2,0.5-1.2,1.2v21c0,0.8,0.5,1.2,1.2,1.2
				h2.7c5.4,0,9.2-2.7,9.2-11.7C772.2,31.8,768.4,29.1,763,29.1z"/>
			<path class="st4" d="M794.6,26.9l9.1,23.8c0.7,1.9,1.5,2.5,3.1,2.7v1.4h-11.5v-1.4c2.7-0.2,3.3-0.7,2.6-2.4l-1.7-4.3h-10.4
				l-1.6,4.3c-0.6,1.6,0.3,2.2,3,2.4v1.4h-8.7v-1.4c1.8-0.2,2.7-0.9,3.3-2.6l9.1-23.9H794.6z M786.8,44.3h8.6l-4.3-11.3L786.8,44.3z
				"/>
			<path class="st4" d="M813.9,50.3v-7l-7.2-12c-1.3-2.2-1.8-2.9-3.5-3.1v-1.3h11.7v1.3c-2.6,0.2-3.1,1.2-1.9,3.3l5.3,8.9l5.2-9
				c1.3-2.2,0.6-3.1-2-3.3v-1.3h8.5v1.3c-1.9,0.2-2.4,1-3.7,3.1l-6.9,11.8v7.1c0,2.7,0.6,2.9,3.5,3.1v1.4h-12.5v-1.4
				C813.3,53.2,813.9,52.9,813.9,50.3z"/>
			<path class="st4" d="M550.5,39h5.6c2.9,0,3.4-1.4,3.5-3.6h1.5v9.5h-1.5c-0.1-2.3-0.6-3.6-3.5-3.6h-5.6v9c0,2.7,0.6,2.9,3.6,3.1
				v1.4h-12.6v-1.4c2.9-0.2,3.5-0.4,3.5-3.1V31.3c0-2.7-0.6-2.9-3.5-3.1v-1.3h22.4l2.5,6.8l-1.1,0.6c-2.5-3.5-5.5-5.2-10.5-5.2h-3.1
				c-0.7,0-1.2,0.5-1.2,1.2V39z"/>
			<path class="st4" d="M578.2,26.9l9.1,23.8c0.7,1.9,1.5,2.5,3.1,2.7v1.4H579v-1.4c2.7-0.2,3.3-0.7,2.6-2.4l-1.7-4.3h-10.4
				l-1.6,4.3c-0.6,1.6,0.3,2.2,3,2.4v1.4h-8.7v-1.4c1.8-0.2,2.7-0.9,3.3-2.6l9.1-23.9H578.2z M570.4,44.3h8.6l-4.3-11.3L570.4,44.3z
				"/>
			<path class="st4" d="M597.8,30.3c0-0.7-0.4-1.2-1.2-1.2c-3.5,0-6.3,1.3-8.6,5.1l-1.2-0.5l2.8-7.7h1.4c0.2,0.6,0.6,0.9,1.2,0.9
				h16.8c0.6,0,1-0.3,1.2-0.9h1.4l2.8,7.7l-1.2,0.5c-2.3-3.8-5.4-5.1-8.8-5.1c-0.8,0-1.2,0.5-1.2,1.2v20c0,2.7,0.6,2.9,3.5,3.1v1.4
				h-12.5v-1.4c2.9-0.2,3.5-0.4,3.5-3.1V30.3z"/>
			<path class="st4" d="M632.5,54.7v-1.4c2.9-0.2,3.5-0.4,3.5-3.1v-9h-11.9v9c0,2.7,0.6,2.9,3.5,3.1v1.4h-12.5v-1.4
				c2.9-0.2,3.5-0.4,3.5-3.1V31.3c0-2.7-0.6-2.9-3.5-3.1v-1.3h12.5v1.3c-2.9,0.2-3.5,0.5-3.5,3.1V39H636v-7.7c0-2.7-0.6-2.9-3.5-3.1
				v-1.3H645v1.3c-2.9,0.2-3.5,0.5-3.5,3.1v18.9c0,2.7,0.6,2.9,3.5,3.1v1.4H632.5z"/>
			<path class="st4" d="M660.3,52.4c5.5,0,9.1-2.6,11.9-6.1l1.1,0.7l-3.9,7.7H647v-1.4c2.9-0.2,3.5-0.4,3.5-3.1V31.3
				c0-2.7-0.6-2.9-3.5-3.1v-1.3h22.4l2.5,6.8l-1.1,0.6c-2.5-3.5-5.5-5.2-10.5-5.2h-3.1c-0.7,0-1.2,0.5-1.2,1.2V39h5.6
				c2.9,0,3.4-1.4,3.5-3.6h1.5v9.5h-1.5c-0.1-2.3-0.6-3.6-3.5-3.6H656v9.9c0,0.8,0.5,1.2,1.2,1.2H660.3z"/>
			<path class="st4" d="M692.3,41.1L699,51c1,1.5,2,2.2,4.2,2.4v1.4h-7.8l-9-13.3h-2.9v8.8c0,2.7,0.6,2.9,3.5,3.1v1.4h-12.5v-1.4
				c2.9-0.2,3.5-0.4,3.5-3.1V31.3c0-2.7-0.5-2.9-3.5-3.1v-1.3h13.8c7.4,0,12.2,1.8,12.2,7.2C700.5,38.5,697.2,40.6,692.3,41.1z
				 M688.3,29.1h-3.6c-0.7,0-1.2,0.5-1.2,1.2v8.9h4.7c4,0,6.3-1.4,6.3-5.1C694.5,30.4,692.2,29.1,688.3,29.1z"/>
			<path class="st4" d="M707.3,26.3c2,0,3.2,1.5,3.2,3.5c0,2.7-2.4,6.6-4.4,8.5l-1-0.9c1.3-1.7,2.1-3.1,2.5-4.9
				c-2.3,0-3.4-1.5-3.4-3.1C704.1,27.7,705.3,26.3,707.3,26.3z"/>
			<path class="st4" d="M726.9,37.3c5.1,1.4,10.9,2.7,10.9,9c0,5.4-4.9,9-11.3,9c-3.3,0-6.3-0.8-8.4-2.1l-0.6,1.5h-1.6l-2.4-8.8
				l1.2-0.4c2.3,4.7,6.6,7.6,11.5,7.6c3.5,0,6.4-2.1,6.3-4.9c0-3.5-3.7-4.5-7.8-5.7c-4.8-1.4-10-2.8-10-8.6c0-4.8,4.5-7.8,9.9-7.8
				c3.5,0,6,0.8,7.7,1.9l0.6-1.3h1.6l2.2,7.9l-1.2,0.4c-2-4.2-5.5-6.7-10.3-6.7c-3.4,0-5.3,1.7-5.3,3.9
				C719.9,35.3,723.2,36.3,726.9,37.3z"/>
			<path class="st4" d="M762.9,54.7H750v-1.4c2.9-0.2,3.5-0.4,3.5-3.1V31.3c0-2.7-0.6-2.9-3.5-3.1v-1.3H763
				c9.6,0,15.2,4.9,15.2,13.9C778.1,49.8,772.5,54.7,762.9,54.7z M763,29.1h-2.7c-0.7,0-1.2,0.5-1.2,1.2v21c0,0.8,0.5,1.2,1.2,1.2
				h2.7c5.4,0,9.2-2.7,9.2-11.7C772.2,31.8,768.4,29.1,763,29.1z"/>
			<path class="st4" d="M794.6,26.9l9.1,23.8c0.7,1.9,1.5,2.5,3.1,2.7v1.4h-11.5v-1.4c2.7-0.2,3.3-0.7,2.6-2.4l-1.7-4.3h-10.4
				l-1.6,4.3c-0.6,1.6,0.3,2.2,3,2.4v1.4h-8.7v-1.4c1.8-0.2,2.7-0.9,3.3-2.6l9.1-23.9H794.6z M786.8,44.3h8.6l-4.3-11.3L786.8,44.3z
				"/>
			<path class="st4" d="M813.9,50.3v-7l-7.2-12c-1.3-2.2-1.8-2.9-3.5-3.1v-1.3h11.7v1.3c-2.6,0.2-3.1,1.2-1.9,3.3l5.3,8.9l5.2-9
				c1.3-2.2,0.6-3.1-2-3.3v-1.3h8.5v1.3c-1.9,0.2-2.4,1-3.7,3.1l-6.9,11.8v7.1c0,2.7,0.6,2.9,3.5,3.1v1.4h-12.5v-1.4
				C813.3,53.2,813.9,52.9,813.9,50.3z"/>
		</g>
		<g class="st1">
			<circle class="st5" cx="1421.5" cy="41.5" r="93.5"/>
			<path class="st6" d="M1463.1-40.7c0.4,0,0.8-0.2,1.2-0.1c2.5,0.5,4.7,1.4,6.3,3.5c0.5,0.6,1.3,0.9,2,1.3c0.6,0.3,1.2,0.5,2.1,0.5
				c-0.8-0.7-1.5-1.4-2.3-1.9c-0.9-0.6-1.8-1.1-2.7-1.8c2,0.6,3.9,1.3,5.5,2.8c1,1,2.3,1.7,3.3,2.7c1.5,1.4,2.9,2.8,4.2,4.3
				c0.4,0.5,0.8,1.2,0.1,1.6c-0.2,0.1-1-0.4-1.2-0.8c-1.4-2.7-3.8-4.3-6.3-5.8c-0.2-0.1-0.4-0.1-0.9-0.2c1.9,1.7,3.6,3.3,4.4,5.5
				c-0.1,0.1-0.2,0.2-0.3,0.4c-0.4-0.3-0.8-0.5-1.1-0.9c-0.6-0.8-1.2-1.7-1.8-2.6c-1.8-2.4-4.3-3.4-7.2-3.4c0.4,0.2,0.7,0.4,1.1,0.6
				c1.1,0.7,2.3,1.3,3.2,2.1c0.6,0.5,1,1.3,1.3,2.1c0.2,0.5,0,1.1-0.1,1.6c-0.5-0.3-1-0.6-1.4-1c-0.3-0.4-0.5-1-0.7-1.4
				c-1.7-3.5-4.8-4.4-8.3-4.8c-0.2,1.6-1.2,1.1-1.9,0.7c-1.3-0.7-2.5-0.3-3.8,0c1.7,0.3,3.2,1.1,4.2,2.5c0.9,1.3,1.7,2.7,1,4.7
				c-0.4-0.4-0.7-0.7-0.9-0.9c-1.1-1.4-2.2-2.8-3.3-4.1c-1.8-2.1-4.5-2.4-6.9-0.7c0.3,0.2,0.5,0.4,0.7,0.5c2.7,0.5,3.8,2.7,4.9,4.8
				c0.2,0.3,0.1,0.7,0.1,1.1c0,0.3-0.2,0.7-0.4,0.8c-0.2,0.1-0.6-0.1-0.8-0.3c-1.3-1.4-2.6-2.9-3.9-4.3c-1.8-2-3.2-2.2-5.7-0.6
				c0.3,0.2,0.6,0.4,0.9,0.6c1.6,1.1,3.2,2,4.6,3.3c1.3,1.2,1.1,2.9-0.1,4.3c-1.6-1.7-3-3.5-4.7-5c-0.9-0.8-2.1-1.5-3.2-1.7
				c-0.8-0.1-1.7,0.8-2.9,1.4c0.9,0.5,1.5,0.8,2.2,1.1c2.2,1,3.9,2.4,4.3,5c0.1,0.6-0.1,1.3-0.1,1.9c-0.1,0-0.2,0.1-0.3,0.1
				c-0.3-0.3-0.7-0.7-0.9-1.1c-0.9-1.2-1.8-2.6-2.8-3.7c-1.9-2-4.1-1.9-6,0c-0.6,0.6-0.7,1.2-0.4,1.8c0.2,0.4,0.7,0.7,1.2,0.8
				c2.5,1.1,4.3,2.9,5.5,5.3c0.3,0.5,0.1,1.3,0.2,2.3c-0.8-0.6-1.3-1-1.8-1.4c-1.1-0.9-2.1-1.9-3.2-2.8c-0.9-0.8-1.9-1.2-3.2-1.1
				c-0.6,0.1-1.3-0.2-2.1-0.3c-0.2,0.3-0.6,0.7-0.9,1.2c-0.9,1.3-0.5,2.4,1,3.1c2.3,0.9,4.5,2.1,6.2,3.9c0.5,0.5,0.9,1.2,1.2,1.9
				c0.1,0.3,0.1,0.9-0.1,1.1c-0.3,0.2-0.8,0.3-1.2,0.3c-0.5-0.1-0.9-0.4-1.3-0.7c-2.6-1.3-5.2-2.7-7.8-4c-0.4-0.2-1.3-0.1-1.3,0
				c-0.3,0.8-1.4,1.3-0.8,2.5c0.3,0.5,0,1.3,0,2.1c3.3,0.8,6.7,1.4,8.6,4.7c0.4,0.7,0.6,1.6,0.7,2.5c-4-1.5-7.2-4.7-11.9-4.2
				c-1,1.3-0.7,3-0.5,4.7c0,0.3,0.6,0.6,1,0.7c1.9,0.7,3.9,1.1,5.7,2c0.9,0.4,1.6,1.5,2.2,2.4c0.2,0.2,0.1,0.9-0.1,1.1
				c-0.2,0.2-0.8,0.2-1.1,0c-1.9-0.7-3.8-1.4-5.8-2.1c-0.5-0.2-1-0.3-1.5-0.2c-0.8,0.1-1.9-0.8-2.3,0.3c-0.6,1.6-1,3.2,0.1,4.8
				c0.2,0.2,0.6,0.2,0.9,0.3c2.2,0.6,4.4,1.2,6.5,1.9c1.4,0.5,2.6,1.4,2.9,3c0.1,0.5-0.1,1-0.2,1.6c-0.5-0.1-1,0-1.4-0.2
				c-3.3-1.4-6.7-2.1-10.4-2.2c0,1.5-0.8,3,0.1,4.4c0.3,0.4,0.8,0.7,1.2,0.9c2.3,0.7,4.7,1.3,7,2c1.2,0.4,2.2,1,2.6,2.3
				c0.4,1.2,0,1.6-1.1,1.3c-3-0.6-6-1.3-9-1.9c-0.4-0.1-0.8-0.2-1.3-0.3c0,1.7-0.1,3.3,0,4.9c0.1,1.1,1.1,1.5,2.2,1.6
				c1.9,0.1,3.8,0.3,5.6,0.5c0.9,0.1,1.8,0.5,2.5,1c0.6,0.4,0.9,1.2,1.3,1.8c-0.7,0.3-1.4,1-2.1,1c-1.7,0-3.5-0.3-5.2-0.5
				c-1.3-0.2-2.5-0.4-4.1-0.7c0.2,2.2,0.4,4.3,0.6,6.5c1.3-0.1,2.5-0.3,3.7-0.4c1.7,0,3.4,0,5.1,0.1c0.2,0,0.4,0.1,0.6,0.1
				c0.8,0.3,1.8,0.7,1.8,1.7c0,1-0.9,1.5-1.8,1.6c-1.4,0.3-2.8,0.4-4.2,0.5c-1.5,0.1-2.9,0-4.6,0c0.3,1.4,0.5,2.7,1,3.9
				c0.7,1.7,2,2.7,3.9,2.4c1.8-0.2,3.6-0.4,5.4-0.5c0.7,0,1.5,0.5,2.3,0.7c-0.6,0.6-1,1.3-1.7,1.6c-2.6,1.4-5.4,1.9-8.7,1.3
				c0.6,1.8,1,3.4,1.6,4.9c0.1,0.2,0.9,0.3,1.3,0.2c3.3-0.5,6.5-1.1,9.8-1.7c1.2-0.2,1.3,0.3,1.2,1.2c-0.1,1.2-1,1.8-2,2.3
				c-2.5,1.1-5.1,1.7-7.8,1.7c-0.4,0-0.7,0-1.3,0c0.7,1.5,1.2,2.9,2,4.3c0.2,0.3,1,0.5,1.4,0.4c1.8-0.5,3.6-1.1,5.4-1.7
				c1.2-0.4,2.4-0.8,3.6-1.1c1.4-0.3,2.3,0.7,1.8,2.1c-0.4,1.3-1.5,2-2.7,2.3c-1.8,0.4-3.6,0.6-5.5,0.8c-0.8,0.1-1.7,0-2.9,0
				c1,1.7,1.7,3.4,2.8,4.6c0.6,0.6,2.1,0.8,3,0.6c1.8-0.4,3.5-1.1,5.2-1.7c1-0.4,1.9-1,3-1.4c0.5-0.2,1.3-0.2,1.6,0.1
				c0.4,0.4,0.6,1.2,0.5,1.8c-0.3,1.5-1.5,2.5-2.8,3.1c-2,0.8-4.2,1.4-6.3,2.1c-0.4,0.1-0.8,0.2-1.2,0.2c2,4,4.4,4.6,8,2.3
				c1.3-0.8,2.5-2,3.8-2.9c0.6-0.5,1.4-0.9,2.1-1c1-0.2,1.7,0.4,1.4,1.5c-0.2,0.8-0.7,1.5-1.1,2.2c-1.5,2.1-3.8,3.2-6.1,4
				c-0.8,0.3-1.6,0.5-2.7,0.8c1.4,1.3,2.5,2.8,3.9,3.7c0.7,0.4,2.1,0.1,2.9-0.3c1.4-0.8,2.5-2.1,3.7-3.2c0.6-0.5,1-1.3,1.6-1.7
				c0.4-0.3,1.3-0.5,1.7-0.3c0.4,0.2,0.7,1,0.7,1.5c0,0.7-0.3,1.4-0.7,2c-1.3,2.3-3.3,3.4-5.7,4.2c-0.4,0.1-0.9,0.2-1.6,0.4
				c1.3,1,2.5,1.9,3.7,2.7c0.4,0.2,1.1,0.1,1.7,0c2-0.6,3.1-2.2,4.2-3.7c0.8-1,1.6-2,2.6-2.9c0.3-0.3,1.1-0.4,1.4-0.2
				c0.4,0.3,0.7,0.9,0.7,1.4c0,0.7-0.3,1.4-0.7,2c-1.6,2.6-3.5,4.7-6.7,5.4c3.3,2.6,4.2,2.8,6.8,0c1.1-1.2,1.8-2.7,2.8-4
				c0.7-0.9,1.4-1.8,2.1-2.8c0.1,0,0.3,0,0.4,0.1c0.2,0.5,0.5,1.1,0.6,1.6c0.2,1.8-0.4,3.4-1.5,4.8c-1.2,1.4-2.4,2.9-3.6,4.3
				c1.3,1,2.7,1.1,4.5-0.2c1.9-1.3,3.1-3.1,3.9-5.3c0.3-0.7,0.5-1.6,0.9-2.2c0.4-0.6,1.2-0.9,1.8-1.4c0.3,0.7,0.8,1.4,0.7,2.1
				c-0.1,2.4-1,4.5-2.8,6.1c-1.1,0.9-2.4,1.7-3.5,2.5c1.9,1,3.9,1,5.4-0.8c1.2-1.4,2.3-3,3.3-4.5c0.6-0.9,1.1-2,1.8-2.9
				c0.2-0.3,0.8-0.6,1-0.5c0.3,0.1,0.6,0.6,0.6,1c0.2,2.2-0.3,4.2-1.8,5.8c-1.1,1.2-2.5,2.1-3.7,3.1c2.4,0.8,4.6,0.3,6.3-1.7
				c1.3-1.5,2.1-3.2,2.5-5.1c0.2-1.1,0.7-2.3,1.4-3.1c0.7-1,1.6-0.6,1.8,0.6c0.3,1.8-0.1,3.5-1,4.9c-1.1,1.7-2.5,3.2-3.9,4.9
				c0.8-0.2,1.6-0.3,2.3-0.7c2.6-1.8,4.2-4.4,5-7.4c0.3-1.1,1.1-2,1.7-2.9c0.1-0.2,0.6-0.4,0.9-0.3c0.2,0.1,0.4,0.5,0.4,0.8
				c0.1,1.9-0.2,3.7-1.4,5.1c-1.2,1.5-2.7,2.8-4,4.2c-0.1,0.1-0.3,0.3-0.7,0.7c0.7-0.1,1.1-0.1,1.4-0.3c3.8-2,6.3-5.1,7-9.4
				c0.1-0.7,0.4-1.4,0.8-2.1c0.2-0.3,0.7-0.5,1-0.5c0.2,0,0.6,0.5,0.6,0.8c0,1,0.1,2.1-0.2,3.1c-0.7,2.3-2.1,4.2-3.7,6.1
				c0.7-0.5,1.5-0.8,2.1-1.4c2.1-1.9,3.2-4.3,3.4-7.1c0-0.6,0-1.3,0.3-1.8c0.2-0.4,0.9-0.7,1.3-0.7c0.3,0,0.8,0.6,0.8,1
				c0,1.2-0.2,2.5-0.5,3.7c-0.1,0.6-0.6,1.2-0.9,1.8c0.1,0.1,0.2,0.1,0.3,0.2c0.6-1.1,1.3-2.2,1.7-3.3c0.4-1.2,0.3-2.5,0.6-3.7
				c0.1-0.7,0.4-1.3,0.8-1.9c0.1-0.2,0.7-0.5,0.9-0.4c0.3,0.1,0.5,0.6,0.5,0.9c-0.1,2.6-0.7,5.1-2.4,7.3c-0.7,0.8-1.3,2-1.3,3
				c0,2.9-1.3,4.9-3.5,6.4c-0.9,0.6-1.7,1.2-2.7,1.6c1-1.4,1.5-2.9,1.2-4.6c-1,0-1.6,0.4-1.7,1.5c-0.2,2.2-1.2,4-2.7,5.5
				c-0.5,0.5-1.2,0.7-2,0.8c1.9-1.8,2.5-4,2.3-6.6c-0.7,0.1-1.3,0.3-2,0.4c0.1,2.6-0.2,5.1-2.4,6.8c-0.6,0.5-1.5,0.8-2.3,1
				c2-2.1,2.5-4.5,2.6-7.2c-2.4-0.3-3,0.2-2.8,2.5c0.1,2.5-0.6,4.4-2.7,5.6c-1,0.6-1.6,0.6-2.6,0c2.1-2.1,2.5-4.9,2.6-7.6
				c-2.3-0.5-3.2,0.1-3.4,2.4c-0.2,2-0.8,3.8-2.3,5.2c-1.1,1.1-2.4,1.3-3.4,0.5c0.7-1,1.5-1.9,2-3c0.5-1.4,0.8-2.9,1.1-4.4
				c0.2-0.9-0.3-1.2-1.1-1.2c-2.1-0.2-2.1-0.2-2.4,1.9c-0.4,2.3-1.5,4.3-3.4,5.6c-0.5,0.3-1.2,0.2-1.8,0.3c0.1-0.6,0-1.3,0.3-1.8
				c1.1-1.6,2.5-3,2.7-5.1c0.1-1.1-0.1-1.8-1.3-1.9c0,0-0.1,0-0.1,0c-0.8-0.2-1.7-0.6-2.3-0.4c-0.4,0.2-0.4,1.3-0.6,2.1
				c-0.4,2.1-1.4,4-3.2,5.3c-0.5,0.3-1.2,0.3-1.8,0.4c0.1-0.6-0.1-1.3,0.2-1.8c1.2-1.8,2.1-3.7,2.3-5.9c0.1-1.4-1.7-2.7-3-2.1
				c-0.3,0.2-0.6,0.7-0.7,1.1c-0.2,2.1-0.7,4.2-2.2,5.8c-0.6,0.7-1.7,1.1-2.7,1.4c-0.4,0.1-1.2-0.3-1.5-0.8
				c-0.2-0.3-0.1-1.1,0.2-1.6c0.6-1.1,1.5-2,2.2-3.1c0.4-0.6,0.7-1.1,1-1.8c1.1-3-0.9-5.5-4.1-5.1c-0.5,2-0.9,4-1.5,5.9
				c-0.3,0.8-0.9,1.6-1.6,2.1c-0.4,0.3-1.2,0.4-1.8,0.3c-1.2-0.1-1.7-1.3-1.2-2.3c0.3-0.5,0.6-1,1-1.5c1.4-1.8,2-3.8,2-6.1
				c0-0.4,0.2-0.8,0.3-1.3c-0.7-0.6-1.7-1.4-2.8-2.2c-0.3,0.6-0.5,1-0.7,1.4c-0.9,1.9-1.8,3.8-2.9,5.6c-0.4,0.6-1.3,1.2-2,1.3
				c-0.7,0.1-1.6-0.3-2.1-0.8c-0.3-0.3,0.1-1.4,0.4-1.9c1.5-2.2,3-4.4,3.8-7.1c0.3-1,0.3-1.8-0.7-2.6c-0.8-0.6-1.5-1.3-2.3-2
				c-0.4,0.9-0.7,1.8-1.1,2.7c-0.4,1-0.8,2-1.4,2.8c-0.7,0.8-1.5,1.6-2.4,2.1c-0.6,0.3-1.9,0.3-2.3-0.1c-0.4-0.5-0.3-1.6-0.1-2.4
				c0.1-0.7,0.7-1.2,1.1-1.8c0.8-1.2,1.6-2.4,2.3-3.6c1.6-2.8,1.4-4.1-0.9-6.3c-0.6-0.6-1.2-0.4-1.5,0.5c-0.6,1.9-1.6,3.6-3.2,4.9
				c-0.6,0.5-1.4,1-2.1,1.3c-0.5,0.2-1.4,0.1-1.6-0.2c-0.3-0.4-0.3-1.3-0.1-1.8c0.2-0.6,0.8-1.2,1.2-1.7c1.8-2,3-4.3,3.8-6.9
				c0.2-0.5,0.1-1.2-0.1-1.7c-0.5-1.1-1.1-2.1-1.6-3.1c-0.2-0.3-0.5-0.5-0.7-0.8c-0.3,0.3-0.6,0.5-0.8,0.9c-1.1,1.8-2,3.7-3.2,5.4
				c-0.6,0.9-1.7,1.6-2.8,2c-0.6,0.2-1.7,0-2.1-0.5c-0.3-0.3,0-1.4,0.2-2c0.2-0.6,0.7-1,1.1-1.5c1.9-2.5,3.9-4.9,5.8-7.4
				c0.1-0.1,0.2-0.1,0.2-0.2c-0.6-1.5-1.3-3-1.9-4.5c-0.3,0.2-0.7,0.3-0.9,0.5c-2,1.9-4.1,3.8-6.1,5.6c-0.3,0.3-0.7,0.6-1.1,0.7
				c-0.5,0.1-1.2,0.2-1.4-0.1c-0.3-0.3-0.2-1.1,0-1.5c0.2-0.5,0.8-1,1.2-1.4c2.1-2.2,4.3-4.5,6.4-6.7c0.3-0.3,0.7-0.4,1.1-0.6
				c-0.4-1.5-0.9-3.1-1.4-4.9c-0.7,0.5-1.2,1-1.8,1.5c-1.9,1.4-3.8,2.9-5.7,4.3c-0.8,0.5-1.9,1.2-2.6,0.3c-0.4-0.6-0.1-1.9,0.3-2.8
				c0.4-0.9,1.2-1.7,2-2.4c2-1.8,4-3.6,6-5.4c0.3-0.3,0.5-1,0.5-1.5c-0.1-1-0.3-1.9-0.5-2.8c-0.1-0.5-0.6-0.8-1-1.4
				c-1.5,1.2-2.9,2.4-4.3,3.5c-1.1,0.9-2.3,1.8-3.5,2.6c-0.6,0.4-1.3,0.7-1.9,0.8c-1.2,0.2-1.8-0.7-1.3-1.8c0.3-0.6,0.6-1.2,1.1-1.7
				c2.6-2.5,5.3-5,8-7.5c0.5-0.5,1.3-0.8,2-1.2c-0.1-1.1-0.2-2.3-0.3-3.5c0-0.3-0.6-0.7-0.8-0.6c-0.6,0.1-1.3,0.4-1.8,0.7
				c-2.1,1.3-4.2,2.5-6.3,3.8c-0.7,0.4-1.5,0.8-2,0c-0.3-0.5-0.5-1.6-0.2-2c0.8-1.2,1.7-2.5,2.9-3.2c2.1-1.3,4.5-2.4,6.8-3.4
				c1-0.4,1.4-0.9,1.2-1.9c-0.1-1-0.1-1.9-0.1-2.9c0-0.8-0.3-1.1-1-1c-1,0.2-2,0.5-3,0.9c-2,0.8-3.9,1.8-5.8,2.6
				c-0.5,0.2-1.1,0.3-1.9,0.5c0.6-1.7,0.8-3.3,2.2-4.3c2.9-2.2,6.1-3.8,9.7-4.8c0.1-1.5,0.3-3,0.4-4.8c-4,0.1-7.7,1.1-11.2,3.5
				c-0.4-1.8,0.2-3.1,1.1-3.9c3-2.7,6.5-4.3,10.8-4.7c0.3-1.3,0.6-2.8,0.9-4.5c-4.2,0.5-7.8,1.8-12,3.3c0.5-1.1,0.6-2.1,1.2-2.6
				c1.3-1.2,2.6-2.4,4.2-3.1c2.1-0.8,4.3-1.2,6.5-1.6c0.9-0.2,1.4-0.4,1.7-1.3c0.2-1,0.6-2,1-3.1c-3.9-0.6-7.5,0.3-11,1.9
				c0.5-2.2,1.7-3.5,3.5-4.4c2.5-1.2,5.2-1.4,8-1.4c0.5,0,1.2,0,1.4-0.3c0.5-0.8,0.9-1.7,1.2-2.6c0,0-0.6-0.5-0.9-0.5
				c-3,0.2-6,0.2-8.7,1.5c-0.1,0-0.2,0-0.3,0c0.2-2,1.3-3.2,3-4c2.7-1.2,5.5-1.3,8.4-1.1c0.8,0.1,1.3-0.1,1.7-0.8
				c0.4-0.7,1-1.4,1.5-2c0.5-0.6,0.3-1-0.3-1.1c-2.4-0.7-4.8-1.5-7.3-0.3c-0.7,0.4-1.6,0.5-2.5,0.7c-0.1-0.1-0.2-0.3-0.3-0.4
				c0.5-0.5,0.9-1.1,1.5-1.5c3.4-2.3,7-2.3,10.7-1.1c1,0.3,2.6-0.4,2.7-1.5c0-0.4-0.3-1.1-0.6-1.2c-3-1.2-6-2.4-9.3-0.7
				c-0.3-1.1,0-1.9,1.3-2.5c2.1-1,4.3-1.3,6.5-0.6c1.6,0.5,3.2,1.5,4.8,2.2c0.3,0.1,0.7,0.3,1,0.2c0.9-0.5,1.8-1.2,3-1.9
				c-3.6-1.9-6.7-4.4-11-3c1.3-2.2,4.9-3,7.5-1.6c1.4,0.8,2.8,1.7,4,2.7c0.9,0.8,1.7,1.1,2.7,0.4c0.3-0.2,0.6-0.3,1.2-0.6
				c-2.6-2.8-5.5-4.4-9.2-4.5c1.8-0.9,3.8-1.2,5.6-0.5c1.9,0.8,3.8,2,5.5,3.2c1.2,0.9,2.1,1,3.5-0.3c-2-2.4-4.8-3.3-7.8-3.9
				c0-0.1,0-0.3,0.1-0.4c1.5,0.2,3,0.1,4.4,0.5c1.6,0.6,3.2,1.5,4.6,2.5c1,0.8,1.9,1.4,3.2,0.9c0.3-0.1,0.6-0.1,1-0.1
				c-1.5-2.8-3.8-4.1-6.9-4.5c0.4,0,0.9-0.2,1.3-0.1c2.8,0.3,5.3,1.5,7.4,3.4c1.2,1.1,1.1,1.1,3,0.9c-1.1-2.2-3.1-2.9-5.1-4
				c0.6,0.1,1.2,0.1,1.7,0.2C1462-40.9,1462.5-40.8,1463.1-40.7c0.9,0.7,2.1,1.3,2.6,2.3c0.9,1.7,2.4,1.6,4.2,1.7
				C1468-39,1465.8-40.3,1463.1-40.7z"/>
			<path class="st7" d="M1341.1-6.3c-0.7,1.2-1.4,2.3-1.9,3.3c-0.2-2.3,1.4-5.7,4.1-7.5c1.4-0.9,1.9-2,2.1-3.5
				c0.6-3.9,3.3-6.3,7.2-6.8c0.2,0,0.5,0,0.8,0.2c-1.6,0.9-3.2,1.9-4.8,2.8c0.1,0.1,0.1,0.1,0.2,0.2c1.2,0,2.4,0,3.5,0
				c0.1,0.2,0.1,0.3,0.2,0.5c-0.6,0.5-1.2,1.1-1.9,1.5c-1.1,0.7-2.2,1.2-3.2,1.9c-2.1,1.6-3,3.7-2.7,6.3c1.1-4,3.2-7,7.7-7.5
				c0.1,0.1,0.2,0.2,0.4,0.3c-0.7,0.8-1.3,1.6-2.1,2.4c-0.6,0.6-1.3,1.1-2,1.5c-2.6,1.6-3.4,4.2-3.8,6.8c0.8-1.1,1.5-2.5,2.6-3.4
				c1.1-1,2.5-1.5,4-2.3c0.5,1.5-0.4,2.1-1.1,2.7c-1.1,0.9-2.3,1.7-3.3,2.7c-1.2,1.2-2,2.8-2.1,4.9c0.4-0.5,0.6-0.7,0.8-0.9
				c1.2-1.5,2.8-2.4,4.6-2.8c0.5-0.1,1,0.2,1.5,0.2c-0.3,0.5-0.5,1-0.9,1.4c-1.1,0.9-2.3,1.6-3.4,2.4c-1.8,1.4-3,3-2.3,5.5
				c0.2,0.7,0.1,1.4,0.2,2.4c0.5-0.6,0.7-1,1-1.4c1.1-1.5,2.4-2.7,4.3-3c0.5-0.1,1.1,0.4,1.6,0.6c-0.2,0.4-0.4,1-0.7,1.3
				c-0.6,0.6-1.4,1.1-2.1,1.6c-3,2.3-4.9,5.1-3.4,9.2c0.1-0.2,0.3-0.5,0.5-0.8c1-1.2,2-2.4,3-3.5c0.3-0.4,0.9-0.6,1.4-0.7
				c0.6,0,1.5,0.2,1.6,0.5c0.2,0.5,0,1.3-0.3,1.8c-0.4,0.6-1.1,1.1-1.8,1.5c-3.8,2.3-4.9,5.7-4,9.9c0.2-0.3,0.4-0.5,0.6-0.7
				c1.5-2.3,3.7-3.6,6.3-4.2c0.5-0.1,1.1,0.2,1.7,0.3c-0.2,0.6-0.3,1.4-0.8,1.8c-1.1,0.9-2.4,1.6-3.6,2.4c-0.7,0.5-1.4,0.9-2,1.5
				c-1.5,1.4-2.3,3.2-2,5.3c0.1,0.9,0.1,1.7,0.2,2.8c0.8-0.7,1.3-1.5,2.1-1.9c1.4-0.8,2.9-1.3,4.5-1.9c0.4-0.1,1.2,0.1,1.3,0.4
				c0.2,0.4,0.1,1.2-0.2,1.5c-1,1-2.1,1.9-3.2,2.7c-0.9,0.7-2,1.3-2.8,2c-1.1,0.9-1.6,2.1-1.4,3.6c0.2,1.2,0.2,2.5,0.3,3.9
				c0.7-0.6,1.2-1.2,1.7-1.7c1.4-1.3,3-2.2,4.9-2.2c0.6,0,1.1,0.4,1.7,0.6c-0.2,0.6-0.3,1.3-0.7,1.7c-0.8,0.8-1.7,1.4-2.6,2
				c-0.4,0.3-0.8,0.5-1.3,0.8c-3.3,2.3-4.1,5.1-2.8,9c0.7-0.7,1.2-1.5,2-1.9c1.1-0.7,2.3-1.2,3.5-1.6c0.5-0.2,1.4,0,1.7,0.4
				c0.2,0.3,0,1.3-0.3,1.7c-0.8,0.9-1.7,1.6-2.6,2.4c-1,0.8-2,1.5-3,2.3c-0.7,0.5-1,1.2-0.8,2.1c0.2,1.1,0.3,2.3,0.5,3.5
				c1.4-0.8,2.6-1.6,4-2.2c1-0.4,2.1-0.5,3.2-0.4c1,0.1,1.3,0.9,0.7,1.8c-0.6,0.8-1.4,1.4-2.2,2.1c-1.4,1.1-2.9,2.1-4.2,3.2
				c-0.4,0.3-0.7,1.1-0.6,1.6c0.1,1.3,0.4,2.5,0.6,3.9c1.3-0.6,2.4-1.2,3.6-1.6c1-0.3,2-0.6,3-0.7c1.3-0.1,1.9,0.8,1.1,1.8
				c-0.9,1.2-2.1,2.2-3.3,3.2c-0.7,0.6-1.6,1-2.5,1.4c-0.9,0.4-1.2,0.9-0.9,2c0.4,1.2,0.5,2.5,0.8,4c0.5-0.4,0.8-0.7,1.2-0.9
				c1.5-0.7,2.9-1.4,4.4-2c0.5-0.2,1.4-0.1,1.7,0.3c0.3,0.4,0.2,1.3-0.1,1.7c-0.9,1.1-1.9,2.2-3,3.1c-0.9,0.7-2.1,1.2-3.3,1.9
				c0.2,0.8,0.3,1.7,0.6,2.5c0.1,0.3,0.8,0.7,1.2,0.6c1.4-0.2,2.8-0.6,4.1-0.9c0.4-0.1,1.1-0.3,1.3-0.1c0.3,0.4,0.5,1,0.4,1.5
				c-0.2,1.3-1.1,2.1-2.3,2.5c-1.1,0.4-2.2,0.6-3.6,0.9c0.3,0.9,0.4,1.9,0.8,2.7c0.2,0.4,1.1,0.6,1.7,0.6c1.4,0,2.8-0.1,4.1-0.2
				c1-0.1,1.7,0.3,2.1,1.6c-2.4-0.1-4.2,2.5-6.9,1.2c0.5,3.4,2.6,4.3,4.9,4.5c1,0.1,1.9,0,2.9,0.1c0.3,0,0.6,0.3,0.9,0.4
				c-0.2,0.3-0.3,0.8-0.6,0.9c-1.8,0.8-3.7,1.1-5.6,0.5c0.7,0.7,1.4,1.4,2.1,2c1.4,1.2,3,1.9,5,1.5c0.4-0.1,0.9,0,1.2,0.1
				c0.3,0.2,0.7,0.5,0.8,0.9c0,0.2-0.4,0.6-0.7,0.7c-1.4,0.4-2.8,0.7-3.7,0.9c0.5,0.4,1.4,1.1,2.4,1.8c0.3,0.2,0.8,0.3,1.2,0.4
				c0.8,0.2,1.5,0.3,2.5,0.4c-1.1,1.3-2.4,0.9-3.6,1c0,0.1-0.1,0.2-0.1,0.3c1.3,0.5,2.6,0.9,3.9,1.4c0.5,0.1,1,0.1,1.5,0.2
				c0.4,0.1,0.8,0.4,1.2,0.6c-0.3,0.3-0.6,0.7-1,1.1c0.8,0.2,1.7,0.4,2.6,0.6c0.3,0.1,0.6,0.4,0.9,0.7c-0.4,0.2-0.8,0.7-1.1,0.6
				c-1.7-0.6-3.4-1.2-5.1-1.9c-0.9-0.4-1.7-1-2.6-1.5c-0.7-0.4-1.3-0.9-1.9-1.4c-0.9-0.7-1.5-1.6-2.7-2.2c-1.9-1-3.3-2.8-4.9-4.3
				c-0.3-0.3-0.6-0.7-0.9-1c-1.4-1.3-3.9-5.5-4.3-7.5c1.7,1.9,3,3.9,5.7,4.2c-0.4-1.7-0.9-2.9-2.8-3.3c-3-0.8-4.8-3-5-6.1
				c1.6,2.2,2.8,4.8,6.1,4.7c-0.3-2.3-1.7-3.9-3.8-4.3c-3.1-0.6-4.7-2.7-4-5.8c1.2,2.8,3.1,4.2,6.3,4.1c-0.4-0.7-0.7-1.2-1-1.8
				c-0.8-1.9-2.6-2.3-4.3-3c-2.7-1-3.9-3.6-3-6.4c1.4,2.7,3.7,3.7,6.3,4.4c0-2.3-1-3.6-3.1-4.1c-3.3-0.7-5.2-2.9-5.2-6
				c1.1,0.9,2,1.9,3.2,2.7c1.1,0.7,2.4,1.2,3.7,1.8c0.1-0.1,0.2-0.2,0.4-0.3c-0.5-2.4-1-4.8-1.5-7.2c-5-0.4-6.8-2-7-6.5
				c1.9,2.2,4.1,3.6,6.8,4.5c-0.3-1.6-0.5-2.9-0.7-4.3c-0.1-0.4-0.3-0.8-0.3-1.2c-0.2-1.4-0.6-1.9-2.1-1.8c-3.6,0-5.3-2.1-4.5-5.7
				c1.7,1.9,3.7,2.7,6.1,3.2c-0.1-2-0.2-3.8-1.4-5.4c-0.3-0.4-0.8-0.7-1.3-0.9c-0.4-0.2-0.9-0.3-1.3-0.4c-2.3-0.7-3-2.3-2.1-4.6
				c1.6,0.7,3.3,1.4,5.2,2.1c-0.2-2.1-0.2-3.9-0.5-5.6c-0.1-0.4-0.8-0.9-1.4-1.1c-1-0.3-2-0.3-3-0.4c-1.4-0.1-2.1-0.7-2.1-1.7
				c0.1-1.2,0.9-2,2.3-2c0.6,0,1.2,0.1,1.9,0.2c0.6,0.1,1.2,0.2,2,0.3c-0.1-1.6,0-3.2-0.4-4.6c-0.1-0.5-1.3-0.9-2-1.1
				c-0.7-0.2-1.4,0-2.1,0c-1.4,0-2.3-0.7-2.3-1.8c0-1.2,1.1-2.5,2.3-2.5c1.2,0,2.5,0.3,3.9,0.4c-0.1-1.7-0.1-3.3-0.3-5
				c0-0.3-0.8-0.7-1.2-0.6c-0.9,0.2-1.7,0.8-2.6,1c-0.7,0.2-1.8,0.2-2-0.1c-0.4-0.5-0.3-1.5-0.1-2.2c0.6-1.4,1.9-1.9,3.2-2.1
				c0.7-0.1,1.5-0.1,2.3-0.2c0-1.1,0.1-2.1,0-3.2c0-0.3-0.5-0.7-0.8-0.8c-1.8-0.8-3.8,0-5,1.9c-1.2-2.5-0.3-4.7,2.3-5.4
				c0.6-0.2,1.2-0.3,1.7-0.3c1.5,0.2,1.7-0.6,1.4-1.8c-0.2-0.8-0.1-2-0.6-2.3c-1.1-0.7-3.7,0-4.5,1c-0.2,0.3-0.4,0.6-0.7,0.9
				c-1.2-2.7,0.1-5,3-5.5c2.5-0.4,2.5-0.4,2.3-2.9c0-0.4-0.1-0.9-0.1-1.5c-2.8,0.4-4.7,1.6-5.5,4.4c-0.9-3.2,2.1-7.2,5.3-7
				c0-1,0-1.9,0-3c-2.2,0.5-4,1.5-4.9,3.7c-0.6-2.6,0.7-4.9,3-5.5c1.9-0.5,1.9-0.5,1.6-2.9c-2.7,0.7-4.1,2.6-5.1,4.9
				c-0.1,0-0.2-0.1-0.3-0.1c0.7-2.3,1.4-4.7,2.1-7C1340.9-5.6,1341-6,1341.1-6.3c1.1-1,2.5-1.8,3.2-3.3c-0.1-0.1-0.3-0.2-0.4-0.3
				C1343-8.7,1342.1-7.5,1341.1-6.3z"/>
		</g>
		<g class="st1">
			<polygon class="st4" points="1049.4,29.7 1085.7,79.8 1079.3,97.7 1063.2,92.2 1041.5,33.9 			"/>
			<g>
				<polygon class="st8" points="1080,72.1 1061.8,88.1 1063.6,93 1068.6,94.7 1085.6,79.7 				"/>
				<polygon class="st8" points="1057.5,41.1 1052,33.4 1044,40.4 1047.5,49.9 				"/>
				<polygon class="st8" points="1076.2,66.9 1070.7,59.2 1055.9,72.2 1059.4,81.7 				"/>
				<polygon class="st8" points="1066.9,54 1061.3,46.3 1049.9,56.3 1053.5,65.8 				"/>
				<polygon class="st8" points="1075.6,97.1 1079.7,98.5 1082.3,91.2 				"/>
			</g>
			<g>
				<polygon class="st4" points="1039.9,34.7 1039.9,71.1 1045.5,79.8 1050.3,72.4 1046.8,54.9 				"/>
				<g>
					<polygon class="st8" points="1039.9,56.7 1039.9,67.6 1048.4,63.1 1046.8,54.9 1046.3,53.4 					"/>
					<polygon class="st8" points="1039.9,37.6 1039.9,48.5 1043.9,46.4 1040.8,37.2 					"/>
					<polygon class="st8" points="1042.2,74.6 1045.5,79.8 1050.3,72.4 1049.9,70.5 					"/>
				</g>
			</g>
			<g>
				<path class="st4" d="M1031.1,26.3c1,2.2,5.4,5.6,7.8,5.6c2.8,0,8.4-2.8,9.8-5.2c1.2-2.1,0-7.5-1.2-9.6c-0.6-1-2.7-2.6-3.9-2.8
					c-3.5-0.4-10.2,4.4-12.1,7.4C1031,22.7,1030.6,25.3,1031.1,26.3z"/>
				<path class="st8" d="M1048.6,19.6c-0.3-1-0.7-1.9-1-2.5c-0.5-0.8-1.9-2-3.1-2.5l-12.5,13c1.2,1.5,3.4,3.1,5.2,3.9L1048.6,19.6z"
					/>
			</g>
			<g>
				<path class="st4" d="M1044.5,9.5c0.1,0.6,0.6,2.3,1.2,2.3c4.1,0.1,6.7-11,6.5-15.1c-0.1-1.9-2.1-5.7-3.6-6.8
					c-4.6-3.3-16.3-5.3-22-5.8c-3-0.2-9.5,0.9-11.4,3.2c-4,4.7-3.6,18.3-3,24.4c0.1,1.5-0.3,4.8,0.7,5.9c2.4,2.7,10.8,5.3,14.1,3.7
					c0.6-0.3,1.5-1.6,1.3-2.1c-1.1-2.6-8.8-1.8-10.5-4.1c-0.7-1,0-3.6-0.1-4.8c-0.4-4.4-2.1-14,0.3-17.6c1.4-2,6.6-3.6,9.1-3.9
					c3.8-0.3,11.4,2.5,14.3,5c1.5,1.3,3.2,4.9,3.6,6.8C1045.5,2.7,1044.1,7.3,1044.5,9.5z"/>
				<g>
					<path class="st8" d="M1017.8,15c-0.7-1,0-3.6-0.1-4.8c-0.1-0.6-0.1-1.4-0.2-2.2l-5.3,5.4c0,1.5,0,3.3,0.7,4.1
						c1.2,1.4,3.9,2.7,6.7,3.5l3.9-4.1C1021.2,16.6,1018.6,16.2,1017.8,15z"/>
					<path class="st8" d="M1016.8-3.7c0.2-1.5,0.5-2.8,1.2-3.8c0.9-1.3,3.2-2.4,5.5-3.1l5-5.2c-0.7-0.1-1.3-0.1-1.9-0.2
						c-3-0.2-9.5,0.9-11.4,3.2c-2.4,2.7-3.2,8.6-3.3,14.2L1016.8-3.7z"/>
					<path class="st8" d="M1041.4-6.3c0.7,0.6,1.4,1.6,2,2.8l5.8-6c-0.2-0.2-0.4-0.4-0.6-0.6c-2.2-1.6-5.9-2.9-9.9-3.8l-4,4.1
						C1037.4-8.8,1040-7.5,1041.4-6.3z"/>
					<path class="st8" d="M1045.7,11.8c3.3,0.1,5.6-7,6.3-11.9l-7.5,7.8c-0.1,0.7-0.1,1.3,0,1.9
						C1044.6,10.1,1045.1,11.8,1045.7,11.8z"/>
				</g>
			</g>
		</g>
		<g class="st1">
			<path class="st9" d="M1215.1,69.5l-7,1c-8.2,1.2-17.3-14.1-18.5-21.9v0c-1.1-7.7,3.3-23.8,11.5-25.1l7-1
				c8.2-1.2,17.2,12.9,18.3,20.6v0C1227.6,50.9,1223.3,68.3,1215.1,69.5z"/>
			<g>
				<path class="st4" d="M1121.7,85.4l70.6-21.2c-4.3-2.3-7.5-6.6-8.3-11.8l-1.2-8c-0.7-4.6,0.7-9.1,3.4-12.4l-9.8-0.3
					c-15.1,0.7-29.6,0.2-43-1.4l-19.9-0.7c-4.7,0.7-11.6,8.9-8.3,31.1C1107.8,78.8,1116.9,86.1,1121.7,85.4z"/>
				<g>
					<path class="st9" d="M1166.9,71.8l10.1-3l-21.4-36.9c-4.1-0.1-8.2-0.3-12.2-0.6L1166.9,71.8z"/>
					<path class="st9" d="M1190,62.7c-3.2-2.5-5.5-6.1-6.1-10.3l0-0.3l-11.8-20.3c-4,0.1-7.9,0.2-11.7,0.1l20.6,35.6l10.1-3
						L1190,62.7z"/>
					<path class="st9" d="M1182.6,41.8c0.1-3.6,1.4-7.1,3.6-9.8l-9.4-0.3L1182.6,41.8z"/>
					<path class="st9" d="M1138.8,80.2l10.1-3l-27.4-47.3l-8-0.3c-1,0.1-2,0.6-3.1,1.5L1138.8,80.2z"/>
					<path class="st9" d="M1104.8,58.1c0.1,0.9,0.2,1.7,0.3,2.6c2.5,16.8,10.6,24.3,15.5,24.7L1104.8,58.1z"/>
					<path class="st9" d="M1107.6,34.4c-1.8,3.1-3.2,7.8-3.3,14.7l20.5,35.4l10.1-3L1107.6,34.4z"/>
					<path class="st9" d="M1152.9,76l10.1-3l-24.4-42.2c-1.7-0.2-3.5-0.3-5.2-0.5l-7.1-0.2L1152.9,76z"/>
				</g>
			</g>
			<g>
				<path class="st4" d="M1301.3,58.8l-73.7,0.2c3.5-3.5,5.3-8.5,4.5-13.7l-1.2-8c-0.7-4.6-3.3-8.5-6.9-10.9l9.3-3.1
					c14.7-3.7,28.4-8.4,40.8-13.8l18.9-6.4c4.7-0.7,13.7,5.2,17,27.3C1312.7,48.4,1306.1,58.1,1301.3,58.8z"/>
				<g>
					<path class="st9" d="M1254.1,58.9l-10.5,0l9.8-41.5c3.9-1.3,7.7-2.7,11.5-4.1L1254.1,58.9z"/>
					<path class="st9" d="M1229.4,56.9c2.3-3.3,3.5-7.4,2.8-11.6l0-0.3l5.4-22.9c3.8-1,7.6-2.1,11.3-3.3l-9.4,40.1l-10.5,0
						L1229.4,56.9z"/>
					<path class="st9" d="M1230.4,34.8c-1.1-3.5-3.4-6.4-6.2-8.3l8.9-3L1230.4,34.8z"/>
					<path class="st9" d="M1283.5,58.8l-10.5,0l12.5-53.2l7.6-2.6c1-0.1,2.1,0,3.4,0.5L1283.5,58.8z"/>
					<path class="st9" d="M1309.6,27.8c0.2,0.9,0.3,1.7,0.4,2.6c2.5,16.8-3.1,26.3-7.7,28.1L1309.6,27.8z"/>
					<path class="st9" d="M1300.1,5.9c2.6,2.4,5.3,6.6,7.4,13.1l-9.4,39.8l-10.5,0L1300.1,5.9z"/>
					<path class="st9" d="M1268.8,58.9l-10.5,0l11.2-47.5c1.6-0.7,3.2-1.3,4.8-2l6.7-2.3L1268.8,58.9z"/>
				</g>
			</g>
			<g>
				<path class="st4" d="M1220.8,30.6l-31.3,14.7c0,1.2,0,2.3,0.2,3.3v0c0.1,0.5,0.2,1,0.3,1.5l33.3-15.6
					C1222.5,33.2,1221.7,31.9,1220.8,30.6z"/>
				<path class="st4" d="M1212.6,23.3c-1.5-0.6-3-0.9-4.5-0.7l-7,1c0,0,0,0,0,0l-3.7,1.7c-2.1,1.7-3.9,4.4-5.2,7.5L1212.6,23.3z"/>
				<path class="st4" d="M1226.4,49.3c0.2-1.9,0.2-3.6,0.1-5.1l-32.6,15.3c0.8,1.3,1.7,2.6,2.6,3.8L1226.4,49.3z"/>
				<path class="st4" d="M1215.1,69.5c3.2-0.5,5.8-3.4,7.7-7.2l-17.3,8.1c0.9,0.2,1.8,0.3,2.6,0.2L1215.1,69.5z"/>
			</g>
		</g>
		<g class="st1">
			<path d="M327.6,74.3c-0.4-2.7-2.4-2.1-3.6-2.9c-0.1,0.1-0.2,0.2-0.2,0.4C325,72.6,326.1,73.3,327.6,74.3z"/>
			<path class="st7" d="M198.3,162.7c0,0-6.4-130.3,126.7-192.6c0,0,87.8-45.3,181.2,20.5c0,0,29.7,100.5-60.9,187.6
				c0,0-124.6,100.5-242.1,0L198.3,162.7z"/>
			<path class="st10" d="M304.5,135.7c-19.7-38.1-41.5-71.8-63.1-98.7c-11.5,15.2-19.9,30.7-26,45.4c15.8,22.3,31.5,47.9,45.9,75.9
				c10.9,21.1,20.3,42,28.1,62.1c18.1,3.2,35.6,3.2,51.9,1.2C332.1,194.5,319.8,165.3,304.5,135.7z"/>
			<path class="st10" d="M479.4,137.3c18.2-29.3,23-46,27.6-65.8c-5-51.7-23.3-86.1-48.8-106.2c-21.2-8.1-41.5-9.4-59.5-9.9
				c48.3,20.7,85.2,75,85.2,135.6C483.8,105.9,483.2,123.7,479.4,137.3z"/>
			<path class="st11" d="M489.3,120.3c-76.8,49.5-163.6,69.2-206.5,67.8c-37-1.2-63-10-73.1-14.1c-0.1-1.4-0.1-3.1-0.1-4.4
				c8.6-11.9,31.7-41.9,69.3-74.4C323.4,56.7,399.5,6.5,501.3-12.1l-3.7-2.5c-45.4,8.3-87.8,22-128.9,43.4
				C335.9,46,304.7,67.2,276,92c-39.6,34.2-63.4,65.8-71.1,76.7c-3.1-1.1-6.6-5.9-6.6-5.9c-0.1,3,0.2,5.4,0.8,7.4
				c2,8.2,8.4,11.7,8.4,11.7l0.7-3.3c0.1,0-0.5-0.7-0.5-0.7c10.2,4.2,36.5,13.2,74.6,14.5c3,0.1,6,0.2,9,0.2
				c25.8,0,52.1-3.7,78.3-11c36.6-10.2,78.3-27.3,113.9-51.3C484.7,128.3,491.1,119.1,489.3,120.3z"/>
			<path d="M328.6,87c-2.3,0-4.3-1.6-4.8-3.8c-0.9-4.1-2.3-7.8-3.9-11.2c-5.4,3.9-8.3,6.2-8.4,6.2c-1.4,1.1-3.1,1.7-4.8,1.7
				c-2.4,0-4.6-1.1-6.1-2.9c-2.7-3.4-2.1-8.3,1.2-10.9c0.6-0.5,3.4-2.7,8.3-6.3c-4.3-3.3-7.9-4-7.9-4c-1.3-0.2-2.4-1-3.2-2.1
				c-0.8-1.1-1-2.4-0.8-3.7c0.4-2.3,2.5-4.1,4.9-4.1c0.3,0,0.6,0,0.9,0.1c0.8,0.1,7.4,1.5,14.5,7.8c2.7-1.9,5.6-3.8,8.4-5.7
				c-4.5-3.6-8.4-4.4-8.4-4.4c-1.3-0.2-2.4-1-3.2-2.1c-0.8-1.1-1-2.4-0.8-3.7c0.4-2.3,2.5-4.1,4.9-4.1c0.3,0,0.6,0,0.9,0.1
				c0.8,0.2,7.9,1.6,15.3,8.5c2.8-1.8,5.6-3.5,8.5-5.2c-3.9-2.8-7.1-3.4-7.1-3.4c-1.3-0.2-2.4-1-3.2-2.1c-0.8-1.1-1-2.4-0.8-3.7
				c0.4-2.3,2.5-4.1,4.9-4.1c0.3,0,0.6,0,0.9,0.1c0.8,0.1,7.4,1.5,14.5,7.8c2.7-1.5,5.4-3.1,8.1-4.6c-3.4-2.1-5.9-2.7-6-2.7
				c-1.3-0.2-2.4-1-3.2-2.1c-0.8-1.1-1-2.4-0.8-3.7c0.4-2.3,2.5-4.1,4.9-4.1c0.3,0,0.6,0,0.9,0.1c0.7,0.1,7,1.4,13.8,7.2
				c2.9-1.5,5.7-3,8.6-4.4c-3.7-2.4-6.5-3-6.5-3c-1.3-0.2-2.4-1-3.2-2.1c-0.8-1.1-1-2.4-0.8-3.7c0.4-2.3,2.5-4.1,4.9-4.1
				c0.3,0,0.6,0,0.9,0.1c0.8,0.1,7.5,1.5,14.7,8c3.5-1.6,6.9-3.1,10.3-4.6c-3.5-2.3-6.3-2.9-6.3-2.9c-1.3-0.2-2.4-1-3.2-2.1
				c-0.8-1.1-1-2.4-0.8-3.7c0.4-2.3,2.5-4.1,4.9-4.1c0.3,0,0.6,0,0.9,0.1c0.8,0.1,7.7,1.6,15,8.3c2.8-1.1,5.5-2.1,8.2-3.1
				c-2.7-1.4-4.5-1.8-4.6-1.8c-1.3-0.2-2.4-1-3.2-2.1c-0.8-1.1-1-2.4-0.8-3.7c0.4-2.3,2.5-4.1,4.9-4.1c0.3,0,0.6,0,0.9,0.1
				c0.7,0.1,7.3,1.5,14.3,7.6c2.8-0.9,5.5-1.7,8.1-2.5c0.7-0.2,1.4-0.3,2.2-0.3c3.5,0,6.5,2.3,7.5,5.6c1.2,4.1-1.2,8.4-5.3,9.6
				c-0.8,0.2-1.6,0.5-2.3,0.7c2.2,4.2,3.8,8.9,5,14.1c0.6,2.7-1.1,5.3-3.7,5.9c-0.4,0.1-0.7,0.1-1.1,0.1c-2.3,0-4.3-1.6-4.8-3.8
				c-1.1-5-2.8-9.4-5-13.2c-3.5,1.2-7.1,2.5-10.7,3.8c2,4.1,3.6,8.6,4.8,13.6c0.6,2.7-1.1,5.3-3.7,5.9c-0.4,0.1-0.7,0.1-1.1,0.1
				c-2.3,0-4.3-1.6-4.8-3.8c-1-4.5-2.5-8.6-4.4-12.1c-3.8,1.6-7.7,3.2-11.5,5c2.2,4.2,3.9,9,5.1,14.1c0.6,2.7-1.1,5.3-3.7,5.9
				c-0.4,0.1-0.7,0.1-1.1,0.1c-2.3,0-4.3-1.6-4.8-3.8c-1-4.5-2.5-8.6-4.4-12.1c-3.1,1.5-6.2,3-9.3,4.6c2.4,4.5,4.3,9.6,5.6,15.2
				c0.6,2.7-1.1,5.3-3.7,5.9c-0.4,0.1-0.7,0.1-1.1,0.1c-2.3,0-4.3-1.6-4.8-3.8c-1.1-4.8-2.7-9.1-4.8-12.8c-3.1,1.7-6.2,3.4-9.3,5.2
				c2.3,4.3,4.1,9.2,5.3,14.6c0.6,2.7-1.1,5.3-3.7,5.9c-0.4,0.1-0.7,0.1-1.1,0.1c-2.3,0-4.3-1.6-4.8-3.8c-1-4.4-2.4-8.3-4.2-11.8
				c-3.1,1.9-6.3,3.8-9.4,5.8c2.1,4.1,3.7,8.7,4.9,13.7c0.6,2.7-1.1,5.3-3.7,5.9c-0.4,0.1-0.7,0.1-1.1,0.1c-2.3,0-4.3-1.6-4.8-3.8
				c-0.9-3.8-2.1-7.4-3.6-10.6c-2.8,1.9-5.7,3.8-8.4,5.6c2.3,4.4,4.1,9.3,5.4,14.7c0.6,2.7-1.1,5.3-3.7,5.9
				C329.3,87,328.9,87,328.6,87z"/>
			<path class="st5" d="M445.8-0.4c-1-3.4-4.5-5.3-7.9-4.4c-3,0.9-5.9,1.8-8.9,2.7c-7-6.4-13.7-7.8-14.2-7.8
				c-1.9-0.4-3.8,0.9-4.1,2.8c-0.4,1.9,0.9,3.8,2.8,4.1c0.1,0,3.4,0.7,7.5,3.6c-4,1.4-7.9,2.9-11.8,4.4c-7.3-7-14.5-8.5-15-8.6
				c-1.9-0.4-3.8,0.9-4.1,2.8c-0.4,1.9,0.9,3.8,2.8,4.1c0.1,0,4.1,0.8,8.9,4.6c-4.6,1.9-9.1,3.9-13.5,5.9
				c-7.2-6.8-14.2-8.2-14.7-8.3c-1.9-0.4-3.8,0.9-4.1,2.8c-0.4,1.9,0.9,3.8,2.8,4.1c0.1,0,4.2,0.8,9,4.7c-3.9,1.9-7.8,3.9-11.5,5.8
				c-6.9-6.1-13.4-7.4-13.9-7.5c-1.9-0.4-3.8,0.9-4.1,2.8c-0.4,1.9,0.9,3.8,2.8,4.1c0.1,0,3.8,0.8,8.4,4.2c-3.8,2.1-7.5,4.1-11,6.2
				c-7.1-6.6-14-8-14.5-8.1c-1.9-0.4-3.8,0.9-4.1,2.8c-0.4,1.9,0.9,3.8,2.8,4.1c0.1,0,4.4,0.9,9.4,5c-3.9,2.4-7.7,4.7-11.2,6.9
				c-7.4-7.3-14.8-8.8-15.3-8.9c-1.9-0.4-3.8,0.9-4.1,2.8c-0.4,1.9,0.9,3.8,2.8,4.1c0.1,0,5,1,10.5,5.9c-4,2.7-7.7,5.1-10.9,7.4
				c-7.1-6.7-14.1-8.1-14.6-8.2c-1.9-0.4-3.8,0.9-4.1,2.8c-0.4,1.9,0.9,3.8,2.8,4.1c0.1,0,4.7,1,10,5.5c-5.8,4.2-9.2,6.9-9.7,7.3
				c-2.8,2.2-3.2,6.2-1,9c1.3,1.6,3.1,2.4,5,2.4c1.4,0,2.8-0.5,4-1.4c0.1-0.1,3.6-2.9,9.8-7.2c1.9,3.5,3.6,7.8,4.8,13
				c0.4,1.6,1.8,2.7,3.4,2.7c0.3,0,0.5,0,0.8-0.1c1.9-0.4,3.1-2.3,2.7-4.2c-1.4-6.2-3.5-11.3-5.8-15.5c3.2-2.2,6.8-4.6,10.8-7.3
				c1.8,3.4,3.3,7.4,4.4,12.3c0.4,1.6,1.8,2.7,3.4,2.7c0.3,0,0.5,0,0.8-0.1c1.9-0.4,3.1-2.3,2.7-4.2c-1.3-5.8-3.2-10.6-5.3-14.5
				c3.7-2.3,7.6-4.8,11.8-7.2c2,3.6,3.8,8,5,13.5c0.4,1.6,1.8,2.7,3.4,2.7c0.3,0,0.5,0,0.8-0.1c1.9-0.4,3.1-2.3,2.7-4.2
				c-1.4-6.2-3.5-11.3-5.8-15.5c3.8-2.2,7.7-4.4,11.7-6.5c2.2,3.7,4.2,8.5,5.6,14.4c0.4,1.6,1.8,2.7,3.4,2.7c0.3,0,0.5,0,0.8-0.1
				c1.9-0.4,3.1-2.3,2.7-4.2c-1.5-6.5-3.7-11.8-6.2-16.1c3.8-2,7.8-4,11.8-5.9c2.1,3.6,3.9,8.1,5.2,13.7c0.4,1.6,1.8,2.7,3.4,2.7
				c0.3,0,0.5,0,0.8-0.1c1.9-0.4,3.1-2.3,2.7-4.2c-1.4-6-3.4-11-5.6-15.1c4.6-2.1,9.3-4.2,14.1-6.1c2,3.6,3.9,8.1,5.1,13.6
				c0.4,1.6,1.8,2.7,3.4,2.7c0.3,0,0.5,0,0.8-0.1c1.9-0.4,3.1-2.3,2.7-4.2c-1.3-5.8-3.2-10.6-5.4-14.7c4.4-1.7,8.8-3.3,13.3-4.8
				c2.3,3.8,4.3,8.6,5.7,14.6c0.4,1.6,1.8,2.7,3.4,2.7c0.3,0,0.5,0,0.8-0.1c1.9-0.4,3.1-2.3,2.7-4.2c-1.4-6.1-3.4-11.1-5.7-15.2
				c1.3-0.4,2.7-0.8,4-1.2C444.9,6.5,446.8,3,445.8-0.4z"/>
			<path class="st5" d="M445.8-0.4c-1-3.4-4.5-5.3-7.9-4.4c-3,0.9-5.9,1.8-8.9,2.7c-7-6.4-13.7-7.8-14.2-7.8
				c-1.9-0.4-3.8,0.9-4.1,2.8c-0.4,1.9,0.9,3.8,2.8,4.1c0.1,0,3.4,0.7,7.5,3.6c-4,1.4-7.9,2.9-11.8,4.4c-7.3-7-14.5-8.5-15-8.6
				c-1.9-0.4-3.8,0.9-4.1,2.8c-0.4,1.9,0.9,3.8,2.8,4.1c0.1,0,4.1,0.8,8.9,4.6c-4.6,1.9-9.1,3.9-13.5,5.9
				c-7.2-6.8-14.2-8.2-14.7-8.3c-1.9-0.4-3.8,0.9-4.1,2.8c-0.4,1.9,0.9,3.8,2.8,4.1c0.1,0,4.2,0.8,9,4.7c-3.9,1.9-7.8,3.9-11.5,5.8
				c-6.9-6.1-13.4-7.4-13.9-7.5c-1.9-0.4-3.8,0.9-4.1,2.8c-0.4,1.9,0.9,3.8,2.8,4.1c0.1,0,3.8,0.8,8.4,4.2c-3.8,2.1-7.5,4.1-11,6.2
				c-7.1-6.6-14-8-14.5-8.1c-1.9-0.4-3.8,0.9-4.1,2.8c-0.4,1.9,0.9,3.8,2.8,4.1c0.1,0,4.4,0.9,9.4,5c-3.9,2.4-7.7,4.7-11.2,6.9
				c-7.4-7.3-14.8-8.8-15.3-8.9c-1.9-0.4-3.8,0.9-4.1,2.8c-0.4,1.9,0.9,3.8,2.8,4.1c0.1,0,5,1,10.5,5.9c-4,2.7-7.7,5.1-10.9,7.4
				c-7.1-6.7-14.1-8.1-14.6-8.2c-1.9-0.4-3.8,0.9-4.1,2.8c-0.4,1.9,0.9,3.8,2.8,4.1c0.1,0,4.7,1,10,5.5c-5.8,4.2-9.2,6.9-9.7,7.3
				c-2.8,2.2-3.2,6.2-1,9c1.3,1.6,3.1,2.4,5,2.4c1.4,0,2.8-0.5,4-1.4c0.1-0.1,3.6-2.9,9.8-7.2c1.9,3.5,3.6,7.8,4.8,13
				c0.4,1.6,1.8,2.7,3.4,2.7c0.3,0,0.5,0,0.8-0.1c1.9-0.4,3.1-2.3,2.7-4.2c-1.4-6.2-3.5-11.3-5.8-15.5c3.2-2.2,6.8-4.6,10.8-7.3
				c1.8,3.4,3.3,7.4,4.4,12.3c0.4,1.6,1.8,2.7,3.4,2.7c0.3,0,0.5,0,0.8-0.1c1.9-0.4,3.1-2.3,2.7-4.2c-1.3-5.8-3.2-10.6-5.3-14.5
				c3.7-2.3,7.6-4.8,11.8-7.2c2,3.6,3.8,8,5,13.5c0.4,1.6,1.8,2.7,3.4,2.7c0.3,0,0.5,0,0.8-0.1c1.9-0.4,3.1-2.3,2.7-4.2
				c-1.4-6.2-3.5-11.3-5.8-15.5c3.8-2.2,7.7-4.4,11.7-6.5c2.2,3.7,4.2,8.5,5.6,14.4c0.4,1.6,1.8,2.7,3.4,2.7c0.3,0,0.5,0,0.8-0.1
				c1.9-0.4,3.1-2.3,2.7-4.2c-1.5-6.5-3.7-11.8-6.2-16.1c3.8-2,7.8-4,11.8-5.9c2.1,3.6,3.9,8.1,5.2,13.7c0.4,1.6,1.8,2.7,3.4,2.7
				c0.3,0,0.5,0,0.8-0.1c1.9-0.4,3.1-2.3,2.7-4.2c-1.4-6-3.4-11-5.6-15.1c4.6-2.1,9.3-4.2,14.1-6.1c2,3.6,3.9,8.1,5.1,13.6
				c0.4,1.6,1.8,2.7,3.4,2.7c0.3,0,0.5,0,0.8-0.1c1.9-0.4,3.1-2.3,2.7-4.2c-1.3-5.8-3.2-10.6-5.4-14.7c4.4-1.7,8.8-3.3,13.3-4.8
				c2.3,3.8,4.3,8.6,5.7,14.6c0.4,1.6,1.8,2.7,3.4,2.7c0.3,0,0.5,0,0.8-0.1c1.9-0.4,3.1-2.3,2.7-4.2c-1.4-6.1-3.4-11.1-5.7-15.2
				c1.3-0.4,2.7-0.8,4-1.2C444.9,6.5,446.8,3,445.8-0.4z"/>
		</g>
		<rect y="1" class="st12" width="1501" height="74"/>
		<rect class="st12" width="1500" height="75"/>
		<g class="st1">
			<circle class="st5" cx="74.5" cy="41.5" r="93.5"/>
			<path class="st6" d="M32.9-40.7c-0.4,0-0.8-0.2-1.2-0.1c-2.5,0.5-4.7,1.4-6.3,3.5c-0.5,0.6-1.3,0.9-2,1.3
				c-0.6,0.3-1.2,0.5-2.1,0.5c0.8-0.7,1.5-1.4,2.3-1.9c0.9-0.6,1.8-1.1,2.7-1.8c-2,0.6-3.9,1.3-5.5,2.8c-1,1-2.3,1.7-3.3,2.7
				c-1.5,1.4-2.9,2.8-4.2,4.3c-0.4,0.5-0.8,1.2-0.1,1.6c0.2,0.1,1-0.4,1.2-0.8c1.4-2.7,3.8-4.3,6.3-5.8c0.2-0.1,0.4-0.1,0.9-0.2
				c-1.9,1.7-3.6,3.3-4.4,5.5c0.1,0.1,0.2,0.2,0.3,0.4c0.4-0.3,0.8-0.5,1.1-0.9c0.6-0.8,1.2-1.7,1.8-2.6c1.8-2.4,4.3-3.4,7.2-3.4
				c-0.4,0.2-0.7,0.4-1.1,0.6c-1.1,0.7-2.3,1.3-3.2,2.1c-0.6,0.5-1,1.3-1.3,2.1c-0.2,0.5,0,1.1,0.1,1.6c0.5-0.3,1-0.6,1.4-1
				c0.3-0.4,0.5-1,0.7-1.4c1.7-3.5,4.8-4.4,8.3-4.8c0.2,1.6,1.2,1.1,1.9,0.7c1.3-0.7,2.5-0.3,3.8,0c-1.7,0.3-3.2,1.1-4.2,2.5
				c-0.9,1.3-1.7,2.7-1,4.7c0.4-0.4,0.7-0.7,0.9-0.9c1.1-1.4,2.2-2.8,3.3-4.1c1.8-2.1,4.5-2.4,6.9-0.7c-0.3,0.2-0.5,0.4-0.7,0.5
				c-2.7,0.5-3.8,2.7-4.9,4.8c-0.2,0.3-0.1,0.7-0.1,1.1c0,0.3,0.2,0.7,0.4,0.8c0.2,0.1,0.6-0.1,0.8-0.3c1.3-1.4,2.6-2.9,3.9-4.3
				c1.8-2,3.2-2.2,5.7-0.6c-0.3,0.2-0.6,0.4-0.9,0.6c-1.6,1.1-3.2,2-4.6,3.3c-1.3,1.2-1.1,2.9,0.1,4.3c1.6-1.7,3-3.5,4.7-5
				c0.9-0.8,2.1-1.5,3.2-1.7c0.8-0.1,1.7,0.8,2.9,1.4c-0.9,0.5-1.5,0.8-2.2,1.1c-2.2,1-3.9,2.4-4.3,5c-0.1,0.6,0.1,1.3,0.1,1.9
				c0.1,0,0.2,0.1,0.3,0.1c0.3-0.3,0.7-0.7,0.9-1.1c0.9-1.2,1.8-2.6,2.8-3.7c1.9-2,4.1-1.9,6,0c0.6,0.6,0.7,1.2,0.4,1.8
				c-0.2,0.4-0.7,0.7-1.2,0.8c-2.5,1.1-4.3,2.9-5.5,5.3c-0.3,0.5-0.1,1.3-0.2,2.3c0.8-0.6,1.3-1,1.8-1.4c1.1-0.9,2.1-1.9,3.2-2.8
				c0.9-0.8,1.9-1.2,3.2-1.1c0.6,0.1,1.3-0.2,2.1-0.3c0.2,0.3,0.6,0.7,0.9,1.2c0.9,1.3,0.5,2.4-1,3.1c-2.3,0.9-4.5,2.1-6.2,3.9
				c-0.5,0.5-0.9,1.2-1.2,1.9c-0.1,0.3-0.1,0.9,0.1,1.1c0.3,0.2,0.8,0.3,1.2,0.3c0.5-0.1,0.9-0.4,1.3-0.7c2.6-1.3,5.2-2.7,7.8-4
				c0.4-0.2,1.3-0.1,1.3,0c0.3,0.8,1.4,1.3,0.8,2.5c-0.3,0.5,0,1.3,0,2.1c-3.3,0.8-6.7,1.4-8.6,4.7c-0.4,0.7-0.6,1.6-0.7,2.5
				c4-1.5,7.2-4.7,11.9-4.2c1,1.3,0.7,3,0.5,4.7c0,0.3-0.6,0.6-1,0.7c-1.9,0.7-3.9,1.1-5.7,2c-0.9,0.4-1.6,1.5-2.2,2.4
				c-0.2,0.2-0.1,0.9,0.1,1.1c0.2,0.2,0.8,0.2,1.1,0c1.9-0.7,3.8-1.4,5.8-2.1c0.5-0.2,1-0.3,1.5-0.2c0.8,0.1,1.9-0.8,2.3,0.3
				c0.6,1.6,1,3.2-0.1,4.8c-0.2,0.2-0.6,0.2-0.9,0.3c-2.2,0.6-4.4,1.2-6.5,1.9c-1.4,0.5-2.6,1.4-2.9,3c-0.1,0.5,0.1,1,0.2,1.6
				c0.5-0.1,1,0,1.4-0.2c3.3-1.4,6.7-2.1,10.4-2.2c0,1.5,0.8,3-0.1,4.4c-0.3,0.4-0.8,0.7-1.2,0.9c-2.3,0.7-4.7,1.3-7,2
				c-1.1,0.4-2.2,1-2.6,2.3c-0.4,1.2,0,1.6,1.1,1.3c3-0.6,6-1.3,9-1.9c0.4-0.1,0.8-0.2,1.3-0.3c0,1.7,0.1,3.3,0,4.9
				c-0.1,1.1-1.1,1.5-2.2,1.6c-1.9,0.1-3.8,0.3-5.6,0.5c-0.9,0.1-1.8,0.5-2.5,1c-0.6,0.4-0.9,1.2-1.3,1.8c0.7,0.3,1.4,1,2.1,1
				c1.7,0,3.5-0.3,5.2-0.5c1.3-0.2,2.5-0.4,4.1-0.7c-0.2,2.2-0.4,4.3-0.6,6.5c-1.3-0.1-2.5-0.3-3.7-0.4c-1.7,0-3.4,0-5.1,0.1
				c-0.2,0-0.4,0.1-0.6,0.1c-0.8,0.3-1.8,0.7-1.8,1.7c0,1,0.9,1.5,1.8,1.6c1.4,0.3,2.8,0.4,4.2,0.5c1.5,0.1,2.9,0,4.6,0
				c-0.3,1.4-0.5,2.7-1,3.9c-0.7,1.7-2,2.7-3.9,2.4c-1.8-0.2-3.6-0.4-5.4-0.5c-0.7,0-1.5,0.5-2.3,0.7c0.6,0.6,1,1.3,1.7,1.6
				c2.6,1.4,5.4,1.9,8.7,1.3c-0.6,1.8-1,3.4-1.6,4.9C69,54,68.2,54.1,67.7,54c-3.3-0.5-6.5-1.1-9.8-1.7c-1.2-0.2-1.3,0.3-1.2,1.2
				c0.1,1.2,1,1.8,2,2.3c2.5,1.1,5.1,1.7,7.8,1.7c0.4,0,0.7,0,1.3,0c-0.7,1.5-1.2,2.9-2,4.3c-0.2,0.3-1,0.5-1.4,0.4
				c-1.8-0.5-3.6-1.1-5.4-1.7c-1.2-0.4-2.4-0.8-3.6-1.1c-1.4-0.3-2.3,0.7-1.8,2.1c0.4,1.3,1.5,2,2.7,2.3c1.8,0.4,3.6,0.6,5.5,0.8
				c0.8,0.1,1.7,0,2.9,0c-1,1.7-1.7,3.4-2.8,4.6c-0.6,0.6-2.1,0.8-3,0.6c-1.8-0.4-3.5-1.1-5.2-1.7c-1-0.4-1.9-1-3-1.4
				c-0.5-0.2-1.3-0.2-1.6,0.1c-0.4,0.4-0.6,1.2-0.5,1.8c0.3,1.5,1.5,2.5,2.8,3.1c2,0.8,4.2,1.4,6.3,2.1c0.4,0.1,0.8,0.2,1.2,0.2
				c-2,4-4.4,4.6-8,2.3c-1.3-0.8-2.5-2-3.8-2.9c-0.6-0.5-1.4-0.9-2.1-1c-1-0.2-1.7,0.4-1.4,1.5c0.2,0.8,0.7,1.5,1.1,2.2
				c1.5,2.1,3.8,3.2,6.1,4c0.8,0.3,1.6,0.5,2.7,0.8c-1.4,1.3-2.5,2.8-3.9,3.7c-0.7,0.4-2.1,0.1-2.9-0.3c-1.4-0.8-2.5-2.1-3.7-3.2
				c-0.6-0.5-1-1.3-1.6-1.7c-0.4-0.3-1.3-0.5-1.7-0.3c-0.4,0.2-0.7,1-0.7,1.5c0,0.7,0.3,1.4,0.7,2c1.3,2.3,3.3,3.4,5.7,4.2
				c0.4,0.1,0.9,0.2,1.6,0.4c-1.3,1-2.5,1.9-3.7,2.7c-0.4,0.2-1.1,0.1-1.7,0c-2-0.6-3.1-2.2-4.2-3.7c-0.8-1-1.6-2-2.6-2.9
				c-0.3-0.3-1.1-0.4-1.4-0.2c-0.4,0.3-0.7,0.9-0.7,1.4c0,0.7,0.3,1.4,0.7,2c1.6,2.6,3.5,4.7,6.7,5.4c-3.3,2.6-4.2,2.8-6.8,0
				c-1.1-1.2-1.8-2.7-2.8-4c-0.7-0.9-1.4-1.8-2.1-2.8c-0.1,0-0.3,0-0.4,0.1c-0.2,0.5-0.5,1.1-0.6,1.6c-0.2,1.8,0.4,3.4,1.5,4.8
				c1.2,1.4,2.4,2.9,3.6,4.3c-1.3,1-2.7,1.1-4.5-0.2c-1.9-1.3-3.1-3.1-3.9-5.3c-0.3-0.7-0.5-1.6-0.9-2.2c-0.4-0.6-1.2-0.9-1.8-1.4
				c-0.3,0.7-0.8,1.4-0.7,2.1c0.1,2.4,1,4.5,2.8,6.1c1.1,0.9,2.4,1.7,3.5,2.5c-1.9,1-3.9,1-5.4-0.8c-1.2-1.4-2.3-3-3.3-4.5
				c-0.6-0.9-1.1-2-1.8-2.9c-0.2-0.3-0.8-0.6-1-0.5c-0.3,0.1-0.6,0.6-0.6,1c-0.2,2.2,0.3,4.2,1.8,5.8c1.1,1.2,2.5,2.1,3.7,3.1
				c-2.4,0.8-4.6,0.3-6.3-1.7c-1.3-1.5-2.1-3.2-2.5-5.1c-0.2-1.1-0.7-2.3-1.4-3.1c-0.7-1-1.6-0.6-1.8,0.6c-0.3,1.8,0.1,3.5,1,4.9
				c1.1,1.7,2.5,3.2,3.9,4.9c-0.8-0.2-1.6-0.3-2.3-0.7c-2.6-1.8-4.2-4.4-5-7.4c-0.3-1.1-1.1-2-1.7-2.9c-0.1-0.2-0.6-0.4-0.9-0.3
				c-0.2,0.1-0.4,0.5-0.4,0.8c-0.1,1.9,0.2,3.7,1.4,5.1c1.2,1.5,2.7,2.8,4,4.2c0.1,0.1,0.3,0.3,0.7,0.7c-0.7-0.1-1.1-0.1-1.4-0.3
				c-3.8-2-6.3-5.1-7-9.4C1,87.8,0.7,87,0.3,86.4c-0.2-0.3-0.7-0.5-1-0.5c-0.2,0-0.6,0.5-0.6,0.8c0,1-0.1,2.1,0.2,3.1
				c0.7,2.3,2.1,4.2,3.7,6.1c-0.7-0.5-1.5-0.8-2.1-1.4c-2.1-1.9-3.2-4.3-3.4-7.1c0-0.6,0-1.3-0.3-1.8c-0.2-0.4-0.9-0.7-1.3-0.7
				c-0.3,0-0.8,0.6-0.8,1c0,1.2,0.2,2.5,0.5,3.7c0.1,0.6,0.6,1.2,0.9,1.8c-0.1,0.1-0.2,0.1-0.3,0.2c-0.6-1.1-1.3-2.2-1.7-3.3
				c-0.4-1.2-0.3-2.5-0.6-3.7c-0.1-0.7-0.4-1.3-0.8-1.9c-0.1-0.2-0.7-0.5-0.9-0.4c-0.3,0.1-0.5,0.6-0.5,0.9c0.1,2.6,0.7,5.1,2.4,7.3
				c0.7,0.8,1.3,2,1.3,3c0,2.9,1.3,4.9,3.5,6.4c0.9,0.6,1.7,1.2,2.7,1.6c-1-1.4-1.5-2.9-1.2-4.6c1,0,1.6,0.4,1.7,1.5
				c0.2,2.2,1.2,4,2.7,5.5c0.5,0.5,1.2,0.7,2,0.8c-1.9-1.8-2.5-4-2.3-6.6c0.7,0.1,1.3,0.3,2,0.4c-0.1,2.6,0.2,5.1,2.4,6.8
				c0.6,0.5,1.5,0.8,2.3,1c-2-2.1-2.5-4.5-2.6-7.2c2.4-0.3,3,0.2,2.8,2.5c-0.1,2.5,0.6,4.4,2.7,5.6c1,0.6,1.6,0.6,2.6,0
				c-2.1-2.1-2.5-4.9-2.6-7.6c2.3-0.5,3.2,0.1,3.4,2.4c0.2,2,0.8,3.8,2.3,5.2c1.1,1.1,2.4,1.3,3.4,0.5c-0.7-1-1.5-1.9-2-3
				c-0.5-1.4-0.8-2.9-1.1-4.4c-0.2-0.9,0.3-1.2,1.1-1.2c2.1-0.2,2.1-0.2,2.4,1.9c0.4,2.3,1.5,4.3,3.4,5.6c0.5,0.3,1.2,0.2,1.8,0.3
				c-0.1-0.6,0-1.3-0.3-1.8c-1.1-1.6-2.5-3-2.7-5.1c-0.1-1.1,0.1-1.8,1.3-1.9c0,0,0.1,0,0.1,0c0.8-0.2,1.7-0.6,2.3-0.4
				c0.4,0.2,0.4,1.3,0.6,2.1c0.4,2.1,1.4,4,3.2,5.3c0.5,0.3,1.2,0.3,1.8,0.4c-0.1-0.6,0.1-1.3-0.2-1.8c-1.2-1.8-2.1-3.7-2.3-5.9
				c-0.1-1.4,1.7-2.7,3-2.1c0.3,0.2,0.6,0.7,0.7,1.1c0.2,2.1,0.7,4.2,2.2,5.8c0.6,0.7,1.7,1.1,2.7,1.4c0.4,0.1,1.2-0.3,1.5-0.8
				c0.2-0.3,0.1-1.1-0.2-1.6c-0.6-1.1-1.5-2-2.2-3.1c-0.4-0.6-0.7-1.1-1-1.8c-1.1-3,0.9-5.5,4.1-5.1c0.5,2,0.9,4,1.5,5.9
				c0.3,0.8,0.9,1.6,1.6,2.1c0.4,0.3,1.2,0.4,1.8,0.3c1.2-0.1,1.7-1.3,1.2-2.3c-0.3-0.5-0.6-1-1-1.5c-1.4-1.8-2-3.8-2-6.1
				c0-0.4-0.2-0.8-0.3-1.3c0.7-0.6,1.7-1.4,2.8-2.2c0.3,0.6,0.5,1,0.7,1.4c0.9,1.9,1.8,3.8,2.9,5.6c0.4,0.6,1.3,1.2,2,1.3
				c0.7,0.1,1.6-0.3,2.1-0.8c0.3-0.3-0.1-1.4-0.4-1.9c-1.5-2.2-3-4.4-3.8-7.1c-0.3-1-0.3-1.8,0.7-2.6c0.8-0.6,1.5-1.3,2.3-2
				c0.4,0.9,0.7,1.8,1.1,2.7c0.4,1,0.8,2,1.4,2.8c0.7,0.8,1.5,1.6,2.4,2.1c0.6,0.3,1.9,0.3,2.3-0.1c0.4-0.5,0.3-1.6,0.1-2.4
				c-0.1-0.7-0.7-1.2-1.1-1.8c-0.8-1.2-1.6-2.4-2.3-3.6c-1.6-2.8-1.4-4.1,0.9-6.3c0.6-0.6,1.2-0.4,1.5,0.5c0.6,1.9,1.6,3.6,3.2,4.9
				c0.6,0.5,1.4,1,2.1,1.3c0.5,0.2,1.4,0.1,1.6-0.2c0.3-0.4,0.3-1.3,0.1-1.8c-0.2-0.6-0.8-1.2-1.2-1.7c-1.8-2-3-4.3-3.8-6.9
				c-0.2-0.5-0.1-1.2,0.1-1.7c0.5-1.1,1.1-2.1,1.6-3.1c0.2-0.3,0.5-0.5,0.7-0.8c0.3,0.3,0.6,0.5,0.8,0.9c1.1,1.8,2,3.7,3.2,5.4
				c0.6,0.9,1.7,1.6,2.8,2c0.6,0.2,1.7,0,2.1-0.5c0.3-0.3,0-1.4-0.2-2c-0.2-0.6-0.7-1-1.1-1.5c-1.9-2.5-3.9-4.9-5.8-7.4
				c-0.1-0.1-0.2-0.1-0.2-0.2c0.6-1.5,1.3-3,1.9-4.5c0.3,0.2,0.7,0.3,0.9,0.5c2,1.9,4.1,3.8,6.1,5.6c0.3,0.3,0.7,0.6,1.1,0.7
				c0.5,0.1,1.2,0.2,1.4-0.1c0.3-0.3,0.2-1.1,0-1.5c-0.2-0.5-0.8-1-1.2-1.4c-2.1-2.2-4.3-4.5-6.4-6.7c-0.3-0.3-0.7-0.4-1.1-0.6
				c0.4-1.5,0.9-3.1,1.4-4.9c0.7,0.5,1.2,1,1.8,1.5c1.9,1.4,3.8,2.9,5.7,4.3c0.8,0.5,1.9,1.2,2.6,0.3c0.4-0.6,0.1-1.9-0.3-2.8
				c-0.4-0.9-1.2-1.7-2-2.4c-2-1.8-4-3.6-6-5.4c-0.3-0.3-0.5-1-0.5-1.5c0.1-1,0.3-1.9,0.5-2.8c0.1-0.5,0.6-0.8,1-1.4
				c1.5,1.2,2.9,2.4,4.3,3.5c1.1,0.9,2.3,1.8,3.5,2.6c0.6,0.4,1.3,0.7,1.9,0.8c1.2,0.2,1.8-0.7,1.3-1.8c-0.3-0.6-0.6-1.2-1.1-1.7
				c-2.6-2.5-5.3-5-8-7.5c-0.5-0.5-1.3-0.8-2-1.2c0.1-1.1,0.2-2.3,0.3-3.5c0-0.3,0.6-0.7,0.8-0.6c0.6,0.1,1.3,0.4,1.8,0.7
				c2.1,1.3,4.2,2.5,6.3,3.8c0.7,0.4,1.5,0.8,2,0c0.3-0.5,0.5-1.6,0.2-2C85,30.3,84.1,29,83,28.3c-2.1-1.3-4.5-2.4-6.8-3.4
				c-1-0.4-1.4-0.9-1.2-1.9C75,22,75,21,75,20.1c0-0.8,0.3-1.1,1-1c1,0.2,2,0.5,3,0.9c2,0.8,3.9,1.8,5.8,2.6
				c0.5,0.2,1.1,0.3,1.9,0.5c-0.6-1.7-0.8-3.3-2.2-4.3c-2.9-2.2-6.1-3.8-9.7-4.8c-0.1-1.5-0.3-3-0.4-4.8c4,0.1,7.7,1.1,11.2,3.5
				c0.4-1.8-0.2-3.1-1.1-3.9C81.4,6,77.8,4.5,73.6,4c-0.3-1.3-0.6-2.8-0.9-4.5c4.2,0.5,7.8,1.8,12,3.3c-0.5-1.1-0.6-2.1-1.2-2.6
				c-1.3-1.2-2.6-2.4-4.2-3.1c-2.1-0.8-4.3-1.2-6.5-1.6c-0.9-0.2-1.4-0.4-1.7-1.3c-0.2-1-0.6-2-1-3.1c3.9-0.6,7.5,0.3,11,1.9
				c-0.5-2.2-1.7-3.5-3.5-4.4c-2.5-1.2-5.2-1.4-8-1.4c-0.5,0-1.2,0-1.4-0.3c-0.5-0.8-0.9-1.7-1.2-2.6c0,0,0.6-0.5,0.9-0.5
				c3,0.2,6,0.2,8.7,1.5c0.1,0,0.2,0,0.3,0c-0.2-2-1.3-3.2-3-4c-2.7-1.2-5.5-1.3-8.4-1.1c-0.8,0.1-1.3-0.1-1.7-0.8
				c-0.4-0.7-1-1.4-1.5-2c-0.5-0.6-0.3-1,0.3-1.1c2.4-0.7,4.8-1.5,7.3-0.3c0.7,0.4,1.6,0.5,2.5,0.7c0.1-0.1,0.2-0.3,0.3-0.4
				c-0.5-0.5-0.9-1.1-1.5-1.5c-3.4-2.3-7-2.3-10.7-1.1c-1,0.3-2.6-0.4-2.7-1.5c0-0.4,0.3-1.1,0.6-1.2c3-1.2,6-2.4,9.3-0.7
				c0.3-1.1,0-1.9-1.3-2.5c-2.1-1-4.3-1.3-6.5-0.6c-1.6,0.5-3.2,1.5-4.8,2.2c-0.3,0.1-0.7,0.3-1,0.2c-0.9-0.5-1.8-1.2-3-1.9
				c3.6-1.9,6.7-4.4,11-3c-1.3-2.2-4.9-3-7.5-1.6c-1.4,0.8-2.8,1.7-4,2.7c-0.9,0.8-1.7,1.1-2.7,0.4c-0.3-0.2-0.6-0.3-1.2-0.6
				c2.6-2.8,5.5-4.4,9.2-4.5c-1.8-0.9-3.8-1.2-5.6-0.5c-1.9,0.8-3.8,2-5.5,3.2c-1.2,0.9-2.1,1-3.5-0.3c2-2.4,4.8-3.3,7.8-3.9
				c0-0.1,0-0.3-0.1-0.4c-1.5,0.2-3,0.1-4.4,0.5c-1.6,0.6-3.2,1.5-4.6,2.5c-1,0.8-1.9,1.4-3.2,0.9c-0.3-0.1-0.6-0.1-1-0.1
				c1.5-2.8,3.8-4.1,6.9-4.5c-0.4,0-0.9-0.2-1.3-0.1c-2.8,0.3-5.3,1.5-7.4,3.4c-1.2,1.1-1.1,1.1-3,0.9c1.1-2.2,3.1-2.9,5.1-4
				c-0.6,0.1-1.2,0.1-1.7,0.2C34-40.9,33.5-40.8,32.9-40.7c-0.9,0.7-2.1,1.3-2.6,2.3c-0.9,1.7-2.4,1.6-4.2,1.7
				C28-39,30.2-40.3,32.9-40.7z"/>
			<path class="st7" d="M154.9-6.3c0.7,1.2,1.4,2.3,1.9,3.3c0.2-2.3-1.4-5.7-4.1-7.5c-1.4-0.9-1.9-2-2.1-3.5
				c-0.6-3.9-3.3-6.3-7.2-6.8c-0.2,0-0.5,0-0.8,0.2c1.6,0.9,3.2,1.9,4.8,2.8c-0.1,0.1-0.1,0.1-0.2,0.2c-1.2,0-2.4,0-3.5,0
				c-0.1,0.2-0.1,0.3-0.2,0.5c0.6,0.5,1.2,1.1,1.9,1.5c1.1,0.7,2.2,1.2,3.2,1.9c2.1,1.6,3,3.7,2.7,6.3c-1.1-4-3.2-7-7.7-7.5
				c-0.1,0.1-0.2,0.2-0.4,0.3c0.7,0.8,1.3,1.6,2.1,2.4c0.6,0.6,1.3,1.1,2,1.5c2.6,1.6,3.4,4.2,3.8,6.8c-0.8-1.1-1.5-2.5-2.6-3.4
				c-1.1-1-2.5-1.5-4-2.3c-0.5,1.5,0.4,2.1,1.1,2.7c1.1,0.9,2.3,1.7,3.3,2.7c1.2,1.2,2,2.8,2.1,4.9c-0.4-0.5-0.6-0.7-0.8-0.9
				c-1.2-1.5-2.8-2.4-4.6-2.8c-0.5-0.1-1,0.2-1.5,0.2c0.3,0.5,0.5,1,0.9,1.4c1.1,0.9,2.3,1.6,3.4,2.4c1.8,1.4,3,3,2.3,5.5
				c-0.2,0.7-0.1,1.4-0.2,2.4c-0.5-0.6-0.7-1-1-1.4c-1.1-1.5-2.4-2.7-4.3-3c-0.5-0.1-1.1,0.4-1.6,0.6c0.2,0.4,0.4,1,0.7,1.3
				c0.6,0.6,1.4,1.1,2.1,1.6c3,2.3,4.9,5.1,3.4,9.2c-0.1-0.2-0.3-0.5-0.5-0.8c-1-1.2-2-2.4-3-3.5c-0.3-0.4-0.9-0.6-1.4-0.7
				c-0.6,0-1.5,0.2-1.6,0.5c-0.2,0.5,0,1.3,0.3,1.8c0.4,0.6,1.1,1.1,1.8,1.5c3.8,2.3,4.9,5.7,4,9.9c-0.2-0.3-0.4-0.5-0.6-0.7
				c-1.5-2.3-3.7-3.6-6.3-4.2c-0.5-0.1-1.1,0.2-1.7,0.3c0.2,0.6,0.3,1.4,0.8,1.8c1.1,0.9,2.4,1.6,3.6,2.4c0.7,0.5,1.4,0.9,2,1.5
				c1.5,1.4,2.3,3.2,2,5.3c-0.1,0.9-0.1,1.7-0.2,2.8c-0.8-0.7-1.3-1.5-2.1-1.9c-1.4-0.8-2.9-1.3-4.5-1.9c-0.4-0.1-1.2,0.1-1.3,0.4
				c-0.2,0.4-0.1,1.2,0.2,1.5c1,1,2.1,1.9,3.2,2.7c0.9,0.7,2,1.3,2.8,2c1.1,0.9,1.6,2.1,1.4,3.6c-0.2,1.2-0.2,2.5-0.3,3.9
				c-0.7-0.6-1.2-1.2-1.7-1.7c-1.4-1.3-3-2.2-4.9-2.2c-0.6,0-1.1,0.4-1.7,0.6c0.2,0.6,0.3,1.3,0.7,1.7c0.8,0.8,1.7,1.4,2.6,2
				c0.4,0.3,0.8,0.5,1.3,0.8c3.3,2.3,4.1,5.1,2.8,9c-0.7-0.7-1.2-1.5-2-1.9c-1.1-0.7-2.3-1.2-3.5-1.6c-0.5-0.2-1.4,0-1.7,0.4
				c-0.2,0.3,0,1.3,0.3,1.7c0.8,0.9,1.7,1.6,2.6,2.4c1,0.8,2,1.5,3,2.3c0.7,0.5,1,1.2,0.8,2.1c-0.2,1.1-0.3,2.3-0.5,3.5
				c-1.4-0.8-2.6-1.6-4-2.2c-1-0.4-2.1-0.5-3.2-0.4c-1,0.1-1.3,0.9-0.7,1.8c0.6,0.8,1.4,1.4,2.2,2.1c1.4,1.1,2.9,2.1,4.2,3.2
				c0.4,0.3,0.7,1.1,0.6,1.6c-0.1,1.3-0.4,2.5-0.6,3.9c-1.3-0.6-2.4-1.2-3.6-1.6c-1-0.3-2-0.6-3-0.7c-1.3-0.1-1.9,0.8-1.1,1.8
				c0.9,1.2,2.1,2.2,3.3,3.2c0.7,0.6,1.6,1,2.5,1.4c0.9,0.4,1.2,0.9,0.9,2c-0.4,1.2-0.5,2.5-0.8,4c-0.5-0.4-0.8-0.7-1.2-0.9
				c-1.5-0.7-2.9-1.4-4.4-2c-0.5-0.2-1.4-0.1-1.7,0.3c-0.3,0.4-0.2,1.3,0.1,1.7c0.9,1.1,1.9,2.2,3,3.1c0.9,0.7,2.1,1.2,3.3,1.9
				c-0.2,0.8-0.3,1.7-0.6,2.5c-0.1,0.3-0.8,0.7-1.2,0.6c-1.4-0.2-2.8-0.6-4.1-0.9c-0.4-0.1-1.1-0.3-1.3-0.1c-0.3,0.4-0.5,1-0.4,1.5
				c0.2,1.3,1.1,2.1,2.3,2.5c1.1,0.4,2.2,0.6,3.6,0.9c-0.3,0.9-0.4,1.9-0.8,2.7c-0.2,0.4-1.1,0.6-1.7,0.6c-1.4,0-2.8-0.1-4.1-0.2
				c-1-0.1-1.7,0.3-2.1,1.6c2.4-0.1,4.2,2.5,6.9,1.2c-0.5,3.4-2.6,4.3-4.9,4.5c-1,0.1-1.9,0-2.9,0.1c-0.3,0-0.6,0.3-0.9,0.4
				c0.2,0.3,0.3,0.8,0.6,0.9c1.8,0.8,3.7,1.1,5.6,0.5c-0.7,0.7-1.4,1.4-2.1,2c-1.4,1.2-3,1.9-5,1.5c-0.4-0.1-0.9,0-1.2,0.1
				c-0.3,0.2-0.7,0.5-0.8,0.9c0,0.2,0.4,0.6,0.7,0.7c1.4,0.4,2.8,0.7,3.7,0.9c-0.5,0.4-1.4,1.1-2.4,1.8c-0.3,0.2-0.8,0.3-1.2,0.4
				c-0.8,0.2-1.5,0.3-2.5,0.4c1.1,1.3,2.4,0.9,3.6,1c0,0.1,0.1,0.2,0.1,0.3c-1.3,0.5-2.6,0.9-3.9,1.4c-0.5,0.1-1,0.1-1.5,0.2
				c-0.4,0.1-0.8,0.4-1.2,0.6c0.3,0.3,0.6,0.7,1,1.1c-0.8,0.2-1.7,0.4-2.6,0.6c-0.3,0.1-0.6,0.4-0.9,0.7c0.4,0.2,0.8,0.7,1.1,0.6
				c1.7-0.6,3.4-1.2,5.1-1.9c0.9-0.4,1.7-1,2.6-1.5c0.7-0.4,1.3-0.9,1.9-1.4c0.9-0.7,1.5-1.6,2.7-2.2c1.9-1,3.3-2.8,4.9-4.3
				c0.3-0.3,0.6-0.7,0.9-1c1.4-1.3,3.9-5.5,4.3-7.5c-1.7,1.9-3,3.9-5.7,4.2c0.4-1.7,0.9-2.9,2.8-3.3c3-0.8,4.8-3,5-6.1
				c-1.6,2.2-2.8,4.8-6.1,4.7c0.3-2.3,1.7-3.9,3.8-4.3c3.1-0.6,4.7-2.7,4-5.8c-1.2,2.8-3.1,4.2-6.3,4.1c0.4-0.7,0.7-1.2,1-1.8
				c0.8-1.9,2.6-2.3,4.3-3c2.7-1,3.9-3.6,3-6.4c-1.4,2.7-3.7,3.7-6.3,4.4c0-2.3,1-3.6,3.1-4.1c3.3-0.7,5.2-2.9,5.2-6
				c-1.1,0.9-2,1.9-3.2,2.7c-1.1,0.7-2.4,1.2-3.7,1.8c-0.1-0.1-0.2-0.2-0.4-0.3c0.5-2.4,1-4.8,1.5-7.2c5-0.4,6.8-2,7-6.5
				c-1.9,2.2-4.1,3.6-6.8,4.5c0.3-1.6,0.5-2.9,0.7-4.3c0.1-0.4,0.3-0.8,0.3-1.2c0.2-1.4,0.6-1.9,2.1-1.8c3.6,0,5.3-2.1,4.5-5.7
				c-1.7,1.9-3.7,2.7-6.1,3.2c0.1-2,0.2-3.8,1.4-5.4c0.3-0.4,0.8-0.7,1.3-0.9c0.4-0.2,0.9-0.3,1.3-0.4c2.3-0.7,3-2.3,2.1-4.6
				c-1.6,0.7-3.3,1.4-5.2,2.1c0.2-2.1,0.2-3.9,0.5-5.6c0.1-0.4,0.8-0.9,1.4-1.1c1-0.3,2-0.3,3-0.4c1.4-0.1,2.1-0.7,2.1-1.7
				c-0.1-1.2-0.9-2-2.3-2c-0.6,0-1.2,0.1-1.9,0.2c-0.6,0.1-1.2,0.2-2,0.3c0.1-1.6,0-3.2,0.4-4.6c0.1-0.5,1.3-0.9,2-1.1
				c0.7-0.2,1.4,0,2.1,0c1.4,0,2.3-0.7,2.3-1.8c0-1.2-1.1-2.5-2.3-2.5c-1.2,0-2.5,0.3-3.9,0.4c0.1-1.7,0.1-3.3,0.3-5
				c0-0.3,0.8-0.7,1.2-0.6c0.9,0.2,1.7,0.8,2.6,1c0.7,0.2,1.8,0.2,2-0.1c0.4-0.5,0.3-1.5,0.1-2.2c-0.6-1.4-1.9-1.9-3.2-2.1
				c-0.7-0.1-1.5-0.1-2.3-0.2c0-1.1-0.1-2.1,0-3.2c0-0.3,0.5-0.7,0.8-0.8c1.8-0.8,3.8,0,5,1.9c1.2-2.5,0.3-4.7-2.3-5.4
				c-0.6-0.2-1.2-0.3-1.7-0.3c-1.5,0.2-1.7-0.6-1.4-1.8c0.2-0.8,0.1-2,0.6-2.3c1.1-0.7,3.7,0,4.5,1c0.2,0.3,0.4,0.6,0.7,0.9
				c1.2-2.7-0.1-5-3-5.5c-2.5-0.4-2.5-0.4-2.3-2.9c0-0.4,0.1-0.9,0.1-1.5c2.8,0.4,4.7,1.6,5.5,4.4c0.9-3.2-2.1-7.2-5.3-7
				c0-1,0-1.9,0-3c2.2,0.5,4,1.5,4.9,3.7c0.6-2.6-0.7-4.9-3-5.5c-1.9-0.5-1.9-0.5-1.6-2.9c2.7,0.7,4.1,2.6,5.1,4.9
				c0.1,0,0.2-0.1,0.3-0.1c-0.7-2.3-1.4-4.7-2.1-7C155.1-5.6,155-6,154.9-6.3c-1.1-1-2.5-1.8-3.2-3.3c0.1-0.1,0.3-0.2,0.4-0.3
				C153-8.7,153.9-7.5,154.9-6.3z"/>
		</g>
		<g class="st1">
			<path class="st13" d="M198.4,55.8l-5.3-0.7c-6.2-0.8-9.7-13.8-9-19.6l0,0c0.7-5.9,7.3-16.6,13.5-15.9l5.3,0.7
				c6.2,0.8,9.8,12.8,9.1,18.7v0C211.3,44.8,204.6,56.5,198.4,55.8z"/>
			<g>
				<path class="st4" d="M127.4,48.4l55.5-1.1c-2.7-2.6-4.1-6.3-3.6-10.2l0.8-6c0.4-3.5,2.3-6.4,5-8.3l-7-2.2
					c-11.1-2.5-21.5-5.9-31-9.7l-14.3-4.5c-3.6-0.5-10.2,4.1-12.3,20.9C118.6,40.8,123.8,47.9,127.4,48.4z"/>
				<g>
					<path class="st13" d="M163,47.7l7.9-0.2l-8-31.1c-3-0.9-5.9-1.9-8.7-2.9L163,47.7z"/>
					<path class="st13" d="M181.6,45.8c-1.8-2.4-2.7-5.5-2.3-8.7l0-0.2l-4.4-17.2c-2.9-0.7-5.8-1.5-8.5-2.3l7.8,30l7.9-0.2
						L181.6,45.8z"/>
					<path class="st13" d="M180.4,29.1c0.8-2.6,2.4-4.9,4.6-6.4l-6.8-2.1L180.4,29.1z"/>
					<path class="st13" d="M140.9,48.1l7.9-0.2L138.5,8.1l-5.8-1.8c-0.7-0.1-1.6,0-2.5,0.4L140.9,48.1z"/>
					<path class="st13" d="M120.6,25.1c-0.1,0.7-0.2,1.3-0.3,2c-1.6,12.7,2.7,19.8,6.2,21.1L120.6,25.1z"/>
					<path class="st13" d="M127.5,8.5c-2,1.9-3.9,5-5.4,10l7.7,29.8l7.9-0.2L127.5,8.5z"/>
					<path class="st13" d="M151.9,47.9l7.9-0.2l-9.2-35.6c-1.2-0.5-2.5-0.9-3.7-1.4l-5.1-1.6L151.9,47.9z"/>
				</g>
			</g>
			<g>
				<path class="st4" d="M263.2,65.5l-53.5-14.8c3.2-1.8,5.6-5.1,6.1-9l0.8-6c0.4-3.5-0.7-6.8-2.8-9.3l7.4-0.4
					c11.4,0.3,22.3-0.3,32.4-1.8l15-0.8c3.6,0.5,8.9,6.5,6.8,23.3C273.6,60.3,266.8,65.9,263.2,65.5z"/>
				<g>
					<path class="st13" d="M228.9,56l-7.6-2.1l15.5-28.1c3.1-0.2,6.2-0.4,9.2-0.7L228.9,56z"/>
					<path class="st13" d="M211.4,49.5c2.3-1.9,4-4.6,4.4-7.9l0-0.2l8.5-15.5c3,0,5.9,0,8.8-0.1l-15,27.2l-7.6-2.1L211.4,49.5z"/>
					<path class="st13" d="M216.6,33.7c-0.1-2.7-1.1-5.3-2.8-7.3l7.1-0.4L216.6,33.7z"/>
					<path class="st13" d="M250.2,61.9l-7.6-2.1l19.9-36.1l6.1-0.3c0.7,0.1,1.5,0.4,2.3,1L250.2,61.9z"/>
					<path class="st13" d="M275.5,44.6c-0.1,0.7-0.1,1.3-0.2,2c-1.6,12.7-7.6,18.5-11.3,18.9L275.5,44.6z"/>
					<path class="st13" d="M273,26.8c1.4,2.3,2.5,5.9,2.7,11l-14.9,27l-7.6-2.1L273,26.8z"/>
					<path class="st13" d="M239.6,58.9l-7.6-2.1l17.7-32.2c1.3-0.2,2.6-0.3,3.9-0.5l5.3-0.3L239.6,58.9z"/>
				</g>
			</g>
			<g>
				<path class="st4" d="M210.4,28.7L184.7,33c-0.3,0.9-0.5,1.7-0.5,2.4v0c0,0.4-0.1,0.8-0.1,1.2l27.4-4.6
					C211.2,30.9,210.8,29.8,210.4,28.7z"/>
				<path class="st4" d="M206,21.7c-0.9-0.8-2-1.3-3.1-1.4l-5.3-0.7c0,0,0,0,0,0l-3,0.5c-1.9,0.8-3.7,2.4-5.3,4.4L206,21.7z"/>
				<path class="st4" d="M210.7,43.4c0.5-1.3,0.9-2.6,1.1-3.7l-26.8,4.5c0.3,1.1,0.7,2.2,1.1,3.3L210.7,43.4z"/>
				<path class="st4" d="M198.4,55.8c2.4,0.3,4.9-1.3,7.1-3.7l-14.2,2.4c0.6,0.3,1.2,0.6,1.9,0.7L198.4,55.8z"/>
			</g>
		</g>
	</g>
</g>
<g id="Layer_5" class="st0">
</g>
<g class="code_on">
	<g>
		<path class="st100" d="M882.1,18l-0.6,0.2c-1.1-2-2.7-3.4-4.7-3.4c-2.9,0-4.1,2.6-4.1,6.2c0,3.6,1.1,6.2,4.1,6.2
			c2.2,0,3.9-1.4,4.5-3.4l1.1,0.4c-0.9,2.5-2.7,4.1-5.9,4.1c-4,0-6.8-3-6.8-7.3c0-4.3,2.8-7.3,6.8-7.3c1.5,0,2.6,0.4,3.4,0.9l0.3-0.6
			h0.8L882.1,18z"/>
		<path class="st100" d="M890.7,13.7c4.3,0,7,3,7,7.3c0,4.3-2.6,7.3-7,7.3c-4.3,0-7-3-7-7.3C883.7,16.7,886.3,13.7,890.7,13.7z
			 M890.7,27.2c3,0,4-2.6,4-6.2c0-3.6-1-6.2-4-6.2c-3,0-4,2.6-4,6.2C886.7,24.6,887.7,27.2,890.7,27.2z"/>
		<path class="st0" d="M905.3,28h-6.5v-0.7c1.4-0.1,1.8-0.2,1.8-1.6v-9.5c0-1.3-0.3-1.5-1.8-1.6V14h6.5c4.8,0,7.6,2.4,7.6,7
			C913,25.5,910.1,28,905.3,28z M905.4,15.1H904c-0.4,0-0.6,0.2-0.6,0.6v10.5c0,0.4,0.2,0.6,0.6,0.6h1.4c2.7,0,4.6-1.3,4.6-5.9
			C910,16.5,908.1,15.1,905.4,15.1z"/>
		<path class="st0" d="M920.9,26.9c2.8,0,4.6-1.3,6-3.1l0.6,0.3l-1.9,3.9h-11.3v-0.7c1.4-0.1,1.8-0.2,1.8-1.6v-9.5
			c0-1.3-0.3-1.5-1.8-1.6V14h11.3l1.2,3.4l-0.6,0.3c-1.3-1.8-2.7-2.6-5.3-2.6h-1.5c-0.4,0-0.6,0.2-0.6,0.6v4.4h2.8
			c1.5,0,1.7-0.7,1.8-1.8h0.7v4.8h-0.7c-0.1-1.1-0.3-1.8-1.8-1.8h-2.8v5c0,0.4,0.2,0.6,0.6,0.6H920.9z"/>
		<path class="st0" d="M930.1,18.7c1,0,1.6,0.7,1.6,1.5c0,0.8-0.6,1.6-1.6,1.6c-1,0-1.6-0.7-1.6-1.6
			C928.5,19.4,929.1,18.7,930.1,18.7z M930.1,25.1c1,0,1.6,0.7,1.6,1.5c0,0.8-0.6,1.6-1.6,1.6c-1,0-1.6-0.7-1.6-1.6
			C928.5,25.9,929.1,25.1,930.1,25.1z"/>
		<path class="st0" d="M878,44.8h5c2.6,0,3.1-1.2,3.2-3.3h1.3v8.6h-1.3c-0.1-2.1-0.6-3.3-3.2-3.3h-5V55c0,2.4,0.6,2.6,3.2,2.8V59
			h-11.4v-1.2c2.6-0.2,3.2-0.4,3.2-2.8V37.8c0-2.4-0.6-2.7-3.2-2.8v-1.2h20.3l2.2,6.2l-1,0.5c-2.3-3.2-4.9-4.7-9.5-4.7h-2.8
			c-0.6,0-1.1,0.4-1.1,1.1V44.8z"/>
		<path class="st0" d="M903.7,59v-6.2h-9.9v-1.5l10.9-17.4h3.8v16.9h3.8v2.1h-3.8V59H903.7z M896.6,50.7h7.1V39.3L896.6,50.7z"/>
		<path class="st0" d="M923.3,36.9c0-0.6-0.4-1.1-1.1-1.1c-3.1,0-5.7,1.2-7.8,4.6l-1-0.5l2.6-7h1.2c0.2,0.5,0.5,0.8,1.1,0.8h15.2
			c0.6,0,0.9-0.3,1.1-0.8h1.2l2.5,7l-1,0.5c-2.1-3.5-4.9-4.6-8-4.6c-0.7,0-1.1,0.4-1.1,1.1V55c0,2.4,0.6,2.6,3.2,2.8V59h-11.3v-1.2
			c2.6-0.2,3.2-0.4,3.2-2.8V36.9z"/>
		<path class="st0" d="M954.7,59v-1.2c2.6-0.2,3.2-0.4,3.2-2.8v-8.1h-10.8V55c0,2.4,0.6,2.6,3.2,2.8V59H939v-1.2
			c2.6-0.2,3.2-0.4,3.2-2.8V37.8c0-2.4-0.6-2.7-3.2-2.8v-1.2h11.3V35c-2.6,0.2-3.2,0.4-3.2,2.8v7h10.8v-7c0-2.4-0.6-2.7-3.2-2.8v-1.2
			H966V35c-2.6,0.2-3.2,0.4-3.2,2.8V55c0,2.4,0.6,2.6,3.2,2.8V59H954.7z"/>
		<path class="st0" d="M983.9,46.7l6.1,8.9c0.9,1.4,1.8,2,3.8,2.2V59h-7.1l-8.1-12H976v8c0,2.4,0.6,2.6,3.2,2.8V59h-11.3v-1.2
			c2.6-0.2,3.2-0.4,3.2-2.8V37.8c0-2.4-0.4-2.7-3.2-2.8v-1.2h12.5c6.7,0,11,1.6,11,6.5C991.3,44.3,988.3,46.3,983.9,46.7z
			 M980.3,35.8H977c-0.6,0-1.1,0.4-1.1,1.1v8h4.2c3.6,0,5.7-1.3,5.7-4.6C985.9,37,983.8,35.8,980.3,35.8z"/>
	</g>
	<g>
		<path d="M994.1,54.8c-0.3,0-0.5-0.1-0.6-0.1c0-0.1-0.1-0.2-0.3-0.3l-3-4.4c3.2-1.8,5-4.8,5-8.6c0-4.8-2.6-10.5-15-10.5h-12.5
			c-0.3,0-0.6,0-0.9,0.1c-0.3-0.1-0.6-0.1-0.9-0.1h-11.3c-0.8,0-1.6,0.2-2.2,0.7c-0.6-0.4-1.4-0.7-2.2-0.7H939c-0.2,0-0.5,0-0.7,0.1
			c-0.7-0.5-1.5-0.9-2.5-0.9h-0.6c0.3-0.7,0.5-1.5,0.5-2.4c0-1.2-0.4-2.3-1-3.2c0.6-0.9,1-2,1-3.2c0-3.1-2.5-5.5-5.6-5.5
			c0,0-0.1,0-0.1,0l-0.7-2c-0.6-1.6-2.1-2.6-3.8-2.6h-11.3c-1.2,0-2.2,0.5-2.9,1.3c-1.7-0.8-3.7-1.3-5.9-1.3h-6.5c-1,0-2,0.4-2.7,1
			c-1.6-0.9-3.4-1.3-5.5-1.3c-2.5,0-4.7,0.7-6.4,1.9c-0.7-1-1.9-1.6-3.2-1.6h-0.8c-0.3,0-0.5,0-0.8,0.1c-0.9-0.2-1.9-0.4-2.9-0.4
			c-6.3,0-10.8,4.8-10.8,11.3c0,3.7,1.4,6.8,3.8,8.8c-2.1,0.2-3.7,1.9-3.7,4V36c0,1.9,1.3,3.5,3.2,3.9v15c-1.8,0.4-3.2,2-3.2,3.9V60
			c0,2.2,1.8,4,4,4h11.4c2.2,0,4-1.8,4-4v-1.2c0-1.9-1.4-3.6-3.2-3.9v-3h0.3c0.3,1.9,2,3.3,3.9,3.3h1.3c0.9,0,1.7-0.3,2.3-0.8
			c0.3,1.9,1.9,3.4,3.9,3.4h5.9V60c0,2.2,1.8,4,4,4h4.8c2.2,0,4-1.8,4-4v-2.2c2.1-0.1,3.8-1.9,3.8-4v-2.1c0-2.1-1.7-3.9-3.8-4V45
			l0.2,0.1c0.5,0.2,1.1,0.4,1.6,0.4c1.4,0,2.7-0.7,3.4-1.9c0.5-0.8,1-1.4,1.5-1.8v13.1c-1.8,0.4-3.2,2-3.2,3.9V60c0,2.2,1.8,4,4,4
			h11.3c1.8,0,3.3-1.2,3.8-2.8c0.5,1.6,2,2.8,3.8,2.8h11.3c0.8,0,1.6-0.2,2.2-0.7c0.6,0.4,1.4,0.7,2.2,0.7H966c0.3,0,0.6,0,0.9-0.1
			c0.3,0.1,0.6,0.1,0.9,0.1h11.3c1.7,0,3.1-1.1,3.7-2.5l0.5,0.8c0.7,1.1,2,1.8,3.3,1.8h7.1c2.2,0,4-1.8,4-4v-1.2
			C997.8,56.7,996.2,55,994.1,54.8z M912,32.9c-0.2-0.4-0.5-0.8-0.9-1.1c0.1,0,0.1-0.1,0.2-0.1c0.3,0.3,0.6,0.5,0.9,0.7
			c0,0.1-0.1,0.1-0.1,0.2L912,32.9z M883.5,30.8C883.5,30.8,883.5,30.8,883.5,30.8L883.5,30.8C883.5,30.8,883.5,30.8,883.5,30.8z
			 M893.2,45.1l0.6-0.3l-2.2,3.5v-2.8C892.1,45.5,892.7,45.3,893.2,45.1z M877,19.8c0.2,0.1,0.6,0.5,0.9,1.2c0.2,0.4,0.4,0.7,0.7,0.9
			c-0.5,0.5-0.9,1.1-1.1,1.8c0,0.1-0.2,0.4-0.5,0.5c-0.1-0.4-0.3-1.1-0.3-2.2C876.8,20.9,876.9,20.2,877,19.8z M882.3,41.8H882v-1
			c0.2,0,0.4,0,0.6,0C882.5,41.1,882.4,41.5,882.3,41.8z M896.4,40.7c0-0.3-0.1-0.7-0.2-1l-2.2-6.2c-0.1-0.2-0.1-0.4-0.2-0.5
			c0.9-0.2,1.7-0.5,2.5-1c0.7,0.6,1.6,1.1,2.7,1.1h2.3L896.4,40.7z M935.2,57.5c-0.4-1.3-1.6-2.3-2.9-2.6V41.7c0.6,0.4,1.1,1,1.6,1.9
			c0.7,1.2,2.1,1.9,3.4,1.9c0.3,0,0.6,0,0.9-0.1v9.5C936.8,55.2,935.7,56.2,935.2,57.5z M953.9,54.9c-0.5,0.1-1,0.3-1.4,0.6
			c-0.4-0.3-0.9-0.5-1.4-0.6v-3h2.8V54.9z M953.9,41.8h-2.8v-1.9c0.5-0.1,1-0.3,1.4-0.6c0.4,0.3,0.9,0.5,1.4,0.6V41.8z M966.8,54.9
			v-15c0,0,0,0,0.1,0c0,0,0,0,0.1,0v15C967,54.9,966.9,54.9,966.8,54.9C966.9,54.9,966.9,54.9,966.8,54.9z M981.9,41.7
			c-0.2,0.1-0.7,0.2-1.7,0.2H980v-1.1h0.3c0.9,0,1.4,0.1,1.6,0.2c0,0.1,0,0.2,0,0.3C981.9,41.5,981.9,41.6,981.9,41.7z"/>
		<path class="st100" d="M882.1,18l-0.6,0.2c-1.1-2-2.7-3.4-4.7-3.4c-2.9,0-4.1,2.6-4.1,6.2c0,3.6,1.1,6.2,4.1,6.2
			c2.2,0,3.9-1.4,4.5-3.4l1.1,0.4c-0.9,2.5-2.7,4.1-5.9,4.1c-4,0-6.8-3-6.8-7.3c0-4.3,2.8-7.3,6.8-7.3c1.5,0,2.6,0.4,3.4,0.9l0.3-0.6
			h0.8L882.1,18z"/>
		<path class="st100" d="M890.7,13.7c4.3,0,7,3,7,7.3c0,4.3-2.6,7.3-7,7.3c-4.3,0-7-3-7-7.3C883.7,16.7,886.3,13.7,890.7,13.7z
			 M890.7,27.2c3,0,4-2.6,4-6.2c0-3.6-1-6.2-4-6.2c-3,0-4,2.6-4,6.2C886.7,24.6,887.7,27.2,890.7,27.2z"/>
		<path class="st100" d="M905.3,28h-6.5v-0.7c1.4-0.1,1.8-0.2,1.8-1.6v-9.5c0-1.3-0.3-1.5-1.8-1.6V14h6.5c4.8,0,7.6,2.4,7.6,7
			C913,25.5,910.1,28,905.3,28z M905.4,15.1H904c-0.4,0-0.6,0.2-0.6,0.6v10.5c0,0.4,0.2,0.6,0.6,0.6h1.4c2.7,0,4.6-1.3,4.6-5.9
			C910,16.5,908.1,15.1,905.4,15.1z"/>
		<path class="st100" d="M920.9,26.9c2.8,0,4.6-1.3,6-3.1l0.6,0.3l-1.9,3.9h-11.3v-0.7c1.4-0.1,1.8-0.2,1.8-1.6v-9.5
			c0-1.3-0.3-1.5-1.8-1.6V14h11.3l1.2,3.4l-0.6,0.3c-1.3-1.8-2.7-2.6-5.3-2.6h-1.5c-0.4,0-0.6,0.2-0.6,0.6v4.4h2.8
			c1.5,0,1.7-0.7,1.8-1.8h0.7v4.8h-0.7c-0.1-1.1-0.3-1.8-1.8-1.8h-2.8v5c0,0.4,0.2,0.6,0.6,0.6H920.9z"/>
		<path class="st100" d="M930.1,18.7c1,0,1.6,0.7,1.6,1.5c0,0.8-0.6,1.6-1.6,1.6c-1,0-1.6-0.7-1.6-1.6
			C928.5,19.4,929.1,18.7,930.1,18.7z M930.1,25.1c1,0,1.6,0.7,1.6,1.5c0,0.8-0.6,1.6-1.6,1.6c-1,0-1.6-0.7-1.6-1.6
			C928.5,25.9,929.1,25.1,930.1,25.1z"/>
		<path class="st100" d="M878,44.8h5c2.6,0,3.1-1.2,3.2-3.3h1.3v8.6h-1.3c-0.1-2.1-0.6-3.3-3.2-3.3h-5V55c0,2.4,0.6,2.6,3.2,2.8V59
			h-11.4v-1.2c2.6-0.2,3.2-0.4,3.2-2.8V37.8c0-2.4-0.6-2.7-3.2-2.8v-1.2h20.3l2.2,6.2l-1,0.5c-2.3-3.2-4.9-4.7-9.5-4.7h-2.8
			c-0.6,0-1.1,0.4-1.1,1.1V44.8z"/>
		<path class="st100" d="M903.7,59v-6.2h-9.9v-1.5l10.9-17.4h3.8v16.9h3.8v2.1h-3.8V59H903.7z M896.6,50.7h7.1V39.3L896.6,50.7z"/>
		<path class="st100" d="M923.3,36.9c0-0.6-0.4-1.1-1.1-1.1c-3.1,0-5.7,1.2-7.8,4.6l-1-0.5l2.6-7h1.2c0.2,0.5,0.5,0.8,1.1,0.8h15.2
			c0.6,0,0.9-0.3,1.1-0.8h1.2l2.5,7l-1,0.5c-2.1-3.5-4.9-4.6-8-4.6c-0.7,0-1.1,0.4-1.1,1.1V55c0,2.4,0.6,2.6,3.2,2.8V59h-11.3v-1.2
			c2.6-0.2,3.2-0.4,3.2-2.8V36.9z"/>
		<path class="st100" d="M954.7,59v-1.2c2.6-0.2,3.2-0.4,3.2-2.8v-8.1h-10.8V55c0,2.4,0.6,2.6,3.2,2.8V59H939v-1.2
			c2.6-0.2,3.2-0.4,3.2-2.8V37.8c0-2.4-0.6-2.7-3.2-2.8v-1.2h11.3V35c-2.6,0.2-3.2,0.4-3.2,2.8v7h10.8v-7c0-2.4-0.6-2.7-3.2-2.8v-1.2
			H966V35c-2.6,0.2-3.2,0.4-3.2,2.8V55c0,2.4,0.6,2.6,3.2,2.8V59H954.7z"/>
		<path class="st100" d="M983.9,46.7l6.1,8.9c0.9,1.4,1.8,2,3.8,2.2V59h-7.1l-8.1-12H976v8c0,2.4,0.6,2.6,3.2,2.8V59h-11.3v-1.2
			c2.6-0.2,3.2-0.4,3.2-2.8V37.8c0-2.4-0.4-2.7-3.2-2.8v-1.2h12.5c6.7,0,11,1.6,11,6.5C991.3,44.3,988.3,46.3,983.9,46.7z
			 M980.3,35.8H977c-0.6,0-1.1,0.4-1.1,1.1v8h4.2c3.6,0,5.7-1.3,5.7-4.6C985.9,37,983.8,35.8,980.3,35.8z"/>
	</g>
</g>
<g class="code_off">
	<g>
		<path d="M912.5,30.8L915,27c0.8-1.2,0.9-2.8,0.2-4.1c-0.7-1.3-2-2.1-3.5-2.1h-1.9c-1.3,0-2.6,0.7-3.3,1.8l-2.9,4.4
			c-1.7-4.7-5.6-6.5-9.1-6.5c-2.2,0-4.5,0.7-6.3,2.3c-0.2-0.5-0.4-1-0.8-1.5c-0.8-0.9-1.8-1.3-3-1.3h-1.3c-0.9,0-1.7,0.3-2.4,0.8
			h-9.3c-2,0-3.7,1.5-4,3.4l-2,13.7c-0.2,1.4,0.3,2.8,1.4,3.7c-1.4,1.1-2.3,2.9-2.3,4.9c0,4.8,4.8,8.1,11.6,8.1
			c7.5,0,13-4.8,13.7-11.5c0.9,0.5,1.8,0.8,2.7,1l-2.5,3.8c-0.8,1.2-0.9,2.8-0.2,4.1c0.7,1.3,2,2.1,3.5,2.1h1.9
			c1.3,0,2.6-0.7,3.3-1.8l2.9-4.4c1.7,4.7,5.6,6.5,9.1,6.5c4.6,0,10-3.1,10-11.9C920.5,34.9,916.5,31.6,912.5,30.8z M877.7,43.2
			c0,0.9-0.2,1.2-0.8,1.2c-0.1-0.1-0.2-0.3-0.2-0.4c-0.4-0.6-1-1.5-1.9-2.3c0.2,0,0.4,0,0.6,0C875.8,41.8,877.7,41.9,877.7,43.2z"/>
		<path d="M1004.6,29.6l-2.2-6.2c-0.6-1.6-2.1-2.6-3.8-2.6h-20.3c-0.6,0-1.2,0.1-1.7,0.4c-0.5-0.2-1.1-0.4-1.7-0.4h-20.3
			c-1.9,0-3.5,1.3-3.9,3.1c-2.8-2.4-6.5-3.7-10.9-3.7c-9.9,0-16.5,6.9-16.5,17.1s6.6,17.1,16.5,17.1c4.3,0,8.1-1.3,10.9-3.7
			c0.4,1.8,2,3.1,3.9,3.1h11.4c2.2,0,4-1.8,4-4v-1.2c0-1.9-1.4-3.6-3.2-3.9v-3h0.3c0.3,1.9,2,3.3,3.9,3.3h1.3c2.2,0,4-1.8,4-4v-5.7
			c0.3,0,0.7-0.1,1-0.2v9.6c-1.8,0.4-3.2,2-3.2,3.9V50c0,2.2,1.8,4,4,4h11.4c2.2,0,4-1.8,4-4v-1.2c0-1.9-1.4-3.6-3.2-3.9v-3h0.3
			c0.3,1.9,2,3.3,3.9,3.3h1.3c2.2,0,4-1.8,4-4v-5.7c0.5,0,1.1-0.2,1.6-0.4l1-0.5C1004.5,33.7,1005.3,31.5,1004.6,29.6z M940,30.2
			c0.9,0,3.1,0,3.1,7.2s-2.2,7.2-3.1,7.2s-3.1,0-3.1-7.2S939,30.2,940,30.2z M966.9,31.8v-1c0.2,0,0.4,0,0.6,0
			c-0.1,0.3-0.3,0.6-0.3,1H966.9z M990.5,31.8v-1c0.2,0,0.4,0,0.6,0c-0.1,0.3-0.3,0.6-0.3,1H990.5z"/>
	</g>
	<g>
		<path class="st100" d="M885.7,41.6c0,4.9-3.5,8.9-9.8,8.9c-3.5,0-7.6-1.3-7.6-4.1c0-1.3,0.9-2.2,2-2.2c3.2,0,2.7,4.2,6.1,4.2
			c3.3,0,5.2-2.1,5.2-5.3c0-3.1-2.5-5.5-6.4-5.5c-1.7,0-3.4,0.4-4.9,1.2l-1.2-0.5l2-13.7h10.7c0.6,0,0.9-0.3,1-0.8h1.3l-0.6,5.2
			h-11.1l-0.7,4.9c1.1-0.5,2.7-0.8,4.2-0.8C882.1,33.3,885.7,37,885.7,41.6z"/>
		<path class="st100" d="M894.4,24.5c3.8,0,6,2.8,6,7.9c0,5-2.2,7.9-6,7.9s-6-2.8-6-7.9C888.4,27.3,890.6,24.5,894.4,24.5z M894.4,38.9
			c1.9,0,2.4-2,2.4-6.6c0-4.6-0.5-6.6-2.4-6.6c-1.9,0-2.3,1.9-2.3,6.6C892.1,36.9,892.5,38.9,894.4,38.9z M909.7,24.8h1.9L895.2,50
			h-1.9L909.7,24.8z M910.5,34.6c3.8,0,6,2.8,6,7.9c0,5-2.2,7.9-6,7.9c-3.8,0-6-2.8-6-7.9C904.5,37.4,906.7,34.6,910.5,34.6z
			 M910.5,49c1.9,0,2.4-2,2.4-6.6c0-4.6-0.5-6.6-2.4-6.6c-1.9,0-2.3,1.9-2.3,6.6C908.1,47,908.6,49,910.5,49z"/>
		<path class="st100" d="M940,24.3c7.8,0,12.5,5.4,12.5,13.1c0,7.8-4.8,13.1-12.5,13.1c-7.8,0-12.5-5.4-12.5-13.1
			C927.5,29.6,932.2,24.3,940,24.3z M940,48.6c5.4,0,7.1-4.7,7.1-11.2c0-6.5-1.8-11.2-7.1-11.2c-5.4,0-7.1,4.7-7.1,11.2
			C932.9,43.9,934.6,48.6,940,48.6z"/>
		<path class="st100" d="M962.9,35.8h5c2.6,0,3.1-1.2,3.2-3.3h1.3v8.6h-1.3c-0.1-2.1-0.6-3.3-3.2-3.3h-5V46c0,2.4,0.6,2.6,3.2,2.8V50
			h-11.4v-1.2c2.6-0.2,3.2-0.4,3.2-2.8V28.8c0-2.4-0.6-2.7-3.2-2.8v-1.2h20.3l2.2,6.2l-1,0.5c-2.3-3.2-4.9-4.7-9.5-4.7H964
			c-0.6,0-1.1,0.4-1.1,1.1V35.8z"/>
		<path class="st100" d="M986.5,35.8h5c2.6,0,3.1-1.2,3.2-3.3h1.3v8.6h-1.3c-0.1-2.1-0.6-3.3-3.2-3.3h-5V46c0,2.4,0.6,2.6,3.2,2.8V50
			h-11.4v-1.2c2.6-0.2,3.2-0.4,3.2-2.8V28.8c0-2.4-0.6-2.7-3.2-2.8v-1.2h20.3l2.2,6.2l-1,0.5c-2.3-3.2-4.9-4.7-9.5-4.7h-2.8
			c-0.6,0-1.1,0.4-1.1,1.1V35.8z"/>
	</g>
</g>
</svg>
