<?xml version="1.0" encoding="utf-8"?>
<!-- Generator: Adobe Illustrator 21.0.2, SVG Export Plug-In . SVG Version: 6.00 Build 0)  -->
<svg version="1.1" id="Layer_1" xmlns="http://www.w3.org/2000/svg" xmlns:xlink="http://www.w3.org/1999/xlink" x="0px" y="0px"
	 viewBox="0 0 1178 50" style="enable-background:new 0 0 1178 50;" xml:space="preserve">
<style type="text/css">
	.st0{fill:#082084;}
	.st1{fill:#FFFFFF;}
	.st2{fill:#FF0000;}
	.st3{font-family:'Helvetica';}
	.st4{font-size:23.5194px;}
	.code{
	-webkit-animation: flickerAnimation 4s infinite;
   -moz-animation: flickerAnimation 4s infinite;
   -o-animation: flickerAnimation 4s infinite;
    animation: flickerAnimation 4s infinite;
    }
	
		@keyframes flickerAnimation {
		  0%   { opacity:1; }
		  50%  { opacity:0; }
		  100% { opacity:1; }
		}
		@-o-keyframes flickerAnimation{
		  0%   { opacity:1; }
		  50%  { opacity:0; }
		  100% { opacity:1; }
		}
		@-moz-keyframes flickerAnimation{
		  0%   { opacity:1; }
		  50%  { opacity:0; }
		  100% { opacity:1; }
		}
		@-webkit-keyframes flickerAnimation{
		  0%   { opacity:1; }
		  50%  { opacity:0; }
		  100% { opacity:1; }
		}
</style>
<g>
	<rect x="-16" y="-9" class="st0" width="1210" height="69"/>
</g>
<polygon class="st1" points="23.5,15.9 26.4,21.6 32.9,22.5 28.2,26.9 29.3,33.2 23.5,30.2 17.6,33.2 18.7,26.9 14,22.5 20.5,21.6 
	"/>
<polygon class="st2" points="67,15.9 70,21.6 76.5,22.5 71.8,26.9 72.9,33.2 67,30.2 61.2,33.2 62.3,26.9 57.6,22.5 64.1,21.6 "/>
<polygon class="st1" points="110.6,15.9 113.5,21.6 120.1,22.5 115.3,26.9 116.5,33.2 110.6,30.2 104.8,33.2 105.9,26.9 101.2,22.5 
	107.7,21.6 "/>
<polygon class="st2" points="154.2,15.9 157.1,21.6 163.6,22.5 158.9,26.9 160,33.2 154.2,30.2 148.4,33.2 149.5,26.9 144.7,22.5 
	151.3,21.6 "/>
<polygon class="st1" points="197.8,15.9 200.7,21.6 207.2,22.5 202.5,26.9 203.6,33.2 197.8,30.2 191.9,33.2 193,26.9 188.3,22.5 
	194.9,21.6 "/>
<polygon class="st2" points="241.4,15.9 244.3,21.6 250.8,22.5 246.1,26.9 247.2,33.2 241.4,30.2 235.5,33.2 236.6,26.9 231.9,22.5 
	238.4,21.6 "/>
<polygon class="st1" points="284.9,15.9 287.9,21.6 294.4,22.5 289.7,26.9 290.8,33.2 284.9,30.2 279.1,33.2 280.2,26.9 275.5,22.5 
	282,21.6 "/>
<polygon class="st2" points="328.5,15.9 331.4,21.6 338,22.5 333.2,26.9 334.4,33.2 328.5,30.2 322.7,33.2 323.8,26.9 319.1,22.5 
	325.6,21.6 "/>
<polygon class="st1" points="372.1,15.9 375,21.6 381.6,22.5 376.8,26.9 377.9,33.2 372.1,30.2 366.3,33.2 367.4,26.9 362.6,22.5 
	369.2,21.6 "/>
<polygon class="st1" points="415.7,15.9 418.6,21.6 425.1,22.5 420.4,26.9 421.5,33.2 415.7,30.2 409.8,33.2 411,26.9 406.2,22.5 
	412.8,21.6 "/>
<polygon class="st1" points="459.3,15.9 462.2,21.6 468.7,22.5 464,26.9 465.1,33.2 459.3,30.2 453.4,33.2 454.5,26.9 449.8,22.5 
	456.3,21.6 "/>
<polygon class="st1" points="502.8,15.9 505.8,21.6 512.3,22.5 507.6,26.9 508.7,33.2 502.8,30.2 497,33.2 498.1,26.9 493.4,22.5 
	499.9,21.6 "/>
<polygon class="st1" points="546.4,15.9 549.3,21.6 555.9,22.5 551.1,26.9 552.3,33.2 546.4,30.2 540.6,33.2 541.7,26.9 537,22.5 
	543.5,21.6 "/>
<polygon class="st1" points="590,15.9 592.9,21.6 599.5,22.5 594.7,26.9 595.8,33.2 590,30.2 584.2,33.2 585.3,26.9 580.5,22.5 
	587.1,21.6 "/>
<polygon class="st1" points="633.6,15.9 636.5,21.6 643,22.5 638.3,26.9 639.4,33.2 633.6,30.2 627.7,33.2 628.9,26.9 624.1,22.5 
	630.7,21.6 "/>
<polygon class="st1" points="677.2,15.9 680.1,21.6 686.6,22.5 681.9,26.9 683,33.2 677.2,30.2 671.3,33.2 672.4,26.9 667.7,22.5 
	674.2,21.6 "/>
<polygon class="st1" points="720.7,15.9 723.7,21.6 730.2,22.5 725.5,26.9 726.6,33.2 720.7,30.2 714.9,33.2 716,26.9 711.3,22.5 
	717.8,21.6 "/>
<polygon class="st1" points="764.3,15.9 767.2,21.6 773.8,22.5 769,26.9 770.2,33.2 764.3,30.2 758.5,33.2 759.6,26.9 754.9,22.5 
	761.4,21.6 "/>
<polygon class="st1" points="807.9,15.9 810.8,21.6 817.4,22.5 812.6,26.9 813.7,33.2 807.9,30.2 802.1,33.2 803.2,26.9 798.4,22.5 
	805,21.6 "/>
<polygon class="st2" points="851.5,15.9 854.4,21.6 860.9,22.5 856.2,26.9 857.3,33.2 851.5,30.2 845.6,33.2 846.8,26.9 842,22.5 
	848.6,21.6 "/>
<polygon class="st1" points="895.1,15.9 898,21.6 904.5,22.5 899.8,26.9 900.9,33.2 895.1,30.2 889.2,33.2 890.3,26.9 885.6,22.5 
	892.1,21.6 "/>
<polygon class="st2" points="938.6,15.9 941.6,21.6 948.1,22.5 943.4,26.9 944.5,33.2 938.6,30.2 932.8,33.2 933.9,26.9 929.2,22.5 
	935.7,21.6 "/>
<polygon class="st1" points="982.2,15.9 985.1,21.6 991.7,22.5 987,26.9 988.1,33.2 982.2,30.2 976.4,33.2 977.5,26.9 972.8,22.5 
	979.3,21.6 "/>
<polygon class="st2" points="1025.8,15.9 1028.7,21.6 1035.3,22.5 1030.5,26.9 1031.6,33.2 1025.8,30.2 1020,33.2 1021.1,26.9 
	1016.4,22.5 1022.9,21.6 "/>
<polygon class="st1" points="1069.4,15.9 1072.3,21.6 1078.8,22.5 1074.1,26.9 1075.2,33.2 1069.4,30.2 1063.5,33.2 1064.7,26.9 
	1059.9,22.5 1066.5,21.6 "/>
<polygon class="st2" points="1113,15.9 1115.9,21.6 1122.4,22.5 1117.7,26.9 1118.8,33.2 1113,30.2 1107.1,33.2 1108.2,26.9 
	1103.5,22.5 1110,21.6 "/>
<polygon class="st1" points="1156.5,15.9 1159.5,21.6 1166,22.5 1161.3,26.9 1162.4,33.2 1156.5,30.2 1150.7,33.2 1151.8,26.9 
	1147.1,22.5 1153.6,21.6 "/>
<g>
	<g>
		<rect x="356.1" y="9.5" class="st0" width="465.8" height="32"/>
		<path class="st1" d="M821.3,10v31H356.7V10H821.3 M822.5,9H355.5v33h466.9V9L822.5,9z"/>
	</g>
	<g>
		<path class="st1" d="M384.4,16.9c1.2-0.2,2.8-0.4,5.2-0.4c2.4,0,4,0.5,5.2,1.4c1.1,0.9,1.8,2.3,1.8,3.9s-0.6,3.1-1.6,4
			c-1.3,1.2-3.2,1.8-5.5,1.8c-0.5,0-1,0-1.3-0.1v6.1h-3.8L384.4,16.9L384.4,16.9z M388.3,24.6c0.3,0.1,0.7,0.1,1.3,0.1
			c2,0,3.3-1,3.3-2.8c0-1.6-1.1-2.5-3-2.5c-0.8,0-1.3,0.1-1.6,0.2L388.3,24.6L388.3,24.6z"/>
		<path class="st1" d="M399,16.9c1.2-0.2,3.1-0.4,5.1-0.4c2.5,0,4.3,0.4,5.5,1.3c1,0.8,1.6,2,1.6,3.5c0,2.2-1.5,3.6-3,4.2v0.1
			c1.2,0.5,1.8,1.6,2.3,3.2c0.5,1.9,1.1,4.1,1.4,4.8H408c-0.3-0.5-0.7-1.9-1.2-3.9c-0.5-2.1-1.2-2.7-2.7-2.7h-1.2v6.7H399V16.9z
			 M402.8,24.2h1.5c1.9,0,3-1,3-2.4c0-1.6-1.1-2.3-2.8-2.4c-0.9,0-1.5,0.1-1.7,0.1V24.2z"/>
		<path class="st1" d="M424,26.4h-6.2v4h7v3.1H414V16.7h10.5v3.1h-6.6v3.5h6.2v3.1H424z"/>
		<path class="st1" d="M427.5,29.7c1,0.5,2.6,1.1,4.2,1.1c1.8,0,2.7-0.7,2.7-1.8c0-1.1-0.8-1.7-2.8-2.4c-2.8-1-4.6-2.5-4.6-5
			c0-2.9,2.4-5.1,6.4-5.1c1.9,0,3.3,0.4,4.3,0.9l-0.9,3.1c-0.7-0.3-1.9-0.8-3.5-0.8s-2.5,0.8-2.5,1.6c0,1.1,1,1.6,3.1,2.4
			c3,1.1,4.4,2.7,4.4,5.1c0,2.8-2.2,5.3-6.8,5.3c-1.9,0-3.8-0.5-4.8-1L427.5,29.7z"/>
		<path class="st1" d="M444.8,16.7v16.9H441V16.7H444.8z"/>
		<path class="st1" d="M448.1,16.9c1.4-0.2,3.2-0.4,5.2-0.4c3.2,0,5.3,0.6,6.9,1.8c1.8,1.3,2.9,3.4,2.9,6.4c0,3.2-1.2,5.5-2.8,6.9
			c-1.8,1.5-4.5,2.2-7.8,2.2c-2,0-3.4-0.1-4.3-0.3V16.9H448.1z M451.9,30.7c0.3,0.1,0.9,0.1,1.3,0.1c3.5,0,5.7-1.9,5.7-5.9
			c0-3.5-2-5.4-5.3-5.4c-0.9,0-1.4,0.1-1.7,0.2V30.7z"/>
		<path class="st1" d="M475.6,26.4h-6.2v4h7v3.1h-10.8V16.7H476v3.1h-6.6v3.5h6.2V26.4z"/>
		<path class="st1" d="M479,33.6V16.7h4.5l3.5,6.2c1,1.8,2,3.9,2.8,5.8h0.1c-0.3-2.2-0.3-4.5-0.3-7.1v-5h3.5v16.9h-4l-3.6-6.5
			c-1-1.8-2.1-4-2.9-6h-0.1c0.1,2.2,0.2,4.6,0.2,7.4v5.1L479,33.6L479,33.6z"/>
		<path class="st1" d="M499.6,19.9H495v-3.2h13v3.2h-4.6v13.7h-3.8L499.6,19.9L499.6,19.9z"/>
		<path class="st1" d="M510,29.7c1,0.5,2.6,1.1,4.2,1.1c1.8,0,2.7-0.7,2.7-1.8c0-1.1-0.8-1.7-2.8-2.4c-2.8-1-4.6-2.5-4.6-5
			c0-2.9,2.4-5.1,6.4-5.1c1.9,0,3.3,0.4,4.3,0.9l-0.9,3.1c-0.7-0.3-1.9-0.8-3.5-0.8s-2.5,0.8-2.5,1.6c0,1.1,1,1.6,3.1,2.4
			c3,1.1,4.4,2.7,4.4,5.1c0,2.8-2.2,5.3-6.8,5.3c-1.9,0-3.8-0.5-4.8-1L510,29.7z"/>
		<path class="st1" d="M528.5,16.9c1.4-0.2,3.2-0.4,5.2-0.4c3.2,0,5.3,0.6,6.9,1.8c1.8,1.3,2.9,3.4,2.9,6.4c0,3.2-1.2,5.5-2.8,6.9
			c-1.8,1.5-4.5,2.2-7.8,2.2c-2,0-3.4-0.1-4.3-0.3V16.9H528.5z M532.3,30.7c0.3,0.1,0.9,0.1,1.3,0.1c3.5,0,5.7-1.9,5.7-5.9
			c0-3.5-2-5.4-5.3-5.4c-0.9,0-1.4,0.1-1.7,0.2V30.7z"/>
		<path class="st1" d="M549.5,29.3l-1.2,4.3h-4l5.2-16.9h5l5.3,16.9h-4.1l-1.3-4.3H549.5z M553.8,26.4l-1.1-3.6
			c-0.3-1-0.6-2.3-0.9-3.3h-0.1c-0.3,1-0.5,2.3-0.8,3.3l-1,3.6H553.8z"/>
		<path class="st1" d="M563.6,33.6v-6.9l-5.4-10h4.4l1.7,4.1c0.5,1.2,0.9,2.1,1.3,3.2l0,0c0.4-1.1,0.8-2,1.3-3.2l1.7-4.1h4.3
			l-5.6,9.9v7.1L563.6,33.6L563.6,33.6z"/>
		<path class="st1" d="M580,29.7c1,0.5,2.6,1.1,4.2,1.1c1.8,0,2.7-0.7,2.7-1.8c0-1.1-0.8-1.7-2.8-2.4c-2.8-1-4.6-2.5-4.6-5
			c0-2.9,2.4-5.1,6.4-5.1c1.9,0,3.3,0.4,4.3,0.9l-0.9,3.1c-0.7-0.3-1.9-0.8-3.5-0.8c-1.7,0-2.5,0.8-2.5,1.6c0,1.1,1,1.6,3.1,2.4
			c3,1.1,4.4,2.7,4.4,5.1c0,2.8-2.2,5.3-6.8,5.3c-1.9,0-3.8-0.5-4.8-1L580,29.7z"/>
		<path class="st1" d="M597.5,29.3l-1.2,4.3h-4l5.2-16.9h5l5.3,16.9h-4.1l-1.3-4.3H597.5z M601.8,26.4l-1.1-3.6
			c-0.3-1-0.6-2.3-0.9-3.3h-0.1c-0.3,1-0.5,2.3-0.8,3.3l-1,3.6H601.8z"/>
		<path class="st1" d="M610,16.7h3.8v13.7h6.7v3.2h-10.6L610,16.7L610,16.7z"/>
		<path class="st1" d="M633,26.4h-6.2v4h7v3.1H623V16.7h10.5v3.1h-6.6v3.5h6.2v3.1H633z"/>
	</g>
	<g>
		<path class="st1" d="M694.8,35.5v-2.3c-1.6-0.1-3.2-0.5-4.2-1.1l0.7-2.9c1,0.6,2.5,1.1,4.1,1.1c1.4,0,2.4-0.5,2.4-1.5
			c0-0.9-0.8-1.5-2.6-2.1c-2.6-0.9-4.4-2.1-4.4-4.5c0-2.2,1.5-3.9,4.2-4.4v-2.4h2.4v2.2c1.6,0.1,2.8,0.4,3.6,0.8l-0.7,2.8
			c-0.6-0.3-1.8-0.8-3.5-0.8c-1.6,0-2.1,0.7-2.1,1.4c0,0.8,0.9,1.3,2.9,2.1c2.9,1,4.1,2.4,4.1,4.6s-1.5,4.1-4.4,4.5v2.5H694.8z"/>
		<path class="st1" d="M704,33.4v-2.3l2.1-1.9c3.5-3.1,5.2-4.9,5.2-6.8c0-1.3-0.8-2.3-2.6-2.3c-1.4,0-2.6,0.7-3.4,1.3l-1.1-2.7
			c1.2-0.9,3.1-1.6,5.2-1.6c3.6,0,5.6,2.1,5.6,5c0,2.7-1.9,4.8-4.3,6.9l-1.5,1.2l0,0h6v3.1H704V33.4z"/>
		<path class="st1" d="M729.4,25.4c0,4.9-2,8.3-6.1,8.3s-5.9-3.7-6-8.2c0-4.6,2-8.3,6.1-8.3C727.8,17.2,729.4,21,729.4,25.4z
			 M721.2,25.5c0,3.7,0.9,5.4,2.3,5.4c1.4,0,2.2-1.8,2.2-5.5c0-3.5-0.8-5.4-2.3-5.4C722,20,721.2,21.8,721.2,25.5z"/>
		<path class="st1" d="M752,25c0,5.4-3.3,8.7-8.1,8.7c-4.9,0-7.8-3.7-7.8-8.4c0-5,3.2-8.7,8.1-8.7C749.3,16.6,752,20.4,752,25z
			 M740,25.2c0,3.2,1.5,5.5,4,5.5s4-2.4,4-5.6c0-3-1.4-5.5-4-5.5C741.5,19.6,740,22,740,25.2z"/>
		<path class="st1" d="M762.7,33.4v-9.3h-3.8v9.3h-3.8v-9.3h-1.6v-2.8h1.6v-0.2c0-1.4,0.4-2.9,1.4-3.9c0.8-0.8,2-1.3,3.7-1.3
			c0.6,0,1.2,0.1,1.6,0.3l-0.5,2.8c-0.3-0.1-0.6-0.2-1-0.2c-1.1,0-1.5,0.9-1.5,2.1v0.4h3.9v-0.5c0-1.4,0.4-3,1.5-4
			c0.9-0.9,2.2-1.2,3.3-1.2c0.8,0,1.5,0.1,2,0.2l-0.1,2.9c-0.3-0.1-0.7-0.2-1.2-0.2c-1.2,0-1.7,1-1.7,2.1v0.6h2.4V24h-2.4v9.3h-3.8
			V33.4z"/>
	</g>
</g>
<rect x="651.9" y="12" class="st0 code" width="156.5" height="27"/>
<text transform="matrix(1 0 0 1 650 33.2211)" class="st1 st3 st4 code">CODE: 1WABR</text>
</svg>
