<?xml version="1.0" encoding="utf-8"?>
<!-- Generator: Adobe Illustrator 21.0.2, SVG Export Plug-In . SVG Version: 6.00 Build 0)  -->
<svg version="1.1" xmlns="http://www.w3.org/2000/svg" xmlns:xlink="http://www.w3.org/1999/xlink" x="0px" y="0px"
	 viewBox="0 0 1500 75" style="enable-background:new 0 0 1500 75;" xml:space="preserve">
<style type="text/css">
	.st0{fill:#5E005E;}
	.st1{fill:#3B003D;}
	.st2{fill:#300029;}
	.st3{fill:#FF00CF;}
	.st100{fill:#FF00CF;}
	.code_on{
	-webkit-animation: flickerAnimation 4s infinite;
    -moz-animation: flickerAnimation 4s infinite;
    -o-animation: flickerAnimation 4s infinite;
    animation: flickerAnimation 4s infinite;
    }
    .code_off{
	-webkit-animation: flickerAnimationOff 4s infinite;
    -moz-animation: flickerAnimationOff 4s infinite;
    -o-animation: flickerAnimationOff 4s infinite;
    animation: flickerAnimationOff 4s infinite;
    }
	
		@keyframes flickerAnimation {
		  0%   { opacity:1; }
		  50%  { opacity:0; }
		  100% { opacity:1; }
		}
		@-o-keyframes flickerAnimation{
		  0%   { opacity:1; }
		  50%  { opacity:0; }
		  100% { opacity:1; }
		}
		@-moz-keyframes flickerAnimation{
		  0%   { opacity:1; }
		  50%  { opacity:0; }
		  100% { opacity:1; }
		}
		@-webkit-keyframes flickerAnimation{
		  0%   { opacity:1; }
		  50%  { opacity:0; }
		  100% { opacity:1; }
		}
		@keyframes flickerAnimationOff {
		  0%   { opacity:0; }
		  50%  { opacity:1; }
		  100% { opacity:0; } 
		}
		@-o-keyframes flickerAnimationOff{
		  0%   { opacity:0; }
		  50%  { opacity:1; }
		  100% { opacity:0; }
		}
		@-moz-keyframes flickerAnimationOff{
		  0%   { opacity:0; }
		  50%  { opacity:1; }
		  100% { opacity:0; }
		}
		@-webkit-keyframes flickerAnimationOff{
		  0%   { opacity:0; }
		  50%  { opacity:1; }
		  100% { opacity:0; }
		}
</style>
<symbol  id="HEARRT_1_" viewBox="-125.7 -29.6 251.5 59.1">
	<path class="st0" d="M72,26.4c0.5,0,1.1,0,1.7-0.1c3.7-0.4,8-3.7,8.5-10.2v-2.2C81.7,7.7,77,0,63.3-9.6C49.6,0,44.9,7.7,44.4,13.9
		v2.2c0.5,6.5,4.8,9.9,8.5,10.2c0.6,0.1,1.2,0.1,1.7,0.1c4.3,0,6.3-1.8,8.7-4.6C65.6,24.6,67.7,26.4,72,26.4 M72,22.3
		c-2.5,0-3.5-0.8-5.5-3.2l-3.2-3.8l-3.2,3.8c-2,2.4-3.1,3.2-5.5,3.2c-0.4,0-0.8,0-1.3-0.1c-1.7-0.2-4.4-2-4.8-6.3v-1.8
		C49,8.7,54,2.4,63.3-4.5C72.6,2.4,77.5,8.7,78,14.1v1.8c-0.4,4.3-3.1,6.1-4.8,6.3C72.8,22.3,72.4,22.3,72,22.3L72,22.3z"/>
	<path class="st0" d="M37.9-1c0.4,0.1,0.7,0.3,1.2,0.4c2.6,0.8,6.4-0.3,8.5-4.5l0.6-1.4c1.4-4.3,0.4-10.7-6-20.9
		C30.4-24.8,25.1-21,23-17l-0.6,1.4c-1.5,4.5,0.4,7.9,2.8,9.2C25.6-6.1,26-6,26.4-5.8c2.8,1.2,4.7,0.5,7.1-0.7
		C34.2-4,35.1-2.2,37.9-1 M39.1-3.7c-1.6-0.7-2.1-1.5-2.8-3.6l-1.1-3.4l-3.2,1.6c-2,1-2.9,1.3-4.6,0.6C27.2-8.7,27-8.8,26.7-9
		c-1.1-0.6-2.4-2.5-1.4-5.5l0.5-1.2c1.8-3.5,6.9-6.3,15-8.3c4.3,7.2,5.8,12.7,4.7,16.5l-0.5,1.2C43.4-3.5,41.1-3,40-3.4
		C39.6-3.5,39.3-3.6,39.1-3.7L39.1-3.7z"/>
	<path class="st0" d="M94.2-10.1c0.2-0.1,0.5-0.3,0.7-0.5c1.5-1.1,2.6-3.6,1.2-6.5l-0.5-0.9c-1.7-2.6-5.7-4.8-14-5.6
		c-3.6,7.6-3.8,12-2.5,14.9l0.5,0.9c1.8,2.7,4.5,3.1,6.2,2.4c0.3-0.1,0.5-0.3,0.8-0.4c1.9-1,2.3-2.4,2.6-4.2
		C91-9.4,92.3-9.1,94.2-10.1 M93.2-11.9c-1.1,0.6-1.7,0.5-3.2,0l-2.3-0.9l-0.5,2.4c-0.3,1.6-0.6,2.1-1.6,2.7
		c-0.2,0.1-0.4,0.2-0.6,0.3c-0.8,0.3-2.4,0.2-3.6-1.6l-0.4-0.8c-1.1-2.5-0.5-6.4,1.9-11.7c5.7,0.7,9.4,2.2,11,4.5l0.4,0.8
		c0.9,2,0.2,3.4-0.5,3.9C93.5-12.1,93.3-12,93.2-11.9L93.2-11.9z"/>
	<path class="st0" d="M-0.1,8.6C0.5,8.7,1,8.7,1.6,8.7c3.7,0,8.3-2.9,9.6-9.2l0.2-2.1C11.6-8.9,7.8-17-4.7-28.1
		C-19.4-20-24.9-12.9-26.1-6.8l-0.2,2.1C-26.5,1.9-22.6,5.7-19,6.5c0.6,0.1,1.2,0.2,1.7,0.3c4.2,0.5,6.5-1.1,9.1-3.7
		C-6.2,6.1-4.3,8.2-0.1,8.6 M0.4,4.5C-2.1,4.3-3,3.4-4.7,0.8l-2.7-4.1L-11,0.1c-2.3,2.2-3.4,2.8-5.8,2.5c-0.4,0-0.8-0.1-1.3-0.2
		c-1.7-0.4-4.1-2.5-4-6.8l0.2-1.8c1.1-5.3,6.7-11,16.7-16.8C3.2-15.1,7.4-8.4,7.3-2.9L7.1-1.1C6.2,3.1,3.4,4.6,1.7,4.6
		C1.2,4.6,0.8,4.6,0.4,4.5L0.4,4.5z"/>
	<path class="st0" d="M15.5,18.8c2,0.8,3.3,0.4,4.9-0.4c0.5,1.7,1.1,3,3.1,3.8c0.2,0.1,0.5,0.2,0.8,0.3c1.8,0.6,4.4-0.2,5.9-3l0.4-1
		c1-3,0.3-7.4-4.1-14.5C18.4,5.7,14.7,8.3,13.3,11l-0.4,1c-1,3.1,0.3,5.5,1.9,6.4C15,18.5,15.3,18.7,15.5,18.8 M16.3,16.9
		c-0.2-0.1-0.4-0.2-0.6-0.3c-0.8-0.4-1.6-1.8-1-3.8l0.4-0.8c1.3-2.4,4.8-4.3,10.4-5.6c2.9,5,4,8.8,3.1,11.4l-0.4,0.8
		c-1,1.9-2.6,2.2-3.4,2c-0.2-0.1-0.4-0.1-0.6-0.2c-1.1-0.5-1.5-1-1.9-2.5l-0.7-2.4l-2.2,1.1C18.1,17.2,17.5,17.3,16.3,16.9
		L16.3,16.9z"/>
	<g>
		<g>
			<path class="st0" d="M-67.7-23.4l-0.4,0.6c-0.5,0.7-1,1.3-1.5,2l1.6,1.2c0.4-0.5,0.7-0.9,1.1-1.4c0.6,0.2,1.1,0.4,1.7,0.6
				l0.6-1.9c-0.8-0.3-1.6-0.5-2.4-0.8L-67.7-23.4z"/>
			<path class="st0" d="M-72.6-16.7c-1,1.4-1.9,2.9-2.8,4.3l1.7,1.1c0.8-1.3,1.8-2.8,2.8-4.2L-72.6-16.7z M-78-8.1
				c-0.9,1.6-1.6,3.1-2.3,4.6l1.8,0.8c0.6-1.4,1.4-2.9,2.2-4.4L-78-8.1z M-82.2,1.3c-0.6,1.7-1,3.4-1.3,5l2,0.4
				c0.3-1.5,0.7-3.1,1.2-4.7L-82.2,1.3z M-81.9,11.5l-2,0c0,1.5,0.2,3,0.5,4.4l0.3,0.9l1.9-0.6l-0.2-0.8
				C-81.8,14.2-81.9,12.9-81.9,11.5z M-79.4,20.6l-1.7,1c0.9,1.6,2.1,3,3.3,4.2l1.3-1.5C-77.6,23.3-78.6,22.1-79.4,20.6z M-59.5,24
				c-1.1,1-2.3,1.8-3.9,2.4l0.7,1.9c1.8-0.7,3.3-1.6,4.6-2.8L-59.5,24z M-72.5,26.8l-0.7,1.9c1.8,0.7,3.6,1,5.4,0.9l-0.1-2
				C-69.5,27.6-71.1,27.4-72.5,26.8z"/>
			<path class="st0" d="M-55.3,16.8l-0.5,1.1c-0.4,0.9-0.7,1.6-1,2.2l1.8,0.9c0.2-0.4,0.4-0.8,0.6-1.3c0.4,0.3,0.8,0.5,1.2,0.7
				l1-1.7c-0.6-0.3-1.3-0.7-2.1-1.3L-55.3,16.8z"/>
			<path class="st0" d="M-59.8-20.7l-0.7,1.9c1.6,0.6,3.2,1.3,4.6,1.9l0.8-1.8C-56.6-19.4-58.2-20-59.8-20.7z M-50.5-16.5l-0.9,1.8
				c1.5,0.8,3,1.6,4.3,2.4l1-1.7C-47.4-14.9-48.9-15.7-50.5-16.5z M-41.8-11.1L-43-9.5c1.4,1,2.6,2.1,3.7,3.2l1.4-1.4
				C-39.1-8.8-40.4-10-41.8-11.1z M-34.6-3.6l-1.7,1.1c0.7,1.1,1.4,2.3,1.8,3.5l0.2,0.8l1.9-0.6l-0.3-0.8C-33.1-1-33.8-2.3-34.6-3.6
				z M-31.3,6.3l-2,0.1c0,0.4,0,0.8,0,1.1c0,1.2-0.1,2.4-0.4,3.6l1.9,0.5c0.3-1.3,0.5-2.7,0.5-4C-31.2,7.2-31.2,6.8-31.3,6.3z
				 M-35.5,15.4c-0.9,1.3-2.1,2.4-3.3,3.2l1,1.7c1.5-0.9,2.9-2.2,3.9-3.7L-35.5,15.4z M-43.3,20.3c-1.7,0.4-3.1,0.4-4.6,0.2l-0.3,2
				c1.7,0.3,3.5,0.2,5.4-0.2L-43.3,20.3z"/>
		</g>
	</g>
	<g>
		<path class="st0" d="M-89.1,3.2c3.6-5.7,4.4-15.5-1.4-32.7c-18.2-0.4-27.2,3.3-31.6,8.4l-1.4,1.9c-3.7,6-2.2,11.7,0.8,14.4
			c0.5,0.4,1,0.8,1.4,1.2c3.7,2.8,6.7,2.5,10.6,1.5c0.3,4,0.9,6.9,4.6,9.6c0.5,0.3,1,0.7,1.6,1c3.5,2.1,9.4,1.9,14-3.5L-89.1,3.2z"
			/>
	</g>
	<g>
		<g>
			<path class="st0" d="M109-7.8l-0.6,0.4c-0.7,0.5-1.4,1-2.1,1.5l1.2,1.6c0.5-0.3,0.9-0.7,1.4-1c0.5,0.4,1,0.7,1.4,1l1.2-1.6
				c-0.7-0.5-1.3-1-2.1-1.5L109-7.8z"/>
			<path class="st0" d="M102.4-2.8c-1.4,1.2-2.6,2.3-3.7,3.5l1.4,1.4c1-1.1,2.2-2.2,3.5-3.3L102.4-2.8z M95.5,4.6
				c-1.1,1.5-1.9,3.1-2.4,4.6l1.9,0.7c0.5-1.3,1.2-2.7,2.2-4.1L95.5,4.6z M94.2,14.4h-2v0.4c0.1,1.9,0.6,3.5,1.4,4.9l1.8-1
				c-0.6-1.2-1-2.5-1.1-4L94.2,14.4z M98.4,21.7l-0.9,1.8c0.9,0.5,1.8,0.7,2.7,0.8c1,0.1,1.9,0.1,2.7,0l-0.2-2
				c-0.7,0.1-1.4,0.1-2.3,0C99.8,22.3,99.1,22.1,98.4,21.7z"/>
			<path class="st0" d="M109,18l-0.8,0.9c-0.6,0.8-1.1,1.3-1.6,1.7l1.3,1.5c0.4-0.3,0.7-0.7,1-1c0.3,0.3,0.7,0.7,1,1l1.3-1.5
				c-0.5-0.4-1-1-1.6-1.7L109,18z"/>
			<path class="st0" d="M115.6-2.8l-1.3,1.5c1.3,1.1,2.5,2.2,3.5,3.3l1.4-1.4C118.2-0.4,116.9-1.6,115.6-2.8z M122.5,4.7l-1.6,1.1
				c1,1.4,1.7,2.8,2.2,4.1l1.9-0.7C124.4,7.7,123.6,6.2,122.5,4.7z M125.7,14.5h-2v0.3c-0.1,1.4-0.5,2.8-1.1,3.9l1.8,1
				c0.8-1.4,1.2-3,1.4-4.8L125.7,14.5z M119.5,21.8c-0.6,0.3-1.3,0.5-2,0.6c-0.9,0.1-1.6,0.1-2.3,0l-0.2,2c0.8,0.1,1.7,0.1,2.7,0
				c0.9-0.1,1.8-0.4,2.7-0.8L119.5,21.8z"/>
		</g>
	</g>
</symbol>
<g id="Layer_1">
	<rect class="st1" width="1500" height="75"/>
	<g id="Favorite">
	</g>
	<path class="st0" d="M207.6,10c0.5,0,1.1,0,1.7,0.1c3.7,0.4,8,3.7,8.5,10.2v2.2c-0.5,6.2-5.2,13.9-18.9,23.5
		c-13.7-9.6-18.4-17.3-18.9-23.5v-2.2c0.5-6.5,4.8-9.9,8.5-10.2c0.6-0.1,1.2-0.1,1.7-0.1c4.3,0,6.3,1.8,8.7,4.6
		C201.2,11.8,203.3,10,207.6,10 M207.6,14.1c-2.5,0-3.5,0.8-5.5,3.2l-3.2,3.8l-3.2-3.8c-2-2.4-3.1-3.2-5.5-3.2c-0.4,0-0.8,0-1.3,0.1
		c-1.7,0.2-4.4,2-4.8,6.3v1.8c0.5,5.4,5.5,11.7,14.8,18.6c9.3-6.9,14.3-13.1,14.8-18.6v-1.8c-0.4-4.3-3.1-6.1-4.8-6.3
		C208.4,14.2,208,14.1,207.6,14.1L207.6,14.1z"/>
	<path class="st0" d="M179.5,37.4c0.4-0.1,0.7-0.3,1.2-0.4c2.6-0.8,6.4,0.3,8.5,4.5l0.6,1.4c1.4,4.3,0.4,10.7-6,20.9
		c-11.8-2.6-17.1-6.4-19.1-10.4L164,52c-1.5-4.5,0.4-7.9,2.8-9.2c0.4-0.2,0.8-0.4,1.1-0.5c2.8-1.2,4.7-0.5,7.1,0.7
		C175.8,40.4,176.7,38.6,179.5,37.4 M180.7,40.1c-1.6,0.7-2.1,1.5-2.8,3.6l-1.1,3.4l-3.2-1.6c-2-1-2.9-1.3-4.6-0.6
		c-0.3,0.1-0.6,0.3-0.9,0.4c-1.1,0.6-2.4,2.5-1.4,5.5l0.5,1.2c1.8,3.5,6.9,6.3,15,8.3c4.3-7.2,5.8-12.7,4.7-16.5l-0.5-1.2
		c-1.5-2.8-3.8-3.2-4.9-2.9C181.2,39.9,180.9,40,180.7,40.1L180.7,40.1z"/>
	<path class="st0" d="M229.8,46.5c0.2,0.1,0.5,0.3,0.7,0.5c1.5,1.1,2.6,3.6,1.2,6.5l-0.5,0.9c-1.7,2.6-5.7,4.8-14,5.6
		c-3.6-7.6-3.8-12-2.5-14.9l0.5-0.9c1.8-2.7,4.5-3.1,6.2-2.4c0.3,0.1,0.5,0.3,0.8,0.4c1.9,1,2.3,2.4,2.6,4.2
		C226.6,45.8,227.9,45.5,229.8,46.5 M228.8,48.3c-1.1-0.6-1.7-0.5-3.2,0l-2.3,0.9l-0.5-2.4c-0.3-1.6-0.6-2.1-1.6-2.7
		c-0.2-0.1-0.4-0.2-0.6-0.3c-0.8-0.3-2.4-0.2-3.6,1.6l-0.4,0.8c-1.1,2.5-0.5,6.4,1.9,11.7c5.7-0.7,9.4-2.2,11-4.5l0.4-0.8
		c0.9-2,0.2-3.4-0.5-3.9C229.1,48.5,228.9,48.4,228.8,48.3L228.8,48.3z"/>
	<path class="st0" d="M141.5,27.8c0.5-0.1,1.1-0.1,1.7-0.1c3.7,0,8.3,2.9,9.6,9.2l0.2,2.1c0.2,6.2-3.6,14.4-16.2,25.4
		c-14.7-8.1-20.2-15.2-21.3-21.3l-0.2-2.1c-0.2-6.5,3.7-10.3,7.3-11.1c0.6-0.1,1.2-0.2,1.7-0.3c4.2-0.5,6.5,1.1,9.1,3.7
		C135.4,30.3,137.3,28.2,141.5,27.8 M142,31.9c-2.4,0.3-3.4,1.1-5.1,3.8l-2.7,4.1l-3.6-3.4c-2.3-2.2-3.4-2.8-5.8-2.5
		c-0.4,0-0.8,0.1-1.3,0.2c-1.7,0.4-4.1,2.5-4,6.8l0.2,1.8c1.1,5.3,6.7,11,16.7,16.8c8.5-7.9,12.7-14.6,12.6-20.1l-0.2-1.8
		c-0.9-4.3-3.7-5.8-5.4-5.7C142.8,31.8,142.4,31.8,142,31.9L142,31.9z"/>
	<path class="st0" d="M157.1,17.6c2-0.8,3.3-0.4,4.9,0.4c0.5-1.7,1.1-3,3.1-3.8c0.2-0.1,0.5-0.2,0.8-0.3c1.8-0.6,4.4,0.2,5.9,3
		l0.4,1c1,3,0.3,7.4-4.1,14.5c-8.2-1.7-11.9-4.3-13.3-7.1l-0.4-1c-1-3.1,0.3-5.5,1.9-6.4C156.6,17.9,156.9,17.8,157.1,17.6
		 M157.9,19.5c-0.2,0.1-0.4,0.2-0.6,0.3c-0.8,0.4-1.6,1.8-1,3.8l0.4,0.8c1.3,2.4,4.8,4.3,10.4,5.6c2.9-5,4-8.8,3.1-11.4l-0.4-0.8
		c-1-1.9-2.6-2.2-3.4-2c-0.2,0.1-0.4,0.1-0.6,0.2c-1.1,0.5-1.5,1-1.9,2.5l-0.7,2.4l-2.2-1.1C159.7,19.2,159.1,19.1,157.9,19.5
		L157.9,19.5z"/>
	<g id="Favorite_1_">
		<g>
			<g>
				<path class="st0" d="M73.9,59.8l-0.4-0.6c-0.5-0.7-1-1.3-1.5-2l1.6-1.2c0.4,0.5,0.7,0.9,1.1,1.4c0.6-0.2,1.1-0.4,1.7-0.6
					l0.6,1.9c-0.8,0.3-1.6,0.5-2.4,0.8L73.9,59.8z"/>
				<path class="st0" d="M69,53.2c-1-1.4-1.9-2.9-2.8-4.3l1.7-1.1c0.8,1.3,1.8,2.8,2.8,4.2L69,53.2z M63.6,44.5
					c-0.9-1.6-1.6-3.1-2.3-4.6l1.8-0.8c0.6,1.4,1.4,2.9,2.2,4.4L63.6,44.5z M59.4,35.1c-0.6-1.7-1-3.4-1.3-5l2-0.4
					c0.3,1.5,0.7,3.1,1.2,4.7L59.4,35.1z M59.7,24.9l-2,0c0-1.5,0.2-3,0.5-4.4l0.3-0.9l1.9,0.6L60.1,21
					C59.8,22.2,59.7,23.6,59.7,24.9z M62.2,15.8l-1.7-1c0.9-1.6,2.1-3,3.3-4.2l1.3,1.5C64,13.1,63,14.4,62.2,15.8z M82.1,12.4
					c-1.1-1-2.3-1.8-3.9-2.4l0.7-1.9c1.8,0.7,3.3,1.6,4.6,2.8L82.1,12.4z M69.1,9.6l-0.7-1.9c1.8-0.7,3.6-1,5.4-0.9l-0.1,2
					C72.1,8.8,70.6,9.1,69.1,9.6z"/>
				<path class="st0" d="M86.3,19.6l-0.5-1.1c-0.4-0.9-0.7-1.6-1-2.2l1.8-0.9c0.2,0.4,0.4,0.8,0.6,1.3c0.4-0.3,0.8-0.5,1.2-0.7
					l1,1.7c-0.6,0.3-1.3,0.7-2.1,1.3L86.3,19.6z"/>
				<path class="st0" d="M81.8,57.1l-0.7-1.9c1.6-0.6,3.2-1.3,4.6-1.9l0.8,1.8C85,55.8,83.4,56.4,81.8,57.1z M91.1,52.9l-0.9-1.8
					c1.5-0.8,3-1.6,4.3-2.4l1,1.7C94.2,51.3,92.7,52.1,91.1,52.9z M99.8,47.5l-1.2-1.6c1.4-1,2.6-2.1,3.7-3.2l1.4,1.4
					C102.5,45.2,101.2,46.4,99.8,47.5z M107,40l-1.7-1.1c0.7-1.1,1.4-2.3,1.8-3.5l0.2-0.8l1.9,0.6L109,36
					C108.5,37.4,107.8,38.7,107,40z M110.3,30.1l-2-0.1c0-0.4,0-0.8,0-1.1c0-1.2-0.1-2.4-0.4-3.6l1.9-0.5c0.3,1.3,0.5,2.7,0.5,4
					C110.4,29.2,110.4,29.6,110.3,30.1z M106.1,21c-0.9-1.3-2.1-2.4-3.3-3.2l1-1.7c1.5,0.9,2.9,2.2,3.9,3.7L106.1,21z M98.3,16.2
					c-1.7-0.4-3.1-0.4-4.6-0.2l-0.3-2c1.7-0.3,3.5-0.2,5.4,0.2L98.3,16.2z"/>
			</g>
		</g>
		<g>
			<path class="st0" d="M46.5,33.2c3.6,5.7,4.4,15.5-1.4,32.7c-18.2,0.4-27.2-3.3-31.6-8.4l-1.4-1.9c-3.7-6-2.2-11.7,0.8-14.4
				c0.5-0.4,1-0.8,1.4-1.2c3.7-2.8,6.7-2.5,10.6-1.5c0.3-4,0.9-6.9,4.6-9.6c0.5-0.3,1-0.7,1.6-1c3.5-2.1,9.4-1.9,14,3.5L46.5,33.2z"
				/>
		</g>
		<g>
			<g>
				<path class="st0" d="M244.6,44.2l-0.6-0.4c-0.7-0.5-1.4-1-2.1-1.5l1.2-1.6c0.5,0.3,0.9,0.7,1.4,1c0.5-0.4,1-0.7,1.4-1l1.2,1.6
					c-0.7,0.5-1.3,1-2.1,1.5L244.6,44.2z"/>
				<path class="st0" d="M238,39.2c-1.4-1.2-2.6-2.3-3.7-3.5l1.4-1.4c1,1.1,2.2,2.2,3.5,3.3L238,39.2z M231.1,31.8
					c-1.1-1.5-1.9-3.1-2.4-4.6l1.9-0.7c0.5,1.3,1.2,2.7,2.2,4.1L231.1,31.8z M229.8,22h-2v-0.4c0.1-1.9,0.6-3.5,1.4-4.9l1.8,1
					c-0.6,1.2-1,2.5-1.1,4L229.8,22z M234,14.7l-0.9-1.8c0.9-0.5,1.8-0.7,2.7-0.8c1-0.1,1.9-0.1,2.7,0l-0.2,2
					c-0.7-0.1-1.4-0.1-2.3,0C235.4,14.1,234.7,14.3,234,14.7z"/>
				<path class="st0" d="M244.6,18.4l-0.8-0.9c-0.6-0.8-1.1-1.3-1.6-1.7l1.3-1.5c0.4,0.3,0.7,0.7,1,1c0.3-0.3,0.7-0.7,1-1l1.3,1.5
					c-0.5,0.4-1,1-1.6,1.7L244.6,18.4z"/>
				<path class="st0" d="M251.2,39.2l-1.3-1.5c1.3-1.1,2.5-2.2,3.5-3.3l1.4,1.4C253.8,36.8,252.5,38,251.2,39.2z M258.1,31.8
					l-1.6-1.1c1-1.4,1.7-2.8,2.2-4.1l1.9,0.7C260,28.7,259.2,30.2,258.1,31.8z M261.3,21.9h-2v-0.3c-0.1-1.4-0.5-2.8-1.1-3.9l1.8-1
					c0.8,1.4,1.2,3,1.4,4.8L261.3,21.9z M255.1,14.7c-0.6-0.3-1.3-0.5-2-0.6c-0.9-0.1-1.6-0.1-2.3,0l-0.2-2c0.8-0.1,1.7-0.1,2.7,0
					c0.9,0.1,1.8,0.4,2.7,0.8L255.1,14.7z"/>
			</g>
		</g>
		
			<use xlink:href="#HEARRT_1_"  width="251.5" height="59.1" x="-125.7" y="-29.6" transform="matrix(1.0022 0 0 -0.9981 387 36.5)" style="overflow:visible;"/>
		
			<use xlink:href="#HEARRT_1_"  width="251.5" height="59.1" x="-125.7" y="-29.6" transform="matrix(1.0022 0 0 -0.9981 630 39.5)" style="overflow:visible;"/>
		
			<use xlink:href="#HEARRT_1_"  width="251.5" height="59.1" x="-125.7" y="-29.6" transform="matrix(1.0022 0 0 -0.9981 1361 38.5)" style="overflow:visible;"/>
		
			<use xlink:href="#HEARRT_1_"  width="251.5" height="59.1" x="-125.7" y="-29.6" transform="matrix(0.9982 0 0 -0.9981 1119.5 36.5)" style="overflow:visible;"/>
		
			<use xlink:href="#HEARRT_1_"  width="251.5" height="59.1" x="-125.7" y="-29.6" transform="matrix(0.9982 0 0 -0.9981 874.5 39.5)" style="overflow:visible;"/>
	</g>
</g>
<g id="Layer_4">
	<g id="HEARRT">
		<g id="Arrow_7">
		</g>
		<g>
			<g>
				<g>
					<path class="st2" d="M345,33.9c3,4.8,3.7,12.9-1.2,27.2c-15.1,0.3-22.6-2.7-26.3-7l-1.2-1.6c-3.1-5-1.8-9.7,0.7-12
						c0.4-0.4,0.8-0.7,1.2-1c3.1-2.3,5.6-2,8.8-1.3c0.2-3.3,0.7-5.7,3.8-8c0.4-0.3,0.8-0.6,1.3-0.9c2.9-1.7,7.8-1.5,11.7,2.9
						L345,33.9z"/>
				</g>
				<g>
					<path class="st2" d="M315.6,56.5L315.6,56.5l-0.3-0.4l-10.9,8.5l3.9,0.2l-0.8,3.8l11.7-9C317.8,58.7,316.6,57.7,315.6,56.5z"/>
					<path class="st2" d="M350.1,23.1l4.6,2.2l-8.5,6.9l0.8,1.1l0.1,0.1c0.6,1,1.1,2.1,1.6,3.3l9.2-7.4l0.9,5.8l9-16.8L350.1,23.1z"
						/>
				</g>
			</g>
			<g>
				<g>
					<path class="st3" d="M341.6,30.6c3,4.8,3.7,12.9-1.2,27.2c-15.1,0.3-22.6-2.7-26.3-7l-1.2-1.6c-3.1-5-1.8-9.7,0.7-12
						c0.4-0.4,0.8-0.7,1.2-1c3.1-2.3,5.6-2,8.8-1.3c0.2-3.3,0.7-5.7,3.8-8c0.4-0.3,0.8-0.6,1.3-0.9c2.9-1.7,7.8-1.5,11.7,2.9
						L341.6,30.6z"/>
				</g>
				<g>
					<path class="st3" d="M312.3,53.2L312.3,53.2l-0.3-0.4L301,61.3l3.9,0.2l-0.8,3.8l11.7-9C314.5,55.4,313.3,54.4,312.3,53.2z"/>
					<path class="st3" d="M346.8,19.8l4.6,2.2l-8.5,6.9l0.8,1.1l0.1,0.1c0.6,1,1.1,2.1,1.6,3.3l9.2-7.4l0.9,5.8l9-16.8L346.8,19.8z"
						/>
				</g>
			</g>
		</g>
		<g>
			<g>
				<g>
					<path class="st2" d="M1179,41.9c2,3.3,2.5,8.8-0.8,18.6c-10.3,0.2-15.4-1.9-18-4.8l-0.8-1.1c-2.1-3.4-1.2-6.7,0.5-8.2
						c0.3-0.3,0.6-0.5,0.8-0.7c2.1-1.6,3.8-1.4,6-0.9c0.1-2.2,0.5-3.9,2.6-5.5c0.3-0.2,0.6-0.4,0.9-0.6c2-1.2,5.3-1.1,8,2L1179,41.9
						z"/>
				</g>
				<g>
					<path class="st2" d="M1159,57.4L1159,57.4l-0.2-0.3l-7.5,5.8l2.7,0.1l-0.6,2.6l8-6.2C1160.5,58.8,1159.7,58.2,1159,57.4z"/>
					<path class="st2" d="M1182.5,34.6l3.2,1.5l-5.8,4.7l0.6,0.8l0,0.1c0.4,0.7,0.8,1.5,1.1,2.3l6.3-5.1l0.6,4l6.2-11.5L1182.5,34.6
						z"/>
				</g>
			</g>
			<g>
				<g>
					<path class="st3" d="M1176.8,39.6c2,3.3,2.5,8.8-0.8,18.6c-10.3,0.2-15.4-1.9-18-4.8l-0.8-1.1c-2.1-3.4-1.2-6.7,0.5-8.2
						c0.3-0.3,0.6-0.5,0.8-0.7c2.1-1.6,3.8-1.4,6-0.9c0.1-2.2,0.5-3.9,2.6-5.5c0.3-0.2,0.6-0.4,0.9-0.6c2-1.2,5.3-1.1,8,2
						L1176.8,39.6z"/>
				</g>
				<g>
					<path class="st3" d="M1156.7,55.1L1156.7,55.1l-0.2-0.3l-7.5,5.8l2.7,0.1l-0.6,2.6l8-6.2C1158.2,56.6,1157.4,55.9,1156.7,55.1z
						"/>
					<path class="st3" d="M1180.3,32.3l3.2,1.5l-5.8,4.7l0.6,0.8l0,0.1c0.4,0.7,0.8,1.5,1.1,2.3l6.3-5.1l0.6,4l6.2-11.5L1180.3,32.3
						z"/>
				</g>
			</g>
		</g>
		<g>
			<g>
				<g>
					<path class="st2" d="M1416.7,36.7c0.4,3-0.9,7.1-6.3,13.1c-7.5-3-10.5-6.1-11.4-9l-0.2-1c-0.5-3.1,1.2-5.2,2.9-5.7
						c0.3-0.1,0.5-0.2,0.8-0.2c2-0.5,3.2,0.2,4.6,1.2c0.8-1.6,1.6-2.7,3.6-3.1c0.3-0.1,0.5-0.1,0.8-0.1c1.8-0.2,4.1,0.9,5.1,3.9
						L1416.7,36.7z"/>
				</g>
				<g>
					<path class="st2" d="M1397.5,41.5L1397.5,41.5l-0.1-0.3l-7.2,1.8l1.9,0.9l-1.2,1.7l7.6-1.9C1398.1,43,1397.8,42.3,1397.5,41.5z
						"/>
					<path class="st2" d="M1421.5,32.5l1.8,2l-5.6,1.6l0.2,0.7l0,0.1c0.1,0.6,0.1,1.3,0.1,2l6.1-1.7l-0.8,3l8-6.3L1421.5,32.5z"/>
				</g>
			</g>
			<g>
				<g>
					<path class="st3" d="M1415.8,34.3c0.4,3-0.9,7.1-6.3,13.1c-7.5-3-10.5-6.1-11.4-9l-0.2-1c-0.5-3.1,1.2-5.2,2.9-5.7
						c0.3-0.1,0.5-0.2,0.8-0.2c2-0.5,3.2,0.2,4.6,1.2c0.8-1.6,1.6-2.7,3.6-3.1c0.3-0.1,0.5-0.1,0.8-0.1c1.8-0.2,4.1,0.9,5.1,3.9
						L1415.8,34.3z"/>
				</g>
				<g>
					<path class="st3" d="M1396.6,39.2L1396.6,39.2l-0.1-0.3l-7.2,1.8l1.9,0.9l-1.2,1.7l7.6-1.9C1397.2,40.7,1396.8,40,1396.6,39.2z
						"/>
					<path class="st3" d="M1420.6,30.2l1.8,2l-5.6,1.6l0.2,0.7l0,0.1c0.1,0.6,0.1,1.3,0.1,2l6.1-1.7l-0.8,3l8-6.3L1420.6,30.2z"/>
				</g>
			</g>
		</g>
		<g>
			<g>
				<g>
					<path class="st2" d="M90.3,43.3c-1.7,2.1-5.2,3.7-12.4,3.9c-2.6-6.7-2.4-10.6-1.1-12.9l0.5-0.8c1.7-2.2,4.1-2.4,5.5-1.6
						c0.2,0.1,0.4,0.3,0.6,0.4c1.5,1,1.8,2.2,2,3.7c1.5-0.4,2.7-0.6,4.2,0.4c0.2,0.1,0.4,0.3,0.6,0.4c1.2,1,2,3.3,0.6,5.7L90.3,43.3
						z"/>
				</g>
				<g>
					<path class="st2" d="M75.3,33.7L75.3,33.7l0.1-0.2L69.9,30l0.5,1.8L68.6,32l5.9,3.8C74.7,35.1,75,34.4,75.3,33.7z"/>
					<path class="st2" d="M95.9,43.9l-0.2,2.4l-4.5-2.7l-0.4,0.6l0,0c-0.4,0.5-0.8,0.9-1.3,1.2l4.8,2.9l-2.5,1.4l9,1.3L95.9,43.9z"
						/>
				</g>
			</g>
			<g>
				<g>
					<path class="st3" d="M91.2,41.2c-1.7,2.1-5.2,3.7-12.4,3.9c-2.6-6.7-2.4-10.6-1.1-12.9l0.5-0.8c1.7-2.2,4.1-2.4,5.5-1.6
						c0.2,0.1,0.4,0.3,0.6,0.4c1.5,1,1.8,2.2,2,3.7c1.5-0.4,2.7-0.6,4.2,0.4c0.2,0.1,0.4,0.3,0.6,0.4c1.2,1,2,3.3,0.6,5.7L91.2,41.2
						z"/>
				</g>
				<g>
					<path class="st3" d="M76.3,31.7L76.3,31.7l0.1-0.2l-5.6-3.5l0.5,1.8L69.5,30l5.9,3.8C75.7,33,75.9,32.3,76.3,31.7z"/>
					<path class="st3" d="M96.9,41.8l-0.2,2.4l-4.5-2.7l-0.4,0.6l0,0c-0.4,0.5-0.8,0.9-1.3,1.2l4.8,2.9l-2.5,1.4l9,1.3L96.9,41.8z"
						/>
				</g>
			</g>
		</g>
	</g>
	<g>
		<g>
			<path d="M609.9,35.2c0-4.4-3.7-7.6-8.7-7.6c-0.9,0-1.8,0.1-2.6,0.3c1.4-2.4,2.2-4.6,2.2-6.6c0-3.3-1.9-6.4-5.3-8.5
				c-0.7-0.4-1.4-0.6-2.1-0.6c-0.7,0-1.4,0.2-2,0.5c-1.6,0.9-3,2.3-4.1,4.1c-1.1,1.8-0.7,4,1,5.3c1.3,1,1.3,1.5,1.3,1.7
				c0,0.4-0.3,1.7-2.6,4.3c-0.4,0.4-0.7,1-0.9,1.5c-1.3-1.3-3.2-2-5.3-2c-2.7,0-5.7,1.2-8.3,3.5c-0.6,0.6-1.2,1.2-1.8,1.8
				c-0.1-0.4-0.3-0.7-0.5-1c-1.6-2.2-4-3.7-6.7-4.3c-0.3-0.1-0.6-0.1-0.8-0.1c-0.2,0-0.4,0-0.5,0c-1.3,0.2-2.8,0.6-4.3,1.7
				c-0.9-1-2.1-1.6-3.6-1.6c-2.4,0-5.1,1.7-5.2,1.8c-0.5,0.3-0.8,0.7-1.1,1.2c-0.1-0.2-0.1-0.3-0.2-0.4c1.9-1.1,3.1-3.2,3.1-5.6
				c0-3.6-2.9-6.5-6.5-6.5s-6.5,2.9-6.5,6.5c0,1,0.3,2,0.7,2.8c-0.4-0.2-0.9-0.3-1.4-0.3c-0.1,0-0.2,0-0.3,0l-0.7,0
				c0.4-1.9,0.6-3,0.6-3.8c0-2.7-2.1-4.8-4.8-4.8c-2,0-4.4,1.2-5.4,1.9c-0.9,0.6-1.5,1.6-1.7,2.6c-0.2,1.2-0.4,2.5-0.6,3.9
				c0,0.3-0.1,0.6-0.1,0.9c-1.1,0.2-2.1,0.8-2.7,1.7c-1.3-1-2.8-1.7-4.5-2.1c-0.3-0.1-0.6-0.1-0.8-0.1c-0.2,0-0.4,0-0.5,0
				c-1.3,0.2-2.8,0.6-4.3,1.7c-0.9-1-2.1-1.6-3.6-1.6c-2.4,0-5.1,1.7-5.2,1.8c-0.3,0.2-0.5,0.4-0.7,0.6c-1.4-1.5-3.4-2.5-5.8-2.5
				c-1.7,0-3.5,0.5-5.2,1.3c0.6-2,0.9-4,0.9-5.8c0-3.9-1.2-9-4.6-11.2c-0.1,0-0.1-0.1-0.2-0.1c-0.5-0.3-1.4-0.8-2.6-0.8
				c-2.6,0-5.6,2.3-6.1,2.7c-0.5,0.4-0.9,0.9-1.1,1.5c-1.4,3.2-2.8,8-3.2,9.4c-0.5,1.8-1,4-1.5,6.3c-0.3-0.5-0.8-0.9-1.3-1.2
				c-2.4-1.4-4.9-2.1-7.5-2.1c-2.9,0-5.7,0.9-8,2.5c0.1-0.8,0.1-1.7,0.1-2.5c0-10-4.4-16.5-11.2-16.5c-3.1,0-5.6,1.4-7.5,3.5
				c-1.4-1.6-3.2-2.8-5.3-3.4c-0.4-0.1-0.8-0.2-1.2-0.2c-0.1,0-0.1,0-0.2,0c-4.5,0.2-9,1.8-12.6,4.6c-4.9,3.8-8,9.5-8,14.8
				c0,7.1,5.5,12.8,12.2,12.8c0,0,0,0,0.1,0c1.4,8.3,6.3,13.3,13.2,13.3c5,0,9.7-2.7,13.4-7.6c1.3,4.9,5,7.4,8.7,7.4
				c2.2,0,4.2-0.8,5.8-2.5c0,0,0.1,0.1,0.1,0.1c1.5,1.6,3.5,2.4,5.6,2.4c2.3,0,4.2-0.9,5.7-2.4c1.8,1.6,4,2.4,6,2.4
				c1.9,0,4.1-0.6,6.2-2.4c2.1,1.6,4.6,2.4,7,2.4c2.3,0,4.7-0.7,7-2.3c1.2,1.7,2.8,2.3,4.3,2.3c1.8,0,3.6-0.9,4.3-1.3
				c1.2-0.7,2-1.9,2.1-3.3c0-0.7,0.1-1.3,0.2-2c1.4,4.5,4.9,6.6,8.3,6.6c2.4,0,4.4-0.9,5.9-2.5c1.9,1.8,4.2,2.5,6.3,2.5
				c2.3,0,4.4-0.8,6.1-2.3c1.6,1.5,3.6,2.3,5.7,2.3c1.7,0,3.2-0.5,4.5-1.3c1.1,1,2.3,1.3,3.4,1.3c1.8,0,3.6-0.9,4.3-1.3
				c1.2-0.7,2-1.9,2.1-3.3c0-0.7,0.1-1.3,0.2-2c1.4,4.5,4.9,6.6,8.3,6.6c2.2,0,4-0.8,5.5-2.1c2.1,1.5,4.6,2.3,7.1,2.3
				c3.9,0,7.5-1.8,10.1-4.9c1,2.9,3.9,4.8,7.8,4.8c5.5,0,11.7-4.2,11.7-10.2c0-2.2-0.8-3.8-2-5.2C608.6,39.9,609.9,37.8,609.9,35.2z
				 M580.2,46.6c-0.3,0-0.6-0.2-0.9-0.5c1.2-0.5,2.5-1.2,3.8-2C582.1,45.7,581.1,46.6,580.2,46.6z M534.2,37l1.4-0.1
				c0,0.1,0,0.3-0.1,0.4c0,0.3-0.1,0.6-0.1,0.8c-0.5,2.7-1.2,4.6-1.7,5.9c0-0.3,0-0.5,0-0.8C533.7,41.6,533.9,39.5,534.2,37z
				 M496.9,44.6c-0.9,1.3-1.8,1.9-2.2,1.9c-0.2,0-0.4-0.1-0.6-0.4C495,45.6,496,45.2,496.9,44.6z M443.1,24.9c0-0.4,0-0.8,0.1-1.1
				c0.3,1.4,0.5,3.2,0.5,5.2c0,0,0,0.1,0,0.1C443.3,27.9,443.1,26.4,443.1,24.9z M440.7,41.9c-1.3,2.7-2.9,4.5-4.3,4.5
				c-1.8,0-3.1-4.6-3.1-8.8c0-1.1,0.1-2.5,0.2-3.8C435,37.5,437.4,40.7,440.7,41.9z M421.5,33.2c-0.9-1.2-1-2.9-1-3.6
				c0-2.4,1.1-4.7,2.9-6.3c0,0,0.1-0.1,0.1-0.1C422.7,26.3,421.9,29.7,421.5,33.2z M591.6,44.4c-0.3-0.8-1-1.5-1.8-2l-0.9-0.5
				c-0.6-0.3-1.2-0.5-1.9-0.5c-0.4,0-0.7,0-1,0.1c2-2.3,2.4-4.7,2.4-6.4c0-0.2,0-0.3,0-0.5c0.4,0.2,0.7,0.4,1.1,0.5
				c-0.2,0.8-0.4,1.6-0.4,2.4c0,2.8,1.3,4.8,3,6.4C591.9,44.1,591.8,44.2,591.6,44.4z"/>
			<path d="M690.4,27.7c-2.3,0-4.8,1.5-5.1,1.7c-1,0.7-1.7,1.7-1.9,3c-0.7-3.2-3-4.7-5.2-4.7c-2.2,0-4.2,1.3-5.3,2.2
				c-0.3,0.2-0.5,0.5-0.7,0.8c-0.3-0.4-0.7-0.7-1.1-0.9c-2.4-1.4-4.9-2.1-7.5-2.1c-3.2,0-6.3,1.1-8.8,3c0-0.1,0-0.2,0-0.2
				c0-9.6-6.1-19.3-19.6-19.3c-5.6,0-10.7,1.6-14.9,4.7c-5.2,3.8-8.3,9.3-8.3,14.7c0,6.3,4.2,11.2,9.9,12c-0.4,3.1-0.4,5-0.4,5.8
				c0,7.3,4.3,7.9,5.7,7.9c0.7,0,1.4-0.1,2.3-0.4c0.8,0.2,1.8,0.2,2.8,0.2c6.3,0,12.1-2.8,16.3-7.9c1.1,5.4,5,8.3,8.9,8.3
				c2.2,0,4.2-0.8,5.8-2.5c0,0,0.1,0.1,0.1,0.1c1.4,1.5,3.2,2.3,5.2,2.4c-0.6,1.4-0.9,2.8-0.9,4.3c0,5.6,4.6,10.1,10.3,10.1
				c4,0,8-2.2,10.6-5.8c2.5-3.5,3.6-8.2,4.4-14.3c0.2-1.3,0.3-2.7,0.5-4.2c0.3-2.6,0.7-5.6,1.2-9.4l0.1-0.6c0.3-1.8,0.4-2.9,0.4-3.7
				C695.3,29.8,693.2,27.7,690.4,27.7z M678.3,58c0.3-0.5,0.6-1,0.7-1.6c0.2,0,0.3,0,0.5,0c0.5,0,1.1,0,1.7-0.2
				c-0.2,1.4-0.6,2.6-1,3.5c-0.4,0.8-0.7,1-0.7,1c0,0,0,0,0,0c-0.7,0-1.4-0.9-1.4-2.2C678.1,58.2,678.1,58.2,678.3,58z M636.6,21.3
				c5,1.2,6.2,5.9,6.2,9.9c0,3.6-1,7.8-2.7,10.8c-2.2,3.9-4.6,4.4-6.5,4.4c-0.1,0-0.1,0-0.2,0c0-3.3,1.2-10.2,2.2-15
				c1.4-7.1,1.4-7.8,1.4-8.2C637,22.5,636.8,21.8,636.6,21.3z M623.6,32c-0.2-0.9-0.3-1.7-0.3-2.1c0-1.6,0.5-3.2,1.4-4.5
				C624.3,27.8,624,30,623.6,32z"/>
		</g>
		<g>
			<path class="st3" d="M414.3,30.4c0-4.2,2.6-8.7,6.4-11.7c3.1-2.4,6.8-3.6,10.3-3.7c1.5,0.5,2.7,1.3,3.7,2.4
				c-1.2,3.1-2.3,6.7-2.9,9.5c-0.8,3.4-1.4,7.4-1.4,10.6c0,5,1.4,12.8,7.1,12.8c5.4,0,8.6-7.3,9.9-12.3l0-0.1
				c-0.6,0.4-1.5,0.6-2.3,0.6c-4.7,0-7.5-6.1-7.5-11.8c0-5.3,2.5-11.5,7.6-11.5c5.6,0,7.2,7.6,7.2,12.5c0,4.7-1.4,10.4-3.8,15.2
				c-3,5.8-7.4,9.8-12.6,9.8c-7,0-9.6-7.3-9.6-14.6c0-5.2,1.3-10.7,2.5-15c0.9-3.3,1.5-4.9,1.5-5.4c0-0.4-0.3-0.7-1.1-0.7
				c-1.4,0-4.6,1-7.3,3.3c-2.8,2.4-4.3,5.8-4.3,9.4c0,3.8,1.8,7.9,6.1,8.7l0,0.9c-0.3,0-0.6,0.1-1.1,0.1
				C418.2,39.3,414.3,35.6,414.3,30.4z M447.8,36.2c0.6-2.9,0.8-5.3,0.8-7.2c0-4-0.9-11.6-4.6-11.6c-2.5,0-4,3.6-4,7.5
				c0,4,1.5,11.6,6.3,11.6C446.9,36.5,447.3,36.4,447.8,36.2z"/>
			<path class="st3" d="M452.7,44.8c0-3.8,1.5-7.3,3.6-9.6c2-2.3,4.8-3.6,7.9-3.6c2,0,3.7,0.5,5.5,1.5c-0.6,3.3-1.4,8.2-1.4,11.6
				c0,3.2,0.7,5.8,2.2,5.8c1.8,0,4.1-3.5,5.8-13.3l1.2,0.1c-2.1,12-5,15.1-7.9,15.1c-3.3,0-4.9-4-4.8-8.1h-0.1
				c-1.7,5.5-3.9,8.1-6.6,8.1C455.1,52.4,452.7,49.6,452.7,44.8z M463.1,44.6c1.1-3.1,1.9-6.9,2.5-9.9c-1-0.7-2.2-1-3.3-1
				c-1.4,0-2.7,0.5-3.8,1.5c-1.2,2.1-2.2,5.6-2.2,8.9c0,3.5,1,6.3,2.6,6.3C460.4,50.4,461.7,48.6,463.1,44.6z"/>
			<path class="st3" d="M475.4,43.3c0-4.5,1.3-11.7,2.9-17.6c0.4-1.4,1.7-5.9,3-8.8c1.2-1,2.9-1.9,3.6-1.9c0.2,0,0.3,0,0.6,0.2
				c1.9,1.2,2.8,4.8,2.8,7.9c0,5.6-3.3,12.7-8.8,14.4c-0.2,2-0.3,3.9-0.3,5.5c0,5.4,1.5,7.5,3.2,7.5c2,0,4.9-3.1,6.7-13.4l1.2,0.1
				c-1.6,9.3-4.7,15.1-9,15.1C478.7,52.4,475.4,50.5,475.4,43.3z M485.8,24.6c0-2.4-0.5-4.9-2-6.6c-1,2.9-1.7,5.6-2.2,7.3
				c-0.7,2.7-1.5,7-2.1,10.8C483.6,34.7,485.8,29.5,485.8,24.6z"/>
			<path class="st3" d="M490.9,34.1c1.6-1.4,3.7-2.5,5.7-2.5c2.2,0,3.6,1.3,3.6,3.5c0,1.9-1.2,3.7-2.9,5.1c-2,1.6-4.8,2.7-7,3.3
				c0.2,4.3,2.5,7.1,5.4,7.1c3.6,0,7.5-4.3,9.1-13.2l1.2,0.1c-1.9,10.8-7,15.1-11.5,15.1c-4,0-7.9-3.3-7.9-8.7
				C486.5,40.4,488,36.7,490.9,34.1z M497.1,35.9c0-1.5-0.7-2.4-1.9-2.4c-1.3,0-2.6,1.1-3.6,2.9c-0.8,1.6-1.3,3.6-1.4,5.5
				C492.9,41.5,497.1,39.6,497.1,35.9z"/>
			<path class="st3" d="M503.7,46.6c0-4.4,1.2-9.1,1.6-13.7c0.8-0.5,2.3-1.2,3.1-1.2c0.6,0,0.9,0.4,0.9,1.1c0,1.1-0.8,4-1.3,7.2
				c-0.3,1.9-0.5,4.2-0.5,6h0.1c0.3-1.8,0.9-4.1,1.7-6.2c1.8-4.5,4.3-7.8,7.5-8.2c1.8,0.4,3.3,1.3,4.3,2.7
				c-0.7,3.3-1.8,6.9-1.8,10.8c0,3.3,0.8,5.5,2.3,5.5c1.7,0,4.1-3.3,5.9-13.3l1.2,0.1c-2.1,12.1-5.1,15-8.1,15
				c-2.6,0-4.9-2.2-4.9-7.4c0-4,1.3-8,1.3-9.6c0-0.9-0.4-1.4-1.2-1.4c-2.2,0-4.4,4.2-5.4,7c-1.3,3.5-1.9,7.3-2.1,10.6
				c-1,0.5-1.9,0.8-2.4,0.8C504,52.3,503.7,48.8,503.7,46.6z"/>
			<path class="st3" d="M528,33.3l-2.5,0.1c-0.1-0.2-0.2-0.6-0.2-0.9c0-0.2,0-0.5,0.1-0.7l2.8-0.1c0.6-3.5,0.9-5.8,1.3-8
				c0.9-0.6,2.4-1.2,3.2-1.2c0.6,0,0.8,0.3,0.8,0.8c0,1-0.9,4.8-1.5,8.2l5.9-0.4c0.1,0.1,0.2,0.5,0.2,0.8c0,0.3-0.1,0.6-0.3,1
				l-6.1,0.2c-0.6,3.7-1.1,7.2-1.1,10.1c0,5.1,1.3,7.3,3.1,7.3c2.2,0,5.2-3.5,6.9-13.4l1.2,0.1c-2.3,13.4-6.7,15.1-9.1,15.1
				c-2.6,0-5.9-1.9-5.9-8.8C526.8,40.8,527.4,37.1,528,33.3z"/>
			<path class="st3" d="M541.3,32.8c0.8-0.5,2.3-1.2,3-1.2c0.6,0,0.9,0.3,0.9,1.1c0,0.7-0.3,2.3-0.7,4.1c-0.5,2.6-1.1,6-1.1,8.6
				c0,2.9,0.7,5,2.2,5c1.9,0,4.2-3.5,6-13.3l1.2,0.1c-2.2,12-5,15-8.2,15c-2.6,0-4.8-2.1-4.8-7.1C539.7,41.9,540.8,37.2,541.3,32.8z
				 M542.7,24.6c0-1.4,1.1-2.5,2.5-2.5s2.5,1.1,2.5,2.5c0,1.4-1.1,2.5-2.5,2.5S542.7,26,542.7,24.6z"/>
			<path class="st3" d="M550.5,46.6c0-4.4,1.2-9.1,1.6-13.7c0.8-0.5,2.3-1.2,3.1-1.2c0.6,0,0.9,0.4,0.9,1.1c0,1.1-0.8,4-1.3,7.2
				c-0.3,1.9-0.5,4.2-0.5,6h0.1c0.3-1.8,0.9-4.1,1.7-6.2c1.8-4.5,4.3-7.8,7.5-8.2c1.8,0.4,3.3,1.3,4.3,2.7
				c-0.7,3.3-1.8,6.9-1.8,10.8c0,3.3,0.8,5.5,2.3,5.5c1.7,0,4.1-3.3,5.9-13.3l1.2,0.1c-2.1,12.1-5.1,15-8.1,15
				c-2.6,0-4.9-2.2-4.9-7.4c0-4,1.3-8,1.3-9.6c0-0.9-0.4-1.4-1.2-1.4c-2.2,0-4.4,4.2-5.4,7c-1.3,3.5-1.9,7.3-2.1,10.6
				c-1,0.5-1.9,0.8-2.4,0.8C550.8,52.3,550.5,48.8,550.5,46.6z"/>
			<path class="st3" d="M576.1,34.1c1.7-1.4,3.7-2.5,5.7-2.5c2.3,0,3.6,1.4,3.6,3.6c0,2-1.1,3.6-2.7,5c-2.1,1.7-5,2.8-7.2,3.2
				c0.2,4.5,2.6,7.2,5.7,7.2c2.8,0,5.1-2.3,6.8-5.2l0.9,0.5c-1.9,4.3-5.4,6.7-9,6.7c-4.2,0-8.2-3.3-8.2-8.9
				C571.7,40.4,573.1,36.7,576.1,34.1z M582.3,36c0-1.5-0.7-2.4-2-2.4c-1.3,0-2.5,1.1-3.5,2.9c-1,1.9-1.3,3.8-1.4,5.5
				C578.1,41.5,582.3,39.7,582.3,36z"/>
			<path class="st3" d="M590.9,30.8c2.1-2.3,3.6-4.7,3.6-7c0-2-1.1-3.5-2.9-4.9c0.6-1,1.5-2.1,2.7-2.8c1.8,1.2,3.4,2.9,3.4,5.1
				c0,3.3-3.6,7.5-6.2,10.1L590.9,30.8z"/>
			<path class="st3" d="M596,47.4c0,2.1,1,3.4,3,3.4c1.9,0,3.4-1.1,3.4-2.8c0-1.5-1.2-2.7-3.7-4.6c-2.7-2.1-4.5-3.4-4.5-5.8
				c0-3.9,4.8-6.1,8.1-6.1c2.7,0,4.7,1.5,4.7,3.6c0,1.7-1.2,2.7-2.9,2.7c0-0.3,0-0.5,0-0.7c0-2.3-1.2-3.9-3.5-3.9
				c-1.9,0-3.5,1.2-3.5,2.7c0,1.4,1.2,2.5,4.2,4.8c2.4,1.9,4.2,3.1,4.2,5.4c0,3.6-4.3,6.2-7.7,6.2c-2,0-4.1-0.9-4.1-2.8
				C593.7,48.4,594.4,47.4,596,47.4z"/>
			<path class="st3" d="M628,35.7c0.7-3.7,1.3-7.5,2-12.2c0.8-0.5,2.4-1.2,3.1-1.2c0.5,0,0.8,0.3,0.8,0.8c0,0.6-0.8,4.8-1.3,7.4
				c-1,4.9-2.3,12.1-2.3,15.8c0,2.4,0.5,4,4.2,4c4.6,0,7.8-2.4,10-6.5c2.1-3.8,3.2-8.7,3.2-12.7c0-7.2-3.5-14.2-12.7-14.2
				c-3.8,0-7.5,1.2-10.3,3.6c-2.8,2.4-4.4,5.7-4.4,9.4c0,3.1,1.2,6.6,4.3,8l-0.2,0.8c-4.3,0-7.4-3.4-7.4-8.1c0-4.4,2.7-8.6,6.6-11.5
				c3.6-2.6,8-3.9,12.6-3.9c10.7,0,15.6,7.1,15.6,15.3c0,5.3-2.1,10.9-5.1,14.8c-3.4,4.4-8.2,6.8-13.4,6.8c-1.5,0-2.4-0.2-3-0.4
				c-0.7,0.3-1.5,0.6-2.1,0.6c-1.3,0-1.7-1.8-1.7-3.9C626.5,46.8,626.8,42.8,628,35.7z"/>
			<path class="st3" d="M653.2,44.8c0-3.8,1.5-7.3,3.6-9.6c2-2.3,4.8-3.6,7.9-3.6c2,0,3.7,0.5,5.5,1.5c-0.6,3.3-1.4,8.2-1.4,11.6
				c0,3.2,0.7,5.8,2.2,5.8c1.8,0,4.1-3.5,5.8-13.3l1.2,0.1c-2.1,12-5,15.1-7.9,15.1c-3.3,0-4.9-4-4.8-8.1h-0.1
				c-1.7,5.5-3.9,8.1-6.6,8.1C655.7,52.4,653.2,49.6,653.2,44.8z M663.7,44.6c1.1-3.1,1.9-6.9,2.5-9.9c-1-0.7-2.2-1-3.3-1
				c-1.4,0-2.7,0.5-3.8,1.5c-1.2,2.1-2.2,5.6-2.2,8.9c0,3.5,1,6.3,2.6,6.3C660.9,50.4,662.3,48.6,663.7,44.6z"/>
			<path class="st3" d="M676.8,35.8c0-1.3-0.1-2.2-0.3-2.8c0.7-0.5,1.9-1.3,2.8-1.3c1,0,1.4,1.1,1.4,2.7c0,2.8-1.3,7.5-1.3,11.2
				c0,3,0.9,4.7,2.4,4.7c2,0,3.6-3.3,4.8-7.7c0.9-3.3,1.6-7.1,1.9-9.9c0.8-0.5,2.2-1.1,3-1.1c0.6,0,0.9,0.3,0.9,1.1
				c0,0.6-0.2,1.8-0.5,3.7c-0.9,6-1.3,10.2-1.8,13.7c-0.9,6.4-1.9,10-3.7,12.5c-1.7,2.4-4.4,4.2-7.3,4.2c-3.7,0-6.3-2.9-6.3-6.1
				c0-2,1.1-4.2,2.8-5.6l0.5,0.5c-0.6,0.9-0.9,1.7-0.9,2.9c0,3.5,2.4,6.2,5.4,6.2c2.1,0,3.4-1.4,4.3-3.4c1-2.2,1.4-4.8,1.8-8.4
				c0.3-3,0.4-4.9,0.6-8.1h-0.1c-1.4,4.6-3.8,7.4-6.7,7.4c-2.8,0-4.8-2.7-4.8-6.4C675.6,43.3,676.8,39.7,676.8,35.8z"/>
		</g>
	</g>
</g>
<g class="code_on">
	<g>
		<path d="M794.2,22.1c0-2.7-2.1-4.8-4.8-4.8c-0.6,0-1.2,0.1-1.7,0.3c-0.9,0.3-1.6,0.9-2,1.7c-0.4,0.6-0.7,1.2-1.1,1.8
			c-0.6-0.1-1-0.5-1.4-1.3c-0.3-0.7-0.9-1.3-1.6-1.7c-0.7-1.7-2.5-3-5.1-3c-4.7,0-9.2,4.7-9.9,10.1c-1.1-1.3-3.2-2.4-6.8-2.4
			c-1.7,0-3.5,0.2-5.3,0.5c-1.1-1-2.5-1.1-2.9-1.1c-2.6,0-4.9,2.4-5.1,5.1c0,0.5,0.1,1,0.2,1.5c0.1,0.3,0.2,0.9,0.2,1.6
			c0,0.9-0.2,3.5-2.5,9.8c-0.3,0.9-0.3,1.8,0.1,2.7c-0.8,0.7-1.5,1.5-2.1,2.4c0.4-4.2,1.4-10.6,2.8-16.2c0.3-1.4-0.2-2.9-1.3-3.8
			c-1.9-1.5-4.3-1.9-5.5-2.1c-0.1,0-0.3,0-0.4,0c-0.9,0-1.7,0.3-2.4,0.9c-2.6,2.3-6,6.4-8.2,9.4c-1.1,1.6-0.8,3.9,0.8,5l0.9,0.7
			c0.7,0.5,1.4,0.7,2.2,0.7c0.2,0,0.5,0,0.7-0.1c-0.5,3.3-1,6.3-1,7.6c0,3.4,2.3,4.9,4.5,4.9c1.8,0,4.1-1.1,5.2-1.9
			c0,0,0.1-0.1,0.1-0.1c0,0.1,0,0.2,0,0.2c0,5.5,4.8,9.6,11.3,9.6c7.9,0,14.3-6.3,14.3-14c0-6.4-4.5-10.8-11.3-11.5
			c0-0.2,0.1-0.4,0.1-0.5c0.8-0.1,1.7-0.2,2.4-0.2c0.9,0,1.4,0.1,1.7,0.2c0.5,1.2,1.7,2,3,2.1l0.5,0c0.1,0,0.2,0,0.3,0
			c1.3,0,2.5-0.7,3.2-1.8c0.5-0.9,0.9-2,1.1-3c1.1,1.9,2.8,3.3,4.9,3.8c-1.6,1.8-3.3,3.6-4.8,5.2c-0.7,0.7-1,1.6-1,2.6
			c0,1,0.4,1.9,1.1,2.6l1.1,1c0.7,0.7,1.6,1,2.5,1c0,0,0.1,0,0.1,0c1,0,1.9-0.5,2.6-1.2c0.3-0.4,0.7-0.7,1-1.1c0.8,4,4,6.8,7.9,6.8
			c5.9,0,10.2-6.1,10.2-11.6c0-4.4-2.5-7.8-6.2-8.7c1.2-1.4,2.3-2.7,3.4-4C792.4,26.6,794.2,24.6,794.2,22.1z M753.2,51
			c-0.4,0-2.7-0.1-2.7-2c0-0.5,0.1-0.7,0.2-0.9c0.6-0.9,0.8-2,0.6-3c3.5,0,5.2,1,5.2,2.8C756.6,50.9,753.8,51,753.2,51z M784.3,41.9
			C784.3,41.9,784.3,41.9,784.3,41.9c0,0,0-0.1,0-0.2c0,0,0,0,0,0C784.3,41.7,784.3,41.8,784.3,41.9z M775.8,25.1
			C775.8,25.1,775.8,25.1,775.8,25.1c0,0,0,0.2,0,0.2C775.8,25.3,775.8,25.2,775.8,25.1z"/>
		<path d="M856.9,29.6c-0.7-1-1.9-1.6-3-1.6c-0.5,0-0.9,0.1-1.3,0.3c-0.5,0.2-1,0.4-1.5,0.6c0.2-1.3,0.4-2.6,0.7-3.9
			c0.2-1.3,0.5-2.6,0.7-3.7c0.7-3.8,1-5.4,1-6.4c0-2.6-1.9-4.6-4.4-4.6c-1.9,0-4.1,1.2-5.2,1.9c-0.8,0.6-1.4,1.5-1.5,2.5
			c-0.4,3.2-1.1,7.5-1.9,13.3c-0.2,0-0.3-0.1-0.5-0.1c-0.4,0-0.8,0.1-1.2,0.2c0.2-0.9,0.3-1.9,0.6-3.2c0.2-1.3,0.5-2.6,0.7-3.7
			c0.7-3.8,1-5.3,1-6.4c0-2.6-1.9-4.6-4.4-4.6c-1.9,0-4.1,1.2-5.2,1.9c-0.8,0.6-1.4,1.5-1.5,2.5c-0.1,1-0.3,2.1-0.5,3.4
			c-2.4-4.8-6.6-7.7-11.9-7.7c-6.2,0-11.6,4.1-13.4,10.1c-4,3.7-6.3,9.3-6.3,15.2c0,9.3,6.2,16.4,14.4,16.4c5.1,0,9.9-2.7,13.5-7.6
			c-0.6,5.2-0.9,8.8-0.9,11c0,8.9,5.4,9.6,7,9.6c1.9,0,4.4-0.7,6.6-3.6c1.7,3.2,4.7,3.6,5.8,3.6c2.4,0,5.8-1.1,8.3-6.4
			c1.6-3.3,2.7-7.9,2.7-11.9c0-3.6-0.8-6.7-2.4-9.1c1-0.3,1.9-0.6,2.7-0.9c1.4-0.5,2.3-1.7,2.4-3.2C858,32,857.7,30.8,856.9,29.6z
			 M813.7,42.5c-2.4,0-4.2-3.3-4.8-7c1.7,1.1,3.8,1.8,5.9,1.8c1.5,0,2.9-0.3,4.1-0.8c-0.1,0.4-0.3,0.7-0.4,1.1
			C817.9,39.1,816.2,42.5,813.7,42.5z M817.2,25.9C817,28,816.3,28,816,28c-1.6,0-2.8-2.3-2.8-4.4c0-2,1.2-4.1,3.2-4.1
			c1.4,0,2.5,1.5,3.1,3.4C818.2,23.4,817.3,24.5,817.2,25.9z"/>
	</g>
	<g>
		<path class="st100" d="M739.3,31.4c0.1-0.5,0.1-0.8,0.1-1.1c0-0.3-0.1-0.4-0.3-0.4c-0.2,0-0.4,0.1-0.8,0.5c-1.1,1.1-3.2,3.5-4.9,5.8
			l-0.9-0.7c2.2-3.2,5.4-6.9,7.6-8.7c1.3,0.1,2.6,0.6,3.6,1.3c-1.6,6.5-3,14.9-3,19.3c-0.7,0.5-2.3,1.2-3.1,1.2
			c-0.6,0-0.8-0.5-0.8-1.2C736.8,45.3,738.4,36.2,739.3,31.4z"/>
		<path class="st100" d="M746.5,50.5c0-1.8,0.9-3.8,2.5-5.1l0.6,0.6c-0.7,0.9-0.9,1.9-0.9,3c0,3.3,2.6,5.7,6.3,5.7c3.8,0,7-2.5,7-6.7
			c0-4.7-4-6.5-9.1-6.5c-0.8,0-1.8,0-2.9,0.2l-0.3-0.4c1-2.7,2.7-7.9,2.7-11c0-1.1-0.2-2.2-0.5-2.9c0-0.8,0.8-1.6,1.4-1.6
			c0.5,0,0.8,0.5,0.9,1.7c2.4-0.7,5.1-1.1,7.3-1.1c2.6,0,4.6,0.6,4.6,2.7c0,0.9-0.4,2.5-1,3.6l-0.5,0c-0.4-1.8-2.7-2.3-5.1-2.3
			c-1.8,0-3.8,0.3-5.6,0.8c-0.3,2.3-1,5.2-1.7,7.4c1-0.1,2.1-0.2,3-0.2c5.1,0,9.4,2.5,9.4,7.9c0,6-5.1,10.3-10.7,10.3
			C750,56.5,746.5,54.2,746.5,50.5z"/>
		<path class="st100" d="M787.3,25.8L787.3,25.8c-0.3,0-0.7,0.1-1.3,0.1c-1.1,0-2.2-0.3-3.2-0.9c-0.2,3.2-2.9,7-6.4,7
			c-2.8,0-4.5-2.4-4.5-5.3c0-4.1,3.4-7.9,6.4-7.9c1.2,0,1.8,0.6,1.8,1.2c0,0.4-0.2,0.8-0.6,1.1c-0.6-0.5-1.4-0.8-2.1-0.8
			c-2.2,0-3.4,2.6-3.4,4.8c0,2.2,1.2,4.9,3.7,4.9c2.4,0,3.6-2.5,3.6-4.8c0-0.4,0-1-0.2-1.5c-0.3-0.3-0.6-0.8-0.6-1.3
			c0-0.5,0.3-1,1.1-1.1c1,2.1,2.7,3.4,4.9,3.4c0.7,0,1.4-0.1,2-0.4c0.8-1,1.5-2.1,2.1-3.2c0.1,0,0.4-0.1,0.6-0.1
			c0.6,0,1.2,0.4,1.2,1.1c0,1.1-1.3,2.4-2.5,3.1c-5.2,6.2-11.3,13.1-16.6,18.9l-1.1-1C777,38.2,782.9,31.5,787.3,25.8z M787,35.3
			c2.9,0,4.5,2.5,4.5,5.3c0,3.6-2.9,7.9-6.6,7.9c-2.8,0-4.5-2.5-4.5-5.4C780.5,39.5,783.3,35.3,787,35.3z M786.2,46.7
			c2.3,0,3.6-2.5,3.6-4.8c0-2.4-1.4-4.8-3.8-4.8c-2.4,0-3.6,2.4-3.6,4.6C782.4,43.9,783.7,46.7,786.2,46.7z"/>
		<path class="st100" d="M809.1,22.3c1-4.7,4.9-8.4,10.1-8.4c6.9,0,10.3,6.7,10.3,13.5c0,4.6-1.5,9.1-3.7,12.7c-2.9,4.7-6.9,8-11.9,8
			c-6.7,0-10.7-6-10.7-12.7C803.2,31,805,25.6,809.1,22.3z M823.8,39c1.4-3.2,2.1-7.1,2.1-10.3c0-5-1.7-13-7.6-13
			c-4,0-6.9,3.6-6.9,7.8c0,3.9,2.5,8.1,6.5,8.1c2.6,0,4.5-1.8,4.9-5.4l1,0.1c-0.3,4.7-3.4,7.3-7,7.3c-4.4,0-7.7-4-7.8-8.7l-0.1,0
			c-1.4,2.3-1.9,5.6-1.9,8.1c0,6.2,2.9,13.1,8.6,13.1C819.5,46.2,822.2,42.6,823.8,39z"/>
		<path class="st100" d="M832.1,36.8c-0.7-0.3-1.5-0.4-2.3-0.5c-0.1-0.3-0.2-0.7-0.2-1.1c1-0.2,1.9-0.4,2.8-0.6
			c1.4-9,2.3-15.2,2.9-19.5c0.8-0.6,2.3-1.2,3.1-1.2c0.5,0,0.7,0.3,0.7,0.9c0,1-0.8,4.7-1.7,9.4c-0.7,3.8-0.9,5.4-1.6,9.5
			c1.8-0.6,3.7-1.3,5.8-2.2c0.3,0.4,0.5,0.8,0.5,1.4c-1.8,0.7-4.5,1.7-6.6,2.4l-0.1,0.9c3.9,1.8,5.4,5.9,5.4,10.4
			c0,3.3-0.8,7.4-2.3,10.4c-1,1.9-2.6,4.3-5.1,4.3c-2.6,0-3.4-2.8-3.4-5.9C830.2,51.9,831,44.8,832.1,36.8z M835,59.3
			c0.8,0,1.6-1,2.2-2.4c1-2.2,1.7-5.7,1.7-8.6c0-3.4-0.9-7.2-3.7-9.7c-0.7,5.7-1.4,12.7-1.4,16.8C833.7,57.7,833.9,59.3,835,59.3z"
			/>
		<path class="st100" d="M844.5,36.8c-0.7-0.3-1.5-0.4-2.3-0.5c-0.1-0.3-0.2-0.7-0.1-1.1c0.8-0.1,1.8-0.3,2.8-0.4
			c1.4-9.2,2.3-15.3,2.9-19.6c0.8-0.6,2.3-1.2,3.1-1.2c0.5,0,0.7,0.3,0.7,0.9c0,1-0.8,4.7-1.7,9.4c-0.6,3.1-1.1,6.6-1.6,9.8
			c2.6-0.7,4.9-1.4,7.4-2.4c0.3,0.4,0.5,0.9,0.4,1.4c-2.2,0.7-5.8,1.9-8.1,2.5c0,0-0.1,0.6-0.1,0.6c3.4,1.6,5.4,5.1,5.4,10.4
			c0,3.5-0.9,7.5-2.3,10.3c-1,2-2.6,4.3-5.1,4.3c-2.6,0-3.4-2.8-3.4-5.9C842.6,51.9,843.4,44.8,844.5,36.8z M847.4,59.3
			c0.8,0,1.6-1,2.2-2.4c1-2.2,1.7-5.7,1.7-8.6c0-3.4-0.9-7.2-3.7-9.7c-0.7,5.7-1.4,12.7-1.4,16.8C846.2,57.7,846.4,59.3,847.4,59.3z
			"/>
	</g>
</g>
<g class="code_off">
		<path d="M857.9,31.2h-9.3c-2.1,0-3.8,1.6-4,3.6l-1.1-1.7c-0.7-1.1-2-1.8-3.4-1.8h-9.6c-1.6,0-3,1-3.6,2.4c-2.1-1.8-5-2.9-8.9-2.9
		c-6.9,0-11.6,4.3-12.3,11.2c-0.1,1.1,0.3,2.2,1,3.1s1.8,1.3,3,1.3h1.8c0,0.1,0,0.2,0,0.3v2.2c0,2.2,1.8,4,4,4h0.7
		c0.7,0,2.1,0,2.1,2.2c0,1.5-0.3,2-0.3,2c0,0-0.1,0-0.2,0.1c0-0.1-0.1-0.1-0.1-0.2c-0.7-1.3-2.5-4.4-6.6-4.4c-0.5,0-1,0.1-1.5,0.2
		c-0.3-0.3-0.6-0.6-1-0.9l-1.1-0.7c-0.6-0.4-1.4-0.6-2.1-0.6c-1.2,0-2.3,0.5-3.1,1.5c-2.1,2.6-4.3,4.1-6.7,4.4V40.5
		c2-0.3,3.4-2,3.4-4v-1.3c0-2.2-1.8-4-4-4h-7c1.9-0.9,3.2-2.9,3.2-5.2c0-1.3-0.5-2.6-1.2-3.5c0.8-1,1.2-2.2,1.2-3.6
		c0-3.2-2.5-5.7-5.8-5.7c-1.4,0-2.6,0.4-3.6,1.2c-1.3-0.8-3-1.3-4.8-1.3c-1.3,0-2.6,0.3-3.7,0.7v-2.1c0-2.2-1.8-4-4-4h-1
		c-0.7,0-1.4,0.2-2,0.5l-3.1,1.8c-1.2,0.7-2,2-2,3.4c-1.1,0.3-2.1,0.9-3,1.6c-1.6-1.2-3.6-1.9-5.9-1.9c-1.3,0-2.5,0.2-3.6,0.7
		l-0.8-2.8c-0.5-1.7-2.1-2.9-3.9-2.9h-0.9c-0.3,0-0.6,0-0.8,0.1c-1-0.3-2-0.4-3.2-0.4c-6.7,0-11.5,5.1-11.5,12
		c0,5.5,3.1,9.8,7.6,11.4h-4.9c-2.2,0-4,1.8-4,4v1.3c0,1.9,1.4,3.6,3.3,3.9c0,0.1,9,23.5,9,23.5c0.6,1.5,2.1,2.6,3.7,2.6h3.5
		c1.7,0,3.1-1,3.7-2.6c0,0,0.2-0.6,0.6-1.5v0.1c0,2.2,1.8,4,4,4h8.5c2,0,3.7-1.5,4-3.4c0.3,1.9,1.9,3.4,4,3.4h11.3c0.1,0,0.2,0,0.3,0
		c0.1,0,0.2,0,0.3,0h19.9c1.5,0,2.9-0.9,3.6-2.2l0.4-0.8c2.1,2.2,5.7,3.6,10.1,3.6c4,0,7.4-1.1,9.9-3.1c0.6,1.5,2,2.5,3.7,2.5h9.4
		c2.2,0,4-1.8,4-4v-1.3c0-2-1.5-3.7-3.4-4v-4l7.4,11.5c0.7,1.1,2,1.8,3.4,1.8h3.2c2.2,0,4-1.8,4-4V40.5c1.9-0.3,3.4-2,3.4-4v-1.3
		C861.9,33,860.1,31.2,857.9,31.2z M816.3,42.4h-0.3c0.1-1.4,0.5-1.5,0.8-1.5c0,0.1,0,0.3,0,0.5c0,0.6-0.1,1-0.1,1
		C816.7,42.4,816.6,42.4,816.3,42.4z M830.1,43V48c-0.4-0.6-0.9-1.2-1.4-1.8C829.3,45.3,829.8,44.2,830.1,43z M782.9,31.2
		c-2.2,0-4,1.8-4,4v1.3c0,2,1.5,3.7,3.4,4v14.9c-2.1-5.5-8.3-21.6-8.3-21.6c-0.4-1.1-1.3-2-2.4-2.3c0.5-0.1,1.1-0.3,1.5-0.6
		c1.3,0.6,2.9,1,4.5,1c1.7,0,3.2-0.4,4.5-1.2c0.3,0.2,0.6,0.4,1,0.6H782.9z M758.5,31.2h-2.4c0.9-0.3,1.7-0.8,2.4-1.3
		c1.5,1.2,3.3,2,5.5,2c0.3,0,0.5,0,0.7,0c-0.7,0.5-1.3,1.1-1.7,2c0,0-0.2,0.6-0.6,1.5v-0.1C762.5,33,760.7,31.2,758.5,31.2z
		 M739.3,19.8c0-1.8,0.3-2.6,0.4-2.8c0,0,0,0,0,0c0.6,0,1.2,0.8,1.6,1.6c0.3,0.5,0.6,0.9,1,1.2c-0.7,0.5-1.2,1.2-1.4,2
		c-0.1,0.4-0.5,0.9-1.1,0.9c0,0,0,0,0,0C739.6,22.4,739.3,21.6,739.3,19.8z M746.4,29.6c0.8,0.7,1.8,1.3,2.9,1.7
		c-1.7,0.3-3,1.7-3.3,3.4c-0.2-1.6-1.4-2.9-3-3.3C744.3,31,745.4,30.4,746.4,29.6z M748.2,40.1l-2,5.2l-2.1-5.4
		c1-0.6,1.7-1.6,1.9-2.8C746.2,38.4,747.1,39.5,748.2,40.1z M754.1,57.2c-0.7,0.1-1.3,0.3-1.8,0.7C755,51,759,40.5,759,40.5
		c0.7-0.1,1.3-0.3,1.8-0.7C758.2,46.7,754.2,57.2,754.1,57.2z M767.1,60.6c-0.1-0.8-0.4-1.5-0.9-2.1h1.9
		C767.6,59.1,767.2,59.8,767.1,60.6z"/>
	<g>
		<path class="st100" d="M746.6,16.5l-0.7,0.2c-1.2-2.2-2.9-3.7-5.1-3.7c-3.2,0-4.5,2.9-4.5,6.8c0,4,1.2,6.8,4.5,6.8
			c2.4,0,4.3-1.6,5-3.7l1.2,0.4c-1,2.8-3,4.5-6.4,4.5c-4.4,0-7.5-3.3-7.5-8c0-4.8,3.1-8,7.5-8c1.7,0,2.8,0.4,3.7,1l0.3-0.7h0.9
			L746.6,16.5z"/>
		<path class="st100" d="M753.6,17.2c3.3,0,5.4,2.3,5.4,5.3c0,3.1-2.1,5.3-5.4,5.3c-3.3,0-5.5-2.3-5.5-5.3
			C748.2,19.4,750.3,17.2,753.6,17.2z M753.6,26.7c2,0,2.6-1.7,2.6-4.2c0-2.6-0.7-4.2-2.6-4.2c-2,0-2.7,1.7-2.7,4.2
			C751,25.1,751.7,26.7,753.6,26.7z"/>
		<path class="st100" d="M766.5,13.6l3.1-1.8h1v14c0,0.7,0.2,0.9,1.3,1v0.7c-1.3,0-2.7,0.1-4,0.3v-1.1c-0.7,0.7-1.6,1.1-2.9,1.1
			c-2.8,0-4.6-2.2-4.6-5.3c0-3.1,1.8-5.3,4.6-5.3c1.3,0,2.2,0.4,2.9,1.1v-3.3c0-0.5-0.2-0.7-0.6-0.7h-0.7V13.6z M767.9,25.5v-6.1
			c-0.5-0.7-1.2-1.1-2.1-1.1c-1.9,0-2.6,1.5-2.6,4.1c0,2.6,0.7,4.1,2.6,4.1C766.7,26.6,767.4,26.2,767.9,25.5z"/>
		<path class="st100" d="M775.9,21.7c0,0.3,0,0.5,0,0.8c0,2.6,0.9,4.1,3.1,4.1c1.4,0,2.6-0.9,3.3-2.5l1,0.6c-0.9,1.9-2.3,3.1-4.6,3.1
			c-3.6,0-5.6-2.3-5.6-5.3c0-3.1,2-5.3,5.2-5.3c2.9,0,4.6,1.7,4.6,4.5H775.9z M776,20.5h4.3c0-1.5-0.8-2.3-2-2.3
			C776.9,18.3,776.2,19.1,776,20.5z"/>
		<path class="st100" d="M786.7,17.2c1.1,0,1.8,0.8,1.8,1.7c0,0.9-0.7,1.7-1.8,1.7c-1.1,0-1.8-0.8-1.8-1.7
			C784.9,18.1,785.6,17.2,786.7,17.2z M786.7,24.3c1.1,0,1.8,0.8,1.8,1.7c0,0.9-0.7,1.7-1.8,1.7c-1.1,0-1.8-0.8-1.8-1.7
			C784.9,25.2,785.6,24.3,786.7,24.3z"/>
		<path class="st100" d="M743.8,62.5l-8.9-23.3c-0.7-1.8-1.4-2.5-3.1-2.7v-1.3h11.3v1.3c-2.6,0.2-3.2,0.7-2.6,2.4l6.8,17.5l6.7-17.5
			c0.6-1.6-0.3-2.2-3-2.4v-1.3h8.5v1.3c-1.8,0.2-2.6,0.9-3.3,2.6l-8.9,23.4H743.8z"/>
		<path class="st100" d="M771.3,35.2l8.9,23.3c0.7,1.8,1.4,2.5,3.1,2.7v1.3h-11.3v-1.3c2.6-0.2,3.2-0.7,2.6-2.4l-1.7-4.3h-10.2
			l-1.6,4.3c-0.6,1.6,0.3,2.2,3,2.4v1.3h-8.5v-1.3c1.8-0.2,2.6-0.9,3.3-2.6l8.9-23.4H771.3z M763.7,52.3h8.5l-4.3-11L763.7,52.3z"/>
		<path class="st100" d="M795.8,60.3c4.5,0,8-2.5,10.8-6l1.1,0.7l-3.8,7.5h-19.9v-1.3c2.8-0.2,3.4-0.4,3.4-3V39.6
			c0-2.6-0.6-2.9-3.4-3.1v-1.3h12.2v1.3c-2.8,0.2-3.4,0.5-3.4,3.1v19.5c0,0.7,0.5,1.2,1.2,1.2H795.8z"/>
		<path class="st100" d="M822.5,46.7c3.6,0.7,6.3,3.6,6.3,7.2c0,5.1-3.8,9.2-10.8,9.2c-3.8,0-8.1-1.4-8.1-4.4c0-1.4,1-2.4,2.3-2.4
			c3.5,0,2.7,4.6,6,4.6c3.8,0,5.1-2.5,5.1-6.1c0-3.4-2-6.2-6.1-6.2h-0.7v-2.2h0.8c3.1,0,4.6-2.2,4.6-5c0-2.5-1.3-4.5-4-4.5
			c-2.5,0-4.6,1.7-4.8,5.3h-2.3c0.4-4.6,3.3-7.5,8.3-7.5c5.5,0,8.3,2.9,8.3,6.1C827.3,43.5,825.6,45.7,822.5,46.7z"/>
		<path class="st100" d="M831.6,62.5v-1.3c2.8-0.2,3.5-0.4,3.5-3V39.6c0-2.6-0.7-2.9-3.5-3.1v-1.3h9.6L853,53.5v-14
			c0-2.6-0.6-2.9-3.4-3.1v-1.3h9.3v1.3c-2.8,0.2-3.4,0.5-3.4,3.1v22.9h-3.2l-14.8-22.9v18.5c0,2.6,0.6,2.8,3.4,3v1.3H831.6z"/>
	</g>
</g>
</svg>
