<?xml version="1.0" encoding="utf-8"?>
<!-- Generator: Adobe Illustrator 21.0.2, SVG Export Plug-In . SVG Version: 6.00 Build 0)  -->
<svg version="1.1" id="Layer_1" xmlns="http://www.w3.org/2000/svg" xmlns:xlink="http://www.w3.org/1999/xlink" x="0px" y="0px"
	 viewBox="0 0 1500 75" style="enable-background:new 0 0 1500 75;" xml:space="preserve">
<style type="text/css">
	.st0{clip-path:url(#SVGID_2_);fill:#FF0000;}
	.st1{clip-path:url(#SVGID_2_);fill:#FFFFFF;}
	.st2{clip-path:url(#SVGID_2_);}
	.st3{fill:#FF0000;}
	.st4{fill:#FFFFFF;}
	.st5{clip-path:url(#SVGID_2_);fill:none;}
	.st6{clip-path:url(#SVGID_2_);fill:#000066;}
	.st7{opacity:0.6;clip-path:url(#SVGID_2_);}
	.st8{fill:#000066;}
	.st9{fill:#001E6A;}
	.st10{fill:#0B0B0B;}
	.st11{opacity:0.69;fill:#0B0B0B;}
	.st12{fill:#181847;}
	.st13{fill:url(#SVGID_3_);}
	.st14{opacity:0.69;fill:url(#SVGID_4_);}
	.st15{fill:url(#SVGID_5_);}
	.st16{opacity:0.69;fill:url(#SVGID_6_);}
	.stBlue{fill:#000066;}
	.code_on{
	-webkit-animation: flickerAnimation 4s infinite;
    -moz-animation: flickerAnimation 4s infinite;
    -o-animation: flickerAnimation 4s infinite;
    animation: flickerAnimation 4s infinite;
    }
    .code_off{
	-webkit-animation: flickerAnimationOff 4s infinite;
    -moz-animation: flickerAnimationOff 4s infinite;
    -o-animation: flickerAnimationOff 4s infinite;
    animation: flickerAnimationOff 4s infinite;
    }
	
		@keyframes flickerAnimation {
		  0%   { opacity:1; }
		  50%  { opacity:0; }
		  100% { opacity:1; }
		}
		@-o-keyframes flickerAnimation{
		  0%   { opacity:1; }
		  50%  { opacity:0; }
		  100% { opacity:1; }
		}
		@-moz-keyframes flickerAnimation{
		  0%   { opacity:1; }
		  50%  { opacity:0; }
		  100% { opacity:1; }
		}
		@-webkit-keyframes flickerAnimation{
		  0%   { opacity:1; }
		  50%  { opacity:0; }
		  100% { opacity:1; }
		}
		@keyframes flickerAnimationOff {
		  0%   { opacity:0; }
		  50%  { opacity:1; }
		  100% { opacity:0; } 
		}
		@-o-keyframes flickerAnimationOff{
		  0%   { opacity:0; }
		  50%  { opacity:1; }
		  100% { opacity:0; }
		}
		@-moz-keyframes flickerAnimationOff{
		  0%   { opacity:0; }
		  50%  { opacity:1; }
		  100% { opacity:0; }
		}
		@-webkit-keyframes flickerAnimationOff{
		  0%   { opacity:0; }
		  50%  { opacity:1; }
		  100% { opacity:0; }
		}
</style>
<g id="Ribbon_6">
</g>
<g>
	<defs>
		<rect id="SVGID_1_" width="1500" height="75"/>
	</defs>
	<clipPath id="SVGID_2_">
		<use xlink:href="#SVGID_1_"  style="overflow:visible;"/>
	</clipPath>
	<rect x="-100" y="-6.5" transform="matrix(0.7071 -0.7071 0.7071 0.7071 35.2018 88.9637)" class="st0" width="450" height="17"/>
	<rect x="-75.7" y="17.8" transform="matrix(0.7071 -0.7071 0.7071 0.7071 25.1457 113.241)" class="st0" width="450" height="17"/>
	<rect x="-51.5" y="42" transform="matrix(0.7071 -0.7071 0.7071 0.7071 15.0898 137.5184)" class="st0" width="450" height="17"/>
	<rect x="-27.2" y="66.3" transform="matrix(0.7071 -0.7071 0.7071 0.7071 5.0337 161.7957)" class="st0" width="450" height="17"/>
	
		<rect x="-112.3" y="-18.8" transform="matrix(0.7071 -0.7071 0.7071 0.7071 40.2786 76.7072)" class="st1" width="450" height="17"/>
	<rect x="-88" y="5.5" transform="matrix(0.7071 -0.7071 0.7071 0.7071 30.2226 100.9846)" class="st1" width="450" height="17"/>
	<polygon class="st1" points="314.4,-126.8 -3.8,191.4 -3.8,191.4 -3.8,191.4 8.2,203.4 326.4,-114.8 	"/>
	<polygon class="st1" points="314.4,-126.8 -3.8,191.4 -3.8,191.4 	"/>
	
		<rect x="-39.4" y="54.1" transform="matrix(0.7071 -0.7071 0.7071 0.7071 10.1106 149.5392)" class="st1" width="450" height="17"/>
	
		<rect x="-15.2" y="78.3" transform="matrix(0.7071 -0.7071 0.7071 0.7071 5.456305e-02 173.8165)" class="st1" width="450" height="17"/>
	<g class="st2">
		<g>
			
				<rect x="150.2" y="-61.3" transform="matrix(0.7071 -0.7071 0.7071 0.7071 147.2463 249.7993)" class="st3" width="450" height="17"/>
		</g>
		<g>
			
				<rect x="174.4" y="-37.1" transform="matrix(0.7071 -0.7071 0.7071 0.7071 137.1903 274.0766)" class="st3" width="450" height="17"/>
		</g>
		<g>
			
				<rect x="198.7" y="-12.8" transform="matrix(0.7071 -0.7071 0.7071 0.7071 127.1343 298.3539)" class="st3" width="450" height="17"/>
		</g>
		<g>
			
				<rect x="223" y="11.5" transform="matrix(0.7071 -0.7071 0.7071 0.7071 117.0783 322.6313)" class="st3" width="450" height="17"/>
		</g>
		<g>
			
				<rect x="247.3" y="35.8" transform="matrix(0.7071 -0.7071 0.7071 0.7071 107.0223 346.9086)" class="st3" width="450" height="17"/>
		</g>
		<g>
			
				<rect x="271.5" y="60" transform="matrix(0.7071 -0.7071 0.7071 0.7071 96.9663 371.1859)" class="st3" width="450" height="17"/>
		</g>
		<g>
			
				<rect x="295.8" y="84.3" transform="matrix(0.7071 -0.7071 0.7071 0.7071 86.9103 395.4633)" class="st3" width="450" height="17"/>
		</g>
	</g>
	<g class="st2">
		
			<rect x="162.2" y="-49.3" transform="matrix(0.7071 -0.7071 0.7071 0.7071 142.2672 261.8201)" class="st4" width="450" height="17"/>
		
			<rect x="186.5" y="-25" transform="matrix(0.7071 -0.7071 0.7071 0.7071 132.2111 286.0974)" class="st4" width="450" height="17"/>
		
			<rect x="210.7" y="-0.8" transform="matrix(0.7071 -0.7071 0.7071 0.7071 122.1551 310.3748)" class="st4" width="450" height="17"/>
		
			<rect x="235" y="23.5" transform="matrix(0.7071 -0.7071 0.7071 0.7071 112.0991 334.6521)" class="st4" width="450" height="17"/>
		
			<rect x="259.3" y="47.8" transform="matrix(0.7071 -0.7071 0.7071 0.7071 102.0431 358.9294)" class="st4" width="450" height="17"/>
		
			<rect x="283.6" y="72.1" transform="matrix(0.7071 -0.7071 0.7071 0.7071 91.9871 383.2068)" class="st4" width="450" height="17"/>
		
			<rect x="307.8" y="96.3" transform="matrix(0.7071 -0.7071 0.7071 0.7071 81.9312 407.4841)" class="st4" width="450" height="17"/>
	</g>
	<g class="st2">
		<g>
			<g>
				
					<rect x="480.2" y="-51.3" transform="matrix(0.7071 -0.7071 0.7071 0.7071 236.83 486.0735)" class="st3" width="450" height="17"/>
			</g>
			<g>
				
					<rect x="504.4" y="-27.1" transform="matrix(0.7071 -0.7071 0.7071 0.7071 226.774 510.3508)" class="st3" width="450" height="17"/>
			</g>
			<g>
				
					<rect x="528.7" y="-2.8" transform="matrix(0.7071 -0.7071 0.7071 0.7071 216.718 534.6281)" class="st3" width="450" height="17"/>
			</g>
			<g>
				
					<rect x="553" y="21.5" transform="matrix(0.7071 -0.7071 0.7071 0.7071 206.662 558.9055)" class="st3" width="450" height="17"/>
			</g>
			<g>
				
					<rect x="577.3" y="45.8" transform="matrix(0.7071 -0.7071 0.7071 0.7071 196.606 583.1828)" class="st3" width="450" height="17"/>
			</g>
			<g>
				
					<rect x="601.5" y="70" transform="matrix(0.7071 -0.7071 0.7071 0.7071 186.55 607.4601)" class="st3" width="450" height="17"/>
			</g>
			<g>
				
					<rect x="625.8" y="94.3" transform="matrix(0.7071 -0.7071 0.7071 0.7071 176.494 631.7375)" class="st3" width="450" height="17"/>
			</g>
		</g>
		<g>
			
				<rect x="492.2" y="-39.3" transform="matrix(0.7071 -0.7071 0.7071 0.7071 231.8508 498.0943)" class="st4" width="450" height="17"/>
			
				<rect x="516.5" y="-15" transform="matrix(0.7071 -0.7071 0.7071 0.7071 221.7948 522.3716)" class="st4" width="450" height="17"/>
			
				<rect x="540.7" y="9.2" transform="matrix(0.7071 -0.7071 0.7071 0.7071 211.7388 546.6489)" class="st4" width="450" height="17"/>
			
				<rect x="565" y="33.5" transform="matrix(0.7071 -0.7071 0.7071 0.7071 201.6828 570.9263)" class="st4" width="450" height="17"/>
			
				<rect x="589.3" y="57.8" transform="matrix(0.7071 -0.7071 0.7071 0.7071 191.6268 595.2036)" class="st4" width="450" height="17"/>
			
				<rect x="613.6" y="82.1" transform="matrix(0.7071 -0.7071 0.7071 0.7071 181.5708 619.4809)" class="st4" width="450" height="17"/>
			
				<rect x="637.8" y="106.3" transform="matrix(0.7071 -0.7071 0.7071 0.7071 171.5148 643.7583)" class="st4" width="450" height="17"/>
		</g>
	</g>
	<g class="st2">
		<g>
			<g>
				
					<rect x="834.2" y="-67.3" transform="matrix(0.7071 -0.7071 0.7071 0.7071 351.8279 731.703)" class="st3" width="450" height="17"/>
			</g>
			<g>
				
					<rect x="858.4" y="-43.1" transform="matrix(0.7071 -0.7071 0.7071 0.7071 341.7719 755.9803)" class="st3" width="450" height="17"/>
			</g>
			<g>
				
					<rect x="882.7" y="-18.8" transform="matrix(0.7071 -0.7071 0.7071 0.7071 331.7159 780.2576)" class="st3" width="450" height="17"/>
			</g>
			<g>
				
					<rect x="907" y="5.5" transform="matrix(0.7071 -0.7071 0.7071 0.7071 321.6599 804.5349)" class="st3" width="450" height="17"/>
			</g>
			<g>
				
					<rect x="931.3" y="29.8" transform="matrix(0.7071 -0.7071 0.7071 0.7071 311.6039 828.8123)" class="st3" width="450" height="17"/>
			</g>
			<g>
				
					<rect x="955.5" y="54" transform="matrix(0.7071 -0.7071 0.7071 0.7071 301.5479 853.0896)" class="st3" width="450" height="17"/>
			</g>
			<g>
				
					<rect x="979.8" y="78.3" transform="matrix(0.7071 -0.7071 0.7071 0.7071 291.4919 877.3669)" class="st3" width="450" height="17"/>
			</g>
		</g>
		<g>
			
				<rect x="846.2" y="-55.3" transform="matrix(0.7071 -0.7071 0.7071 0.7071 346.8488 743.7238)" class="st4" width="450" height="17"/>
			
				<rect x="870.5" y="-31" transform="matrix(0.7071 -0.7071 0.7071 0.7071 336.7927 768.0011)" class="st4" width="450" height="17"/>
			
				<rect x="894.7" y="-6.8" transform="matrix(0.7071 -0.7071 0.7071 0.7071 326.7367 792.2784)" class="st4" width="450" height="17"/>
			
				<rect x="919" y="17.5" transform="matrix(0.7071 -0.7071 0.7071 0.7071 316.6807 816.5557)" class="st4" width="450" height="17"/>
			
				<rect x="943.3" y="41.8" transform="matrix(0.7071 -0.7071 0.7071 0.7071 306.6247 840.8331)" class="st4" width="450" height="17"/>
			
				<rect x="967.6" y="66.1" transform="matrix(0.7071 -0.7071 0.7071 0.7071 296.5687 865.1104)" class="st4" width="450" height="17"/>
			
				<rect x="991.8" y="90.3" transform="matrix(0.7071 -0.7071 0.7071 0.7071 286.5128 889.3878)" class="st4" width="450" height="17"/>
		</g>
	</g>
	<g class="st2">
		
			<rect x="1164.2" y="-57.3" transform="matrix(0.7071 -0.7071 0.7071 0.7071 441.4116 967.9772)" class="st3" width="450" height="17"/>
	</g>
	<g class="st2">
		
			<rect x="1188.4" y="-33.1" transform="matrix(0.7071 -0.7071 0.7071 0.7071 431.3556 992.2545)" class="st3" width="450" height="17"/>
	</g>
	<g class="st2">
		
			<rect x="1212.7" y="-8.8" transform="matrix(0.7071 -0.7071 0.7071 0.7071 421.2996 1016.5317)" class="st3" width="450" height="17"/>
	</g>
	<g class="st2">
		
			<rect x="1237" y="15.5" transform="matrix(0.7071 -0.7071 0.7071 0.7071 411.2436 1040.8091)" class="st3" width="450" height="17"/>
	</g>
	
		<rect x="1176.2" y="-45.3" transform="matrix(0.7071 -0.7071 0.7071 0.7071 436.4325 979.998)" class="st1" width="450" height="17"/>
	
		<rect x="1200.5" y="-21" transform="matrix(0.7071 -0.7071 0.7071 0.7071 426.3764 1004.2752)" class="st1" width="450" height="17"/>
	
		<rect x="1224.7" y="3.2" transform="matrix(0.7071 -0.7071 0.7071 0.7071 416.3204 1028.5526)" class="st1" width="450" height="17"/>
	
		<rect x="1249" y="27.5" transform="matrix(0.7071 -0.7071 0.7071 0.7071 406.2644 1052.8298)" class="st1" width="450" height="17"/>
	<rect class="st5" width="1500" height="75"/>
	<polygon class="st6" points="335.2,75 0,75 0,0 410,0 	"/>
	<polygon class="st1" points="104.6,2.7 107.6,8.7 114.3,9.7 109.5,14.4 110.6,21.1 104.6,18 98.6,21.1 99.8,14.4 94.9,9.7 
		101.6,8.7 	"/>
	<polygon class="st1" points="136.5,2.7 139.5,8.7 146.2,9.7 141.3,14.4 142.5,21.1 136.5,18 130.5,21.1 131.6,14.4 126.8,9.7 
		133.5,8.7 	"/>
	<polygon class="st1" points="168.4,2.7 171.4,8.7 178.1,9.7 173.2,14.4 174.4,21.1 168.4,18 162.4,21.1 163.5,14.4 158.7,9.7 
		165.4,8.7 	"/>
	<polygon class="st1" points="200.2,2.7 203.2,8.7 209.9,9.7 205.1,14.4 206.2,21.1 200.2,18 194.2,21.1 195.4,14.4 190.5,9.7 
		197.2,8.7 	"/>
	<polygon class="st1" points="232.1,2.7 235.1,8.7 241.8,9.7 237,14.4 238.1,21.1 232.1,18 226.1,21.1 227.3,14.4 222.4,9.7 
		229.1,8.7 	"/>
	<polygon class="st1" points="264,2.7 267,8.7 273.7,9.7 268.8,14.4 270,21.1 264,18 258,21.1 259.1,14.4 254.3,9.7 261,8.7 	"/>
	<polygon class="st1" points="295.9,2.7 298.9,8.7 305.6,9.7 300.7,14.4 301.9,21.1 295.9,18 289.9,21.1 291,14.4 286.2,9.7 
		292.9,8.7 	"/>
	<polygon class="st1" points="327.7,2.7 330.7,8.7 337.4,9.7 332.6,14.4 333.7,21.1 327.7,18 321.7,21.1 322.9,14.4 318,9.7 
		324.7,8.7 	"/>
	<polygon class="st1" points="359.6,2.7 362.6,8.7 369.3,9.7 364.5,14.4 365.6,21.1 359.6,18 353.6,21.1 354.8,14.4 349.9,9.7 
		356.6,8.7 	"/>
	<polygon class="st1" points="79,27.8 82,33.9 88.7,34.8 83.8,39.5 85,46.2 79,43.1 73,46.2 74.2,39.5 69.3,34.8 76,33.9 	"/>
	<polygon class="st1" points="110.9,27.8 113.9,33.9 120.6,34.8 115.7,39.5 116.9,46.2 110.9,43.1 104.9,46.2 106,39.5 101.2,34.8 
		107.9,33.9 	"/>
	<polygon class="st1" points="142.8,27.8 145.7,33.9 152.4,34.8 147.6,39.5 148.7,46.2 142.8,43.1 136.8,46.2 137.9,39.5 
		133.1,34.8 139.8,33.9 	"/>
	<polygon class="st1" points="174.6,27.8 177.6,33.9 184.3,34.8 179.5,39.5 180.6,46.2 174.6,43.1 168.6,46.2 169.8,39.5 
		164.9,34.8 171.6,33.9 	"/>
	<polygon class="st1" points="206.5,27.8 209.5,33.9 216.2,34.8 211.3,39.5 212.5,46.2 206.5,43.1 200.5,46.2 201.7,39.5 
		196.8,34.8 203.5,33.9 	"/>
	<polygon class="st1" points="238.4,27.8 241.4,33.9 248.1,34.8 243.2,39.5 244.4,46.2 238.4,43.1 232.4,46.2 233.5,39.5 
		228.7,34.8 235.4,33.9 	"/>
	<polygon class="st1" points="270.3,27.8 273.2,33.9 279.9,34.8 275.1,39.5 276.2,46.2 270.3,43.1 264.3,46.2 265.4,39.5 
		260.6,34.8 267.3,33.9 	"/>
	<polygon class="st1" points="302.1,27.8 305.1,33.9 311.8,34.8 307,39.5 308.1,46.2 302.1,43.1 296.1,46.2 297.3,39.5 292.4,34.8 
		299.1,33.9 	"/>
	<polygon class="st1" points="334,27.8 337,33.9 343.7,34.8 338.8,39.5 340,46.2 334,43.1 328,46.2 329.2,39.5 324.3,34.8 331,33.9 
			"/>
	<polygon class="st1" points="55,51.8 58,57.9 64.7,58.8 59.8,63.5 61,70.2 55,67.1 49,70.2 50.2,63.5 45.3,58.8 52,57.9 	"/>
	<polygon class="st1" points="86.9,51.8 89.9,57.9 96.6,58.8 91.7,63.5 92.9,70.2 86.9,67.1 80.9,70.2 82,63.5 77.2,58.8 83.9,57.9 
			"/>
	<polygon class="st1" points="118.8,51.8 121.7,57.9 128.4,58.8 123.6,63.5 124.7,70.2 118.8,67.1 112.8,70.2 113.9,63.5 
		109.1,58.8 115.8,57.9 	"/>
	<polygon class="st1" points="150.6,51.8 153.6,57.9 160.3,58.8 155.5,63.5 156.6,70.2 150.6,67.1 144.6,70.2 145.8,63.5 
		140.9,58.8 147.6,57.9 	"/>
	<polygon class="st1" points="182.5,51.8 185.5,57.9 192.2,58.8 187.3,63.5 188.5,70.2 182.5,67.1 176.5,70.2 177.7,63.5 
		172.8,58.8 179.5,57.9 	"/>
	<polygon class="st1" points="214.4,51.8 217.4,57.9 224.1,58.8 219.2,63.5 220.4,70.2 214.4,67.1 208.4,70.2 209.5,63.5 
		204.7,58.8 211.4,57.9 	"/>
	<polygon class="st1" points="246.3,51.8 249.2,57.9 255.9,58.8 251.1,63.5 252.2,70.2 246.3,67.1 240.3,70.2 241.4,63.5 
		236.6,58.8 243.3,57.9 	"/>
	<polygon class="st1" points="278.1,51.8 281.1,57.9 287.8,58.8 283,63.5 284.1,70.2 278.1,67.1 272.1,70.2 273.3,63.5 268.4,58.8 
		275.1,57.9 	"/>
	<polygon class="st1" points="310,51.8 313,57.9 319.7,58.8 314.8,63.5 316,70.2 310,67.1 304,70.2 305.2,63.5 300.3,58.8 307,57.9 
			"/>
	<path class="st7" d="M842.9,71.3c-17.7-3.7-36.9-6-57.1-6.9l-2.6-0.1v-7.6c-11.2-0.2-46.6-0.4-53.4-0.4
		c-12.4,0-241.9,0.1-269.6,0.4v7.6l-2.6,0.1c-20.6,0.9-40.1,3.3-58.1,7.1l-7,1.5l22.4-30.3l-21.4-21.3l4.9-1
		c11.6-2.4,23.9-4.3,36.9-5.6V7l2.5-0.2C450.6,5.6,715.2,5,729.8,5c11.6,0,62.5,0.6,75.9,1.8l2.5,0.2v7.7
		c12.9,1.3,25.3,3.2,36.9,5.6l4.9,1l-21.4,21.3l17.5,23.7l1.2,0.2l0,1.3L851,73l-3.7-0.8L842.9,71.3z"/>
	<g class="st2">
		<path class="st8" d="M399.8,20.2c12.2-2.6,25.4-4.5,39-5.8V6.7c12.7-1.2,278.7-1.8,291.8-1.8c13.2,0,62.9,0.6,75.7,1.8v7.6
			c13.7,1.3,26.8,3.2,39,5.8l-19.5,19.4L845.4,66v0c-18-3.8-37.9-6.2-58.6-7.2v-7.6c-6.5-0.3-49.6-0.4-56.2-0.4
			c-6.5,0-265.8,0.1-272.3,0.4v7.6c-20.6,0.9-40.5,3.4-58.6,7.2l19.5-26.4L399.8,20.2L399.8,20.2z"/>
		<g>
			<g>
				<path class="st9" d="M395.8,67.7l21.1-28.6l-20.4-20.3l2.6-0.5c11.8-2.5,24.4-4.4,37.6-5.7V5l1.8-0.2C451.7,3.6,721.7,3,730.7,3
					c11.6,0,62.6,0.6,76,1.8l1.8,0.2v7.6c13.2,1.3,25.8,3.2,37.6,5.7l2.6,0.5l-20.4,20.3L847,64.4l0.6,0.1v1l-2.3,0.3l-0.5,0.9
					c-18-3.8-37.5-6.2-58-7.1l-2-0.1v-7.6c-10.4-0.2-47.3-0.4-54-0.4c-6.8,0-252.1,0.1-270.2,0.4v7.6l-2,0.1
					c-20.6,0.9-40.1,3.3-58,7.1L395.8,67.7z M403.1,20.4L421.8,39l-18,24.3c16.4-3.2,34-5.3,52.4-6.2v-7.6l2-0.1
					c6.8-0.3,271.1-0.4,272.5-0.4c5.4,0,49.6,0.1,56.3,0.4l2,0.1V57c18.4,0.9,36,3,52.4,6.2L823.5,39l18.7-18.6
					c-11.3-2.3-23.5-4-36.1-5.2l-1.8-0.2V7.3c-14.7-1.1-60.1-1.6-73.5-1.6c-15.4,0-269.2,0.6-289.7,1.7v7.6l-1.8,0.2
					C426.6,16.3,414.5,18.1,403.1,20.4z"/>
			</g>
			<g>
				<path class="st10" d="M458.4,50.6c-6.6,0.3-9.3,0.8-15.8,1.4l15.8,6.3L458.4,50.6L458.4,50.6z"/>
				<path class="st10" d="M458.4,50.6c-6.6,0.3-9.3,0.8-15.8,1.4l15.8,6.3L458.4,50.6L458.4,50.6z"/>
				<path class="st11" d="M458.4,50.6c-6.6,0.3-9.3,0.8-15.8,1.4l15.8,6.3L458.4,50.6L458.4,50.6z"/>
				<g>
					<path class="st10" d="M460.5,60.7l-23.9-9.5l5.7-0.5c1.9-0.2,3.5-0.3,5-0.5c3.5-0.4,6.2-0.7,10.9-0.9l2.3-0.1L460.5,60.7z
						 M448.5,52.7l7.7,3.1l0-3.7C453.3,52.3,451.1,52.5,448.5,52.7z"/>
				</g>
			</g>
			<g>
				<path class="st10" d="M786.9,50.6c6.6,0.3,9.3,0.8,15.7,1.4l-15.7,6.3"/>
				<path class="st10" d="M786.9,50.6c6.6,0.3,9.3,0.8,15.7,1.4l-15.7,6.3"/>
				<path class="st11" d="M786.9,50.6c6.6,0.3,9.3,0.8,15.7,1.4l-15.7,6.3"/>
				<g>
					<path class="st10" d="M796.7,52.7c-3.1-0.3-5.8-0.6-10-0.8l0.3-2.7c4.7,0.2,7.4,0.5,10.9,0.9c1.5,0.2,3.1,0.3,5,0.5l5.7,0.5
						L788,59.4l-2.3-2.3"/>
				</g>
			</g>
			<g>
				<line class="st12" x1="438.9" y1="13.8" x2="438.9" y2="52"/>
				<linearGradient id="SVGID_3_" gradientUnits="userSpaceOnUse" x1="438.8875" y1="32.8867" x2="438.8875" y2="32.8867">
					<stop  offset="0" style="stop-color:#FFFFFF"/>
					<stop  offset="0.1685" style="stop-color:#151515"/>
					<stop  offset="0.2637" style="stop-color:#7F7F7F"/>
					<stop  offset="0.3956" style="stop-color:#8E8E8E"/>
					<stop  offset="0.5421" style="stop-color:#636363"/>
					<stop  offset="0.6264" style="stop-color:#5F5F5F"/>
					<stop  offset="0.7179" style="stop-color:#EAEAEA"/>
					<stop  offset="0.7912" style="stop-color:#FFFFFF"/>
					<stop  offset="1" style="stop-color:#0B0B0B"/>
				</linearGradient>
				<line class="st13" x1="438.9" y1="13.8" x2="438.9" y2="52"/>
				<linearGradient id="SVGID_4_" gradientUnits="userSpaceOnUse" x1="438.8875" y1="51.9841" x2="438.8875" y2="13.7893">
					<stop  offset="0" style="stop-color:#FFFFFF;stop-opacity:0"/>
					<stop  offset="1" style="stop-color:#FFFFFF"/>
				</linearGradient>
				<line class="st14" x1="438.9" y1="13.8" x2="438.9" y2="52"/>
				<g>
					<polygon class="st9" points="441,51 436.7,52 436.7,13.8 441,13.8 					"/>
				</g>
			</g>
			<g>
				<line class="st12" x1="806.4" y1="13.8" x2="806.4" y2="52"/>
				<linearGradient id="SVGID_5_" gradientUnits="userSpaceOnUse" x1="806.3878" y1="32.8867" x2="806.3878" y2="32.8867">
					<stop  offset="0" style="stop-color:#FFFFFF"/>
					<stop  offset="0.1685" style="stop-color:#151515"/>
					<stop  offset="0.2637" style="stop-color:#7F7F7F"/>
					<stop  offset="0.3956" style="stop-color:#8E8E8E"/>
					<stop  offset="0.5421" style="stop-color:#636363"/>
					<stop  offset="0.6264" style="stop-color:#5F5F5F"/>
					<stop  offset="0.7179" style="stop-color:#EAEAEA"/>
					<stop  offset="0.7912" style="stop-color:#FFFFFF"/>
					<stop  offset="1" style="stop-color:#0B0B0B"/>
				</linearGradient>
				<line class="st15" x1="806.4" y1="13.8" x2="806.4" y2="52"/>
				<linearGradient id="SVGID_6_" gradientUnits="userSpaceOnUse" x1="806.3878" y1="51.9841" x2="806.3878" y2="13.7893">
					<stop  offset="0" style="stop-color:#FFFFFF;stop-opacity:0"/>
					<stop  offset="1" style="stop-color:#FFFFFF"/>
				</linearGradient>
				<line class="st16" x1="806.4" y1="13.8" x2="806.4" y2="52"/>
				<g>
					<polygon class="st9" points="808.5,52 804.2,51 804.2,13.8 808.5,13.8 					"/>
				</g>
			</g>
		</g>
		<g>
			<path class="st4" d="M495.7,14.9c-0.4,0-0.8,0.1-1.2,0.2c-0.4,0.1-0.8,0.3-1.2,0.5c-0.5,0.3-0.9,0.6-1.2,1
				c-0.3,0.4-0.6,0.8-0.9,1.5c-0.4,0.9-0.9,2.1-1.6,3.8c-0.7,1.6-1.5,3.5-2.4,5.6c-0.8,1.9-1.7,4-2.6,6.2c-0.9,2.3-1.8,4.4-2.7,6.5
				h-3.7c-1.7-4.3-3.5-8.6-5.3-13c-1.8-4.4-3.1-7.5-3.8-9.2c-0.3-0.6-0.6-1.1-0.8-1.4c-0.3-0.3-0.7-0.6-1.3-1
				c-0.4-0.2-0.8-0.4-1.1-0.5c-0.3-0.1-0.8-0.2-1.3-0.3v-1.5H479v1.4c-1.3,0.2-2.3,0.3-2.7,0.5c-0.5,0.2-0.7,0.4-0.7,0.7
				c0,0.1,0,0.3,0.1,0.4c0,0.2,0.1,0.4,0.2,0.6c0.4,1.1,1.1,2.9,2.2,5.4s2.6,6.3,4.6,11.3c1.3-3.1,2.3-5.7,3.1-7.8s1.6-4,2.2-5.7
				c0.3-0.8,0.6-1.5,0.8-2.2c0.2-0.7,0.3-1.2,0.3-1.6c0-0.4-0.3-0.7-0.9-1c-0.6-0.3-1.6-0.5-3.2-0.6v-1.5h10.7V14.9z"/>
			<path class="st4" d="M519.7,20.2h-1.4c-0.4-1-1-2-1.9-3c-0.9-1-1.8-1.6-2.6-1.8c-0.4-0.1-0.9-0.1-1.6-0.2c-0.7,0-1.2,0-1.7,0
				h-3.8v10.2h2.7c0.7,0,1.3-0.1,1.9-0.2c0.6-0.2,1.1-0.5,1.5-0.9c0.3-0.3,0.6-0.8,0.9-1.5c0.3-0.7,0.5-1.3,0.6-1.9h1.4v11h-1.4
				c-0.1-0.5-0.3-1.2-0.6-2c-0.3-0.8-0.6-1.3-0.9-1.6c-0.4-0.4-0.9-0.8-1.5-0.9c-0.6-0.2-1.2-0.3-1.9-0.3h-2.7v7.6
				c0,0.8,0.1,1.4,0.2,1.9c0.1,0.5,0.3,0.8,0.7,1.1c0.3,0.2,0.7,0.4,1.3,0.5c0.5,0.1,1.3,0.1,2.2,0.1c0.4,0,1,0,1.6,0
				c0.6,0,1.1,0,1.6-0.1c0.5-0.1,1-0.2,1.5-0.3c0.5-0.1,0.8-0.3,1-0.5c0.6-0.6,1.3-1.5,2-2.8c0.7-1.2,1.2-2.2,1.5-2.8h1.4l-0.5,8.2
				h-24.8v-1.5c0.3,0,0.8-0.1,1.4-0.1c0.6-0.1,1-0.2,1.3-0.3c0.5-0.2,0.8-0.5,1-0.8c0.2-0.3,0.2-0.7,0.2-1.2V17.4
				c0-0.4-0.1-0.8-0.2-1.1c-0.1-0.3-0.5-0.6-1-0.8c-0.3-0.1-0.8-0.3-1.4-0.4c-0.6-0.1-1-0.2-1.3-0.2v-1.5h23.5V20.2z"/>
			<path class="st4" d="M548.4,21H547c-0.4-1.1-1-2.3-1.9-3.6c-0.9-1.3-1.6-2-2.4-2.1c-0.4,0-0.9-0.1-1.5-0.1
				c-0.6,0-1.1-0.1-1.5-0.1h-0.9v20.8c0,0.4,0.1,0.8,0.2,1.2c0.2,0.3,0.5,0.6,1,0.8c0.3,0.1,0.7,0.2,1.3,0.3
				c0.6,0.1,1.1,0.2,1.5,0.3v1.5h-14.8v-1.5c0.4,0,0.9-0.1,1.5-0.2c0.7-0.1,1.1-0.2,1.3-0.3c0.5-0.2,0.8-0.5,1-0.8
				c0.2-0.3,0.2-0.7,0.2-1.2v-21h-0.9c-0.4,0-0.9,0-1.5,0.1c-0.6,0-1.1,0.1-1.5,0.1c-0.7,0.1-1.5,0.8-2.4,2.1
				c-0.9,1.3-1.5,2.5-1.9,3.6h-1.5v-7.6h25.7V21z"/>
			<path class="st4" d="M580.3,39.9h-10.2c-1.8-2.7-3.2-4.8-4.4-6.4c-1.2-1.6-2.6-3.4-4.3-5.5h-1v8c0,0.4,0.1,0.8,0.3,1.1
				c0.2,0.3,0.5,0.6,1,0.8c0.2,0.1,0.6,0.2,1.1,0.3c0.5,0.1,0.9,0.2,1.3,0.2v1.5H550v-1.5c0.4,0,0.8-0.1,1.4-0.2
				c0.6-0.1,1-0.2,1.3-0.3c0.5-0.2,0.8-0.5,1-0.8c0.2-0.3,0.2-0.7,0.2-1.2V17.4c0-0.4-0.1-0.8-0.2-1.1c-0.1-0.3-0.5-0.6-1-0.8
				c-0.4-0.2-0.9-0.3-1.4-0.4c-0.5-0.1-1-0.2-1.3-0.2v-1.5h14.9c3.3,0,5.8,0.5,7.6,1.6c1.7,1,2.6,2.6,2.6,4.7c0,1.9-0.5,3.3-1.6,4.5
				c-1.1,1.1-2.7,2-4.9,2.6c0.8,1.1,1.8,2.4,3,3.8c1.1,1.4,2.3,2.9,3.5,4.4c0.4,0.5,0.9,1.1,1.6,1.8c0.7,0.7,1.3,1.1,1.8,1.3
				c0.3,0.1,0.6,0.2,1.1,0.2c0.4,0.1,0.8,0.1,0.9,0.1V39.9z M567.6,20.2c0-1.8-0.5-3.1-1.5-3.9c-1-0.8-2.4-1.2-4.2-1.2h-1.5v11.1
				h1.4c1.8,0,3.2-0.5,4.3-1.4C567.1,23.8,567.6,22.3,567.6,20.2z"/>
			<path class="st4" d="M609.1,39.9h-14.4v-1.5c0.7,0,1.5-0.2,2.4-0.4c0.9-0.2,1.4-0.4,1.4-0.7c0-0.1,0-0.2,0-0.3
				c0-0.1-0.1-0.3-0.2-0.5L596,31h-9.1c-0.2,0.5-0.4,1.1-0.7,1.8c-0.3,0.7-0.5,1.3-0.7,1.8c-0.2,0.7-0.4,1.2-0.4,1.5
				c0,0.3-0.1,0.5-0.1,0.7c0,0.4,0.3,0.7,0.9,1c0.6,0.3,1.6,0.5,3,0.6v1.5h-10.9v-1.5c0.4,0,0.9-0.1,1.4-0.2
				c0.5-0.1,0.9-0.3,1.2-0.4c0.5-0.3,0.9-0.7,1.3-1.1c0.4-0.4,0.6-1,0.9-1.5c1.4-3.5,2.9-7,4.3-10.5c1.4-3.5,3.1-7.4,4.8-11.6h3.7
				c2.4,6,4.3,10.7,5.7,14.2c1.4,3.5,2.6,6.4,3.5,8.7c0.2,0.4,0.4,0.7,0.6,1s0.6,0.6,1.1,0.9c0.3,0.2,0.8,0.3,1.2,0.4
				c0.5,0.1,0.9,0.2,1.3,0.2V39.9z M595.2,29.2l-3.8-9.6l-3.8,9.6H595.2z"/>
			<path class="st4" d="M639.8,14.9c-0.3,0-0.8,0.1-1.5,0.2c-0.6,0.1-1.2,0.3-1.8,0.7c-0.5,0.3-0.8,0.9-1,1.7
				c-0.2,0.8-0.3,2-0.3,3.6V40H632l-16.5-20.5V32c0,1.5,0.1,2.7,0.3,3.5c0.2,0.8,0.5,1.4,1,1.8c0.3,0.3,0.9,0.5,1.6,0.7
				c0.7,0.2,1.3,0.4,1.8,0.4v1.5h-11.4v-1.5c0.5,0,1-0.1,1.7-0.3c0.6-0.1,1.2-0.4,1.6-0.7c0.5-0.4,0.8-0.9,1-1.6
				c0.2-0.7,0.3-1.9,0.3-3.7V19.7c0-0.6-0.1-1.2-0.3-1.8c-0.2-0.6-0.5-1-0.9-1.4c-0.4-0.4-0.9-0.8-1.5-1c-0.6-0.2-1.2-0.4-1.9-0.6
				v-1.5h10l14.5,17.9v-10c0-1.6-0.1-2.8-0.3-3.6c-0.2-0.8-0.5-1.4-1-1.7c-0.4-0.3-0.9-0.5-1.6-0.7c-0.7-0.2-1.3-0.3-1.7-0.4v-1.5
				h11.4V14.9z"/>
			<path class="st4" d="M642,23.1c1.4-0.7,2.5-1.5,3.3-2.4c0.8-0.9,1.3-2,1.4-3.3h-1c-0.8,0-1.4-0.1-1.9-0.3s-0.9-0.4-1.2-0.7
				c-0.3-0.3-0.5-0.6-0.6-1c-0.1-0.4-0.2-0.7-0.2-1.1c0-0.8,0.3-1.5,1-2.1c0.6-0.6,1.4-0.9,2.3-0.9c1.4,0,2.4,0.5,3.2,1.4
				c0.7,0.9,1.1,2.2,1.1,3.8c0,1.5-0.6,3-1.9,4.5c-1.3,1.5-2.8,2.7-4.6,3.5L642,23.1z"/>
			<path class="st4" d="M662.8,40.6c-1.6,0-3.1-0.2-4.5-0.6s-2.6-0.9-3.6-1.4l-1.3,1.3h-1.6l-0.2-9.6h1.6c0.4,0.9,0.8,1.9,1.4,2.9
				c0.6,1,1.2,1.9,1.9,2.7c0.8,0.8,1.6,1.5,2.5,2c0.9,0.5,2,0.8,3.3,0.8c1.7,0,3-0.4,3.9-1.2c0.9-0.8,1.4-1.9,1.4-3.1
				c0-1-0.4-1.9-1.1-2.6s-2-1.3-3.6-1.8c-1-0.3-2-0.6-2.9-0.9c-0.9-0.3-1.7-0.6-2.5-0.9c-1.8-0.7-3.1-1.7-4-3
				c-0.9-1.3-1.3-2.8-1.3-4.4c0-1,0.2-2,0.7-3c0.4-1,1.1-1.8,2-2.6c0.8-0.7,1.9-1.3,3.2-1.7c1.3-0.4,2.7-0.7,4.2-0.7
				c1.5,0,2.8,0.2,4.1,0.6c1.3,0.4,2.3,0.8,3,1.2l1.1-1.1h1.6l0.1,9h-1.6c-0.4-1-0.8-2-1.3-3c-0.5-1-1-1.9-1.6-2.5
				c-0.6-0.7-1.3-1.3-2.1-1.7c-0.8-0.4-1.7-0.6-2.8-0.6c-1.3,0-2.4,0.4-3.3,1.1c-0.9,0.8-1.3,1.7-1.3,2.8c0,1.1,0.4,1.9,1.1,2.6
				s1.9,1.3,3.5,1.8c0.9,0.3,1.9,0.6,2.8,0.9c1,0.3,1.8,0.6,2.6,0.9c1.8,0.7,3.2,1.7,4.1,2.9c0.9,1.2,1.4,2.7,1.4,4.6
				c0,1.1-0.3,2.3-0.8,3.3c-0.5,1.1-1.3,2-2.2,2.7c-1,0.8-2.1,1.4-3.5,1.8C666.1,40.4,664.6,40.6,662.8,40.6z"/>
			<path class="st4" d="M710.1,16.1c1.6,1.1,2.9,2.5,3.9,4.2c1,1.8,1.5,3.9,1.5,6.5c0,2.2-0.4,4.2-1.3,5.8c-0.9,1.7-2.1,3-3.5,4.1
				c-1.5,1.1-3.2,1.8-5.1,2.4c-1.9,0.5-3.9,0.8-6,0.8h-13.3v-1.5c0.4,0,0.9,0,1.5-0.1c0.6-0.1,1-0.1,1.2-0.2
				c0.4-0.2,0.8-0.4,0.9-0.8c0.2-0.3,0.3-0.7,0.3-1.1V17.4c0-0.4-0.1-0.8-0.2-1.1c-0.2-0.3-0.5-0.6-1-0.8c-0.5-0.2-1-0.4-1.5-0.4
				c-0.5-0.1-0.9-0.1-1.2-0.1v-1.5h14.1c1.5,0,3.1,0.2,4.8,0.6C706.8,14.4,708.5,15.1,710.1,16.1z M706.3,35.1
				c0.6-1,1.1-2.2,1.3-3.6c0.3-1.4,0.4-3,0.4-4.7c0-1.8-0.2-3.4-0.6-4.8c-0.4-1.4-0.9-2.7-1.6-3.7c-0.7-1-1.6-1.8-2.7-2.4
				c-1.1-0.6-2.3-0.8-3.7-0.8c-0.4,0-0.9,0-1.5,0c-0.6,0-1,0-1.2,0v20.1c0,0.4,0.1,0.8,0.2,1.2c0.1,0.3,0.3,0.6,0.6,0.9
				c0.3,0.3,0.6,0.5,1.1,0.6c0.4,0.1,1,0.2,1.6,0.2c1.4,0,2.6-0.3,3.6-0.8C704.8,36.9,705.6,36.1,706.3,35.1z"/>
			<path class="st4" d="M746.8,39.9h-14.4v-1.5c0.7,0,1.5-0.2,2.4-0.4c0.9-0.2,1.4-0.4,1.4-0.7c0-0.1,0-0.2,0-0.3
				c0-0.1-0.1-0.3-0.2-0.5l-2.3-5.5h-9.1c-0.2,0.5-0.4,1.1-0.7,1.8c-0.3,0.7-0.5,1.3-0.7,1.8c-0.2,0.7-0.4,1.2-0.4,1.5
				c0,0.3-0.1,0.5-0.1,0.7c0,0.4,0.3,0.7,0.9,1c0.6,0.3,1.6,0.5,3,0.6v1.5h-10.9v-1.5c0.4,0,0.9-0.1,1.4-0.2
				c0.5-0.1,0.9-0.3,1.2-0.4c0.5-0.3,0.9-0.7,1.3-1.1s0.6-1,0.9-1.5c1.4-3.5,2.9-7,4.3-10.5c1.4-3.5,3.1-7.4,4.8-11.6h3.7
				c2.4,6,4.3,10.7,5.7,14.2c1.4,3.5,2.6,6.4,3.5,8.7c0.2,0.4,0.4,0.7,0.6,1s0.6,0.6,1.1,0.9c0.3,0.2,0.8,0.3,1.2,0.4
				c0.5,0.1,0.9,0.2,1.3,0.2V39.9z M732.9,29.2l-3.8-9.6l-3.8,9.6H732.9z"/>
			<path class="st4" d="M775,14.9c-0.4,0-0.9,0.1-1.2,0.2c-0.4,0.1-0.7,0.3-1.1,0.5c-0.5,0.3-1,0.7-1.4,1.1c-0.4,0.5-0.8,1-1.2,1.6
				c-0.8,1.2-1.7,2.5-2.5,3.9c-0.9,1.4-1.9,2.9-2.9,4.6c-0.7,1.1-1.1,1.9-1.3,2.4c-0.2,0.6-0.2,1.5-0.2,2.9v3.7
				c0,0.4,0.1,0.8,0.3,1.2c0.2,0.3,0.5,0.6,1,0.8c0.2,0.1,0.7,0.2,1.3,0.3c0.7,0.1,1.2,0.2,1.5,0.3v1.5h-14.8v-1.5
				c0.3,0,0.8-0.1,1.5-0.1c0.7-0.1,1.1-0.2,1.4-0.3c0.5-0.2,0.8-0.5,0.9-0.8c0.2-0.3,0.3-0.7,0.3-1.2v-4.7c0-0.4,0-0.8,0-1.1
				c0-0.3-0.1-0.6-0.1-0.8c-0.1-0.2-0.2-0.5-0.4-0.9c-0.2-0.4-0.5-0.8-0.8-1.4c-1-1.7-1.9-3.3-2.8-4.8c-0.9-1.5-1.7-2.9-2.6-4.2
				c-0.4-0.7-0.8-1.2-1.3-1.7c-0.4-0.4-0.9-0.8-1.3-1c-0.3-0.2-0.7-0.3-1.2-0.4s-0.9-0.2-1.3-0.2v-1.5h15.2v1.5
				c-1.4,0-2.3,0.1-2.8,0.3c-0.5,0.2-0.7,0.4-0.7,0.6c0,0.1,0.1,0.4,0.3,0.8c0.2,0.4,0.5,1,1,1.9c0.4,0.8,1,1.9,1.9,3.3
				c0.8,1.4,1.8,3.1,2.9,5c2.4-3.7,4-6.4,4.9-7.8c0.9-1.5,1.3-2.4,1.3-2.7c0-0.4-0.3-0.7-0.8-1c-0.5-0.2-1.4-0.4-2.5-0.4v-1.5h9.8
				V14.9z"/>
		</g>
	</g>
	<polygon class="st6" points="1500.2,75 1228,75 1301.8,0 1500,0 	"/>
	<polygon class="st1" points="1322.1,3.7 1325.1,9.7 1331.8,10.7 1327,15.4 1328.1,22.1 1322.1,19 1316.1,22.1 1317.3,15.4 
		1312.4,10.7 1319.1,9.7 	"/>
	<polygon class="st1" points="1354,3.7 1357,9.7 1363.7,10.7 1358.8,15.4 1360,22.1 1354,19 1348,22.1 1349.1,15.4 1344.3,10.7 
		1351,9.7 	"/>
	<polygon class="st1" points="1385.9,3.7 1388.9,9.7 1395.6,10.7 1390.7,15.4 1391.9,22.1 1385.9,19 1379.9,22.1 1381,15.4 
		1376.2,10.7 1382.9,9.7 	"/>
	<polygon class="st1" points="1417.7,3.7 1420.7,9.7 1427.4,10.7 1422.6,15.4 1423.7,22.1 1417.7,19 1411.7,22.1 1412.9,15.4 
		1408,10.7 1414.7,9.7 	"/>
	<polygon class="st1" points="1449.6,3.7 1452.6,9.7 1459.3,10.7 1454.5,15.4 1455.6,22.1 1449.6,19 1443.6,22.1 1444.8,15.4 
		1439.9,10.7 1446.6,9.7 	"/>
	<polygon class="st1" points="1296.5,28.8 1299.5,34.9 1306.2,35.8 1301.3,40.5 1302.5,47.2 1296.5,44.1 1290.5,47.2 1291.7,40.5 
		1286.8,35.8 1293.5,34.9 	"/>
	<polygon class="st1" points="1328.4,28.8 1331.4,34.9 1338.1,35.8 1333.2,40.5 1334.4,47.2 1328.4,44.1 1322.4,47.2 1323.5,40.5 
		1318.7,35.8 1325.4,34.9 	"/>
	<polygon class="st1" points="1360.3,28.8 1363.2,34.9 1369.9,35.8 1365.1,40.5 1366.2,47.2 1360.3,44.1 1354.3,47.2 1355.4,40.5 
		1350.6,35.8 1357.3,34.9 	"/>
	<polygon class="st1" points="1392.1,28.8 1395.1,34.9 1401.8,35.8 1397,40.5 1398.1,47.2 1392.1,44.1 1386.1,47.2 1387.3,40.5 
		1382.4,35.8 1389.1,34.9 	"/>
	<polygon class="st1" points="1424,28.8 1427,34.9 1433.7,35.8 1428.8,40.5 1430,47.2 1424,44.1 1418,47.2 1419.2,40.5 1414.3,35.8 
		1421,34.9 	"/>
	<polygon class="st1" points="1272.5,52.8 1275.5,58.9 1282.2,59.8 1277.3,64.5 1278.5,71.2 1272.5,68.1 1266.5,71.2 1267.7,64.5 
		1262.8,59.8 1269.5,58.9 	"/>
	<polygon class="st1" points="1304.4,52.8 1307.4,58.9 1314.1,59.8 1309.2,64.5 1310.4,71.2 1304.4,68.1 1298.4,71.2 1299.5,64.5 
		1294.7,59.8 1301.4,58.9 	"/>
	<polygon class="st1" points="1336.3,52.8 1339.2,58.9 1345.9,59.8 1341.1,64.5 1342.2,71.2 1336.3,68.1 1330.3,71.2 1331.4,64.5 
		1326.6,59.8 1333.3,58.9 	"/>
	<polygon class="st1" points="1368.1,52.8 1371.1,58.9 1377.8,59.8 1373,64.5 1374.1,71.2 1368.1,68.1 1362.1,71.2 1363.3,64.5 
		1358.4,59.8 1365.1,58.9 	"/>
	<polygon class="st1" points="1400,52.8 1403,58.9 1409.7,59.8 1404.8,64.5 1406,71.2 1400,68.1 1394,71.2 1395.2,64.5 1390.3,59.8 
		1397,58.9 	"/>
	<polyline class="st5" points="1500,0 1500,75 0,75 0,0 	"/>
	<polygon class="st1" points="1480.6,4.7 1483.6,10.7 1490.3,11.7 1485.5,16.4 1486.6,23.1 1480.6,20 1474.6,23.1 1475.8,16.4 
		1470.9,11.7 1477.6,10.7 	"/>
	<polygon class="st1" points="1455,29.8 1458,35.9 1464.7,36.8 1459.8,41.5 1461,48.2 1455,45.1 1449,48.2 1450.2,41.5 1445.3,36.8 
		1452,35.9 	"/>
	<polygon class="st1" points="1431,53.8 1434,59.9 1440.7,60.8 1435.8,65.5 1437,72.2 1431,69.1 1425,72.2 1426.2,65.5 1421.3,60.8 
		1428,59.9 	"/>
	<polygon class="st1" points="1486,29.8 1489,35.9 1495.7,36.8 1490.8,41.5 1492,48.2 1486,45.1 1480,48.2 1481.2,41.5 1476.3,36.8 
		1483,35.9 	"/>
	<polygon class="st1" points="1462,53.8 1465,59.9 1471.7,60.8 1466.8,65.5 1468,72.2 1462,69.1 1456,72.2 1457.2,65.5 1452.3,60.8 
		1459,59.9 	"/>
	<polygon class="st1" points="74.6,1.7 77.6,7.7 84.3,8.7 79.5,13.4 80.6,20.1 74.6,17 68.6,20.1 69.8,13.4 64.9,8.7 71.6,7.7 	"/>
	<polygon class="st1" points="49,26.8 52,32.9 58.7,33.8 53.8,38.5 55,45.2 49,42.1 43,45.2 44.2,38.5 39.3,33.8 46,32.9 	"/>
	<polygon class="st1" points="25,50.8 28,56.9 34.7,57.8 29.8,62.5 31,69.2 25,66.1 19,69.2 20.2,62.5 15.3,57.8 22,56.9 	"/>
	<polygon class="st1" points="39.6,1.7 42.6,7.7 49.3,8.7 44.5,13.4 45.6,20.1 39.6,17 33.6,20.1 34.8,13.4 29.9,8.7 36.6,7.7 	"/>
	<polygon class="st1" points="16,26.8 19,32.9 25.7,33.8 20.8,38.5 22,45.2 16,42.1 10,45.2 11.2,38.5 6.3,33.8 13,32.9 	"/>
</g>
<polygon class="st4" points="997,75 860,75 938,0 1071,0 "/>
<g class="code_off">
	<path class="stBlue" d="M979.4,17.3l-0.6,0.2c-1-1.8-2.4-3.1-4.2-3.1c-2.7,0-3.7,2.4-3.7,5.6c0,3.3,1,5.6,3.7,5.6c2,0,3.6-1.3,4.1-3
	l1,0.3c-0.8,2.3-2.5,3.7-5.3,3.7c-3.7,0-6.2-2.7-6.2-6.6s2.5-6.6,6.2-6.6c1.4,0,2.3,0.3,3.1,0.9l0.3-0.6h0.7L979.4,17.3z"/>
	<path class="stBlue" d="M985.2,17.9c2.7,0,4.5,1.9,4.5,4.4c0,2.5-1.8,4.4-4.5,4.4s-4.5-1.9-4.5-4.4C980.7,19.7,982.5,17.9,985.2,17.9z
		 M985.2,25.7c1.6,0,2.2-1.4,2.2-3.5s-0.6-3.5-2.2-3.5s-2.2,1.4-2.2,3.5S983.6,25.7,985.2,25.7z"/>
	<path class="stBlue" d="M995.8,14.9l2.5-1.5h0.8v11.5c0,0.6,0.2,0.8,1.1,0.9v0.6c-1.1,0-2.2,0.1-3.3,0.3v-0.9c-0.6,0.6-1.3,0.9-2.4,0.9
		c-2.3,0-3.8-1.8-3.8-4.4c0-2.6,1.5-4.4,3.8-4.4c1,0,1.8,0.3,2.4,0.9V16c0-0.4-0.1-0.6-0.5-0.6h-0.6V14.9z M996.9,24.7v-5
		c-0.4-0.6-1-0.9-1.7-0.9c-1.6,0-2.2,1.2-2.2,3.4s0.6,3.3,2.2,3.3C995.9,25.6,996.5,25.3,996.9,24.7z"/>
	<path class="stBlue" d="M1003.5,21.6c0,0.2,0,0.4,0,0.7c0,2.1,0.7,3.4,2.5,3.4c1.1,0,2.1-0.7,2.7-2l0.8,0.5c-0.7,1.5-1.9,2.6-3.7,2.6
		c-3,0-4.6-1.9-4.6-4.4c0-2.5,1.7-4.4,4.3-4.4c2.4,0,3.8,1.4,3.8,3.7H1003.5z M1003.6,20.6h3.5c0-1.2-0.7-1.9-1.6-1.9
		C1004.3,18.8,1003.8,19.4,1003.6,20.6z"/>
	<path class="stBlue" d="M1012.3,17.9c0.9,0,1.4,0.7,1.4,1.4c0,0.8-0.6,1.4-1.4,1.4c-0.9,0-1.4-0.7-1.4-1.4
		C1010.9,18.6,1011.4,17.9,1012.3,17.9z M1012.3,23.8c0.9,0,1.4,0.7,1.4,1.4c0,0.8-0.6,1.4-1.4,1.4c-0.9,0-1.4-0.7-1.4-1.4
		C1010.9,24.4,1011.4,23.8,1012.3,23.8z"/>
	<path class="stBlue" d="M914.8,54.5l-7.6-19.8c-0.6-1.6-1.2-2.1-2.6-2.3v-1.1h9.6v1.1c-2.2,0.2-2.7,0.6-2.2,2.1l5.8,14.9l5.7-14.9
		c0.5-1.4-0.3-1.9-2.5-2.1v-1.1h7.3v1.1c-1.5,0.2-2.2,0.7-2.8,2.2l-7.6,19.9H914.8z"/>
	<path class="stBlue" d="M940.3,41.1c3.1,0.6,5.4,3,5.4,6.1c0,4.4-3.2,7.8-9.2,7.8c-3.2,0-6.9-1.2-6.9-3.7c0-1.2,0.8-2.1,2-2.1
		c2.9,0,2.3,3.9,5.1,3.9c3.2,0,4.3-2.1,4.3-5.2c0-2.9-1.7-5.3-5.2-5.3h-0.6v-1.9h0.7c2.6,0,3.9-1.9,3.9-4.3c0-2.1-1.1-3.8-3.4-3.8
		c-2.1,0-3.9,1.4-4.1,4.5h-2c0.4-3.9,2.8-6.4,7-6.4c4.6,0,7.1,2.5,7.1,5.2C944.4,38.4,942.9,40.3,940.3,41.1z"/>
	<path class="stBlue" d="M956.1,34.2c0-0.6-0.4-1-1-1c-2.9,0-5.2,1.1-7.2,4.3l-1-0.4l2.4-6.4h1.1c0.2,0.5,0.5,0.7,1,0.7h14
		c0.5,0,0.9-0.2,1-0.7h1.1L970,37l-1,0.4c-1.9-3.2-4.5-4.3-7.3-4.3c-0.6,0-1,0.4-1,1v16.6c0,2.2,0.5,2.4,2.9,2.6v1.1h-10.4v-1.1
		c2.4-0.2,2.9-0.4,2.9-2.6V34.2z"/>
	<path class="stBlue" d="M981.9,40c4.2,1.1,9.1,2.3,9.1,7.5c0,4.5-4.1,7.5-9.4,7.5c-2.8,0-5.2-0.7-7-1.7l-0.5,1.2h-1.3l-2-7.3l1-0.3
		c2,3.9,5.5,6.3,9.6,6.3c2.9,0,5.3-1.7,5.3-4.1c0-2.9-3.1-3.8-6.5-4.7c-4-1.1-8.3-2.4-8.3-7.1c0-4,3.7-6.5,8.2-6.5
		c2.9,0,5,0.7,6.4,1.6l0.5-1.1h1.3l1.8,6.6l-1,0.3c-1.7-3.5-4.6-5.6-8.6-5.6c-2.8,0-4.4,1.4-4.4,3.3C976,38.3,978.7,39.2,981.9,40z"
		/>
	<path class="stBlue" d="M1004.3,40c4.2,1.1,9.1,2.3,9.1,7.5c0,4.5-4.1,7.5-9.4,7.5c-2.8,0-5.2-0.7-7-1.7l-0.5,1.2h-1.3l-2-7.3l1-0.3
		c2,3.9,5.5,6.3,9.6,6.3c2.9,0,5.3-1.7,5.3-4.1c0-2.9-3.1-3.8-6.5-4.7c-4-1.1-8.3-2.4-8.3-7.1c0-4,3.7-6.5,8.2-6.5
		c2.9,0,5,0.7,6.4,1.6l0.5-1.1h1.3l1.8,6.6l-1,0.3c-1.7-3.5-4.6-5.6-8.6-5.6c-2.8,0-4.4,1.4-4.4,3.3
		C998.5,38.3,1001.2,39.2,1004.3,40z"/>
</g>
<g class="code_on">
	<path class="stBlue" d="M913.3,43.1c-1.3-0.1-2.8-0.6-3.9-1.4l-0.4,0.9h-1.2l-1.8-6.5l0.9-0.3c1.8,3.6,4.1,5.7,6.3,5.7v-8
		c-2.9-1.2-6.1-2.3-6.1-6.6c0-2.5,2-5.3,6.2-5.5v-1.4h1.5v1.4c1.2,0.1,2.2,0.6,2.8,1.2l0.4-0.8h1.2l1.6,5.9L920,28
		c-1.5-3.3-3-4.9-5.1-5v7.4c3,1.2,6.5,2.4,6.5,6.7c0,3.2-2.4,5.7-6.5,6V46h-1.5V43.1z M913.4,29.7v-6.6c-1.6,0.3-2.6,1.4-2.6,3.2
		C910.7,28,911.8,29,913.4,29.7z M914.8,34.2v7.2c2-0.4,2.9-1.9,2.9-3.4C917.7,36.1,916.4,35,914.8,34.2z"/>
	<path class="stBlue" d="M924.2,28.2c0-4.2,2.8-6.8,6.6-6.8c3.9,0,6.6,2.5,6.6,6c0,4.5-4.1,8.2-9.1,11.5h6.8c1.1,0,1.4-0.1,1.8-2.3h1.1
		l-0.8,6.6h-1.1c0-0.3-0.1-0.7-0.6-0.7h-11.1v-2c4.4-3.7,8.8-8,8.8-13.1c0-2.7-1.1-4.3-3.4-4.3c-2.2,0-3.9,1.6-3.9,5H924.2z"/>
	<path class="stBlue" d="M948.4,21.5c4.9,0,7.6,4.3,7.6,10.8s-2.7,10.8-7.6,10.8c-4.9,0-7.5-4.3-7.5-10.8S943.6,21.5,948.4,21.5z
		 M948.4,41.5c2.8,0,3.4-3.4,3.4-9.2c0-5.9-0.6-9.2-3.4-9.2c-2.8,0-3.4,3.3-3.4,9.2C945,38.2,945.6,41.5,948.4,41.5z"/>
	<path class="stBlue" d="M975.8,21.5c6.4,0,10.3,4.4,10.3,10.8c0,6.4-3.9,10.8-10.3,10.8c-6.4,0-10.3-4.4-10.3-10.8
		C965.4,25.9,969.3,21.5,975.8,21.5z M975.8,41.5c4.4,0,5.9-3.9,5.9-9.2c0-5.4-1.5-9.2-5.9-9.2c-4.4,0-5.9,3.9-5.9,9.2
		C969.9,37.6,971.3,41.5,975.8,41.5z"/>
	<path class="stBlue" d="M994.6,31h4.2c2.2,0,2.6-1,2.6-2.7h1.1v7.1h-1.1c-0.1-1.7-0.5-2.7-2.6-2.7h-4.2v6.7c0,2,0.5,2.2,2.7,2.3v1
		h-9.4v-1c2.1-0.1,2.6-0.3,2.6-2.3V25.2c0-2-0.5-2.2-2.6-2.3v-1h16.7l1.8,5.1l-0.8,0.4c-1.9-2.6-4.1-3.9-7.8-3.9h-2.3
		c-0.5,0-0.9,0.4-0.9,0.9V31z"/>
	<path class="stBlue" d="M1014.1,31h4.2c2.2,0,2.6-1,2.6-2.7h1.1v7.1h-1.1c-0.1-1.7-0.5-2.7-2.6-2.7h-4.2v6.7c0,2,0.5,2.2,2.7,2.3v1
		h-9.4v-1c2.1-0.1,2.6-0.3,2.6-2.3V25.2c0-2-0.5-2.2-2.6-2.3v-1h16.7l1.8,5.1l-0.8,0.4c-1.9-2.6-4.1-3.9-7.8-3.9h-2.3
		c-0.5,0-0.9,0.4-0.9,0.9V31z"/>
</g>
</svg>
