<?xml version="1.0" encoding="utf-8"?>
<!-- Generator: Adobe Illustrator 21.0.2, SVG Export Plug-In . SVG Version: 6.00 Build 0)  -->
<svg version="1.1" id="Layer_1" xmlns="http://www.w3.org/2000/svg" xmlns:xlink="http://www.w3.org/1999/xlink" x="0px" y="0px"
	 viewBox="0 0 385 75" style="enable-background:new 0 0 385 75;" xml:space="preserve">
<style type="text/css">
	.st0{fill:#002054;}
	.st1{fill:#FFFF00;}
	.st2{fill:#FF9900;}
</style>
<g>
	<g>
		<path class="st0" d="M83.9,63.5c-3.3,0-6.4-0.5-9.2-1.5c-1.3,0.6-2.8,1-4.3,1h-6.2c-3.6,0-6.9-2-8.7-5c-1.8,3.1-5,5-8.7,5h-4.9
			c-0.3,0-0.5,0-0.8,0c-0.2,0-0.5,0-0.8,0H19.5c-5.5,0-10-4.5-10-10V21c0-5.5,4.5-10,10-10h20.6c2.3,0,4.5,0.8,6.2,2.2
			c1.7-1.4,3.9-2.2,6.2-2.2h7.1c3.7,0,7.1,2,8.8,5.2c0.3-0.3,0.7-0.6,1-0.9c3.9-3.2,8.8-4.8,14.5-4.8c3.3,0,6.5,0.6,9.4,1.7
			c1.5-0.8,3.1-1.2,4.8-1.2h23.2c0.6,0,1.2,0.1,1.8,0.2c0.6-0.1,1.2-0.2,1.8-0.2h20.6c0.9,0,1.7,0.1,2.6,0.3
			c0.8-0.2,1.7-0.3,2.6-0.3h13.9c6.5,0,11.7,1.8,15.4,5.4c3.8,3.6,5.8,8.5,5.8,14c0,4.5-1.3,8.4-3.8,11.6l2.9,7.3
			c1.2,3.1,0.8,6.6-1,9.3c-1.9,2.7-5,4.4-8.3,4.4h-6.1c-2.4,0-4.8-0.9-6.5-2.4c-1.8,1.5-4,2.4-6.5,2.4h-5.8c-0.8,0-1.7-0.1-2.5-0.3
			c-0.8,0.2-1.6,0.3-2.5,0.3h-20.8c-2.3,0-4.3-0.8-6-2c-1.7,1.3-3.8,2-6,2h-6.2c-3.2,0-6.1-1.5-7.9-3.9C94.7,62,89.7,63.5,83.9,63.5
			z"/>
		<path class="st1" d="M180.7,30.4c0-4.1-1.5-7.7-4.3-10.4c-2.8-2.7-6.8-4-12-4h-13.9c-1,0-1.8,0.3-2.6,0.7
			c-0.8-0.5-1.6-0.7-2.6-0.7h-20.6c-0.6,0-1.2,0.1-1.8,0.3c-0.5-0.2-1.1-0.3-1.8-0.3H98.1c-1.7,0-3.2,0.9-4.1,2.1
			c-0.1-0.1-0.2-0.1-0.3-0.2c-2.9-1.6-6.2-2.4-9.8-2.4c-4.5,0-8.3,1.2-11.3,3.7c-3,2.5-4.7,5.9-5,9.8l-3.2-9.6
			c-0.7-2-2.6-3.4-4.7-3.4h-7.1c-2.2,0-4.1,1.4-4.7,3.4l-5.6,16.9v-1.9c0-1.5-0.6-2.8-1.6-3.7c2.5-0.2,4.5-2.4,4.5-5V21
			c0-2.8-2.2-5-5-5H19.5c-2.8,0-5,2.2-5,5v32c0,2.8,2.2,5,5,5h20.8c0.3,0,0.5,0,0.8-0.1c0.3,0,0.6,0.1,0.8,0.1h4.9
			c2.2,0,4.1-1.4,4.7-3.4l1.4-4.2h5.1l1.4,4.2c0.7,2,2.6,3.4,4.7,3.4h6.2c1.4,0,2.8-0.6,3.7-1.7c2.9,1.4,6.2,2.2,9.9,2.2
			c4.9,0,9-1.3,12.2-3.7c3.3-2.5,5.2-6,5.5-10.2V53c0,2.8,2.2,5,5,5h6.2c2.8,0,5-2.2,5-5V31h2v22c0,2.8,2.2,5,5,5h20.8
			c0.9,0,1.7-0.3,2.5-0.7c0.7,0.4,1.6,0.7,2.5,0.7h5.8c2.8,0,5-2.2,5-5v-7.2l3.4,9c0.7,1.9,2.6,3.2,4.7,3.2h6.1
			c1.7,0,3.2-0.8,4.1-2.2c0.9-1.4,1.1-3.1,0.5-4.7l-4.1-10.2C179.1,38.4,180.7,34.8,180.7,30.4z M71.7,40l-0.4,0.1l-0.2-0.7
			C71.3,39.6,71.5,39.8,71.7,40z M145.6,43L145.6,43L145.6,43C145.6,43,145.6,43,145.6,43z"/>
		<path class="st0" d="M286.5,63.5c-3.8,0-7.3-0.8-10.3-2.4c-1.7,1.2-3.7,1.9-5.8,1.9h-20.8c-5.5,0-10-4.5-10-10v-3.2
			c-1,0.2-2,0.4-3,0.5V53c0,5.5-4.5,10-10,10h-5.8c-2.2,0-4.3-0.7-6-2c-3.4,1.7-7.3,2.5-11.7,2.5c-4.9,0-9.3-1.1-13.2-3.3
			c-4.7-2.6-8-6.9-9.5-12.3c-0.7-2.6-0.3-5.5,1.1-7.9c0.5-0.9,1.2-1.6,1.9-2.3c-1.1-2.5-1.6-5.1-1.6-7.9c0-5.8,2.4-11,6.9-14.6
			c3.9-3.2,8.8-4.8,14.5-4.8c4.2,0,8,0.9,11.5,2.7c1.7-1.4,3.9-2.2,6.2-2.2H234c3.7,0,7,0.6,9.8,1.9c1.7-1.2,3.7-1.9,5.9-1.9h20.6
			c2.2,0,4.3,0.8,6,2c3.1-1.7,6.7-2.5,10.5-2.5c3.9,0,7.4,0.8,10.5,2.5c1.7-1.3,3.8-2,6-2h5.8c2.8,0,5.3,1.2,7.1,3
			c1.8-1.9,4.4-3,7.2-3h7.1c2.8,0,5.4,1.2,7.3,3.2c1.8-1.9,4.4-3.2,7.3-3.2h6.1c5.5,0,10,4.5,10,10v16.8h3.6c5.5,0,10,4.5,10,10V53
			c0,5.5-4.5,10-10,10h-19.7c-0.7,0-1.3-0.1-1.9-0.2c-0.6,0.1-1.3,0.2-1.9,0.2h-6.2c-3.6,0-6.9-2-8.7-5c-1.8,3.1-5,5-8.7,5h-4.9
			c-0.6,0-1.2-0.1-1.8-0.2c-0.6,0.1-1.2,0.2-1.8,0.2h-5.8c-2.2,0-4.3-0.7-6-2C294.1,62.7,290.5,63.5,286.5,63.5z"/>
		<path class="st1" d="M364.6,42.8H356V21c0-2.8-2.2-5-5-5h-6.1c-2.8,0-5,2.2-5,5v12.8l-4.8-14.4c-0.7-2-2.6-3.4-4.7-3.4h-7.1
			c-2.2,0-4.1,1.4-4.7,3.4l-4.6,13.7V21c0-2.8-2.2-5-5-5h-5.8c-2.4,0-4.4,1.7-4.9,4c-0.1-0.1-0.2-0.2-0.3-0.3
			c-3.1-2.8-6.9-4.3-11.3-4.3c-4.6,0-8.5,1.5-11.6,4.5c-0.5-2.3-2.5-4-4.9-4h-20.6c-2.2,0-4.1,1.5-4.7,3.4
			c-2.7-2.3-6.4-3.4-10.9-3.4h-13.1c-2.5,0-4.5,1.8-4.9,4.2c-0.9-0.9-1.9-1.6-3-2.2c-2.9-1.6-6.2-2.4-9.8-2.4
			c-4.5,0-8.3,1.2-11.3,3.7c-3.3,2.7-5,6.4-5,10.8c0,2.2,0.5,4.3,1.4,6.2c0.7,1.5,1.6,2.8,2.7,3.8l-1.9,0.4
			c-1.3,0.3-2.5,1.1-3.2,2.3c-0.7,1.2-0.9,2.6-0.5,3.9c1.1,4.1,3.6,7.3,7.1,9.2c3.1,1.7,6.7,2.6,10.8,2.6c4.9,0,9-1.3,12.2-3.7
			c0.2-0.2,0.4-0.4,0.6-0.5c0.5,2.2,2.5,3.8,4.8,3.8h5.8c2.8,0,5-2.2,5-5v-7.7h3c3.9,0,7.2-1.1,10-3.4v11c0,2.8,2.2,5,5,5h20.8
			c2.3,0,4.2-1.6,4.8-3.7c0.3,0.3,0.7,0.6,1,0.9c2.7,2.2,6.2,3.3,10.3,3.3c4.8,0,8.7-1.5,11.8-4.4c0.5,2.3,2.5,4,4.9,4h5.8
			c0.6,0,1.3-0.1,1.8-0.4c0.6,0.2,1.2,0.4,1.8,0.4h4.9c2.2,0,4.1-1.4,4.7-3.4l1.4-4.2h5.1l1.4,4.2c0.7,2,2.6,3.4,4.7,3.4h6.2
			c0.7,0,1.3-0.1,1.9-0.4c0.6,0.2,1.2,0.4,1.9,0.4h19.7c2.8,0,5-2.2,5-5v-5.2C369.6,45,367.4,42.8,364.6,42.8z M215.8,32.3
			C215.8,32.3,215.9,32.3,215.8,32.3l0,0.3c-0.1-0.1-0.2-0.2-0.3-0.3L215.8,32.3z M298.2,36.9v0.5l-2.3-0.3L298.2,36.9z"/>
	</g>
	<g>
		<path class="st2" d="M40.3,53H19.5V21h20.6v4.8H25.3v8.7h11.9v4.6H25.3v9h15V53z"/>
		<path class="st2" d="M70.4,53h-6.2l-2.6-7.6H49.4L46.8,53h-4.9l10.6-32h7.1L70.4,53z M60.1,40.8l-4.7-14.3l-4.7,14.3H60.1z"/>
		<path class="st2" d="M70.9,45.3l5.6-1.2c0.7,3.2,3.3,4.8,7.7,4.8c2,0,3.6-0.4,4.7-1.2s1.7-1.8,1.7-3c0-0.9-0.3-1.7-0.8-2.4
			s-1.6-1.3-3.2-1.7l-6.1-1.6c-2.1-0.5-3.6-1.2-4.6-1.9s-1.8-1.7-2.4-2.9s-0.9-2.6-0.9-4.1c0-2.9,1.1-5.2,3.2-6.9s4.8-2.6,8.2-2.6
			c2.8,0,5.2,0.6,7.4,1.8s3.5,2.9,4.1,5.1l-5.5,1.4c-0.8-2.4-2.8-3.6-5.9-3.6c-1.8,0-3.2,0.4-4.1,1.1s-1.4,1.7-1.4,2.9
			c0,1.8,1.5,3.1,4.5,3.8l5.4,1.4c3.3,0.8,5.5,2.1,6.6,3.7s1.7,3.4,1.7,5.4c0,3.1-1.2,5.6-3.6,7.4s-5.4,2.7-9.2,2.7
			c-3.2,0-5.9-0.7-8.3-2S71.6,48.1,70.9,45.3z"/>
		<path class="st2" d="M112.8,53h-6.2V26h-8.5V21h23.2V26h-8.5V53z"/>
		<path class="st2" d="M145.6,53h-20.8V21h20.6v4.8h-14.8v8.7h11.9v4.6h-11.9v9h15V53z"/>
		<path class="st2" d="M175.5,53h-6.1l-5-13.1h-8.1V53h-5.8V21h13.9c3.9,0,6.7,0.9,8.5,2.6s2.7,4,2.7,6.8c0,4.1-1.9,6.9-5.8,8.5
			L175.5,53z M156.4,35.2h7.2c2.1,0,3.6-0.4,4.6-1.3s1.5-2.1,1.5-3.6c0-1.4-0.5-2.5-1.5-3.4s-2.4-1.3-4.2-1.3h-7.6V35.2z"/>
		<path class="st2" d="M190.1,45.3l5.6-1.2c0.7,3.2,3.3,4.8,7.7,4.8c2,0,3.6-0.4,4.7-1.2s1.7-1.8,1.7-3c0-0.9-0.3-1.7-0.8-2.4
			s-1.6-1.3-3.2-1.7l-6.1-1.6c-2.1-0.5-3.6-1.2-4.6-1.9s-1.8-1.7-2.4-2.9s-0.9-2.6-0.9-4.1c0-2.9,1.1-5.2,3.2-6.9s4.8-2.6,8.2-2.6
			c2.8,0,5.2,0.6,7.4,1.8s3.5,2.9,4.1,5.1l-5.5,1.4c-0.8-2.4-2.8-3.6-5.9-3.6c-1.8,0-3.2,0.4-4.1,1.1s-1.4,1.7-1.4,2.9
			c0,1.8,1.5,3.1,4.5,3.8l5.4,1.4c3.3,0.8,5.5,2.1,6.6,3.7s1.7,3.4,1.7,5.4c0,3.1-1.2,5.6-3.6,7.4s-5.4,2.7-9.2,2.7
			c-3.2,0-5.9-0.7-8.3-2S190.9,48.1,190.1,45.3z"/>
		<path class="st2" d="M226.6,53h-5.8V21H234c3.7,0,6.5,0.9,8.3,2.8s2.7,4.1,2.7,6.7c0,2.9-1,5.3-2.9,7.1s-4.4,2.7-7.4,2.7h-8V53z
			 M226.6,35.4h6.8c1.8,0,3.1-0.4,4.1-1.3s1.4-2,1.4-3.5c0-1.3-0.4-2.4-1.3-3.4s-2.4-1.4-4.7-1.4h-6.3V35.4z"/>
		<path class="st2" d="M270.4,53h-20.8V21h20.6v4.8h-14.8v8.7h11.9v4.6h-11.9v9h15V53z"/>
		<path class="st2" d="M293.3,41.9l5.3,0.6c-0.3,3.2-1.6,5.8-3.7,7.9s-4.9,3.1-8.4,3.1c-2.9,0-5.3-0.7-7.1-2.2s-3.2-3.5-4.2-6
			s-1.5-5.3-1.5-8.3c0-4.9,1.2-8.8,3.5-11.9s5.5-4.6,9.5-4.6c3.2,0,5.8,1,7.9,2.9s3.4,4.8,4,8.4l-5.3,0.6c-1-4.8-3.2-7.2-6.5-7.2
			c-2.2,0-3.8,1-5,3s-1.8,4.9-1.8,8.7c0,3.9,0.6,6.8,1.9,8.8s3,3,5.1,3c1.7,0,3.1-0.7,4.3-2S293.1,43.7,293.3,41.9z"/>
		<path class="st2" d="M308.9,53h-5.8V21h5.8V53z"/>
		<path class="st2" d="M341.1,53h-6.2l-2.6-7.6h-12.3l-2.5,7.6h-4.9l10.6-32h7.1L341.1,53z M330.8,40.8l-4.7-14.3l-4.7,14.3H330.8z"
			/>
		<path class="st2" d="M364.6,53h-19.7V21h6.1v26.8h13.6V53z"/>
	</g>
</g>
</svg>
